<?xml version="1.0" encoding="UTF-8" standalone="no"?>
<!DOCTYPE svg PUBLIC "-//W3C//DTD SVG 1.1//EN"
 "http://www.w3.org/Graphics/SVG/1.1/DTD/svg11.dtd">
<!-- Generated by graphviz version 2.43.0 (0)
 -->
<!-- Title: SubtitleRenderer::setEnabled Pages: 1 -->
<svg width="557pt" height="70pt"
 viewBox="0.00 0.00 557.00 69.50" xmlns="http://www.w3.org/2000/svg" xmlns:xlink="http://www.w3.org/1999/xlink">
<g id="graph0" class="graph" transform="scale(1 1) rotate(0) translate(4 65.5)">
<title>SubtitleRenderer::setEnabled</title>
<!-- Node1 -->
<g id="Node000001" class="node">
<title>Node1</title>
<g id="a_Node000001"><a xlink:title="Enable or disable subtitle rendering.">
<polygon fill="#999999" stroke="#666666" points="158,-42.5 0,-42.5 0,-23.5 158,-23.5 158,-42.5"/>
<text text-anchor="middle" x="79" y="-30.5" font-family="Helvetica,sans-Serif" font-size="10.00">SubtitleRenderer::setEnabled</text>
</a>
</g>
</g>
<!-- Node2 -->
<g id="Node000002" class="node">
<title>Node2</title>
<g id="a_Node000002"><a xlink:href="../../de/d8e/classSubtitleRenderer.html#ada1175e3ae16c82f74e6744aa0ed7885" target="_top" xlink:title="Hide subtitles with animation.">
<polygon fill="white" stroke="#666666" points="364.5,-61.5 196.5,-61.5 196.5,-42.5 364.5,-42.5 364.5,-61.5"/>
<text text-anchor="middle" x="280.5" y="-49.5" font-family="Helvetica,sans-Serif" font-size="10.00">SubtitleRenderer::hideSubtitles</text>
</a>
</g>
</g>
<!-- Node1&#45;&gt;Node2 -->
<g id="edge1_Node000001_Node000002" class="edge">
<title>Node1&#45;&gt;Node2</title>
<g id="a_edge1_Node000001_Node000002"><a xlink:title=" ">
<path fill="none" stroke="#63b8ff" d="M158.28,-40.45C167.41,-41.33 176.81,-42.22 186.12,-43.11"/>
<polygon fill="#63b8ff" stroke="#63b8ff" points="185.9,-46.6 196.19,-44.07 186.56,-39.63 185.9,-46.6"/>
</a>
</g>
</g>
<!-- Node3 -->
<g id="Node000003" class="node">
<title>Node3</title>
<g id="a_Node000003"><a xlink:href="../../de/d8e/classSubtitleRenderer.html#a1e73f9cc44c3f000a32cdaf05287fc9b" target="_top" xlink:title="Show subtitles with animation.">
<polygon fill="white" stroke="#666666" points="367,-24.5 194,-24.5 194,-5.5 367,-5.5 367,-24.5"/>
<text text-anchor="middle" x="280.5" y="-12.5" font-family="Helvetica,sans-Serif" font-size="10.00">SubtitleRenderer::showSubtitles</text>
</a>
</g>
</g>
<!-- Node1&#45;&gt;Node3 -->
<g id="edge2_Node000001_Node000003" class="edge">
<title>Node1&#45;&gt;Node3</title>
<g id="a_edge2_Node000001_Node000003"><a xlink:title=" ">
<path fill="none" stroke="#63b8ff" d="M158.28,-25.94C166.67,-25.18 175.28,-24.4 183.85,-23.63"/>
<polygon fill="#63b8ff" stroke="#63b8ff" points="184.23,-27.11 193.87,-22.73 183.6,-20.14 184.23,-27.11"/>
</a>
</g>
</g>
<!-- Node4 -->
<g id="Node000004" class="node">
<title>Node4</title>
<g id="a_Node000004"><a xlink:href="../../de/d8e/classSubtitleRenderer.html#a56bcc3d33ee9230f45e208dafad76e29" target="_top" xlink:title="Emitted when subtitle visibility changes.">
<polygon fill="white" stroke="#666666" points="549,-30 403,-30 403,0 549,0 549,-30"/>
<text text-anchor="start" x="411" y="-18" font-family="Helvetica,sans-Serif" font-size="10.00">SubtitleRenderer::visibility</text>
<text text-anchor="middle" x="476" y="-7" font-family="Helvetica,sans-Serif" font-size="10.00">Changed</text>
</a>
</g>
</g>
<!-- Node3&#45;&gt;Node4 -->
<g id="edge3_Node000003_Node000004" class="edge">
<title>Node3&#45;&gt;Node4</title>
<g id="a_edge3_Node000003_Node000004"><a xlink:title=" ">
<path fill="none" stroke="#63b8ff" d="M367.22,-15C375.7,-15 384.29,-15 392.74,-15"/>
<polygon fill="#63b8ff" stroke="#63b8ff" points="392.94,-18.5 402.94,-15 392.94,-11.5 392.94,-18.5"/>
</a>
</g>
</g>
</g>
</svg>
