<?xml version="1.0" encoding="UTF-8" standalone="no"?>
<!DOCTYPE svg PUBLIC "-//W3C//DTD SVG 1.1//EN"
 "http://www.w3.org/Graphics/SVG/1.1/DTD/svg11.dtd">
<!-- Generated by graphviz version 2.43.0 (0)
 -->
<!-- Title: SubtitleRenderer::visibilityChanged Pages: 1 -->
<svg width="557pt" height="76pt"
 viewBox="0.00 0.00 557.00 75.50" xmlns="http://www.w3.org/2000/svg" xmlns:xlink="http://www.w3.org/1999/xlink">
<g id="graph0" class="graph" transform="scale(1 1) rotate(0) translate(4 71.5)">
<title>SubtitleRenderer::visibilityChanged</title>
<!-- Node1 -->
<g id="Node000001" class="node">
<title>Node1</title>
<g id="a_Node000001"><a xlink:title="Emitted when subtitle visibility changes.">
<polygon fill="#999999" stroke="#666666" points="549,-51 403,-51 403,-21 549,-21 549,-51"/>
<text text-anchor="start" x="411" y="-39" font-family="Helvetica,sans-Serif" font-size="10.00">SubtitleRenderer::visibility</text>
<text text-anchor="middle" x="476" y="-28" font-family="Helvetica,sans-Serif" font-size="10.00">Changed</text>
</a>
</g>
</g>
<!-- Node2 -->
<g id="Node000002" class="node">
<title>Node2</title>
<g id="a_Node000002"><a xlink:href="../../de/d8e/classSubtitleRenderer.html#a1e73f9cc44c3f000a32cdaf05287fc9b" target="_top" xlink:title="Show subtitles with animation.">
<polygon fill="white" stroke="#666666" points="367,-45.5 194,-45.5 194,-26.5 367,-26.5 367,-45.5"/>
<text text-anchor="middle" x="280.5" y="-33.5" font-family="Helvetica,sans-Serif" font-size="10.00">SubtitleRenderer::showSubtitles</text>
</a>
</g>
</g>
<!-- Node1&#45;&gt;Node2 -->
<g id="edge1_Node000001_Node000002" class="edge">
<title>Node1&#45;&gt;Node2</title>
<g id="a_edge1_Node000001_Node000002"><a xlink:title=" ">
<path fill="none" stroke="#63b8ff" d="M392.68,-36C384.18,-36 375.54,-36 367.01,-36"/>
<polygon fill="#63b8ff" stroke="#63b8ff" points="392.95,-39.5 402.95,-36 392.95,-32.5 392.95,-39.5"/>
</a>
</g>
</g>
<!-- Node3 -->
<g id="Node000003" class="node">
<title>Node3</title>
<g id="a_Node000003"><a xlink:href="../../de/d8e/classSubtitleRenderer.html#a579b0967b3abd3a9f07f81a784dad449" target="_top" xlink:title="Enable or disable subtitle rendering.">
<polygon fill="white" stroke="#666666" points="158,-67.5 0,-67.5 0,-48.5 158,-48.5 158,-67.5"/>
<text text-anchor="middle" x="79" y="-55.5" font-family="Helvetica,sans-Serif" font-size="10.00">SubtitleRenderer::setEnabled</text>
</a>
</g>
</g>
<!-- Node2&#45;&gt;Node3 -->
<g id="edge2_Node000002_Node000003" class="edge">
<title>Node2&#45;&gt;Node3</title>
<g id="a_edge2_Node000002_Node000003"><a xlink:title=" ">
<path fill="none" stroke="#63b8ff" d="M183.71,-46.56C175.14,-47.51 166.53,-48.46 158.13,-49.38"/>
<polygon fill="#63b8ff" stroke="#63b8ff" points="184.18,-50.03 193.74,-45.46 183.41,-43.07 184.18,-50.03"/>
</a>
</g>
</g>
<!-- Node4 -->
<g id="Node000004" class="node">
<title>Node4</title>
<g id="a_Node000004"><a xlink:href="../../de/d8e/classSubtitleRenderer.html#a2072b5310b14f339bcca07ab24758516" target="_top" xlink:title="Set subtitle entries to display.">
<polygon fill="white" stroke="#666666" points="157.5,-30 0.5,-30 0.5,0 157.5,0 157.5,-30"/>
<text text-anchor="start" x="8.5" y="-18" font-family="Helvetica,sans-Serif" font-size="10.00">SubtitleRenderer::setSubtitle</text>
<text text-anchor="middle" x="79" y="-7" font-family="Helvetica,sans-Serif" font-size="10.00">Entries</text>
</a>
</g>
</g>
<!-- Node2&#45;&gt;Node4 -->
<g id="edge3_Node000002_Node000004" class="edge">
<title>Node2&#45;&gt;Node4</title>
<g id="a_edge3_Node000002_Node000004"><a xlink:title=" ">
<path fill="none" stroke="#63b8ff" d="M183.53,-25.9C174.8,-24.98 166.04,-24.06 157.51,-23.16"/>
<polygon fill="#63b8ff" stroke="#63b8ff" points="183.42,-29.41 193.74,-26.97 184.16,-22.44 183.42,-29.41"/>
</a>
</g>
</g>
</g>
</svg>
