<?xml version="1.0" encoding="UTF-8" standalone="no"?>
<!DOCTYPE svg PUBLIC "-//W3C//DTD SVG 1.1//EN"
 "http://www.w3.org/Graphics/SVG/1.1/DTD/svg11.dtd">
<!-- Generated by graphviz version 2.43.0 (0)
 -->
<!-- Title: NetworkDiscoveryManager::discoveryStateChanged Pages: 1 -->
<svg width="542pt" height="86pt"
 viewBox="0.00 0.00 542.00 86.00" xmlns="http://www.w3.org/2000/svg" xmlns:xlink="http://www.w3.org/1999/xlink">
<g id="graph0" class="graph" transform="scale(1 1) rotate(0) translate(4 82)">
<title>NetworkDiscoveryManager::discoveryStateChanged</title>
<!-- Node1 -->
<g id="Node000001" class="node">
<title>Node1</title>
<g id="a_Node000001"><a xlink:title=" ">
<polygon fill="#999999" stroke="#666666" points="534,-54 385,-54 385,-24 534,-24 534,-54"/>
<text text-anchor="start" x="393" y="-42" font-family="Helvetica,sans-Serif" font-size="10.00">NetworkDiscoveryManager</text>
<text text-anchor="middle" x="459.5" y="-31" font-family="Helvetica,sans-Serif" font-size="10.00">::discoveryStateChanged</text>
</a>
</g>
</g>
<!-- Node2 -->
<g id="Node000002" class="node">
<title>Node2</title>
<g id="a_Node000002"><a xlink:href="../../d5/df7/classNetworkDiscoveryManager.html#a5d83c18d940587084864d25b7b02f533" target="_top" xlink:title=" ">
<polygon fill="white" stroke="#666666" points="349,-78 200,-78 200,-48 349,-48 349,-78"/>
<text text-anchor="start" x="208" y="-66" font-family="Helvetica,sans-Serif" font-size="10.00">NetworkDiscoveryManager</text>
<text text-anchor="middle" x="274.5" y="-55" font-family="Helvetica,sans-Serif" font-size="10.00">::startDiscovery</text>
</a>
</g>
</g>
<!-- Node1&#45;&gt;Node2 -->
<g id="edge1_Node000001_Node000002" class="edge">
<title>Node1&#45;&gt;Node2</title>
<g id="a_edge1_Node000001_Node000002"><a xlink:title=" ">
<path fill="none" stroke="#63b8ff" d="M374.89,-49.97C366.35,-51.09 357.72,-52.22 349.29,-53.32"/>
<polygon fill="#63b8ff" stroke="#63b8ff" points="375.4,-53.43 384.86,-48.66 374.49,-46.49 375.4,-53.43"/>
</a>
</g>
</g>
<!-- Node3 -->
<g id="Node000003" class="node">
<title>Node3</title>
<g id="a_Node000003"><a xlink:href="../../d5/df7/classNetworkDiscoveryManager.html#a1e57476372aa0b64c1ed2bb643be9699" target="_top" xlink:title=" ">
<polygon fill="white" stroke="#666666" points="349,-30 200,-30 200,0 349,0 349,-30"/>
<text text-anchor="start" x="208" y="-18" font-family="Helvetica,sans-Serif" font-size="10.00">NetworkDiscoveryManager</text>
<text text-anchor="middle" x="274.5" y="-7" font-family="Helvetica,sans-Serif" font-size="10.00">::stopDiscovery</text>
</a>
</g>
</g>
<!-- Node1&#45;&gt;Node3 -->
<g id="edge2_Node000001_Node000003" class="edge">
<title>Node1&#45;&gt;Node3</title>
<g id="a_edge2_Node000001_Node000003"><a xlink:title=" ">
<path fill="none" stroke="#63b8ff" d="M374.89,-28.03C366.35,-26.91 357.72,-25.78 349.29,-24.68"/>
<polygon fill="#63b8ff" stroke="#63b8ff" points="374.49,-31.51 384.86,-29.34 375.4,-24.57 374.49,-31.51"/>
</a>
</g>
</g>
<!-- Node4 -->
<g id="Node000004" class="node">
<title>Node4</title>
<g id="a_Node000004"><a xlink:href="../../d5/df7/classNetworkDiscoveryManager.html#a32fb4fa532a5fd0aebce01d30e5a0b43" target="_top" xlink:title=" ">
<polygon fill="white" stroke="#666666" points="164,-30 0,-30 0,0 164,0 164,-30"/>
<text text-anchor="start" x="8" y="-18" font-family="Helvetica,sans-Serif" font-size="10.00">NetworkDiscoveryManager</text>
<text text-anchor="middle" x="82" y="-7" font-family="Helvetica,sans-Serif" font-size="10.00">::~NetworkDiscoveryManager</text>
</a>
</g>
</g>
<!-- Node3&#45;&gt;Node4 -->
<g id="edge3_Node000003_Node000004" class="edge">
<title>Node3&#45;&gt;Node4</title>
<g id="a_edge3_Node000003_Node000004"><a xlink:title=" ">
<path fill="none" stroke="#63b8ff" d="M189.58,-15C181.1,-15 172.5,-15 164.05,-15"/>
<polygon fill="#63b8ff" stroke="#63b8ff" points="189.85,-18.5 199.85,-15 189.85,-11.5 189.85,-18.5"/>
</a>
</g>
</g>
</g>
</svg>
