<?xml version="1.0" encoding="UTF-8" standalone="no"?>
<!DOCTYPE svg PUBLIC "-//W3C//DTD SVG 1.1//EN"
 "http://www.w3.org/Graphics/SVG/1.1/DTD/svg11.dtd">
<!-- Generated by graphviz version 2.43.0 (0)
 -->
<!-- Title: NetworkDiscoveryManager::~NetworkDiscoveryManager Pages: 1 -->
<svg width="542pt" height="86pt"
 viewBox="0.00 0.00 542.00 86.00" xmlns="http://www.w3.org/2000/svg" xmlns:xlink="http://www.w3.org/1999/xlink">
<g id="graph0" class="graph" transform="scale(1 1) rotate(0) translate(4 82)">
<title>NetworkDiscoveryManager::~NetworkDiscoveryManager</title>
<!-- Node1 -->
<g id="Node000001" class="node">
<title>Node1</title>
<g id="a_Node000001"><a xlink:title=" ">
<polygon fill="#999999" stroke="#666666" points="164,-54 0,-54 0,-24 164,-24 164,-54"/>
<text text-anchor="start" x="8" y="-42" font-family="Helvetica,sans-Serif" font-size="10.00">NetworkDiscoveryManager</text>
<text text-anchor="middle" x="82" y="-31" font-family="Helvetica,sans-Serif" font-size="10.00">::~NetworkDiscoveryManager</text>
</a>
</g>
</g>
<!-- Node2 -->
<g id="Node000002" class="node">
<title>Node2</title>
<g id="a_Node000002"><a xlink:href="../../d5/df7/classNetworkDiscoveryManager.html#a1e57476372aa0b64c1ed2bb643be9699" target="_top" xlink:title=" ">
<polygon fill="white" stroke="#666666" points="349,-54 200,-54 200,-24 349,-24 349,-54"/>
<text text-anchor="start" x="208" y="-42" font-family="Helvetica,sans-Serif" font-size="10.00">NetworkDiscoveryManager</text>
<text text-anchor="middle" x="274.5" y="-31" font-family="Helvetica,sans-Serif" font-size="10.00">::stopDiscovery</text>
</a>
</g>
</g>
<!-- Node1&#45;&gt;Node2 -->
<g id="edge1_Node000001_Node000002" class="edge">
<title>Node1&#45;&gt;Node2</title>
<g id="a_edge1_Node000001_Node000002"><a xlink:title=" ">
<path fill="none" stroke="#63b8ff" d="M164.07,-39C172.49,-39 181.06,-39 189.52,-39"/>
<polygon fill="#63b8ff" stroke="#63b8ff" points="189.75,-42.5 199.75,-39 189.75,-35.5 189.75,-42.5"/>
</a>
</g>
</g>
<!-- Node3 -->
<g id="Node000003" class="node">
<title>Node3</title>
<g id="a_Node000003"><a xlink:href="../../d5/df7/classNetworkDiscoveryManager.html#ade26c9404cc6e7e067eddcc1af10427a" target="_top" xlink:title=" ">
<polygon fill="white" stroke="#666666" points="534,-78 385,-78 385,-48 534,-48 534,-78"/>
<text text-anchor="start" x="393" y="-66" font-family="Helvetica,sans-Serif" font-size="10.00">NetworkDiscoveryManager</text>
<text text-anchor="middle" x="459.5" y="-55" font-family="Helvetica,sans-Serif" font-size="10.00">::discoveryStateChanged</text>
</a>
</g>
</g>
<!-- Node2&#45;&gt;Node3 -->
<g id="edge2_Node000002_Node000003" class="edge">
<title>Node2&#45;&gt;Node3</title>
<g id="a_edge2_Node000002_Node000003"><a xlink:title=" ">
<path fill="none" stroke="#63b8ff" d="M349.14,-48.66C357.57,-49.76 366.2,-50.89 374.74,-52.02"/>
<polygon fill="#63b8ff" stroke="#63b8ff" points="374.34,-55.49 384.71,-53.32 375.25,-48.55 374.34,-55.49"/>
</a>
</g>
</g>
<!-- Node4 -->
<g id="Node000004" class="node">
<title>Node4</title>
<g id="a_Node000004"><a xlink:href="../../d5/df7/classNetworkDiscoveryManager.html#aa30d0ba3a74b23a7f747457eb6f8a114" target="_top" xlink:title=" ">
<polygon fill="white" stroke="#666666" points="534,-30 385,-30 385,0 534,0 534,-30"/>
<text text-anchor="start" x="393" y="-18" font-family="Helvetica,sans-Serif" font-size="10.00">NetworkDiscoveryManager</text>
<text text-anchor="middle" x="459.5" y="-7" font-family="Helvetica,sans-Serif" font-size="10.00">::stopUPnPDiscovery</text>
</a>
</g>
</g>
<!-- Node2&#45;&gt;Node4 -->
<g id="edge3_Node000002_Node000004" class="edge">
<title>Node2&#45;&gt;Node4</title>
<g id="a_edge3_Node000002_Node000004"><a xlink:title=" ">
<path fill="none" stroke="#63b8ff" d="M349.14,-29.34C357.57,-28.24 366.2,-27.11 374.74,-25.98"/>
<polygon fill="#63b8ff" stroke="#63b8ff" points="375.25,-29.45 384.71,-24.68 374.34,-22.51 375.25,-29.45"/>
</a>
</g>
</g>
</g>
</svg>
