<?xml version="1.0" encoding="UTF-8" standalone="no"?>
<!DOCTYPE svg PUBLIC "-//W3C//DTD SVG 1.1//EN"
 "http://www.w3.org/Graphics/SVG/1.1/DTD/svg11.dtd">
<!-- Generated by graphviz version 2.43.0 (0)
 -->
<!-- Title: SubtitleLoadResult::summary Pages: 1 -->
<svg width="512pt" height="100pt"
 viewBox="0.00 0.00 512.00 100.00" xmlns="http://www.w3.org/2000/svg" xmlns:xlink="http://www.w3.org/1999/xlink">
<g id="graph0" class="graph" transform="scale(1 1) rotate(0) translate(4 96)">
<title>SubtitleLoadResult::summary</title>
<!-- Node1 -->
<g id="Node000001" class="node">
<title>Node1</title>
<g id="a_Node000001"><a xlink:title=" ">
<polygon fill="#999999" stroke="#666666" points="504,-49 396,-49 396,-19 504,-19 504,-49"/>
<text text-anchor="start" x="404" y="-37" font-family="Helvetica,sans-Serif" font-size="10.00">SubtitleLoadResult</text>
<text text-anchor="middle" x="450" y="-26" font-family="Helvetica,sans-Serif" font-size="10.00">::summary</text>
</a>
</g>
</g>
<!-- Node2 -->
<g id="Node000002" class="node">
<title>Node2</title>
<g id="a_Node000002"><a xlink:href="../../dd/d8b/classSubtitleManager.html#a608442cfbbc105168de564e34f98d13c" target="_top" xlink:title="Load subtitle from content.">
<polygon fill="white" stroke="#666666" points="351,-92 190,-92 190,-62 351,-62 351,-92"/>
<text text-anchor="start" x="198" y="-80" font-family="Helvetica,sans-Serif" font-size="10.00">SubtitleManager::loadSubtitle</text>
<text text-anchor="middle" x="270.5" y="-69" font-family="Helvetica,sans-Serif" font-size="10.00">Content</text>
</a>
</g>
</g>
<!-- Node1&#45;&gt;Node2 -->
<g id="edge1_Node000001_Node000002" class="edge">
<title>Node1&#45;&gt;Node2</title>
<g id="a_edge1_Node000001_Node000002"><a xlink:title=" ">
<path fill="none" stroke="#63b8ff" d="M385.89,-49.29C368.85,-53.42 350.43,-57.88 333.46,-61.99"/>
<polygon fill="#63b8ff" stroke="#63b8ff" points="386.85,-52.66 395.74,-46.9 385.2,-45.85 386.85,-52.66"/>
</a>
</g>
</g>
<!-- Node3 -->
<g id="Node000003" class="node">
<title>Node3</title>
<g id="a_Node000003"><a xlink:href="../../dd/d8b/classSubtitleManager.html#a8b6d9ea90c799260111c17b60b4d4e2c" target="_top" xlink:title="Load subtitle file.">
<polygon fill="white" stroke="#666666" points="360,-43.5 181,-43.5 181,-24.5 360,-24.5 360,-43.5"/>
<text text-anchor="middle" x="270.5" y="-31.5" font-family="Helvetica,sans-Serif" font-size="10.00">SubtitleManager::loadSubtitleFile</text>
</a>
</g>
</g>
<!-- Node1&#45;&gt;Node3 -->
<g id="edge2_Node000001_Node000003" class="edge">
<title>Node1&#45;&gt;Node3</title>
<g id="a_edge2_Node000001_Node000003"><a xlink:title=" ">
<path fill="none" stroke="#63b8ff" d="M385.52,-34C377.3,-34 368.77,-34 360.23,-34"/>
<polygon fill="#63b8ff" stroke="#63b8ff" points="385.74,-37.5 395.74,-34 385.74,-30.5 385.74,-37.5"/>
</a>
</g>
</g>
<!-- Node4 -->
<g id="Node000004" class="node">
<title>Node4</title>
<g id="a_Node000004"><a xlink:href="../../dd/d8b/classSubtitleManager.html#a09a785b7bd91cada546078cbe9337eda" target="_top" xlink:title="Handle media loaded.">
<polygon fill="white" stroke="#666666" points="145,-30 0,-30 0,0 145,0 145,-30"/>
<text text-anchor="start" x="8" y="-18" font-family="Helvetica,sans-Serif" font-size="10.00">SubtitleManager::onMedia</text>
<text text-anchor="middle" x="72.5" y="-7" font-family="Helvetica,sans-Serif" font-size="10.00">Loaded</text>
</a>
</g>
</g>
<!-- Node1&#45;&gt;Node4 -->
<g id="edge4_Node000001_Node000004" class="edge">
<title>Node1&#45;&gt;Node4</title>
<g id="a_edge4_Node000001_Node000004"><a xlink:title=" ">
<path fill="none" stroke="#63b8ff" d="M385.64,-19.61C377.06,-18.12 368.34,-16.85 360,-16 287.14,-8.58 203.3,-9.36 145.23,-11.37"/>
<polygon fill="#63b8ff" stroke="#63b8ff" points="385.14,-23.08 395.61,-21.44 386.4,-16.19 385.14,-23.08"/>
</a>
</g>
</g>
<!-- Node3&#45;&gt;Node4 -->
<g id="edge3_Node000003_Node000004" class="edge">
<title>Node3&#45;&gt;Node4</title>
<g id="a_edge3_Node000003_Node000004"><a xlink:title=" ">
<path fill="none" stroke="#63b8ff" d="M170.83,-24.44C162.19,-23.6 153.56,-22.76 145.2,-21.95"/>
<polygon fill="#63b8ff" stroke="#63b8ff" points="170.67,-27.94 180.96,-25.42 171.35,-20.97 170.67,-27.94"/>
</a>
</g>
</g>
</g>
</svg>
