<?xml version="1.0" encoding="UTF-8" standalone="no"?>
<!DOCTYPE svg PUBLIC "-//W3C//DTD SVG 1.1//EN"
 "http://www.w3.org/Graphics/SVG/1.1/DTD/svg11.dtd">
<!-- Generated by graphviz version 2.43.0 (0)
 -->
<!-- Title: PlaybackControls::position Pages: 1 -->
<svg width="748pt" height="81pt"
 viewBox="0.00 0.00 748.00 81.00" xmlns="http://www.w3.org/2000/svg" xmlns:xlink="http://www.w3.org/1999/xlink">
<g id="graph0" class="graph" transform="scale(1 1) rotate(0) translate(4 77)">
<title>PlaybackControls::position</title>
<!-- Node1 -->
<g id="Node000001" class="node">
<title>Node1</title>
<g id="a_Node000001"><a xlink:title="Get current position.">
<polygon fill="#999999" stroke="#666666" points="740,-43.5 594,-43.5 594,-24.5 740,-24.5 740,-43.5"/>
<text text-anchor="middle" x="667" y="-31.5" font-family="Helvetica,sans-Serif" font-size="10.00">PlaybackControls::position</text>
</a>
</g>
</g>
<!-- Node2 -->
<g id="Node000002" class="node">
<title>Node2</title>
<g id="a_Node000002"><a xlink:href="../../d6/d3c/classPlaybackControls.html#af1050f68356753e55ff1e9eaaa340c92" target="_top" xlink:title="Set the current playback position.">
<polygon fill="white" stroke="#666666" points="558,-62.5 397,-62.5 397,-43.5 558,-43.5 558,-62.5"/>
<text text-anchor="middle" x="477.5" y="-50.5" font-family="Helvetica,sans-Serif" font-size="10.00">PlaybackControls::setPosition</text>
</a>
</g>
</g>
<!-- Node1&#45;&gt;Node2 -->
<g id="edge1_Node000001_Node000002" class="edge">
<title>Node1&#45;&gt;Node2</title>
<g id="a_edge1_Node000001_Node000002"><a xlink:title=" ">
<path fill="none" stroke="#63b8ff" d="M583.57,-42.35C575.13,-43.21 566.57,-44.08 558.17,-44.93"/>
<polygon fill="#63b8ff" stroke="#63b8ff" points="584.18,-45.81 593.78,-41.32 583.47,-38.84 584.18,-45.81"/>
</a>
</g>
</g>
<!-- Node5 -->
<g id="Node000005" class="node">
<title>Node5</title>
<g id="a_Node000005"><a xlink:href="../../d6/d3c/classPlaybackControls.html#a75fc9dbcf18891ba21b7cefe16fdfd8b" target="_top" xlink:title="Update position display.">
<polygon fill="white" stroke="#666666" points="345,-30 204,-30 204,0 345,0 345,-30"/>
<text text-anchor="start" x="212" y="-18" font-family="Helvetica,sans-Serif" font-size="10.00">PlaybackControls::update</text>
<text text-anchor="middle" x="274.5" y="-7" font-family="Helvetica,sans-Serif" font-size="10.00">Position</text>
</a>
</g>
</g>
<!-- Node1&#45;&gt;Node5 -->
<g id="edge5_Node000001_Node000005" class="edge">
<title>Node1&#45;&gt;Node5</title>
<g id="a_edge5_Node000001_Node000005"><a xlink:title=" ">
<path fill="none" stroke="#63b8ff" d="M583.71,-30C512.95,-26.55 412.02,-21.64 345.19,-18.39"/>
<polygon fill="#63b8ff" stroke="#63b8ff" points="583.76,-33.5 593.92,-30.49 584.1,-26.51 583.76,-33.5"/>
</a>
</g>
</g>
<!-- Node3 -->
<g id="Node000003" class="node">
<title>Node3</title>
<g id="a_Node000003"><a xlink:href="../../d6/d3c/classPlaybackControls.html#adcf4ff63c1b6fb018fa7737694e06383" target="_top" xlink:title="Reset all controls to default state.">
<polygon fill="white" stroke="#666666" points="361,-67.5 188,-67.5 188,-48.5 361,-48.5 361,-67.5"/>
<text text-anchor="middle" x="274.5" y="-55.5" font-family="Helvetica,sans-Serif" font-size="10.00">PlaybackControls::resetControls</text>
</a>
</g>
</g>
<!-- Node2&#45;&gt;Node3 -->
<g id="edge2_Node000002_Node000003" class="edge">
<title>Node2&#45;&gt;Node3</title>
<g id="a_edge2_Node000002_Node000003"><a xlink:title=" ">
<path fill="none" stroke="#63b8ff" d="M386.52,-55.24C378.06,-55.45 369.5,-55.66 361.08,-55.87"/>
<polygon fill="#63b8ff" stroke="#63b8ff" points="386.86,-58.73 396.77,-54.98 386.69,-51.73 386.86,-58.73"/>
</a>
</g>
</g>
<!-- Node2&#45;&gt;Node5 -->
<g id="edge4_Node000002_Node000005" class="edge">
<title>Node2&#45;&gt;Node5</title>
<g id="a_edge4_Node000002_Node000005"><a xlink:title=" ">
<path fill="none" stroke="#63b8ff" d="M416.05,-41.57C393.78,-37.36 368.38,-32.56 345.35,-28.21"/>
<polygon fill="#63b8ff" stroke="#63b8ff" points="415.56,-45.04 426.04,-43.46 416.86,-38.16 415.56,-45.04"/>
</a>
</g>
</g>
<!-- Node4 -->
<g id="Node000004" class="node">
<title>Node4</title>
<g id="a_Node000004"><a xlink:href="../../d6/d3c/classPlaybackControls.html#a7d27f828f2f1c02d87692ef60ab69b93" target="_top" xlink:title=" ">
<polygon fill="white" stroke="#666666" points="152,-73 0,-73 0,-43 152,-43 152,-73"/>
<text text-anchor="start" x="8" y="-61" font-family="Helvetica,sans-Serif" font-size="10.00">PlaybackControls::Playback</text>
<text text-anchor="middle" x="76" y="-50" font-family="Helvetica,sans-Serif" font-size="10.00">Controls</text>
</a>
</g>
</g>
<!-- Node3&#45;&gt;Node4 -->
<g id="edge3_Node000003_Node000004" class="edge">
<title>Node3&#45;&gt;Node4</title>
<g id="a_edge3_Node000003_Node000004"><a xlink:title=" ">
<path fill="none" stroke="#63b8ff" d="M177.8,-58C169.2,-58 160.56,-58 152.16,-58"/>
<polygon fill="#63b8ff" stroke="#63b8ff" points="177.88,-61.5 187.88,-58 177.88,-54.5 177.88,-61.5"/>
</a>
</g>
</g>
</g>
</svg>
