<?xml version="1.0" encoding="UTF-8" standalone="no"?>
<!DOCTYPE svg PUBLIC "-//W3C//DTD SVG 1.1//EN"
 "http://www.w3.org/Graphics/SVG/1.1/DTD/svg11.dtd">
<!-- Generated by graphviz version 2.43.0 (0)
 -->
<!-- Title: PlaybackControls::resetControls Pages: 1 -->
<!--zoomable 247 -->

<svg id="main" version="1.1" xmlns="http://www.w3.org/2000/svg" xmlns:xlink="http://www.w3.org/1999/xlink" xml:space="preserve" onload="init(evt)">
<style type="text/css"><![CDATA[
.node, .edge {opacity: 0.7;}
.node.selected, .edge.selected {opacity: 1;}
.edge:hover path { stroke: red; }
.edge:hover polygon { stroke: red; fill: red; }
]]></style>

<defs>
  <circle id="rim" cx="0" cy="0" r="7"/>
  <circle id="rim2" cx="0" cy="0" r="3.5"/>
  <g id="zoomPlus">
    <use xlink:href="#rim" fill="#404040"><set attributeName="fill" to="#808080" begin="zoomplus.mouseover" end="zoomplus.mouseout"/></use>
    <path d="M-4,0h8M0,-4v8" fill="none" stroke="white" stroke-width="1.5" pointer-events="none"/>
  </g>
  <g id="zoomMin">
    <use xlink:href="#rim" fill="#404040"><set attributeName="fill" to="#808080" begin="zoomminus.mouseover" end="zoomminus.mouseout"/></use>
    <path d="M-4,0h8" fill="none" stroke="white" stroke-width="1.5" pointer-events="none"/>
  </g>
  <g id="arrowUp" transform="translate(30 24)">
    <use xlink:href="#rim"/>
    <path pointer-events="none" fill="none" stroke="white" stroke-width="1.5" d="M0,-3.0v7 M-2.5,-0.5L0,-3.0L2.5,-0.5"/>
  </g>
  <g id="arrowRight" transform="rotate(90) translate(36 -43)">
    <use xlink:href="#rim"/>
    <path pointer-events="none" fill="none" stroke="white" stroke-width="1.5" d="M0,-3.0v7 M-2.5,-0.5L0,-3.0L2.5,-0.5"/>
  </g>
  <g id="arrowDown" transform="rotate(180) translate(-30 -48)">
    <use xlink:href="#rim"/>
    <path pointer-events="none" fill="none" stroke="white" stroke-width="1.5" d="M0,-3.0v7 M-2.5,-0.5L0,-3.0L2.5,-0.5"/>
  </g>
  <g id="arrowLeft" transform="rotate(270) translate(-36 17)">
    <use xlink:href="#rim"/>
    <path pointer-events="none" fill="none" stroke="white" stroke-width="1.5" d="M0,-3.0v7 M-2.5,-0.5L0,-3.0L2.5,-0.5"/>
  </g>
  <g id="resetDef">
    <use xlink:href="#rim2" fill="#404040"><set attributeName="fill" to="#808080" begin="reset.mouseover" end="reset.mouseout"/></use>
  </g>
</defs>
<script type="application/ecmascript">
var viewWidth = 568;
var viewHeight = 247;
var sectionId = 'dynsection-8';
</script>
<script type="application/ecmascript" xlink:href="../../svg.min.js"/>
<svg id="graph" class="graph">
<g id="viewport">
<title>PlaybackControls::resetControls</title>
<!-- Node1 -->
<g id="Node000001" class="node">
<title>Node1</title>
<g id="a_Node000001"><a xlink:title="Reset all controls to default state.">
<polygon fill="#999999" stroke="#666666" points="173,-123 0,-123 0,-104 173,-104 173,-123"/>
<text text-anchor="middle" x="86.5" y="-111" font-family="Helvetica,sans-Serif" font-size="10.00">PlaybackControls::resetControls</text>
</a>
</g>
</g>
<!-- Node2 -->
<g id="Node000002" class="node">
<title>Node2</title>
<g id="a_Node000002"><a xlink:href="../../d6/d3c/classPlaybackControls.html#a4d16418be071caabb663989d600f853d" target="_top" xlink:title="Enable or disable controls.">
<polygon fill="white" stroke="#666666" points="374,-238.5 211,-238.5 211,-208.5 374,-208.5 374,-238.5"/>
<text text-anchor="start" x="219" y="-226.5" font-family="Helvetica,sans-Serif" font-size="10.00">PlaybackControls::setControls</text>
<text text-anchor="middle" x="292.5" y="-215.5" font-family="Helvetica,sans-Serif" font-size="10.00">Enabled</text>
</a>
</g>
</g>
<!-- Node1&#45;&gt;Node2 -->
<g id="edge1_Node000001_Node000002" class="edge">
<title>Node1&#45;&gt;Node2</title>
<g id="a_edge1_Node000001_Node000002"><a xlink:title=" ">
<path fill="none" stroke="#63b8ff" d="M98.42,-123.17C118.79,-140.74 164.54,-178.05 209,-199.5 213.04,-201.45 217.27,-203.27 221.58,-204.97"/>
<polygon fill="#63b8ff" stroke="#63b8ff" points="220.54,-208.32 231.14,-208.49 222.96,-201.75 220.54,-208.32"/>
</a>
</g>
</g>
<!-- Node3 -->
<g id="Node000003" class="node">
<title>Node3</title>
<g id="a_Node000003"><a xlink:href="../../d6/d3c/classPlaybackControls.html#a7fd8df16a2f1ef5e97317c392d2cdae5" target="_top" xlink:title="Set the media duration.">
<polygon fill="white" stroke="#666666" points="374.5,-190 210.5,-190 210.5,-171 374.5,-171 374.5,-190"/>
<text text-anchor="middle" x="292.5" y="-178" font-family="Helvetica,sans-Serif" font-size="10.00">PlaybackControls::setDuration</text>
</a>
</g>
</g>
<!-- Node1&#45;&gt;Node3 -->
<g id="edge2_Node000001_Node000003" class="edge">
<title>Node1&#45;&gt;Node3</title>
<g id="a_edge2_Node000001_Node000003"><a xlink:title=" ">
<path fill="none" stroke="#63b8ff" d="M109.1,-123.17C133.12,-133.66 173.26,-150.39 209,-161.5 217.17,-164.04 225.89,-166.41 234.49,-168.55"/>
<polygon fill="#63b8ff" stroke="#63b8ff" points="233.95,-172.02 244.49,-170.96 235.59,-165.21 233.95,-172.02"/>
</a>
</g>
</g>
<!-- Node5 -->
<g id="Node000005" class="node">
<title>Node5</title>
<g id="a_Node000005"><a xlink:href="../../d6/d3c/classPlaybackControls.html#abc7c0697f67c485018c906d5e8e7744a" target="_top" xlink:title="Set the current playback speed.">
<polygon fill="white" stroke="#666666" points="376,-152.5 209,-152.5 209,-122.5 376,-122.5 376,-152.5"/>
<text text-anchor="start" x="217" y="-140.5" font-family="Helvetica,sans-Serif" font-size="10.00">PlaybackControls::setPlayback</text>
<text text-anchor="middle" x="292.5" y="-129.5" font-family="Helvetica,sans-Serif" font-size="10.00">Speed</text>
</a>
</g>
</g>
<!-- Node1&#45;&gt;Node5 -->
<g id="edge4_Node000001_Node000005" class="edge">
<title>Node1&#45;&gt;Node5</title>
<g id="a_edge4_Node000001_Node000005"><a xlink:title=" ">
<path fill="none" stroke="#63b8ff" d="M168.42,-123.02C178.35,-124.19 188.55,-125.39 198.64,-126.58"/>
<polygon fill="#63b8ff" stroke="#63b8ff" points="198.33,-130.06 208.67,-127.76 199.15,-123.11 198.33,-130.06"/>
</a>
</g>
</g>
<!-- Node6 -->
<g id="Node000006" class="node">
<title>Node6</title>
<g id="a_Node000006"><a xlink:href="../../d6/d3c/classPlaybackControls.html#ad2d0918f52d9cfb0100c8fbeeeef98f5" target="_top" xlink:title="Update playback state.">
<polygon fill="white" stroke="#666666" points="376,-104.5 209,-104.5 209,-74.5 376,-74.5 376,-104.5"/>
<text text-anchor="start" x="217" y="-92.5" font-family="Helvetica,sans-Serif" font-size="10.00">PlaybackControls::setPlayback</text>
<text text-anchor="middle" x="292.5" y="-81.5" font-family="Helvetica,sans-Serif" font-size="10.00">State</text>
</a>
</g>
</g>
<!-- Node1&#45;&gt;Node6 -->
<g id="edge5_Node000001_Node000006" class="edge">
<title>Node1&#45;&gt;Node6</title>
<g id="a_edge5_Node000001_Node000006"><a xlink:title=" ">
<path fill="none" stroke="#63b8ff" d="M168.42,-103.98C178.35,-102.81 188.55,-101.61 198.64,-100.42"/>
<polygon fill="#63b8ff" stroke="#63b8ff" points="199.15,-103.89 208.67,-99.24 198.33,-96.94 199.15,-103.89"/>
</a>
</g>
</g>
<!-- Node7 -->
<g id="Node000007" class="node">
<title>Node7</title>
<g id="a_Node000007"><a xlink:href="../../d6/d3c/classPlaybackControls.html#af1050f68356753e55ff1e9eaaa340c92" target="_top" xlink:title="Set the current playback position.">
<polygon fill="white" stroke="#666666" points="373,-56 212,-56 212,-37 373,-37 373,-56"/>
<text text-anchor="middle" x="292.5" y="-44" font-family="Helvetica,sans-Serif" font-size="10.00">PlaybackControls::setPosition</text>
</a>
</g>
</g>
<!-- Node1&#45;&gt;Node7 -->
<g id="edge6_Node000001_Node000007" class="edge">
<title>Node1&#45;&gt;Node7</title>
<g id="a_edge6_Node000001_Node000007"><a xlink:title=" ">
<path fill="none" stroke="#63b8ff" d="M109.1,-103.83C133.12,-93.34 173.26,-76.61 209,-65.5 217.17,-62.96 225.89,-60.59 234.49,-58.45"/>
<polygon fill="#63b8ff" stroke="#63b8ff" points="235.59,-61.79 244.49,-56.04 233.95,-54.98 235.59,-61.79"/>
</a>
</g>
</g>
<!-- Node9 -->
<g id="Node000009" class="node">
<title>Node9</title>
<g id="a_Node000009"><a xlink:href="../../d6/d3c/classPlaybackControls.html#a391fea849c2f75ad7a1a4dad28836ee6" target="_top" xlink:title="Set the current volume level.">
<polygon fill="white" stroke="#666666" points="372,-19 213,-19 213,0 372,0 372,-19"/>
<text text-anchor="middle" x="292.5" y="-7" font-family="Helvetica,sans-Serif" font-size="10.00">PlaybackControls::setVolume</text>
</a>
</g>
</g>
<!-- Node1&#45;&gt;Node9 -->
<g id="edge8_Node000001_Node000009" class="edge">
<title>Node1&#45;&gt;Node9</title>
<g id="a_edge8_Node000001_Node000009"><a xlink:title=" ">
<path fill="none" stroke="#63b8ff" d="M97.97,-103.82C117.96,-85.89 163.6,-47.52 209,-27.5 213.66,-25.45 218.57,-23.62 223.59,-21.99"/>
<polygon fill="#63b8ff" stroke="#63b8ff" points="224.72,-25.31 233.31,-19.11 222.73,-18.59 224.72,-25.31"/>
</a>
</g>
</g>
<!-- Node4 -->
<g id="Node000004" class="node">
<title>Node4</title>
<g id="a_Node000004"><a xlink:href="../../d6/d3c/classPlaybackControls.html#a8f9e96c0eaa2d0cf863bf0586ad7a591" target="_top" xlink:title="Get current duration.">
<polygon fill="white" stroke="#666666" points="560,-190 412,-190 412,-171 560,-171 560,-190"/>
<text text-anchor="middle" x="486" y="-178" font-family="Helvetica,sans-Serif" font-size="10.00">PlaybackControls::duration</text>
</a>
</g>
</g>
<!-- Node3&#45;&gt;Node4 -->
<g id="edge3_Node000003_Node000004" class="edge">
<title>Node3&#45;&gt;Node4</title>
<g id="a_edge3_Node000003_Node000004"><a xlink:title=" ">
<path fill="none" stroke="#63b8ff" d="M374.71,-180.5C383.68,-180.5 392.81,-180.5 401.8,-180.5"/>
<polygon fill="#63b8ff" stroke="#63b8ff" points="401.86,-184 411.86,-180.5 401.86,-177 401.86,-184"/>
</a>
</g>
</g>
<!-- Node8 -->
<g id="Node000008" class="node">
<title>Node8</title>
<g id="a_Node000008"><a xlink:href="../../d6/d3c/classPlaybackControls.html#aa1dd091b4949b31cdd31327f717644e0" target="_top" xlink:title="Get current position.">
<polygon fill="white" stroke="#666666" points="559,-56 413,-56 413,-37 559,-37 559,-56"/>
<text text-anchor="middle" x="486" y="-44" font-family="Helvetica,sans-Serif" font-size="10.00">PlaybackControls::position</text>
</a>
</g>
</g>
<!-- Node7&#45;&gt;Node8 -->
<g id="edge7_Node000007_Node000008" class="edge">
<title>Node7&#45;&gt;Node8</title>
<g id="a_edge7_Node000007_Node000008"><a xlink:title=" ">
<path fill="none" stroke="#63b8ff" d="M373.05,-46.5C382.81,-46.5 392.81,-46.5 402.61,-46.5"/>
<polygon fill="#63b8ff" stroke="#63b8ff" points="402.74,-50 412.74,-46.5 402.74,-43 402.74,-50"/>
</a>
</g>
</g>
<!-- Node10 -->
<g id="Node000010" class="node">
<title>Node10</title>
<g id="a_Node000010"><a xlink:href="../../d6/d3c/classPlaybackControls.html#a55053794e9de9db99d56eae626bae1ca" target="_top" xlink:title="Get current volume.">
<polygon fill="white" stroke="#666666" points="558,-19 414,-19 414,0 558,0 558,-19"/>
<text text-anchor="middle" x="486" y="-7" font-family="Helvetica,sans-Serif" font-size="10.00">PlaybackControls::volume</text>
</a>
</g>
</g>
<!-- Node9&#45;&gt;Node10 -->
<g id="edge9_Node000009_Node000010" class="edge">
<title>Node9&#45;&gt;Node10</title>
<g id="a_edge9_Node000009_Node000010"><a xlink:title=" ">
<path fill="none" stroke="#63b8ff" d="M372.22,-9.5C382.59,-9.5 393.23,-9.5 403.64,-9.5"/>
<polygon fill="#63b8ff" stroke="#63b8ff" points="403.96,-13 413.96,-9.5 403.96,-6 403.96,-13"/>
</a>
</g>
</g>
</g>
</svg>

<g id="navigator" transform="translate(0 0)" fill="#404254">
  <rect fill="#f2f5e9" fill-opacity="0.5" stroke="#606060" stroke-width=".5" x="0" y="0" width="60" height="60"/>
  <use id="zoomplus" xlink:href="#zoomPlus" x="17" y="9" onmousedown="handleZoom(evt,'in')"/>
  <use id="zoomminus" xlink:href="#zoomMin" x="42" y="9" onmousedown="handleZoom(evt,'out')"/>
  <use id="reset" xlink:href="#resetDef" x="30" y="36" onmousedown="handleReset()"/>
   <use id="arrowup" xlink:href="#arrowUp" x="0" y="0" onmousedown="handlePan(0,-1)"/>
  <use id="arrowright" xlink:href="#arrowRight" x="0" y="0" onmousedown="handlePan(1,0)"/>
  <use id="arrowdown" xlink:href="#arrowDown" x="0" y="0" onmousedown="handlePan(0,1)"/>
  <use id="arrowleft" xlink:href="#arrowLeft" x="0" y="0" onmousedown="handlePan(-1,0)"/>
</g>
<svg viewBox="0 0 15 15" width="100%" height="30px" preserveAspectRatio="xMaxYMin meet">
 <g id="arrow_out" transform="scale(0.3 0.3)">
  <a xlink:href="classPlaybackControls_adcf4ff63c1b6fb018fa7737694e06383_cgraph_org.svg" target="_base">
   <rect id="button" ry="5" rx="5" y="6" x="6" height="38" width="38"
        fill="#f2f5e9" fill-opacity="0.5" stroke="#606060" stroke-width="1.0"/>
   <path id="arrow"
     d="M 11.500037,31.436501 C 11.940474,20.09759 22.043105,11.32322 32.158766,21.979434 L 37.068811,17.246167 C 37.068811,17.246167 37.088388,32 37.088388,32 L 22.160133,31.978069 C 22.160133,31.978069 26.997745,27.140456 26.997745,27.140456 C 18.528582,18.264221 13.291696,25.230495 11.500037,31.436501 z"
     style="fill:#404040;"/>
  </a>
 </g>
</svg>

<style type='text/css'>
<![CDATA[
[data-mouse-over-selected='false'] { opacity: 0.7; }
[data-mouse-over-selected='true']  { opacity: 1.0; }
]]>
</style>
<script type="application/ecmascript"><![CDATA[
document.addEventListener('DOMContentLoaded', (event) => {
  highlightEdges();
  highlightAdjacentNodes();
});
]]></script>
</svg>
