<?xml version="1.0" encoding="UTF-8" standalone="no"?>
<!DOCTYPE svg PUBLIC "-//W3C//DTD SVG 1.1//EN"
 "http://www.w3.org/Graphics/SVG/1.1/DTD/svg11.dtd">
<!-- Generated by graphviz version 2.43.0 (0)
 -->
<!-- Title: PlaybackControls::setPosition Pages: 1 -->
<svg width="566pt" height="81pt"
 viewBox="0.00 0.00 566.00 81.00" xmlns="http://www.w3.org/2000/svg" xmlns:xlink="http://www.w3.org/1999/xlink">
<g id="graph0" class="graph" transform="scale(1 1) rotate(0) translate(4 77)">
<title>PlaybackControls::setPosition</title>
<!-- Node1 -->
<g id="Node000001" class="node">
<title>Node1</title>
<g id="a_Node000001"><a xlink:title="Set the current playback position.">
<polygon fill="#999999" stroke="#666666" points="558,-45.5 397,-45.5 397,-26.5 558,-26.5 558,-45.5"/>
<text text-anchor="middle" x="477.5" y="-33.5" font-family="Helvetica,sans-Serif" font-size="10.00">PlaybackControls::setPosition</text>
</a>
</g>
</g>
<!-- Node2 -->
<g id="Node000002" class="node">
<title>Node2</title>
<g id="a_Node000002"><a xlink:href="../../d6/d3c/classPlaybackControls.html#adcf4ff63c1b6fb018fa7737694e06383" target="_top" xlink:title="Reset all controls to default state.">
<polygon fill="white" stroke="#666666" points="361,-67.5 188,-67.5 188,-48.5 361,-48.5 361,-67.5"/>
<text text-anchor="middle" x="274.5" y="-55.5" font-family="Helvetica,sans-Serif" font-size="10.00">PlaybackControls::resetControls</text>
</a>
</g>
</g>
<!-- Node1&#45;&gt;Node2 -->
<g id="edge1_Node000001_Node000002" class="edge">
<title>Node1&#45;&gt;Node2</title>
<g id="a_edge1_Node000001_Node000002"><a xlink:title=" ">
<path fill="none" stroke="#63b8ff" d="M386.8,-45.82C378.25,-46.75 369.59,-47.7 361.08,-48.63"/>
<polygon fill="#63b8ff" stroke="#63b8ff" points="387.21,-49.29 396.77,-44.73 386.45,-42.34 387.21,-49.29"/>
</a>
</g>
</g>
<!-- Node4 -->
<g id="Node000004" class="node">
<title>Node4</title>
<g id="a_Node000004"><a xlink:href="../../d6/d3c/classPlaybackControls.html#a75fc9dbcf18891ba21b7cefe16fdfd8b" target="_top" xlink:title="Update position display.">
<polygon fill="white" stroke="#666666" points="345,-30 204,-30 204,0 345,0 345,-30"/>
<text text-anchor="start" x="212" y="-18" font-family="Helvetica,sans-Serif" font-size="10.00">PlaybackControls::update</text>
<text text-anchor="middle" x="274.5" y="-7" font-family="Helvetica,sans-Serif" font-size="10.00">Position</text>
</a>
</g>
</g>
<!-- Node1&#45;&gt;Node4 -->
<g id="edge3_Node000001_Node000004" class="edge">
<title>Node1&#45;&gt;Node4</title>
<g id="a_edge3_Node000001_Node000004"><a xlink:title=" ">
<path fill="none" stroke="#63b8ff" d="M386.67,-26.61C372.71,-25.16 358.48,-23.67 345.06,-22.27"/>
<polygon fill="#63b8ff" stroke="#63b8ff" points="386.46,-30.11 396.77,-27.67 387.19,-23.15 386.46,-30.11"/>
</a>
</g>
</g>
<!-- Node3 -->
<g id="Node000003" class="node">
<title>Node3</title>
<g id="a_Node000003"><a xlink:href="../../d6/d3c/classPlaybackControls.html#a7d27f828f2f1c02d87692ef60ab69b93" target="_top" xlink:title=" ">
<polygon fill="white" stroke="#666666" points="152,-73 0,-73 0,-43 152,-43 152,-73"/>
<text text-anchor="start" x="8" y="-61" font-family="Helvetica,sans-Serif" font-size="10.00">PlaybackControls::Playback</text>
<text text-anchor="middle" x="76" y="-50" font-family="Helvetica,sans-Serif" font-size="10.00">Controls</text>
</a>
</g>
</g>
<!-- Node2&#45;&gt;Node3 -->
<g id="edge2_Node000002_Node000003" class="edge">
<title>Node2&#45;&gt;Node3</title>
<g id="a_edge2_Node000002_Node000003"><a xlink:title=" ">
<path fill="none" stroke="#63b8ff" d="M177.8,-58C169.2,-58 160.56,-58 152.16,-58"/>
<polygon fill="#63b8ff" stroke="#63b8ff" points="177.88,-61.5 187.88,-58 177.88,-54.5 177.88,-61.5"/>
</a>
</g>
</g>
</g>
</svg>
