<?xml version="1.0" encoding="UTF-8" standalone="no"?>
<!DOCTYPE svg PUBLIC "-//W3C//DTD SVG 1.1//EN"
 "http://www.w3.org/Graphics/SVG/1.1/DTD/svg11.dtd">
<!-- Generated by graphviz version 2.43.0 (0)
 -->
<!-- Title: PlaybackControls::setDuration Pages: 1 -->
<svg width="569pt" height="81pt"
 viewBox="0.00 0.00 569.00 81.00" xmlns="http://www.w3.org/2000/svg" xmlns:xlink="http://www.w3.org/1999/xlink">
<g id="graph0" class="graph" transform="scale(1 1) rotate(0) translate(4 77)">
<title>PlaybackControls::setDuration</title>
<!-- Node1 -->
<g id="Node000001" class="node">
<title>Node1</title>
<g id="a_Node000001"><a xlink:title="Set the media duration.">
<polygon fill="#999999" stroke="#666666" points="561,-45.5 397,-45.5 397,-26.5 561,-26.5 561,-45.5"/>
<text text-anchor="middle" x="479" y="-33.5" font-family="Helvetica,sans-Serif" font-size="10.00">PlaybackControls::setDuration</text>
</a>
</g>
</g>
<!-- Node2 -->
<g id="Node000002" class="node">
<title>Node2</title>
<g id="a_Node000002"><a xlink:href="../../d6/d3c/classPlaybackControls.html#adcf4ff63c1b6fb018fa7737694e06383" target="_top" xlink:title="Reset all controls to default state.">
<polygon fill="white" stroke="#666666" points="361,-67.5 188,-67.5 188,-48.5 361,-48.5 361,-67.5"/>
<text text-anchor="middle" x="274.5" y="-55.5" font-family="Helvetica,sans-Serif" font-size="10.00">PlaybackControls::resetControls</text>
</a>
</g>
</g>
<!-- Node1&#45;&gt;Node2 -->
<g id="edge1_Node000001_Node000002" class="edge">
<title>Node1&#45;&gt;Node2</title>
<g id="a_edge1_Node000001_Node000002"><a xlink:title=" ">
<path fill="none" stroke="#63b8ff" d="M386.79,-45.91C378.22,-46.84 369.54,-47.78 361.02,-48.71"/>
<polygon fill="#63b8ff" stroke="#63b8ff" points="387.24,-49.38 396.8,-44.82 386.48,-42.42 387.24,-49.38"/>
</a>
</g>
</g>
<!-- Node4 -->
<g id="Node000004" class="node">
<title>Node4</title>
<g id="a_Node000004"><a xlink:href="../../d6/d3c/classPlaybackControls.html#a84902f588c893870d90df7ca047b35fe" target="_top" xlink:title="Update duration display.">
<polygon fill="white" stroke="#666666" points="345,-30 204,-30 204,0 345,0 345,-30"/>
<text text-anchor="start" x="212" y="-18" font-family="Helvetica,sans-Serif" font-size="10.00">PlaybackControls::update</text>
<text text-anchor="middle" x="274.5" y="-7" font-family="Helvetica,sans-Serif" font-size="10.00">Duration</text>
</a>
</g>
</g>
<!-- Node1&#45;&gt;Node4 -->
<g id="edge3_Node000001_Node000004" class="edge">
<title>Node1&#45;&gt;Node4</title>
<g id="a_edge3_Node000001_Node000004"><a xlink:title=" ">
<path fill="none" stroke="#63b8ff" d="M386.73,-26.54C372.82,-25.09 358.66,-23.62 345.31,-22.24"/>
<polygon fill="#63b8ff" stroke="#63b8ff" points="386.49,-30.03 396.8,-27.58 387.22,-23.07 386.49,-30.03"/>
</a>
</g>
</g>
<!-- Node3 -->
<g id="Node000003" class="node">
<title>Node3</title>
<g id="a_Node000003"><a xlink:href="../../d6/d3c/classPlaybackControls.html#a7d27f828f2f1c02d87692ef60ab69b93" target="_top" xlink:title=" ">
<polygon fill="white" stroke="#666666" points="152,-73 0,-73 0,-43 152,-43 152,-73"/>
<text text-anchor="start" x="8" y="-61" font-family="Helvetica,sans-Serif" font-size="10.00">PlaybackControls::Playback</text>
<text text-anchor="middle" x="76" y="-50" font-family="Helvetica,sans-Serif" font-size="10.00">Controls</text>
</a>
</g>
</g>
<!-- Node2&#45;&gt;Node3 -->
<g id="edge2_Node000002_Node000003" class="edge">
<title>Node2&#45;&gt;Node3</title>
<g id="a_edge2_Node000002_Node000003"><a xlink:title=" ">
<path fill="none" stroke="#63b8ff" d="M177.8,-58C169.2,-58 160.56,-58 152.16,-58"/>
<polygon fill="#63b8ff" stroke="#63b8ff" points="177.88,-61.5 187.88,-58 177.88,-54.5 177.88,-61.5"/>
</a>
</g>
</g>
</g>
</svg>
