<?xml version="1.0" encoding="UTF-8" standalone="no"?>
<!DOCTYPE svg PUBLIC "-//W3C//DTD SVG 1.1//EN"
 "http://www.w3.org/Graphics/SVG/1.1/DTD/svg11.dtd">
<!-- Generated by graphviz version 2.43.0 (0)
 -->
<!-- Title: src/data/BackupManager.cpp Pages: 1 -->
<svg width="946pt" height="137pt"
 viewBox="0.00 0.00 946.00 137.00" xmlns="http://www.w3.org/2000/svg" xmlns:xlink="http://www.w3.org/1999/xlink">
<g id="graph0" class="graph" transform="scale(1 1) rotate(0) translate(4 133)">
<title>src/data/BackupManager.cpp</title>
<!-- Node1 -->
<g id="Node000001" class="node">
<title>Node1</title>
<g id="a_Node000001"><a xlink:title=" ">
<polygon fill="#999999" stroke="#666666" points="591.5,-129 435.5,-129 435.5,-110 591.5,-110 591.5,-129"/>
<text text-anchor="middle" x="513.5" y="-117" font-family="Helvetica,sans-Serif" font-size="10.00">src/data/BackupManager.cpp</text>
</a>
</g>
</g>
<!-- Node2 -->
<g id="Node000002" class="node">
<title>Node2</title>
<g id="a_Node000002"><a xlink:href="../../d3/dd6/BackupManager_8h.html" target="_top" xlink:title=" ">
<polygon fill="white" stroke="#666666" points="317.5,-74 189.5,-74 189.5,-55 317.5,-55 317.5,-74"/>
<text text-anchor="middle" x="253.5" y="-62" font-family="Helvetica,sans-Serif" font-size="10.00">data/BackupManager.h</text>
</a>
</g>
</g>
<!-- Node1&#45;&gt;Node2 -->
<g id="edge1_Node000001_Node000002" class="edge">
<title>Node1&#45;&gt;Node2</title>
<g id="a_edge1_Node000001_Node000002"><a xlink:title=" ">
<path fill="none" stroke="#63b8ff" d="M471.73,-109.98C426.56,-100.78 354.5,-86.09 305.65,-76.13"/>
<polygon fill="#63b8ff" stroke="#63b8ff" points="306.1,-72.65 295.6,-74.08 304.7,-79.51 306.1,-72.65"/>
</a>
</g>
</g>
<!-- Node5 -->
<g id="Node000005" class="node">
<title>Node5</title>
<g id="a_Node000005"><a xlink:title=" ">
<polygon fill="#e0e0e0" stroke="#999999" points="143.5,-19 71.5,-19 71.5,0 143.5,0 143.5,-19"/>
<text text-anchor="middle" x="107.5" y="-7" font-family="Helvetica,sans-Serif" font-size="10.00">QDateTime</text>
</a>
</g>
</g>
<!-- Node1&#45;&gt;Node5 -->
<g id="edge22_Node000001_Node000005" class="edge">
<title>Node1&#45;&gt;Node5</title>
<g id="a_edge22_Node000001_Node000005"><a xlink:title=" ">
<path fill="none" stroke="#63b8ff" d="M435.32,-113.26C351.54,-106.73 224.62,-93.93 180.5,-74 156.7,-63.25 134.88,-42.13 121.42,-27.21"/>
<polygon fill="#63b8ff" stroke="#63b8ff" points="123.71,-24.51 114.5,-19.26 118.43,-29.1 123.71,-24.51"/>
</a>
</g>
</g>
<!-- Node6 -->
<g id="Node000006" class="node">
<title>Node6</title>
<g id="a_Node000006"><a xlink:title=" ">
<polygon fill="#e0e0e0" stroke="#999999" points="53,-19 0,-19 0,0 53,0 53,-19"/>
<text text-anchor="middle" x="26.5" y="-7" font-family="Helvetica,sans-Serif" font-size="10.00">QTimer</text>
</a>
</g>
</g>
<!-- Node1&#45;&gt;Node6 -->
<g id="edge23_Node000001_Node000006" class="edge">
<title>Node1&#45;&gt;Node6</title>
<g id="a_edge23_Node000001_Node000006"><a xlink:title=" ">
<path fill="none" stroke="#63b8ff" d="M435.39,-117.13C360.1,-113.93 243.75,-104 147.5,-74 110.31,-62.41 71.05,-39.56 47.67,-24.67"/>
<polygon fill="#63b8ff" stroke="#63b8ff" points="49.54,-21.71 39.24,-19.2 45.73,-27.58 49.54,-21.71"/>
</a>
</g>
</g>
<!-- Node9 -->
<g id="Node000009" class="node">
<title>Node9</title>
<g id="a_Node000009"><a xlink:href="../../d7/df2/DatabaseManager_8h.html" target="_top" xlink:title=" ">
<polygon fill="white" stroke="#666666" points="476,-74 337,-74 337,-55 476,-55 476,-74"/>
<text text-anchor="middle" x="406.5" y="-62" font-family="Helvetica,sans-Serif" font-size="10.00">data/DatabaseManager.h</text>
</a>
</g>
</g>
<!-- Node1&#45;&gt;Node9 -->
<g id="edge8_Node000001_Node000009" class="edge">
<title>Node1&#45;&gt;Node9</title>
<g id="a_edge8_Node000001_Node000009"><a xlink:title=" ">
<path fill="none" stroke="#63b8ff" d="M496.31,-109.98C479.25,-101.54 452.87,-88.47 433.1,-78.68"/>
<polygon fill="#63b8ff" stroke="#63b8ff" points="434.52,-75.47 424,-74.17 431.41,-81.75 434.52,-75.47"/>
</a>
</g>
</g>
<!-- Node16 -->
<g id="Node000016" class="node">
<title>Node16</title>
<g id="a_Node000016"><a xlink:title=" ">
<polygon fill="#e0e0e0" stroke="#999999" points="532.5,-74 494.5,-74 494.5,-55 532.5,-55 532.5,-74"/>
<text text-anchor="middle" x="513.5" y="-62" font-family="Helvetica,sans-Serif" font-size="10.00">QDir</text>
</a>
</g>
</g>
<!-- Node1&#45;&gt;Node16 -->
<g id="edge19_Node000001_Node000016" class="edge">
<title>Node1&#45;&gt;Node16</title>
<g id="a_edge19_Node000001_Node000016"><a xlink:title=" ">
<path fill="none" stroke="#63b8ff" d="M513.5,-109.75C513.5,-102.8 513.5,-92.85 513.5,-84.13"/>
<polygon fill="#63b8ff" stroke="#63b8ff" points="517,-84.09 513.5,-74.09 510,-84.09 517,-84.09"/>
</a>
</g>
</g>
<!-- Node17 -->
<g id="Node000017" class="node">
<title>Node17</title>
<g id="a_Node000017"><a xlink:title=" ">
<polygon fill="#e0e0e0" stroke="#999999" points="610.5,-74 550.5,-74 550.5,-55 610.5,-55 610.5,-74"/>
<text text-anchor="middle" x="580.5" y="-62" font-family="Helvetica,sans-Serif" font-size="10.00">QFileInfo</text>
</a>
</g>
</g>
<!-- Node1&#45;&gt;Node17 -->
<g id="edge20_Node000001_Node000017" class="edge">
<title>Node1&#45;&gt;Node17</title>
<g id="a_edge20_Node000001_Node000017"><a xlink:title=" ">
<path fill="none" stroke="#63b8ff" d="M524.26,-109.98C534.27,-102.07 549.39,-90.11 561.43,-80.58"/>
<polygon fill="#63b8ff" stroke="#63b8ff" points="563.87,-83.12 569.54,-74.17 559.53,-77.63 563.87,-83.12"/>
</a>
</g>
</g>
<!-- Node18 -->
<g id="Node000018" class="node">
<title>Node18</title>
<g id="a_Node000018"><a xlink:title=" ">
<polygon fill="#e0e0e0" stroke="#999999" points="722.5,-74 628.5,-74 628.5,-55 722.5,-55 722.5,-74"/>
<text text-anchor="middle" x="675.5" y="-62" font-family="Helvetica,sans-Serif" font-size="10.00">QStandardPaths</text>
</a>
</g>
</g>
<!-- Node1&#45;&gt;Node18 -->
<g id="edge21_Node000001_Node000018" class="edge">
<title>Node1&#45;&gt;Node18</title>
<g id="a_edge21_Node000001_Node000018"><a xlink:title=" ">
<path fill="none" stroke="#63b8ff" d="M539.53,-109.98C566.61,-101.13 609.21,-87.19 639.51,-77.28"/>
<polygon fill="#63b8ff" stroke="#63b8ff" points="640.85,-80.52 649.27,-74.08 638.68,-73.87 640.85,-80.52"/>
</a>
</g>
</g>
<!-- Node19 -->
<g id="Node000019" class="node">
<title>Node19</title>
<g id="a_Node000019"><a xlink:title=" ">
<polygon fill="#e0e0e0" stroke="#999999" points="848,-74 741,-74 741,-55 848,-55 848,-74"/>
<text text-anchor="middle" x="794.5" y="-62" font-family="Helvetica,sans-Serif" font-size="10.00">QLoggingCategory</text>
</a>
</g>
</g>
<!-- Node1&#45;&gt;Node19 -->
<g id="edge24_Node000001_Node000019" class="edge">
<title>Node1&#45;&gt;Node19</title>
<g id="a_edge24_Node000001_Node000019"><a xlink:title=" ">
<path fill="none" stroke="#63b8ff" d="M558.65,-109.98C607.76,-100.72 686.32,-85.9 739.12,-75.94"/>
<polygon fill="#63b8ff" stroke="#63b8ff" points="739.82,-79.37 749,-74.08 738.52,-72.5 739.82,-79.37"/>
</a>
</g>
</g>
<!-- Node20 -->
<g id="Node000020" class="node">
<title>Node20</title>
<g id="a_Node000020"><a xlink:title=" ">
<polygon fill="#e0e0e0" stroke="#999999" points="922.5,-74 866.5,-74 866.5,-55 922.5,-55 922.5,-74"/>
<text text-anchor="middle" x="894.5" y="-62" font-family="Helvetica,sans-Serif" font-size="10.00">QDebug</text>
</a>
</g>
</g>
<!-- Node1&#45;&gt;Node20 -->
<g id="edge25_Node000001_Node000020" class="edge">
<title>Node1&#45;&gt;Node20</title>
<g id="a_edge25_Node000001_Node000020"><a xlink:title=" ">
<path fill="none" stroke="#63b8ff" d="M591.71,-110.57C659.32,-103.22 759.86,-91.08 856.35,-74.05"/>
<polygon fill="#63b8ff" stroke="#63b8ff" points="857.05,-77.48 866.28,-72.28 855.82,-70.59 857.05,-77.48"/>
</a>
</g>
</g>
<!-- Node3 -->
<g id="Node000003" class="node">
<title>Node3</title>
<g id="a_Node000003"><a xlink:title=" ">
<polygon fill="#e0e0e0" stroke="#999999" points="281.5,-19 225.5,-19 225.5,0 281.5,0 281.5,-19"/>
<text text-anchor="middle" x="253.5" y="-7" font-family="Helvetica,sans-Serif" font-size="10.00">QObject</text>
</a>
</g>
</g>
<!-- Node2&#45;&gt;Node3 -->
<g id="edge2_Node000002_Node000003" class="edge">
<title>Node2&#45;&gt;Node3</title>
<g id="a_edge2_Node000002_Node000003"><a xlink:title=" ">
<path fill="none" stroke="#63b8ff" d="M253.5,-54.75C253.5,-47.8 253.5,-37.85 253.5,-29.13"/>
<polygon fill="#63b8ff" stroke="#63b8ff" points="257,-29.09 253.5,-19.09 250,-29.09 257,-29.09"/>
</a>
</g>
</g>
<!-- Node4 -->
<g id="Node000004" class="node">
<title>Node4</title>
<g id="a_Node000004"><a xlink:title=" ">
<polygon fill="#e0e0e0" stroke="#999999" points="353,-19 300,-19 300,0 353,0 353,-19"/>
<text text-anchor="middle" x="326.5" y="-7" font-family="Helvetica,sans-Serif" font-size="10.00">QString</text>
</a>
</g>
</g>
<!-- Node2&#45;&gt;Node4 -->
<g id="edge3_Node000002_Node000004" class="edge">
<title>Node2&#45;&gt;Node4</title>
<g id="a_edge3_Node000002_Node000004"><a xlink:title=" ">
<path fill="none" stroke="#63b8ff" d="M265.23,-54.98C276.23,-47 292.92,-34.88 306.1,-25.31"/>
<polygon fill="#63b8ff" stroke="#63b8ff" points="308.52,-27.88 314.56,-19.17 304.41,-22.21 308.52,-27.88"/>
</a>
</g>
</g>
<!-- Node2&#45;&gt;Node5 -->
<g id="edge4_Node000002_Node000005" class="edge">
<title>Node2&#45;&gt;Node5</title>
<g id="a_edge4_Node000002_Node000005"><a xlink:title=" ">
<path fill="none" stroke="#63b8ff" d="M230.04,-54.98C205.92,-46.23 168.13,-32.51 140.9,-22.62"/>
<polygon fill="#63b8ff" stroke="#63b8ff" points="141.98,-19.29 131.38,-19.17 139.59,-25.87 141.98,-19.29"/>
</a>
</g>
</g>
<!-- Node2&#45;&gt;Node6 -->
<g id="edge5_Node000002_Node000006" class="edge">
<title>Node2&#45;&gt;Node6</title>
<g id="a_edge5_Node000002_Node000006"><a xlink:title=" ">
<path fill="none" stroke="#63b8ff" d="M216.52,-54.92C180.07,-46.45 122.51,-33.06 63.16,-19.15"/>
<polygon fill="#63b8ff" stroke="#63b8ff" points="63.77,-15.7 53.23,-16.82 62.17,-22.51 63.77,-15.7"/>
</a>
</g>
</g>
<!-- Node7 -->
<g id="Node000007" class="node">
<title>Node7</title>
<g id="a_Node000007"><a xlink:title=" ">
<polygon fill="#e0e0e0" stroke="#999999" points="441.5,-19 371.5,-19 371.5,0 441.5,0 441.5,-19"/>
<text text-anchor="middle" x="406.5" y="-7" font-family="Helvetica,sans-Serif" font-size="10.00">QStringList</text>
</a>
</g>
</g>
<!-- Node2&#45;&gt;Node7 -->
<g id="edge6_Node000002_Node000007" class="edge">
<title>Node2&#45;&gt;Node7</title>
<g id="a_edge6_Node000002_Node000007"><a xlink:title=" ">
<path fill="none" stroke="#63b8ff" d="M278.08,-54.98C303.55,-46.16 343.54,-32.31 372.13,-22.41"/>
<polygon fill="#63b8ff" stroke="#63b8ff" points="373.42,-25.66 381.73,-19.08 371.13,-19.05 373.42,-25.66"/>
</a>
</g>
</g>
<!-- Node8 -->
<g id="Node000008" class="node">
<title>Node8</title>
<g id="a_Node000008"><a xlink:title=" ">
<polygon fill="#e0e0e0" stroke="#999999" points="207,-19 162,-19 162,0 207,0 207,-19"/>
<text text-anchor="middle" x="184.5" y="-7" font-family="Helvetica,sans-Serif" font-size="10.00">QMap</text>
</a>
</g>
</g>
<!-- Node2&#45;&gt;Node8 -->
<g id="edge7_Node000002_Node000008" class="edge">
<title>Node2&#45;&gt;Node8</title>
<g id="a_edge7_Node000002_Node000008"><a xlink:title=" ">
<path fill="none" stroke="#63b8ff" d="M242.41,-54.98C232.01,-47 216.24,-34.88 203.78,-25.31"/>
<polygon fill="#63b8ff" stroke="#63b8ff" points="205.85,-22.49 195.79,-19.17 201.59,-28.04 205.85,-22.49"/>
</a>
</g>
</g>
<!-- Node9&#45;&gt;Node3 -->
<g id="edge9_Node000009_Node000003" class="edge">
<title>Node9&#45;&gt;Node3</title>
<g id="a_edge9_Node000009_Node000003"><a xlink:title=" ">
<path fill="none" stroke="#63b8ff" d="M381.92,-54.98C356.45,-46.16 316.46,-32.31 287.87,-22.41"/>
<polygon fill="#63b8ff" stroke="#63b8ff" points="288.87,-19.05 278.27,-19.08 286.58,-25.66 288.87,-19.05"/>
</a>
</g>
</g>
<!-- Node9&#45;&gt;Node4 -->
<g id="edge13_Node000009_Node000004" class="edge">
<title>Node9&#45;&gt;Node4</title>
<g id="a_edge13_Node000009_Node000004"><a xlink:title=" ">
<path fill="none" stroke="#63b8ff" d="M393.65,-54.98C381.36,-46.84 362.59,-34.41 348.02,-24.76"/>
<polygon fill="#63b8ff" stroke="#63b8ff" points="349.86,-21.78 339.59,-19.17 345.99,-27.61 349.86,-21.78"/>
</a>
</g>
</g>
<!-- Node9&#45;&gt;Node5 -->
<g id="edge15_Node000009_Node000005" class="edge">
<title>Node9&#45;&gt;Node5</title>
<g id="a_edge15_Node000009_Node000005"><a xlink:title=" ">
<path fill="none" stroke="#63b8ff" d="M357.03,-54.93C306.01,-46.06 224.16,-31.74 153.5,-19 153.4,-18.98 153.3,-18.96 153.2,-18.95"/>
<polygon fill="#63b8ff" stroke="#63b8ff" points="154.12,-15.56 143.65,-17.21 152.87,-22.44 154.12,-15.56"/>
</a>
</g>
</g>
<!-- Node9&#45;&gt;Node7 -->
<g id="edge14_Node000009_Node000007" class="edge">
<title>Node9&#45;&gt;Node7</title>
<g id="a_edge14_Node000009_Node000007"><a xlink:title=" ">
<path fill="none" stroke="#63b8ff" d="M406.5,-54.75C406.5,-47.8 406.5,-37.85 406.5,-29.13"/>
<polygon fill="#63b8ff" stroke="#63b8ff" points="410,-29.09 406.5,-19.09 403,-29.09 410,-29.09"/>
</a>
</g>
</g>
<!-- Node10 -->
<g id="Node000010" class="node">
<title>Node10</title>
<g id="a_Node000010"><a xlink:title=" ">
<polygon fill="#e0e0e0" stroke="#999999" points="621.5,-19 535.5,-19 535.5,0 621.5,0 621.5,-19"/>
<text text-anchor="middle" x="578.5" y="-7" font-family="Helvetica,sans-Serif" font-size="10.00">QSqlDatabase</text>
</a>
</g>
</g>
<!-- Node9&#45;&gt;Node10 -->
<g id="edge10_Node000009_Node000010" class="edge">
<title>Node9&#45;&gt;Node10</title>
<g id="a_edge10_Node000009_Node000010"><a xlink:title=" ">
<path fill="none" stroke="#63b8ff" d="M434.13,-54.98C463.01,-46.09 508.51,-32.07 540.7,-22.15"/>
<polygon fill="#63b8ff" stroke="#63b8ff" points="542.12,-25.37 550.65,-19.08 540.06,-18.68 542.12,-25.37"/>
</a>
</g>
</g>
<!-- Node11 -->
<g id="Node000011" class="node">
<title>Node11</title>
<g id="a_Node000011"><a xlink:title=" ">
<polygon fill="#e0e0e0" stroke="#999999" points="707.5,-19 639.5,-19 639.5,0 707.5,0 707.5,-19"/>
<text text-anchor="middle" x="673.5" y="-7" font-family="Helvetica,sans-Serif" font-size="10.00">QSqlQuery</text>
</a>
</g>
</g>
<!-- Node9&#45;&gt;Node11 -->
<g id="edge11_Node000009_Node000011" class="edge">
<title>Node9&#45;&gt;Node11</title>
<g id="a_edge11_Node000009_Node000011"><a xlink:title=" ">
<path fill="none" stroke="#63b8ff" d="M449.4,-54.98C498.77,-45.18 579.45,-29.17 629.34,-19.27"/>
<polygon fill="#63b8ff" stroke="#63b8ff" points="630.07,-22.69 639.2,-17.31 628.71,-15.82 630.07,-22.69"/>
</a>
</g>
</g>
<!-- Node12 -->
<g id="Node000012" class="node">
<title>Node12</title>
<g id="a_Node000012"><a xlink:title=" ">
<polygon fill="#e0e0e0" stroke="#999999" points="787.5,-19 725.5,-19 725.5,0 787.5,0 787.5,-19"/>
<text text-anchor="middle" x="756.5" y="-7" font-family="Helvetica,sans-Serif" font-size="10.00">QSqlError</text>
</a>
</g>
</g>
<!-- Node9&#45;&gt;Node12 -->
<g id="edge12_Node000009_Node000012" class="edge">
<title>Node9&#45;&gt;Node12</title>
<g id="a_edge12_Node000009_Node000012"><a xlink:title=" ">
<path fill="none" stroke="#63b8ff" d="M475.05,-55C535.73,-47.16 626.91,-34.65 715.18,-19.14"/>
<polygon fill="#63b8ff" stroke="#63b8ff" points="715.86,-22.57 725.1,-17.38 714.64,-15.68 715.86,-22.57"/>
</a>
</g>
</g>
<!-- Node13 -->
<g id="Node000013" class="node">
<title>Node13</title>
<g id="a_Node000013"><a xlink:title=" ">
<polygon fill="#e0e0e0" stroke="#999999" points="865,-19 806,-19 806,0 865,0 865,-19"/>
<text text-anchor="middle" x="835.5" y="-7" font-family="Helvetica,sans-Serif" font-size="10.00">QVariant</text>
</a>
</g>
</g>
<!-- Node9&#45;&gt;Node13 -->
<g id="edge16_Node000009_Node000013" class="edge">
<title>Node9&#45;&gt;Node13</title>
<g id="a_edge16_Node000009_Node000013"><a xlink:title=" ">
<path fill="none" stroke="#63b8ff" d="M476.05,-55.95C572.58,-45.42 740.69,-26.86 795.57,-18.89"/>
<polygon fill="#63b8ff" stroke="#63b8ff" points="796.4,-22.3 805.75,-17.31 795.33,-15.38 796.4,-22.3"/>
</a>
</g>
</g>
<!-- Node14 -->
<g id="Node000014" class="node">
<title>Node14</title>
<g id="a_Node000014"><a xlink:title=" ">
<polygon fill="#e0e0e0" stroke="#999999" points="938,-19 883,-19 883,0 938,0 938,-19"/>
<text text-anchor="middle" x="910.5" y="-7" font-family="Helvetica,sans-Serif" font-size="10.00">QMutex</text>
</a>
</g>
</g>
<!-- Node9&#45;&gt;Node14 -->
<g id="edge17_Node000009_Node000014" class="edge">
<title>Node9&#45;&gt;Node14</title>
<g id="a_edge17_Node000009_Node000014"><a xlink:title=" ">
<path fill="none" stroke="#63b8ff" d="M476.28,-55.93C479.4,-55.62 482.48,-55.3 485.5,-55 654.97,-38.04 701.39,-46.67 872.56,-19.12"/>
<polygon fill="#63b8ff" stroke="#63b8ff" points="873.36,-22.54 882.67,-17.48 872.24,-15.63 873.36,-22.54"/>
</a>
</g>
</g>
<!-- Node15 -->
<g id="Node000015" class="node">
<title>Node15</title>
<g id="a_Node000015"><a xlink:title=" ">
<polygon fill="#e0e0e0" stroke="#999999" points="517.5,-19 459.5,-19 459.5,0 517.5,0 517.5,-19"/>
<text text-anchor="middle" x="488.5" y="-7" font-family="Helvetica,sans-Serif" font-size="10.00">memory</text>
</a>
</g>
</g>
<!-- Node9&#45;&gt;Node15 -->
<g id="edge18_Node000009_Node000015" class="edge">
<title>Node9&#45;&gt;Node15</title>
<g id="a_edge18_Node000009_Node000015"><a xlink:title=" ">
<path fill="none" stroke="#63b8ff" d="M419.67,-54.98C432.27,-46.84 451.5,-34.41 466.44,-24.76"/>
<polygon fill="#63b8ff" stroke="#63b8ff" points="468.59,-27.54 475.09,-19.17 464.79,-21.66 468.59,-27.54"/>
</a>
</g>
</g>
</g>
</svg>
