<?xml version="1.0" encoding="UTF-8" standalone="no"?>
<!DOCTYPE svg PUBLIC "-//W3C//DTD SVG 1.1//EN"
 "http://www.w3.org/Graphics/SVG/1.1/DTD/svg11.dtd">
<!-- Generated by graphviz version 2.43.0 (0)
 -->
<!-- Title: src/video/VideoProcessor.cpp Pages: 1 -->
<svg width="1268pt" height="137pt"
 viewBox="0.00 0.00 1268.00 137.00" xmlns="http://www.w3.org/2000/svg" xmlns:xlink="http://www.w3.org/1999/xlink">
<g id="graph0" class="graph" transform="scale(1 1) rotate(0) translate(4 133)">
<title>src/video/VideoProcessor.cpp</title>
<!-- Node1 -->
<g id="Node000001" class="node">
<title>Node1</title>
<g id="a_Node000001"><a xlink:title=" ">
<polygon fill="#999999" stroke="#666666" points="922,-129 764,-129 764,-110 922,-110 922,-129"/>
<text text-anchor="middle" x="843" y="-117" font-family="Helvetica,sans-Serif" font-size="10.00">src/video/VideoProcessor.cpp</text>
</a>
</g>
</g>
<!-- Node2 -->
<g id="Node000002" class="node">
<title>Node2</title>
<g id="a_Node000002"><a xlink:href="../../df/dde/VideoProcessor_8h.html" target="_top" xlink:title=" ">
<polygon fill="white" stroke="#666666" points="351,-74 221,-74 221,-55 351,-55 351,-74"/>
<text text-anchor="middle" x="286" y="-62" font-family="Helvetica,sans-Serif" font-size="10.00">video/VideoProcessor.h</text>
</a>
</g>
</g>
<!-- Node1&#45;&gt;Node2 -->
<g id="edge1_Node000001_Node000002" class="edge">
<title>Node1&#45;&gt;Node2</title>
<g id="a_edge1_Node000001_Node000002"><a xlink:title=" ">
<path fill="none" stroke="#63b8ff" d="M763.63,-111.68C668.06,-103.35 502.69,-88.57 361,-74 360.9,-73.99 360.8,-73.98 360.69,-73.97"/>
<polygon fill="#63b8ff" stroke="#63b8ff" points="361.34,-70.52 351.03,-72.95 360.61,-77.48 361.34,-70.52"/>
</a>
</g>
</g>
<!-- Node11 -->
<g id="Node000011" class="node">
<title>Node11</title>
<g id="a_Node000011"><a xlink:title=" ">
<polygon fill="#e0e0e0" stroke="#999999" points="476.5,-74 369.5,-74 369.5,-55 476.5,-55 476.5,-74"/>
<text text-anchor="middle" x="423" y="-62" font-family="Helvetica,sans-Serif" font-size="10.00">QLoggingCategory</text>
</a>
</g>
</g>
<!-- Node1&#45;&gt;Node11 -->
<g id="edge10_Node000001_Node000011" class="edge">
<title>Node1&#45;&gt;Node11</title>
<g id="a_edge10_Node000001_Node000011"><a xlink:title=" ">
<path fill="none" stroke="#63b8ff" d="M772.86,-109.97C703.11,-101.44 592.73,-87.81 486.84,-74.1"/>
<polygon fill="#63b8ff" stroke="#63b8ff" points="486.98,-70.59 476.61,-72.77 486.08,-77.53 486.98,-70.59"/>
</a>
</g>
</g>
<!-- Node12 -->
<g id="Node000012" class="node">
<title>Node12</title>
<g id="a_Node000012"><a xlink:title=" ">
<polygon fill="#e0e0e0" stroke="#999999" points="581,-74 495,-74 495,-55 581,-55 581,-74"/>
<text text-anchor="middle" x="538" y="-62" font-family="Helvetica,sans-Serif" font-size="10.00">QMutexLocker</text>
</a>
</g>
</g>
<!-- Node1&#45;&gt;Node12 -->
<g id="edge11_Node000001_Node000012" class="edge">
<title>Node1&#45;&gt;Node12</title>
<g id="a_edge11_Node000001_Node000012"><a xlink:title=" ">
<path fill="none" stroke="#63b8ff" d="M794,-109.98C738.56,-100.35 648.56,-84.71 591.38,-74.78"/>
<polygon fill="#63b8ff" stroke="#63b8ff" points="591.9,-71.31 581.45,-73.05 590.7,-78.21 591.9,-71.31"/>
</a>
</g>
</g>
<!-- Node13 -->
<g id="Node000013" class="node">
<title>Node13</title>
<g id="a_Node000013"><a xlink:title=" ">
<polygon fill="#e0e0e0" stroke="#999999" points="694.5,-74 599.5,-74 599.5,-55 694.5,-55 694.5,-74"/>
<text text-anchor="middle" x="647" y="-62" font-family="Helvetica,sans-Serif" font-size="10.00">QJsonDocument</text>
</a>
</g>
</g>
<!-- Node1&#45;&gt;Node13 -->
<g id="edge12_Node000001_Node000013" class="edge">
<title>Node1&#45;&gt;Node13</title>
<g id="a_edge12_Node000001_Node000013"><a xlink:title=" ">
<path fill="none" stroke="#63b8ff" d="M811.51,-109.98C778.18,-100.97 725.4,-86.7 688.65,-76.76"/>
<polygon fill="#63b8ff" stroke="#63b8ff" points="689.3,-73.31 678.74,-74.08 687.48,-80.07 689.3,-73.31"/>
</a>
</g>
</g>
<!-- Node14 -->
<g id="Node000014" class="node">
<title>Node14</title>
<g id="a_Node000014"><a xlink:title=" ">
<polygon fill="#e0e0e0" stroke="#999999" points="789,-74 713,-74 713,-55 789,-55 789,-74"/>
<text text-anchor="middle" x="751" y="-62" font-family="Helvetica,sans-Serif" font-size="10.00">QJsonObject</text>
</a>
</g>
</g>
<!-- Node1&#45;&gt;Node14 -->
<g id="edge13_Node000001_Node000014" class="edge">
<title>Node1&#45;&gt;Node14</title>
<g id="a_edge13_Node000001_Node000014"><a xlink:title=" ">
<path fill="none" stroke="#63b8ff" d="M828.22,-109.98C813.82,-101.69 791.69,-88.94 774.81,-79.22"/>
<polygon fill="#63b8ff" stroke="#63b8ff" points="776.46,-76.13 766.05,-74.17 772.97,-82.19 776.46,-76.13"/>
</a>
</g>
</g>
<!-- Node15 -->
<g id="Node000015" class="node">
<title>Node15</title>
<g id="a_Node000015"><a xlink:title=" ">
<polygon fill="#e0e0e0" stroke="#999999" points="878.5,-74 807.5,-74 807.5,-55 878.5,-55 878.5,-74"/>
<text text-anchor="middle" x="843" y="-62" font-family="Helvetica,sans-Serif" font-size="10.00">QJsonArray</text>
</a>
</g>
</g>
<!-- Node1&#45;&gt;Node15 -->
<g id="edge14_Node000001_Node000015" class="edge">
<title>Node1&#45;&gt;Node15</title>
<g id="a_edge14_Node000001_Node000015"><a xlink:title=" ">
<path fill="none" stroke="#63b8ff" d="M843,-109.75C843,-102.8 843,-92.85 843,-84.13"/>
<polygon fill="#63b8ff" stroke="#63b8ff" points="846.5,-84.09 843,-74.09 839.5,-84.09 846.5,-84.09"/>
</a>
</g>
</g>
<!-- Node16 -->
<g id="Node000016" class="node">
<title>Node16</title>
<g id="a_Node000016"><a xlink:title=" ">
<polygon fill="#e0e0e0" stroke="#999999" points="937.5,-74 896.5,-74 896.5,-55 937.5,-55 937.5,-74"/>
<text text-anchor="middle" x="917" y="-62" font-family="Helvetica,sans-Serif" font-size="10.00">QFile</text>
</a>
</g>
</g>
<!-- Node1&#45;&gt;Node16 -->
<g id="edge15_Node000001_Node000016" class="edge">
<title>Node1&#45;&gt;Node16</title>
<g id="a_edge15_Node000001_Node000016"><a xlink:title=" ">
<path fill="none" stroke="#63b8ff" d="M854.89,-109.98C866.15,-101.92 883.29,-89.65 896.71,-80.03"/>
<polygon fill="#63b8ff" stroke="#63b8ff" points="898.8,-82.84 904.89,-74.17 894.73,-77.15 898.8,-82.84"/>
</a>
</g>
</g>
<!-- Node17 -->
<g id="Node000017" class="node">
<title>Node17</title>
<g id="a_Node000017"><a xlink:title=" ">
<polygon fill="#e0e0e0" stroke="#999999" points="1050,-74 956,-74 956,-55 1050,-55 1050,-74"/>
<text text-anchor="middle" x="1003" y="-62" font-family="Helvetica,sans-Serif" font-size="10.00">QStandardPaths</text>
</a>
</g>
</g>
<!-- Node1&#45;&gt;Node17 -->
<g id="edge16_Node000001_Node000017" class="edge">
<title>Node1&#45;&gt;Node17</title>
<g id="a_edge16_Node000001_Node000017"><a xlink:title=" ">
<path fill="none" stroke="#63b8ff" d="M868.71,-109.98C895.45,-101.13 937.53,-87.19 967.45,-77.28"/>
<polygon fill="#63b8ff" stroke="#63b8ff" points="968.7,-80.55 977.09,-74.08 966.5,-73.9 968.7,-80.55"/>
</a>
</g>
</g>
<!-- Node18 -->
<g id="Node000018" class="node">
<title>Node18</title>
<g id="a_Node000018"><a xlink:title=" ">
<polygon fill="#e0e0e0" stroke="#999999" points="1106,-74 1068,-74 1068,-55 1106,-55 1106,-74"/>
<text text-anchor="middle" x="1087" y="-62" font-family="Helvetica,sans-Serif" font-size="10.00">QDir</text>
</a>
</g>
</g>
<!-- Node1&#45;&gt;Node18 -->
<g id="edge17_Node000001_Node000018" class="edge">
<title>Node1&#45;&gt;Node18</title>
<g id="a_edge17_Node000001_Node000018"><a xlink:title=" ">
<path fill="none" stroke="#63b8ff" d="M890.9,-109.93C932.63,-102.18 994.94,-89.9 1057.71,-74.14"/>
<polygon fill="#63b8ff" stroke="#63b8ff" points="1058.95,-77.44 1067.79,-71.59 1057.23,-70.66 1058.95,-77.44"/>
</a>
</g>
</g>
<!-- Node19 -->
<g id="Node000019" class="node">
<title>Node19</title>
<g id="a_Node000019"><a xlink:title=" ">
<polygon fill="#e0e0e0" stroke="#999999" points="1177.5,-74 1124.5,-74 1124.5,-55 1177.5,-55 1177.5,-74"/>
<text text-anchor="middle" x="1151" y="-62" font-family="Helvetica,sans-Serif" font-size="10.00">QtMath</text>
</a>
</g>
</g>
<!-- Node1&#45;&gt;Node19 -->
<g id="edge18_Node000001_Node000019" class="edge">
<title>Node1&#45;&gt;Node19</title>
<g id="a_edge18_Node000001_Node000019"><a xlink:title=" ">
<path fill="none" stroke="#63b8ff" d="M902.64,-109.96C955.63,-102.1 1035.4,-89.6 1114.2,-74.03"/>
<polygon fill="#63b8ff" stroke="#63b8ff" points="1115.19,-77.41 1124.31,-72.02 1113.82,-70.54 1115.19,-77.41"/>
</a>
</g>
</g>
<!-- Node20 -->
<g id="Node000020" class="node">
<title>Node20</title>
<g id="a_Node000020"><a xlink:title=" ">
<polygon fill="#e0e0e0" stroke="#999999" points="1260,-74 1196,-74 1196,-55 1260,-55 1260,-74"/>
<text text-anchor="middle" x="1228" y="-62" font-family="Helvetica,sans-Serif" font-size="10.00">algorithm</text>
</a>
</g>
</g>
<!-- Node1&#45;&gt;Node20 -->
<g id="edge19_Node000001_Node000020" class="edge">
<title>Node1&#45;&gt;Node20</title>
<g id="a_edge19_Node000001_Node000020"><a xlink:title=" ">
<path fill="none" stroke="#63b8ff" d="M922.15,-109.99C989.72,-102.32 1089.68,-90.05 1185.91,-74.07"/>
<polygon fill="#63b8ff" stroke="#63b8ff" points="1186.53,-77.52 1195.81,-72.41 1185.37,-70.61 1186.53,-77.52"/>
</a>
</g>
</g>
<!-- Node3 -->
<g id="Node000003" class="node">
<title>Node3</title>
<g id="a_Node000003"><a xlink:title=" ">
<polygon fill="#e0e0e0" stroke="#999999" points="56,-19 0,-19 0,0 56,0 56,-19"/>
<text text-anchor="middle" x="28" y="-7" font-family="Helvetica,sans-Serif" font-size="10.00">QObject</text>
</a>
</g>
</g>
<!-- Node2&#45;&gt;Node3 -->
<g id="edge2_Node000002_Node000003" class="edge">
<title>Node2&#45;&gt;Node3</title>
<g id="a_edge2_Node000002_Node000003"><a xlink:title=" ">
<path fill="none" stroke="#63b8ff" d="M241.9,-54.99C199.33,-46.69 132.82,-33.5 66.11,-19.19"/>
<polygon fill="#63b8ff" stroke="#63b8ff" points="66.78,-15.76 56.26,-17.08 65.3,-22.6 66.78,-15.76"/>
</a>
</g>
</g>
<!-- Node4 -->
<g id="Node000004" class="node">
<title>Node4</title>
<g id="a_Node000004"><a xlink:title=" ">
<polygon fill="#e0e0e0" stroke="#999999" points="133.5,-19 74.5,-19 74.5,0 133.5,0 133.5,-19"/>
<text text-anchor="middle" x="104" y="-7" font-family="Helvetica,sans-Serif" font-size="10.00">QWidget</text>
</a>
</g>
</g>
<!-- Node2&#45;&gt;Node4 -->
<g id="edge3_Node000002_Node000004" class="edge">
<title>Node2&#45;&gt;Node4</title>
<g id="a_edge3_Node000002_Node000004"><a xlink:title=" ">
<path fill="none" stroke="#63b8ff" d="M256.76,-54.98C225.94,-46.01 177.22,-31.82 143.11,-21.89"/>
<polygon fill="#63b8ff" stroke="#63b8ff" points="144.05,-18.52 133.47,-19.08 142.09,-25.24 144.05,-18.52"/>
</a>
</g>
</g>
<!-- Node5 -->
<g id="Node000005" class="node">
<title>Node5</title>
<g id="a_Node000005"><a xlink:title=" ">
<polygon fill="#e0e0e0" stroke="#999999" points="204.5,-19 151.5,-19 151.5,0 204.5,0 204.5,-19"/>
<text text-anchor="middle" x="178" y="-7" font-family="Helvetica,sans-Serif" font-size="10.00">QTimer</text>
</a>
</g>
</g>
<!-- Node2&#45;&gt;Node5 -->
<g id="edge4_Node000002_Node000005" class="edge">
<title>Node2&#45;&gt;Node5</title>
<g id="a_edge4_Node000002_Node000005"><a xlink:title=" ">
<path fill="none" stroke="#63b8ff" d="M268.65,-54.98C251.43,-46.54 224.8,-33.47 204.85,-23.68"/>
<polygon fill="#63b8ff" stroke="#63b8ff" points="206.19,-20.43 195.67,-19.17 203.1,-26.72 206.19,-20.43"/>
</a>
</g>
</g>
<!-- Node6 -->
<g id="Node000006" class="node">
<title>Node6</title>
<g id="a_Node000006"><a xlink:title=" ">
<polygon fill="#e0e0e0" stroke="#999999" points="277.5,-19 222.5,-19 222.5,0 277.5,0 277.5,-19"/>
<text text-anchor="middle" x="250" y="-7" font-family="Helvetica,sans-Serif" font-size="10.00">QMutex</text>
</a>
</g>
</g>
<!-- Node2&#45;&gt;Node6 -->
<g id="edge5_Node000002_Node000006" class="edge">
<title>Node2&#45;&gt;Node6</title>
<g id="a_edge5_Node000002_Node000006"><a xlink:title=" ">
<path fill="none" stroke="#63b8ff" d="M280.06,-54.75C275.02,-47.34 267.66,-36.5 261.49,-27.41"/>
<polygon fill="#63b8ff" stroke="#63b8ff" points="264.35,-25.39 255.83,-19.09 258.56,-29.33 264.35,-25.39"/>
</a>
</g>
</g>
<!-- Node7 -->
<g id="Node000007" class="node">
<title>Node7</title>
<g id="a_Node000007"><a xlink:title=" ">
<polygon fill="#e0e0e0" stroke="#999999" points="350.5,-19 295.5,-19 295.5,0 350.5,0 350.5,-19"/>
<text text-anchor="middle" x="323" y="-7" font-family="Helvetica,sans-Serif" font-size="10.00">QVector</text>
</a>
</g>
</g>
<!-- Node2&#45;&gt;Node7 -->
<g id="edge6_Node000002_Node000007" class="edge">
<title>Node2&#45;&gt;Node7</title>
<g id="a_edge6_Node000002_Node000007"><a xlink:title=" ">
<path fill="none" stroke="#63b8ff" d="M292.11,-54.75C297.28,-47.34 304.85,-36.5 311.19,-27.41"/>
<polygon fill="#63b8ff" stroke="#63b8ff" points="314.15,-29.29 317,-19.09 308.41,-25.29 314.15,-29.29"/>
</a>
</g>
</g>
<!-- Node8 -->
<g id="Node000008" class="node">
<title>Node8</title>
<g id="a_Node000008"><a xlink:title=" ">
<polygon fill="#e0e0e0" stroke="#999999" points="421.5,-19 368.5,-19 368.5,0 421.5,0 421.5,-19"/>
<text text-anchor="middle" x="395" y="-7" font-family="Helvetica,sans-Serif" font-size="10.00">QString</text>
</a>
</g>
</g>
<!-- Node2&#45;&gt;Node8 -->
<g id="edge7_Node000002_Node000008" class="edge">
<title>Node2&#45;&gt;Node8</title>
<g id="a_edge7_Node000002_Node000008"><a xlink:title=" ">
<path fill="none" stroke="#63b8ff" d="M303.51,-54.98C320.97,-46.5 348.01,-33.35 368.17,-23.54"/>
<polygon fill="#63b8ff" stroke="#63b8ff" points="369.71,-26.69 377.17,-19.17 366.64,-20.4 369.71,-26.69"/>
</a>
</g>
</g>
<!-- Node9 -->
<g id="Node000009" class="node">
<title>Node9</title>
<g id="a_Node000009"><a xlink:title=" ">
<polygon fill="#e0e0e0" stroke="#999999" points="490,-19 440,-19 440,0 490,0 490,-19"/>
<text text-anchor="middle" x="465" y="-7" font-family="Helvetica,sans-Serif" font-size="10.00">QColor</text>
</a>
</g>
</g>
<!-- Node2&#45;&gt;Node9 -->
<g id="edge8_Node000002_Node000009" class="edge">
<title>Node2&#45;&gt;Node9</title>
<g id="a_edge8_Node000002_Node000009"><a xlink:title=" ">
<path fill="none" stroke="#63b8ff" d="M314.76,-54.98C346.11,-45.7 396.27,-30.85 429.91,-20.89"/>
<polygon fill="#63b8ff" stroke="#63b8ff" points="431.19,-24.16 439.78,-17.97 429.2,-17.45 431.19,-24.16"/>
</a>
</g>
</g>
<!-- Node10 -->
<g id="Node000010" class="node">
<title>Node10</title>
<g id="a_Node000010"><a xlink:title=" ">
<polygon fill="#e0e0e0" stroke="#999999" points="566,-19 508,-19 508,0 566,0 566,-19"/>
<text text-anchor="middle" x="537" y="-7" font-family="Helvetica,sans-Serif" font-size="10.00">memory</text>
</a>
</g>
</g>
<!-- Node2&#45;&gt;Node10 -->
<g id="edge9_Node000002_Node000010" class="edge">
<title>Node2&#45;&gt;Node10</title>
<g id="a_edge9_Node000002_Node000010"><a xlink:title=" ">
<path fill="none" stroke="#63b8ff" d="M327.67,-54.98C368.53,-46.58 432.88,-33.24 497.94,-19.21"/>
<polygon fill="#63b8ff" stroke="#63b8ff" points="498.93,-22.57 507.96,-17.04 497.45,-15.73 498.93,-22.57"/>
</a>
</g>
</g>
</g>
</svg>
