<?xml version="1.0" encoding="UTF-8" standalone="no"?>
<!DOCTYPE svg PUBLIC "-//W3C//DTD SVG 1.1//EN"
 "http://www.w3.org/Graphics/SVG/1.1/DTD/svg11.dtd">
<!-- Generated by graphviz version 2.43.0 (0)
 -->
<!-- Title: include/ui/SubtitleControlWidget.h Pages: 1 -->
<svg width="1647pt" height="203pt"
 viewBox="0.00 0.00 1647.00 203.00" xmlns="http://www.w3.org/2000/svg" xmlns:xlink="http://www.w3.org/1999/xlink">
<g id="graph0" class="graph" transform="scale(1 1) rotate(0) translate(4 199)">
<title>include/ui/SubtitleControlWidget.h</title>
<!-- Node1 -->
<g id="Node000001" class="node">
<title>Node1</title>
<g id="a_Node000001"><a xlink:title=" ">
<polygon fill="#999999" stroke="#666666" points="998.5,-195 858.5,-195 858.5,-165 998.5,-165 998.5,-195"/>
<text text-anchor="start" x="866.5" y="-183" font-family="Helvetica,sans-Serif" font-size="10.00">include/ui/SubtitleControl</text>
<text text-anchor="middle" x="928.5" y="-172" font-family="Helvetica,sans-Serif" font-size="10.00">Widget.h</text>
</a>
</g>
</g>
<!-- Node2 -->
<g id="Node000002" class="node">
<title>Node2</title>
<g id="a_Node000002"><a xlink:href="../../d6/d6f/SubtitleEntry_8h.html" target="_top" xlink:title=" ">
<polygon fill="white" stroke="#666666" points="161.5,-74 29.5,-74 29.5,-55 161.5,-55 161.5,-74"/>
<text text-anchor="middle" x="95.5" y="-62" font-family="Helvetica,sans-Serif" font-size="10.00">subtitles/SubtitleEntry.h</text>
</a>
</g>
</g>
<!-- Node1&#45;&gt;Node2 -->
<g id="edge1_Node000001_Node000002" class="edge">
<title>Node1&#45;&gt;Node2</title>
<g id="a_edge1_Node000001_Node000002"><a xlink:title=" ">
<path fill="none" stroke="#63b8ff" d="M858.46,-177.24C746.25,-173.49 519.57,-162.17 330.5,-129 258.52,-116.37 176.56,-91.83 130.94,-77.23"/>
<polygon fill="#63b8ff" stroke="#63b8ff" points="131.83,-73.84 121.24,-74.1 129.68,-80.5 131.83,-73.84"/>
</a>
</g>
</g>
<!-- Node9 -->
<g id="Node000009" class="node">
<title>Node9</title>
<g id="a_Node000009"><a xlink:href="../../dc/d64/SubtitleRenderer_8h.html" target="_top" xlink:title=" ">
<polygon fill="white" stroke="#666666" points="491.5,-129 339.5,-129 339.5,-110 491.5,-110 491.5,-129"/>
<text text-anchor="middle" x="415.5" y="-117" font-family="Helvetica,sans-Serif" font-size="10.00">subtitles/SubtitleRenderer.h</text>
</a>
</g>
</g>
<!-- Node1&#45;&gt;Node9 -->
<g id="edge8_Node000001_Node000009" class="edge">
<title>Node1&#45;&gt;Node9</title>
<g id="a_edge8_Node000001_Node000009"><a xlink:title=" ">
<path fill="none" stroke="#63b8ff" d="M858.25,-170.99C764.99,-160.35 600.48,-141.59 500.39,-130.18"/>
<polygon fill="#63b8ff" stroke="#63b8ff" points="500.64,-126.69 490.31,-129.03 499.85,-133.64 500.64,-126.69"/>
</a>
</g>
</g>
<!-- Node10 -->
<g id="Node000010" class="node">
<title>Node10</title>
<g id="a_Node000010"><a xlink:title=" ">
<polygon fill="#e0e0e0" stroke="#999999" points="785,-74 726,-74 726,-55 785,-55 785,-74"/>
<text text-anchor="middle" x="755.5" y="-62" font-family="Helvetica,sans-Serif" font-size="10.00">QWidget</text>
</a>
</g>
</g>
<!-- Node1&#45;&gt;Node10 -->
<g id="edge18_Node000001_Node000010" class="edge">
<title>Node1&#45;&gt;Node10</title>
<g id="a_edge18_Node000001_Node000010"><a xlink:title=" ">
<path fill="none" stroke="#63b8ff" d="M858.23,-174.95C751.64,-168.09 559.24,-152.57 538.5,-129 499.55,-84.73 463.14,-126.34 715.81,-74.11"/>
<polygon fill="#63b8ff" stroke="#63b8ff" points="716.62,-77.51 725.7,-72.04 715.2,-70.66 716.62,-77.51"/>
</a>
</g>
</g>
<!-- Node15 -->
<g id="Node000015" class="node">
<title>Node15</title>
<g id="a_Node000015"><a xlink:title=" ">
<polygon fill="#e0e0e0" stroke="#999999" points="631,-129 548,-129 548,-110 631,-110 631,-129"/>
<text text-anchor="middle" x="589.5" y="-117" font-family="Helvetica,sans-Serif" font-size="10.00">QVBoxLayout</text>
</a>
</g>
</g>
<!-- Node1&#45;&gt;Node15 -->
<g id="edge19_Node000001_Node000015" class="edge">
<title>Node1&#45;&gt;Node15</title>
<g id="a_edge19_Node000001_Node000015"><a xlink:title=" ">
<path fill="none" stroke="#63b8ff" d="M858.26,-166.88C793.68,-155.73 699.41,-139.47 641.4,-129.46"/>
<polygon fill="#63b8ff" stroke="#63b8ff" points="641.8,-125.97 631.35,-127.72 640.61,-132.87 641.8,-125.97"/>
</a>
</g>
</g>
<!-- Node16 -->
<g id="Node000016" class="node">
<title>Node16</title>
<g id="a_Node000016"><a xlink:title=" ">
<polygon fill="#e0e0e0" stroke="#999999" points="732,-129 649,-129 649,-110 732,-110 732,-129"/>
<text text-anchor="middle" x="690.5" y="-117" font-family="Helvetica,sans-Serif" font-size="10.00">QHBoxLayout</text>
</a>
</g>
</g>
<!-- Node1&#45;&gt;Node16 -->
<g id="edge20_Node000001_Node000016" class="edge">
<title>Node1&#45;&gt;Node16</title>
<g id="a_edge20_Node000001_Node000016"><a xlink:title=" ">
<path fill="none" stroke="#63b8ff" d="M871.49,-164.99C829.71,-154.72 773.77,-140.97 735.2,-131.49"/>
<polygon fill="#63b8ff" stroke="#63b8ff" points="735.85,-128.04 725.3,-129.05 734.17,-134.84 735.85,-128.04"/>
</a>
</g>
</g>
<!-- Node17 -->
<g id="Node000017" class="node">
<title>Node17</title>
<g id="a_Node000017"><a xlink:title=" ">
<polygon fill="#e0e0e0" stroke="#999999" points="800.5,-129 750.5,-129 750.5,-110 800.5,-110 800.5,-129"/>
<text text-anchor="middle" x="775.5" y="-117" font-family="Helvetica,sans-Serif" font-size="10.00">QLabel</text>
</a>
</g>
</g>
<!-- Node1&#45;&gt;Node17 -->
<g id="edge21_Node000001_Node000017" class="edge">
<title>Node1&#45;&gt;Node17</title>
<g id="a_edge21_Node000001_Node000017"><a xlink:title=" ">
<path fill="none" stroke="#63b8ff" d="M891.85,-164.99C866.21,-155.18 832.28,-142.21 807.68,-132.81"/>
<polygon fill="#63b8ff" stroke="#63b8ff" points="808.69,-129.44 798.09,-129.14 806.19,-135.98 808.69,-129.44"/>
</a>
</g>
</g>
<!-- Node18 -->
<g id="Node000018" class="node">
<title>Node18</title>
<g id="a_Node000018"><a xlink:title=" ">
<polygon fill="#e0e0e0" stroke="#999999" points="870.5,-129 818.5,-129 818.5,-110 870.5,-110 870.5,-129"/>
<text text-anchor="middle" x="844.5" y="-117" font-family="Helvetica,sans-Serif" font-size="10.00">QSlider</text>
</a>
</g>
</g>
<!-- Node1&#45;&gt;Node18 -->
<g id="edge22_Node000001_Node000018" class="edge">
<title>Node1&#45;&gt;Node18</title>
<g id="a_edge22_Node000001_Node000018"><a xlink:title=" ">
<path fill="none" stroke="#63b8ff" d="M908.17,-164.84C895.23,-155.83 878.51,-144.18 865.45,-135.09"/>
<polygon fill="#63b8ff" stroke="#63b8ff" points="867.29,-132.11 857.09,-129.27 863.29,-137.85 867.29,-132.11"/>
</a>
</g>
</g>
<!-- Node19 -->
<g id="Node000019" class="node">
<title>Node19</title>
<g id="a_Node000019"><a xlink:title=" ">
<polygon fill="#e0e0e0" stroke="#999999" points="968.5,-129 888.5,-129 888.5,-110 968.5,-110 968.5,-129"/>
<text text-anchor="middle" x="928.5" y="-117" font-family="Helvetica,sans-Serif" font-size="10.00">QPushButton</text>
</a>
</g>
</g>
<!-- Node1&#45;&gt;Node19 -->
<g id="edge23_Node000001_Node000019" class="edge">
<title>Node1&#45;&gt;Node19</title>
<g id="a_edge23_Node000001_Node000019"><a xlink:title=" ">
<path fill="none" stroke="#63b8ff" d="M928.5,-164.84C928.5,-157.21 928.5,-147.7 928.5,-139.45"/>
<polygon fill="#63b8ff" stroke="#63b8ff" points="932,-139.27 928.5,-129.27 925,-139.27 932,-139.27"/>
</a>
</g>
</g>
<!-- Node20 -->
<g id="Node000020" class="node">
<title>Node20</title>
<g id="a_Node000020"><a xlink:title=" ">
<polygon fill="#e0e0e0" stroke="#999999" points="1064,-129 987,-129 987,-110 1064,-110 1064,-129"/>
<text text-anchor="middle" x="1025.5" y="-117" font-family="Helvetica,sans-Serif" font-size="10.00">QComboBox</text>
</a>
</g>
</g>
<!-- Node1&#45;&gt;Node20 -->
<g id="edge24_Node000001_Node000020" class="edge">
<title>Node1&#45;&gt;Node20</title>
<g id="a_edge24_Node000001_Node000020"><a xlink:title=" ">
<path fill="none" stroke="#63b8ff" d="M951.98,-164.84C967.3,-155.6 987.21,-143.59 1002.45,-134.4"/>
<polygon fill="#63b8ff" stroke="#63b8ff" points="1004.49,-137.26 1011.25,-129.09 1000.88,-131.26 1004.49,-137.26"/>
</a>
</g>
</g>
<!-- Node21 -->
<g id="Node000021" class="node">
<title>Node21</title>
<g id="a_Node000021"><a xlink:title=" ">
<polygon fill="#e0e0e0" stroke="#999999" points="1146.5,-129 1082.5,-129 1082.5,-110 1146.5,-110 1146.5,-129"/>
<text text-anchor="middle" x="1114.5" y="-117" font-family="Helvetica,sans-Serif" font-size="10.00">QSpinBox</text>
</a>
</g>
</g>
<!-- Node1&#45;&gt;Node21 -->
<g id="edge25_Node000001_Node000021" class="edge">
<title>Node1&#45;&gt;Node21</title>
<g id="a_edge25_Node000001_Node000021"><a xlink:title=" ">
<path fill="none" stroke="#63b8ff" d="M973.05,-164.99C1005.01,-154.94 1047.56,-141.55 1077.62,-132.1"/>
<polygon fill="#63b8ff" stroke="#63b8ff" points="1078.81,-135.39 1087.3,-129.05 1076.71,-128.72 1078.81,-135.39"/>
</a>
</g>
</g>
<!-- Node22 -->
<g id="Node000022" class="node">
<title>Node22</title>
<g id="a_Node000022"><a xlink:title=" ">
<polygon fill="#e0e0e0" stroke="#999999" points="1262.5,-129 1164.5,-129 1164.5,-110 1262.5,-110 1262.5,-129"/>
<text text-anchor="middle" x="1213.5" y="-117" font-family="Helvetica,sans-Serif" font-size="10.00">QDoubleSpinBox</text>
</a>
</g>
</g>
<!-- Node1&#45;&gt;Node22 -->
<g id="edge26_Node000001_Node000022" class="edge">
<title>Node1&#45;&gt;Node22</title>
<g id="a_edge26_Node000001_Node000022"><a xlink:title=" ">
<path fill="none" stroke="#63b8ff" d="M996.76,-164.99C1047.55,-154.56 1115.78,-140.56 1162.02,-131.07"/>
<polygon fill="#63b8ff" stroke="#63b8ff" points="1162.74,-134.49 1171.83,-129.05 1161.33,-127.64 1162.74,-134.49"/>
</a>
</g>
</g>
<!-- Node23 -->
<g id="Node000023" class="node">
<title>Node23</title>
<g id="a_Node000023"><a xlink:title=" ">
<polygon fill="#e0e0e0" stroke="#999999" points="1362,-129 1281,-129 1281,-110 1362,-110 1362,-129"/>
<text text-anchor="middle" x="1321.5" y="-117" font-family="Helvetica,sans-Serif" font-size="10.00">QColorDialog</text>
</a>
</g>
</g>
<!-- Node1&#45;&gt;Node23 -->
<g id="edge27_Node000001_Node000023" class="edge">
<title>Node1&#45;&gt;Node23</title>
<g id="a_edge27_Node000001_Node000023"><a xlink:title=" ">
<path fill="none" stroke="#63b8ff" d="M998.54,-169.28C1065.67,-159.86 1170.14,-144.9 1270.81,-129.08"/>
<polygon fill="#63b8ff" stroke="#63b8ff" points="1271.52,-132.51 1280.85,-127.49 1270.43,-125.59 1271.52,-132.51"/>
</a>
</g>
</g>
<!-- Node24 -->
<g id="Node000024" class="node">
<title>Node24</title>
<g id="a_Node000024"><a xlink:title=" ">
<polygon fill="#e0e0e0" stroke="#999999" points="1457,-129 1380,-129 1380,-110 1457,-110 1457,-129"/>
<text text-anchor="middle" x="1418.5" y="-117" font-family="Helvetica,sans-Serif" font-size="10.00">QFontDialog</text>
</a>
</g>
</g>
<!-- Node1&#45;&gt;Node24 -->
<g id="edge28_Node000001_Node000024" class="edge">
<title>Node1&#45;&gt;Node24</title>
<g id="a_edge28_Node000001_Node000024"><a xlink:title=" ">
<path fill="none" stroke="#63b8ff" d="M998.51,-172.55C1083.85,-164.36 1232.68,-149.04 1369.55,-129.21"/>
<polygon fill="#63b8ff" stroke="#63b8ff" points="1370.42,-132.62 1379.8,-127.71 1369.4,-125.69 1370.42,-132.62"/>
</a>
</g>
</g>
<!-- Node25 -->
<g id="Node000025" class="node">
<title>Node25</title>
<g id="a_Node000025"><a xlink:title=" ">
<polygon fill="#e0e0e0" stroke="#999999" points="1547.5,-129 1475.5,-129 1475.5,-110 1547.5,-110 1547.5,-129"/>
<text text-anchor="middle" x="1511.5" y="-117" font-family="Helvetica,sans-Serif" font-size="10.00">QGroupBox</text>
</a>
</g>
</g>
<!-- Node1&#45;&gt;Node25 -->
<g id="edge29_Node000001_Node000025" class="edge">
<title>Node1&#45;&gt;Node25</title>
<g id="a_edge29_Node000001_Node000025"><a xlink:title=" ">
<path fill="none" stroke="#63b8ff" d="M998.82,-174.58C1099.83,-167.77 1292.03,-153.05 1465.14,-129.07"/>
<polygon fill="#63b8ff" stroke="#63b8ff" points="1465.78,-132.51 1475.2,-127.66 1464.81,-125.58 1465.78,-132.51"/>
</a>
</g>
</g>
<!-- Node26 -->
<g id="Node000026" class="node">
<title>Node26</title>
<g id="a_Node000026"><a xlink:title=" ">
<polygon fill="#e0e0e0" stroke="#999999" points="1639,-129 1566,-129 1566,-110 1639,-110 1639,-129"/>
<text text-anchor="middle" x="1602.5" y="-117" font-family="Helvetica,sans-Serif" font-size="10.00">QCheckBox</text>
</a>
</g>
</g>
<!-- Node1&#45;&gt;Node26 -->
<g id="edge30_Node000001_Node000026" class="edge">
<title>Node1&#45;&gt;Node26</title>
<g id="a_edge30_Node000001_Node000026"><a xlink:title=" ">
<path fill="none" stroke="#63b8ff" d="M998.91,-175.77C1113.45,-169.99 1347.39,-156.02 1555.68,-128.96"/>
<polygon fill="#63b8ff" stroke="#63b8ff" points="1556.44,-132.39 1565.9,-127.62 1555.53,-125.45 1556.44,-132.39"/>
</a>
</g>
</g>
<!-- Node3 -->
<g id="Node000003" class="node">
<title>Node3</title>
<g id="a_Node000003"><a xlink:title=" ">
<polygon fill="#e0e0e0" stroke="#999999" points="53,-19 0,-19 0,0 53,0 53,-19"/>
<text text-anchor="middle" x="26.5" y="-7" font-family="Helvetica,sans-Serif" font-size="10.00">QString</text>
</a>
</g>
</g>
<!-- Node2&#45;&gt;Node3 -->
<g id="edge2_Node000002_Node000003" class="edge">
<title>Node2&#45;&gt;Node3</title>
<g id="a_edge2_Node000002_Node000003"><a xlink:title=" ">
<path fill="none" stroke="#63b8ff" d="M84.41,-54.98C74.01,-47 58.24,-34.88 45.78,-25.31"/>
<polygon fill="#63b8ff" stroke="#63b8ff" points="47.85,-22.49 37.79,-19.17 43.59,-28.04 47.85,-22.49"/>
</a>
</g>
</g>
<!-- Node4 -->
<g id="Node000004" class="node">
<title>Node4</title>
<g id="a_Node000004"><a xlink:title=" ">
<polygon fill="#e0e0e0" stroke="#999999" points="120,-19 71,-19 71,0 120,0 120,-19"/>
<text text-anchor="middle" x="95.5" y="-7" font-family="Helvetica,sans-Serif" font-size="10.00">QTime</text>
</a>
</g>
</g>
<!-- Node2&#45;&gt;Node4 -->
<g id="edge3_Node000002_Node000004" class="edge">
<title>Node2&#45;&gt;Node4</title>
<g id="a_edge3_Node000002_Node000004"><a xlink:title=" ">
<path fill="none" stroke="#63b8ff" d="M95.5,-54.75C95.5,-47.8 95.5,-37.85 95.5,-29.13"/>
<polygon fill="#63b8ff" stroke="#63b8ff" points="99,-29.09 95.5,-19.09 92,-29.09 99,-29.09"/>
</a>
</g>
</g>
<!-- Node5 -->
<g id="Node000005" class="node">
<title>Node5</title>
<g id="a_Node000005"><a xlink:title=" ">
<polygon fill="#e0e0e0" stroke="#999999" points="255.5,-19 205.5,-19 205.5,0 255.5,0 255.5,-19"/>
<text text-anchor="middle" x="230.5" y="-7" font-family="Helvetica,sans-Serif" font-size="10.00">QColor</text>
</a>
</g>
</g>
<!-- Node2&#45;&gt;Node5 -->
<g id="edge4_Node000002_Node000005" class="edge">
<title>Node2&#45;&gt;Node5</title>
<g id="a_edge4_Node000002_Node000005"><a xlink:title=" ">
<path fill="none" stroke="#63b8ff" d="M117.19,-54.98C139.3,-46.3 173.82,-32.75 198.95,-22.88"/>
<polygon fill="#63b8ff" stroke="#63b8ff" points="200.39,-26.08 208.42,-19.17 197.83,-19.57 200.39,-26.08"/>
</a>
</g>
</g>
<!-- Node6 -->
<g id="Node000006" class="node">
<title>Node6</title>
<g id="a_Node000006"><a xlink:title=" ">
<polygon fill="#e0e0e0" stroke="#999999" points="350,-19 305,-19 305,0 350,0 350,-19"/>
<text text-anchor="middle" x="327.5" y="-7" font-family="Helvetica,sans-Serif" font-size="10.00">QFont</text>
</a>
</g>
</g>
<!-- Node2&#45;&gt;Node6 -->
<g id="edge5_Node000002_Node000006" class="edge">
<title>Node2&#45;&gt;Node6</title>
<g id="a_edge5_Node000002_Node000006"><a xlink:title=" ">
<path fill="none" stroke="#63b8ff" d="M132.77,-54.98C177.62,-44.74 252.2,-27.7 294.87,-17.96"/>
<polygon fill="#63b8ff" stroke="#63b8ff" points="295.77,-21.34 304.73,-15.7 294.21,-14.52 295.77,-21.34"/>
</a>
</g>
</g>
<!-- Node7 -->
<g id="Node000007" class="node">
<title>Node7</title>
<g id="a_Node000007"><a xlink:title=" ">
<polygon fill="#e0e0e0" stroke="#999999" points="430.5,-19 384.5,-19 384.5,0 430.5,0 430.5,-19"/>
<text text-anchor="middle" x="407.5" y="-7" font-family="Helvetica,sans-Serif" font-size="10.00">QRect</text>
</a>
</g>
</g>
<!-- Node2&#45;&gt;Node7 -->
<g id="edge6_Node000002_Node000007" class="edge">
<title>Node2&#45;&gt;Node7</title>
<g id="a_edge6_Node000002_Node000007"><a xlink:title=" ">
<path fill="none" stroke="#63b8ff" d="M146.42,-54.95C199.41,-46.03 284.79,-31.63 358.5,-19 363.58,-18.13 368.96,-17.2 374.22,-16.29"/>
<polygon fill="#63b8ff" stroke="#63b8ff" points="374.82,-19.74 384.07,-14.58 373.62,-12.84 374.82,-19.74"/>
</a>
</g>
</g>
<!-- Node8 -->
<g id="Node000008" class="node">
<title>Node8</title>
<g id="a_Node000008"><a xlink:title=" ">
<polygon fill="#e0e0e0" stroke="#999999" points="179,-19 138,-19 138,0 179,0 179,-19"/>
<text text-anchor="middle" x="158.5" y="-7" font-family="Helvetica,sans-Serif" font-size="10.00">QList</text>
</a>
</g>
</g>
<!-- Node2&#45;&gt;Node8 -->
<g id="edge7_Node000002_Node000008" class="edge">
<title>Node2&#45;&gt;Node8</title>
<g id="a_edge7_Node000002_Node000008"><a xlink:title=" ">
<path fill="none" stroke="#63b8ff" d="M105.62,-54.98C114.94,-47.15 128.97,-35.34 140.24,-25.86"/>
<polygon fill="#63b8ff" stroke="#63b8ff" points="142.79,-28.29 148.19,-19.17 138.29,-22.93 142.79,-28.29"/>
</a>
</g>
</g>
<!-- Node9&#45;&gt;Node2 -->
<g id="edge9_Node000009_Node000002" class="edge">
<title>Node9&#45;&gt;Node2</title>
<g id="a_edge9_Node000009_Node000002"><a xlink:title=" ">
<path fill="none" stroke="#63b8ff" d="M364.09,-109.98C307.72,-100.65 217.31,-85.67 157.17,-75.71"/>
<polygon fill="#63b8ff" stroke="#63b8ff" points="157.49,-72.22 147.05,-74.04 156.34,-79.13 157.49,-72.22"/>
</a>
</g>
</g>
<!-- Node9&#45;&gt;Node5 -->
<g id="edge16_Node000009_Node000005" class="edge">
<title>Node9&#45;&gt;Node5</title>
<g id="a_edge16_Node000009_Node000005"><a xlink:title=" ">
<path fill="none" stroke="#63b8ff" d="M403.82,-109.97C386.2,-97.27 351.59,-72.97 320.5,-55 300.38,-43.37 276.81,-31.78 258.84,-23.35"/>
<polygon fill="#63b8ff" stroke="#63b8ff" points="260.03,-20.05 249.49,-19.01 257.08,-26.4 260.03,-20.05"/>
</a>
</g>
</g>
<!-- Node9&#45;&gt;Node6 -->
<g id="edge15_Node000009_Node000006" class="edge">
<title>Node9&#45;&gt;Node6</title>
<g id="a_edge15_Node000009_Node000006"><a xlink:title=" ">
<path fill="none" stroke="#63b8ff" d="M408.3,-109.66C393.59,-91.61 359.91,-50.28 341.01,-27.08"/>
<polygon fill="#63b8ff" stroke="#63b8ff" points="343.59,-24.7 334.55,-19.16 338.16,-29.12 343.59,-24.7"/>
</a>
</g>
</g>
<!-- Node9&#45;&gt;Node7 -->
<g id="edge17_Node000009_Node000007" class="edge">
<title>Node9&#45;&gt;Node7</title>
<g id="a_edge17_Node000009_Node000007"><a xlink:title=" ">
<path fill="none" stroke="#63b8ff" d="M414.85,-109.66C413.55,-92.17 410.63,-52.8 408.89,-29.27"/>
<polygon fill="#63b8ff" stroke="#63b8ff" points="412.37,-28.87 408.14,-19.16 405.39,-29.39 412.37,-28.87"/>
</a>
</g>
</g>
<!-- Node9&#45;&gt;Node10 -->
<g id="edge10_Node000009_Node000010" class="edge">
<title>Node9&#45;&gt;Node10</title>
<g id="a_edge10_Node000009_Node000010"><a xlink:title=" ">
<path fill="none" stroke="#63b8ff" d="M482.07,-109.98C540.93,-102.14 629.35,-89.64 715.75,-74.02"/>
<polygon fill="#63b8ff" stroke="#63b8ff" points="716.52,-77.44 725.73,-72.21 715.27,-70.56 716.52,-77.44"/>
</a>
</g>
</g>
<!-- Node11 -->
<g id="Node000011" class="node">
<title>Node11</title>
<g id="a_Node000011"><a xlink:title=" ">
<polygon fill="#e0e0e0" stroke="#999999" points="501.5,-74 443.5,-74 443.5,-55 501.5,-55 501.5,-74"/>
<text text-anchor="middle" x="472.5" y="-62" font-family="Helvetica,sans-Serif" font-size="10.00">QPainter</text>
</a>
</g>
</g>
<!-- Node9&#45;&gt;Node11 -->
<g id="edge11_Node000009_Node000011" class="edge">
<title>Node9&#45;&gt;Node11</title>
<g id="a_edge11_Node000009_Node000011"><a xlink:title=" ">
<path fill="none" stroke="#63b8ff" d="M424.66,-109.98C433,-102.23 445.53,-90.58 455.68,-81.14"/>
<polygon fill="#63b8ff" stroke="#63b8ff" points="458.24,-83.54 463.18,-74.17 453.47,-78.42 458.24,-83.54"/>
</a>
</g>
</g>
<!-- Node12 -->
<g id="Node000012" class="node">
<title>Node12</title>
<g id="a_Node000012"><a xlink:title=" ">
<polygon fill="#e0e0e0" stroke="#999999" points="573,-74 520,-74 520,-55 573,-55 573,-74"/>
<text text-anchor="middle" x="546.5" y="-62" font-family="Helvetica,sans-Serif" font-size="10.00">QTimer</text>
</a>
</g>
</g>
<!-- Node9&#45;&gt;Node12 -->
<g id="edge12_Node000009_Node000012" class="edge">
<title>Node9&#45;&gt;Node12</title>
<g id="a_edge12_Node000009_Node000012"><a xlink:title=" ">
<path fill="none" stroke="#63b8ff" d="M436.55,-109.98C457.91,-101.34 491.2,-87.87 515.56,-78.02"/>
<polygon fill="#63b8ff" stroke="#63b8ff" points="517.11,-81.17 525.07,-74.17 514.49,-74.68 517.11,-81.17"/>
</a>
</g>
</g>
<!-- Node13 -->
<g id="Node000013" class="node">
<title>Node13</title>
<g id="a_Node000013"><a xlink:title=" ">
<polygon fill="#e0e0e0" stroke="#999999" points="707.5,-74 591.5,-74 591.5,-55 707.5,-55 707.5,-74"/>
<text text-anchor="middle" x="649.5" y="-62" font-family="Helvetica,sans-Serif" font-size="10.00">QPropertyAnimation</text>
</a>
</g>
</g>
<!-- Node9&#45;&gt;Node13 -->
<g id="edge13_Node000009_Node000013" class="edge">
<title>Node9&#45;&gt;Node13</title>
<g id="a_edge13_Node000009_Node000013"><a xlink:title=" ">
<path fill="none" stroke="#63b8ff" d="M453.1,-109.98C493.49,-100.84 557.78,-86.27 601.73,-76.32"/>
<polygon fill="#63b8ff" stroke="#63b8ff" points="602.63,-79.7 611.61,-74.08 601.08,-72.88 602.63,-79.7"/>
</a>
</g>
</g>
<!-- Node14 -->
<g id="Node000014" class="node">
<title>Node14</title>
<g id="a_Node000014"><a xlink:title=" ">
<polygon fill="#e0e0e0" stroke="#999999" points="311.5,-74 179.5,-74 179.5,-55 311.5,-55 311.5,-74"/>
<text text-anchor="middle" x="245.5" y="-62" font-family="Helvetica,sans-Serif" font-size="10.00">QGraphicsOpacityEffect</text>
</a>
</g>
</g>
<!-- Node9&#45;&gt;Node14 -->
<g id="edge14_Node000009_Node000014" class="edge">
<title>Node9&#45;&gt;Node14</title>
<g id="a_edge14_Node000009_Node000014"><a xlink:title=" ">
<path fill="none" stroke="#63b8ff" d="M388.19,-109.98C359.65,-101.09 314.67,-87.07 282.86,-77.15"/>
<polygon fill="#63b8ff" stroke="#63b8ff" points="283.62,-73.72 273.03,-74.08 281.53,-80.4 283.62,-73.72"/>
</a>
</g>
</g>
</g>
</svg>
