<?xml version="1.0" encoding="UTF-8" standalone="no"?>
<!DOCTYPE svg PUBLIC "-//W3C//DTD SVG 1.1//EN"
 "http://www.w3.org/Graphics/SVG/1.1/DTD/svg11.dtd">
<!-- Generated by graphviz version 2.43.0 (0)
 -->
<!-- Title: VideoWidget::contrast Pages: 1 -->
<svg width="545pt" height="27pt"
 viewBox="0.00 0.00 545.00 27.00" xmlns="http://www.w3.org/2000/svg" xmlns:xlink="http://www.w3.org/1999/xlink">
<g id="graph0" class="graph" transform="scale(1 1) rotate(0) translate(4 23)">
<title>VideoWidget::contrast</title>
<!-- Node1 -->
<g id="Node000001" class="node">
<title>Node1</title>
<g id="a_Node000001"><a xlink:title="Get current contrast.">
<polygon fill="#999999" stroke="#666666" points="537,-19 412,-19 412,0 537,0 537,-19"/>
<text text-anchor="middle" x="474.5" y="-7" font-family="Helvetica,sans-Serif" font-size="10.00">VideoWidget::contrast</text>
</a>
</g>
</g>
<!-- Node2 -->
<g id="Node000002" class="node">
<title>Node2</title>
<g id="a_Node000002"><a xlink:href="../../df/dbc/classVideoWidget.html#ae2532cb78f4bff3c37f1b8a8ec8648c8" target="_top" xlink:title="Set contrast adjustment (&#45;100 to 100)">
<polygon fill="white" stroke="#666666" points="376,-19 235,-19 235,0 376,0 376,-19"/>
<text text-anchor="middle" x="305.5" y="-7" font-family="Helvetica,sans-Serif" font-size="10.00">VideoWidget::setContrast</text>
</a>
</g>
</g>
<!-- Node1&#45;&gt;Node2 -->
<g id="edge1_Node000001_Node000002" class="edge">
<title>Node1&#45;&gt;Node2</title>
<g id="a_edge1_Node000001_Node000002"><a xlink:title=" ">
<path fill="none" stroke="#63b8ff" d="M401.59,-9.5C393.14,-9.5 384.54,-9.5 376.12,-9.5"/>
<polygon fill="#63b8ff" stroke="#63b8ff" points="401.79,-13 411.79,-9.5 401.79,-6 401.79,-13"/>
</a>
</g>
</g>
<!-- Node3 -->
<g id="Node000003" class="node">
<title>Node3</title>
<g id="a_Node000003"><a xlink:href="../../df/dbc/classVideoWidget.html#a1464faf11fefac7fae77e7aaec07b7ce" target="_top" xlink:title="Reset all video adjustments to default.">
<polygon fill="white" stroke="#666666" points="199,-19 0,-19 0,0 199,0 199,-19"/>
<text text-anchor="middle" x="99.5" y="-7" font-family="Helvetica,sans-Serif" font-size="10.00">VideoWidget::resetVideoAdjustments</text>
</a>
</g>
</g>
<!-- Node2&#45;&gt;Node3 -->
<g id="edge2_Node000002_Node000003" class="edge">
<title>Node2&#45;&gt;Node3</title>
<g id="a_edge2_Node000002_Node000003"><a xlink:title=" ">
<path fill="none" stroke="#63b8ff" d="M224.72,-9.5C216.3,-9.5 207.67,-9.5 199.07,-9.5"/>
<polygon fill="#63b8ff" stroke="#63b8ff" points="224.87,-13 234.87,-9.5 224.87,-6 224.87,-13"/>
</a>
</g>
</g>
</g>
</svg>
