<?xml version="1.0" encoding="UTF-8" standalone="no"?>
<!DOCTYPE svg PUBLIC "-//W3C//DTD SVG 1.1//EN"
 "http://www.w3.org/Graphics/SVG/1.1/DTD/svg11.dtd">
<!-- Generated by graphviz version 2.43.0 (0)
 -->
<!-- Title: VideoWidget::setGamma Pages: 1 -->
<svg width="356pt" height="76pt"
 viewBox="0.00 0.00 356.00 75.50" xmlns="http://www.w3.org/2000/svg" xmlns:xlink="http://www.w3.org/1999/xlink">
<g id="graph0" class="graph" transform="scale(1 1) rotate(0) translate(4 71.5)">
<title>VideoWidget::setGamma</title>
<!-- Node1 -->
<g id="Node000001" class="node">
<title>Node1</title>
<g id="a_Node000001"><a xlink:title="Set gamma adjustment (0.1 to 10.0)">
<polygon fill="#999999" stroke="#666666" points="139,-45.5 0,-45.5 0,-26.5 139,-26.5 139,-45.5"/>
<text text-anchor="middle" x="69.5" y="-33.5" font-family="Helvetica,sans-Serif" font-size="10.00">VideoWidget::setGamma</text>
</a>
</g>
</g>
<!-- Node2 -->
<g id="Node000002" class="node">
<title>Node2</title>
<g id="a_Node000002"><a xlink:href="../../df/dbc/classVideoWidget.html#a28a304019603266c5530cc2a80100d6d" target="_top" xlink:title="Get current gamma.">
<polygon fill="white" stroke="#666666" points="322.5,-67.5 200.5,-67.5 200.5,-48.5 322.5,-48.5 322.5,-67.5"/>
<text text-anchor="middle" x="261.5" y="-55.5" font-family="Helvetica,sans-Serif" font-size="10.00">VideoWidget::gamma</text>
</a>
</g>
</g>
<!-- Node1&#45;&gt;Node2 -->
<g id="edge1_Node000001_Node000002" class="edge">
<title>Node1&#45;&gt;Node2</title>
<g id="a_edge1_Node000001_Node000002"><a xlink:title=" ">
<path fill="none" stroke="#63b8ff" d="M139.09,-43.94C155.73,-45.87 173.54,-47.93 190.25,-49.87"/>
<polygon fill="#63b8ff" stroke="#63b8ff" points="190.16,-53.38 200.5,-51.05 190.97,-46.43 190.16,-53.38"/>
</a>
</g>
</g>
<!-- Node3 -->
<g id="Node000003" class="node">
<title>Node3</title>
<g id="a_Node000003"><a xlink:href="../../df/dbc/classVideoWidget.html#af63a2ee0f85d44eccaad6871dbb0e4bf" target="_top" xlink:title="Emitted when video adjustments change.">
<polygon fill="white" stroke="#666666" points="348,-30 175,-30 175,0 348,0 348,-30"/>
<text text-anchor="start" x="183" y="-18" font-family="Helvetica,sans-Serif" font-size="10.00">VideoWidget::videoAdjustments</text>
<text text-anchor="middle" x="261.5" y="-7" font-family="Helvetica,sans-Serif" font-size="10.00">Changed</text>
</a>
</g>
</g>
<!-- Node1&#45;&gt;Node3 -->
<g id="edge2_Node000001_Node000003" class="edge">
<title>Node1&#45;&gt;Node3</title>
<g id="a_edge2_Node000001_Node000003"><a xlink:title=" ">
<path fill="none" stroke="#63b8ff" d="M139.09,-28.42C147.42,-27.5 156.04,-26.55 164.67,-25.59"/>
<polygon fill="#63b8ff" stroke="#63b8ff" points="165.24,-29.05 174.79,-24.47 164.47,-22.09 165.24,-29.05"/>
</a>
</g>
</g>
</g>
</svg>
