<?xml version="1.0" encoding="UTF-8" standalone="no"?>
<!DOCTYPE svg PUBLIC "-//W3C//DTD SVG 1.1//EN"
 "http://www.w3.org/Graphics/SVG/1.1/DTD/svg11.dtd">
<!-- Generated by graphviz version 2.43.0 (0)
 -->
<!-- Title: VideoWidget::toggleFullscreen Pages: 1 -->
<svg width="570pt" height="27pt"
 viewBox="0.00 0.00 570.00 27.00" xmlns="http://www.w3.org/2000/svg" xmlns:xlink="http://www.w3.org/1999/xlink">
<g id="graph0" class="graph" transform="scale(1 1) rotate(0) translate(4 23)">
<title>VideoWidget::toggleFullscreen</title>
<!-- Node1 -->
<g id="Node000001" class="node">
<title>Node1</title>
<g id="a_Node000001"><a xlink:title="Toggle fullscreen mode.">
<polygon fill="#999999" stroke="#666666" points="165,-19 0,-19 0,0 165,0 165,-19"/>
<text text-anchor="middle" x="82.5" y="-7" font-family="Helvetica,sans-Serif" font-size="10.00">VideoWidget::toggleFullscreen</text>
</a>
</g>
</g>
<!-- Node2 -->
<g id="Node000002" class="node">
<title>Node2</title>
<g id="a_Node000002"><a xlink:href="../../df/dbc/classVideoWidget.html#a6952570486065662b9d65e146e85b466" target="_top" xlink:title="Enter or exit fullscreen mode.">
<polygon fill="white" stroke="#666666" points="350,-19 201,-19 201,0 350,0 350,-19"/>
<text text-anchor="middle" x="275.5" y="-7" font-family="Helvetica,sans-Serif" font-size="10.00">VideoWidget::setFullscreen</text>
</a>
</g>
</g>
<!-- Node1&#45;&gt;Node2 -->
<g id="edge1_Node000001_Node000002" class="edge">
<title>Node1&#45;&gt;Node2</title>
<g id="a_edge1_Node000001_Node000002"><a xlink:title=" ">
<path fill="none" stroke="#63b8ff" d="M165.06,-9.5C173.49,-9.5 182.07,-9.5 190.53,-9.5"/>
<polygon fill="#63b8ff" stroke="#63b8ff" points="190.77,-13 200.77,-9.5 190.77,-6 190.77,-13"/>
</a>
</g>
</g>
<!-- Node3 -->
<g id="Node000003" class="node">
<title>Node3</title>
<g id="a_Node000003"><a xlink:href="../../df/dbc/classVideoWidget.html#aef75034146d02688079238c07885e975" target="_top" xlink:title="Emitted when fullscreen mode changes.">
<polygon fill="white" stroke="#666666" points="562,-19 386,-19 386,0 562,0 562,-19"/>
<text text-anchor="middle" x="474" y="-7" font-family="Helvetica,sans-Serif" font-size="10.00">VideoWidget::fullscreenChanged</text>
</a>
</g>
</g>
<!-- Node2&#45;&gt;Node3 -->
<g id="edge2_Node000002_Node000003" class="edge">
<title>Node2&#45;&gt;Node3</title>
<g id="a_edge2_Node000002_Node000003"><a xlink:title=" ">
<path fill="none" stroke="#63b8ff" d="M350.23,-9.5C358.6,-9.5 367.23,-9.5 375.85,-9.5"/>
<polygon fill="#63b8ff" stroke="#63b8ff" points="375.95,-13 385.95,-9.5 375.95,-6 375.95,-13"/>
</a>
</g>
</g>
</g>
</svg>
