<?xml version="1.0" encoding="UTF-8" standalone="no"?>
<!DOCTYPE svg PUBLIC "-//W3C//DTD SVG 1.1//EN"
 "http://www.w3.org/Graphics/SVG/1.1/DTD/svg11.dtd">
<!-- Generated by graphviz version 2.43.0 (0)
 -->
<!-- Title: VideoWidget::setAspectRatio Pages: 1 -->
<svg width="345pt" height="76pt"
 viewBox="0.00 0.00 345.00 75.50" xmlns="http://www.w3.org/2000/svg" xmlns:xlink="http://www.w3.org/1999/xlink">
<g id="graph0" class="graph" transform="scale(1 1) rotate(0) translate(4 71.5)">
<title>VideoWidget::setAspectRatio</title>
<!-- Node1 -->
<g id="Node000001" class="node">
<title>Node1</title>
<g id="a_Node000001"><a xlink:title="Set video aspect ratio mode.">
<polygon fill="#999999" stroke="#666666" points="158,-45.5 0,-45.5 0,-26.5 158,-26.5 158,-45.5"/>
<text text-anchor="middle" x="79" y="-33.5" font-family="Helvetica,sans-Serif" font-size="10.00">VideoWidget::setAspectRatio</text>
</a>
</g>
</g>
<!-- Node2 -->
<g id="Node000002" class="node">
<title>Node2</title>
<g id="a_Node000002"><a xlink:href="../../df/dbc/classVideoWidget.html#ad407baa354b1f0fb077b8bd19ee2fe39" target="_top" xlink:title="Get current aspect ratio.">
<polygon fill="white" stroke="#666666" points="337,-67.5 194,-67.5 194,-48.5 337,-48.5 337,-67.5"/>
<text text-anchor="middle" x="265.5" y="-55.5" font-family="Helvetica,sans-Serif" font-size="10.00">VideoWidget::aspectRatio</text>
</a>
</g>
</g>
<!-- Node1&#45;&gt;Node2 -->
<g id="edge1_Node000001_Node000002" class="edge">
<title>Node1&#45;&gt;Node2</title>
<g id="a_edge1_Node000001_Node000002"><a xlink:title=" ">
<path fill="none" stroke="#63b8ff" d="M158.24,-45.33C166.62,-46.33 175.16,-47.35 183.57,-48.35"/>
<polygon fill="#63b8ff" stroke="#63b8ff" points="183.4,-51.85 193.74,-49.56 184.23,-44.9 183.4,-51.85"/>
</a>
</g>
</g>
<!-- Node3 -->
<g id="Node000003" class="node">
<title>Node3</title>
<g id="a_Node000003"><a xlink:href="../../df/dbc/classVideoWidget.html#ac2684fee16735c784839629fe81baada" target="_top" xlink:title="Emitted when aspect ratio changes.">
<polygon fill="white" stroke="#666666" points="337,-30 194,-30 194,0 337,0 337,-30"/>
<text text-anchor="start" x="202" y="-18" font-family="Helvetica,sans-Serif" font-size="10.00">VideoWidget::aspectRatio</text>
<text text-anchor="middle" x="265.5" y="-7" font-family="Helvetica,sans-Serif" font-size="10.00">Changed</text>
</a>
</g>
</g>
<!-- Node1&#45;&gt;Node3 -->
<g id="edge2_Node000001_Node000003" class="edge">
<title>Node1&#45;&gt;Node3</title>
<g id="a_edge2_Node000001_Node000003"><a xlink:title=" ">
<path fill="none" stroke="#63b8ff" d="M158.24,-27.09C166.62,-26.14 175.16,-25.17 183.57,-24.21"/>
<polygon fill="#63b8ff" stroke="#63b8ff" points="184.2,-27.66 193.74,-23.05 183.41,-20.71 184.2,-27.66"/>
</a>
</g>
</g>
</g>
</svg>
