<?xml version="1.0" encoding="UTF-8" standalone="no"?>
<!DOCTYPE svg PUBLIC "-//W3C//DTD SVG 1.1//EN"
 "http://www.w3.org/Graphics/SVG/1.1/DTD/svg11.dtd">
<!-- Generated by graphviz version 2.43.0 (0)
 -->
<!-- Title: VideoWidget::keyPressEvent Pages: 1 -->
<svg width="779pt" height="83pt"
 viewBox="0.00 0.00 779.00 83.00" xmlns="http://www.w3.org/2000/svg" xmlns:xlink="http://www.w3.org/1999/xlink">
<g id="graph0" class="graph" transform="scale(1 1) rotate(0) translate(4 79)">
<title>VideoWidget::keyPressEvent</title>
<!-- Node1 -->
<g id="Node000001" class="node">
<title>Node1</title>
<g id="a_Node000001"><a xlink:title="Handle key press events.">
<polygon fill="#999999" stroke="#666666" points="156,-56 0,-56 0,-37 156,-37 156,-56"/>
<text text-anchor="middle" x="78" y="-44" font-family="Helvetica,sans-Serif" font-size="10.00">VideoWidget::keyPressEvent</text>
</a>
</g>
</g>
<!-- Node2 -->
<g id="Node000002" class="node">
<title>Node2</title>
<g id="a_Node000002"><a xlink:href="../../df/dbc/classVideoWidget.html#a6952570486065662b9d65e146e85b466" target="_top" xlink:title="Enter or exit fullscreen mode.">
<polygon fill="white" stroke="#666666" points="550.5,-75 401.5,-75 401.5,-56 550.5,-56 550.5,-75"/>
<text text-anchor="middle" x="476" y="-63" font-family="Helvetica,sans-Serif" font-size="10.00">VideoWidget::setFullscreen</text>
</a>
</g>
</g>
<!-- Node1&#45;&gt;Node2 -->
<g id="edge1_Node000001_Node000002" class="edge">
<title>Node1&#45;&gt;Node2</title>
<g id="a_edge1_Node000001_Node000002"><a xlink:title=" ">
<path fill="none" stroke="#63b8ff" d="M124.96,-56.01C145.39,-59.78 169.8,-63.65 192,-65.5 258.72,-71.07 334.6,-70.71 390.98,-69.16"/>
<polygon fill="#63b8ff" stroke="#63b8ff" points="391.38,-72.65 401.27,-68.85 391.17,-65.65 391.38,-72.65"/>
</a>
</g>
</g>
<!-- Node4 -->
<g id="Node000004" class="node">
<title>Node4</title>
<g id="a_Node000004"><a xlink:href="../../df/dbc/classVideoWidget.html#ac259838d66fe0bd03dcc3d4462323e00" target="_top" xlink:title="Take a screenshot of current video frame.">
<polygon fill="white" stroke="#666666" points="354.5,-19 194.5,-19 194.5,0 354.5,0 354.5,-19"/>
<text text-anchor="middle" x="274.5" y="-7" font-family="Helvetica,sans-Serif" font-size="10.00">VideoWidget::takeScreenshot</text>
</a>
</g>
</g>
<!-- Node1&#45;&gt;Node4 -->
<g id="edge3_Node000001_Node000004" class="edge">
<title>Node1&#45;&gt;Node4</title>
<g id="a_edge3_Node000001_Node000004"><a xlink:title=" ">
<path fill="none" stroke="#63b8ff" d="M129.09,-36.97C154.74,-32.09 186.16,-26.11 213.14,-20.98"/>
<polygon fill="#63b8ff" stroke="#63b8ff" points="214.07,-24.37 223.24,-19.06 212.77,-17.49 214.07,-24.37"/>
</a>
</g>
</g>
<!-- Node6 -->
<g id="Node000006" class="node">
<title>Node6</title>
<g id="a_Node000006"><a xlink:href="../../df/dbc/classVideoWidget.html#addf7f275d3651648118da94dc1f6b711" target="_top" xlink:title="Toggle fullscreen mode.">
<polygon fill="white" stroke="#666666" points="357,-56 192,-56 192,-37 357,-37 357,-56"/>
<text text-anchor="middle" x="274.5" y="-44" font-family="Helvetica,sans-Serif" font-size="10.00">VideoWidget::toggleFullscreen</text>
</a>
</g>
</g>
<!-- Node1&#45;&gt;Node6 -->
<g id="edge5_Node000001_Node000006" class="edge">
<title>Node1&#45;&gt;Node6</title>
<g id="a_edge5_Node000001_Node000006"><a xlink:title=" ">
<path fill="none" stroke="#63b8ff" d="M156.15,-46.5C164.61,-46.5 173.29,-46.5 181.9,-46.5"/>
<polygon fill="#63b8ff" stroke="#63b8ff" points="181.97,-50 191.97,-46.5 181.97,-43 181.97,-50"/>
</a>
</g>
</g>
<!-- Node3 -->
<g id="Node000003" class="node">
<title>Node3</title>
<g id="a_Node000003"><a xlink:href="../../df/dbc/classVideoWidget.html#aef75034146d02688079238c07885e975" target="_top" xlink:title="Emitted when fullscreen mode changes.">
<polygon fill="white" stroke="#666666" points="771,-75 595,-75 595,-56 771,-56 771,-75"/>
<text text-anchor="middle" x="683" y="-63" font-family="Helvetica,sans-Serif" font-size="10.00">VideoWidget::fullscreenChanged</text>
</a>
</g>
</g>
<!-- Node2&#45;&gt;Node3 -->
<g id="edge2_Node000002_Node000003" class="edge">
<title>Node2&#45;&gt;Node3</title>
<g id="a_edge2_Node000002_Node000003"><a xlink:title=" ">
<path fill="none" stroke="#63b8ff" d="M550.72,-65.5C561.82,-65.5 573.41,-65.5 584.9,-65.5"/>
<polygon fill="#63b8ff" stroke="#63b8ff" points="584.97,-69 594.97,-65.5 584.97,-62 584.97,-69"/>
</a>
</g>
</g>
<!-- Node5 -->
<g id="Node000005" class="node">
<title>Node5</title>
<g id="a_Node000005"><a xlink:href="../../df/dbc/classVideoWidget.html#a76ac55975eddb3adacebd78549474ec6" target="_top" xlink:title="Emitted when screenshot is taken.">
<polygon fill="white" stroke="#666666" points="559,-19 393,-19 393,0 559,0 559,-19"/>
<text text-anchor="middle" x="476" y="-7" font-family="Helvetica,sans-Serif" font-size="10.00">VideoWidget::screenshotTaken</text>
</a>
</g>
</g>
<!-- Node4&#45;&gt;Node5 -->
<g id="edge4_Node000004_Node000005" class="edge">
<title>Node4&#45;&gt;Node5</title>
<g id="a_edge4_Node000004_Node000005"><a xlink:title=" ">
<path fill="none" stroke="#63b8ff" d="M354.63,-9.5C363.82,-9.5 373.25,-9.5 382.6,-9.5"/>
<polygon fill="#63b8ff" stroke="#63b8ff" points="382.69,-13 392.69,-9.5 382.69,-6 382.69,-13"/>
</a>
</g>
</g>
<!-- Node6&#45;&gt;Node2 -->
<g id="edge6_Node000006_Node000002" class="edge">
<title>Node6&#45;&gt;Node2</title>
<g id="a_edge6_Node000006_Node000002"><a xlink:title=" ">
<path fill="none" stroke="#63b8ff" d="M357.22,-54.28C368.42,-55.35 379.94,-56.45 391.18,-57.52"/>
<polygon fill="#63b8ff" stroke="#63b8ff" points="391.13,-61.03 401.41,-58.49 391.79,-54.06 391.13,-61.03"/>
</a>
</g>
</g>
</g>
</svg>
