<?xml version="1.0" encoding="UTF-8" standalone="no"?>
<!DOCTYPE svg PUBLIC "-//W3C//DTD SVG 1.1//EN"
 "http://www.w3.org/Graphics/SVG/1.1/DTD/svg11.dtd">
<!-- Generated by graphviz version 2.43.0 (0)
 -->
<!-- Title: VideoWidget::setFullscreen Pages: 1 -->
<svg width="550pt" height="76pt"
 viewBox="0.00 0.00 550.00 75.50" xmlns="http://www.w3.org/2000/svg" xmlns:xlink="http://www.w3.org/1999/xlink">
<g id="graph0" class="graph" transform="scale(1 1) rotate(0) translate(4 71.5)">
<title>VideoWidget::setFullscreen</title>
<!-- Node1 -->
<g id="Node000001" class="node">
<title>Node1</title>
<g id="a_Node000001"><a xlink:title="Enter or exit fullscreen mode.">
<polygon fill="#999999" stroke="#666666" points="542,-48.5 393,-48.5 393,-29.5 542,-29.5 542,-48.5"/>
<text text-anchor="middle" x="467.5" y="-36.5" font-family="Helvetica,sans-Serif" font-size="10.00">VideoWidget::setFullscreen</text>
</a>
</g>
</g>
<!-- Node2 -->
<g id="Node000002" class="node">
<title>Node2</title>
<g id="a_Node000002"><a xlink:href="../../df/dbc/classVideoWidget.html#a3efa34386c146603fd2785409eab9d0f" target="_top" xlink:title="Handle key press events.">
<polygon fill="white" stroke="#666666" points="156,-67.5 0,-67.5 0,-48.5 156,-48.5 156,-67.5"/>
<text text-anchor="middle" x="78" y="-55.5" font-family="Helvetica,sans-Serif" font-size="10.00">VideoWidget::keyPressEvent</text>
</a>
</g>
</g>
<!-- Node1&#45;&gt;Node2 -->
<g id="edge1_Node000001_Node000002" class="edge">
<title>Node1&#45;&gt;Node2</title>
<g id="a_edge1_Node000001_Node000002"><a xlink:title=" ">
<path fill="none" stroke="#63b8ff" d="M382.56,-43.12C315.27,-46.42 221.6,-51.01 156.17,-54.22"/>
<polygon fill="#63b8ff" stroke="#63b8ff" points="382.89,-46.6 392.7,-42.62 382.54,-39.61 382.89,-46.6"/>
</a>
</g>
</g>
<!-- Node3 -->
<g id="Node000003" class="node">
<title>Node3</title>
<g id="a_Node000003"><a xlink:href="../../df/dbc/classVideoWidget.html#addf7f275d3651648118da94dc1f6b711" target="_top" xlink:title="Toggle fullscreen mode.">
<polygon fill="white" stroke="#666666" points="357,-29.5 192,-29.5 192,-10.5 357,-10.5 357,-29.5"/>
<text text-anchor="middle" x="274.5" y="-17.5" font-family="Helvetica,sans-Serif" font-size="10.00">VideoWidget::toggleFullscreen</text>
</a>
</g>
</g>
<!-- Node1&#45;&gt;Node3 -->
<g id="edge2_Node000001_Node000003" class="edge">
<title>Node1&#45;&gt;Node3</title>
<g id="a_edge2_Node000001_Node000003"><a xlink:title=" ">
<path fill="none" stroke="#63b8ff" d="M382.71,-30.67C374.28,-29.83 365.71,-28.97 357.3,-28.14"/>
<polygon fill="#63b8ff" stroke="#63b8ff" points="382.63,-34.17 392.93,-31.68 383.32,-27.21 382.63,-34.17"/>
</a>
</g>
</g>
<!-- Node3&#45;&gt;Node2 -->
<g id="edge3_Node000003_Node000002" class="edge">
<title>Node3&#45;&gt;Node2</title>
<g id="a_edge3_Node000003_Node000002"><a xlink:title=" ">
<path fill="none" stroke="#63b8ff" d="M214.69,-31.49C186.94,-36.91 154.21,-43.31 127.85,-48.46"/>
<polygon fill="#63b8ff" stroke="#63b8ff" points="215.53,-34.89 224.67,-29.54 214.18,-28.02 215.53,-34.89"/>
</a>
</g>
</g>
<!-- Node4 -->
<g id="Node000004" class="node">
<title>Node4</title>
<g id="a_Node000004"><a xlink:href="../../df/dbc/classVideoWidget.html#aff7ceebcce6eacc04cfbed16cb417158" target="_top" xlink:title="Handle mouse double&#45;click events.">
<polygon fill="white" stroke="#666666" points="154,-30 2,-30 2,0 154,0 154,-30"/>
<text text-anchor="start" x="10" y="-18" font-family="Helvetica,sans-Serif" font-size="10.00">VideoWidget::mouseDouble</text>
<text text-anchor="middle" x="78" y="-7" font-family="Helvetica,sans-Serif" font-size="10.00">ClickEvent</text>
</a>
</g>
</g>
<!-- Node3&#45;&gt;Node4 -->
<g id="edge4_Node000003_Node000004" class="edge">
<title>Node3&#45;&gt;Node4</title>
<g id="a_edge4_Node000003_Node000004"><a xlink:title=" ">
<path fill="none" stroke="#63b8ff" d="M181.86,-17.64C172.61,-17.41 163.28,-17.17 154.23,-16.93"/>
<polygon fill="#63b8ff" stroke="#63b8ff" points="181.77,-21.14 191.86,-17.9 181.95,-14.15 181.77,-21.14"/>
</a>
</g>
</g>
</g>
</svg>
