<?xml version="1.0" encoding="UTF-8" standalone="no"?>
<!DOCTYPE svg PUBLIC "-//W3C//DTD SVG 1.1//EN"
 "http://www.w3.org/Graphics/SVG/1.1/DTD/svg11.dtd">
<!-- Generated by graphviz version 2.43.0 (0)
 -->
<!-- Title: AudioProcessor::setEnabled Pages: 1 -->
<svg width="375pt" height="64pt"
 viewBox="0.00 0.00 375.00 64.00" xmlns="http://www.w3.org/2000/svg" xmlns:xlink="http://www.w3.org/1999/xlink">
<g id="graph0" class="graph" transform="scale(1 1) rotate(0) translate(4 60)">
<title>AudioProcessor::setEnabled</title>
<!-- Node1 -->
<g id="Node000001" class="node">
<title>Node1</title>
<g id="a_Node000001"><a xlink:title="Enable or disable the processor.">
<polygon fill="#999999" stroke="#666666" points="152,-37 0,-37 0,-18 152,-18 152,-37"/>
<text text-anchor="middle" x="76" y="-25" font-family="Helvetica,sans-Serif" font-size="10.00">AudioProcessor::setEnabled</text>
</a>
</g>
</g>
<!-- Node2 -->
<g id="Node000002" class="node">
<title>Node2</title>
<g id="a_Node000002"><a xlink:href="../../d5/db2/classAudioProcessor.html#a20a681418e1acc1b785832101c4e29b5" target="_top" xlink:title="Emitted when processor is enabled/disabled.">
<polygon fill="white" stroke="#666666" points="367,-56 188,-56 188,-37 367,-37 367,-56"/>
<text text-anchor="middle" x="277.5" y="-44" font-family="Helvetica,sans-Serif" font-size="10.00">AudioProcessor::enabledChanged</text>
</a>
</g>
</g>
<!-- Node1&#45;&gt;Node2 -->
<g id="edge1_Node000001_Node000002" class="edge">
<title>Node1&#45;&gt;Node2</title>
<g id="a_edge1_Node000001_Node000002"><a xlink:title=" ">
<path fill="none" stroke="#63b8ff" d="M152.14,-34.66C160.47,-35.45 169.05,-36.27 177.63,-37.08"/>
<polygon fill="#63b8ff" stroke="#63b8ff" points="177.38,-40.58 187.67,-38.04 178.05,-33.61 177.38,-40.58"/>
</a>
</g>
</g>
<!-- Node3 -->
<g id="Node000003" class="node">
<title>Node3</title>
<g id="a_Node000003"><a xlink:href="../../d5/db2/classAudioProcessor.html#a850087f7f22643e23d2d3844b1872022" target="_top" xlink:title="Check if lyrics are available.">
<polygon fill="white" stroke="#666666" points="349,-19 206,-19 206,0 349,0 349,-19"/>
<text text-anchor="middle" x="277.5" y="-7" font-family="Helvetica,sans-Serif" font-size="10.00">AudioProcessor::hasLyrics</text>
</a>
</g>
</g>
<!-- Node1&#45;&gt;Node3 -->
<g id="edge2_Node000001_Node000003" class="edge">
<title>Node1&#45;&gt;Node3</title>
<g id="a_edge2_Node000001_Node000003"><a xlink:title=" ">
<path fill="none" stroke="#63b8ff" d="M152.14,-20.72C166.27,-19.45 181.11,-18.11 195.41,-16.82"/>
<polygon fill="#63b8ff" stroke="#63b8ff" points="196.07,-20.27 205.71,-15.89 195.44,-13.3 196.07,-20.27"/>
</a>
</g>
</g>
</g>
</svg>
