<?xml version="1.0" encoding="UTF-8" standalone="no"?>
<!DOCTYPE svg PUBLIC "-//W3C//DTD SVG 1.1//EN"
 "http://www.w3.org/Graphics/SVG/1.1/DTD/svg11.dtd">
<!-- Generated by graphviz version 2.43.0 (0)
 -->
<!-- Title: AudioProcessor::lyricsLoaded Pages: 1 -->
<svg width="349pt" height="86pt"
 viewBox="0.00 0.00 349.00 86.00" xmlns="http://www.w3.org/2000/svg" xmlns:xlink="http://www.w3.org/1999/xlink">
<g id="graph0" class="graph" transform="scale(1 1) rotate(0) translate(4 82)">
<title>AudioProcessor::lyricsLoaded</title>
<!-- Node1 -->
<g id="Node000001" class="node">
<title>Node1</title>
<g id="a_Node000001"><a xlink:title="Emitted when lyrics are loaded.">
<polygon fill="#999999" stroke="#666666" points="341,-48.5 182,-48.5 182,-29.5 341,-29.5 341,-48.5"/>
<text text-anchor="middle" x="261.5" y="-36.5" font-family="Helvetica,sans-Serif" font-size="10.00">AudioProcessor::lyricsLoaded</text>
</a>
</g>
</g>
<!-- Node2 -->
<g id="Node000002" class="node">
<title>Node2</title>
<g id="a_Node000002"><a xlink:href="../../d5/da7/classAudioProcessorWidget.html#af02c20348db98edb4582faa930a3f0d7" target="_top" xlink:title="Initialize the widget with audio processor.">
<polygon fill="white" stroke="#666666" points="136,-78 10,-78 10,-48 136,-48 136,-78"/>
<text text-anchor="start" x="18" y="-66" font-family="Helvetica,sans-Serif" font-size="10.00">AudioProcessorWidget</text>
<text text-anchor="middle" x="73" y="-55" font-family="Helvetica,sans-Serif" font-size="10.00">::initialize</text>
</a>
</g>
</g>
<!-- Node1&#45;&gt;Node2 -->
<g id="edge1_Node000001_Node000002" class="edge">
<title>Node1&#45;&gt;Node2</title>
<g id="a_edge1_Node000001_Node000002"><a xlink:title=" ">
<path fill="none" stroke="#63b8ff" d="M176.27,-49.84C162.78,-51.58 149.03,-53.34 136.17,-55"/>
<polygon fill="#63b8ff" stroke="#63b8ff" points="177.05,-53.27 186.52,-48.52 176.16,-46.32 177.05,-53.27"/>
</a>
</g>
</g>
<!-- Node3 -->
<g id="Node000003" class="node">
<title>Node3</title>
<g id="a_Node000003"><a xlink:href="../../d5/db2/classAudioProcessor.html#a5e06d8154d73b9690f3714bd63f84c29" target="_top" xlink:title="Load lyrics from file.">
<polygon fill="white" stroke="#666666" points="146,-30 0,-30 0,0 146,0 146,-30"/>
<text text-anchor="start" x="8" y="-18" font-family="Helvetica,sans-Serif" font-size="10.00">AudioProcessor::loadLyrics</text>
<text text-anchor="middle" x="73" y="-7" font-family="Helvetica,sans-Serif" font-size="10.00">FromFile</text>
</a>
</g>
</g>
<!-- Node1&#45;&gt;Node3 -->
<g id="edge2_Node000001_Node000003" class="edge">
<title>Node1&#45;&gt;Node3</title>
<g id="a_edge2_Node000001_Node000003"><a xlink:title=" ">
<path fill="none" stroke="#63b8ff" d="M176.45,-28.18C166.3,-26.88 156.01,-25.55 146.06,-24.27"/>
<polygon fill="#63b8ff" stroke="#63b8ff" points="176.16,-31.68 186.52,-29.48 177.05,-24.73 176.16,-31.68"/>
</a>
</g>
</g>
</g>
</svg>
