<?xml version="1.0" encoding="UTF-8" standalone="no"?>
<!DOCTYPE svg PUBLIC "-//W3C//DTD SVG 1.1//EN"
 "http://www.w3.org/Graphics/SVG/1.1/DTD/svg11.dtd">
<!-- Generated by graphviz version 2.43.0 (0)
 -->
<!-- Title: AudioProcessor::enabledChanged Pages: 1 -->
<svg width="773pt" height="76pt"
 viewBox="0.00 0.00 773.00 75.50" xmlns="http://www.w3.org/2000/svg" xmlns:xlink="http://www.w3.org/1999/xlink">
<g id="graph0" class="graph" transform="scale(1 1) rotate(0) translate(4 71.5)">
<title>AudioProcessor::enabledChanged</title>
<!-- Node1 -->
<g id="Node000001" class="node">
<title>Node1</title>
<g id="a_Node000001"><a xlink:title="Emitted when processor is enabled/disabled.">
<polygon fill="#999999" stroke="#666666" points="765,-40 586,-40 586,-21 765,-21 765,-40"/>
<text text-anchor="middle" x="675.5" y="-28" font-family="Helvetica,sans-Serif" font-size="10.00">AudioProcessor::enabledChanged</text>
</a>
</g>
</g>
<!-- Node2 -->
<g id="Node000002" class="node">
<title>Node2</title>
<g id="a_Node000002"><a xlink:href="../../d5/da7/classAudioProcessorWidget.html#af02c20348db98edb4582faa930a3f0d7" target="_top" xlink:title="Initialize the widget with audio processor.">
<polygon fill="white" stroke="#666666" points="537,-67.5 411,-67.5 411,-37.5 537,-37.5 537,-67.5"/>
<text text-anchor="start" x="419" y="-55.5" font-family="Helvetica,sans-Serif" font-size="10.00">AudioProcessorWidget</text>
<text text-anchor="middle" x="474" y="-44.5" font-family="Helvetica,sans-Serif" font-size="10.00">::initialize</text>
</a>
</g>
</g>
<!-- Node1&#45;&gt;Node2 -->
<g id="edge1_Node000001_Node000002" class="edge">
<title>Node1&#45;&gt;Node2</title>
<g id="a_edge1_Node000001_Node000002"><a xlink:title=" ">
<path fill="none" stroke="#63b8ff" d="M578.05,-41.14C564.13,-42.67 550.13,-44.21 537.13,-45.65"/>
<polygon fill="#63b8ff" stroke="#63b8ff" points="578.6,-44.6 588.16,-40.02 577.83,-37.64 578.6,-44.6"/>
</a>
</g>
</g>
<!-- Node3 -->
<g id="Node000003" class="node">
<title>Node3</title>
<g id="a_Node000003"><a xlink:href="../../d5/db2/classAudioProcessor.html#a048285306d118b2a2b57b8b66095ad4f" target="_top" xlink:title="Enable or disable the processor.">
<polygon fill="white" stroke="#666666" points="550,-19 398,-19 398,0 550,0 550,-19"/>
<text text-anchor="middle" x="474" y="-7" font-family="Helvetica,sans-Serif" font-size="10.00">AudioProcessor::setEnabled</text>
</a>
</g>
</g>
<!-- Node1&#45;&gt;Node3 -->
<g id="edge2_Node000001_Node000003" class="edge">
<title>Node1&#45;&gt;Node3</title>
<g id="a_edge2_Node000001_Node000003"><a xlink:title=" ">
<path fill="none" stroke="#63b8ff" d="M575.79,-20.11C567.22,-19.21 558.63,-18.3 550.29,-17.43"/>
<polygon fill="#63b8ff" stroke="#63b8ff" points="575.52,-23.6 585.83,-21.17 576.26,-16.64 575.52,-23.6"/>
</a>
</g>
</g>
<!-- Node4 -->
<g id="Node000004" class="node">
<title>Node4</title>
<g id="a_Node000004"><a xlink:href="../../d5/db2/classAudioProcessor.html#a3e9c3f2e0397567e0c9dd7c92b08959a" target="_top" xlink:title="Shutdown the processor.">
<polygon fill="white" stroke="#666666" points="362,-19 217,-19 217,0 362,0 362,-19"/>
<text text-anchor="middle" x="289.5" y="-7" font-family="Helvetica,sans-Serif" font-size="10.00">AudioProcessor::shutdown</text>
</a>
</g>
</g>
<!-- Node3&#45;&gt;Node4 -->
<g id="edge3_Node000003_Node000004" class="edge">
<title>Node3&#45;&gt;Node4</title>
<g id="a_edge3_Node000003_Node000004"><a xlink:title=" ">
<path fill="none" stroke="#63b8ff" d="M387.96,-9.5C379.37,-9.5 370.71,-9.5 362.29,-9.5"/>
<polygon fill="#63b8ff" stroke="#63b8ff" points="387.98,-13 397.98,-9.5 387.98,-6 387.98,-13"/>
</a>
</g>
</g>
<!-- Node5 -->
<g id="Node000005" class="node">
<title>Node5</title>
<g id="a_Node000005"><a xlink:href="../../d5/db2/classAudioProcessor.html#a3dc5c4f668cd04d4b43631ebaae0f150" target="_top" xlink:title=" ">
<polygon fill="white" stroke="#666666" points="181,-19 0,-19 0,0 181,0 181,-19"/>
<text text-anchor="middle" x="90.5" y="-7" font-family="Helvetica,sans-Serif" font-size="10.00">AudioProcessor::~AudioProcessor</text>
</a>
</g>
</g>
<!-- Node4&#45;&gt;Node5 -->
<g id="edge4_Node000004_Node000005" class="edge">
<title>Node4&#45;&gt;Node5</title>
<g id="a_edge4_Node000004_Node000005"><a xlink:title=" ">
<path fill="none" stroke="#63b8ff" d="M206.69,-9.5C198.3,-9.5 189.74,-9.5 181.27,-9.5"/>
<polygon fill="#63b8ff" stroke="#63b8ff" points="206.82,-13 216.82,-9.5 206.82,-6 206.82,-13"/>
</a>
</g>
</g>
</g>
</svg>
