<?xml version="1.0" encoding="UTF-8" standalone="no"?>
<!DOCTYPE svg PUBLIC "-//W3C//DTD SVG 1.1//EN"
 "http://www.w3.org/Graphics/SVG/1.1/DTD/svg11.dtd">
<!-- Generated by graphviz version 2.43.0 (0)
 -->
<!-- Title: AudioProcessor::setKaraokeMode Pages: 1 -->
<svg width="386pt" height="86pt"
 viewBox="0.00 0.00 386.00 86.00" xmlns="http://www.w3.org/2000/svg" xmlns:xlink="http://www.w3.org/1999/xlink">
<g id="graph0" class="graph" transform="scale(1 1) rotate(0) translate(4 82)">
<title>AudioProcessor::setKaraokeMode</title>
<!-- Node1 -->
<g id="Node000001" class="node">
<title>Node1</title>
<g id="a_Node000001"><a xlink:title="Set karaoke mode.">
<polygon fill="#999999" stroke="#666666" points="179,-48.5 0,-48.5 0,-29.5 179,-29.5 179,-48.5"/>
<text text-anchor="middle" x="89.5" y="-36.5" font-family="Helvetica,sans-Serif" font-size="10.00">AudioProcessor::setKaraokeMode</text>
</a>
</g>
</g>
<!-- Node2 -->
<g id="Node000002" class="node">
<title>Node2</title>
<g id="a_Node000002"><a xlink:href="../../d5/db2/classAudioProcessor.html#a957983218f0222b0bd15c45f5a6ca3c7" target="_top" xlink:title="Get karaoke mode name.">
<polygon fill="white" stroke="#666666" points="373,-78 220,-78 220,-48 373,-48 373,-78"/>
<text text-anchor="start" x="228" y="-66" font-family="Helvetica,sans-Serif" font-size="10.00">AudioProcessor::getKaraoke</text>
<text text-anchor="middle" x="296.5" y="-55" font-family="Helvetica,sans-Serif" font-size="10.00">ModeName</text>
</a>
</g>
</g>
<!-- Node1&#45;&gt;Node2 -->
<g id="edge1_Node000001_Node000002" class="edge">
<title>Node1&#45;&gt;Node2</title>
<g id="a_edge1_Node000001_Node000002"><a xlink:title=" ">
<path fill="none" stroke="#63b8ff" d="M171.82,-48.52C184.34,-49.99 197.31,-51.5 209.92,-52.98"/>
<polygon fill="#63b8ff" stroke="#63b8ff" points="209.61,-56.47 219.95,-54.16 210.42,-49.52 209.61,-56.47"/>
</a>
</g>
</g>
<!-- Node3 -->
<g id="Node000003" class="node">
<title>Node3</title>
<g id="a_Node000003"><a xlink:href="../../d5/db2/classAudioProcessor.html#a1b58c7b5b4194e9b26b8d2b824366b7d" target="_top" xlink:title="Emitted when karaoke mode changes.">
<polygon fill="white" stroke="#666666" points="378,-30 215,-30 215,0 378,0 378,-30"/>
<text text-anchor="start" x="223" y="-18" font-family="Helvetica,sans-Serif" font-size="10.00">AudioProcessor::karaokeMode</text>
<text text-anchor="middle" x="296.5" y="-7" font-family="Helvetica,sans-Serif" font-size="10.00">Changed</text>
</a>
</g>
</g>
<!-- Node1&#45;&gt;Node3 -->
<g id="edge2_Node000001_Node000003" class="edge">
<title>Node1&#45;&gt;Node3</title>
<g id="a_edge2_Node000001_Node000003"><a xlink:title=" ">
<path fill="none" stroke="#63b8ff" d="M171.82,-29.48C182.69,-28.21 193.89,-26.9 204.9,-25.61"/>
<polygon fill="#63b8ff" stroke="#63b8ff" points="205.43,-29.07 214.95,-24.43 204.61,-22.12 205.43,-29.07"/>
</a>
</g>
</g>
</g>
</svg>
