<?xml version="1.0" encoding="UTF-8" standalone="no"?>
<!DOCTYPE svg PUBLIC "-//W3C//DTD SVG 1.1//EN"
 "http://www.w3.org/Graphics/SVG/1.1/DTD/svg11.dtd">
<!-- Generated by graphviz version 2.43.0 (0)
 -->
<!-- Title: AudioProcessor::karaokeModeChanged Pages: 1 -->
<svg width="386pt" height="76pt"
 viewBox="0.00 0.00 386.00 75.50" xmlns="http://www.w3.org/2000/svg" xmlns:xlink="http://www.w3.org/1999/xlink">
<g id="graph0" class="graph" transform="scale(1 1) rotate(0) translate(4 71.5)">
<title>AudioProcessor::karaokeModeChanged</title>
<!-- Node1 -->
<g id="Node000001" class="node">
<title>Node1</title>
<g id="a_Node000001"><a xlink:title="Emitted when karaoke mode changes.">
<polygon fill="#999999" stroke="#666666" points="378,-45.5 215,-45.5 215,-15.5 378,-15.5 378,-45.5"/>
<text text-anchor="start" x="223" y="-33.5" font-family="Helvetica,sans-Serif" font-size="10.00">AudioProcessor::karaokeMode</text>
<text text-anchor="middle" x="296.5" y="-22.5" font-family="Helvetica,sans-Serif" font-size="10.00">Changed</text>
</a>
</g>
</g>
<!-- Node2 -->
<g id="Node000002" class="node">
<title>Node2</title>
<g id="a_Node000002"><a xlink:href="../../d5/da7/classAudioProcessorWidget.html#af02c20348db98edb4582faa930a3f0d7" target="_top" xlink:title="Initialize the widget with audio processor.">
<polygon fill="white" stroke="#666666" points="152.5,-67.5 26.5,-67.5 26.5,-37.5 152.5,-37.5 152.5,-67.5"/>
<text text-anchor="start" x="34.5" y="-55.5" font-family="Helvetica,sans-Serif" font-size="10.00">AudioProcessorWidget</text>
<text text-anchor="middle" x="89.5" y="-44.5" font-family="Helvetica,sans-Serif" font-size="10.00">::initialize</text>
</a>
</g>
</g>
<!-- Node1&#45;&gt;Node2 -->
<g id="edge1_Node000001_Node000002" class="edge">
<title>Node1&#45;&gt;Node2</title>
<g id="a_edge1_Node000001_Node000002"><a xlink:title=" ">
<path fill="none" stroke="#63b8ff" d="M204.54,-40.26C187.05,-42.14 169.1,-44.06 152.78,-45.82"/>
<polygon fill="#63b8ff" stroke="#63b8ff" points="205.2,-43.71 214.77,-39.16 204.46,-36.75 205.2,-43.71"/>
</a>
</g>
</g>
<!-- Node3 -->
<g id="Node000003" class="node">
<title>Node3</title>
<g id="a_Node000003"><a xlink:href="../../d5/db2/classAudioProcessor.html#aea7e0f29ed1bed0d6607d07b48e091fd" target="_top" xlink:title="Set karaoke mode.">
<polygon fill="white" stroke="#666666" points="179,-19 0,-19 0,0 179,0 179,-19"/>
<text text-anchor="middle" x="89.5" y="-7" font-family="Helvetica,sans-Serif" font-size="10.00">AudioProcessor::setKaraokeMode</text>
</a>
</g>
</g>
<!-- Node1&#45;&gt;Node3 -->
<g id="edge2_Node000001_Node000003" class="edge">
<title>Node1&#45;&gt;Node3</title>
<g id="a_edge2_Node000001_Node000003"><a xlink:title=" ">
<path fill="none" stroke="#63b8ff" d="M204.58,-21.19C196.18,-20.33 187.66,-19.45 179.27,-18.59"/>
<polygon fill="#63b8ff" stroke="#63b8ff" points="204.47,-24.69 214.77,-22.23 205.18,-17.73 204.47,-24.69"/>
</a>
</g>
</g>
</g>
</svg>
