<?xml version="1.0" encoding="UTF-8" standalone="no"?>
<!DOCTYPE svg PUBLIC "-//W3C//DTD SVG 1.1//EN"
 "http://www.w3.org/Graphics/SVG/1.1/DTD/svg11.dtd">
<!-- Generated by graphviz version 2.43.0 (0)
 -->
<!-- Title: IComponent Pages: 1 -->
<svg width="573pt" height="397pt"
 viewBox="0.00 0.00 572.50 397.00" xmlns="http://www.w3.org/2000/svg" xmlns:xlink="http://www.w3.org/1999/xlink">
<g id="graph0" class="graph" transform="scale(1 1) rotate(0) translate(4 393)">
<title>IComponent</title>
<!-- Node1 -->
<g id="Node000001" class="node">
<title>Node1</title>
<g id="a_Node000001"><a xlink:title="Interface for modular application components.">
<polygon fill="#999999" stroke="transparent" points="349.5,-389 236.5,-389 236.5,-280 349.5,-280 349.5,-389"/>
<text text-anchor="start" x="263.5" y="-376.5" font-family="Helvetica,sans-Serif" font-size="10.00">IComponent</text>
<text text-anchor="start" x="291.5" y="-361.5" font-family="Helvetica,sans-Serif" font-size="10.00"> </text>
<text text-anchor="start" x="241" y="-346.5" font-family="Helvetica,sans-Serif" font-size="10.00">+</text>
<text text-anchor="start" x="254" y="-346.5" font-family="Helvetica,sans-Serif" font-size="10.00">~IComponent()</text>
<text text-anchor="start" x="241" y="-331.5" font-family="Helvetica,sans-Serif" font-size="10.00">+</text>
<text text-anchor="start" x="254" y="-331.5" font-family="Helvetica,sans-Serif" font-size="10.00">initialize()</text>
<text text-anchor="start" x="241" y="-316.5" font-family="Helvetica,sans-Serif" font-size="10.00">+</text>
<text text-anchor="start" x="254" y="-316.5" font-family="Helvetica,sans-Serif" font-size="10.00">shutdown()</text>
<text text-anchor="start" x="241" y="-301.5" font-family="Helvetica,sans-Serif" font-size="10.00">+</text>
<text text-anchor="start" x="254" y="-301.5" font-family="Helvetica,sans-Serif" font-size="10.00">componentName()</text>
<text text-anchor="start" x="241" y="-286.5" font-family="Helvetica,sans-Serif" font-size="10.00">+</text>
<text text-anchor="start" x="254" y="-286.5" font-family="Helvetica,sans-Serif" font-size="10.00">isInitialized()</text>
<polygon fill="#666666" stroke="#666666" points="237,-371.5 237,-371.5 350,-371.5 350,-371.5 237,-371.5"/>
<polygon fill="#666666" stroke="#666666" points="237,-356.5 237,-356.5 350,-356.5 350,-356.5 237,-356.5"/>
<polygon fill="none" stroke="#666666" points="236.5,-280 236.5,-389 349.5,-389 349.5,-280 236.5,-280"/>
</a>
</g>
</g>
<!-- Node2 -->
<g id="Node000002" class="node">
<title>Node2</title>
<g id="a_Node000002"><a xlink:href="../../d8/d04/classFileUrlSupport.html" target="_top" xlink:title="EonPlay file and URL support component.">
<polygon fill="white" stroke="transparent" points="136,-244 0,-244 0,0 136,0 136,-244"/>
<text text-anchor="start" x="33" y="-232" font-family="Helvetica,sans-Serif" font-size="10.00">FileUrlSupport</text>
<text text-anchor="start" x="66" y="-217" font-family="Helvetica,sans-Serif" font-size="10.00"> </text>
<text text-anchor="start" x="4" y="-202" font-family="Helvetica,sans-Serif" font-size="10.00">+</text>
<text text-anchor="start" x="17" y="-202" font-family="Helvetica,sans-Serif" font-size="10.00">FileUrlSupport()</text>
<text text-anchor="start" x="4" y="-187" font-family="Helvetica,sans-Serif" font-size="10.00">+</text>
<text text-anchor="start" x="17" y="-187" font-family="Helvetica,sans-Serif" font-size="10.00">~FileUrlSupport()</text>
<text text-anchor="start" x="4" y="-172" font-family="Helvetica,sans-Serif" font-size="10.00">+</text>
<text text-anchor="start" x="17" y="-172" font-family="Helvetica,sans-Serif" font-size="10.00">initialize()</text>
<text text-anchor="start" x="4" y="-157" font-family="Helvetica,sans-Serif" font-size="10.00">+</text>
<text text-anchor="start" x="17" y="-157" font-family="Helvetica,sans-Serif" font-size="10.00">shutdown()</text>
<text text-anchor="start" x="4" y="-142" font-family="Helvetica,sans-Serif" font-size="10.00">+</text>
<text text-anchor="start" x="17" y="-142" font-family="Helvetica,sans-Serif" font-size="10.00">componentName()</text>
<text text-anchor="start" x="4" y="-127" font-family="Helvetica,sans-Serif" font-size="10.00">+</text>
<text text-anchor="start" x="17" y="-127" font-family="Helvetica,sans-Serif" font-size="10.00">isInitialized()</text>
<text text-anchor="start" x="4" y="-112" font-family="Helvetica,sans-Serif" font-size="10.00">+</text>
<text text-anchor="start" x="17" y="-112" font-family="Helvetica,sans-Serif" font-size="10.00">setMediaEngine()</text>
<text text-anchor="start" x="4" y="-97" font-family="Helvetica,sans-Serif" font-size="10.00">+</text>
<text text-anchor="start" x="17" y="-97" font-family="Helvetica,sans-Serif" font-size="10.00">setPlaybackController()</text>
<text text-anchor="start" x="4" y="-82" font-family="Helvetica,sans-Serif" font-size="10.00">+</text>
<text text-anchor="start" x="17" y="-82" font-family="Helvetica,sans-Serif" font-size="10.00">loadMediaFile()</text>
<text text-anchor="start" x="4" y="-67" font-family="Helvetica,sans-Serif" font-size="10.00">+</text>
<text text-anchor="start" x="17" y="-67" font-family="Helvetica,sans-Serif" font-size="10.00">loadMediaUrl()</text>
<text text-anchor="start" x="17" y="-52" font-family="Helvetica,sans-Serif" font-size="10.00">and 27 more...</text>
<text text-anchor="start" x="4" y="-37" font-family="Helvetica,sans-Serif" font-size="10.00">+</text>
<text text-anchor="start" x="17" y="-37" font-family="Helvetica,sans-Serif" font-size="10.00">openFile()</text>
<text text-anchor="start" x="4" y="-22" font-family="Helvetica,sans-Serif" font-size="10.00">+</text>
<text text-anchor="start" x="17" y="-22" font-family="Helvetica,sans-Serif" font-size="10.00">openUrl()</text>
<text text-anchor="start" x="4" y="-7" font-family="Helvetica,sans-Serif" font-size="10.00">+</text>
<text text-anchor="start" x="17" y="-7" font-family="Helvetica,sans-Serif" font-size="10.00">openFiles()</text>
<polygon fill="#666666" stroke="#666666" points="0,-227 0,-227 136,-227 136,-227 0,-227"/>
<polygon fill="#666666" stroke="#666666" points="0,-212 0,-212 136,-212 136,-212 0,-212"/>
<polygon fill="none" stroke="#666666" points="0,0 0,-244 136,-244 136,0 0,0"/>
</a>
</g>
</g>
<!-- Node1&#45;&gt;Node2 -->
<g id="edge1_Node000001_Node000002" class="edge">
<title>Node1&#45;&gt;Node2</title>
<g id="a_edge1_Node000001_Node000002"><a xlink:title=" ">
<path fill="none" stroke="#63b8ff" d="M227.25,-302.29C199.8,-287.2 168.83,-267.29 145,-244 141.97,-241.04 139.01,-237.94 136.11,-234.73"/>
<polygon fill="none" stroke="#63b8ff" points="225.95,-305.56 236.41,-307.22 229.27,-299.4 225.95,-305.56"/>
</a>
</g>
</g>
<!-- Node3 -->
<g id="Node000003" class="node">
<title>Node3</title>
<g id="a_Node000003"><a xlink:href="../../d0/d22/classPlaybackController.html" target="_top" xlink:title="EonPlay core playback controller that manages media playback operations.">
<polygon fill="white" stroke="transparent" points="284,-229 154,-229 154,-15 284,-15 284,-229"/>
<text text-anchor="start" x="172.5" y="-217" font-family="Helvetica,sans-Serif" font-size="10.00">PlaybackController</text>
<text text-anchor="start" x="217" y="-202" font-family="Helvetica,sans-Serif" font-size="10.00"> </text>
<text text-anchor="start" x="158" y="-187" font-family="Helvetica,sans-Serif" font-size="10.00">+</text>
<text text-anchor="start" x="171" y="-187" font-family="Helvetica,sans-Serif" font-size="10.00">PlaybackController()</text>
<text text-anchor="start" x="158" y="-172" font-family="Helvetica,sans-Serif" font-size="10.00">+</text>
<text text-anchor="start" x="171" y="-172" font-family="Helvetica,sans-Serif" font-size="10.00">~PlaybackController()</text>
<text text-anchor="start" x="158" y="-157" font-family="Helvetica,sans-Serif" font-size="10.00">+</text>
<text text-anchor="start" x="171" y="-157" font-family="Helvetica,sans-Serif" font-size="10.00">initialize()</text>
<text text-anchor="start" x="158" y="-142" font-family="Helvetica,sans-Serif" font-size="10.00">+</text>
<text text-anchor="start" x="171" y="-142" font-family="Helvetica,sans-Serif" font-size="10.00">shutdown()</text>
<text text-anchor="start" x="158" y="-127" font-family="Helvetica,sans-Serif" font-size="10.00">+</text>
<text text-anchor="start" x="171" y="-127" font-family="Helvetica,sans-Serif" font-size="10.00">componentName()</text>
<text text-anchor="start" x="158" y="-112" font-family="Helvetica,sans-Serif" font-size="10.00">+</text>
<text text-anchor="start" x="171" y="-112" font-family="Helvetica,sans-Serif" font-size="10.00">isInitialized()</text>
<text text-anchor="start" x="158" y="-97" font-family="Helvetica,sans-Serif" font-size="10.00">+</text>
<text text-anchor="start" x="171" y="-97" font-family="Helvetica,sans-Serif" font-size="10.00">setMediaEngine()</text>
<text text-anchor="start" x="158" y="-82" font-family="Helvetica,sans-Serif" font-size="10.00">+</text>
<text text-anchor="start" x="171" y="-82" font-family="Helvetica,sans-Serif" font-size="10.00">mediaEngine()</text>
<text text-anchor="start" x="158" y="-67" font-family="Helvetica,sans-Serif" font-size="10.00">+</text>
<text text-anchor="start" x="171" y="-67" font-family="Helvetica,sans-Serif" font-size="10.00">play()</text>
<text text-anchor="start" x="158" y="-52" font-family="Helvetica,sans-Serif" font-size="10.00">+</text>
<text text-anchor="start" x="171" y="-52" font-family="Helvetica,sans-Serif" font-size="10.00">pause()</text>
<text text-anchor="start" x="171" y="-37" font-family="Helvetica,sans-Serif" font-size="10.00">and 41 more...</text>
<text text-anchor="start" x="158" y="-22" font-family="Helvetica,sans-Serif" font-size="10.00">+</text>
<text text-anchor="start" x="171" y="-22" font-family="Helvetica,sans-Serif" font-size="10.00">loadMedia()</text>
<polygon fill="#666666" stroke="#666666" points="154,-212 154,-212 284,-212 284,-212 154,-212"/>
<polygon fill="#666666" stroke="#666666" points="154,-197 154,-197 284,-197 284,-197 154,-197"/>
<polygon fill="none" stroke="#666666" points="154,-15 154,-229 284,-229 284,-15 154,-15"/>
</a>
</g>
</g>
<!-- Node1&#45;&gt;Node3 -->
<g id="edge2_Node000001_Node000003" class="edge">
<title>Node1&#45;&gt;Node3</title>
<g id="a_edge2_Node000001_Node000003"><a xlink:title=" ">
<path fill="none" stroke="#63b8ff" d="M270.71,-270.1C266.14,-257.1 261.21,-243.07 256.27,-229.02"/>
<polygon fill="none" stroke="#63b8ff" points="267.52,-271.56 274.14,-279.84 274.12,-269.24 267.52,-271.56"/>
</a>
</g>
</g>
<!-- Node4 -->
<g id="Node000004" class="node">
<title>Node4</title>
<g id="a_Node000004"><a xlink:href="../../d1/dea/classSettingsManager.html" target="_top" xlink:title="Manages EonPlay settings and user preferences.">
<polygon fill="white" stroke="transparent" points="433.5,-229 302.5,-229 302.5,-15 433.5,-15 433.5,-229"/>
<text text-anchor="start" x="327" y="-217" font-family="Helvetica,sans-Serif" font-size="10.00">SettingsManager</text>
<text text-anchor="start" x="366.5" y="-202" font-family="Helvetica,sans-Serif" font-size="10.00"> </text>
<text text-anchor="start" x="307" y="-187" font-family="Helvetica,sans-Serif" font-size="10.00">+</text>
<text text-anchor="start" x="320" y="-187" font-family="Helvetica,sans-Serif" font-size="10.00">SettingsManager()</text>
<text text-anchor="start" x="307" y="-172" font-family="Helvetica,sans-Serif" font-size="10.00">+</text>
<text text-anchor="start" x="320" y="-172" font-family="Helvetica,sans-Serif" font-size="10.00">~SettingsManager()</text>
<text text-anchor="start" x="307" y="-157" font-family="Helvetica,sans-Serif" font-size="10.00">+</text>
<text text-anchor="start" x="320" y="-157" font-family="Helvetica,sans-Serif" font-size="10.00">initialize()</text>
<text text-anchor="start" x="307" y="-142" font-family="Helvetica,sans-Serif" font-size="10.00">+</text>
<text text-anchor="start" x="320" y="-142" font-family="Helvetica,sans-Serif" font-size="10.00">shutdown()</text>
<text text-anchor="start" x="307" y="-127" font-family="Helvetica,sans-Serif" font-size="10.00">+</text>
<text text-anchor="start" x="320" y="-127" font-family="Helvetica,sans-Serif" font-size="10.00">componentName()</text>
<text text-anchor="start" x="307" y="-112" font-family="Helvetica,sans-Serif" font-size="10.00">+</text>
<text text-anchor="start" x="320" y="-112" font-family="Helvetica,sans-Serif" font-size="10.00">isInitialized()</text>
<text text-anchor="start" x="307" y="-97" font-family="Helvetica,sans-Serif" font-size="10.00">+</text>
<text text-anchor="start" x="320" y="-97" font-family="Helvetica,sans-Serif" font-size="10.00">preferences()</text>
<text text-anchor="start" x="307" y="-82" font-family="Helvetica,sans-Serif" font-size="10.00">+</text>
<text text-anchor="start" x="320" y="-82" font-family="Helvetica,sans-Serif" font-size="10.00">setPreferences()</text>
<text text-anchor="start" x="307" y="-67" font-family="Helvetica,sans-Serif" font-size="10.00">+</text>
<text text-anchor="start" x="320" y="-67" font-family="Helvetica,sans-Serif" font-size="10.00">getValue()</text>
<text text-anchor="start" x="307" y="-52" font-family="Helvetica,sans-Serif" font-size="10.00">+</text>
<text text-anchor="start" x="320" y="-52" font-family="Helvetica,sans-Serif" font-size="10.00">setValue()</text>
<text text-anchor="start" x="320" y="-37" font-family="Helvetica,sans-Serif" font-size="10.00">and 8 more...</text>
<text text-anchor="start" x="307" y="-22" font-family="Helvetica,sans-Serif" font-size="10.00">+</text>
<text text-anchor="start" x="320" y="-22" font-family="Helvetica,sans-Serif" font-size="10.00">getConfigurationPath()</text>
<polygon fill="#666666" stroke="#666666" points="303,-212 303,-212 434,-212 434,-212 303,-212"/>
<polygon fill="#666666" stroke="#666666" points="303,-197 303,-197 434,-197 434,-197 303,-197"/>
<polygon fill="none" stroke="#666666" points="302.5,-15 302.5,-229 433.5,-229 433.5,-15 302.5,-15"/>
</a>
</g>
</g>
<!-- Node1&#45;&gt;Node4 -->
<g id="edge3_Node000001_Node000004" class="edge">
<title>Node1&#45;&gt;Node4</title>
<g id="a_edge3_Node000001_Node000004"><a xlink:title=" ">
<path fill="none" stroke="#63b8ff" d="M315.59,-270.1C320.22,-257.1 325.22,-243.07 330.23,-229.02"/>
<polygon fill="none" stroke="#63b8ff" points="312.18,-269.24 312.12,-279.84 318.77,-271.59 312.18,-269.24"/>
</a>
</g>
</g>
<!-- Node5 -->
<g id="Node000005" class="node">
<title>Node5</title>
<g id="a_Node000005"><a xlink:href="../../d6/d6e/classVLCBackend.html" target="_top" xlink:title="libVLC&#45;based media engine implementation">
<polygon fill="white" stroke="transparent" points="564.5,-236.5 451.5,-236.5 451.5,-7.5 564.5,-7.5 564.5,-236.5"/>
<text text-anchor="start" x="478" y="-224" font-family="Helvetica,sans-Serif" font-size="10.00">VLCBackend</text>
<text text-anchor="start" x="506.5" y="-209" font-family="Helvetica,sans-Serif" font-size="10.00"> </text>
<text text-anchor="start" x="456" y="-194" font-family="Helvetica,sans-Serif" font-size="10.00">+</text>
<text text-anchor="start" x="469" y="-194" font-family="Helvetica,sans-Serif" font-size="10.00">VLCBackend()</text>
<text text-anchor="start" x="456" y="-179" font-family="Helvetica,sans-Serif" font-size="10.00">+</text>
<text text-anchor="start" x="469" y="-179" font-family="Helvetica,sans-Serif" font-size="10.00">~VLCBackend()</text>
<text text-anchor="start" x="456" y="-164" font-family="Helvetica,sans-Serif" font-size="10.00">+</text>
<text text-anchor="start" x="469" y="-164" font-family="Helvetica,sans-Serif" font-size="10.00">initialize()</text>
<text text-anchor="start" x="456" y="-149" font-family="Helvetica,sans-Serif" font-size="10.00">+</text>
<text text-anchor="start" x="469" y="-149" font-family="Helvetica,sans-Serif" font-size="10.00">shutdown()</text>
<text text-anchor="start" x="456" y="-134" font-family="Helvetica,sans-Serif" font-size="10.00">+</text>
<text text-anchor="start" x="469" y="-134" font-family="Helvetica,sans-Serif" font-size="10.00">componentName()</text>
<text text-anchor="start" x="456" y="-119" font-family="Helvetica,sans-Serif" font-size="10.00">+</text>
<text text-anchor="start" x="469" y="-119" font-family="Helvetica,sans-Serif" font-size="10.00">isInitialized()</text>
<text text-anchor="start" x="456" y="-104" font-family="Helvetica,sans-Serif" font-size="10.00">+</text>
<text text-anchor="start" x="469" y="-104" font-family="Helvetica,sans-Serif" font-size="10.00">loadMedia()</text>
<text text-anchor="start" x="456" y="-89" font-family="Helvetica,sans-Serif" font-size="10.00">+</text>
<text text-anchor="start" x="469" y="-89" font-family="Helvetica,sans-Serif" font-size="10.00">play()</text>
<text text-anchor="start" x="456" y="-74" font-family="Helvetica,sans-Serif" font-size="10.00">+</text>
<text text-anchor="start" x="469" y="-74" font-family="Helvetica,sans-Serif" font-size="10.00">pause()</text>
<text text-anchor="start" x="456" y="-59" font-family="Helvetica,sans-Serif" font-size="10.00">+</text>
<text text-anchor="start" x="469" y="-59" font-family="Helvetica,sans-Serif" font-size="10.00">stop()</text>
<text text-anchor="start" x="469" y="-44" font-family="Helvetica,sans-Serif" font-size="10.00">and 11 more...</text>
<text text-anchor="start" x="456" y="-29" font-family="Helvetica,sans-Serif" font-size="10.00">+</text>
<text text-anchor="start" x="469" y="-29" font-family="Helvetica,sans-Serif" font-size="10.00">vlcVersion()</text>
<text text-anchor="start" x="456" y="-14" font-family="Helvetica,sans-Serif" font-size="10.00">+</text>
<text text-anchor="start" x="469" y="-14" font-family="Helvetica,sans-Serif" font-size="10.00">isVLCAvailable()</text>
<polygon fill="#666666" stroke="#666666" points="452,-219 452,-219 565,-219 565,-219 452,-219"/>
<polygon fill="#666666" stroke="#666666" points="452,-204 452,-204 565,-204 565,-204 452,-204"/>
<polygon fill="none" stroke="#666666" points="451.5,-7.5 451.5,-236.5 564.5,-236.5 564.5,-7.5 451.5,-7.5"/>
</a>
</g>
</g>
<!-- Node1&#45;&gt;Node5 -->
<g id="edge4_Node000001_Node000005" class="edge">
<title>Node1&#45;&gt;Node5</title>
<g id="a_edge4_Node000001_Node000005"><a xlink:title=" ">
<path fill="none" stroke="#63b8ff" d="M358.77,-304.2C387.18,-289.2 419.27,-268.82 443,-244 445.88,-240.98 448.68,-237.81 451.38,-234.53"/>
<polygon fill="none" stroke="#63b8ff" points="356.98,-301.19 349.7,-308.89 360.19,-307.41 356.98,-301.19"/>
</a>
</g>
</g>
</g>
</svg>
