<?xml version="1.0" encoding="UTF-8" standalone="no"?>
<!DOCTYPE svg PUBLIC "-//W3C//DTD SVG 1.1//EN"
 "http://www.w3.org/Graphics/SVG/1.1/DTD/svg11.dtd">
<!-- Generated by graphviz version 2.43.0 (0)
 -->
<!-- Title: VideoExporter::~VideoExporter Pages: 1 -->
<svg width="543pt" height="27pt"
 viewBox="0.00 0.00 543.00 27.00" xmlns="http://www.w3.org/2000/svg" xmlns:xlink="http://www.w3.org/1999/xlink">
<g id="graph0" class="graph" transform="scale(1 1) rotate(0) translate(4 23)">
<title>VideoExporter::~VideoExporter</title>
<!-- Node1 -->
<g id="Node000001" class="node">
<title>Node1</title>
<g id="a_Node000001"><a xlink:title=" ">
<polygon fill="#999999" stroke="#666666" points="169,-19 0,-19 0,0 169,0 169,-19"/>
<text text-anchor="middle" x="84.5" y="-7" font-family="Helvetica,sans-Serif" font-size="10.00">VideoExporter::~VideoExporter</text>
</a>
</g>
</g>
<!-- Node2 -->
<g id="Node000002" class="node">
<title>Node2</title>
<g id="a_Node000002"><a xlink:href="../../d2/d07/classVideoExporter.html#a4cfe1c961df378ac50dbd7cc41e0b893" target="_top" xlink:title="Shutdown the exporter.">
<polygon fill="white" stroke="#666666" points="344,-19 205,-19 205,0 344,0 344,-19"/>
<text text-anchor="middle" x="274.5" y="-7" font-family="Helvetica,sans-Serif" font-size="10.00">VideoExporter::shutdown</text>
</a>
</g>
</g>
<!-- Node1&#45;&gt;Node2 -->
<g id="edge1_Node000001_Node000002" class="edge">
<title>Node1&#45;&gt;Node2</title>
<g id="a_edge1_Node000001_Node000002"><a xlink:title=" ">
<path fill="none" stroke="#63b8ff" d="M169.05,-9.5C177.56,-9.5 186.18,-9.5 194.63,-9.5"/>
<polygon fill="#63b8ff" stroke="#63b8ff" points="194.84,-13 204.84,-9.5 194.84,-6 194.84,-13"/>
</a>
</g>
</g>
<!-- Node3 -->
<g id="Node000003" class="node">
<title>Node3</title>
<g id="a_Node000003"><a xlink:href="../../d2/d07/classVideoExporter.html#a6e68746f11d5ccce06491f0f4d2803db" target="_top" xlink:title="Cancel ongoing export.">
<polygon fill="white" stroke="#666666" points="535,-19 380,-19 380,0 535,0 535,-19"/>
<text text-anchor="middle" x="457.5" y="-7" font-family="Helvetica,sans-Serif" font-size="10.00">VideoExporter::cancelExport</text>
</a>
</g>
</g>
<!-- Node2&#45;&gt;Node3 -->
<g id="edge2_Node000002_Node000003" class="edge">
<title>Node2&#45;&gt;Node3</title>
<g id="a_edge2_Node000002_Node000003"><a xlink:title=" ">
<path fill="none" stroke="#63b8ff" d="M344.19,-9.5C352.6,-9.5 361.27,-9.5 369.9,-9.5"/>
<polygon fill="#63b8ff" stroke="#63b8ff" points="369.99,-13 379.99,-9.5 369.99,-6 369.99,-13"/>
</a>
</g>
</g>
</g>
</svg>
