<?xml version="1.0" encoding="UTF-8" standalone="no"?>
<!DOCTYPE svg PUBLIC "-//W3C//DTD SVG 1.1//EN"
 "http://www.w3.org/Graphics/SVG/1.1/DTD/svg11.dtd">
<!-- Generated by graphviz version 2.43.0 (0)
 -->
<!-- Title: MediaPlayerApplication::MediaPlayerApplication Pages: 1 -->
<svg width="558pt" height="166pt"
 viewBox="0.00 0.00 558.00 165.50" xmlns="http://www.w3.org/2000/svg" xmlns:xlink="http://www.w3.org/1999/xlink">
<g id="graph0" class="graph" transform="scale(1 1) rotate(0) translate(4 161.5)">
<title>MediaPlayerApplication::MediaPlayerApplication</title>
<!-- Node1 -->
<g id="Node000001" class="node">
<title>Node1</title>
<g id="a_Node000001"><a xlink:title=" ">
<polygon fill="#999999" stroke="#666666" points="138,-109.5 0,-109.5 0,-79.5 138,-79.5 138,-109.5"/>
<text text-anchor="start" x="8" y="-97.5" font-family="Helvetica,sans-Serif" font-size="10.00">MediaPlayerApplication</text>
<text text-anchor="middle" x="69" y="-86.5" font-family="Helvetica,sans-Serif" font-size="10.00">::MediaPlayerApplication</text>
</a>
</g>
</g>
<!-- Node2 -->
<g id="Node000002" class="node">
<title>Node2</title>
<g id="a_Node000002"><a xlink:href="../../da/d51/classComponentManager.html#a14d464e5826e2f56ebb9656a45bab9b5" target="_top" xlink:title="Emitted when all components are initialized.">
<polygon fill="white" stroke="#666666" points="369,-157.5 174,-157.5 174,-127.5 369,-127.5 369,-157.5"/>
<text text-anchor="start" x="182" y="-145.5" font-family="Helvetica,sans-Serif" font-size="10.00">ComponentManager::allComponents</text>
<text text-anchor="middle" x="271.5" y="-134.5" font-family="Helvetica,sans-Serif" font-size="10.00">Initialized</text>
</a>
</g>
</g>
<!-- Node1&#45;&gt;Node2 -->
<g id="edge1_Node000001_Node000002" class="edge">
<title>Node1&#45;&gt;Node2</title>
<g id="a_edge1_Node000001_Node000002"><a xlink:title=" ">
<path fill="none" stroke="#63b8ff" d="M132.89,-109.56C153.51,-114.49 176.59,-120.02 197.88,-125.11"/>
<polygon fill="#63b8ff" stroke="#63b8ff" points="197.29,-128.57 207.83,-127.5 198.92,-121.77 197.29,-128.57"/>
</a>
</g>
</g>
<!-- Node3 -->
<g id="Node000003" class="node">
<title>Node3</title>
<g id="a_Node000003"><a xlink:href="../../da/d51/classComponentManager.html#a29c3007a5e33c40d35ff281bb0f1205e" target="_top" xlink:title="Emitted when a component fails to initialize.">
<polygon fill="white" stroke="#666666" points="359.5,-109.5 183.5,-109.5 183.5,-79.5 359.5,-79.5 359.5,-109.5"/>
<text text-anchor="start" x="191.5" y="-97.5" font-family="Helvetica,sans-Serif" font-size="10.00">ComponentManager::component</text>
<text text-anchor="middle" x="271.5" y="-86.5" font-family="Helvetica,sans-Serif" font-size="10.00">InitializationFailed</text>
</a>
</g>
</g>
<!-- Node1&#45;&gt;Node3 -->
<g id="edge2_Node000001_Node000003" class="edge">
<title>Node1&#45;&gt;Node3</title>
<g id="a_edge2_Node000001_Node000003"><a xlink:title=" ">
<path fill="none" stroke="#63b8ff" d="M138.16,-94.5C149.4,-94.5 161.24,-94.5 173.03,-94.5"/>
<polygon fill="#63b8ff" stroke="#63b8ff" points="173.36,-98 183.36,-94.5 173.36,-91 173.36,-98"/>
</a>
</g>
</g>
<!-- Node4 -->
<g id="Node000004" class="node">
<title>Node4</title>
<g id="a_Node000004"><a xlink:href="../../d2/dd7/classMediaPlayerApplication.html#a0fb67a53079da3e6c1e58ec645e60a5f" target="_top" xlink:title="Gracefully shutdown the application.">
<polygon fill="white" stroke="#666666" points="337.5,-61.5 205.5,-61.5 205.5,-31.5 337.5,-31.5 337.5,-61.5"/>
<text text-anchor="start" x="213.5" y="-49.5" font-family="Helvetica,sans-Serif" font-size="10.00">MediaPlayerApplication</text>
<text text-anchor="middle" x="271.5" y="-38.5" font-family="Helvetica,sans-Serif" font-size="10.00">::shutdown</text>
</a>
</g>
</g>
<!-- Node1&#45;&gt;Node4 -->
<g id="edge3_Node000001_Node000004" class="edge">
<title>Node1&#45;&gt;Node4</title>
<g id="a_edge3_Node000001_Node000004"><a xlink:title=" ">
<path fill="none" stroke="#63b8ff" d="M132.89,-79.44C153.51,-74.51 176.59,-68.98 197.88,-63.89"/>
<polygon fill="#63b8ff" stroke="#63b8ff" points="198.92,-67.23 207.83,-61.5 197.29,-60.43 198.92,-67.23"/>
</a>
</g>
</g>
<!-- Node5 -->
<g id="Node000005" class="node">
<title>Node5</title>
<g id="a_Node000005"><a xlink:href="../../d2/dd7/classMediaPlayerApplication.html#a83302e2da5ddb523fd349ec623d140a6" target="_top" xlink:title="Emitted when application shutdown begins.">
<polygon fill="white" stroke="#666666" points="550,-104.5 405,-104.5 405,-74.5 550,-74.5 550,-104.5"/>
<text text-anchor="start" x="413" y="-92.5" font-family="Helvetica,sans-Serif" font-size="10.00">MediaPlayerApplication</text>
<text text-anchor="middle" x="477.5" y="-81.5" font-family="Helvetica,sans-Serif" font-size="10.00">::applicationShuttingDown</text>
</a>
</g>
</g>
<!-- Node4&#45;&gt;Node5 -->
<g id="edge4_Node000004_Node000005" class="edge">
<title>Node4&#45;&gt;Node5</title>
<g id="a_edge4_Node000004_Node000005"><a xlink:title=" ">
<path fill="none" stroke="#63b8ff" d="M337.61,-60.22C355.98,-64.1 376.19,-68.36 395.38,-72.4"/>
<polygon fill="#63b8ff" stroke="#63b8ff" points="394.79,-75.85 405.3,-74.49 396.24,-69.01 394.79,-75.85"/>
</a>
</g>
</g>
<!-- Node6 -->
<g id="Node000006" class="node">
<title>Node6</title>
<g id="a_Node000006"><a xlink:href="../../d3/d4f/classEventBus.html#ab628daa9a218728977fc71ddf09389dc" target="_top" xlink:title="Clear all subscriptions.">
<polygon fill="white" stroke="#666666" points="523.5,-56 431.5,-56 431.5,-37 523.5,-37 523.5,-56"/>
<text text-anchor="middle" x="477.5" y="-44" font-family="Helvetica,sans-Serif" font-size="10.00">EventBus::clear</text>
</a>
</g>
</g>
<!-- Node4&#45;&gt;Node6 -->
<g id="edge5_Node000004_Node000006" class="edge">
<title>Node4&#45;&gt;Node6</title>
<g id="a_edge5_Node000004_Node000006"><a xlink:title=" ">
<path fill="none" stroke="#63b8ff" d="M337.61,-46.5C364.46,-46.5 395.25,-46.5 421.01,-46.5"/>
<polygon fill="#63b8ff" stroke="#63b8ff" points="421.35,-50 431.35,-46.5 421.35,-43 421.35,-50"/>
</a>
</g>
</g>
<!-- Node7 -->
<g id="Node000007" class="node">
<title>Node7</title>
<g id="a_Node000007"><a xlink:href="../../d3/d4f/classEventBus.html#a54f74b6e60e93f5d6bcaaf184318fa14" target="_top" xlink:title=" ">
<polygon fill="white" stroke="#666666" points="532.5,-19 422.5,-19 422.5,0 532.5,0 532.5,-19"/>
<text text-anchor="middle" x="477.5" y="-7" font-family="Helvetica,sans-Serif" font-size="10.00">EventBus::instance</text>
</a>
</g>
</g>
<!-- Node4&#45;&gt;Node7 -->
<g id="edge6_Node000004_Node000007" class="edge">
<title>Node4&#45;&gt;Node7</title>
<g id="a_edge6_Node000004_Node000007"><a xlink:title=" ">
<path fill="none" stroke="#63b8ff" d="M337.61,-34.69C361.99,-30.27 389.63,-25.26 413.79,-20.87"/>
<polygon fill="#63b8ff" stroke="#63b8ff" points="414.7,-24.27 423.92,-19.04 413.45,-17.38 414.7,-24.27"/>
</a>
</g>
</g>
</g>
</svg>
