<?xml version="1.0" encoding="UTF-8" standalone="no"?>
<!DOCTYPE svg PUBLIC "-//W3C//DTD SVG 1.1//EN"
 "http://www.w3.org/Graphics/SVG/1.1/DTD/svg11.dtd">
<!-- Generated by graphviz version 2.43.0 (0)
 -->
<!-- Title: MediaPlayerApplication::applicationShuttingDown Pages: 1 -->
<svg width="495pt" height="38pt"
 viewBox="0.00 0.00 495.00 38.00" xmlns="http://www.w3.org/2000/svg" xmlns:xlink="http://www.w3.org/1999/xlink">
<g id="graph0" class="graph" transform="scale(1 1) rotate(0) translate(4 34)">
<title>MediaPlayerApplication::applicationShuttingDown</title>
<!-- Node1 -->
<g id="Node000001" class="node">
<title>Node1</title>
<g id="a_Node000001"><a xlink:title="Emitted when application shutdown begins.">
<polygon fill="#999999" stroke="#666666" points="487,-30 342,-30 342,0 487,0 487,-30"/>
<text text-anchor="start" x="350" y="-18" font-family="Helvetica,sans-Serif" font-size="10.00">MediaPlayerApplication</text>
<text text-anchor="middle" x="414.5" y="-7" font-family="Helvetica,sans-Serif" font-size="10.00">::applicationShuttingDown</text>
</a>
</g>
</g>
<!-- Node2 -->
<g id="Node000002" class="node">
<title>Node2</title>
<g id="a_Node000002"><a xlink:href="../../d2/dd7/classMediaPlayerApplication.html#a0fb67a53079da3e6c1e58ec645e60a5f" target="_top" xlink:title="Gracefully shutdown the application.">
<polygon fill="white" stroke="#666666" points="306,-30 174,-30 174,0 306,0 306,-30"/>
<text text-anchor="start" x="182" y="-18" font-family="Helvetica,sans-Serif" font-size="10.00">MediaPlayerApplication</text>
<text text-anchor="middle" x="240" y="-7" font-family="Helvetica,sans-Serif" font-size="10.00">::shutdown</text>
</a>
</g>
</g>
<!-- Node1&#45;&gt;Node2 -->
<g id="edge1_Node000001_Node000002" class="edge">
<title>Node1&#45;&gt;Node2</title>
<g id="a_edge1_Node000001_Node000002"><a xlink:title=" ">
<path fill="none" stroke="#63b8ff" d="M331.78,-15C323.16,-15 314.48,-15 306.09,-15"/>
<polygon fill="#63b8ff" stroke="#63b8ff" points="331.84,-18.5 341.84,-15 331.84,-11.5 331.84,-18.5"/>
</a>
</g>
</g>
<!-- Node3 -->
<g id="Node000003" class="node">
<title>Node3</title>
<g id="a_Node000003"><a xlink:href="../../d2/dd7/classMediaPlayerApplication.html#a4ae632879f4278eac66c205c13c4ebd3" target="_top" xlink:title=" ">
<polygon fill="white" stroke="#666666" points="138,-30 0,-30 0,0 138,0 138,-30"/>
<text text-anchor="start" x="8" y="-18" font-family="Helvetica,sans-Serif" font-size="10.00">MediaPlayerApplication</text>
<text text-anchor="middle" x="69" y="-7" font-family="Helvetica,sans-Serif" font-size="10.00">::MediaPlayerApplication</text>
</a>
</g>
</g>
<!-- Node2&#45;&gt;Node3 -->
<g id="edge2_Node000002_Node000003" class="edge">
<title>Node2&#45;&gt;Node3</title>
<g id="a_edge2_Node000002_Node000003"><a xlink:title=" ">
<path fill="none" stroke="#63b8ff" d="M163.49,-15C155.08,-15 146.55,-15 138.24,-15"/>
<polygon fill="#63b8ff" stroke="#63b8ff" points="163.66,-18.5 173.66,-15 163.66,-11.5 163.66,-18.5"/>
</a>
</g>
</g>
</g>
</svg>
