<?xml version="1.0" encoding="UTF-8" standalone="no"?>
<!DOCTYPE svg PUBLIC "-//W3C//DTD SVG 1.1//EN"
 "http://www.w3.org/Graphics/SVG/1.1/DTD/svg11.dtd">
<!-- Generated by graphviz version 2.43.0 (0)
 -->
<!-- Title: MediaKeysManager Pages: 1 -->
<svg width="220pt" height="337pt"
 viewBox="0.00 0.00 219.50 337.00" xmlns="http://www.w3.org/2000/svg" xmlns:xlink="http://www.w3.org/1999/xlink">
<g id="graph0" class="graph" transform="scale(1 1) rotate(0) translate(4 333)">
<title>MediaKeysManager</title>
<!-- Node1 -->
<g id="Node000001" class="node">
<title>Node1</title>
<g id="a_Node000001"><a xlink:title="System media keys integration manager.">
<polygon fill="#999999" stroke="transparent" points="159,-244 5,-244 5,0 159,0 159,-244"/>
<text text-anchor="start" x="33.5" y="-232" font-family="Helvetica,sans-Serif" font-size="10.00">MediaKeysManager</text>
<text text-anchor="start" x="80" y="-217" font-family="Helvetica,sans-Serif" font-size="10.00"> </text>
<text text-anchor="start" x="9" y="-202" font-family="Helvetica,sans-Serif" font-size="10.00">+</text>
<text text-anchor="start" x="22" y="-202" font-family="Helvetica,sans-Serif" font-size="10.00">MediaKeysManager()</text>
<text text-anchor="start" x="9" y="-187" font-family="Helvetica,sans-Serif" font-size="10.00">+</text>
<text text-anchor="start" x="22" y="-187" font-family="Helvetica,sans-Serif" font-size="10.00">~MediaKeysManager()</text>
<text text-anchor="start" x="9" y="-172" font-family="Helvetica,sans-Serif" font-size="10.00">+</text>
<text text-anchor="start" x="22" y="-172" font-family="Helvetica,sans-Serif" font-size="10.00">initialize()</text>
<text text-anchor="start" x="9" y="-157" font-family="Helvetica,sans-Serif" font-size="10.00">+</text>
<text text-anchor="start" x="22" y="-157" font-family="Helvetica,sans-Serif" font-size="10.00">shutdown()</text>
<text text-anchor="start" x="9" y="-142" font-family="Helvetica,sans-Serif" font-size="10.00">+</text>
<text text-anchor="start" x="22" y="-142" font-family="Helvetica,sans-Serif" font-size="10.00">setMediaEngine()</text>
<text text-anchor="start" x="9" y="-127" font-family="Helvetica,sans-Serif" font-size="10.00">+</text>
<text text-anchor="start" x="22" y="-127" font-family="Helvetica,sans-Serif" font-size="10.00">setEnabled()</text>
<text text-anchor="start" x="9" y="-112" font-family="Helvetica,sans-Serif" font-size="10.00">+</text>
<text text-anchor="start" x="22" y="-112" font-family="Helvetica,sans-Serif" font-size="10.00">isEnabled()</text>
<text text-anchor="start" x="9" y="-97" font-family="Helvetica,sans-Serif" font-size="10.00">+</text>
<text text-anchor="start" x="22" y="-97" font-family="Helvetica,sans-Serif" font-size="10.00">updateMediaInfo()</text>
<text text-anchor="start" x="9" y="-82" font-family="Helvetica,sans-Serif" font-size="10.00">+</text>
<text text-anchor="start" x="22" y="-82" font-family="Helvetica,sans-Serif" font-size="10.00">updatePlaybackState()</text>
<text text-anchor="start" x="9" y="-67" font-family="Helvetica,sans-Serif" font-size="10.00">+</text>
<text text-anchor="start" x="22" y="-67" font-family="Helvetica,sans-Serif" font-size="10.00">isSupported()</text>
<text text-anchor="start" x="9" y="-52" font-family="Helvetica,sans-Serif" font-size="10.00">+</text>
<text text-anchor="start" x="22" y="-52" font-family="Helvetica,sans-Serif" font-size="10.00">onMediaLoaded()</text>
<text text-anchor="start" x="9" y="-37" font-family="Helvetica,sans-Serif" font-size="10.00">+</text>
<text text-anchor="start" x="22" y="-37" font-family="Helvetica,sans-Serif" font-size="10.00">onPlaybackStateChanged()</text>
<text text-anchor="start" x="9" y="-22" font-family="Helvetica,sans-Serif" font-size="10.00">+</text>
<text text-anchor="start" x="22" y="-22" font-family="Helvetica,sans-Serif" font-size="10.00">onPositionChanged()</text>
<text text-anchor="start" x="9" y="-7" font-family="Helvetica,sans-Serif" font-size="10.00">#</text>
<text text-anchor="start" x="22" y="-7" font-family="Helvetica,sans-Serif" font-size="10.00">nativeEventFilter()</text>
<polygon fill="#666666" stroke="#666666" points="5,-227 5,-227 159,-227 159,-227 5,-227"/>
<polygon fill="#666666" stroke="#666666" points="5,-212 5,-212 159,-212 159,-212 5,-212"/>
<polygon fill="none" stroke="#666666" points="5,0 5,-244 159,-244 159,0 5,0"/>
</a>
</g>
</g>
<!-- Node2 -->
<g id="Node000002" class="node">
<title>Node2</title>
<g id="a_Node000002"><a xlink:title=" ">
<polygon fill="white" stroke="transparent" points="50,-329 0,-329 0,-280 50,-280 50,-329"/>
<text text-anchor="start" x="5" y="-316.5" font-family="Helvetica,sans-Serif" font-size="10.00">QObject</text>
<text text-anchor="start" x="23" y="-301.5" font-family="Helvetica,sans-Serif" font-size="10.00"> </text>
<text text-anchor="start" x="23" y="-286.5" font-family="Helvetica,sans-Serif" font-size="10.00"> </text>
<polygon fill="#666666" stroke="#666666" points="0,-311.5 0,-311.5 50,-311.5 50,-311.5 0,-311.5"/>
<polygon fill="#666666" stroke="#666666" points="0,-296.5 0,-296.5 50,-296.5 50,-296.5 0,-296.5"/>
<polygon fill="none" stroke="#666666" points="0,-280 0,-329 50,-329 50,-280 0,-280"/>
</a>
</g>
</g>
<!-- Node2&#45;&gt;Node1 -->
<g id="edge1_Node000001_Node000002" class="edge">
<title>Node2&#45;&gt;Node1</title>
<g id="a_edge1_Node000001_Node000002"><a xlink:title=" ">
<path fill="none" stroke="#63b8ff" d="M35.52,-270.18C38,-262.33 40.79,-253.5 43.73,-244.18"/>
<polygon fill="none" stroke="#63b8ff" points="32.13,-269.31 32.45,-279.9 38.8,-271.42 32.13,-269.31"/>
</a>
</g>
</g>
<!-- Node3 -->
<g id="Node000003" class="node">
<title>Node3</title>
<g id="a_Node000003"><a xlink:title=" ">
<polygon fill="white" stroke="transparent" points="211.5,-329 68.5,-329 68.5,-280 211.5,-280 211.5,-329"/>
<text text-anchor="start" x="74" y="-316.5" font-family="Helvetica,sans-Serif" font-size="10.00">QAbstractNativeEventFilter</text>
<text text-anchor="start" x="138.5" y="-301.5" font-family="Helvetica,sans-Serif" font-size="10.00"> </text>
<text text-anchor="start" x="138.5" y="-286.5" font-family="Helvetica,sans-Serif" font-size="10.00"> </text>
<polygon fill="#666666" stroke="#666666" points="69,-311.5 69,-311.5 212,-311.5 212,-311.5 69,-311.5"/>
<polygon fill="#666666" stroke="#666666" points="69,-296.5 69,-296.5 212,-296.5 212,-296.5 69,-296.5"/>
<polygon fill="none" stroke="#666666" points="68.5,-280 68.5,-329 211.5,-329 211.5,-280 68.5,-280"/>
</a>
</g>
</g>
<!-- Node3&#45;&gt;Node1 -->
<g id="edge2_Node000001_Node000003" class="edge">
<title>Node3&#45;&gt;Node1</title>
<g id="a_edge2_Node000001_Node000003"><a xlink:title=" ">
<path fill="none" stroke="#63b8ff" d="M129.29,-270.18C126.77,-262.33 123.93,-253.5 120.94,-244.18"/>
<polygon fill="none" stroke="#63b8ff" points="126.03,-271.45 132.42,-279.9 132.69,-269.31 126.03,-271.45"/>
</a>
</g>
</g>
</g>
</svg>
