<?xml version="1.0" encoding="UTF-8" standalone="no"?>
<!DOCTYPE svg PUBLIC "-//W3C//DTD SVG 1.1//EN"
 "http://www.w3.org/Graphics/SVG/1.1/DTD/svg11.dtd">
<!-- Generated by graphviz version 2.43.0 (0)
 -->
<!-- Title: ComponentManager Pages: 1 -->
<svg width="144pt" height="262pt"
 viewBox="0.00 0.00 144.00 262.00" xmlns="http://www.w3.org/2000/svg" xmlns:xlink="http://www.w3.org/1999/xlink">
<g id="graph0" class="graph" transform="scale(1 1) rotate(0) translate(4 258)">
<title>ComponentManager</title>
<!-- Node1 -->
<g id="Node000001" class="node">
<title>Node1</title>
<g id="a_Node000001"><a xlink:title="Manages the lifecycle of application components.">
<polygon fill="#999999" stroke="transparent" points="136,-169 0,-169 0,0 136,0 136,-169"/>
<text text-anchor="start" x="18" y="-156.5" font-family="Helvetica,sans-Serif" font-size="10.00">ComponentManager</text>
<text text-anchor="start" x="66" y="-141.5" font-family="Helvetica,sans-Serif" font-size="10.00"> </text>
<text text-anchor="start" x="4" y="-126.5" font-family="Helvetica,sans-Serif" font-size="10.00">+</text>
<text text-anchor="start" x="17" y="-126.5" font-family="Helvetica,sans-Serif" font-size="10.00">ComponentManager()</text>
<text text-anchor="start" x="4" y="-111.5" font-family="Helvetica,sans-Serif" font-size="10.00">+</text>
<text text-anchor="start" x="17" y="-111.5" font-family="Helvetica,sans-Serif" font-size="10.00">~ComponentManager()</text>
<text text-anchor="start" x="4" y="-96.5" font-family="Helvetica,sans-Serif" font-size="10.00">+</text>
<text text-anchor="start" x="17" y="-96.5" font-family="Helvetica,sans-Serif" font-size="10.00">registerComponent()</text>
<text text-anchor="start" x="4" y="-81.5" font-family="Helvetica,sans-Serif" font-size="10.00">+</text>
<text text-anchor="start" x="17" y="-81.5" font-family="Helvetica,sans-Serif" font-size="10.00">initializeAll()</text>
<text text-anchor="start" x="4" y="-66.5" font-family="Helvetica,sans-Serif" font-size="10.00">+</text>
<text text-anchor="start" x="17" y="-66.5" font-family="Helvetica,sans-Serif" font-size="10.00">shutdownAll()</text>
<text text-anchor="start" x="4" y="-51.5" font-family="Helvetica,sans-Serif" font-size="10.00">+</text>
<text text-anchor="start" x="17" y="-51.5" font-family="Helvetica,sans-Serif" font-size="10.00">getComponent()</text>
<text text-anchor="start" x="4" y="-36.5" font-family="Helvetica,sans-Serif" font-size="10.00">+</text>
<text text-anchor="start" x="17" y="-36.5" font-family="Helvetica,sans-Serif" font-size="10.00">getComponent()</text>
<text text-anchor="start" x="4" y="-21.5" font-family="Helvetica,sans-Serif" font-size="10.00">+</text>
<text text-anchor="start" x="17" y="-21.5" font-family="Helvetica,sans-Serif" font-size="10.00">areAllInitialized()</text>
<text text-anchor="start" x="4" y="-6.5" font-family="Helvetica,sans-Serif" font-size="10.00">+</text>
<text text-anchor="start" x="17" y="-6.5" font-family="Helvetica,sans-Serif" font-size="10.00">getComponentNames()</text>
<polygon fill="#666666" stroke="#666666" points="0,-151.5 0,-151.5 136,-151.5 136,-151.5 0,-151.5"/>
<polygon fill="#666666" stroke="#666666" points="0,-136.5 0,-136.5 136,-136.5 136,-136.5 0,-136.5"/>
<polygon fill="none" stroke="#666666" points="0,0 0,-169 136,-169 136,0 0,0"/>
</a>
</g>
</g>
<!-- Node2 -->
<g id="Node000002" class="node">
<title>Node2</title>
<g id="a_Node000002"><a xlink:title=" ">
<polygon fill="white" stroke="transparent" points="93,-254 43,-254 43,-205 93,-205 93,-254"/>
<text text-anchor="start" x="48" y="-241.5" font-family="Helvetica,sans-Serif" font-size="10.00">QObject</text>
<text text-anchor="start" x="66" y="-226.5" font-family="Helvetica,sans-Serif" font-size="10.00"> </text>
<text text-anchor="start" x="66" y="-211.5" font-family="Helvetica,sans-Serif" font-size="10.00"> </text>
<polygon fill="#666666" stroke="#666666" points="43,-236.5 43,-236.5 93,-236.5 93,-236.5 43,-236.5"/>
<polygon fill="#666666" stroke="#666666" points="43,-221.5 43,-221.5 93,-221.5 93,-221.5 43,-221.5"/>
<polygon fill="none" stroke="#666666" points="43,-205 43,-254 93,-254 93,-205 43,-205"/>
</a>
</g>
</g>
<!-- Node2&#45;&gt;Node1 -->
<g id="edge1_Node000001_Node000002" class="edge">
<title>Node2&#45;&gt;Node1</title>
<g id="a_edge1_Node000001_Node000002"><a xlink:title=" ">
<path fill="none" stroke="#63b8ff" d="M68,-194.72C68,-186.84 68,-178.1 68,-169.1"/>
<polygon fill="none" stroke="#63b8ff" points="64.5,-194.89 68,-204.89 71.5,-194.89 64.5,-194.89"/>
</a>
</g>
</g>
</g>
</svg>
