<?xml version="1.0" encoding="UTF-8" standalone="no"?>
<!DOCTYPE svg PUBLIC "-//W3C//DTD SVG 1.1//EN"
 "http://www.w3.org/Graphics/SVG/1.1/DTD/svg11.dtd">
<!-- Generated by graphviz version 2.43.0 (0)
 -->
<!-- Title: SubtitleParserFactory::getParserForExtension Pages: 1 -->
<svg width="911pt" height="86pt"
 viewBox="0.00 0.00 911.00 86.00" xmlns="http://www.w3.org/2000/svg" xmlns:xlink="http://www.w3.org/1999/xlink">
<g id="graph0" class="graph" transform="scale(1 1) rotate(0) translate(4 82)">
<title>SubtitleParserFactory::getParserForExtension</title>
<!-- Node1 -->
<g id="Node000001" class="node">
<title>Node1</title>
<g id="a_Node000001"><a xlink:title="Get parser for file extension.">
<polygon fill="#999999" stroke="#666666" points="903,-54 772,-54 772,-24 903,-24 903,-54"/>
<text text-anchor="start" x="780" y="-42" font-family="Helvetica,sans-Serif" font-size="10.00">SubtitleParserFactory</text>
<text text-anchor="middle" x="837.5" y="-31" font-family="Helvetica,sans-Serif" font-size="10.00">::getParserForExtension</text>
</a>
</g>
</g>
<!-- Node2 -->
<g id="Node000002" class="node">
<title>Node2</title>
<g id="a_Node000002"><a xlink:href="../../d3/dcc/classSubtitleParserFactory.html#a615177f918d10dcf0e6a0587e3ef5714" target="_top" xlink:title="Get parser for file path.">
<polygon fill="white" stroke="#666666" points="715,-78 596,-78 596,-48 715,-48 715,-78"/>
<text text-anchor="start" x="604" y="-66" font-family="Helvetica,sans-Serif" font-size="10.00">SubtitleParserFactory</text>
<text text-anchor="middle" x="655.5" y="-55" font-family="Helvetica,sans-Serif" font-size="10.00">::getParserForFile</text>
</a>
</g>
</g>
<!-- Node1&#45;&gt;Node2 -->
<g id="edge1_Node000001_Node000002" class="edge">
<title>Node1&#45;&gt;Node2</title>
<g id="a_edge1_Node000001_Node000002"><a xlink:title=" ">
<path fill="none" stroke="#63b8ff" d="M761.7,-48.97C746.21,-51.04 730.09,-53.19 715.27,-55.16"/>
<polygon fill="#63b8ff" stroke="#63b8ff" points="762.32,-52.42 771.77,-47.63 761.4,-45.48 762.32,-52.42"/>
</a>
</g>
</g>
<!-- Node6 -->
<g id="Node000006" class="node">
<title>Node6</title>
<g id="a_Node000006"><a xlink:href="../../dd/d8b/classSubtitleManager.html#a608442cfbbc105168de564e34f98d13c" target="_top" xlink:title="Load subtitle from content.">
<polygon fill="white" stroke="#666666" points="736,-30 575,-30 575,0 736,0 736,-30"/>
<text text-anchor="start" x="583" y="-18" font-family="Helvetica,sans-Serif" font-size="10.00">SubtitleManager::loadSubtitle</text>
<text text-anchor="middle" x="655.5" y="-7" font-family="Helvetica,sans-Serif" font-size="10.00">Content</text>
</a>
</g>
</g>
<!-- Node1&#45;&gt;Node6 -->
<g id="edge6_Node000001_Node000006" class="edge">
<title>Node1&#45;&gt;Node6</title>
<g id="a_edge6_Node000001_Node000006"><a xlink:title=" ">
<path fill="none" stroke="#63b8ff" d="M761.59,-29.01C753.15,-27.89 744.53,-26.74 736.03,-25.6"/>
<polygon fill="#63b8ff" stroke="#63b8ff" points="761.4,-32.52 771.77,-30.37 762.32,-25.58 761.4,-32.52"/>
</a>
</g>
</g>
<!-- Node3 -->
<g id="Node000003" class="node">
<title>Node3</title>
<g id="a_Node000003"><a xlink:href="../../dd/d8b/classSubtitleManager.html#a8b6d9ea90c799260111c17b60b4d4e2c" target="_top" xlink:title="Load subtitle file.">
<polygon fill="white" stroke="#666666" points="360,-71.5 181,-71.5 181,-52.5 360,-52.5 360,-71.5"/>
<text text-anchor="middle" x="270.5" y="-59.5" font-family="Helvetica,sans-Serif" font-size="10.00">SubtitleManager::loadSubtitleFile</text>
</a>
</g>
</g>
<!-- Node2&#45;&gt;Node3 -->
<g id="edge2_Node000002_Node000003" class="edge">
<title>Node2&#45;&gt;Node3</title>
<g id="a_edge2_Node000002_Node000003"><a xlink:title=" ">
<path fill="none" stroke="#63b8ff" d="M585.33,-64.39C570.07,-64.65 553.99,-64.87 539,-65 475.45,-65.55 459.55,-65.77 396,-65 384.43,-64.86 372.26,-64.65 360.25,-64.4"/>
<polygon fill="#63b8ff" stroke="#63b8ff" points="585.81,-67.89 595.74,-64.21 585.69,-60.89 585.81,-67.89"/>
</a>
</g>
</g>
<!-- Node5 -->
<g id="Node000005" class="node">
<title>Node5</title>
<g id="a_Node000005"><a xlink:href="../../dd/d8b/classSubtitleManager.html#a73837b0bacbedf46cc1977a8d0dcefae" target="_top" xlink:title="Validate subtitle file for security.">
<polygon fill="white" stroke="#666666" points="539,-56 396,-56 396,-26 539,-26 539,-56"/>
<text text-anchor="start" x="404" y="-44" font-family="Helvetica,sans-Serif" font-size="10.00">SubtitleManager::validate</text>
<text text-anchor="middle" x="467.5" y="-33" font-family="Helvetica,sans-Serif" font-size="10.00">SubtitleFile</text>
</a>
</g>
</g>
<!-- Node2&#45;&gt;Node5 -->
<g id="edge4_Node000002_Node000005" class="edge">
<title>Node2&#45;&gt;Node5</title>
<g id="a_edge4_Node000002_Node000005"><a xlink:title=" ">
<path fill="none" stroke="#63b8ff" d="M585.59,-54.85C570.45,-53.06 554.4,-51.16 539.2,-49.36"/>
<polygon fill="#63b8ff" stroke="#63b8ff" points="585.56,-58.37 595.9,-56.07 586.38,-51.42 585.56,-58.37"/>
</a>
</g>
</g>
<!-- Node4 -->
<g id="Node000004" class="node">
<title>Node4</title>
<g id="a_Node000004"><a xlink:href="../../dd/d8b/classSubtitleManager.html#a09a785b7bd91cada546078cbe9337eda" target="_top" xlink:title="Handle media loaded.">
<polygon fill="white" stroke="#666666" points="145,-77 0,-77 0,-47 145,-47 145,-77"/>
<text text-anchor="start" x="8" y="-65" font-family="Helvetica,sans-Serif" font-size="10.00">SubtitleManager::onMedia</text>
<text text-anchor="middle" x="72.5" y="-54" font-family="Helvetica,sans-Serif" font-size="10.00">Loaded</text>
</a>
</g>
</g>
<!-- Node3&#45;&gt;Node4 -->
<g id="edge3_Node000003_Node000004" class="edge">
<title>Node3&#45;&gt;Node4</title>
<g id="a_edge3_Node000003_Node000004"><a xlink:title=" ">
<path fill="none" stroke="#63b8ff" d="M170.83,-62C162.19,-62 153.56,-62 145.2,-62"/>
<polygon fill="#63b8ff" stroke="#63b8ff" points="170.96,-65.5 180.96,-62 170.96,-58.5 170.96,-65.5"/>
</a>
</g>
</g>
<!-- Node5&#45;&gt;Node3 -->
<g id="edge5_Node000005_Node000003" class="edge">
<title>Node5&#45;&gt;Node3</title>
<g id="a_edge5_Node000005_Node000003"><a xlink:title=" ">
<path fill="none" stroke="#63b8ff" d="M385.87,-49.68C377.3,-50.61 368.56,-51.55 359.91,-52.48"/>
<polygon fill="#63b8ff" stroke="#63b8ff" points="386.26,-53.16 395.82,-48.61 385.51,-46.2 386.26,-53.16"/>
</a>
</g>
</g>
</g>
</svg>
