<?xml version="1.0" encoding="UTF-8" standalone="no"?>
<!DOCTYPE svg PUBLIC "-//W3C//DTD SVG 1.1//EN"
 "http://www.w3.org/Graphics/SVG/1.1/DTD/svg11.dtd">
<!-- Generated by graphviz version 2.43.0 (0)
 -->
<!-- Title: SubtitleParserFactory::getParserForFile Pages: 1 -->
<svg width="702pt" height="59pt"
 viewBox="0.00 0.00 702.00 59.00" xmlns="http://www.w3.org/2000/svg" xmlns:xlink="http://www.w3.org/1999/xlink">
<g id="graph0" class="graph" transform="scale(1 1) rotate(0) translate(4 55)">
<title>SubtitleParserFactory::getParserForFile</title>
<!-- Node1 -->
<g id="Node000001" class="node">
<title>Node1</title>
<g id="a_Node000001"><a xlink:title="Get parser for file path.">
<polygon fill="#999999" stroke="#666666" points="694,-51 575,-51 575,-21 694,-21 694,-51"/>
<text text-anchor="start" x="583" y="-39" font-family="Helvetica,sans-Serif" font-size="10.00">SubtitleParserFactory</text>
<text text-anchor="middle" x="634.5" y="-28" font-family="Helvetica,sans-Serif" font-size="10.00">::getParserForFile</text>
</a>
</g>
</g>
<!-- Node2 -->
<g id="Node000002" class="node">
<title>Node2</title>
<g id="a_Node000002"><a xlink:href="../../dd/d8b/classSubtitleManager.html#a8b6d9ea90c799260111c17b60b4d4e2c" target="_top" xlink:title="Load subtitle file.">
<polygon fill="white" stroke="#666666" points="360,-45.5 181,-45.5 181,-26.5 360,-26.5 360,-45.5"/>
<text text-anchor="middle" x="270.5" y="-33.5" font-family="Helvetica,sans-Serif" font-size="10.00">SubtitleManager::loadSubtitleFile</text>
</a>
</g>
</g>
<!-- Node1&#45;&gt;Node2 -->
<g id="edge1_Node000001_Node000002" class="edge">
<title>Node1&#45;&gt;Node2</title>
<g id="a_edge1_Node000001_Node000002"><a xlink:title=" ">
<path fill="none" stroke="#63b8ff" d="M564.69,-38.44C556.04,-38.67 547.32,-38.87 539,-39 475.45,-40.01 459.55,-39.77 396,-39 384.43,-38.86 372.26,-38.65 360.25,-38.4"/>
<polygon fill="#63b8ff" stroke="#63b8ff" points="564.88,-41.94 574.78,-38.15 564.68,-34.94 564.88,-41.94"/>
</a>
</g>
</g>
<!-- Node4 -->
<g id="Node000004" class="node">
<title>Node4</title>
<g id="a_Node000004"><a xlink:href="../../dd/d8b/classSubtitleManager.html#a73837b0bacbedf46cc1977a8d0dcefae" target="_top" xlink:title="Validate subtitle file for security.">
<polygon fill="white" stroke="#666666" points="539,-30 396,-30 396,0 539,0 539,-30"/>
<text text-anchor="start" x="404" y="-18" font-family="Helvetica,sans-Serif" font-size="10.00">SubtitleManager::validate</text>
<text text-anchor="middle" x="467.5" y="-7" font-family="Helvetica,sans-Serif" font-size="10.00">SubtitleFile</text>
</a>
</g>
</g>
<!-- Node1&#45;&gt;Node4 -->
<g id="edge3_Node000001_Node000004" class="edge">
<title>Node1&#45;&gt;Node4</title>
<g id="a_edge3_Node000001_Node000004"><a xlink:title=" ">
<path fill="none" stroke="#63b8ff" d="M564.67,-27.24C556.22,-26.16 547.57,-25.06 539.09,-23.98"/>
<polygon fill="#63b8ff" stroke="#63b8ff" points="564.5,-30.75 574.86,-28.54 565.38,-23.8 564.5,-30.75"/>
</a>
</g>
</g>
<!-- Node3 -->
<g id="Node000003" class="node">
<title>Node3</title>
<g id="a_Node000003"><a xlink:href="../../dd/d8b/classSubtitleManager.html#a09a785b7bd91cada546078cbe9337eda" target="_top" xlink:title="Handle media loaded.">
<polygon fill="white" stroke="#666666" points="145,-51 0,-51 0,-21 145,-21 145,-51"/>
<text text-anchor="start" x="8" y="-39" font-family="Helvetica,sans-Serif" font-size="10.00">SubtitleManager::onMedia</text>
<text text-anchor="middle" x="72.5" y="-28" font-family="Helvetica,sans-Serif" font-size="10.00">Loaded</text>
</a>
</g>
</g>
<!-- Node2&#45;&gt;Node3 -->
<g id="edge2_Node000002_Node000003" class="edge">
<title>Node2&#45;&gt;Node3</title>
<g id="a_edge2_Node000002_Node000003"><a xlink:title=" ">
<path fill="none" stroke="#63b8ff" d="M170.83,-36C162.19,-36 153.56,-36 145.2,-36"/>
<polygon fill="#63b8ff" stroke="#63b8ff" points="170.96,-39.5 180.96,-36 170.96,-32.5 170.96,-39.5"/>
</a>
</g>
</g>
<!-- Node4&#45;&gt;Node2 -->
<g id="edge4_Node000004_Node000002" class="edge">
<title>Node4&#45;&gt;Node2</title>
<g id="a_edge4_Node000004_Node000002"><a xlink:title=" ">
<path fill="none" stroke="#63b8ff" d="M385.87,-23.68C377.3,-24.61 368.56,-25.55 359.91,-26.48"/>
<polygon fill="#63b8ff" stroke="#63b8ff" points="386.26,-27.16 395.82,-22.61 385.51,-20.2 386.26,-27.16"/>
</a>
</g>
</g>
</g>
</svg>
