<?xml version="1.0" encoding="UTF-8" standalone="no"?>
<!DOCTYPE svg PUBLIC "-//W3C//DTD SVG 1.1//EN"
 "http://www.w3.org/Graphics/SVG/1.1/DTD/svg11.dtd">
<!-- Generated by graphviz version 2.43.0 (0)
 -->
<!-- Title: src Pages: 1 -->
<svg width="846pt" height="100pt"
 viewBox="0.00 0.00 846.00 99.88" xmlns="http://www.w3.org/2000/svg" xmlns:xlink="http://www.w3.org/1999/xlink">
<g id="graph0" class="graph" transform="scale(1 1) rotate(0) translate(4 95.88)">
<title>src</title>
<g id="clust1" class="cluster">
<title>clusterdir_68267d1309a1af8e8297ef4c3efbcdba</title>
<g id="a_clust1"><a xlink:href="dir_68267d1309a1af8e8297ef4c3efbcdba.html" target="_top">
<polygon fill="#edf0f7" stroke="#404040" stroke-width="2" points="8,-48.88 8,-83.88 830,-83.88 830,-48.88 8,-48.88"/>
</a>
</g>
</g>
<!-- dir_68267d1309a1af8e8297ef4c3efbcdba -->
<g id="node1" class="node">
<title>dir_68267d1309a1af8e8297ef4c3efbcdba</title>
<text text-anchor="middle" x="806" y="-63.88" font-family="Helvetica,sans-Serif" font-size="10.00">src</text>
</g>
<!-- dir_d44c64559bbebec7f509842c48db8b23 -->
<g id="node14" class="node">
<title>dir_d44c64559bbebec7f509842c48db8b23</title>
<g id="a_node14"><a xlink:href="dir_d44c64559bbebec7f509842c48db8b23.html" target="_top" xlink:title="include">
<polygon fill="#edf0f7" stroke="red" points="483,-20.88 431,-20.88 431,-1.88 483,-1.88 483,-20.88"/>
<text text-anchor="middle" x="457" y="-8.88" font-family="Helvetica,sans-Serif" font-size="10.00">include</text>
</a>
</g>
</g>
<!-- dir_68267d1309a1af8e8297ef4c3efbcdba&#45;&gt;dir_d44c64559bbebec7f509842c48db8b23 -->
<g id="edge1" class="edge">
<title>dir_68267d1309a1af8e8297ef4c3efbcdba&#45;&gt;dir_d44c64559bbebec7f509842c48db8b23</title>
<g id="a_edge1"><a xlink:href="dir_000017_000008.html" target="_top">
<path fill="none" stroke="#63b8ff" d="M795.88,-56.78C791.81,-53.78 786.93,-50.71 782,-48.88 729.78,-29.39 566.48,-18.33 493.21,-14.22"/>
<polygon fill="#63b8ff" stroke="#63b8ff" points="493.26,-10.72 483.08,-13.67 492.87,-17.71 493.26,-10.72"/>
</a>
</g>
<g id="a_edge1&#45;headlabel"><a xlink:href="dir_000017_000008.html" target="_top" xlink:title="119">
<text text-anchor="middle" x="497" y="-5.58" font-family="Helvetica,sans-Serif" font-size="10.00" fill="#63b8ff">119</text>
</a>
</g>
</g>
<!-- dir_128a93aeeff33a8423f079f46929dbb3 -->
<g id="node2" class="node">
<title>dir_128a93aeeff33a8423f079f46929dbb3</title>
<g id="a_node2"><a xlink:href="dir_128a93aeeff33a8423f079f46929dbb3.html" target="_top" xlink:title="ai">
<polygon fill="#a2b4d6" stroke="#404040" points="772.5,-75.88 743.5,-75.88 743.5,-56.88 772.5,-56.88 772.5,-75.88"/>
<text text-anchor="middle" x="758" y="-63.88" font-family="Helvetica,sans-Serif" font-size="10.00">ai</text>
</a>
</g>
</g>
<!-- dir_128a93aeeff33a8423f079f46929dbb3&#45;&gt;dir_d44c64559bbebec7f509842c48db8b23 -->
<g id="edge2" class="edge">
<title>dir_128a93aeeff33a8423f079f46929dbb3&#45;&gt;dir_d44c64559bbebec7f509842c48db8b23</title>
<g id="a_edge2"><a xlink:href="dir_000001_000008.html" target="_top">
<path fill="none" stroke="#63b8ff" d="M747.86,-56.83C743.79,-53.84 738.91,-50.76 734,-48.88 652.07,-17.41 547.58,-12.19 493.35,-11.83"/>
<polygon fill="#63b8ff" stroke="#63b8ff" points="493.2,-8.33 483.19,-11.82 493.19,-15.33 493.2,-8.33"/>
</a>
</g>
<g id="a_edge2&#45;headlabel"><a xlink:href="dir_000001_000008.html" target="_top" xlink:title="5">
<text text-anchor="middle" x="496.79" y="-3" font-family="Helvetica,sans-Serif" font-size="10.00" fill="#63b8ff">5</text>
</a>
</g>
</g>
<!-- dir_a63dedf81f1e5ea1d42bb45ef831eb8c -->
<g id="node3" class="node">
<title>dir_a63dedf81f1e5ea1d42bb45ef831eb8c</title>
<g id="a_node3"><a xlink:href="dir_a63dedf81f1e5ea1d42bb45ef831eb8c.html" target="_top" xlink:title="audio">
<polygon fill="#a2b4d6" stroke="#404040" points="725,-75.88 681,-75.88 681,-56.88 725,-56.88 725,-75.88"/>
<text text-anchor="middle" x="703" y="-63.88" font-family="Helvetica,sans-Serif" font-size="10.00">audio</text>
</a>
</g>
</g>
<!-- dir_a63dedf81f1e5ea1d42bb45ef831eb8c&#45;&gt;dir_d44c64559bbebec7f509842c48db8b23 -->
<g id="edge3" class="edge">
<title>dir_a63dedf81f1e5ea1d42bb45ef831eb8c&#45;&gt;dir_d44c64559bbebec7f509842c48db8b23</title>
<g id="a_edge3"><a xlink:href="dir_000003_000008.html" target="_top">
<path fill="none" stroke="#63b8ff" d="M689.23,-56.83C684,-53.91 677.89,-50.88 672,-48.88 611.25,-28.16 536.68,-18.88 493.23,-14.97"/>
<polygon fill="#63b8ff" stroke="#63b8ff" points="493.4,-11.47 483.14,-14.1 492.81,-18.44 493.4,-11.47"/>
</a>
</g>
<g id="a_edge3&#45;headlabel"><a xlink:href="dir_000003_000008.html" target="_top" xlink:title="7">
<text text-anchor="middle" x="497.23" y="-6.44" font-family="Helvetica,sans-Serif" font-size="10.00" fill="#63b8ff">7</text>
</a>
</g>
</g>
<!-- dir_aebb8dcc11953d78e620bbef0b9e2183 -->
<g id="node4" class="node">
<title>dir_aebb8dcc11953d78e620bbef0b9e2183</title>
<g id="a_node4"><a xlink:href="dir_aebb8dcc11953d78e620bbef0b9e2183.html" target="_top" xlink:title="core">
<polygon fill="#a2b4d6" stroke="#404040" points="663,-75.88 625,-75.88 625,-56.88 663,-56.88 663,-75.88"/>
<text text-anchor="middle" x="644" y="-63.88" font-family="Helvetica,sans-Serif" font-size="10.00">core</text>
</a>
</g>
</g>
<!-- dir_aebb8dcc11953d78e620bbef0b9e2183&#45;&gt;dir_d44c64559bbebec7f509842c48db8b23 -->
<g id="edge4" class="edge">
<title>dir_aebb8dcc11953d78e620bbef0b9e2183&#45;&gt;dir_d44c64559bbebec7f509842c48db8b23</title>
<g id="a_edge4"><a xlink:href="dir_000004_000008.html" target="_top">
<path fill="none" stroke="#63b8ff" d="M631.32,-56.79C626.66,-53.94 621.24,-50.96 616,-48.88 575.4,-32.7 525.98,-22.77 493.12,-17.42"/>
<polygon fill="#63b8ff" stroke="#63b8ff" points="493.49,-13.94 483.07,-15.85 492.4,-20.85 493.49,-13.94"/>
</a>
</g>
<g id="a_edge4&#45;headlabel"><a xlink:href="dir_000004_000008.html" target="_top" xlink:title="9">
<text text-anchor="middle" x="497.48" y="-9.19" font-family="Helvetica,sans-Serif" font-size="10.00" fill="#63b8ff">9</text>
</a>
</g>
</g>
<!-- dir_c1be8d27e7f84178e95f152701110b19 -->
<g id="node5" class="node">
<title>dir_c1be8d27e7f84178e95f152701110b19</title>
<g id="a_node5"><a xlink:href="dir_c1be8d27e7f84178e95f152701110b19.html" target="_top" xlink:title="data">
<polygon fill="#a2b4d6" stroke="#404040" points="607,-75.88 569,-75.88 569,-56.88 607,-56.88 607,-75.88"/>
<text text-anchor="middle" x="588" y="-63.88" font-family="Helvetica,sans-Serif" font-size="10.00">data</text>
</a>
</g>
</g>
<!-- dir_c1be8d27e7f84178e95f152701110b19&#45;&gt;dir_d44c64559bbebec7f509842c48db8b23 -->
<g id="edge5" class="edge">
<title>dir_c1be8d27e7f84178e95f152701110b19&#45;&gt;dir_d44c64559bbebec7f509842c48db8b23</title>
<g id="a_edge5"><a xlink:href="dir_000006_000008.html" target="_top">
<path fill="none" stroke="#63b8ff" d="M574.61,-56.78C570.07,-54.06 564.91,-51.17 560,-48.88 538.38,-38.79 513.15,-29.8 493.07,-23.27"/>
<polygon fill="#63b8ff" stroke="#63b8ff" points="493.96,-19.89 483.37,-20.18 491.83,-26.55 493.96,-19.89"/>
</a>
</g>
<g id="a_edge5&#45;headlabel"><a xlink:href="dir_000006_000008.html" target="_top" xlink:title="14">
<text text-anchor="middle" x="498.25" y="-15.77" font-family="Helvetica,sans-Serif" font-size="10.00" fill="#63b8ff">14</text>
</a>
</g>
</g>
<!-- dir_efcdea697c9bde70f5246c1fbdb5a5e5 -->
<g id="node6" class="node">
<title>dir_efcdea697c9bde70f5246c1fbdb5a5e5</title>
<g id="a_node6"><a xlink:href="dir_efcdea697c9bde70f5246c1fbdb5a5e5.html" target="_top" xlink:title="media">
<polygon fill="#a2b4d6" stroke="#404040" points="550.5,-75.88 503.5,-75.88 503.5,-56.88 550.5,-56.88 550.5,-75.88"/>
<text text-anchor="middle" x="527" y="-63.88" font-family="Helvetica,sans-Serif" font-size="10.00">media</text>
</a>
</g>
</g>
<!-- dir_efcdea697c9bde70f5246c1fbdb5a5e5&#45;&gt;dir_d44c64559bbebec7f509842c48db8b23 -->
<g id="edge6" class="edge">
<title>dir_efcdea697c9bde70f5246c1fbdb5a5e5&#45;&gt;dir_d44c64559bbebec7f509842c48db8b23</title>
<g id="a_edge6"><a xlink:href="dir_000010_000008.html" target="_top">
<path fill="none" stroke="#63b8ff" d="M515.75,-56.86C505.2,-48.87 489.2,-36.76 476.56,-27.18"/>
<polygon fill="#63b8ff" stroke="#63b8ff" points="478.54,-24.29 468.45,-21.05 474.31,-29.87 478.54,-24.29"/>
</a>
</g>
<g id="a_edge6&#45;headlabel"><a xlink:href="dir_000010_000008.html" target="_top" xlink:title="7">
<text text-anchor="middle" x="483.12" y="-21.7" font-family="Helvetica,sans-Serif" font-size="10.00" fill="#63b8ff">7</text>
</a>
</g>
</g>
<!-- dir_fc4c7f03e1a69a98c370fae55a743828 -->
<g id="node7" class="node">
<title>dir_fc4c7f03e1a69a98c370fae55a743828</title>
<g id="a_node7"><a xlink:href="dir_fc4c7f03e1a69a98c370fae55a743828.html" target="_top" xlink:title="network">
<polygon fill="#a2b4d6" stroke="#404040" points="485,-75.88 429,-75.88 429,-56.88 485,-56.88 485,-75.88"/>
<text text-anchor="middle" x="457" y="-63.88" font-family="Helvetica,sans-Serif" font-size="10.00">network</text>
</a>
</g>
</g>
<!-- dir_fc4c7f03e1a69a98c370fae55a743828&#45;&gt;dir_d44c64559bbebec7f509842c48db8b23 -->
<g id="edge7" class="edge">
<title>dir_fc4c7f03e1a69a98c370fae55a743828&#45;&gt;dir_d44c64559bbebec7f509842c48db8b23</title>
<g id="a_edge7"><a xlink:href="dir_000012_000008.html" target="_top">
<path fill="none" stroke="#63b8ff" d="M457,-56.62C457,-49.68 457,-39.72 457,-31.01"/>
<polygon fill="#63b8ff" stroke="#63b8ff" points="460.5,-30.97 457,-20.97 453.5,-30.97 460.5,-30.97"/>
</a>
</g>
<g id="a_edge7&#45;headlabel"><a xlink:href="dir_000012_000008.html" target="_top" xlink:title="6">
<text text-anchor="middle" x="463.34" y="-32.06" font-family="Helvetica,sans-Serif" font-size="10.00" fill="#63b8ff">6</text>
</a>
</g>
</g>
<!-- dir_4b68c2fef3e151b6b93d5e93b14f1857 -->
<g id="node8" class="node">
<title>dir_4b68c2fef3e151b6b93d5e93b14f1857</title>
<g id="a_node8"><a xlink:href="dir_4b68c2fef3e151b6b93d5e93b14f1857.html" target="_top" xlink:title="platform">
<polygon fill="#a2b4d6" stroke="#404040" points="410.5,-75.88 351.5,-75.88 351.5,-56.88 410.5,-56.88 410.5,-75.88"/>
<text text-anchor="middle" x="381" y="-63.88" font-family="Helvetica,sans-Serif" font-size="10.00">platform</text>
</a>
</g>
</g>
<!-- dir_4b68c2fef3e151b6b93d5e93b14f1857&#45;&gt;dir_d44c64559bbebec7f509842c48db8b23 -->
<g id="edge8" class="edge">
<title>dir_4b68c2fef3e151b6b93d5e93b14f1857&#45;&gt;dir_d44c64559bbebec7f509842c48db8b23</title>
<g id="a_edge8"><a xlink:href="dir_000014_000008.html" target="_top">
<path fill="none" stroke="#63b8ff" d="M393.21,-56.86C404.78,-48.8 422.38,-36.52 436.16,-26.91"/>
<polygon fill="#63b8ff" stroke="#63b8ff" points="438.37,-29.64 444.57,-21.05 434.36,-23.9 438.37,-29.64"/>
</a>
</g>
<g id="a_edge8&#45;headlabel"><a xlink:href="dir_000014_000008.html" target="_top" xlink:title="3">
<text text-anchor="middle" x="437.04" y="-31.52" font-family="Helvetica,sans-Serif" font-size="10.00" fill="#63b8ff">3</text>
</a>
</g>
</g>
<!-- dir_8a6c31bbbfb30065ee9a683ead3fe21a -->
<g id="node9" class="node">
<title>dir_8a6c31bbbfb30065ee9a683ead3fe21a</title>
<g id="a_node9"><a xlink:href="dir_8a6c31bbbfb30065ee9a683ead3fe21a.html" target="_top" xlink:title="security">
<polygon fill="#a2b4d6" stroke="#404040" points="333,-75.88 277,-75.88 277,-56.88 333,-56.88 333,-75.88"/>
<text text-anchor="middle" x="305" y="-63.88" font-family="Helvetica,sans-Serif" font-size="10.00">security</text>
</a>
</g>
</g>
<!-- dir_8a6c31bbbfb30065ee9a683ead3fe21a&#45;&gt;dir_d44c64559bbebec7f509842c48db8b23 -->
<g id="edge9" class="edge">
<title>dir_8a6c31bbbfb30065ee9a683ead3fe21a&#45;&gt;dir_d44c64559bbebec7f509842c48db8b23</title>
<g id="a_edge9"><a xlink:href="dir_000016_000008.html" target="_top">
<path fill="none" stroke="#63b8ff" d="M323.79,-56.78C329.87,-54.11 336.67,-51.26 343,-48.88 368.81,-39.17 398.49,-29.72 421.09,-22.87"/>
<polygon fill="#63b8ff" stroke="#63b8ff" points="422.37,-26.14 430.94,-19.91 420.36,-19.43 422.37,-26.14"/>
</a>
</g>
<g id="a_edge9&#45;headlabel"><a xlink:href="dir_000016_000008.html" target="_top" xlink:title="2">
<text text-anchor="middle" x="419.74" y="-27.39" font-family="Helvetica,sans-Serif" font-size="10.00" fill="#63b8ff">2</text>
</a>
</g>
</g>
<!-- dir_b2c02f3fa217e9fe3bce5cc91d02f91a -->
<g id="node10" class="node">
<title>dir_b2c02f3fa217e9fe3bce5cc91d02f91a</title>
<g id="a_node10"><a xlink:href="dir_b2c02f3fa217e9fe3bce5cc91d02f91a.html" target="_top" xlink:title="stability">
<polygon fill="#a2b4d6" stroke="#404040" points="259,-75.88 203,-75.88 203,-56.88 259,-56.88 259,-75.88"/>
<text text-anchor="middle" x="231" y="-63.88" font-family="Helvetica,sans-Serif" font-size="10.00">stability</text>
</a>
</g>
</g>
<!-- dir_b2c02f3fa217e9fe3bce5cc91d02f91a&#45;&gt;dir_d44c64559bbebec7f509842c48db8b23 -->
<g id="edge10" class="edge">
<title>dir_b2c02f3fa217e9fe3bce5cc91d02f91a&#45;&gt;dir_d44c64559bbebec7f509842c48db8b23</title>
<g id="a_edge10"><a xlink:href="dir_000019_000008.html" target="_top">
<path fill="none" stroke="#63b8ff" d="M248,-56.82C254.18,-53.97 261.29,-50.99 268,-48.88 319.86,-32.54 382.14,-22.23 420.65,-16.88"/>
<polygon fill="#63b8ff" stroke="#63b8ff" points="421.41,-20.31 430.86,-15.5 420.48,-13.37 421.41,-20.31"/>
</a>
</g>
<g id="a_edge10&#45;headlabel"><a xlink:href="dir_000019_000008.html" target="_top" xlink:title="1">
<text text-anchor="middle" x="418.23" y="-21.1" font-family="Helvetica,sans-Serif" font-size="10.00" fill="#63b8ff">1</text>
</a>
</g>
</g>
<!-- dir_64796fc43eb57c22dde6795632e36e74 -->
<g id="node11" class="node">
<title>dir_64796fc43eb57c22dde6795632e36e74</title>
<g id="a_node11"><a xlink:href="dir_64796fc43eb57c22dde6795632e36e74.html" target="_top" xlink:title="subtitles">
<polygon fill="#a2b4d6" stroke="#404040" points="184.5,-75.88 125.5,-75.88 125.5,-56.88 184.5,-56.88 184.5,-75.88"/>
<text text-anchor="middle" x="155" y="-63.88" font-family="Helvetica,sans-Serif" font-size="10.00">subtitles</text>
</a>
</g>
</g>
<!-- dir_64796fc43eb57c22dde6795632e36e74&#45;&gt;dir_d44c64559bbebec7f509842c48db8b23 -->
<g id="edge11" class="edge">
<title>dir_64796fc43eb57c22dde6795632e36e74&#45;&gt;dir_d44c64559bbebec7f509842c48db8b23</title>
<g id="a_edge11"><a xlink:href="dir_000021_000008.html" target="_top">
<path fill="none" stroke="#63b8ff" d="M172.51,-56.81C179.11,-53.89 186.77,-50.87 194,-48.88 273.03,-27.08 369.19,-17.95 420.53,-14.41"/>
<polygon fill="#63b8ff" stroke="#63b8ff" points="421.04,-17.89 430.78,-13.74 420.58,-10.9 421.04,-17.89"/>
</a>
</g>
<g id="a_edge11&#45;headlabel"><a xlink:href="dir_000021_000008.html" target="_top" xlink:title="8">
<text text-anchor="middle" x="417.64" y="-18.45" font-family="Helvetica,sans-Serif" font-size="10.00" fill="#63b8ff">8</text>
</a>
</g>
</g>
<!-- dir_da5c6b39c0a2f54e57df6799511cd3ab -->
<g id="node12" class="node">
<title>dir_da5c6b39c0a2f54e57df6799511cd3ab</title>
<g id="a_node12"><a xlink:href="dir_da5c6b39c0a2f54e57df6799511cd3ab.html" target="_top" xlink:title="ui">
<polygon fill="#a2b4d6" stroke="#404040" points="107.5,-75.88 78.5,-75.88 78.5,-56.88 107.5,-56.88 107.5,-75.88"/>
<text text-anchor="middle" x="93" y="-63.88" font-family="Helvetica,sans-Serif" font-size="10.00">ui</text>
</a>
</g>
</g>
<!-- dir_da5c6b39c0a2f54e57df6799511cd3ab&#45;&gt;dir_d44c64559bbebec7f509842c48db8b23 -->
<g id="edge12" class="edge">
<title>dir_da5c6b39c0a2f54e57df6799511cd3ab&#45;&gt;dir_d44c64559bbebec7f509842c48db8b23</title>
<g id="a_edge12"><a xlink:href="dir_000023_000008.html" target="_top">
<path fill="none" stroke="#63b8ff" d="M103.12,-56.76C107.18,-53.77 112.07,-50.7 117,-48.88 172.1,-28.47 345.26,-17.8 420.97,-14.01"/>
<polygon fill="#63b8ff" stroke="#63b8ff" points="421.17,-17.5 430.98,-13.52 420.82,-10.51 421.17,-17.5"/>
</a>
</g>
<g id="a_edge12&#45;headlabel"><a xlink:href="dir_000023_000008.html" target="_top" xlink:title="53">
<text text-anchor="middle" x="417.71" y="-18.01" font-family="Helvetica,sans-Serif" font-size="10.00" fill="#63b8ff">53</text>
</a>
</g>
</g>
<!-- dir_e97914cf306b9746d2b591eedf95e05b -->
<g id="node13" class="node">
<title>dir_e97914cf306b9746d2b591eedf95e05b</title>
<g id="a_node13"><a xlink:href="dir_e97914cf306b9746d2b591eedf95e05b.html" target="_top" xlink:title="video">
<polygon fill="#a2b4d6" stroke="#404040" points="60,-75.88 16,-75.88 16,-56.88 60,-56.88 60,-75.88"/>
<text text-anchor="middle" x="38" y="-63.88" font-family="Helvetica,sans-Serif" font-size="10.00">video</text>
</a>
</g>
</g>
<!-- dir_e97914cf306b9746d2b591eedf95e05b&#45;&gt;dir_d44c64559bbebec7f509842c48db8b23 -->
<g id="edge13" class="edge">
<title>dir_e97914cf306b9746d2b591eedf95e05b&#45;&gt;dir_d44c64559bbebec7f509842c48db8b23</title>
<g id="a_edge13"><a xlink:href="dir_000025_000008.html" target="_top">
<path fill="none" stroke="#63b8ff" d="M51.85,-56.77C57.31,-53.77 63.76,-50.7 70,-48.88 135.22,-29.76 337.39,-18.13 420.62,-14.04"/>
<polygon fill="#63b8ff" stroke="#63b8ff" points="421.04,-17.52 430.86,-13.55 420.7,-10.53 421.04,-17.52"/>
</a>
</g>
<g id="a_edge13&#45;headlabel"><a xlink:href="dir_000025_000008.html" target="_top" xlink:title="2">
<text text-anchor="middle" x="417.59" y="-18.03" font-family="Helvetica,sans-Serif" font-size="10.00" fill="#63b8ff">2</text>
</a>
</g>
</g>
</g>
</svg>
