<?xml version="1.0" encoding="UTF-8" standalone="no"?>
<!DOCTYPE svg PUBLIC "-//W3C//DTD SVG 1.1//EN"
 "http://www.w3.org/Graphics/SVG/1.1/DTD/svg11.dtd">
<!-- Generated by graphviz version 2.43.0 (0)
 -->
<!-- Title: Graphical Class Hierarchy Pages: 1 -->
<svg width="231pt" height="471pt"
 viewBox="0.00 0.00 231.00 471.00" xmlns="http://www.w3.org/2000/svg" xmlns:xlink="http://www.w3.org/1999/xlink">
<g id="graph0" class="graph" transform="scale(1 1) rotate(0) translate(4 467)">
<title>Graphical Class Hierarchy</title>
<!-- Node0 -->
<g id="Node000000" class="node">
<title>Node0</title>
<g id="a_Node000000"><a xlink:title=" ">
<polygon fill="#e0e0e0" stroke="#999999" points="59,-241 0,-241 0,-222 59,-222 59,-241"/>
<text text-anchor="middle" x="29.5" y="-229" font-family="Helvetica,sans-Serif" font-size="10.00">QWidget</text>
</a>
</g>
</g>
<!-- Node1 -->
<g id="Node000001" class="node">
<title>Node1</title>
<g id="a_Node000001"><a xlink:href="d9/d4c/classAudioEqualizerWidget.html" target="_top" xlink:title="Widget for audio equalizer controls.">
<polygon fill="white" stroke="#666666" points="221,-463 97,-463 97,-444 221,-444 221,-463"/>
<text text-anchor="middle" x="159" y="-451" font-family="Helvetica,sans-Serif" font-size="10.00">AudioEqualizerWidget</text>
</a>
</g>
</g>
<!-- Node0&#45;&gt;Node1 -->
<g id="edge61_Node000000_Node000001" class="edge">
<title>Node0&#45;&gt;Node1</title>
<g id="a_edge61_Node000000_Node000001"><a xlink:title=" ">
<path fill="none" stroke="#63b8ff" d="M30.86,-251.44C32.71,-292.03 42.78,-384.72 95,-435.5 98.51,-438.91 102.61,-441.68 107.02,-443.94"/>
<polygon fill="#63b8ff" stroke="#63b8ff" points="34.36,-251.12 30.53,-241.24 27.36,-251.35 34.36,-251.12"/>
</a>
</g>
</g>
<!-- Node2 -->
<g id="Node000002" class="node">
<title>Node2</title>
<g id="a_Node000002"><a xlink:href="d5/da7/classAudioProcessorWidget.html" target="_top" xlink:title="Widget for advanced audio processing controls.">
<polygon fill="white" stroke="#666666" points="222,-426 96,-426 96,-407 222,-407 222,-426"/>
<text text-anchor="middle" x="159" y="-414" font-family="Helvetica,sans-Serif" font-size="10.00">AudioProcessorWidget</text>
</a>
</g>
</g>
<!-- Node0&#45;&gt;Node2 -->
<g id="edge62_Node000000_Node000002" class="edge">
<title>Node0&#45;&gt;Node2</title>
<g id="a_edge62_Node000000_Node000002"><a xlink:title=" ">
<path fill="none" stroke="#63b8ff" d="M32.49,-251.37C37.06,-286.3 51.5,-358.76 95,-398.5 98.7,-401.88 102.98,-404.62 107.55,-406.86"/>
<polygon fill="#63b8ff" stroke="#63b8ff" points="35.92,-250.6 31.29,-241.07 28.97,-251.4 35.92,-250.6"/>
</a>
</g>
</g>
<!-- Node3 -->
<g id="Node000003" class="node">
<title>Node3</title>
<g id="a_Node000003"><a xlink:href="d5/d45/classAudioVisualizerWidget.html" target="_top" xlink:title="Widget for displaying audio visualizations.">
<polygon fill="white" stroke="#666666" points="222.5,-389 95.5,-389 95.5,-370 222.5,-370 222.5,-389"/>
<text text-anchor="middle" x="159" y="-377" font-family="Helvetica,sans-Serif" font-size="10.00">AudioVisualizerWidget</text>
</a>
</g>
</g>
<!-- Node0&#45;&gt;Node3 -->
<g id="edge63_Node000000_Node000003" class="edge">
<title>Node0&#45;&gt;Node3</title>
<g id="a_edge63_Node000000_Node000003"><a xlink:title=" ">
<path fill="none" stroke="#63b8ff" d="M34.95,-251.35C42.4,-279.95 60.13,-332.47 95,-361.5 99.11,-364.92 103.83,-367.69 108.81,-369.94"/>
<polygon fill="#63b8ff" stroke="#63b8ff" points="38.28,-250.23 32.51,-241.34 31.48,-251.89 38.28,-250.23"/>
</a>
</g>
</g>
<!-- Node4 -->
<g id="Node000004" class="node">
<title>Node4</title>
<g id="a_Node000004"><a xlink:href="dd/d2d/classDragDropWidget.html" target="_top" xlink:title="Widget that handles drag and drop operations for media files and URLs.">
<polygon fill="white" stroke="#666666" points="208,-352 110,-352 110,-333 208,-333 208,-352"/>
<text text-anchor="middle" x="159" y="-340" font-family="Helvetica,sans-Serif" font-size="10.00">DragDropWidget</text>
</a>
</g>
</g>
<!-- Node0&#45;&gt;Node4 -->
<g id="edge64_Node000000_Node000004" class="edge">
<title>Node0&#45;&gt;Node4</title>
<g id="a_edge64_Node000000_Node000004"><a xlink:title=" ">
<path fill="none" stroke="#63b8ff" d="M38.69,-250.26C48.87,-271.41 68.23,-305.33 95,-324.5 99.81,-327.94 105.26,-330.73 110.9,-332.99"/>
<polygon fill="#63b8ff" stroke="#63b8ff" points="41.8,-248.64 34.43,-241.03 35.44,-251.57 41.8,-248.64"/>
</a>
</g>
</g>
<!-- Node5 -->
<g id="Node000005" class="node">
<title>Node5</title>
<g id="a_Node000005"><a xlink:href="d9/de3/classLibraryWidget.html" target="_top" xlink:title="Comprehensive media library browser widget.">
<polygon fill="white" stroke="#666666" points="201.5,-315 116.5,-315 116.5,-296 201.5,-296 201.5,-315"/>
<text text-anchor="middle" x="159" y="-303" font-family="Helvetica,sans-Serif" font-size="10.00">LibraryWidget</text>
</a>
</g>
</g>
<!-- Node0&#45;&gt;Node5 -->
<g id="edge65_Node000000_Node000005" class="edge">
<title>Node0&#45;&gt;Node5</title>
<g id="a_edge65_Node000000_Node000005"><a xlink:title=" ">
<path fill="none" stroke="#63b8ff" d="M46.28,-248.76C58.48,-261.17 76.39,-277.41 95,-287.5 101.6,-291.08 108.99,-294.01 116.31,-296.38"/>
<polygon fill="#63b8ff" stroke="#63b8ff" points="48.57,-246.09 39.13,-241.27 43.5,-250.92 48.57,-246.09"/>
</a>
</g>
</g>
<!-- Node6 -->
<g id="Node000006" class="node">
<title>Node6</title>
<g id="a_Node000006"><a xlink:href="dd/d6b/classMediaInfoWidget.html" target="_top" xlink:title="Widget for displaying detailed media information.">
<polygon fill="white" stroke="#666666" points="209,-278 109,-278 109,-259 209,-259 209,-278"/>
<text text-anchor="middle" x="159" y="-266" font-family="Helvetica,sans-Serif" font-size="10.00">MediaInfoWidget</text>
</a>
</g>
</g>
<!-- Node0&#45;&gt;Node6 -->
<g id="edge66_Node000000_Node000006" class="edge">
<title>Node0&#45;&gt;Node6</title>
<g id="a_edge66_Node000000_Node000006"><a xlink:title=" ">
<path fill="none" stroke="#63b8ff" d="M68.87,-242.86C77.46,-245.39 86.54,-248.05 95,-250.5 104.5,-253.26 114.82,-256.22 124.31,-258.93"/>
<polygon fill="#63b8ff" stroke="#63b8ff" points="69.64,-239.44 59.06,-239.97 67.66,-246.15 69.64,-239.44"/>
</a>
</g>
</g>
<!-- Node7 -->
<g id="Node000007" class="node">
<title>Node7</title>
<g id="a_Node000007"><a xlink:href="d7/ddb/classMiniPlayerWidget.html" target="_top" xlink:title="Mini player with always&#45;on&#45;top floating window.">
<polygon fill="white" stroke="#666666" points="210.5,-241 107.5,-241 107.5,-222 210.5,-222 210.5,-241"/>
<text text-anchor="middle" x="159" y="-229" font-family="Helvetica,sans-Serif" font-size="10.00">MiniPlayerWidget</text>
</a>
</g>
</g>
<!-- Node0&#45;&gt;Node7 -->
<g id="edge67_Node000000_Node000007" class="edge">
<title>Node0&#45;&gt;Node7</title>
<g id="a_edge67_Node000000_Node000007"><a xlink:title=" ">
<path fill="none" stroke="#63b8ff" d="M69.26,-231.5C81.29,-231.5 94.73,-231.5 107.43,-231.5"/>
<polygon fill="#63b8ff" stroke="#63b8ff" points="69.11,-228 59.11,-231.5 69.11,-235 69.11,-228"/>
</a>
</g>
</g>
<!-- Node8 -->
<g id="Node000008" class="node">
<title>Node8</title>
<g id="a_Node000008"><a xlink:href="dd/de6/classPictureInPictureWidget.html" target="_top" xlink:title="Picture&#45;in&#45;Picture floating video window.">
<polygon fill="white" stroke="#666666" points="223,-204 95,-204 95,-185 223,-185 223,-204"/>
<text text-anchor="middle" x="159" y="-192" font-family="Helvetica,sans-Serif" font-size="10.00">PictureInPictureWidget</text>
</a>
</g>
</g>
<!-- Node0&#45;&gt;Node8 -->
<g id="edge68_Node000000_Node000008" class="edge">
<title>Node0&#45;&gt;Node8</title>
<g id="a_edge68_Node000000_Node000008"><a xlink:title=" ">
<path fill="none" stroke="#63b8ff" d="M68.94,-220.34C86.81,-215.16 107.84,-209.06 124.98,-204.08"/>
<polygon fill="#63b8ff" stroke="#63b8ff" points="67.74,-217.05 59.11,-223.2 69.69,-223.77 67.74,-217.05"/>
</a>
</g>
</g>
<!-- Node9 -->
<g id="Node000009" class="node">
<title>Node9</title>
<g id="a_Node000009"><a xlink:href="d6/d3c/classPlaybackControls.html" target="_top" xlink:title="Playback controls widget for EonPlay media player.">
<polygon fill="white" stroke="#666666" points="209.5,-167 108.5,-167 108.5,-148 209.5,-148 209.5,-167"/>
<text text-anchor="middle" x="159" y="-155" font-family="Helvetica,sans-Serif" font-size="10.00">PlaybackControls</text>
</a>
</g>
</g>
<!-- Node0&#45;&gt;Node9 -->
<g id="edge69_Node000000_Node000009" class="edge">
<title>Node0&#45;&gt;Node9</title>
<g id="a_edge69_Node000000_Node000009"><a xlink:title=" ">
<path fill="none" stroke="#63b8ff" d="M46.38,-214.64C58.63,-202.5 76.56,-186.56 95,-176.5 101.92,-172.72 109.69,-169.6 117.34,-167.06"/>
<polygon fill="#63b8ff" stroke="#63b8ff" points="43.7,-212.37 39.19,-221.96 48.7,-217.27 43.7,-212.37"/>
</a>
</g>
</g>
<!-- Node10 -->
<g id="Node000010" class="node">
<title>Node10</title>
<g id="a_Node000010"><a xlink:href="db/d32/classPlaylistWidget.html" target="_top" xlink:title="Comprehensive playlist management widget.">
<polygon fill="white" stroke="#666666" points="202.5,-130 115.5,-130 115.5,-111 202.5,-111 202.5,-130"/>
<text text-anchor="middle" x="159" y="-118" font-family="Helvetica,sans-Serif" font-size="10.00">PlaylistWidget</text>
</a>
</g>
</g>
<!-- Node0&#45;&gt;Node10 -->
<g id="edge70_Node000000_Node000010" class="edge">
<title>Node0&#45;&gt;Node10</title>
<g id="a_edge70_Node000000_Node000010"><a xlink:title=" ">
<path fill="none" stroke="#63b8ff" d="M38.95,-212.69C49.26,-191.81 68.65,-158.56 95,-139.5 101.11,-135.08 108.26,-131.68 115.5,-129.06"/>
<polygon fill="#63b8ff" stroke="#63b8ff" points="35.74,-211.29 34.62,-221.83 42.06,-214.29 35.74,-211.29"/>
</a>
</g>
</g>
<!-- Node11 -->
<g id="Node000011" class="node">
<title>Node11</title>
<g id="a_Node000011"><a xlink:href="d9/dff/classSubtitleControlWidget.html" target="_top" xlink:title="Subtitle control widget for EonPlay.">
<polygon fill="white" stroke="#666666" points="221,-93 97,-93 97,-74 221,-74 221,-93"/>
<text text-anchor="middle" x="159" y="-81" font-family="Helvetica,sans-Serif" font-size="10.00">SubtitleControlWidget</text>
</a>
</g>
</g>
<!-- Node0&#45;&gt;Node11 -->
<g id="edge71_Node000000_Node000011" class="edge">
<title>Node0&#45;&gt;Node11</title>
<g id="a_edge71_Node000000_Node000011"><a xlink:title=" ">
<path fill="none" stroke="#63b8ff" d="M35.05,-211.86C42.63,-183.57 60.51,-131.55 95,-102.5 99.63,-98.6 105.04,-95.5 110.72,-93.04"/>
<polygon fill="#63b8ff" stroke="#63b8ff" points="31.61,-211.22 32.57,-221.77 38.4,-212.92 31.61,-211.22"/>
</a>
</g>
</g>
<!-- Node12 -->
<g id="Node000012" class="node">
<title>Node12</title>
<g id="a_Node000012"><a xlink:href="de/d8e/classSubtitleRenderer.html" target="_top" xlink:title="Subtitle text overlay renderer widget.">
<polygon fill="white" stroke="#666666" points="208,-56 110,-56 110,-37 208,-37 208,-56"/>
<text text-anchor="middle" x="159" y="-44" font-family="Helvetica,sans-Serif" font-size="10.00">SubtitleRenderer</text>
</a>
</g>
</g>
<!-- Node0&#45;&gt;Node12 -->
<g id="edge72_Node000000_Node000012" class="edge">
<title>Node0&#45;&gt;Node12</title>
<g id="a_edge72_Node000000_Node000012"><a xlink:title=" ">
<path fill="none" stroke="#63b8ff" d="M32.65,-211.31C37.44,-176.5 52.18,-105.12 95,-65.5 99.28,-61.54 104.35,-58.41 109.73,-55.93"/>
<polygon fill="#63b8ff" stroke="#63b8ff" points="29.13,-211.27 31.38,-221.62 36.08,-212.12 29.13,-211.27"/>
</a>
</g>
</g>
<!-- Node13 -->
<g id="Node000013" class="node">
<title>Node13</title>
<g id="a_Node000013"><a xlink:href="df/dbc/classVideoWidget.html" target="_top" xlink:title="Video display widget for EonPlay media player.">
<polygon fill="white" stroke="#666666" points="198.5,-19 119.5,-19 119.5,0 198.5,0 198.5,-19"/>
<text text-anchor="middle" x="159" y="-7" font-family="Helvetica,sans-Serif" font-size="10.00">VideoWidget</text>
</a>
</g>
</g>
<!-- Node0&#45;&gt;Node13 -->
<g id="edge73_Node000000_Node000013" class="edge">
<title>Node0&#45;&gt;Node13</title>
<g id="a_edge73_Node000000_Node000013"><a xlink:title=" ">
<path fill="none" stroke="#63b8ff" d="M30.96,-211.72C32.98,-171.44 43.35,-79.4 95,-28.5 101.67,-21.92 110.53,-17.61 119.5,-14.79"/>
<polygon fill="#63b8ff" stroke="#63b8ff" points="27.46,-211.72 30.58,-221.84 34.45,-211.98 27.46,-211.72"/>
</a>
</g>
</g>
</g>
</svg>
