<?xml version="1.0" encoding="UTF-8" standalone="no"?>
<!DOCTYPE svg PUBLIC "-//W3C//DTD SVG 1.1//EN"
 "http://www.w3.org/Graphics/SVG/1.1/DTD/svg11.dtd">
<!-- Generated by graphviz version 2.43.0 (0)
 -->
<!-- Title: Graphical Class Hierarchy Pages: 1 -->
<svg width="564pt" height="1718pt"
 viewBox="0.00 0.00 564.00 1717.57" xmlns="http://www.w3.org/2000/svg" xmlns:xlink="http://www.w3.org/1999/xlink">
<g id="graph0" class="graph" transform="scale(1 1) rotate(0) translate(4 1713.57)">
<title>Graphical Class Hierarchy</title>
<!-- Node0 -->
<g id="Node000000" class="node">
<title>Node0</title>
<g id="a_Node000000"><a xlink:href="d5/d3d/classIComponent.html" target="_top" xlink:title="Interface for modular application components.">
<polygon fill="white" stroke="#666666" points="112.5,-1652 36.5,-1652 36.5,-1633 112.5,-1633 112.5,-1652"/>
<text text-anchor="middle" x="74.5" y="-1640" font-family="Helvetica,sans-Serif" font-size="10.00">IComponent</text>
</a>
</g>
</g>
<!-- Node1 -->
<g id="Node000001" class="node">
<title>Node1</title>
<g id="a_Node000001"><a xlink:href="d8/d04/classFileUrlSupport.html" target="_top" xlink:title="EonPlay file and URL support component.">
<polygon fill="white" stroke="#666666" points="318.5,-1597 232.5,-1597 232.5,-1578 318.5,-1578 318.5,-1597"/>
<text text-anchor="middle" x="275.5" y="-1585" font-family="Helvetica,sans-Serif" font-size="10.00">FileUrlSupport</text>
</a>
</g>
</g>
<!-- Node0&#45;&gt;Node1 -->
<g id="edge1_Node000000_Node000001" class="edge">
<title>Node0&#45;&gt;Node1</title>
<g id="a_edge1_Node000000_Node000001"><a xlink:title=" ">
<path fill="none" stroke="#63b8ff" d="M111.39,-1629.61C132.62,-1622.26 160.15,-1613.2 185,-1606.5 200.34,-1602.36 217.35,-1598.56 232.39,-1595.46"/>
<polygon fill="#63b8ff" stroke="#63b8ff" points="110.09,-1626.36 101.81,-1632.96 112.4,-1632.96 110.09,-1626.36"/>
</a>
</g>
</g>
<!-- Node40 -->
<g id="Node000040" class="node">
<title>Node40</title>
<g id="a_Node000040"><a xlink:href="d0/d22/classPlaybackController.html" target="_top" xlink:title="EonPlay core playback controller that manages media playback operations.">
<polygon fill="white" stroke="#666666" points="330,-1671 221,-1671 221,-1652 330,-1652 330,-1671"/>
<text text-anchor="middle" x="275.5" y="-1659" font-family="Helvetica,sans-Serif" font-size="10.00">PlaybackController</text>
</a>
</g>
</g>
<!-- Node0&#45;&gt;Node40 -->
<g id="edge2_Node000000_Node000040" class="edge">
<title>Node0&#45;&gt;Node40</title>
<g id="a_edge2_Node000000_Node000040"><a xlink:title=" ">
<path fill="none" stroke="#63b8ff" d="M122.95,-1647.03C152.35,-1649.84 190.2,-1653.45 220.71,-1656.36"/>
<polygon fill="#63b8ff" stroke="#63b8ff" points="123.22,-1643.54 112.93,-1646.07 122.55,-1650.51 123.22,-1643.54"/>
</a>
</g>
</g>
<!-- Node42 -->
<g id="Node000042" class="node">
<title>Node42</title>
<g id="a_Node000042"><a xlink:href="d1/dea/classSettingsManager.html" target="_top" xlink:title="Manages EonPlay settings and user preferences.">
<polygon fill="white" stroke="#666666" points="325,-1634 226,-1634 226,-1615 325,-1615 325,-1634"/>
<text text-anchor="middle" x="275.5" y="-1622" font-family="Helvetica,sans-Serif" font-size="10.00">SettingsManager</text>
</a>
</g>
</g>
<!-- Node0&#45;&gt;Node42 -->
<g id="edge3_Node000000_Node000042" class="edge">
<title>Node0&#45;&gt;Node42</title>
<g id="a_edge3_Node000000_Node000042"><a xlink:title=" ">
<path fill="none" stroke="#63b8ff" d="M123.09,-1638.2C154.18,-1635.38 194.66,-1631.72 225.94,-1628.89"/>
<polygon fill="#63b8ff" stroke="#63b8ff" points="122.57,-1634.73 112.93,-1639.11 123.21,-1641.7 122.57,-1634.73"/>
</a>
</g>
</g>
<!-- Node29 -->
<g id="Node000029" class="node">
<title>Node29</title>
<g id="a_Node000029"><a xlink:href="d6/d6e/classVLCBackend.html" target="_top" xlink:title="libVLC&#45;based media engine implementation">
<polygon fill="white" stroke="#666666" points="517.5,-1153 440.5,-1153 440.5,-1134 517.5,-1134 517.5,-1153"/>
<text text-anchor="middle" x="479" y="-1141" font-family="Helvetica,sans-Serif" font-size="10.00">VLCBackend</text>
</a>
</g>
</g>
<!-- Node0&#45;&gt;Node29 -->
<g id="edge4_Node000000_Node000029" class="edge">
<title>Node0&#45;&gt;Node29</title>
<g id="a_edge4_Node000000_Node000029"><a xlink:title=" ">
<path fill="none" stroke="#63b8ff" d="M100.96,-1657C156.05,-1686.22 287.63,-1744.21 366,-1680.5 452.46,-1610.21 474.44,-1219.75 477.58,-1153.16"/>
<polygon fill="#63b8ff" stroke="#63b8ff" points="102.35,-1653.77 91.89,-1652.08 99.01,-1659.92 102.35,-1653.77"/>
</a>
</g>
</g>
<!-- Node35 -->
<g id="Node000035" class="node">
<title>Node35</title>
<g id="a_Node000035"><a xlink:title=" ">
<polygon fill="#e0e0e0" stroke="#999999" points="149,-1560 0,-1560 0,-1541 149,-1541 149,-1560"/>
<text text-anchor="middle" x="74.5" y="-1548" font-family="Helvetica,sans-Serif" font-size="10.00">QAbstractNativeEventFilter</text>
</a>
</g>
</g>
<!-- Node34 -->
<g id="Node000034" class="node">
<title>Node34</title>
<g id="a_Node000034"><a xlink:href="d0/de3/classMediaKeysManager.html" target="_top" xlink:title="System media keys integration manager.">
<polygon fill="white" stroke="#666666" points="332,-1560 219,-1560 219,-1541 332,-1541 332,-1560"/>
<text text-anchor="middle" x="275.5" y="-1548" font-family="Helvetica,sans-Serif" font-size="10.00">MediaKeysManager</text>
</a>
</g>
</g>
<!-- Node35&#45;&gt;Node34 -->
<g id="edge5_Node000035_Node000034" class="edge">
<title>Node35&#45;&gt;Node34</title>
<g id="a_edge5_Node000035_Node000034"><a xlink:title=" ">
<path fill="none" stroke="#63b8ff" d="M159.18,-1550.5C179.37,-1550.5 200.46,-1550.5 219,-1550.5"/>
<polygon fill="#63b8ff" stroke="#63b8ff" points="159.03,-1547 149.03,-1550.5 159.03,-1554 159.03,-1547"/>
</a>
</g>
</g>
<!-- Node2 -->
<g id="Node000002" class="node">
<title>Node2</title>
<g id="a_Node000002"><a xlink:title=" ">
<polygon fill="#e0e0e0" stroke="#999999" points="102.5,-857 46.5,-857 46.5,-838 102.5,-838 102.5,-857"/>
<text text-anchor="middle" x="74.5" y="-845" font-family="Helvetica,sans-Serif" font-size="10.00">QObject</text>
</a>
</g>
</g>
<!-- Node2&#45;&gt;Node1 -->
<g id="edge29_Node000002_Node000001" class="edge">
<title>Node2&#45;&gt;Node1</title>
<g id="a_edge29_Node000002_Node000001"><a xlink:title=" ">
<path fill="none" stroke="#63b8ff" d="M75.56,-867.16C76.3,-972.03 85.09,-1464.68 185,-1569.5 197.03,-1582.12 215.24,-1587.22 232.11,-1588.93"/>
<polygon fill="#63b8ff" stroke="#63b8ff" points="79.06,-867.03 75.51,-857.04 72.06,-867.06 79.06,-867.03"/>
</a>
</g>
</g>
<!-- Node2&#45;&gt;Node40 -->
<g id="edge43_Node000002_Node000040" class="edge">
<title>Node2&#45;&gt;Node40</title>
<g id="a_edge43_Node000002_Node000040"><a xlink:title=" ">
<path fill="none" stroke="#63b8ff" d="M76.84,-867.03C85.04,-983.62 129.81,-1584.79 185,-1643.5 194.34,-1653.43 207.5,-1658.72 220.87,-1661.37"/>
<polygon fill="#63b8ff" stroke="#63b8ff" points="80.33,-866.76 76.15,-857.03 73.35,-867.25 80.33,-866.76"/>
</a>
</g>
</g>
<!-- Node2&#45;&gt;Node42 -->
<g id="edge45_Node000002_Node000042" class="edge">
<title>Node2&#45;&gt;Node42</title>
<g id="a_edge45_Node000002_Node000042"><a xlink:title=" ">
<path fill="none" stroke="#63b8ff" d="M76.99,-867.17C85.79,-980.87 132.31,-1550.81 185,-1606.5 195.46,-1617.55 210.66,-1622.85 225.57,-1625.15"/>
<polygon fill="#63b8ff" stroke="#63b8ff" points="80.47,-866.81 76.22,-857.11 73.5,-867.35 80.47,-866.81"/>
</a>
</g>
</g>
<!-- Node2&#45;&gt;Node34 -->
<g id="edge38_Node000002_Node000034" class="edge">
<title>Node2&#45;&gt;Node34</title>
<g id="a_edge38_Node000002_Node000034"><a xlink:title=" ">
<path fill="none" stroke="#63b8ff" d="M75.74,-867.11C77.37,-968.62 89.99,-1433.62 185,-1532.5 193.89,-1541.76 206.12,-1546.96 218.68,-1549.74"/>
<polygon fill="#63b8ff" stroke="#63b8ff" points="79.23,-866.98 75.59,-857.03 72.23,-867.08 79.23,-866.98"/>
</a>
</g>
</g>
<!-- Node3 -->
<g id="Node000003" class="node">
<title>Node3</title>
<g id="a_Node000003"><a xlink:href="d9/d29/classAdvancedAudioProcessor.html" target="_top" xlink:title="Advanced audio processing system with karaoke, lyrics, and format conversion.">
<polygon fill="white" stroke="#666666" points="345.5,-1005 205.5,-1005 205.5,-986 345.5,-986 345.5,-1005"/>
<text text-anchor="middle" x="275.5" y="-993" font-family="Helvetica,sans-Serif" font-size="10.00">AdvancedAudioProcessor</text>
</a>
</g>
</g>
<!-- Node2&#45;&gt;Node3 -->
<g id="edge6_Node000002_Node000003" class="edge">
<title>Node2&#45;&gt;Node3</title>
<g id="a_edge6_Node000002_Node000003"><a xlink:title=" ">
<path fill="none" stroke="#63b8ff" d="M85.77,-866.09C102.57,-894.64 138.74,-948.89 185,-976.5 191.55,-980.41 198.79,-983.52 206.23,-985.99"/>
<polygon fill="#63b8ff" stroke="#63b8ff" points="88.65,-864.08 80.65,-857.14 82.58,-867.56 88.65,-864.08"/>
</a>
</g>
</g>
<!-- Node4 -->
<g id="Node000004" class="node">
<title>Node4</title>
<g id="a_Node000004"><a xlink:href="d1/db9/classAudioEqualizer.html" target="_top" xlink:title="Audio equalizer with multi&#45;band frequency adjustment.">
<polygon fill="white" stroke="#666666" points="320,-968 231,-968 231,-949 320,-949 320,-968"/>
<text text-anchor="middle" x="275.5" y="-956" font-family="Helvetica,sans-Serif" font-size="10.00">AudioEqualizer</text>
</a>
</g>
</g>
<!-- Node2&#45;&gt;Node4 -->
<g id="edge7_Node000002_Node000004" class="edge">
<title>Node2&#45;&gt;Node4</title>
<g id="a_edge7_Node000002_Node000004"><a xlink:title=" ">
<path fill="none" stroke="#63b8ff" d="M90.68,-864.61C110.32,-885.62 146.59,-920.76 185,-939.5 199.13,-946.4 215.72,-950.8 230.75,-953.61"/>
<polygon fill="#63b8ff" stroke="#63b8ff" points="93.11,-862.08 83.78,-857.06 87.95,-866.8 93.11,-862.08"/>
</a>
</g>
</g>
<!-- Node5 -->
<g id="Node000005" class="node">
<title>Node5</title>
<g id="a_Node000005"><a xlink:href="d7/d0f/classAudioOutputManager.html" target="_top" xlink:title="Audio output device management system.">
<polygon fill="white" stroke="#666666" points="335.5,-931 215.5,-931 215.5,-912 335.5,-912 335.5,-931"/>
<text text-anchor="middle" x="275.5" y="-919" font-family="Helvetica,sans-Serif" font-size="10.00">AudioOutputManager</text>
</a>
</g>
</g>
<!-- Node2&#45;&gt;Node5 -->
<g id="edge8_Node000002_Node000005" class="edge">
<title>Node2&#45;&gt;Node5</title>
<g id="a_edge8_Node000002_Node000005"><a xlink:title=" ">
<path fill="none" stroke="#63b8ff" d="M100.11,-862.16C121.79,-874.51 154.57,-891.83 185,-902.5 195.64,-906.23 207.27,-909.36 218.51,-911.92"/>
<polygon fill="#63b8ff" stroke="#63b8ff" points="101.66,-859.02 91.26,-857.04 98.16,-865.08 101.66,-859.02"/>
</a>
</g>
</g>
<!-- Node6 -->
<g id="Node000006" class="node">
<title>Node6</title>
<g id="a_Node000006"><a xlink:href="d5/db2/classAudioProcessor.html" target="_top" xlink:title="Advanced audio processing system.">
<polygon fill="white" stroke="#666666" points="321.5,-894 229.5,-894 229.5,-875 321.5,-875 321.5,-894"/>
<text text-anchor="middle" x="275.5" y="-882" font-family="Helvetica,sans-Serif" font-size="10.00">AudioProcessor</text>
</a>
</g>
</g>
<!-- Node2&#45;&gt;Node6 -->
<g id="edge9_Node000002_Node000006" class="edge">
<title>Node2&#45;&gt;Node6</title>
<g id="a_edge9_Node000002_Node000006"><a xlink:title=" ">
<path fill="none" stroke="#63b8ff" d="M112.9,-854.45C145.91,-860.59 194.12,-869.55 229.28,-876.09"/>
<polygon fill="#63b8ff" stroke="#63b8ff" points="113.22,-850.95 102.75,-852.57 111.94,-857.84 113.22,-850.95"/>
</a>
</g>
</g>
<!-- Node7 -->
<g id="Node000007" class="node">
<title>Node7</title>
<g id="a_Node000007"><a xlink:href="db/d2a/classAudioVisualizer.html" target="_top" xlink:title="Audio visualization system with spectrum analyzer and waveform display.">
<polygon fill="white" stroke="#666666" points="321.5,-857 229.5,-857 229.5,-838 321.5,-838 321.5,-857"/>
<text text-anchor="middle" x="275.5" y="-845" font-family="Helvetica,sans-Serif" font-size="10.00">AudioVisualizer</text>
</a>
</g>
</g>
<!-- Node2&#45;&gt;Node7 -->
<g id="edge10_Node000002_Node000007" class="edge">
<title>Node2&#45;&gt;Node7</title>
<g id="a_edge10_Node000002_Node000007"><a xlink:title=" ">
<path fill="none" stroke="#63b8ff" d="M112.9,-847.5C145.91,-847.5 194.12,-847.5 229.28,-847.5"/>
<polygon fill="#63b8ff" stroke="#63b8ff" points="112.75,-844 102.75,-847.5 112.75,-851 112.75,-844"/>
</a>
</g>
</g>
<!-- Node8 -->
<g id="Node000008" class="node">
<title>Node8</title>
<g id="a_Node000008"><a xlink:href="d8/d69/classAutoUpdater.html" target="_top" xlink:title="Secure auto&#45;updater with signature verification and rollback capability.">
<polygon fill="white" stroke="#666666" points="314.5,-820 236.5,-820 236.5,-801 314.5,-801 314.5,-820"/>
<text text-anchor="middle" x="275.5" y="-808" font-family="Helvetica,sans-Serif" font-size="10.00">AutoUpdater</text>
</a>
</g>
</g>
<!-- Node2&#45;&gt;Node8 -->
<g id="edge11_Node000002_Node000008" class="edge">
<title>Node2&#45;&gt;Node8</title>
<g id="a_edge11_Node000002_Node000008"><a xlink:title=" ">
<path fill="none" stroke="#63b8ff" d="M112.66,-840.59C147.94,-834.03 200.74,-824.21 236.35,-817.59"/>
<polygon fill="#63b8ff" stroke="#63b8ff" points="111.94,-837.16 102.75,-842.43 113.22,-844.05 111.94,-837.16"/>
</a>
</g>
</g>
<!-- Node9 -->
<g id="Node000009" class="node">
<title>Node9</title>
<g id="a_Node000009"><a xlink:href="d5/d62/classBackupManager.html" target="_top" xlink:title="Automatic library backup and restore system.">
<polygon fill="white" stroke="#666666" points="323,-783 228,-783 228,-764 323,-764 323,-783"/>
<text text-anchor="middle" x="275.5" y="-771" font-family="Helvetica,sans-Serif" font-size="10.00">BackupManager</text>
</a>
</g>
</g>
<!-- Node2&#45;&gt;Node9 -->
<g id="edge12_Node000002_Node000009" class="edge">
<title>Node2&#45;&gt;Node9</title>
<g id="a_edge12_Node000002_Node000009"><a xlink:title=" ">
<path fill="none" stroke="#63b8ff" d="M99.67,-832.69C121.31,-820.03 154.27,-802.22 185,-791.5 198.62,-786.75 213.86,-783.1 227.86,-780.37"/>
<polygon fill="#63b8ff" stroke="#63b8ff" points="97.66,-829.81 90.85,-837.92 101.24,-835.83 97.66,-829.81"/>
</a>
</g>
</g>
<!-- Node10 -->
<g id="Node000010" class="node">
<title>Node10</title>
<g id="a_Node000010"><a xlink:href="da/d51/classComponentManager.html" target="_top" xlink:title="Manages the lifecycle of application components.">
<polygon fill="white" stroke="#666666" points="333.5,-746 217.5,-746 217.5,-727 333.5,-727 333.5,-746"/>
<text text-anchor="middle" x="275.5" y="-734" font-family="Helvetica,sans-Serif" font-size="10.00">ComponentManager</text>
</a>
</g>
</g>
<!-- Node2&#45;&gt;Node10 -->
<g id="edge13_Node000002_Node000010" class="edge">
<title>Node2&#45;&gt;Node10</title>
<g id="a_edge13_Node000002_Node000010"><a xlink:title=" ">
<path fill="none" stroke="#63b8ff" d="M90.61,-830.13C110.17,-808.82 146.36,-773.23 185,-754.5 194.98,-749.66 206.2,-746.12 217.23,-743.54"/>
<polygon fill="#63b8ff" stroke="#63b8ff" points="87.81,-828.01 83.73,-837.79 93.02,-832.69 87.81,-828.01"/>
</a>
</g>
</g>
<!-- Node11 -->
<g id="Node000011" class="node">
<title>Node11</title>
<g id="a_Node000011"><a xlink:href="d6/dc2/classCrashReporter.html" target="_top" xlink:title="Comprehensive crash reporting and stability monitoring system.">
<polygon fill="white" stroke="#666666" points="318.5,-709 232.5,-709 232.5,-690 318.5,-690 318.5,-709"/>
<text text-anchor="middle" x="275.5" y="-697" font-family="Helvetica,sans-Serif" font-size="10.00">CrashReporter</text>
</a>
</g>
</g>
<!-- Node2&#45;&gt;Node11 -->
<g id="edge14_Node000002_Node000011" class="edge">
<title>Node2&#45;&gt;Node11</title>
<g id="a_edge14_Node000002_Node000011"><a xlink:title=" ">
<path fill="none" stroke="#63b8ff" d="M85.69,-828.71C102.4,-799.85 138.44,-745.07 185,-717.5 199.18,-709.1 216.61,-704.56 232.31,-702.12"/>
<polygon fill="#63b8ff" stroke="#63b8ff" points="82.46,-827.32 80.61,-837.75 88.56,-830.75 82.46,-827.32"/>
</a>
</g>
</g>
<!-- Node12 -->
<g id="Node000012" class="node">
<title>Node12</title>
<g id="a_Node000012"><a xlink:href="d2/d2c/classEonPlay_1_1AI_1_1AISubtitleGenerator.html" target="_top" xlink:title="AI&#45;powered subtitle generator using speech&#45;to&#45;text.">
<polygon fill="white" stroke="#666666" points="362,-672 189,-672 189,-653 362,-653 362,-672"/>
<text text-anchor="middle" x="275.5" y="-660" font-family="Helvetica,sans-Serif" font-size="10.00">EonPlay::AI::AISubtitleGenerator</text>
</a>
</g>
</g>
<!-- Node2&#45;&gt;Node12 -->
<g id="edge15_Node000002_Node000012" class="edge">
<title>Node2&#45;&gt;Node12</title>
<g id="a_edge15_Node000002_Node000012"><a xlink:title=" ">
<path fill="none" stroke="#63b8ff" d="M82.44,-827.96C96.11,-792.47 130.08,-717.63 185,-680.5 189.99,-677.13 195.47,-674.36 201.19,-672.09"/>
<polygon fill="#63b8ff" stroke="#63b8ff" points="79.05,-827.04 78.84,-837.63 85.61,-829.48 79.05,-827.04"/>
</a>
</g>
</g>
<!-- Node13 -->
<g id="Node000013" class="node">
<title>Node13</title>
<g id="a_Node000013"><a xlink:href="d8/d35/classEonPlay_1_1AI_1_1AISubtitleManager.html" target="_top" xlink:title="Manages all AI&#45;powered subtitle features for EonPlay.">
<polygon fill="white" stroke="#666666" points="359,-635 192,-635 192,-616 359,-616 359,-635"/>
<text text-anchor="middle" x="275.5" y="-623" font-family="Helvetica,sans-Serif" font-size="10.00">EonPlay::AI::AISubtitleManager</text>
</a>
</g>
</g>
<!-- Node2&#45;&gt;Node13 -->
<g id="edge16_Node000002_Node000013" class="edge">
<title>Node2&#45;&gt;Node13</title>
<g id="a_edge16_Node000002_Node000013"><a xlink:title=" ">
<path fill="none" stroke="#63b8ff" d="M80,-828.05C90.58,-786.89 121.13,-690.89 185,-643.5 189.45,-640.19 194.36,-637.46 199.52,-635.19"/>
<polygon fill="#63b8ff" stroke="#63b8ff" points="76.56,-827.36 77.58,-837.9 83.36,-829.03 76.56,-827.36"/>
</a>
</g>
</g>
<!-- Node14 -->
<g id="Node000014" class="node">
<title>Node14</title>
<g id="a_Node000014"><a xlink:href="db/dc1/classEonPlay_1_1AI_1_1IAISubtitleGenerator.html" target="_top" xlink:title="Abstract interface for AI subtitle generation.">
<polygon fill="white" stroke="#666666" points="339,-67.5 212,-67.5 212,-37.5 339,-37.5 339,-67.5"/>
<text text-anchor="start" x="220" y="-55.5" font-family="Helvetica,sans-Serif" font-size="10.00">EonPlay::AI::IAISubtitle</text>
<text text-anchor="middle" x="275.5" y="-44.5" font-family="Helvetica,sans-Serif" font-size="10.00">Generator</text>
</a>
</g>
</g>
<!-- Node2&#45;&gt;Node14 -->
<g id="edge17_Node000002_Node000014" class="edge">
<title>Node2&#45;&gt;Node14</title>
<g id="a_edge17_Node000002_Node000014"><a xlink:title=" ">
<path fill="none" stroke="#63b8ff" d="M75.47,-827.66C75.72,-718.58 82.29,-192.45 185,-76.5 192.15,-68.43 201.68,-62.94 211.87,-59.24"/>
<polygon fill="#63b8ff" stroke="#63b8ff" points="71.97,-827.88 75.47,-837.89 78.97,-827.89 71.97,-827.88"/>
</a>
</g>
</g>
<!-- Node16 -->
<g id="Node000016" class="node">
<title>Node16</title>
<g id="a_Node000016"><a xlink:href="d7/d93/classEonPlay_1_1AI_1_1SubtitleLanguageDetector.html" target="_top" xlink:title="Detects the language of subtitle files and text content.">
<polygon fill="white" stroke="#666666" points="356,-523.5 195,-523.5 195,-493.5 356,-493.5 356,-523.5"/>
<text text-anchor="start" x="203" y="-511.5" font-family="Helvetica,sans-Serif" font-size="10.00">EonPlay::AI::SubtitleLanguage</text>
<text text-anchor="middle" x="275.5" y="-500.5" font-family="Helvetica,sans-Serif" font-size="10.00">Detector</text>
</a>
</g>
</g>
<!-- Node2&#45;&gt;Node16 -->
<g id="edge19_Node000002_Node000016" class="edge">
<title>Node2&#45;&gt;Node16</title>
<g id="a_edge19_Node000002_Node000016"><a xlink:title=" ">
<path fill="none" stroke="#63b8ff" d="M76.27,-827.61C79.53,-772.2 96.53,-614.77 185,-532.5 188.65,-529.1 192.73,-526.18 197.08,-523.66"/>
<polygon fill="#63b8ff" stroke="#63b8ff" points="72.77,-827.66 75.76,-837.82 79.76,-828.01 72.77,-827.66"/>
</a>
</g>
</g>
<!-- Node17 -->
<g id="Node000017" class="node">
<title>Node17</title>
<g id="a_Node000017"><a xlink:href="d7/d7f/classEonPlay_1_1AI_1_1SubtitleTranslator.html" target="_top" xlink:title="Translates subtitle files between different languages.">
<polygon fill="white" stroke="#666666" points="356.5,-475 194.5,-475 194.5,-456 356.5,-456 356.5,-475"/>
<text text-anchor="middle" x="275.5" y="-463" font-family="Helvetica,sans-Serif" font-size="10.00">EonPlay::AI::SubtitleTranslator</text>
</a>
</g>
</g>
<!-- Node2&#45;&gt;Node17 -->
<g id="edge20_Node000002_Node000017" class="edge">
<title>Node2&#45;&gt;Node17</title>
<g id="a_edge20_Node000002_Node000017"><a xlink:title=" ">
<path fill="none" stroke="#63b8ff" d="M74.99,-827.66C74.57,-766.47 82.12,-579.1 185,-484.5 189.09,-480.74 193.74,-477.65 198.71,-475.12"/>
<polygon fill="#63b8ff" stroke="#63b8ff" points="71.49,-827.92 75.15,-837.86 78.49,-827.81 71.49,-827.92"/>
</a>
</g>
</g>
<!-- Node18 -->
<g id="Node000018" class="node">
<title>Node18</title>
<g id="a_Node000018"><a xlink:href="da/db6/classEonPlay_1_1Data_1_1DatabaseManager.html" target="_top" xlink:title="Database manager for EonPlay media library.">
<polygon fill="white" stroke="#666666" points="365,-438 186,-438 186,-419 365,-419 365,-438"/>
<text text-anchor="middle" x="275.5" y="-426" font-family="Helvetica,sans-Serif" font-size="10.00">EonPlay::Data::DatabaseManager</text>
</a>
</g>
</g>
<!-- Node2&#45;&gt;Node18 -->
<g id="edge21_Node000002_Node000018" class="edge">
<title>Node2&#45;&gt;Node18</title>
<g id="a_edge21_Node000002_Node000018"><a xlink:title=" ">
<path fill="none" stroke="#63b8ff" d="M78.18,-827.49C88.42,-753.97 127.43,-500.28 185,-446.5 188.47,-443.25 192.36,-440.52 196.52,-438.23"/>
<polygon fill="#63b8ff" stroke="#63b8ff" points="74.67,-827.3 76.78,-837.68 81.61,-828.25 74.67,-827.3"/>
</a>
</g>
</g>
<!-- Node19 -->
<g id="Node000019" class="node">
<title>Node19</title>
<g id="a_Node000019"><a xlink:href="d9/d0d/classEonPlay_1_1Data_1_1LibraryManager.html" target="_top" xlink:title="Manages the complete media library for EonPlay.">
<polygon fill="white" stroke="#666666" points="359,-401 192,-401 192,-382 359,-382 359,-401"/>
<text text-anchor="middle" x="275.5" y="-389" font-family="Helvetica,sans-Serif" font-size="10.00">EonPlay::Data::LibraryManager</text>
</a>
</g>
</g>
<!-- Node2&#45;&gt;Node19 -->
<g id="edge22_Node000002_Node000019" class="edge">
<title>Node2&#45;&gt;Node19</title>
<g id="a_edge22_Node000002_Node000019"><a xlink:title=" ">
<path fill="none" stroke="#63b8ff" d="M77.66,-827.69C86.53,-750.22 122.58,-469.09 185,-409.5 188.44,-406.22 192.3,-403.46 196.44,-401.14"/>
<polygon fill="#63b8ff" stroke="#63b8ff" points="74.15,-827.63 76.51,-837.95 81.11,-828.41 74.15,-827.63"/>
</a>
</g>
</g>
<!-- Node20 -->
<g id="Node000020" class="node">
<title>Node20</title>
<g id="a_Node000020"><a xlink:href="d8/d4f/classEonPlay_1_1Data_1_1MediaScanner.html" target="_top" xlink:title="Scans file system for media files and manages library updates.">
<polygon fill="white" stroke="#666666" points="355,-364 196,-364 196,-345 355,-345 355,-364"/>
<text text-anchor="middle" x="275.5" y="-352" font-family="Helvetica,sans-Serif" font-size="10.00">EonPlay::Data::MediaScanner</text>
</a>
</g>
</g>
<!-- Node2&#45;&gt;Node20 -->
<g id="edge23_Node000002_Node000020" class="edge">
<title>Node2&#45;&gt;Node20</title>
<g id="a_edge23_Node000002_Node000020"><a xlink:title=" ">
<path fill="none" stroke="#63b8ff" d="M77.26,-827.62C84.88,-745.99 117.77,-437.87 185,-372.5 188.41,-369.19 192.25,-366.4 196.37,-364.07"/>
<polygon fill="#63b8ff" stroke="#63b8ff" points="73.74,-827.68 76.32,-837.96 80.71,-828.32 73.74,-827.68"/>
</a>
</g>
</g>
<!-- Node21 -->
<g id="Node000021" class="node">
<title>Node21</title>
<g id="a_Node000021"><a xlink:href="d9/dad/classEonPlay_1_1Data_1_1MetadataExtractor.html" target="_top" xlink:title="Extracts metadata from media files using various methods.">
<polygon fill="white" stroke="#666666" points="366,-327 185,-327 185,-308 366,-308 366,-327"/>
<text text-anchor="middle" x="275.5" y="-315" font-family="Helvetica,sans-Serif" font-size="10.00">EonPlay::Data::MetadataExtractor</text>
</a>
</g>
</g>
<!-- Node2&#45;&gt;Node21 -->
<g id="edge24_Node000002_Node000021" class="edge">
<title>Node2&#45;&gt;Node21</title>
<g id="a_edge24_Node000002_Node000021"><a xlink:title=" ">
<path fill="none" stroke="#63b8ff" d="M76.92,-827.45C83.39,-741.65 112.97,-406.65 185,-335.5 188.38,-332.16 192.2,-329.35 196.31,-327"/>
<polygon fill="#63b8ff" stroke="#63b8ff" points="73.41,-827.42 76.17,-837.65 80.39,-827.93 73.41,-827.42"/>
</a>
</g>
</g>
<!-- Node22 -->
<g id="Node000022" class="node">
<title>Node22</title>
<g id="a_Node000022"><a xlink:href="d0/d00/classEonPlay_1_1Data_1_1Playlist.html" target="_top" xlink:title="Represents a playlist in the EonPlay library.">
<polygon fill="white" stroke="#666666" points="338.5,-290 212.5,-290 212.5,-271 338.5,-271 338.5,-290"/>
<text text-anchor="middle" x="275.5" y="-278" font-family="Helvetica,sans-Serif" font-size="10.00">EonPlay::Data::Playlist</text>
</a>
</g>
</g>
<!-- Node2&#45;&gt;Node22 -->
<g id="edge25_Node000002_Node000022" class="edge">
<title>Node2&#45;&gt;Node22</title>
<g id="a_edge25_Node000002_Node000022"><a xlink:title=" ">
<path fill="none" stroke="#63b8ff" d="M76.59,-827.73C81.9,-738.65 108.03,-375.59 185,-298.5 192.5,-290.99 202.21,-286.17 212.45,-283.16"/>
<polygon fill="#63b8ff" stroke="#63b8ff" points="73.09,-827.63 76.01,-837.82 80.08,-828.03 73.09,-827.63"/>
</a>
</g>
</g>
<!-- Node23 -->
<g id="Node000023" class="node">
<title>Node23</title>
<g id="a_Node000023"><a xlink:href="dd/d67/classEonPlay_1_1Data_1_1PlaylistManager.html" target="_top" xlink:title="Manages playlists and playback history for EonPlay.">
<polygon fill="white" stroke="#666666" points="360,-253 191,-253 191,-234 360,-234 360,-253"/>
<text text-anchor="middle" x="275.5" y="-241" font-family="Helvetica,sans-Serif" font-size="10.00">EonPlay::Data::PlaylistManager</text>
</a>
</g>
</g>
<!-- Node2&#45;&gt;Node23 -->
<g id="edge26_Node000002_Node000023" class="edge">
<title>Node2&#45;&gt;Node23</title>
<g id="a_edge26_Node000002_Node000023"><a xlink:title=" ">
<path fill="none" stroke="#63b8ff" d="M76.32,-827.59C80.59,-734.63 103.2,-344.44 185,-261.5 188.23,-258.23 191.87,-255.47 195.8,-253.14"/>
<polygon fill="#63b8ff" stroke="#63b8ff" points="72.83,-827.48 75.88,-837.62 79.82,-827.79 72.83,-827.48"/>
</a>
</g>
</g>
<!-- Node24 -->
<g id="Node000024" class="node">
<title>Node24</title>
<g id="a_Node000024"><a xlink:href="d4/df9/classEonPlay_1_1Data_1_1UserPreferences.html" target="_top" xlink:title=" ">
<polygon fill="white" stroke="#666666" points="360.5,-216 190.5,-216 190.5,-197 360.5,-197 360.5,-216"/>
<text text-anchor="middle" x="275.5" y="-204" font-family="Helvetica,sans-Serif" font-size="10.00">EonPlay::Data::UserPreferences</text>
</a>
</g>
</g>
<!-- Node2&#45;&gt;Node24 -->
<g id="edge27_Node000002_Node000024" class="edge">
<title>Node2&#45;&gt;Node24</title>
<g id="a_edge27_Node000002_Node000024"><a xlink:title=" ">
<path fill="none" stroke="#63b8ff" d="M76.08,-827.88C79.3,-731.97 98.22,-313.43 185,-224.5 188.21,-221.21 191.84,-218.44 195.76,-216.1"/>
<polygon fill="#63b8ff" stroke="#63b8ff" points="72.58,-827.83 75.76,-837.94 79.57,-828.05 72.58,-827.83"/>
</a>
</g>
</g>
<!-- Node25 -->
<g id="Node000025" class="node">
<title>Node25</title>
<g id="a_Node000025"><a xlink:href="d3/d4f/classEventBus.html" target="_top" xlink:title="Centralized event bus for application&#45;wide communication.">
<polygon fill="white" stroke="#666666" points="306.5,-179 244.5,-179 244.5,-160 306.5,-160 306.5,-179"/>
<text text-anchor="middle" x="275.5" y="-167" font-family="Helvetica,sans-Serif" font-size="10.00">EventBus</text>
</a>
</g>
</g>
<!-- Node2&#45;&gt;Node25 -->
<g id="edge28_Node000002_Node000025" class="edge">
<title>Node2&#45;&gt;Node25</title>
<g id="a_edge28_Node000002_Node000025"><a xlink:title=" ">
<path fill="none" stroke="#63b8ff" d="M75.87,-827.67C78.14,-727.96 93.38,-282.3 185,-187.5 200.09,-171.89 224.66,-167.83 244.24,-167.43"/>
<polygon fill="#63b8ff" stroke="#63b8ff" points="72.37,-827.78 75.66,-837.85 79.37,-827.92 72.37,-827.78"/>
</a>
</g>
</g>
<!-- Node26 -->
<g id="Node000026" class="node">
<title>Node26</title>
<g id="a_Node000026"><a xlink:href="de/dd0/classHardwareAcceleration.html" target="_top" xlink:title="Manages hardware acceleration detection and configuration.">
<polygon fill="white" stroke="#666666" points="338,-142 213,-142 213,-123 338,-123 338,-142"/>
<text text-anchor="middle" x="275.5" y="-130" font-family="Helvetica,sans-Serif" font-size="10.00">HardwareAcceleration</text>
</a>
</g>
</g>
<!-- Node2&#45;&gt;Node26 -->
<g id="edge30_Node000002_Node000026" class="edge">
<title>Node2&#45;&gt;Node26</title>
<g id="a_edge30_Node000002_Node000026"><a xlink:title=" ">
<path fill="none" stroke="#63b8ff" d="M75.68,-827.55C77.04,-724.28 88.5,-251.2 185,-150.5 192.46,-142.72 202.27,-137.8 212.65,-134.77"/>
<polygon fill="#63b8ff" stroke="#63b8ff" points="72.18,-827.77 75.56,-837.8 79.18,-827.84 72.18,-827.77"/>
</a>
</g>
</g>
<!-- Node27 -->
<g id="Node000027" class="node">
<title>Node27</title>
<g id="a_Node000027"><a xlink:href="d2/d66/classHotkeyManager.html" target="_top" xlink:title="Hotkey customization manager for EonPlay.">
<polygon fill="white" stroke="#666666" points="322.5,-105 228.5,-105 228.5,-86 322.5,-86 322.5,-105"/>
<text text-anchor="middle" x="275.5" y="-93" font-family="Helvetica,sans-Serif" font-size="10.00">HotkeyManager</text>
</a>
</g>
</g>
<!-- Node2&#45;&gt;Node27 -->
<g id="edge31_Node000002_Node000027" class="edge">
<title>Node2&#45;&gt;Node27</title>
<g id="a_edge31_Node000002_Node000027"><a xlink:title=" ">
<path fill="none" stroke="#63b8ff" d="M75.51,-827.51C75.97,-720.91 83.6,-220.15 185,-113.5 196.14,-101.78 212.61,-96.55 228.4,-94.49"/>
<polygon fill="#63b8ff" stroke="#63b8ff" points="72.01,-827.79 75.48,-837.8 79.01,-827.81 72.01,-827.79"/>
</a>
</g>
</g>
<!-- Node28 -->
<g id="Node000028" class="node">
<title>Node28</title>
<g id="a_Node000028"><a xlink:href="d0/dbd/classIMediaEngine.html" target="_top" xlink:title="Interface for media engine implementations.">
<polygon fill="white" stroke="#666666" points="317,-598 234,-598 234,-579 317,-579 317,-598"/>
<text text-anchor="middle" x="275.5" y="-586" font-family="Helvetica,sans-Serif" font-size="10.00">IMediaEngine</text>
</a>
</g>
</g>
<!-- Node2&#45;&gt;Node28 -->
<g id="edge32_Node000002_Node000028" class="edge">
<title>Node2&#45;&gt;Node28</title>
<g id="a_edge32_Node000002_Node000028"><a xlink:title=" ">
<path fill="none" stroke="#63b8ff" d="M78.32,-827.78C86.08,-781.28 112.2,-664.34 185,-606.5 198.65,-595.65 217.09,-590.81 233.69,-588.8"/>
<polygon fill="#63b8ff" stroke="#63b8ff" points="74.85,-827.36 76.76,-837.78 81.76,-828.44 74.85,-827.36"/>
</a>
</g>
</g>
<!-- Node30 -->
<g id="Node000030" class="node">
<title>Node30</title>
<g id="a_Node000030"><a xlink:href="dd/d64/classInstallerManager.html" target="_top" xlink:title="Cross&#45;platform installer and package management system.">
<polygon fill="white" stroke="#666666" points="325,-19 226,-19 226,0 325,0 325,-19"/>
<text text-anchor="middle" x="275.5" y="-7" font-family="Helvetica,sans-Serif" font-size="10.00">InstallerManager</text>
</a>
</g>
</g>
<!-- Node2&#45;&gt;Node30 -->
<g id="edge34_Node000002_Node000030" class="edge">
<title>Node2&#45;&gt;Node30</title>
<g id="a_edge34_Node000002_Node000030"><a xlink:title=" ">
<path fill="none" stroke="#63b8ff" d="M75.19,-827.76C73.84,-714.65 72.83,-149.57 185,-28.5 195.47,-17.2 210.86,-11.73 225.93,-9.3"/>
<polygon fill="#63b8ff" stroke="#63b8ff" points="71.69,-827.83 75.33,-837.78 78.69,-827.73 71.69,-827.83"/>
</a>
</g>
</g>
<!-- Node31 -->
<g id="Node000031" class="node">
<title>Node31</title>
<g id="a_Node000031"><a xlink:href="d2/d56/classInternetStreamingManager.html" target="_top" xlink:title="Internet streaming services management system.">
<polygon fill="white" stroke="#666666" points="349.5,-1523 201.5,-1523 201.5,-1504 349.5,-1504 349.5,-1523"/>
<text text-anchor="middle" x="275.5" y="-1511" font-family="Helvetica,sans-Serif" font-size="10.00">InternetStreamingManager</text>
</a>
</g>
</g>
<!-- Node2&#45;&gt;Node31 -->
<g id="edge35_Node000002_Node000031" class="edge">
<title>Node2&#45;&gt;Node31</title>
<g id="a_edge35_Node000002_Node000031"><a xlink:title=" ">
<path fill="none" stroke="#63b8ff" d="M75.94,-867.59C78.55,-966.74 95.05,-1402.71 185,-1495.5 189.63,-1500.28 195.16,-1503.98 201.15,-1506.81"/>
<polygon fill="#63b8ff" stroke="#63b8ff" points="79.44,-867.36 75.7,-857.44 72.44,-867.53 79.44,-867.36"/>
</a>
</g>
</g>
<!-- Node32 -->
<g id="Node000032" class="node">
<title>Node32</title>
<g id="a_Node000032"><a xlink:href="df/dba/classInternetStreamingService.html" target="_top" xlink:title="Manages internet streaming services integration.">
<polygon fill="white" stroke="#666666" points="346,-1486 205,-1486 205,-1467 346,-1467 346,-1486"/>
<text text-anchor="middle" x="275.5" y="-1474" font-family="Helvetica,sans-Serif" font-size="10.00">InternetStreamingService</text>
</a>
</g>
</g>
<!-- Node2&#45;&gt;Node32 -->
<g id="edge36_Node000002_Node000032" class="edge">
<title>Node2&#45;&gt;Node32</title>
<g id="a_edge36_Node000002_Node000032"><a xlink:title=" ">
<path fill="none" stroke="#63b8ff" d="M76.16,-867.35C79.73,-962.57 99.87,-1371.56 185,-1458.5 190.54,-1464.16 197.34,-1468.3 204.68,-1471.29"/>
<polygon fill="#63b8ff" stroke="#63b8ff" points="79.65,-867.2 75.8,-857.33 72.66,-867.45 79.65,-867.2"/>
</a>
</g>
</g>
<!-- Node33 -->
<g id="Node000033" class="node">
<title>Node33</title>
<g id="a_Node000033"><a xlink:href="d8/d4d/classLinuxPlatform.html" target="_top" xlink:title="Linux&#45;specific platform integration and system features.">
<polygon fill="white" stroke="#666666" points="318,-1449 233,-1449 233,-1430 318,-1430 318,-1449"/>
<text text-anchor="middle" x="275.5" y="-1437" font-family="Helvetica,sans-Serif" font-size="10.00">LinuxPlatform</text>
</a>
</g>
</g>
<!-- Node2&#45;&gt;Node33 -->
<g id="edge37_Node000002_Node000033" class="edge">
<title>Node2&#45;&gt;Node33</title>
<g id="a_edge37_Node000002_Node000033"><a xlink:title=" ">
<path fill="none" stroke="#63b8ff" d="M76.4,-867.29C80.99,-958.86 104.74,-1340.44 185,-1421.5 197.38,-1434 215.85,-1439.05 232.8,-1440.75"/>
<polygon fill="#63b8ff" stroke="#63b8ff" points="79.89,-867 75.92,-857.18 72.9,-867.33 79.89,-867"/>
</a>
</g>
</g>
<!-- Node36 -->
<g id="Node000036" class="node">
<title>Node36</title>
<g id="a_Node000036"><a xlink:href="d5/df7/classNetworkDiscoveryManager.html" target="_top" xlink:title="Manages network device discovery and media sharing.">
<polygon fill="white" stroke="#666666" points="350,-1412 201,-1412 201,-1393 350,-1393 350,-1412"/>
<text text-anchor="middle" x="275.5" y="-1400" font-family="Helvetica,sans-Serif" font-size="10.00">NetworkDiscoveryManager</text>
</a>
</g>
</g>
<!-- Node2&#45;&gt;Node36 -->
<g id="edge39_Node000002_Node000036" class="edge">
<title>Node2&#45;&gt;Node36</title>
<g id="a_edge39_Node000002_Node000036"><a xlink:title=" ">
<path fill="none" stroke="#63b8ff" d="M76.69,-867.41C82.37,-955.51 109.65,-1309.35 185,-1384.5 189.6,-1389.09 195.02,-1392.67 200.89,-1395.45"/>
<polygon fill="#63b8ff" stroke="#63b8ff" points="80.18,-867.16 76.07,-857.4 73.2,-867.6 80.18,-867.16"/>
</a>
</g>
</g>
<!-- Node37 -->
<g id="Node000037" class="node">
<title>Node37</title>
<g id="a_Node000037"><a xlink:href="dd/d55/classNetworkStreamManager.html" target="_top" xlink:title="Manages network streaming protocols and bandwidth monitoring.">
<polygon fill="white" stroke="#666666" points="343.5,-1375 207.5,-1375 207.5,-1356 343.5,-1356 343.5,-1375"/>
<text text-anchor="middle" x="275.5" y="-1363" font-family="Helvetica,sans-Serif" font-size="10.00">NetworkStreamManager</text>
</a>
</g>
</g>
<!-- Node2&#45;&gt;Node37 -->
<g id="edge40_Node000002_Node000037" class="edge">
<title>Node2&#45;&gt;Node37</title>
<g id="a_edge40_Node000002_Node000037"><a xlink:title=" ">
<path fill="none" stroke="#63b8ff" d="M77.01,-867.35C83.82,-951.56 114.49,-1278.19 185,-1347.5 191.22,-1353.61 198.89,-1357.93 207.12,-1360.94"/>
<polygon fill="#63b8ff" stroke="#63b8ff" points="80.48,-866.82 76.21,-857.13 73.5,-867.37 80.48,-866.82"/>
</a>
</g>
</g>
<!-- Node38 -->
<g id="Node000038" class="node">
<title>Node38</title>
<g id="a_Node000038"><a xlink:href="d3/d46/classNotificationManager.html" target="_top" xlink:title="Notification manager for EonPlay.">
<polygon fill="white" stroke="#666666" points="333.5,-1338 217.5,-1338 217.5,-1319 333.5,-1319 333.5,-1338"/>
<text text-anchor="middle" x="275.5" y="-1326" font-family="Helvetica,sans-Serif" font-size="10.00">NotificationManager</text>
</a>
</g>
</g>
<!-- Node2&#45;&gt;Node38 -->
<g id="edge41_Node000002_Node000038" class="edge">
<title>Node2&#45;&gt;Node38</title>
<g id="a_edge41_Node000002_Node000038"><a xlink:title=" ">
<path fill="none" stroke="#63b8ff" d="M77.39,-867.4C85.41,-947.76 119.34,-1247.02 185,-1310.5 193.77,-1318.98 205.37,-1323.99 217.29,-1326.85"/>
<polygon fill="#63b8ff" stroke="#63b8ff" points="80.85,-866.8 76.39,-857.19 73.88,-867.48 80.85,-866.8"/>
</a>
</g>
</g>
<!-- Node39 -->
<g id="Node000039" class="node">
<title>Node39</title>
<g id="a_Node000039"><a xlink:href="dd/d2d/classParentalControlManager.html" target="_top" xlink:title="Comprehensive parental control and content filtering system.">
<polygon fill="white" stroke="#666666" points="342.5,-1301 208.5,-1301 208.5,-1282 342.5,-1282 342.5,-1301"/>
<text text-anchor="middle" x="275.5" y="-1289" font-family="Helvetica,sans-Serif" font-size="10.00">ParentalControlManager</text>
</a>
</g>
</g>
<!-- Node2&#45;&gt;Node39 -->
<g id="edge42_Node000002_Node000039" class="edge">
<title>Node2&#45;&gt;Node39</title>
<g id="a_edge42_Node000002_Node000039"><a xlink:title=" ">
<path fill="none" stroke="#63b8ff" d="M77.81,-867.26C87.08,-943.33 124.12,-1215.78 185,-1273.5 191.56,-1279.72 199.63,-1284.06 208.22,-1287.05"/>
<polygon fill="#63b8ff" stroke="#63b8ff" points="81.26,-866.67 76.6,-857.16 74.31,-867.5 81.26,-866.67"/>
</a>
</g>
</g>
<!-- Node41 -->
<g id="Node000041" class="node">
<title>Node41</title>
<g id="a_Node000041"><a xlink:href="d0/d59/classSecurityManager.html" target="_top" xlink:title="Comprehensive security manager for EonPlay.">
<polygon fill="white" stroke="#666666" points="325,-1264 226,-1264 226,-1245 325,-1245 325,-1264"/>
<text text-anchor="middle" x="275.5" y="-1252" font-family="Helvetica,sans-Serif" font-size="10.00">SecurityManager</text>
</a>
</g>
</g>
<!-- Node2&#45;&gt;Node41 -->
<g id="edge44_Node000002_Node000041" class="edge">
<title>Node2&#45;&gt;Node41</title>
<g id="a_edge44_Node000002_Node000041"><a xlink:title=" ">
<path fill="none" stroke="#63b8ff" d="M78.33,-867.36C88.99,-939.27 128.94,-1184.55 185,-1236.5 196.04,-1246.74 211.22,-1251.85 225.93,-1254.24"/>
<polygon fill="#63b8ff" stroke="#63b8ff" points="81.73,-866.42 76.83,-857.03 74.81,-867.43 81.73,-866.42"/>
</a>
</g>
</g>
<!-- Node43 -->
<g id="Node000043" class="node">
<title>Node43</title>
<g id="a_Node000043"><a xlink:href="d9/d32/classStreamingManager.html" target="_top" xlink:title="Comprehensive network streaming management system.">
<polygon fill="white" stroke="#666666" points="330.5,-1227 220.5,-1227 220.5,-1208 330.5,-1208 330.5,-1227"/>
<text text-anchor="middle" x="275.5" y="-1215" font-family="Helvetica,sans-Serif" font-size="10.00">StreamingManager</text>
</a>
</g>
</g>
<!-- Node2&#45;&gt;Node43 -->
<g id="edge46_Node000002_Node000043" class="edge">
<title>Node2&#45;&gt;Node43</title>
<g id="a_edge46_Node000002_Node000043"><a xlink:title=" ">
<path fill="none" stroke="#63b8ff" d="M75.16,-867.2C75.28,-927.13 84.32,-1108.7 185,-1199.5 194.65,-1208.2 207.3,-1213.18 220.04,-1215.92"/>
<polygon fill="#63b8ff" stroke="#63b8ff" points="78.66,-867.21 75.23,-857.18 71.66,-867.16 78.66,-867.21"/>
</a>
</g>
</g>
<!-- Node44 -->
<g id="Node000044" class="node">
<title>Node44</title>
<g id="a_Node000044"><a xlink:href="dd/d8b/classSubtitleManager.html" target="_top" xlink:title="Central manager for subtitle operations in EonPlay.">
<polygon fill="white" stroke="#666666" points="324,-1190 227,-1190 227,-1171 324,-1171 324,-1190"/>
<text text-anchor="middle" x="275.5" y="-1178" font-family="Helvetica,sans-Serif" font-size="10.00">SubtitleManager</text>
</a>
</g>
</g>
<!-- Node2&#45;&gt;Node44 -->
<g id="edge47_Node000002_Node000044" class="edge">
<title>Node2&#45;&gt;Node44</title>
<g id="a_edge47_Node000002_Node000044"><a xlink:title=" ">
<path fill="none" stroke="#63b8ff" d="M75.99,-867.31C78.52,-923.15 93.76,-1082.9 185,-1162.5 196.47,-1172.5 211.92,-1177.53 226.75,-1179.92"/>
<polygon fill="#63b8ff" stroke="#63b8ff" points="79.48,-866.91 75.62,-857.04 72.48,-867.16 79.48,-866.91"/>
</a>
</g>
</g>
<!-- Node45 -->
<g id="Node000045" class="node">
<title>Node45</title>
<g id="a_Node000045"><a xlink:href="d6/dfb/classSystemTrayManager.html" target="_top" xlink:title="System tray integration manager for EonPlay.">
<polygon fill="white" stroke="#666666" points="333.5,-1153 217.5,-1153 217.5,-1134 333.5,-1134 333.5,-1153"/>
<text text-anchor="middle" x="275.5" y="-1141" font-family="Helvetica,sans-Serif" font-size="10.00">SystemTrayManager</text>
</a>
</g>
</g>
<!-- Node2&#45;&gt;Node45 -->
<g id="edge48_Node000002_Node000045" class="edge">
<title>Node2&#45;&gt;Node45</title>
<g id="a_edge48_Node000002_Node000045"><a xlink:title=" ">
<path fill="none" stroke="#63b8ff" d="M77.1,-867.26C82.33,-918.37 103.68,-1055.76 185,-1124.5 194.1,-1132.19 205.55,-1137.01 217.19,-1139.97"/>
<polygon fill="#63b8ff" stroke="#63b8ff" points="80.57,-866.84 76.16,-857.21 73.6,-867.49 80.57,-866.84"/>
</a>
</g>
</g>
<!-- Node46 -->
<g id="Node000046" class="node">
<title>Node46</title>
<g id="a_Node000046"><a xlink:href="de/d2b/classVideoCastingManager.html" target="_top" xlink:title="Video casting and streaming management system.">
<polygon fill="white" stroke="#666666" points="337.5,-1116 213.5,-1116 213.5,-1097 337.5,-1097 337.5,-1116"/>
<text text-anchor="middle" x="275.5" y="-1104" font-family="Helvetica,sans-Serif" font-size="10.00">VideoCastingManager</text>
</a>
</g>
</g>
<!-- Node2&#45;&gt;Node46 -->
<g id="edge49_Node000002_Node000046" class="edge">
<title>Node2&#45;&gt;Node46</title>
<g id="a_edge49_Node000002_Node000046"><a xlink:title=" ">
<path fill="none" stroke="#63b8ff" d="M78.39,-867.09C86.29,-913.29 112.72,-1029.53 185,-1087.5 193.18,-1094.06 203.09,-1098.5 213.29,-1101.48"/>
<polygon fill="#63b8ff" stroke="#63b8ff" points="81.84,-866.48 76.8,-857.16 74.93,-867.59 81.84,-866.48"/>
</a>
</g>
</g>
<!-- Node47 -->
<g id="Node000047" class="node">
<title>Node47</title>
<g id="a_Node000047"><a xlink:href="d2/d07/classVideoExporter.html" target="_top" xlink:title="Advanced video export system with screenshots, GIF, and processing.">
<polygon fill="white" stroke="#666666" points="318.5,-1079 232.5,-1079 232.5,-1060 318.5,-1060 318.5,-1079"/>
<text text-anchor="middle" x="275.5" y="-1067" font-family="Helvetica,sans-Serif" font-size="10.00">VideoExporter</text>
</a>
</g>
</g>
<!-- Node2&#45;&gt;Node47 -->
<g id="edge50_Node000002_Node000047" class="edge">
<title>Node2&#45;&gt;Node47</title>
<g id="a_edge50_Node000002_Node000047"><a xlink:title=" ">
<path fill="none" stroke="#63b8ff" d="M80.06,-866.81C90.78,-907.67 121.58,-1003.02 185,-1050.5 198.48,-1060.59 216.14,-1065.58 232.21,-1067.97"/>
<polygon fill="#63b8ff" stroke="#63b8ff" points="83.44,-865.87 77.61,-857.02 76.65,-867.57 83.44,-865.87"/>
</a>
</g>
</g>
<!-- Node48 -->
<g id="Node000048" class="node">
<title>Node48</title>
<g id="a_Node000048"><a xlink:href="d1/d7c/classVideoProcessor.html" target="_top" xlink:title="Advanced video processing system with filters and enhancements.">
<polygon fill="white" stroke="#666666" points="321.5,-1042 229.5,-1042 229.5,-1023 321.5,-1023 321.5,-1042"/>
<text text-anchor="middle" x="275.5" y="-1030" font-family="Helvetica,sans-Serif" font-size="10.00">VideoProcessor</text>
</a>
</g>
</g>
<!-- Node2&#45;&gt;Node48 -->
<g id="edge51_Node000002_Node000048" class="edge">
<title>Node2&#45;&gt;Node48</title>
<g id="a_edge51_Node000002_Node000048"><a xlink:title=" ">
<path fill="none" stroke="#63b8ff" d="M82.51,-866.87C96.3,-902.06 130.45,-976.31 185,-1013.5 197.99,-1022.36 214.32,-1027.21 229.46,-1029.82"/>
<polygon fill="#63b8ff" stroke="#63b8ff" points="85.69,-865.39 78.88,-857.28 79.15,-867.87 85.69,-865.39"/>
</a>
</g>
</g>
<!-- Node49 -->
<g id="Node000049" class="node">
<title>Node49</title>
<g id="a_Node000049"><a xlink:href="de/da0/classWindowsPlatform.html" target="_top" xlink:title="Windows&#45;specific platform integration and system features.">
<polygon fill="white" stroke="#666666" points="327,-561 224,-561 224,-542 327,-542 327,-561"/>
<text text-anchor="middle" x="275.5" y="-549" font-family="Helvetica,sans-Serif" font-size="10.00">WindowsPlatform</text>
</a>
</g>
</g>
<!-- Node2&#45;&gt;Node49 -->
<g id="edge52_Node000002_Node000049" class="edge">
<title>Node2&#45;&gt;Node49</title>
<g id="a_edge52_Node000002_Node000049"><a xlink:title=" ">
<path fill="none" stroke="#63b8ff" d="M77.03,-827.62C82.11,-776.21 103.1,-638.07 185,-569.5 195.82,-560.44 209.93,-555.51 223.74,-552.93"/>
<polygon fill="#63b8ff" stroke="#63b8ff" points="73.53,-827.46 76.13,-837.73 80.5,-828.08 73.53,-827.46"/>
</a>
</g>
</g>
<!-- Node15 -->
<g id="Node000015" class="node">
<title>Node15</title>
<g id="a_Node000015"><a xlink:href="d6/d5c/classEonPlay_1_1AI_1_1WhisperSubtitleGenerator.html" target="_top" xlink:title="Whisper&#45;based AI subtitle generator.">
<polygon fill="white" stroke="#666666" points="556,-67.5 402,-67.5 402,-37.5 556,-37.5 556,-67.5"/>
<text text-anchor="start" x="410" y="-55.5" font-family="Helvetica,sans-Serif" font-size="10.00">EonPlay::AI::WhisperSubtitle</text>
<text text-anchor="middle" x="479" y="-44.5" font-family="Helvetica,sans-Serif" font-size="10.00">Generator</text>
</a>
</g>
</g>
<!-- Node14&#45;&gt;Node15 -->
<g id="edge18_Node000014_Node000015" class="edge">
<title>Node14&#45;&gt;Node15</title>
<g id="a_edge18_Node000014_Node000015"><a xlink:title=" ">
<path fill="none" stroke="#63b8ff" d="M349.58,-52.5C366.61,-52.5 384.77,-52.5 401.92,-52.5"/>
<polygon fill="#63b8ff" stroke="#63b8ff" points="349.15,-49 339.15,-52.5 349.15,-56 349.15,-49"/>
</a>
</g>
</g>
<!-- Node28&#45;&gt;Node29 -->
<g id="edge33_Node000028_Node000029" class="edge">
<title>Node28&#45;&gt;Node29</title>
<g id="a_edge33_Node000028_Node000029"><a xlink:title=" ">
<path fill="none" stroke="#63b8ff" d="M327.39,-588.63C341.52,-591.13 355.77,-596.35 366,-606.5 444.9,-684.84 473.05,-1067.02 477.39,-1133.6"/>
<polygon fill="#63b8ff" stroke="#63b8ff" points="327.56,-585.13 317.18,-587.26 326.63,-592.06 327.56,-585.13"/>
</a>
</g>
</g>
</g>
</svg>
