<?xml version="1.0" encoding="UTF-8" standalone="no"?>
<!DOCTYPE svg PUBLIC "-//W3C//DTD SVG 1.1//EN"
 "http://www.w3.org/Graphics/SVG/1.1/DTD/svg11.dtd">
<!-- Generated by graphviz version 2.43.0 (0)
 -->
<!-- Title: Graphical Class Hierarchy Pages: 1 -->
<svg width="255pt" height="64pt"
 viewBox="0.00 0.00 255.00 64.00" xmlns="http://www.w3.org/2000/svg" xmlns:xlink="http://www.w3.org/1999/xlink">
<g id="graph0" class="graph" transform="scale(1 1) rotate(0) translate(4 60)">
<title>Graphical Class Hierarchy</title>
<!-- Node0 -->
<g id="Node000000" class="node">
<title>Node0</title>
<g id="a_Node000000"><a xlink:title=" ">
<polygon fill="#e0e0e0" stroke="#999999" points="79,-37 0,-37 0,-18 79,-18 79,-37"/>
<text text-anchor="middle" x="39.5" y="-25" font-family="Helvetica,sans-Serif" font-size="10.00">QApplication</text>
</a>
</g>
</g>
<!-- Node1 -->
<g id="Node000001" class="node">
<title>Node1</title>
<g id="a_Node000001"><a xlink:href="d2/d38/classEonPlayApplication.html" target="_top" xlink:title="Main application class for EonPlay &#45; Timeless, futuristic media player.">
<polygon fill="white" stroke="#666666" points="236,-56 126,-56 126,-37 236,-37 236,-56"/>
<text text-anchor="middle" x="181" y="-44" font-family="Helvetica,sans-Serif" font-size="10.00">EonPlayApplication</text>
</a>
</g>
</g>
<!-- Node0&#45;&gt;Node1 -->
<g id="edge56_Node000000_Node000001" class="edge">
<title>Node0&#45;&gt;Node1</title>
<g id="a_edge56_Node000000_Node000001"><a xlink:title=" ">
<path fill="none" stroke="#63b8ff" d="M89.47,-34.17C101.27,-35.78 113.95,-37.5 125.97,-39.14"/>
<polygon fill="#63b8ff" stroke="#63b8ff" points="89.74,-30.67 79.36,-32.79 88.79,-37.61 89.74,-30.67"/>
</a>
</g>
</g>
<!-- Node2 -->
<g id="Node000002" class="node">
<title>Node2</title>
<g id="a_Node000002"><a xlink:href="d2/dd7/classMediaPlayerApplication.html" target="_top" xlink:title="Main application class for the Cross&#45;Platform Media Player.">
<polygon fill="white" stroke="#666666" points="247,-19 115,-19 115,0 247,0 247,-19"/>
<text text-anchor="middle" x="181" y="-7" font-family="Helvetica,sans-Serif" font-size="10.00">MediaPlayerApplication</text>
</a>
</g>
</g>
<!-- Node0&#45;&gt;Node2 -->
<g id="edge57_Node000000_Node000002" class="edge">
<title>Node0&#45;&gt;Node2</title>
<g id="a_edge57_Node000000_Node000002"><a xlink:title=" ">
<path fill="none" stroke="#63b8ff" d="M89.5,-21.18C97.71,-20.12 106.35,-19 114.89,-17.9"/>
<polygon fill="#63b8ff" stroke="#63b8ff" points="88.83,-17.73 79.36,-22.49 89.72,-24.68 88.83,-17.73"/>
</a>
</g>
</g>
</g>
</svg>
