<?xml version="1.0" encoding="UTF-8" standalone="no"?>
<!DOCTYPE svg PUBLIC "-//W3C//DTD SVG 1.1//EN"
 "http://www.w3.org/Graphics/SVG/1.1/DTD/svg11.dtd">
<!-- Generated by graphviz version 2.43.0 (0)
 -->
<!-- Title: Graphical Class Hierarchy Pages: 1 -->
<svg width="340pt" height="64pt"
 viewBox="0.00 0.00 340.00 64.00" xmlns="http://www.w3.org/2000/svg" xmlns:xlink="http://www.w3.org/1999/xlink">
<g id="graph0" class="graph" transform="scale(1 1) rotate(0) translate(4 60)">
<title>Graphical Class Hierarchy</title>
<!-- Node0 -->
<g id="Node000000" class="node">
<title>Node0</title>
<g id="a_Node000000"><a xlink:href="d3/dc3/classISubtitleParser.html" target="_top" xlink:title="Abstract interface for subtitle format parsers.">
<polygon fill="white" stroke="#666666" points="87,-37 0,-37 0,-18 87,-18 87,-37"/>
<text text-anchor="middle" x="43.5" y="-25" font-family="Helvetica,sans-Serif" font-size="10.00">ISubtitleParser</text>
</a>
</g>
</g>
<!-- Node1 -->
<g id="Node000001" class="node">
<title>Node1</title>
<g id="a_Node000001"><a xlink:href="d0/dcf/classBaseSubtitleParser.html" target="_top" xlink:title="Base implementation of ISubtitleParser with common functionality.">
<polygon fill="white" stroke="#666666" points="231,-37 123,-37 123,-18 231,-18 231,-37"/>
<text text-anchor="middle" x="177" y="-25" font-family="Helvetica,sans-Serif" font-size="10.00">BaseSubtitleParser</text>
</a>
</g>
</g>
<!-- Node0&#45;&gt;Node1 -->
<g id="edge53_Node000000_Node000001" class="edge">
<title>Node0&#45;&gt;Node1</title>
<g id="a_edge53_Node000000_Node000001"><a xlink:title=" ">
<path fill="none" stroke="#63b8ff" d="M97.31,-27.5C105.75,-27.5 114.49,-27.5 122.93,-27.5"/>
<polygon fill="#63b8ff" stroke="#63b8ff" points="97.19,-24 87.19,-27.5 97.19,-31 97.19,-24"/>
</a>
</g>
</g>
<!-- Node2 -->
<g id="Node000002" class="node">
<title>Node2</title>
<g id="a_Node000002"><a xlink:href="db/dc3/classASSParser.html" target="_top" xlink:title="Parser for Advanced SubStation Alpha (.ass/.ssa) subtitle format.">
<polygon fill="white" stroke="#666666" points="332,-56 267,-56 267,-37 332,-37 332,-56"/>
<text text-anchor="middle" x="299.5" y="-44" font-family="Helvetica,sans-Serif" font-size="10.00">ASSParser</text>
</a>
</g>
</g>
<!-- Node1&#45;&gt;Node2 -->
<g id="edge54_Node000001_Node000002" class="edge">
<title>Node1&#45;&gt;Node2</title>
<g id="a_edge54_Node000001_Node000002"><a xlink:title=" ">
<path fill="none" stroke="#63b8ff" d="M241.18,-37.46C250.02,-38.86 258.77,-40.24 266.68,-41.48"/>
<polygon fill="#63b8ff" stroke="#63b8ff" points="241.63,-33.99 231.2,-35.89 240.54,-40.9 241.63,-33.99"/>
</a>
</g>
</g>
<!-- Node3 -->
<g id="Node000003" class="node">
<title>Node3</title>
<g id="a_Node000003"><a xlink:href="dc/db9/classSRTParser.html" target="_top" xlink:title="Parser for SubRip (.srt) subtitle format.">
<polygon fill="white" stroke="#666666" points="332,-19 267,-19 267,0 332,0 332,-19"/>
<text text-anchor="middle" x="299.5" y="-7" font-family="Helvetica,sans-Serif" font-size="10.00">SRTParser</text>
</a>
</g>
</g>
<!-- Node1&#45;&gt;Node3 -->
<g id="edge55_Node000001_Node000003" class="edge">
<title>Node1&#45;&gt;Node3</title>
<g id="a_edge55_Node000001_Node000003"><a xlink:title=" ">
<path fill="none" stroke="#63b8ff" d="M241.18,-18.06C250.02,-16.74 258.77,-15.43 266.68,-14.25"/>
<polygon fill="#63b8ff" stroke="#63b8ff" points="240.58,-14.61 231.2,-19.55 241.61,-21.54 240.58,-14.61"/>
</a>
</g>
</g>
</g>
</svg>
