<?xml version="1.0" encoding="UTF-8" standalone="no"?>
<!DOCTYPE svg PUBLIC "-//W3C//DTD SVG 1.1//EN"
 "http://www.w3.org/Graphics/SVG/1.1/DTD/svg11.dtd">
<!-- Generated by graphviz version 2.43.0 (0)
 -->
<!-- Title: IMediaEngine::errorOccurred Pages: 1 -->
<svg width="954pt" height="73pt"
 viewBox="0.00 0.00 954.00 72.50" xmlns="http://www.w3.org/2000/svg" xmlns:xlink="http://www.w3.org/1999/xlink">
<g id="graph0" class="graph" transform="scale(1 1) rotate(0) translate(4 68.5)">
<title>IMediaEngine::errorOccurred</title>
<!-- Node1 -->
<g id="Node000001" class="node">
<title>Node1</title>
<g id="a_Node000001"><a xlink:title="Emitted when an error occurs.">
<polygon fill="#999999" stroke="#666666" points="946,-37 791,-37 791,-18 946,-18 946,-37"/>
<text text-anchor="middle" x="868.5" y="-25" font-family="Helvetica,sans-Serif" font-size="10.00">IMediaEngine::errorOccurred</text>
</a>
</g>
</g>
<!-- Node2 -->
<g id="Node000002" class="node">
<title>Node2</title>
<g id="a_Node000002"><a xlink:href="../../d6/d6e/classVLCBackend.html#aeda285ae63c3a0e56c4158e484503d34" target="_top" xlink:title="Load media from file path or URL.">
<polygon fill="white" stroke="#666666" points="755,-56 621,-56 621,-37 755,-37 755,-56"/>
<text text-anchor="middle" x="688" y="-44" font-family="Helvetica,sans-Serif" font-size="10.00">VLCBackend::loadMedia</text>
</a>
</g>
</g>
<!-- Node1&#45;&gt;Node2 -->
<g id="edge1_Node000001_Node000002" class="edge">
<title>Node1&#45;&gt;Node2</title>
<g id="a_edge1_Node000001_Node000002"><a xlink:title=" ">
<path fill="none" stroke="#63b8ff" d="M780.67,-36.74C772.04,-37.66 763.37,-38.58 755.01,-39.47"/>
<polygon fill="#63b8ff" stroke="#63b8ff" points="781.19,-40.21 790.76,-35.67 780.45,-33.25 781.19,-40.21"/>
</a>
</g>
</g>
<!-- Node6 -->
<g id="Node000006" class="node">
<title>Node6</title>
<g id="a_Node000006"><a xlink:href="../../d6/d6e/classVLCBackend.html#a6043b25f0b210cdeac420aab048fde7d" target="_top" xlink:title="Start or resume playback.">
<polygon fill="white" stroke="#666666" points="740,-19 636,-19 636,0 740,0 740,-19"/>
<text text-anchor="middle" x="688" y="-7" font-family="Helvetica,sans-Serif" font-size="10.00">VLCBackend::play</text>
</a>
</g>
</g>
<!-- Node1&#45;&gt;Node6 -->
<g id="edge6_Node000001_Node000006" class="edge">
<title>Node1&#45;&gt;Node6</title>
<g id="a_edge6_Node000001_Node000006"><a xlink:title=" ">
<path fill="none" stroke="#63b8ff" d="M780.69,-18.75C766.81,-17.35 752.85,-15.94 740.16,-14.66"/>
<polygon fill="#63b8ff" stroke="#63b8ff" points="780.46,-22.24 790.76,-19.76 781.17,-15.28 780.46,-22.24"/>
</a>
</g>
</g>
<!-- Node3 -->
<g id="Node000003" class="node">
<title>Node3</title>
<g id="a_Node000003"><a xlink:href="../../d6/d6e/classVLCBackend.html#a80643e4b0983248daee43ac1ada9d441" target="_top" xlink:title="Update hardware acceleration settings.">
<polygon fill="white" stroke="#666666" points="585,-42.5 379,-42.5 379,-12.5 585,-12.5 585,-42.5"/>
<text text-anchor="start" x="387" y="-30.5" font-family="Helvetica,sans-Serif" font-size="10.00">VLCBackend::setHardwareAcceleration</text>
<text text-anchor="middle" x="482" y="-19.5" font-family="Helvetica,sans-Serif" font-size="10.00">Enabled</text>
</a>
</g>
</g>
<!-- Node2&#45;&gt;Node3 -->
<g id="edge2_Node000002_Node000003" class="edge">
<title>Node2&#45;&gt;Node3</title>
<g id="a_edge2_Node000002_Node000003"><a xlink:title=" ">
<path fill="none" stroke="#63b8ff" d="M610.73,-39.4C602.38,-38.62 593.79,-37.82 585.19,-37.02"/>
<polygon fill="#63b8ff" stroke="#63b8ff" points="610.49,-42.89 620.77,-40.33 611.13,-35.92 610.49,-42.89"/>
</a>
</g>
</g>
<!-- Node4 -->
<g id="Node000004" class="node">
<title>Node4</title>
<g id="a_Node000004"><a xlink:href="../../d6/d6e/classVLCBackend.html#ac324fcd2c2413b5753bfcf3064df5157" target="_top" xlink:title="Set preferred hardware acceleration type.">
<polygon fill="white" stroke="#666666" points="343,-64.5 200,-64.5 200,-34.5 343,-34.5 343,-64.5"/>
<text text-anchor="start" x="208" y="-52.5" font-family="Helvetica,sans-Serif" font-size="10.00">VLCBackend::setPreferred</text>
<text text-anchor="middle" x="271.5" y="-41.5" font-family="Helvetica,sans-Serif" font-size="10.00">AccelerationType</text>
</a>
</g>
</g>
<!-- Node3&#45;&gt;Node4 -->
<g id="edge3_Node000003_Node000004" class="edge">
<title>Node3&#45;&gt;Node4</title>
<g id="a_edge3_Node000003_Node000004"><a xlink:title=" ">
<path fill="none" stroke="#63b8ff" d="M368.71,-39.35C360.05,-40.26 351.47,-41.17 343.21,-42.04"/>
<polygon fill="#63b8ff" stroke="#63b8ff" points="369.31,-42.8 378.89,-38.27 368.58,-35.84 369.31,-42.8"/>
</a>
</g>
</g>
<!-- Node5 -->
<g id="Node000005" class="node">
<title>Node5</title>
<g id="a_Node000005"><a xlink:href="../../d6/d6e/classVLCBackend.html#a66f2d955ba041562dfccaa3cf8163394" target="_top" xlink:title="Update hardware acceleration from user preferences.">
<polygon fill="white" stroke="#666666" points="164,-42.5 0,-42.5 0,-12.5 164,-12.5 164,-42.5"/>
<text text-anchor="start" x="8" y="-30.5" font-family="Helvetica,sans-Serif" font-size="10.00">VLCBackend::updateHardware</text>
<text text-anchor="middle" x="82" y="-19.5" font-family="Helvetica,sans-Serif" font-size="10.00">AccelerationFromPreferences</text>
</a>
</g>
</g>
<!-- Node3&#45;&gt;Node5 -->
<g id="edge5_Node000003_Node000005" class="edge">
<title>Node3&#45;&gt;Node5</title>
<g id="a_edge5_Node000003_Node000005"><a xlink:title=" ">
<path fill="none" stroke="#63b8ff" d="M368.68,-25.74C359.99,-25.64 351.35,-25.56 343,-25.5 279.45,-25.04 263.55,-24.96 200,-25.5 188.42,-25.6 176.2,-25.75 164.19,-25.93"/>
<polygon fill="#63b8ff" stroke="#63b8ff" points="368.85,-29.24 378.89,-25.85 368.93,-22.24 368.85,-29.24"/>
</a>
</g>
</g>
<!-- Node4&#45;&gt;Node5 -->
<g id="edge4_Node000004_Node000005" class="edge">
<title>Node4&#45;&gt;Node5</title>
<g id="a_edge4_Node000004_Node000005"><a xlink:title=" ">
<path fill="none" stroke="#63b8ff" d="M189.69,-40.02C181.26,-39.03 172.69,-38.02 164.26,-37.03"/>
<polygon fill="#63b8ff" stroke="#63b8ff" points="189.54,-43.52 199.88,-41.21 190.36,-36.57 189.54,-43.52"/>
</a>
</g>
</g>
<!-- Node6&#45;&gt;Node3 -->
<g id="edge7_Node000006_Node000003" class="edge">
<title>Node6&#45;&gt;Node3</title>
<g id="a_edge7_Node000006_Node000003"><a xlink:title=" ">
<path fill="none" stroke="#63b8ff" d="M625.74,-14.91C612.92,-16.04 599.07,-17.26 585.21,-18.48"/>
<polygon fill="#63b8ff" stroke="#63b8ff" points="626.13,-18.38 635.79,-14.02 625.52,-11.41 626.13,-18.38"/>
</a>
</g>
</g>
</g>
</svg>
