<?xml version="1.0" encoding="UTF-8" standalone="no"?>
<!DOCTYPE svg PUBLIC "-//W3C//DTD SVG 1.1//EN"
 "http://www.w3.org/Graphics/SVG/1.1/DTD/svg11.dtd">
<!-- Generated by graphviz version 2.43.0 (0)
 -->
<!-- Title: src/network/StreamingManager.cpp Pages: 1 -->
<svg width="2073pt" height="137pt"
 viewBox="0.00 0.00 2072.50 137.00" xmlns="http://www.w3.org/2000/svg" xmlns:xlink="http://www.w3.org/1999/xlink">
<g id="graph0" class="graph" transform="scale(1 1) rotate(0) translate(4 133)">
<title>src/network/StreamingManager.cpp</title>
<!-- Node1 -->
<g id="Node000001" class="node">
<title>Node1</title>
<g id="a_Node000001"><a xlink:title=" ">
<polygon fill="#999999" stroke="#666666" points="1504.5,-129 1315.5,-129 1315.5,-110 1504.5,-110 1504.5,-129"/>
<text text-anchor="middle" x="1410" y="-117" font-family="Helvetica,sans-Serif" font-size="10.00">src/network/StreamingManager.cpp</text>
</a>
</g>
</g>
<!-- Node2 -->
<g id="Node000002" class="node">
<title>Node2</title>
<g id="a_Node000002"><a xlink:href="../../db/d44/StreamingManager_8h.html" target="_top" xlink:title=" ">
<polygon fill="white" stroke="#666666" points="638.5,-74 477.5,-74 477.5,-55 638.5,-55 638.5,-74"/>
<text text-anchor="middle" x="558" y="-62" font-family="Helvetica,sans-Serif" font-size="10.00">network/StreamingManager.h</text>
</a>
</g>
</g>
<!-- Node1&#45;&gt;Node2 -->
<g id="edge1_Node000001_Node000002" class="edge">
<title>Node1&#45;&gt;Node2</title>
<g id="a_edge1_Node000001_Node000002"><a xlink:title=" ">
<path fill="none" stroke="#63b8ff" d="M1315.16,-112.6C1149.95,-102.32 811.52,-81.27 649.02,-71.16"/>
<polygon fill="#63b8ff" stroke="#63b8ff" points="648.78,-67.64 638.58,-70.51 648.34,-74.63 648.78,-67.64"/>
</a>
</g>
</g>
<!-- Node10 -->
<g id="Node000010" class="node">
<title>Node10</title>
<g id="a_Node000010"><a xlink:title=" ">
<polygon fill="#e0e0e0" stroke="#999999" points="1134.5,-19 1041.5,-19 1041.5,0 1134.5,0 1134.5,-19"/>
<text text-anchor="middle" x="1088" y="-7" font-family="Helvetica,sans-Serif" font-size="10.00">QNetworkReply</text>
</a>
</g>
</g>
<!-- Node1&#45;&gt;Node10 -->
<g id="edge18_Node000001_Node000010" class="edge">
<title>Node1&#45;&gt;Node10</title>
<g id="a_edge18_Node000001_Node000010"><a xlink:title=" ">
<path fill="none" stroke="#63b8ff" d="M1315.39,-117.06C1174.91,-113.93 924.64,-104.14 897,-74 891.29,-67.78 891.75,-61.61 897,-55 905.48,-44.32 978.12,-29.58 1031.31,-20.05"/>
<polygon fill="#63b8ff" stroke="#63b8ff" points="1032.1,-23.46 1041.34,-18.27 1030.88,-16.57 1032.1,-23.46"/>
</a>
</g>
</g>
<!-- Node16 -->
<g id="Node000016" class="node">
<title>Node16</title>
<g id="a_Node000016"><a xlink:title=" ">
<polygon fill="#e0e0e0" stroke="#999999" points="1012.5,-74 905.5,-74 905.5,-55 1012.5,-55 1012.5,-74"/>
<text text-anchor="middle" x="959" y="-62" font-family="Helvetica,sans-Serif" font-size="10.00">QLoggingCategory</text>
</a>
</g>
</g>
<!-- Node1&#45;&gt;Node16 -->
<g id="edge15_Node000001_Node000016" class="edge">
<title>Node1&#45;&gt;Node16</title>
<g id="a_edge15_Node000001_Node000016"><a xlink:title=" ">
<path fill="none" stroke="#63b8ff" d="M1331.54,-109.97C1255.43,-101.58 1136.37,-88.18 1022.87,-74.08"/>
<polygon fill="#63b8ff" stroke="#63b8ff" points="1022.96,-70.57 1012.61,-72.81 1022.1,-77.52 1022.96,-70.57"/>
</a>
</g>
</g>
<!-- Node17 -->
<g id="Node000017" class="node">
<title>Node17</title>
<g id="a_Node000017"><a xlink:title=" ">
<polygon fill="#e0e0e0" stroke="#999999" points="1117,-74 1031,-74 1031,-55 1117,-55 1117,-74"/>
<text text-anchor="middle" x="1074" y="-62" font-family="Helvetica,sans-Serif" font-size="10.00">QMutexLocker</text>
</a>
</g>
</g>
<!-- Node1&#45;&gt;Node17 -->
<g id="edge16_Node000001_Node000017" class="edge">
<title>Node1&#45;&gt;Node17</title>
<g id="a_edge16_Node000001_Node000017"><a xlink:title=" ">
<path fill="none" stroke="#63b8ff" d="M1355.48,-109.98C1298.48,-101.06 1206.45,-86.62 1127,-74 1126.9,-73.98 1126.8,-73.97 1126.7,-73.95"/>
<polygon fill="#63b8ff" stroke="#63b8ff" points="1127.52,-70.54 1117.1,-72.42 1126.42,-77.45 1127.52,-70.54"/>
</a>
</g>
</g>
<!-- Node18 -->
<g id="Node000018" class="node">
<title>Node18</title>
<g id="a_Node000018"><a xlink:title=" ">
<polygon fill="#e0e0e0" stroke="#999999" points="1240.5,-74 1135.5,-74 1135.5,-55 1240.5,-55 1240.5,-74"/>
<text text-anchor="middle" x="1188" y="-62" font-family="Helvetica,sans-Serif" font-size="10.00">QNetworkRequest</text>
</a>
</g>
</g>
<!-- Node1&#45;&gt;Node18 -->
<g id="edge17_Node000001_Node000018" class="edge">
<title>Node1&#45;&gt;Node18</title>
<g id="a_edge17_Node000001_Node000018"><a xlink:title=" ">
<path fill="none" stroke="#63b8ff" d="M1374.33,-109.98C1336.17,-100.87 1275.53,-86.4 1233.85,-76.45"/>
<polygon fill="#63b8ff" stroke="#63b8ff" points="1234.49,-73 1223.95,-74.08 1232.86,-79.81 1234.49,-73"/>
</a>
</g>
</g>
<!-- Node19 -->
<g id="Node000019" class="node">
<title>Node19</title>
<g id="a_Node000019"><a xlink:title=" ">
<polygon fill="#e0e0e0" stroke="#999999" points="1353.5,-74 1258.5,-74 1258.5,-55 1353.5,-55 1353.5,-74"/>
<text text-anchor="middle" x="1306" y="-62" font-family="Helvetica,sans-Serif" font-size="10.00">QJsonDocument</text>
</a>
</g>
</g>
<!-- Node1&#45;&gt;Node19 -->
<g id="edge19_Node000001_Node000019" class="edge">
<title>Node1&#45;&gt;Node19</title>
<g id="a_edge19_Node000001_Node000019"><a xlink:title=" ">
<path fill="none" stroke="#63b8ff" d="M1393.29,-109.98C1376.79,-101.57 1351.3,-88.59 1332.12,-78.81"/>
<polygon fill="#63b8ff" stroke="#63b8ff" points="1333.51,-75.59 1323.01,-74.17 1330.33,-81.83 1333.51,-75.59"/>
</a>
</g>
</g>
<!-- Node20 -->
<g id="Node000020" class="node">
<title>Node20</title>
<g id="a_Node000020"><a xlink:title=" ">
<polygon fill="#e0e0e0" stroke="#999999" points="1448,-74 1372,-74 1372,-55 1448,-55 1448,-74"/>
<text text-anchor="middle" x="1410" y="-62" font-family="Helvetica,sans-Serif" font-size="10.00">QJsonObject</text>
</a>
</g>
</g>
<!-- Node1&#45;&gt;Node20 -->
<g id="edge20_Node000001_Node000020" class="edge">
<title>Node1&#45;&gt;Node20</title>
<g id="a_edge20_Node000001_Node000020"><a xlink:title=" ">
<path fill="none" stroke="#63b8ff" d="M1410,-109.75C1410,-102.8 1410,-92.85 1410,-84.13"/>
<polygon fill="#63b8ff" stroke="#63b8ff" points="1413.5,-84.09 1410,-74.09 1406.5,-84.09 1413.5,-84.09"/>
</a>
</g>
</g>
<!-- Node21 -->
<g id="Node000021" class="node">
<title>Node21</title>
<g id="a_Node000021"><a xlink:title=" ">
<polygon fill="#e0e0e0" stroke="#999999" points="1537.5,-74 1466.5,-74 1466.5,-55 1537.5,-55 1537.5,-74"/>
<text text-anchor="middle" x="1502" y="-62" font-family="Helvetica,sans-Serif" font-size="10.00">QJsonArray</text>
</a>
</g>
</g>
<!-- Node1&#45;&gt;Node21 -->
<g id="edge21_Node000001_Node000021" class="edge">
<title>Node1&#45;&gt;Node21</title>
<g id="a_edge21_Node000001_Node000021"><a xlink:title=" ">
<path fill="none" stroke="#63b8ff" d="M1424.78,-109.98C1439.18,-101.69 1461.31,-88.94 1478.19,-79.22"/>
<polygon fill="#63b8ff" stroke="#63b8ff" points="1480.03,-82.19 1486.95,-74.17 1476.54,-76.13 1480.03,-82.19"/>
</a>
</g>
</g>
<!-- Node22 -->
<g id="Node000022" class="node">
<title>Node22</title>
<g id="a_Node000022"><a xlink:title=" ">
<polygon fill="#e0e0e0" stroke="#999999" points="1668.5,-74 1555.5,-74 1555.5,-55 1668.5,-55 1668.5,-74"/>
<text text-anchor="middle" x="1612" y="-62" font-family="Helvetica,sans-Serif" font-size="10.00">QXmlStreamReader</text>
</a>
</g>
</g>
<!-- Node1&#45;&gt;Node22 -->
<g id="edge22_Node000001_Node000022" class="edge">
<title>Node1&#45;&gt;Node22</title>
<g id="a_edge22_Node000001_Node000022"><a xlink:title=" ">
<path fill="none" stroke="#63b8ff" d="M1442.45,-109.98C1476.96,-100.93 1531.66,-86.58 1569.56,-76.64"/>
<polygon fill="#63b8ff" stroke="#63b8ff" points="1570.51,-80.01 1579.29,-74.08 1568.73,-73.23 1570.51,-80.01"/>
</a>
</g>
</g>
<!-- Node23 -->
<g id="Node000023" class="node">
<title>Node23</title>
<g id="a_Node000023"><a xlink:title=" ">
<polygon fill="#e0e0e0" stroke="#999999" points="1801.5,-74 1686.5,-74 1686.5,-55 1801.5,-55 1801.5,-74"/>
<text text-anchor="middle" x="1744" y="-62" font-family="Helvetica,sans-Serif" font-size="10.00">QRegularExpression</text>
</a>
</g>
</g>
<!-- Node1&#45;&gt;Node23 -->
<g id="edge23_Node000001_Node000023" class="edge">
<title>Node1&#45;&gt;Node23</title>
<g id="a_edge23_Node000001_Node000023"><a xlink:title=" ">
<path fill="none" stroke="#63b8ff" d="M1463.66,-109.98C1522.62,-100.63 1617.25,-85.61 1680.02,-75.65"/>
<polygon fill="#63b8ff" stroke="#63b8ff" points="1680.87,-79.06 1690.19,-74.04 1679.77,-72.15 1680.87,-79.06"/>
</a>
</g>
</g>
<!-- Node24 -->
<g id="Node000024" class="node">
<title>Node24</title>
<g id="a_Node000024"><a xlink:title=" ">
<polygon fill="#e0e0e0" stroke="#999999" points="1884.5,-74 1819.5,-74 1819.5,-55 1884.5,-55 1884.5,-74"/>
<text text-anchor="middle" x="1852" y="-62" font-family="Helvetica,sans-Serif" font-size="10.00">QHostInfo</text>
</a>
</g>
</g>
<!-- Node1&#45;&gt;Node24 -->
<g id="edge24_Node000001_Node000024" class="edge">
<title>Node1&#45;&gt;Node24</title>
<g id="a_edge24_Node000001_Node000024"><a xlink:title=" ">
<path fill="none" stroke="#63b8ff" d="M1504.73,-110.52C1583.81,-103.27 1699.68,-91.29 1809.46,-74.12"/>
<polygon fill="#63b8ff" stroke="#63b8ff" points="1810.05,-77.57 1819.38,-72.55 1808.95,-70.66 1810.05,-77.57"/>
</a>
</g>
</g>
<!-- Node25 -->
<g id="Node000025" class="node">
<title>Node25</title>
<g id="a_Node000025"><a xlink:title=" ">
<polygon fill="#e0e0e0" stroke="#999999" points="1993.5,-74 1902.5,-74 1902.5,-55 1993.5,-55 1993.5,-74"/>
<text text-anchor="middle" x="1948" y="-62" font-family="Helvetica,sans-Serif" font-size="10.00">QElapsedTimer</text>
</a>
</g>
</g>
<!-- Node1&#45;&gt;Node25 -->
<g id="edge25_Node000001_Node000025" class="edge">
<title>Node1&#45;&gt;Node25</title>
<g id="a_edge25_Node000001_Node000025"><a xlink:title=" ">
<path fill="none" stroke="#63b8ff" d="M1504.79,-111.6C1600.22,-104.24 1751.87,-91.41 1892.28,-74.15"/>
<polygon fill="#63b8ff" stroke="#63b8ff" points="1892.87,-77.6 1902.36,-72.9 1892.01,-70.65 1892.87,-77.6"/>
</a>
</g>
</g>
<!-- Node26 -->
<g id="Node000026" class="node">
<title>Node26</title>
<g id="a_Node000026"><a xlink:title=" ">
<polygon fill="#e0e0e0" stroke="#999999" points="2064.5,-74 2011.5,-74 2011.5,-55 2064.5,-55 2064.5,-74"/>
<text text-anchor="middle" x="2038" y="-62" font-family="Helvetica,sans-Serif" font-size="10.00">QtMath</text>
</a>
</g>
</g>
<!-- Node1&#45;&gt;Node26 -->
<g id="edge26_Node000001_Node000026" class="edge">
<title>Node1&#45;&gt;Node26</title>
<g id="a_edge26_Node000001_Node000026"><a xlink:title=" ">
<path fill="none" stroke="#63b8ff" d="M1504.52,-116.16C1619.89,-112.24 1820.94,-101.95 2001.4,-74.01"/>
<polygon fill="#63b8ff" stroke="#63b8ff" points="2002,-77.46 2011.34,-72.45 2000.92,-70.54 2002,-77.46"/>
</a>
</g>
</g>
<!-- Node3 -->
<g id="Node000003" class="node">
<title>Node3</title>
<g id="a_Node000003"><a xlink:title=" ">
<polygon fill="#e0e0e0" stroke="#999999" points="56,-19 0,-19 0,0 56,0 56,-19"/>
<text text-anchor="middle" x="28" y="-7" font-family="Helvetica,sans-Serif" font-size="10.00">QObject</text>
</a>
</g>
</g>
<!-- Node2&#45;&gt;Node3 -->
<g id="edge2_Node000002_Node000003" class="edge">
<title>Node2&#45;&gt;Node3</title>
<g id="a_edge2_Node000002_Node000003"><a xlink:title=" ">
<path fill="none" stroke="#63b8ff" d="M477.32,-59.59C381.44,-54.18 216.55,-42.49 66.09,-18.96"/>
<polygon fill="#63b8ff" stroke="#63b8ff" points="66.63,-15.5 56.2,-17.39 65.53,-22.42 66.63,-15.5"/>
</a>
</g>
</g>
<!-- Node4 -->
<g id="Node000004" class="node">
<title>Node4</title>
<g id="a_Node000004"><a xlink:title=" ">
<polygon fill="#e0e0e0" stroke="#999999" points="127.5,-19 74.5,-19 74.5,0 127.5,0 127.5,-19"/>
<text text-anchor="middle" x="101" y="-7" font-family="Helvetica,sans-Serif" font-size="10.00">QTimer</text>
</a>
</g>
</g>
<!-- Node2&#45;&gt;Node4 -->
<g id="edge3_Node000002_Node000004" class="edge">
<title>Node2&#45;&gt;Node4</title>
<g id="a_edge3_Node000002_Node000004"><a xlink:title=" ">
<path fill="none" stroke="#63b8ff" d="M477.44,-58.21C394.45,-52.03 261.21,-40.1 137.69,-19.09"/>
<polygon fill="#63b8ff" stroke="#63b8ff" points="138.13,-15.62 127.68,-17.37 136.94,-22.51 138.13,-15.62"/>
</a>
</g>
</g>
<!-- Node5 -->
<g id="Node000005" class="node">
<title>Node5</title>
<g id="a_Node000005"><a xlink:title=" ">
<polygon fill="#e0e0e0" stroke="#999999" points="200.5,-19 145.5,-19 145.5,0 200.5,0 200.5,-19"/>
<text text-anchor="middle" x="173" y="-7" font-family="Helvetica,sans-Serif" font-size="10.00">QMutex</text>
</a>
</g>
</g>
<!-- Node2&#45;&gt;Node5 -->
<g id="edge4_Node000002_Node000005" class="edge">
<title>Node2&#45;&gt;Node5</title>
<g id="a_edge4_Node000002_Node000005"><a xlink:title=" ">
<path fill="none" stroke="#63b8ff" d="M477.23,-55.63C408.62,-48.39 307.35,-36.39 210.78,-19.17"/>
<polygon fill="#63b8ff" stroke="#63b8ff" points="211.31,-15.71 200.85,-17.38 210.07,-22.6 211.31,-15.71"/>
</a>
</g>
</g>
<!-- Node6 -->
<g id="Node000006" class="node">
<title>Node6</title>
<g id="a_Node000006"><a xlink:title=" ">
<polygon fill="#e0e0e0" stroke="#999999" points="273.5,-19 218.5,-19 218.5,0 273.5,0 273.5,-19"/>
<text text-anchor="middle" x="246" y="-7" font-family="Helvetica,sans-Serif" font-size="10.00">QVector</text>
</a>
</g>
</g>
<!-- Node2&#45;&gt;Node6 -->
<g id="edge5_Node000002_Node000006" class="edge">
<title>Node2&#45;&gt;Node6</title>
<g id="a_edge5_Node000002_Node000006"><a xlink:title=" ">
<path fill="none" stroke="#63b8ff" d="M497.2,-54.98C443.43,-47.16 362.63,-34.69 283.95,-19.28"/>
<polygon fill="#63b8ff" stroke="#63b8ff" points="284.35,-15.79 273.86,-17.29 283,-22.66 284.35,-15.79"/>
</a>
</g>
</g>
<!-- Node7 -->
<g id="Node000007" class="node">
<title>Node7</title>
<g id="a_Node000007"><a xlink:title=" ">
<polygon fill="#e0e0e0" stroke="#999999" points="344.5,-19 291.5,-19 291.5,0 344.5,0 344.5,-19"/>
<text text-anchor="middle" x="318" y="-7" font-family="Helvetica,sans-Serif" font-size="10.00">QString</text>
</a>
</g>
</g>
<!-- Node2&#45;&gt;Node7 -->
<g id="edge6_Node000002_Node000007" class="edge">
<title>Node2&#45;&gt;Node7</title>
<g id="a_edge6_Node000002_Node000007"><a xlink:title=" ">
<path fill="none" stroke="#63b8ff" d="M517.7,-54.92C478.61,-46.55 417.35,-33.32 354.78,-19.15"/>
<polygon fill="#63b8ff" stroke="#63b8ff" points="355.25,-15.66 344.72,-16.86 353.7,-22.49 355.25,-15.66"/>
</a>
</g>
</g>
<!-- Node8 -->
<g id="Node000008" class="node">
<title>Node8</title>
<g id="a_Node000008"><a xlink:title=" ">
<polygon fill="#e0e0e0" stroke="#999999" points="401,-19 363,-19 363,0 401,0 401,-19"/>
<text text-anchor="middle" x="382" y="-7" font-family="Helvetica,sans-Serif" font-size="10.00">QUrl</text>
</a>
</g>
</g>
<!-- Node2&#45;&gt;Node8 -->
<g id="edge7_Node000002_Node000008" class="edge">
<title>Node2&#45;&gt;Node8</title>
<g id="a_edge7_Node000002_Node000008"><a xlink:title=" ">
<path fill="none" stroke="#63b8ff" d="M529.62,-54.99C501.74,-46.63 457.75,-33.41 410.98,-19.29"/>
<polygon fill="#63b8ff" stroke="#63b8ff" points="411.86,-15.9 401.28,-16.36 409.84,-22.6 411.86,-15.9"/>
</a>
</g>
</g>
<!-- Node9 -->
<g id="Node000009" class="node">
<title>Node9</title>
<g id="a_Node000009"><a xlink:title=" ">
<polygon fill="#e0e0e0" stroke="#999999" points="561,-19 419,-19 419,0 561,0 561,-19"/>
<text text-anchor="middle" x="490" y="-7" font-family="Helvetica,sans-Serif" font-size="10.00">QNetworkAccessManager</text>
</a>
</g>
</g>
<!-- Node2&#45;&gt;Node9 -->
<g id="edge8_Node000002_Node000009" class="edge">
<title>Node2&#45;&gt;Node9</title>
<g id="a_edge8_Node000002_Node000009"><a xlink:title=" ">
<path fill="none" stroke="#63b8ff" d="M547.07,-54.98C536.92,-47.07 521.58,-35.11 509.35,-25.58"/>
<polygon fill="#63b8ff" stroke="#63b8ff" points="511.16,-22.56 501.12,-19.17 506.86,-28.08 511.16,-22.56"/>
</a>
</g>
</g>
<!-- Node2&#45;&gt;Node10 -->
<g id="edge9_Node000002_Node000010" class="edge">
<title>Node2&#45;&gt;Node10</title>
<g id="a_edge9_Node000002_Node000010"><a xlink:title=" ">
<path fill="none" stroke="#63b8ff" d="M638.67,-57.34C730.99,-49.96 886.97,-36.54 1031.34,-19.01"/>
<polygon fill="#63b8ff" stroke="#63b8ff" points="1031.78,-22.48 1041.28,-17.8 1030.93,-15.54 1031.78,-22.48"/>
</a>
</g>
</g>
<!-- Node11 -->
<g id="Node000011" class="node">
<title>Node11</title>
<g id="a_Node000011"><a xlink:title=" ">
<polygon fill="#e0e0e0" stroke="#999999" points="672.5,-19 579.5,-19 579.5,0 672.5,0 672.5,-19"/>
<text text-anchor="middle" x="626" y="-7" font-family="Helvetica,sans-Serif" font-size="10.00">QNetworkProxy</text>
</a>
</g>
</g>
<!-- Node2&#45;&gt;Node11 -->
<g id="edge10_Node000002_Node000011" class="edge">
<title>Node2&#45;&gt;Node11</title>
<g id="a_edge10_Node000002_Node000011"><a xlink:title=" ">
<path fill="none" stroke="#63b8ff" d="M568.93,-54.98C579.08,-47.07 594.42,-35.11 606.65,-25.58"/>
<polygon fill="#63b8ff" stroke="#63b8ff" points="609.14,-28.08 614.88,-19.17 604.84,-22.56 609.14,-28.08"/>
</a>
</g>
</g>
<!-- Node12 -->
<g id="Node000012" class="node">
<title>Node12</title>
<g id="a_Node000012"><a xlink:title=" ">
<polygon fill="#e0e0e0" stroke="#999999" points="767,-19 691,-19 691,0 767,0 767,-19"/>
<text text-anchor="middle" x="729" y="-7" font-family="Helvetica,sans-Serif" font-size="10.00">QUdpSocket</text>
</a>
</g>
</g>
<!-- Node2&#45;&gt;Node12 -->
<g id="edge11_Node000002_Node000012" class="edge">
<title>Node2&#45;&gt;Node12</title>
<g id="a_edge11_Node000002_Node000012"><a xlink:title=" ">
<path fill="none" stroke="#63b8ff" d="M585.47,-54.98C614.18,-46.09 659.42,-32.07 691.42,-22.15"/>
<polygon fill="#63b8ff" stroke="#63b8ff" points="692.8,-25.39 701.31,-19.08 690.72,-18.7 692.8,-25.39"/>
</a>
</g>
</g>
<!-- Node13 -->
<g id="Node000013" class="node">
<title>Node13</title>
<g id="a_Node000013"><a xlink:title=" ">
<polygon fill="#e0e0e0" stroke="#999999" points="857,-19 785,-19 785,0 857,0 857,-19"/>
<text text-anchor="middle" x="821" y="-7" font-family="Helvetica,sans-Serif" font-size="10.00">QTcpSocket</text>
</a>
</g>
</g>
<!-- Node2&#45;&gt;Node13 -->
<g id="edge12_Node000002_Node000013" class="edge">
<title>Node2&#45;&gt;Node13</title>
<g id="a_edge12_Node000002_Node000013"><a xlink:title=" ">
<path fill="none" stroke="#63b8ff" d="M600.26,-54.98C647.97,-45.37 725.38,-29.77 774.7,-19.83"/>
<polygon fill="#63b8ff" stroke="#63b8ff" points="775.66,-23.21 784.78,-17.8 774.28,-16.34 775.66,-23.21"/>
</a>
</g>
</g>
<!-- Node14 -->
<g id="Node000014" class="node">
<title>Node14</title>
<g id="a_Node000014"><a xlink:title=" ">
<polygon fill="#e0e0e0" stroke="#999999" points="946.5,-19 875.5,-19 875.5,0 946.5,0 946.5,-19"/>
<text text-anchor="middle" x="911" y="-7" font-family="Helvetica,sans-Serif" font-size="10.00">QSslSocket</text>
</a>
</g>
</g>
<!-- Node2&#45;&gt;Node14 -->
<g id="edge13_Node000002_Node000014" class="edge">
<title>Node2&#45;&gt;Node14</title>
<g id="a_edge13_Node000002_Node000014"><a xlink:title=" ">
<path fill="none" stroke="#63b8ff" d="M622.72,-54.98C682.88,-46.87 775.23,-33.94 865.07,-19.09"/>
<polygon fill="#63b8ff" stroke="#63b8ff" points="865.87,-22.51 875.16,-17.41 864.72,-15.6 865.87,-22.51"/>
</a>
</g>
</g>
<!-- Node15 -->
<g id="Node000015" class="node">
<title>Node15</title>
<g id="a_Node000015"><a xlink:title=" ">
<polygon fill="#e0e0e0" stroke="#999999" points="1023,-19 965,-19 965,0 1023,0 1023,-19"/>
<text text-anchor="middle" x="994" y="-7" font-family="Helvetica,sans-Serif" font-size="10.00">memory</text>
</a>
</g>
</g>
<!-- Node2&#45;&gt;Node15 -->
<g id="edge14_Node000002_Node000015" class="edge">
<title>Node2&#45;&gt;Node15</title>
<g id="a_edge14_Node000002_Node000015"><a xlink:title=" ">
<path fill="none" stroke="#63b8ff" d="M638.78,-57.06C717.16,-50.22 839.62,-37.98 954.57,-19.08"/>
<polygon fill="#63b8ff" stroke="#63b8ff" points="955.31,-22.5 964.6,-17.41 954.16,-15.6 955.31,-22.5"/>
</a>
</g>
</g>
</g>
</svg>
