<?xml version="1.0" encoding="UTF-8" standalone="no"?>
<!DOCTYPE svg PUBLIC "-//W3C//DTD SVG 1.1//EN"
 "http://www.w3.org/Graphics/SVG/1.1/DTD/svg11.dtd">
<!-- Generated by graphviz version 2.43.0 (0)
 -->
<!-- Title: include/data/LibraryManager.h Pages: 1 -->
<!--zoomable 192 -->

<svg id="main" version="1.1" xmlns="http://www.w3.org/2000/svg" xmlns:xlink="http://www.w3.org/1999/xlink" xml:space="preserve" onload="init(evt)">
<style type="text/css"><![CDATA[
.node, .edge {opacity: 0.7;}
.node.selected, .edge.selected {opacity: 1;}
.edge:hover path { stroke: red; }
.edge:hover polygon { stroke: red; fill: red; }
]]></style>

<defs>
  <circle id="rim" cx="0" cy="0" r="7"/>
  <circle id="rim2" cx="0" cy="0" r="3.5"/>
  <g id="zoomPlus">
    <use xlink:href="#rim" fill="#404040"><set attributeName="fill" to="#808080" begin="zoomplus.mouseover" end="zoomplus.mouseout"/></use>
    <path d="M-4,0h8M0,-4v8" fill="none" stroke="white" stroke-width="1.5" pointer-events="none"/>
  </g>
  <g id="zoomMin">
    <use xlink:href="#rim" fill="#404040"><set attributeName="fill" to="#808080" begin="zoomminus.mouseover" end="zoomminus.mouseout"/></use>
    <path d="M-4,0h8" fill="none" stroke="white" stroke-width="1.5" pointer-events="none"/>
  </g>
  <g id="arrowUp" transform="translate(30 24)">
    <use xlink:href="#rim"/>
    <path pointer-events="none" fill="none" stroke="white" stroke-width="1.5" d="M0,-3.0v7 M-2.5,-0.5L0,-3.0L2.5,-0.5"/>
  </g>
  <g id="arrowRight" transform="rotate(90) translate(36 -43)">
    <use xlink:href="#rim"/>
    <path pointer-events="none" fill="none" stroke="white" stroke-width="1.5" d="M0,-3.0v7 M-2.5,-0.5L0,-3.0L2.5,-0.5"/>
  </g>
  <g id="arrowDown" transform="rotate(180) translate(-30 -48)">
    <use xlink:href="#rim"/>
    <path pointer-events="none" fill="none" stroke="white" stroke-width="1.5" d="M0,-3.0v7 M-2.5,-0.5L0,-3.0L2.5,-0.5"/>
  </g>
  <g id="arrowLeft" transform="rotate(270) translate(-36 17)">
    <use xlink:href="#rim"/>
    <path pointer-events="none" fill="none" stroke="white" stroke-width="1.5" d="M0,-3.0v7 M-2.5,-0.5L0,-3.0L2.5,-0.5"/>
  </g>
  <g id="resetDef">
    <use xlink:href="#rim2" fill="#404040"><set attributeName="fill" to="#808080" begin="reset.mouseover" end="reset.mouseout"/></use>
  </g>
</defs>
<script type="application/ecmascript">
var viewWidth = 1586;
var viewHeight = 192;
var sectionId = 'dynsection-0';
</script>
<script type="application/ecmascript" xlink:href="../../svg.min.js"/>
<svg id="graph" class="graph">
<g id="viewport">
<title>include/data/LibraryManager.h</title>
<!-- Node1 -->
<g id="Node000001" class="node">
<title>Node1</title>
<g id="a_Node000001"><a xlink:title=" ">
<polygon fill="#999999" stroke="#666666" points="752.67,-184 588.67,-184 588.67,-165 752.67,-165 752.67,-184"/>
<text text-anchor="middle" x="670.67" y="-172" font-family="Helvetica,sans-Serif" font-size="10.00">include/data/LibraryManager.h</text>
</a>
</g>
</g>
<!-- Node2 -->
<g id="Node000002" class="node">
<title>Node2</title>
<g id="a_Node000002"><a xlink:href="../../d7/df2/DatabaseManager_8h.html" target="_top" xlink:title=" ">
<polygon fill="white" stroke="#666666" points="372.17,-129 233.17,-129 233.17,-110 372.17,-110 372.17,-129"/>
<text text-anchor="middle" x="302.67" y="-117" font-family="Helvetica,sans-Serif" font-size="10.00">data/DatabaseManager.h</text>
</a>
</g>
</g>
<!-- Node1&#45;&gt;Node2 -->
<g id="edge1_Node000001_Node000002" class="edge">
<title>Node1&#45;&gt;Node2</title>
<g id="a_edge1_Node000001_Node000002"><a xlink:title=" ">
<path fill="none" stroke="#63b8ff" d="M611.54,-164.98C546.18,-155.57 441.03,-140.43 371.88,-130.47"/>
<polygon fill="#63b8ff" stroke="#63b8ff" points="372.35,-127 361.95,-129.04 371.35,-133.93 372.35,-127"/>
</a>
</g>
</g>
<!-- Node3 -->
<g id="Node000003" class="node">
<title>Node3</title>
<g id="a_Node000003"><a xlink:title=" ">
<polygon fill="#e0e0e0" stroke="#999999" points="462.67,-74 406.67,-74 406.67,-55 462.67,-55 462.67,-74"/>
<text text-anchor="middle" x="434.67" y="-62" font-family="Helvetica,sans-Serif" font-size="10.00">QObject</text>
</a>
</g>
</g>
<!-- Node1&#45;&gt;Node3 -->
<g id="edge40_Node000001_Node000003" class="edge">
<title>Node1&#45;&gt;Node3</title>
<g id="a_edge40_Node000001_Node000003"><a xlink:title=" ">
<path fill="none" stroke="#63b8ff" d="M651.75,-164.84C610.31,-145.88 511.32,-100.58 462.65,-78.31"/>
<polygon fill="#63b8ff" stroke="#63b8ff" points="463.89,-75.03 453.34,-74.05 460.98,-81.39 463.89,-75.03"/>
</a>
</g>
</g>
<!-- Node7 -->
<g id="Node000007" class="node">
<title>Node7</title>
<g id="a_Node000007"><a xlink:title=" ">
<polygon fill="#e0e0e0" stroke="#999999" points="1143.17,-19 1090.17,-19 1090.17,0 1143.17,0 1143.17,-19"/>
<text text-anchor="middle" x="1116.67" y="-7" font-family="Helvetica,sans-Serif" font-size="10.00">QString</text>
</a>
</g>
</g>
<!-- Node1&#45;&gt;Node7 -->
<g id="edge41_Node000001_Node000007" class="edge">
<title>Node1&#45;&gt;Node7</title>
<g id="a_edge41_Node000001_Node000007"><a xlink:title=" ">
<path fill="none" stroke="#63b8ff" d="M752.71,-170.64C964.75,-162.41 1518.24,-135.21 1571.67,-74 1627.8,-9.68 1271.91,-8.53 1153.81,-9.88"/>
<polygon fill="#63b8ff" stroke="#63b8ff" points="1153.42,-6.38 1143.46,-10.01 1153.51,-13.38 1153.42,-6.38"/>
</a>
</g>
</g>
<!-- Node8 -->
<g id="Node000008" class="node">
<title>Node8</title>
<g id="a_Node000008"><a xlink:title=" ">
<polygon fill="#e0e0e0" stroke="#999999" points="550.67,-74 480.67,-74 480.67,-55 550.67,-55 550.67,-74"/>
<text text-anchor="middle" x="515.67" y="-62" font-family="Helvetica,sans-Serif" font-size="10.00">QStringList</text>
</a>
</g>
</g>
<!-- Node1&#45;&gt;Node8 -->
<g id="edge42_Node000001_Node000008" class="edge">
<title>Node1&#45;&gt;Node8</title>
<g id="a_edge42_Node000001_Node000008"><a xlink:title=" ">
<path fill="none" stroke="#63b8ff" d="M658.24,-164.84C631.71,-146.36 569.28,-102.86 536.54,-80.05"/>
<polygon fill="#63b8ff" stroke="#63b8ff" points="538.35,-77.04 528.15,-74.2 534.35,-82.79 538.35,-77.04"/>
</a>
</g>
</g>
<!-- Node12 -->
<g id="Node000012" class="node">
<title>Node12</title>
<g id="a_Node000012"><a xlink:title=" ">
<polygon fill="#e0e0e0" stroke="#999999" points="388.67,-74 330.67,-74 330.67,-55 388.67,-55 388.67,-74"/>
<text text-anchor="middle" x="359.67" y="-62" font-family="Helvetica,sans-Serif" font-size="10.00">memory</text>
</a>
</g>
</g>
<!-- Node1&#45;&gt;Node12 -->
<g id="edge44_Node000001_Node000012" class="edge">
<title>Node1&#45;&gt;Node12</title>
<g id="a_edge44_Node000001_Node000012"><a xlink:title=" ">
<path fill="none" stroke="#63b8ff" d="M643.28,-164.92C615.55,-156.16 571.49,-142.04 533.67,-129 484,-111.88 426.86,-90.75 392.01,-77.7"/>
<polygon fill="#63b8ff" stroke="#63b8ff" points="392.97,-74.32 382.37,-74.08 390.51,-80.87 392.97,-74.32"/>
</a>
</g>
</g>
<!-- Node13 -->
<g id="Node000013" class="node">
<title>Node13</title>
<g id="a_Node000013"><a xlink:href="../../db/d6d/MediaScanner_8h.html" target="_top" xlink:title=" ">
<polygon fill="white" stroke="#666666" points="1139.17,-129 1020.17,-129 1020.17,-110 1139.17,-110 1139.17,-129"/>
<text text-anchor="middle" x="1079.67" y="-117" font-family="Helvetica,sans-Serif" font-size="10.00">data/MediaScanner.h</text>
</a>
</g>
</g>
<!-- Node1&#45;&gt;Node13 -->
<g id="edge12_Node000001_Node000013" class="edge">
<title>Node1&#45;&gt;Node13</title>
<g id="a_edge12_Node000001_Node000013"><a xlink:title=" ">
<path fill="none" stroke="#63b8ff" d="M736.38,-164.98C811.37,-155.27 933.5,-139.44 1010.07,-129.52"/>
<polygon fill="#63b8ff" stroke="#63b8ff" points="1010.63,-132.97 1020.1,-128.22 1009.73,-126.03 1010.63,-132.97"/>
</a>
</g>
</g>
<!-- Node14 -->
<g id="Node000014" class="node">
<title>Node14</title>
<g id="a_Node000014"><a xlink:href="../../d2/dc4/MediaFile_8h.html" target="_top" xlink:title=" ">
<polygon fill="white" stroke="#666666" points="740.67,-74 642.67,-74 642.67,-55 740.67,-55 740.67,-74"/>
<text text-anchor="middle" x="691.67" y="-62" font-family="Helvetica,sans-Serif" font-size="10.00">data/MediaFile.h</text>
</a>
</g>
</g>
<!-- Node1&#45;&gt;Node14 -->
<g id="edge39_Node000001_Node000014" class="edge">
<title>Node1&#45;&gt;Node14</title>
<g id="a_edge39_Node000001_Node000014"><a xlink:title=" ">
<path fill="none" stroke="#63b8ff" d="M672.38,-164.66C675.78,-147.17 683.44,-107.8 688.01,-84.27"/>
<polygon fill="#63b8ff" stroke="#63b8ff" points="691.51,-84.64 689.98,-74.16 684.64,-83.31 691.51,-84.64"/>
</a>
</g>
</g>
<!-- Node19 -->
<g id="Node000019" class="node">
<title>Node19</title>
<g id="a_Node000019"><a xlink:title=" ">
<polygon fill="#e0e0e0" stroke="#999999" points="1198.17,-74 1145.17,-74 1145.17,-55 1198.17,-55 1198.17,-74"/>
<text text-anchor="middle" x="1171.67" y="-62" font-family="Helvetica,sans-Serif" font-size="10.00">QTimer</text>
</a>
</g>
</g>
<!-- Node1&#45;&gt;Node19 -->
<g id="edge43_Node000001_Node000019" class="edge">
<title>Node1&#45;&gt;Node19</title>
<g id="a_edge43_Node000001_Node000019"><a xlink:title=" ">
<path fill="none" stroke="#63b8ff" d="M752.76,-170.6C881.16,-165.37 1118.11,-152.62 1148.67,-129 1162.42,-118.37 1167.95,-98.76 1170.18,-84.14"/>
<polygon fill="#63b8ff" stroke="#63b8ff" points="1173.66,-84.49 1171.32,-74.16 1166.71,-83.69 1173.66,-84.49"/>
</a>
</g>
</g>
<!-- Node22 -->
<g id="Node000022" class="node">
<title>Node22</title>
<g id="a_Node000022"><a xlink:href="../../de/d8c/MetadataExtractor_8h.html" target="_top" xlink:title=" ">
<polygon fill="white" stroke="#666666" points="838.67,-129 698.67,-129 698.67,-110 838.67,-110 838.67,-129"/>
<text text-anchor="middle" x="768.67" y="-117" font-family="Helvetica,sans-Serif" font-size="10.00">data/MetadataExtractor.h</text>
</a>
</g>
</g>
<!-- Node1&#45;&gt;Node22 -->
<g id="edge29_Node000001_Node000022" class="edge">
<title>Node1&#45;&gt;Node22</title>
<g id="a_edge29_Node000001_Node000022"><a xlink:title=" ">
<path fill="none" stroke="#63b8ff" d="M686.41,-164.98C701.89,-156.61 725.76,-143.7 743.8,-133.95"/>
<polygon fill="#63b8ff" stroke="#63b8ff" points="745.5,-137.01 752.63,-129.17 742.17,-130.85 745.5,-137.01"/>
</a>
</g>
</g>
<!-- Node2&#45;&gt;Node3 -->
<g id="edge2_Node000002_Node000003" class="edge">
<title>Node2&#45;&gt;Node3</title>
<g id="a_edge2_Node000002_Node000003"><a xlink:title=" ">
<path fill="none" stroke="#63b8ff" d="M323.87,-109.98C345.4,-101.34 378.95,-87.87 403.49,-78.02"/>
<polygon fill="#63b8ff" stroke="#63b8ff" points="405.1,-81.14 413.07,-74.17 402.49,-74.65 405.1,-81.14"/>
</a>
</g>
</g>
<!-- Node4 -->
<g id="Node000004" class="node">
<title>Node4</title>
<g id="a_Node000004"><a xlink:title=" ">
<polygon fill="#e0e0e0" stroke="#999999" points="108.67,-74 22.67,-74 22.67,-55 108.67,-55 108.67,-74"/>
<text text-anchor="middle" x="65.67" y="-62" font-family="Helvetica,sans-Serif" font-size="10.00">QSqlDatabase</text>
</a>
</g>
</g>
<!-- Node2&#45;&gt;Node4 -->
<g id="edge3_Node000002_Node000004" class="edge">
<title>Node2&#45;&gt;Node4</title>
<g id="a_edge3_Node000002_Node000004"><a xlink:title=" ">
<path fill="none" stroke="#63b8ff" d="M264.59,-109.98C223.68,-100.84 158.56,-86.27 114.05,-76.32"/>
<polygon fill="#63b8ff" stroke="#63b8ff" points="114.56,-72.85 104.04,-74.08 113.04,-79.68 114.56,-72.85"/>
</a>
</g>
</g>
<!-- Node5 -->
<g id="Node000005" class="node">
<title>Node5</title>
<g id="a_Node000005"><a xlink:title=" ">
<polygon fill="#e0e0e0" stroke="#999999" points="194.67,-74 126.67,-74 126.67,-55 194.67,-55 194.67,-74"/>
<text text-anchor="middle" x="160.67" y="-62" font-family="Helvetica,sans-Serif" font-size="10.00">QSqlQuery</text>
</a>
</g>
</g>
<!-- Node2&#45;&gt;Node5 -->
<g id="edge4_Node000002_Node000005" class="edge">
<title>Node2&#45;&gt;Node5</title>
<g id="a_edge4_Node000002_Node000005"><a xlink:title=" ">
<path fill="none" stroke="#63b8ff" d="M279.85,-109.98C256.49,-101.27 219.96,-87.63 193.5,-77.75"/>
<polygon fill="#63b8ff" stroke="#63b8ff" points="194.49,-74.39 183.9,-74.17 192.04,-80.95 194.49,-74.39"/>
</a>
</g>
</g>
<!-- Node6 -->
<g id="Node000006" class="node">
<title>Node6</title>
<g id="a_Node000006"><a xlink:title=" ">
<polygon fill="#e0e0e0" stroke="#999999" points="274.67,-74 212.67,-74 212.67,-55 274.67,-55 274.67,-74"/>
<text text-anchor="middle" x="243.67" y="-62" font-family="Helvetica,sans-Serif" font-size="10.00">QSqlError</text>
</a>
</g>
</g>
<!-- Node2&#45;&gt;Node6 -->
<g id="edge5_Node000002_Node000006" class="edge">
<title>Node2&#45;&gt;Node6</title>
<g id="a_edge5_Node000002_Node000006"><a xlink:title=" ">
<path fill="none" stroke="#63b8ff" d="M293.19,-109.98C284.46,-102.15 271.32,-90.34 260.77,-80.86"/>
<polygon fill="#63b8ff" stroke="#63b8ff" points="263.1,-78.25 253.32,-74.17 258.42,-83.46 263.1,-78.25"/>
</a>
</g>
</g>
<!-- Node2&#45;&gt;Node7 -->
<g id="edge6_Node000002_Node000007" class="edge">
<title>Node2&#45;&gt;Node7</title>
<g id="a_edge6_Node000002_Node000007"><a xlink:title=" ">
<path fill="none" stroke="#63b8ff" d="M302.38,-109.83C302.45,-95.77 304.86,-68.26 321.67,-55 351.77,-31.25 927.12,-15.23 1079.76,-11.39"/>
<polygon fill="#63b8ff" stroke="#63b8ff" points="1080.09,-14.89 1090,-11.14 1079.92,-7.89 1080.09,-14.89"/>
</a>
</g>
</g>
<!-- Node2&#45;&gt;Node8 -->
<g id="edge7_Node000002_Node000008" class="edge">
<title>Node2&#45;&gt;Node8</title>
<g id="a_edge7_Node000002_Node000008"><a xlink:title=" ">
<path fill="none" stroke="#63b8ff" d="M336.89,-109.98C373.42,-100.89 431.44,-86.46 471.42,-76.51"/>
<polygon fill="#63b8ff" stroke="#63b8ff" points="472.32,-79.89 481.17,-74.08 470.63,-73.1 472.32,-79.89"/>
</a>
</g>
</g>
<!-- Node9 -->
<g id="Node000009" class="node">
<title>Node9</title>
<g id="a_Node000009"><a xlink:title=" ">
<polygon fill="#e0e0e0" stroke="#999999" points="136.67,-19 64.67,-19 64.67,0 136.67,0 136.67,-19"/>
<text text-anchor="middle" x="100.67" y="-7" font-family="Helvetica,sans-Serif" font-size="10.00">QDateTime</text>
</a>
</g>
</g>
<!-- Node2&#45;&gt;Node9 -->
<g id="edge8_Node000002_Node000009" class="edge">
<title>Node2&#45;&gt;Node9</title>
<g id="a_edge8_Node000002_Node000009"><a xlink:title=" ">
<path fill="none" stroke="#63b8ff" d="M233.04,-118.14C154.64,-116.08 34.42,-107.38 5.67,-74 -14.01,-51.15 23.17,-33.05 56.62,-22.11"/>
<polygon fill="#63b8ff" stroke="#63b8ff" points="57.85,-25.4 66.36,-19.09 55.77,-18.71 57.85,-25.4"/>
</a>
</g>
</g>
<!-- Node10 -->
<g id="Node000010" class="node">
<title>Node10</title>
<g id="a_Node000010"><a xlink:title=" ">
<polygon fill="#e0e0e0" stroke="#999999" points="500.17,-19 441.17,-19 441.17,0 500.17,0 500.17,-19"/>
<text text-anchor="middle" x="470.67" y="-7" font-family="Helvetica,sans-Serif" font-size="10.00">QVariant</text>
</a>
</g>
</g>
<!-- Node2&#45;&gt;Node10 -->
<g id="edge9_Node000002_Node000010" class="edge">
<title>Node2&#45;&gt;Node10</title>
<g id="a_edge9_Node000002_Node000010"><a xlink:title=" ">
<path fill="none" stroke="#63b8ff" d="M232.85,-117.79C156.53,-115.36 41.35,-106.27 13.67,-74 8.17,-67.59 7.99,-61.25 13.67,-55 41.47,-24.36 324.76,-14.15 430.85,-11.38"/>
<polygon fill="#63b8ff" stroke="#63b8ff" points="431.22,-14.88 441.13,-11.13 431.05,-7.88 431.22,-14.88"/>
</a>
</g>
</g>
<!-- Node11 -->
<g id="Node000011" class="node">
<title>Node11</title>
<g id="a_Node000011"><a xlink:title=" ">
<polygon fill="#e0e0e0" stroke="#999999" points="624.17,-74 569.17,-74 569.17,-55 624.17,-55 624.17,-74"/>
<text text-anchor="middle" x="596.67" y="-62" font-family="Helvetica,sans-Serif" font-size="10.00">QMutex</text>
</a>
</g>
</g>
<!-- Node2&#45;&gt;Node11 -->
<g id="edge10_Node000002_Node000011" class="edge">
<title>Node2&#45;&gt;Node11</title>
<g id="a_edge10_Node000002_Node000011"><a xlink:title=" ">
<path fill="none" stroke="#63b8ff" d="M356.97,-109.98C406.86,-101.95 483.07,-89.18 558.65,-74.11"/>
<polygon fill="#63b8ff" stroke="#63b8ff" points="559.71,-77.47 568.82,-72.07 558.33,-70.61 559.71,-77.47"/>
</a>
</g>
</g>
<!-- Node2&#45;&gt;Node12 -->
<g id="edge11_Node000002_Node000012" class="edge">
<title>Node2&#45;&gt;Node12</title>
<g id="a_edge11_Node000002_Node000012"><a xlink:title=" ">
<path fill="none" stroke="#63b8ff" d="M311.82,-109.98C320.17,-102.23 332.7,-90.58 342.84,-81.14"/>
<polygon fill="#63b8ff" stroke="#63b8ff" points="345.4,-83.54 350.34,-74.17 340.63,-78.42 345.4,-83.54"/>
</a>
</g>
</g>
<!-- Node13&#45;&gt;Node3 -->
<g id="edge19_Node000013_Node000003" class="edge">
<title>Node13&#45;&gt;Node3</title>
<g id="a_edge19_Node000013_Node000003"><a xlink:title=" ">
<path fill="none" stroke="#63b8ff" d="M1019.78,-117.15C912.13,-114.05 678.72,-104.34 472.95,-73.95"/>
<polygon fill="#63b8ff" stroke="#63b8ff" points="473.27,-70.46 462.86,-72.44 472.23,-77.39 473.27,-70.46"/>
</a>
</g>
</g>
<!-- Node13&#45;&gt;Node7 -->
<g id="edge20_Node000013_Node000007" class="edge">
<title>Node13&#45;&gt;Node7</title>
<g id="a_edge20_Node000013_Node000007"><a xlink:title=" ">
<path fill="none" stroke="#63b8ff" d="M1139.44,-112.86C1164.8,-107.17 1192.05,-95.95 1207.67,-74 1225.52,-48.89 1185.54,-30.37 1153.02,-20"/>
<polygon fill="#63b8ff" stroke="#63b8ff" points="1153.83,-16.59 1143.24,-17.05 1151.8,-23.29 1153.83,-16.59"/>
</a>
</g>
</g>
<!-- Node13&#45;&gt;Node8 -->
<g id="edge21_Node000013_Node000008" class="edge">
<title>Node13&#45;&gt;Node8</title>
<g id="a_edge21_Node000013_Node000008"><a xlink:title=" ">
<path fill="none" stroke="#63b8ff" d="M1019.9,-115.35C924.96,-109.9 733.66,-97.17 561.02,-73.89"/>
<polygon fill="#63b8ff" stroke="#63b8ff" points="561.36,-70.4 550.98,-72.52 560.42,-77.34 561.36,-70.4"/>
</a>
</g>
</g>
<!-- Node13&#45;&gt;Node11 -->
<g id="edge26_Node000013_Node000011" class="edge">
<title>Node13&#45;&gt;Node11</title>
<g id="a_edge26_Node000013_Node000011"><a xlink:title=" ">
<path fill="none" stroke="#63b8ff" d="M1019.84,-114.94C935.88,-109.41 778.21,-97.09 634.36,-73.9"/>
<polygon fill="#63b8ff" stroke="#63b8ff" points="634.9,-70.44 624.47,-72.28 633.78,-77.35 634.9,-70.44"/>
</a>
</g>
</g>
<!-- Node13&#45;&gt;Node14 -->
<g id="edge13_Node000013_Node000014" class="edge">
<title>Node13&#45;&gt;Node14</title>
<g id="a_edge13_Node000013_Node000014"><a xlink:title=" ">
<path fill="none" stroke="#63b8ff" d="M1019.89,-110.33C946.7,-100.34 823.52,-83.51 750.68,-73.56"/>
<polygon fill="#63b8ff" stroke="#63b8ff" points="751.13,-70.09 740.74,-72.2 750.18,-77.03 751.13,-70.09"/>
</a>
</g>
</g>
<!-- Node16 -->
<g id="Node000016" class="node">
<title>Node16</title>
<g id="a_Node000016"><a xlink:title=" ">
<polygon fill="#e0e0e0" stroke="#999999" points="793.17,-19 744.17,-19 744.17,0 793.17,0 793.17,-19"/>
<text text-anchor="middle" x="768.67" y="-7" font-family="Helvetica,sans-Serif" font-size="10.00">QHash</text>
</a>
</g>
</g>
<!-- Node13&#45;&gt;Node16 -->
<g id="edge27_Node000013_Node000016" class="edge">
<title>Node13&#45;&gt;Node16</title>
<g id="a_edge27_Node000013_Node000016"><a xlink:title=" ">
<path fill="none" stroke="#63b8ff" d="M1079.66,-109.99C1079.15,-96.17 1075.99,-68.99 1059.67,-55 1021.82,-22.56 872.7,-13.72 803.85,-11.35"/>
<polygon fill="#63b8ff" stroke="#63b8ff" points="803.62,-7.84 793.52,-11.02 803.4,-14.84 803.62,-7.84"/>
</a>
</g>
</g>
<!-- Node17 -->
<g id="Node000017" class="node">
<title>Node17</title>
<g id="a_Node000017"><a xlink:title=" ">
<polygon fill="#e0e0e0" stroke="#999999" points="1562.67,-74 1524.67,-74 1524.67,-55 1562.67,-55 1562.67,-74"/>
<text text-anchor="middle" x="1543.67" y="-62" font-family="Helvetica,sans-Serif" font-size="10.00">QDir</text>
</a>
</g>
</g>
<!-- Node13&#45;&gt;Node17 -->
<g id="edge22_Node000013_Node000017" class="edge">
<title>Node13&#45;&gt;Node17</title>
<g id="a_edge22_Node000013_Node000017"><a xlink:title=" ">
<path fill="none" stroke="#63b8ff" d="M1139.45,-116.05C1221.98,-111.87 1375.47,-101.19 1514.52,-73.85"/>
<polygon fill="#63b8ff" stroke="#63b8ff" points="1515.39,-77.24 1524.51,-71.85 1514.02,-70.38 1515.39,-77.24"/>
</a>
</g>
</g>
<!-- Node18 -->
<g id="Node000018" class="node">
<title>Node18</title>
<g id="a_Node000018"><a xlink:title=" ">
<polygon fill="#e0e0e0" stroke="#999999" points="1372.67,-74 1254.67,-74 1254.67,-55 1372.67,-55 1372.67,-74"/>
<text text-anchor="middle" x="1313.67" y="-62" font-family="Helvetica,sans-Serif" font-size="10.00">QFileSystemWatcher</text>
</a>
</g>
</g>
<!-- Node13&#45;&gt;Node18 -->
<g id="edge23_Node000013_Node000018" class="edge">
<title>Node13&#45;&gt;Node18</title>
<g id="a_edge23_Node000013_Node000018"><a xlink:title=" ">
<path fill="none" stroke="#63b8ff" d="M1117.26,-109.98C1157.65,-100.84 1221.95,-86.27 1265.9,-76.32"/>
<polygon fill="#63b8ff" stroke="#63b8ff" points="1266.79,-79.7 1275.77,-74.08 1265.25,-72.88 1266.79,-79.7"/>
</a>
</g>
</g>
<!-- Node13&#45;&gt;Node19 -->
<g id="edge24_Node000013_Node000019" class="edge">
<title>Node13&#45;&gt;Node19</title>
<g id="a_edge24_Node000013_Node000019"><a xlink:title=" ">
<path fill="none" stroke="#63b8ff" d="M1094.45,-109.98C1108.85,-101.69 1130.97,-88.94 1147.86,-79.22"/>
<polygon fill="#63b8ff" stroke="#63b8ff" points="1149.7,-82.19 1156.61,-74.17 1146.2,-76.13 1149.7,-82.19"/>
</a>
</g>
</g>
<!-- Node20 -->
<g id="Node000020" class="node">
<title>Node20</title>
<g id="a_Node000020"><a xlink:title=" ">
<polygon fill="#e0e0e0" stroke="#999999" points="1448.67,-74 1390.67,-74 1390.67,-55 1448.67,-55 1448.67,-74"/>
<text text-anchor="middle" x="1419.67" y="-62" font-family="Helvetica,sans-Serif" font-size="10.00">QThread</text>
</a>
</g>
</g>
<!-- Node13&#45;&gt;Node20 -->
<g id="edge25_Node000013_Node000020" class="edge">
<title>Node13&#45;&gt;Node20</title>
<g id="a_edge25_Node000013_Node000020"><a xlink:title=" ">
<path fill="none" stroke="#63b8ff" d="M1139.19,-111.05C1198.05,-103.38 1290.89,-90.49 1380.59,-74.08"/>
<polygon fill="#63b8ff" stroke="#63b8ff" points="1381.47,-77.48 1390.66,-72.22 1380.19,-70.59 1381.47,-77.48"/>
</a>
</g>
</g>
<!-- Node21 -->
<g id="Node000021" class="node">
<title>Node21</title>
<g id="a_Node000021"><a xlink:title=" ">
<polygon fill="#e0e0e0" stroke="#999999" points="1506.67,-74 1466.67,-74 1466.67,-55 1506.67,-55 1506.67,-74"/>
<text text-anchor="middle" x="1486.67" y="-62" font-family="Helvetica,sans-Serif" font-size="10.00">QSet</text>
</a>
</g>
</g>
<!-- Node13&#45;&gt;Node21 -->
<g id="edge28_Node000013_Node000021" class="edge">
<title>Node13&#45;&gt;Node21</title>
<g id="a_edge28_Node000013_Node000021"><a xlink:title=" ">
<path fill="none" stroke="#63b8ff" d="M1139.41,-114.58C1212.28,-109.11 1339.28,-97.34 1456.62,-73.89"/>
<polygon fill="#63b8ff" stroke="#63b8ff" points="1457.39,-77.3 1466.49,-71.88 1456,-70.44 1457.39,-77.3"/>
</a>
</g>
</g>
<!-- Node14&#45;&gt;Node7 -->
<g id="edge14_Node000014_Node000007" class="edge">
<title>Node14&#45;&gt;Node7</title>
<g id="a_edge14_Node000014_Node000007"><a xlink:title=" ">
<path fill="none" stroke="#63b8ff" d="M740.83,-57.37C827.02,-46.62 1003.47,-24.62 1079.96,-15.08"/>
<polygon fill="#63b8ff" stroke="#63b8ff" points="1080.58,-18.53 1090.07,-13.82 1079.71,-11.58 1080.58,-18.53"/>
</a>
</g>
</g>
<!-- Node14&#45;&gt;Node9 -->
<g id="edge15_Node000014_Node000009" class="edge">
<title>Node14&#45;&gt;Node9</title>
<g id="a_edge15_Node000014_Node000009"><a xlink:title=" ">
<path fill="none" stroke="#63b8ff" d="M642.65,-56.1C639.61,-55.71 636.6,-55.34 633.67,-55 454.24,-34.38 239.78,-19.41 147.1,-13.4"/>
<polygon fill="#63b8ff" stroke="#63b8ff" points="147.14,-9.9 136.93,-12.75 146.69,-16.88 147.14,-9.9"/>
</a>
</g>
</g>
<!-- Node14&#45;&gt;Node10 -->
<g id="edge17_Node000014_Node000010" class="edge">
<title>Node14&#45;&gt;Node10</title>
<g id="a_edge17_Node000014_Node000010"><a xlink:title=" ">
<path fill="none" stroke="#63b8ff" d="M656.16,-54.98C616.25,-45.42 551.65,-29.92 510.18,-19.98"/>
<polygon fill="#63b8ff" stroke="#63b8ff" points="510.96,-16.56 500.42,-17.63 509.32,-23.37 510.96,-16.56"/>
</a>
</g>
</g>
<!-- Node15 -->
<g id="Node000015" class="node">
<title>Node15</title>
<g id="a_Node000015"><a xlink:title=" ">
<polygon fill="#e0e0e0" stroke="#999999" points="721.67,-19 661.67,-19 661.67,0 721.67,0 721.67,-19"/>
<text text-anchor="middle" x="691.67" y="-7" font-family="Helvetica,sans-Serif" font-size="10.00">QFileInfo</text>
</a>
</g>
</g>
<!-- Node14&#45;&gt;Node15 -->
<g id="edge16_Node000014_Node000015" class="edge">
<title>Node14&#45;&gt;Node15</title>
<g id="a_edge16_Node000014_Node000015"><a xlink:title=" ">
<path fill="none" stroke="#63b8ff" d="M691.67,-54.75C691.67,-47.8 691.67,-37.85 691.67,-29.13"/>
<polygon fill="#63b8ff" stroke="#63b8ff" points="695.17,-29.09 691.67,-19.09 688.17,-29.09 695.17,-29.09"/>
</a>
</g>
</g>
<!-- Node14&#45;&gt;Node16 -->
<g id="edge18_Node000014_Node000016" class="edge">
<title>Node14&#45;&gt;Node16</title>
<g id="a_edge18_Node000014_Node000016"><a xlink:title=" ">
<path fill="none" stroke="#63b8ff" d="M704.04,-54.98C715.75,-46.92 733.59,-34.65 747.55,-25.03"/>
<polygon fill="#63b8ff" stroke="#63b8ff" points="749.82,-27.72 756.07,-19.17 745.85,-21.96 749.82,-27.72"/>
</a>
</g>
</g>
<!-- Node22&#45;&gt;Node3 -->
<g id="edge31_Node000022_Node000003" class="edge">
<title>Node22&#45;&gt;Node3</title>
<g id="a_edge31_Node000022_Node000003"><a xlink:title=" ">
<path fill="none" stroke="#63b8ff" d="M701.77,-109.98C643.71,-102.24 557.19,-89.89 472.9,-74.11"/>
<polygon fill="#63b8ff" stroke="#63b8ff" points="473.38,-70.64 462.9,-72.22 472.08,-77.52 473.38,-70.64"/>
</a>
</g>
</g>
<!-- Node22&#45;&gt;Node7 -->
<g id="edge32_Node000022_Node000007" class="edge">
<title>Node22&#45;&gt;Node7</title>
<g id="a_edge32_Node000022_Node000007"><a xlink:title=" ">
<path fill="none" stroke="#63b8ff" d="M838.77,-113.23C912.41,-106.74 1022.57,-94.05 1059.67,-74 1079.55,-63.25 1095.98,-42.76 1106.01,-27.96"/>
<polygon fill="#63b8ff" stroke="#63b8ff" points="1109.17,-29.51 1111.65,-19.21 1103.29,-25.72 1109.17,-29.51"/>
</a>
</g>
</g>
<!-- Node22&#45;&gt;Node8 -->
<g id="edge33_Node000022_Node000008" class="edge">
<title>Node22&#45;&gt;Node8</title>
<g id="a_edge33_Node000022_Node000008"><a xlink:title=" ">
<path fill="none" stroke="#63b8ff" d="M728.02,-109.98C682.34,-100.42 608.39,-84.92 560.91,-74.98"/>
<polygon fill="#63b8ff" stroke="#63b8ff" points="561.41,-71.51 550.91,-72.88 559.98,-78.36 561.41,-71.51"/>
</a>
</g>
</g>
<!-- Node22&#45;&gt;Node11 -->
<g id="edge38_Node000022_Node000011" class="edge">
<title>Node22&#45;&gt;Node11</title>
<g id="a_edge38_Node000022_Node000011"><a xlink:title=" ">
<path fill="none" stroke="#63b8ff" d="M741.03,-109.98C712.07,-101.06 666.38,-86.98 634.18,-77.06"/>
<polygon fill="#63b8ff" stroke="#63b8ff" points="634.82,-73.59 624.23,-73.99 632.76,-80.28 634.82,-73.59"/>
</a>
</g>
</g>
<!-- Node22&#45;&gt;Node14 -->
<g id="edge30_Node000022_Node000014" class="edge">
<title>Node22&#45;&gt;Node14</title>
<g id="a_edge30_Node000022_Node000014"><a xlink:title=" ">
<path fill="none" stroke="#63b8ff" d="M756.29,-109.98C744.58,-101.92 726.75,-89.65 712.78,-80.03"/>
<polygon fill="#63b8ff" stroke="#63b8ff" points="714.48,-76.96 704.26,-74.17 710.51,-82.72 714.48,-76.96"/>
</a>
</g>
</g>
<!-- Node22&#45;&gt;Node16 -->
<g id="edge34_Node000022_Node000016" class="edge">
<title>Node22&#45;&gt;Node16</title>
<g id="a_edge34_Node000022_Node000016"><a xlink:title=" ">
<path fill="none" stroke="#63b8ff" d="M768.67,-109.66C768.67,-92.17 768.67,-52.8 768.67,-29.27"/>
<polygon fill="#63b8ff" stroke="#63b8ff" points="772.17,-29.16 768.67,-19.16 765.17,-29.16 772.17,-29.16"/>
</a>
</g>
</g>
<!-- Node22&#45;&gt;Node19 -->
<g id="edge37_Node000022_Node000019" class="edge">
<title>Node22&#45;&gt;Node19</title>
<g id="a_edge37_Node000022_Node000019"><a xlink:title=" ">
<path fill="none" stroke="#63b8ff" d="M838.98,-111.58C912.1,-103.99 1029.76,-90.63 1130.67,-74 1131.96,-73.79 1133.27,-73.56 1134.59,-73.33"/>
<polygon fill="#63b8ff" stroke="#63b8ff" points="1135.64,-76.69 1144.82,-71.39 1134.34,-69.81 1135.64,-76.69"/>
</a>
</g>
</g>
<!-- Node23 -->
<g id="Node000023" class="node">
<title>Node23</title>
<g id="a_Node000023"><a xlink:title=" ">
<polygon fill="#e0e0e0" stroke="#999999" points="1050.67,-74 908.67,-74 908.67,-55 1050.67,-55 1050.67,-74"/>
<text text-anchor="middle" x="979.67" y="-62" font-family="Helvetica,sans-Serif" font-size="10.00">QNetworkAccessManager</text>
</a>
</g>
</g>
<!-- Node22&#45;&gt;Node23 -->
<g id="edge35_Node000022_Node000023" class="edge">
<title>Node22&#45;&gt;Node23</title>
<g id="a_edge35_Node000022_Node000023"><a xlink:title=" ">
<path fill="none" stroke="#63b8ff" d="M802.57,-109.98C838.68,-100.91 895.99,-86.52 935.59,-76.57"/>
<polygon fill="#63b8ff" stroke="#63b8ff" points="936.65,-79.91 945.5,-74.08 934.95,-73.12 936.65,-79.91"/>
</a>
</g>
</g>
<!-- Node24 -->
<g id="Node000024" class="node">
<title>Node24</title>
<g id="a_Node000024"><a xlink:title=" ">
<polygon fill="#e0e0e0" stroke="#999999" points="890.17,-74 797.17,-74 797.17,-55 890.17,-55 890.17,-74"/>
<text text-anchor="middle" x="843.67" y="-62" font-family="Helvetica,sans-Serif" font-size="10.00">QNetworkReply</text>
</a>
</g>
</g>
<!-- Node22&#45;&gt;Node24 -->
<g id="edge36_Node000022_Node000024" class="edge">
<title>Node22&#45;&gt;Node24</title>
<g id="a_edge36_Node000022_Node000024"><a xlink:title=" ">
<path fill="none" stroke="#63b8ff" d="M780.72,-109.98C792.13,-101.92 809.5,-89.65 823.1,-80.03"/>
<polygon fill="#63b8ff" stroke="#63b8ff" points="825.25,-82.8 831.4,-74.17 821.21,-77.08 825.25,-82.8"/>
</a>
</g>
</g>
</g>
</svg>

<g id="navigator" transform="translate(0 0)" fill="#404254">
  <rect fill="#f2f5e9" fill-opacity="0.5" stroke="#606060" stroke-width=".5" x="0" y="0" width="60" height="60"/>
  <use id="zoomplus" xlink:href="#zoomPlus" x="17" y="9" onmousedown="handleZoom(evt,'in')"/>
  <use id="zoomminus" xlink:href="#zoomMin" x="42" y="9" onmousedown="handleZoom(evt,'out')"/>
  <use id="reset" xlink:href="#resetDef" x="30" y="36" onmousedown="handleReset()"/>
   <use id="arrowup" xlink:href="#arrowUp" x="0" y="0" onmousedown="handlePan(0,-1)"/>
  <use id="arrowright" xlink:href="#arrowRight" x="0" y="0" onmousedown="handlePan(1,0)"/>
  <use id="arrowdown" xlink:href="#arrowDown" x="0" y="0" onmousedown="handlePan(0,1)"/>
  <use id="arrowleft" xlink:href="#arrowLeft" x="0" y="0" onmousedown="handlePan(-1,0)"/>
</g>
<svg viewBox="0 0 15 15" width="100%" height="30px" preserveAspectRatio="xMaxYMin meet">
 <g id="arrow_out" transform="scale(0.3 0.3)">
  <a xlink:href="LibraryManager_8h__incl_org.svg" target="_base">
   <rect id="button" ry="5" rx="5" y="6" x="6" height="38" width="38"
        fill="#f2f5e9" fill-opacity="0.5" stroke="#606060" stroke-width="1.0"/>
   <path id="arrow"
     d="M 11.500037,31.436501 C 11.940474,20.09759 22.043105,11.32322 32.158766,21.979434 L 37.068811,17.246167 C 37.068811,17.246167 37.088388,32 37.088388,32 L 22.160133,31.978069 C 22.160133,31.978069 26.997745,27.140456 26.997745,27.140456 C 18.528582,18.264221 13.291696,25.230495 11.500037,31.436501 z"
     style="fill:#404040;"/>
  </a>
 </g>
</svg>

<style type='text/css'>
<![CDATA[
[data-mouse-over-selected='false'] { opacity: 0.7; }
[data-mouse-over-selected='true']  { opacity: 1.0; }
]]>
</style>
<script type="application/ecmascript"><![CDATA[
document.addEventListener('DOMContentLoaded', (event) => {
  highlightEdges();
  highlightAdjacentNodes();
});
]]></script>
</svg>
