<?xml version="1.0" encoding="UTF-8" standalone="no"?>
<!DOCTYPE svg PUBLIC "-//W3C//DTD SVG 1.1//EN"
 "http://www.w3.org/Graphics/SVG/1.1/DTD/svg11.dtd">
<!-- Generated by graphviz version 2.43.0 (0)
 -->
<!-- Title: src/data/Playlist.cpp Pages: 1 -->
<svg width="1131pt" height="192pt"
 viewBox="0.00 0.00 1131.00 192.00" xmlns="http://www.w3.org/2000/svg" xmlns:xlink="http://www.w3.org/1999/xlink">
<g id="graph0" class="graph" transform="scale(1 1) rotate(0) translate(4 188)">
<title>src/data/Playlist.cpp</title>
<!-- Node1 -->
<g id="Node000001" class="node">
<title>Node1</title>
<g id="a_Node000001"><a xlink:title=" ">
<polygon fill="#999999" stroke="#666666" points="684.5,-184 569.5,-184 569.5,-165 684.5,-165 684.5,-184"/>
<text text-anchor="middle" x="627" y="-172" font-family="Helvetica,sans-Serif" font-size="10.00">src/data/Playlist.cpp</text>
</a>
</g>
</g>
<!-- Node2 -->
<g id="Node000002" class="node">
<title>Node2</title>
<g id="a_Node000002"><a xlink:href="../../d7/d78/Playlist_8h.html" target="_top" xlink:title=" ">
<polygon fill="white" stroke="#666666" points="334,-129 248,-129 248,-110 334,-110 334,-129"/>
<text text-anchor="middle" x="291" y="-117" font-family="Helvetica,sans-Serif" font-size="10.00">data/Playlist.h</text>
</a>
</g>
</g>
<!-- Node1&#45;&gt;Node2 -->
<g id="edge1_Node000001_Node000002" class="edge">
<title>Node1&#45;&gt;Node2</title>
<g id="a_edge1_Node000001_Node000002"><a xlink:title=" ">
<path fill="none" stroke="#63b8ff" d="M573.02,-164.98C510.11,-155.06 406.81,-138.77 344.23,-128.9"/>
<polygon fill="#63b8ff" stroke="#63b8ff" points="344.59,-125.41 334.17,-127.31 343.5,-132.32 344.59,-125.41"/>
</a>
</g>
</g>
<!-- Node6 -->
<g id="Node000006" class="node">
<title>Node6</title>
<g id="a_Node000006"><a xlink:title=" ">
<polygon fill="#e0e0e0" stroke="#999999" points="60,-19 0,-19 0,0 60,0 60,-19"/>
<text text-anchor="middle" x="30" y="-7" font-family="Helvetica,sans-Serif" font-size="10.00">QFileInfo</text>
</a>
</g>
</g>
<!-- Node1&#45;&gt;Node6 -->
<g id="edge24_Node000001_Node000006" class="edge">
<title>Node1&#45;&gt;Node6</title>
<g id="a_edge24_Node000001_Node000006"><a xlink:title=" ">
<path fill="none" stroke="#63b8ff" d="M569.21,-173.11C492.29,-171.19 352.74,-162.81 239,-129 162.7,-106.32 84.02,-51.61 48.9,-25.22"/>
<polygon fill="#63b8ff" stroke="#63b8ff" points="51.02,-22.43 40.94,-19.16 46.78,-28 51.02,-22.43"/>
</a>
</g>
</g>
<!-- Node11 -->
<g id="Node000011" class="node">
<title>Node11</title>
<g id="a_Node000011"><a xlink:href="../../d7/df2/DatabaseManager_8h.html" target="_top" xlink:title=" ">
<polygon fill="white" stroke="#666666" points="575.5,-74 436.5,-74 436.5,-55 575.5,-55 575.5,-74"/>
<text text-anchor="middle" x="506" y="-62" font-family="Helvetica,sans-Serif" font-size="10.00">data/DatabaseManager.h</text>
</a>
</g>
</g>
<!-- Node1&#45;&gt;Node11 -->
<g id="edge13_Node000001_Node000011" class="edge">
<title>Node1&#45;&gt;Node11</title>
<g id="a_edge13_Node000001_Node000011"><a xlink:title=" ">
<path fill="none" stroke="#63b8ff" d="M569.22,-171.33C504.19,-167.52 404.51,-157.15 381,-129 358.75,-102.37 400.05,-85.7 441.02,-76.17"/>
<polygon fill="#63b8ff" stroke="#63b8ff" points="441.82,-79.57 450.84,-74.01 440.32,-72.74 441.82,-79.57"/>
</a>
</g>
</g>
<!-- Node18 -->
<g id="Node000018" class="node">
<title>Node18</title>
<g id="a_Node000018"><a xlink:title=" ">
<polygon fill="#e0e0e0" stroke="#999999" points="470,-129 390,-129 390,-110 470,-110 470,-129"/>
<text text-anchor="middle" x="430" y="-117" font-family="Helvetica,sans-Serif" font-size="10.00">QTextStream</text>
</a>
</g>
</g>
<!-- Node1&#45;&gt;Node18 -->
<g id="edge25_Node000001_Node000018" class="edge">
<title>Node1&#45;&gt;Node18</title>
<g id="a_edge25_Node000001_Node000018"><a xlink:title=" ">
<path fill="none" stroke="#63b8ff" d="M595.35,-164.98C561.84,-155.97 508.8,-141.7 471.86,-131.76"/>
<polygon fill="#63b8ff" stroke="#63b8ff" points="472.47,-128.3 461.9,-129.08 470.65,-135.06 472.47,-128.3"/>
</a>
</g>
</g>
<!-- Node19 -->
<g id="Node000019" class="node">
<title>Node19</title>
<g id="a_Node000019"><a xlink:title=" ">
<polygon fill="#e0e0e0" stroke="#999999" points="589.5,-129 488.5,-129 488.5,-110 589.5,-110 589.5,-129"/>
<text text-anchor="middle" x="539" y="-117" font-family="Helvetica,sans-Serif" font-size="10.00">QStringConverter</text>
</a>
</g>
</g>
<!-- Node1&#45;&gt;Node19 -->
<g id="edge26_Node000001_Node000019" class="edge">
<title>Node1&#45;&gt;Node19</title>
<g id="a_edge26_Node000001_Node000019"><a xlink:title=" ">
<path fill="none" stroke="#63b8ff" d="M612.86,-164.98C599.21,-156.77 578.31,-144.18 562.22,-134.49"/>
<polygon fill="#63b8ff" stroke="#63b8ff" points="563.77,-131.33 553.4,-129.17 560.16,-137.33 563.77,-131.33"/>
</a>
</g>
</g>
<!-- Node20 -->
<g id="Node000020" class="node">
<title>Node20</title>
<g id="a_Node000020"><a xlink:title=" ">
<polygon fill="#e0e0e0" stroke="#999999" points="646,-129 608,-129 608,-110 646,-110 646,-129"/>
<text text-anchor="middle" x="627" y="-117" font-family="Helvetica,sans-Serif" font-size="10.00">QUrl</text>
</a>
</g>
</g>
<!-- Node1&#45;&gt;Node20 -->
<g id="edge27_Node000001_Node000020" class="edge">
<title>Node1&#45;&gt;Node20</title>
<g id="a_edge27_Node000001_Node000020"><a xlink:title=" ">
<path fill="none" stroke="#63b8ff" d="M627,-164.75C627,-157.8 627,-147.85 627,-139.13"/>
<polygon fill="#63b8ff" stroke="#63b8ff" points="630.5,-139.09 627,-129.09 623.5,-139.09 630.5,-139.09"/>
</a>
</g>
</g>
<!-- Node21 -->
<g id="Node000021" class="node">
<title>Node21</title>
<g id="a_Node000021"><a xlink:title=" ">
<polygon fill="#e0e0e0" stroke="#999999" points="702,-129 664,-129 664,-110 702,-110 702,-129"/>
<text text-anchor="middle" x="683" y="-117" font-family="Helvetica,sans-Serif" font-size="10.00">QDir</text>
</a>
</g>
</g>
<!-- Node1&#45;&gt;Node21 -->
<g id="edge28_Node000001_Node000021" class="edge">
<title>Node1&#45;&gt;Node21</title>
<g id="a_edge28_Node000001_Node000021"><a xlink:title=" ">
<path fill="none" stroke="#63b8ff" d="M636,-164.98C644.19,-157.23 656.51,-145.58 666.47,-136.14"/>
<polygon fill="#63b8ff" stroke="#63b8ff" points="668.98,-138.59 673.84,-129.17 664.17,-133.5 668.98,-138.59"/>
</a>
</g>
</g>
<!-- Node22 -->
<g id="Node000022" class="node">
<title>Node22</title>
<g id="a_Node000022"><a xlink:title=" ">
<polygon fill="#e0e0e0" stroke="#999999" points="833.5,-129 720.5,-129 720.5,-110 833.5,-110 833.5,-129"/>
<text text-anchor="middle" x="777" y="-117" font-family="Helvetica,sans-Serif" font-size="10.00">QRandomGenerator</text>
</a>
</g>
</g>
<!-- Node1&#45;&gt;Node22 -->
<g id="edge29_Node000001_Node000022" class="edge">
<title>Node1&#45;&gt;Node22</title>
<g id="a_edge29_Node000001_Node000022"><a xlink:title=" ">
<path fill="none" stroke="#63b8ff" d="M651.1,-164.98C675.88,-156.23 714.7,-142.51 742.69,-132.62"/>
<polygon fill="#63b8ff" stroke="#63b8ff" points="744.2,-135.8 752.46,-129.17 741.87,-129.2 744.2,-135.8"/>
</a>
</g>
</g>
<!-- Node23 -->
<g id="Node000023" class="node">
<title>Node23</title>
<g id="a_Node000023"><a xlink:title=" ">
<polygon fill="#e0e0e0" stroke="#999999" points="966.5,-129 851.5,-129 851.5,-110 966.5,-110 966.5,-129"/>
<text text-anchor="middle" x="909" y="-117" font-family="Helvetica,sans-Serif" font-size="10.00">QRegularExpression</text>
</a>
</g>
</g>
<!-- Node1&#45;&gt;Node23 -->
<g id="edge30_Node000001_Node000023" class="edge">
<title>Node1&#45;&gt;Node23</title>
<g id="a_edge30_Node000001_Node000023"><a xlink:title=" ">
<path fill="none" stroke="#63b8ff" d="M672.31,-164.98C721.6,-155.72 800.43,-140.9 853.43,-130.94"/>
<polygon fill="#63b8ff" stroke="#63b8ff" points="854.16,-134.37 863.34,-129.08 852.86,-127.49 854.16,-134.37"/>
</a>
</g>
</g>
<!-- Node24 -->
<g id="Node000024" class="node">
<title>Node24</title>
<g id="a_Node000024"><a xlink:title=" ">
<polygon fill="#e0e0e0" stroke="#999999" points="1041,-129 985,-129 985,-110 1041,-110 1041,-129"/>
<text text-anchor="middle" x="1013" y="-117" font-family="Helvetica,sans-Serif" font-size="10.00">QDebug</text>
</a>
</g>
</g>
<!-- Node1&#45;&gt;Node24 -->
<g id="edge31_Node000001_Node000024" class="edge">
<title>Node1&#45;&gt;Node24</title>
<g id="a_edge31_Node000001_Node000024"><a xlink:title=" ">
<path fill="none" stroke="#63b8ff" d="M684.7,-167.91C752.02,-161 866.86,-147.98 974.7,-129.07"/>
<polygon fill="#63b8ff" stroke="#63b8ff" points="975.54,-132.48 984.78,-127.29 974.32,-125.59 975.54,-132.48"/>
</a>
</g>
</g>
<!-- Node25 -->
<g id="Node000025" class="node">
<title>Node25</title>
<g id="a_Node000025"><a xlink:title=" ">
<polygon fill="#e0e0e0" stroke="#999999" points="1123,-129 1059,-129 1059,-110 1123,-110 1123,-129"/>
<text text-anchor="middle" x="1091" y="-117" font-family="Helvetica,sans-Serif" font-size="10.00">algorithm</text>
</a>
</g>
</g>
<!-- Node1&#45;&gt;Node25 -->
<g id="edge32_Node000001_Node000025" class="edge">
<title>Node1&#45;&gt;Node25</title>
<g id="a_edge32_Node000001_Node000025"><a xlink:title=" ">
<path fill="none" stroke="#63b8ff" d="M684.71,-169.26C764.36,-163.01 912.66,-149.9 1048.64,-129.06"/>
<polygon fill="#63b8ff" stroke="#63b8ff" points="1049.48,-132.48 1058.83,-127.49 1048.41,-125.56 1049.48,-132.48"/>
</a>
</g>
</g>
<!-- Node3 -->
<g id="Node000003" class="node">
<title>Node3</title>
<g id="a_Node000003"><a xlink:href="../../d2/dc4/MediaFile_8h.html" target="_top" xlink:title=" ">
<polygon fill="white" stroke="#666666" points="244,-74 146,-74 146,-55 244,-55 244,-74"/>
<text text-anchor="middle" x="195" y="-62" font-family="Helvetica,sans-Serif" font-size="10.00">data/MediaFile.h</text>
</a>
</g>
</g>
<!-- Node2&#45;&gt;Node3 -->
<g id="edge2_Node000002_Node000003" class="edge">
<title>Node2&#45;&gt;Node3</title>
<g id="a_edge2_Node000002_Node000003"><a xlink:title=" ">
<path fill="none" stroke="#63b8ff" d="M275.58,-109.98C260.55,-101.69 237.46,-88.94 219.84,-79.22"/>
<polygon fill="#63b8ff" stroke="#63b8ff" points="221.15,-75.94 210.7,-74.17 217.77,-82.07 221.15,-75.94"/>
</a>
</g>
</g>
<!-- Node4 -->
<g id="Node000004" class="node">
<title>Node4</title>
<g id="a_Node000004"><a xlink:title=" ">
<polygon fill="#e0e0e0" stroke="#999999" points="198.5,-19 145.5,-19 145.5,0 198.5,0 198.5,-19"/>
<text text-anchor="middle" x="172" y="-7" font-family="Helvetica,sans-Serif" font-size="10.00">QString</text>
</a>
</g>
</g>
<!-- Node2&#45;&gt;Node4 -->
<g id="edge9_Node000002_Node000004" class="edge">
<title>Node2&#45;&gt;Node4</title>
<g id="a_edge9_Node000002_Node000004"><a xlink:title=" ">
<path fill="none" stroke="#63b8ff" d="M247.92,-111.93C207.19,-104.73 150.38,-91.79 137,-74 125.62,-58.86 139.71,-39.58 153.26,-26.26"/>
<polygon fill="#63b8ff" stroke="#63b8ff" points="155.97,-28.52 160.98,-19.18 151.24,-23.36 155.97,-28.52"/>
</a>
</g>
</g>
<!-- Node5 -->
<g id="Node000005" class="node">
<title>Node5</title>
<g id="a_Node000005"><a xlink:title=" ">
<polygon fill="#e0e0e0" stroke="#999999" points="289,-19 217,-19 217,0 289,0 289,-19"/>
<text text-anchor="middle" x="253" y="-7" font-family="Helvetica,sans-Serif" font-size="10.00">QDateTime</text>
</a>
</g>
</g>
<!-- Node2&#45;&gt;Node5 -->
<g id="edge10_Node000002_Node000005" class="edge">
<title>Node2&#45;&gt;Node5</title>
<g id="a_edge10_Node000002_Node000005"><a xlink:title=" ">
<path fill="none" stroke="#63b8ff" d="M287.89,-109.66C281.68,-92.01 267.63,-52.09 259.38,-28.64"/>
<polygon fill="#63b8ff" stroke="#63b8ff" points="262.67,-27.43 256.05,-19.16 256.06,-29.75 262.67,-27.43"/>
</a>
</g>
</g>
<!-- Node7 -->
<g id="Node000007" class="node">
<title>Node7</title>
<g id="a_Node000007"><a xlink:title=" ">
<polygon fill="#e0e0e0" stroke="#999999" points="366.5,-19 307.5,-19 307.5,0 366.5,0 366.5,-19"/>
<text text-anchor="middle" x="337" y="-7" font-family="Helvetica,sans-Serif" font-size="10.00">QVariant</text>
</a>
</g>
</g>
<!-- Node2&#45;&gt;Node7 -->
<g id="edge12_Node000002_Node000007" class="edge">
<title>Node2&#45;&gt;Node7</title>
<g id="a_edge12_Node000002_Node000007"><a xlink:title=" ">
<path fill="none" stroke="#63b8ff" d="M294.76,-109.66C302.28,-92.01 319.29,-52.09 329.28,-28.64"/>
<polygon fill="#63b8ff" stroke="#63b8ff" points="332.61,-29.73 333.31,-19.16 326.17,-26.99 332.61,-29.73"/>
</a>
</g>
</g>
<!-- Node9 -->
<g id="Node000009" class="node">
<title>Node9</title>
<g id="a_Node000009"><a xlink:title=" ">
<polygon fill="#e0e0e0" stroke="#999999" points="441,-19 385,-19 385,0 441,0 441,-19"/>
<text text-anchor="middle" x="413" y="-7" font-family="Helvetica,sans-Serif" font-size="10.00">QObject</text>
</a>
</g>
</g>
<!-- Node2&#45;&gt;Node9 -->
<g id="edge8_Node000002_Node000009" class="edge">
<title>Node2&#45;&gt;Node9</title>
<g id="a_edge8_Node000002_Node000009"><a xlink:title=" ">
<path fill="none" stroke="#63b8ff" d="M325.83,-109.96C346.61,-103.27 372.13,-92 389,-74 400.57,-61.65 406.71,-43.17 409.88,-29.33"/>
<polygon fill="#63b8ff" stroke="#63b8ff" points="413.33,-29.91 411.82,-19.43 406.46,-28.57 413.33,-29.91"/>
</a>
</g>
</g>
<!-- Node10 -->
<g id="Node000010" class="node">
<title>Node10</title>
<g id="a_Node000010"><a xlink:title=" ">
<polygon fill="#e0e0e0" stroke="#999999" points="379.5,-74 338.5,-74 338.5,-55 379.5,-55 379.5,-74"/>
<text text-anchor="middle" x="359" y="-62" font-family="Helvetica,sans-Serif" font-size="10.00">QList</text>
</a>
</g>
</g>
<!-- Node2&#45;&gt;Node10 -->
<g id="edge11_Node000002_Node000010" class="edge">
<title>Node2&#45;&gt;Node10</title>
<g id="a_edge11_Node000002_Node000010"><a xlink:title=" ">
<path fill="none" stroke="#63b8ff" d="M301.93,-109.98C312.08,-102.07 327.42,-90.11 339.65,-80.58"/>
<polygon fill="#63b8ff" stroke="#63b8ff" points="342.14,-83.08 347.88,-74.17 337.84,-77.56 342.14,-83.08"/>
</a>
</g>
</g>
<!-- Node3&#45;&gt;Node4 -->
<g id="edge3_Node000003_Node000004" class="edge">
<title>Node3&#45;&gt;Node4</title>
<g id="a_edge3_Node000003_Node000004"><a xlink:title=" ">
<path fill="none" stroke="#63b8ff" d="M191.2,-54.75C188.09,-47.57 183.58,-37.18 179.71,-28.27"/>
<polygon fill="#63b8ff" stroke="#63b8ff" points="182.92,-26.87 175.73,-19.09 176.5,-29.66 182.92,-26.87"/>
</a>
</g>
</g>
<!-- Node3&#45;&gt;Node5 -->
<g id="edge4_Node000003_Node000005" class="edge">
<title>Node3&#45;&gt;Node5</title>
<g id="a_edge4_Node000003_Node000005"><a xlink:title=" ">
<path fill="none" stroke="#63b8ff" d="M204.32,-54.98C212.81,-47.23 225.56,-35.58 235.88,-26.14"/>
<polygon fill="#63b8ff" stroke="#63b8ff" points="238.49,-28.5 243.51,-19.17 233.77,-23.33 238.49,-28.5"/>
</a>
</g>
</g>
<!-- Node3&#45;&gt;Node6 -->
<g id="edge5_Node000003_Node000006" class="edge">
<title>Node3&#45;&gt;Node6</title>
<g id="a_edge5_Node000003_Node000006"><a xlink:title=" ">
<path fill="none" stroke="#63b8ff" d="M168.49,-54.98C140.79,-46.09 97.14,-32.07 66.26,-22.15"/>
<polygon fill="#63b8ff" stroke="#63b8ff" points="67.31,-18.81 56.72,-19.08 65.17,-25.47 67.31,-18.81"/>
</a>
</g>
</g>
<!-- Node3&#45;&gt;Node7 -->
<g id="edge6_Node000003_Node000007" class="edge">
<title>Node3&#45;&gt;Node7</title>
<g id="a_edge6_Node000003_Node000007"><a xlink:title=" ">
<path fill="none" stroke="#63b8ff" d="M217.81,-54.98C241.17,-46.27 277.7,-32.63 304.17,-22.75"/>
<polygon fill="#63b8ff" stroke="#63b8ff" points="305.63,-25.95 313.77,-19.17 303.18,-19.39 305.63,-25.95"/>
</a>
</g>
</g>
<!-- Node8 -->
<g id="Node000008" class="node">
<title>Node8</title>
<g id="a_Node000008"><a xlink:title=" ">
<polygon fill="#e0e0e0" stroke="#999999" points="127.5,-19 78.5,-19 78.5,0 127.5,0 127.5,-19"/>
<text text-anchor="middle" x="103" y="-7" font-family="Helvetica,sans-Serif" font-size="10.00">QHash</text>
</a>
</g>
</g>
<!-- Node3&#45;&gt;Node8 -->
<g id="edge7_Node000003_Node000008" class="edge">
<title>Node3&#45;&gt;Node8</title>
<g id="a_edge7_Node000003_Node000008"><a xlink:title=" ">
<path fill="none" stroke="#63b8ff" d="M180.22,-54.98C165.82,-46.69 143.69,-33.94 126.81,-24.22"/>
<polygon fill="#63b8ff" stroke="#63b8ff" points="128.46,-21.13 118.05,-19.17 124.97,-27.19 128.46,-21.13"/>
</a>
</g>
</g>
<!-- Node11&#45;&gt;Node4 -->
<g id="edge18_Node000011_Node000004" class="edge">
<title>Node11&#45;&gt;Node4</title>
<g id="a_edge18_Node000011_Node000004"><a xlink:title=" ">
<path fill="none" stroke="#63b8ff" d="M437.97,-54.99C379.7,-47.32 293.35,-35.07 208.72,-18.99"/>
<polygon fill="#63b8ff" stroke="#63b8ff" points="209.16,-15.51 198.68,-17.06 207.84,-22.39 209.16,-15.51"/>
</a>
</g>
</g>
<!-- Node11&#45;&gt;Node5 -->
<g id="edge20_Node000011_Node000005" class="edge">
<title>Node11&#45;&gt;Node5</title>
<g id="a_edge20_Node000011_Node000005"><a xlink:title=" ">
<path fill="none" stroke="#63b8ff" d="M465.35,-54.98C419.93,-45.47 346.56,-30.1 299.06,-20.15"/>
<polygon fill="#63b8ff" stroke="#63b8ff" points="299.55,-16.67 289.04,-18.05 298.11,-23.53 299.55,-16.67"/>
</a>
</g>
</g>
<!-- Node11&#45;&gt;Node7 -->
<g id="edge21_Node000011_Node000007" class="edge">
<title>Node11&#45;&gt;Node7</title>
<g id="a_edge21_Node000011_Node000007"><a xlink:title=" ">
<path fill="none" stroke="#63b8ff" d="M478.85,-54.98C450.47,-46.09 405.77,-32.07 374.14,-22.15"/>
<polygon fill="#63b8ff" stroke="#63b8ff" points="374.95,-18.73 364.37,-19.08 372.86,-25.41 374.95,-18.73"/>
</a>
</g>
</g>
<!-- Node11&#45;&gt;Node9 -->
<g id="edge14_Node000011_Node000009" class="edge">
<title>Node11&#45;&gt;Node9</title>
<g id="a_edge14_Node000011_Node000009"><a xlink:title=" ">
<path fill="none" stroke="#63b8ff" d="M491.06,-54.98C476.5,-46.69 454.13,-33.94 437.07,-24.22"/>
<polygon fill="#63b8ff" stroke="#63b8ff" points="438.64,-21.08 428.21,-19.17 435.17,-27.16 438.64,-21.08"/>
</a>
</g>
</g>
<!-- Node12 -->
<g id="Node000012" class="node">
<title>Node12</title>
<g id="a_Node000012"><a xlink:title=" ">
<polygon fill="#e0e0e0" stroke="#999999" points="545,-19 459,-19 459,0 545,0 545,-19"/>
<text text-anchor="middle" x="502" y="-7" font-family="Helvetica,sans-Serif" font-size="10.00">QSqlDatabase</text>
</a>
</g>
</g>
<!-- Node11&#45;&gt;Node12 -->
<g id="edge15_Node000011_Node000012" class="edge">
<title>Node11&#45;&gt;Node12</title>
<g id="a_edge15_Node000011_Node000012"><a xlink:title=" ">
<path fill="none" stroke="#63b8ff" d="M505.34,-54.75C504.82,-47.8 504.06,-37.85 503.41,-29.13"/>
<polygon fill="#63b8ff" stroke="#63b8ff" points="506.89,-28.8 502.65,-19.09 499.91,-29.32 506.89,-28.8"/>
</a>
</g>
</g>
<!-- Node13 -->
<g id="Node000013" class="node">
<title>Node13</title>
<g id="a_Node000013"><a xlink:title=" ">
<polygon fill="#e0e0e0" stroke="#999999" points="631,-19 563,-19 563,0 631,0 631,-19"/>
<text text-anchor="middle" x="597" y="-7" font-family="Helvetica,sans-Serif" font-size="10.00">QSqlQuery</text>
</a>
</g>
</g>
<!-- Node11&#45;&gt;Node13 -->
<g id="edge16_Node000011_Node000013" class="edge">
<title>Node11&#45;&gt;Node13</title>
<g id="a_edge16_Node000011_Node000013"><a xlink:title=" ">
<path fill="none" stroke="#63b8ff" d="M520.62,-54.98C534.86,-46.69 556.75,-33.94 573.45,-24.22"/>
<polygon fill="#63b8ff" stroke="#63b8ff" points="575.23,-27.23 582.11,-19.17 571.71,-21.18 575.23,-27.23"/>
</a>
</g>
</g>
<!-- Node14 -->
<g id="Node000014" class="node">
<title>Node14</title>
<g id="a_Node000014"><a xlink:title=" ">
<polygon fill="#e0e0e0" stroke="#999999" points="711,-19 649,-19 649,0 711,0 711,-19"/>
<text text-anchor="middle" x="680" y="-7" font-family="Helvetica,sans-Serif" font-size="10.00">QSqlError</text>
</a>
</g>
</g>
<!-- Node11&#45;&gt;Node14 -->
<g id="edge17_Node000011_Node000014" class="edge">
<title>Node11&#45;&gt;Node14</title>
<g id="a_edge17_Node000011_Node000014"><a xlink:title=" ">
<path fill="none" stroke="#63b8ff" d="M533.96,-54.98C563.3,-46.05 609.6,-31.94 642.19,-22.02"/>
<polygon fill="#63b8ff" stroke="#63b8ff" points="643.28,-25.34 651.82,-19.08 641.24,-18.65 643.28,-25.34"/>
</a>
</g>
</g>
<!-- Node15 -->
<g id="Node000015" class="node">
<title>Node15</title>
<g id="a_Node000015"><a xlink:title=" ">
<polygon fill="#e0e0e0" stroke="#999999" points="799,-19 729,-19 729,0 799,0 799,-19"/>
<text text-anchor="middle" x="764" y="-7" font-family="Helvetica,sans-Serif" font-size="10.00">QStringList</text>
</a>
</g>
</g>
<!-- Node11&#45;&gt;Node15 -->
<g id="edge19_Node000011_Node000015" class="edge">
<title>Node11&#45;&gt;Node15</title>
<g id="a_edge19_Node000011_Node000015"><a xlink:title=" ">
<path fill="none" stroke="#63b8ff" d="M547.45,-54.98C594.4,-45.34 670.62,-29.68 718.99,-19.75"/>
<polygon fill="#63b8ff" stroke="#63b8ff" points="719.78,-23.16 728.87,-17.72 718.37,-16.3 719.78,-23.16"/>
</a>
</g>
</g>
<!-- Node16 -->
<g id="Node000016" class="node">
<title>Node16</title>
<g id="a_Node000016"><a xlink:title=" ">
<polygon fill="#e0e0e0" stroke="#999999" points="872.5,-19 817.5,-19 817.5,0 872.5,0 872.5,-19"/>
<text text-anchor="middle" x="845" y="-7" font-family="Helvetica,sans-Serif" font-size="10.00">QMutex</text>
</a>
</g>
</g>
<!-- Node11&#45;&gt;Node16 -->
<g id="edge22_Node000011_Node000016" class="edge">
<title>Node11&#45;&gt;Node16</title>
<g id="a_edge22_Node000011_Node000016"><a xlink:title=" ">
<path fill="none" stroke="#63b8ff" d="M574.63,-54.97C633.73,-47.26 721.51,-34.95 807.26,-19"/>
<polygon fill="#63b8ff" stroke="#63b8ff" points="807.99,-22.43 817.17,-17.14 806.7,-15.55 807.99,-22.43"/>
</a>
</g>
</g>
<!-- Node17 -->
<g id="Node000017" class="node">
<title>Node17</title>
<g id="a_Node000017"><a xlink:title=" ">
<polygon fill="#e0e0e0" stroke="#999999" points="949,-19 891,-19 891,0 949,0 949,-19"/>
<text text-anchor="middle" x="920" y="-7" font-family="Helvetica,sans-Serif" font-size="10.00">memory</text>
</a>
</g>
</g>
<!-- Node11&#45;&gt;Node17 -->
<g id="edge23_Node000011_Node000017" class="edge">
<title>Node11&#45;&gt;Node17</title>
<g id="a_edge23_Node000011_Node000017"><a xlink:title=" ">
<path fill="none" stroke="#63b8ff" d="M575.61,-57.41C649.09,-50.5 768.48,-37.89 880.48,-19.11"/>
<polygon fill="#63b8ff" stroke="#63b8ff" points="881.33,-22.51 890.6,-17.39 880.16,-15.61 881.33,-22.51"/>
</a>
</g>
</g>
</g>
</svg>
