<?xml version="1.0" encoding="UTF-8" standalone="no"?>
<!DOCTYPE svg PUBLIC "-//W3C//DTD SVG 1.1//EN"
 "http://www.w3.org/Graphics/SVG/1.1/DTD/svg11.dtd">
<!-- Generated by graphviz version 2.43.0 (0)
 -->
<!-- Title: MediaError::MediaError Pages: 1 -->
<svg width="326pt" height="212pt"
 viewBox="0.00 0.00 326.00 212.00" xmlns="http://www.w3.org/2000/svg" xmlns:xlink="http://www.w3.org/1999/xlink">

<svg id="main" version="1.1" xmlns="http://www.w3.org/2000/svg" xmlns:xlink="http://www.w3.org/1999/xlink" xml:space="preserve" onload="init(evt)">
<style type="text/css"><![CDATA[
.node, .edge {opacity: 0.7;}
.node.selected, .edge.selected {opacity: 1;}
.edge:hover path { stroke: red; }
.edge:hover polygon { stroke: red; fill: red; }
]]></style>
<script type="application/ecmascript" xlink:href="../../svg.min.js"/>
<svg id="graph" class="graph">
<g id="graph0" class="graph" transform="scale(1 1) rotate(0) translate(4 208)">
<title>MediaError::MediaError</title>
<!-- Node1 -->
<g id="Node000001" class="node">
<title>Node1</title>
<g id="a_Node000001"><a xlink:title=" ">
<polygon fill="#999999" stroke="#666666" points="318,-111 189,-111 189,-92 318,-92 318,-111"/>
<text text-anchor="middle" x="253.5" y="-99" font-family="Helvetica,sans-Serif" font-size="10.00">MediaError::MediaError</text>
</a>
</g>
</g>
<!-- Node2 -->
<g id="Node000002" class="node">
<title>Node2</title>
<g id="a_Node000002"><a xlink:href="../../d8/dfd/classMediaError.html#a96d1c3bc76e6892fb2f799f37b727e92" target="_top" xlink:title=" ">
<polygon fill="white" stroke="#666666" points="140.5,-204 12.5,-204 12.5,-185 140.5,-185 140.5,-204"/>
<text text-anchor="middle" x="76.5" y="-192" font-family="Helvetica,sans-Serif" font-size="10.00">MediaError::codecError</text>
</a>
</g>
</g>
<!-- Node1&#45;&gt;Node2 -->
<g id="edge1_Node000001_Node000002" class="edge">
<title>Node1&#45;&gt;Node2</title>
<g id="a_edge1_Node000001_Node000002"><a xlink:title=" ">
<path fill="none" stroke="#63b8ff" d="M235.24,-118.09C216.48,-135.22 184.88,-161.49 153,-176.5 145.81,-179.89 137.92,-182.67 130.04,-184.94"/>
<polygon fill="#63b8ff" stroke="#63b8ff" points="237.76,-120.53 242.69,-111.15 232.98,-115.41 237.76,-120.53"/>
</a>
</g>
</g>
<!-- Node3 -->
<g id="Node000003" class="node">
<title>Node3</title>
<g id="a_Node000003"><a xlink:href="../../d8/dfd/classMediaError.html#a001afb4bf2a0b333d60d9a3b301722e9" target="_top" xlink:title=" ">
<polygon fill="white" stroke="#666666" points="150.5,-167 2.5,-167 2.5,-148 150.5,-148 150.5,-167"/>
<text text-anchor="middle" x="76.5" y="-155" font-family="Helvetica,sans-Serif" font-size="10.00">MediaError::fileAccessError</text>
</a>
</g>
</g>
<!-- Node1&#45;&gt;Node3 -->
<g id="edge2_Node000001_Node000003" class="edge">
<title>Node1&#45;&gt;Node3</title>
<g id="a_edge2_Node000001_Node000003"><a xlink:title=" ">
<path fill="none" stroke="#63b8ff" d="M220.36,-115C201.05,-122.8 175.87,-132.44 153,-139.5 142.96,-142.6 132.03,-145.48 121.68,-147.99"/>
<polygon fill="#63b8ff" stroke="#63b8ff" points="221.94,-118.14 229.88,-111.11 219.29,-111.66 221.94,-118.14"/>
</a>
</g>
</g>
<!-- Node4 -->
<g id="Node000004" class="node">
<title>Node4</title>
<g id="a_Node000004"><a xlink:href="../../d8/dfd/classMediaError.html#ae25d0920f750bf12b92f879f00927de7" target="_top" xlink:title=" ">
<polygon fill="white" stroke="#666666" points="149,-130 4,-130 4,-111 149,-111 149,-130"/>
<text text-anchor="middle" x="76.5" y="-118" font-family="Helvetica,sans-Serif" font-size="10.00">MediaError::hardwareError</text>
</a>
</g>
</g>
<!-- Node1&#45;&gt;Node4 -->
<g id="edge3_Node000001_Node000004" class="edge">
<title>Node1&#45;&gt;Node4</title>
<g id="a_edge3_Node000001_Node000004"><a xlink:title=" ">
<path fill="none" stroke="#63b8ff" d="M178.72,-109.51C168.92,-110.57 158.89,-111.66 149.12,-112.72"/>
<polygon fill="#63b8ff" stroke="#63b8ff" points="179.26,-112.97 188.83,-108.41 178.51,-106.01 179.26,-112.97"/>
</a>
</g>
</g>
<!-- Node5 -->
<g id="Node000005" class="node">
<title>Node5</title>
<g id="a_Node000005"><a xlink:href="../../d8/dfd/classMediaError.html#a8d98ee150493b879fce4a0a8885eeaaf" target="_top" xlink:title=" ">
<polygon fill="white" stroke="#666666" points="153,-93 0,-93 0,-74 153,-74 153,-93"/>
<text text-anchor="middle" x="76.5" y="-81" font-family="Helvetica,sans-Serif" font-size="10.00">MediaError::mediaLoadError</text>
</a>
</g>
</g>
<!-- Node1&#45;&gt;Node5 -->
<g id="edge4_Node000001_Node000005" class="edge">
<title>Node1&#45;&gt;Node5</title>
<g id="a_edge4_Node000001_Node000005"><a xlink:title=" ">
<path fill="none" stroke="#63b8ff" d="M178.61,-93.9C170.15,-93.03 161.51,-92.14 153.02,-91.27"/>
<polygon fill="#63b8ff" stroke="#63b8ff" points="178.52,-97.41 188.83,-94.95 179.24,-90.45 178.52,-97.41"/>
</a>
</g>
</g>
<!-- Node6 -->
<g id="Node000006" class="node">
<title>Node6</title>
<g id="a_Node000006"><a xlink:href="../../d8/dfd/classMediaError.html#a791aafdd47633e0286ca4e60daf06e44" target="_top" xlink:title=" ">
<polygon fill="white" stroke="#666666" points="146,-56 7,-56 7,-37 146,-37 146,-56"/>
<text text-anchor="middle" x="76.5" y="-44" font-family="Helvetica,sans-Serif" font-size="10.00">MediaError::networkError</text>
</a>
</g>
</g>
<!-- Node1&#45;&gt;Node6 -->
<g id="edge5_Node000001_Node000006" class="edge">
<title>Node1&#45;&gt;Node6</title>
<g id="a_edge5_Node000001_Node000006"><a xlink:title=" ">
<path fill="none" stroke="#63b8ff" d="M218.72,-88.32C199.6,-81.1 175.14,-72.27 153,-65.5 141.88,-62.1 129.72,-58.84 118.46,-56.01"/>
<polygon fill="#63b8ff" stroke="#63b8ff" points="217.61,-91.64 228.2,-91.93 220.1,-85.1 217.61,-91.64"/>
</a>
</g>
</g>
<!-- Node7 -->
<g id="Node000007" class="node">
<title>Node7</title>
<g id="a_Node000007"><a xlink:href="../../d8/dfd/classMediaError.html#a2b128149f3bf3d7be3002f1b3533716b" target="_top" xlink:title=" ">
<polygon fill="white" stroke="#666666" points="145.5,-19 7.5,-19 7.5,0 145.5,0 145.5,-19"/>
<text text-anchor="middle" x="76.5" y="-7" font-family="Helvetica,sans-Serif" font-size="10.00">MediaError::securityError</text>
</a>
</g>
</g>
<!-- Node1&#45;&gt;Node7 -->
<g id="edge6_Node000001_Node000007" class="edge">
<title>Node1&#45;&gt;Node7</title>
<g id="a_edge6_Node000001_Node000007"><a xlink:title=" ">
<path fill="none" stroke="#63b8ff" d="M234.82,-85.18C215.92,-68.59 184.41,-43.28 153,-28.5 144.93,-24.7 136,-21.6 127.19,-19.09"/>
<polygon fill="#63b8ff" stroke="#63b8ff" points="232.55,-87.85 242.34,-91.92 237.22,-82.64 232.55,-87.85"/>
</a>
</g>
</g>
</g>
</svg>
</svg>

<style type='text/css'>
<![CDATA[
[data-mouse-over-selected='false'] { opacity: 0.7; }
[data-mouse-over-selected='true']  { opacity: 1.0; }
]]>
</style>
<script type="application/ecmascript"><![CDATA[
document.addEventListener('DOMContentLoaded', (event) => {
  highlightEdges();
  highlightAdjacentNodes();
});
]]></script>
</svg>
