<?xml version="1.0" encoding="UTF-8" standalone="no"?>
<!DOCTYPE svg PUBLIC "-//W3C//DTD SVG 1.1//EN"
 "http://www.w3.org/Graphics/SVG/1.1/DTD/svg11.dtd">
<!-- Generated by graphviz version 2.43.0 (0)
 -->
<!-- Title: MediaError::mediaLoadError Pages: 1 -->
<svg width="326pt" height="64pt"
 viewBox="0.00 0.00 326.00 64.00" xmlns="http://www.w3.org/2000/svg" xmlns:xlink="http://www.w3.org/1999/xlink">
<g id="graph0" class="graph" transform="scale(1 1) rotate(0) translate(4 60)">
<title>MediaError::mediaLoadError</title>
<!-- Node1 -->
<g id="Node000001" class="node">
<title>Node1</title>
<g id="a_Node000001"><a xlink:title=" ">
<polygon fill="#999999" stroke="#666666" points="153,-37 0,-37 0,-18 153,-18 153,-37"/>
<text text-anchor="middle" x="76.5" y="-25" font-family="Helvetica,sans-Serif" font-size="10.00">MediaError::mediaLoadError</text>
</a>
</g>
</g>
<!-- Node2 -->
<g id="Node000002" class="node">
<title>Node2</title>
<g id="a_Node000002"><a xlink:href="../../d8/dfd/classMediaError.html#a40f848f7d340a1d2fba1750b757ce2cf" target="_top" xlink:title=" ">
<polygon fill="white" stroke="#666666" points="308,-56 199,-56 199,-37 308,-37 308,-56"/>
<text text-anchor="middle" x="253.5" y="-44" font-family="Helvetica,sans-Serif" font-size="10.00">MediaError::details</text>
</a>
</g>
</g>
<!-- Node1&#45;&gt;Node2 -->
<g id="edge1_Node000001_Node000002" class="edge">
<title>Node1&#45;&gt;Node2</title>
<g id="a_edge1_Node000001_Node000002"><a xlink:title=" ">
<path fill="none" stroke="#63b8ff" d="M153.24,-35.72C165.1,-37.01 177.25,-38.33 188.81,-39.58"/>
<polygon fill="#63b8ff" stroke="#63b8ff" points="188.47,-43.07 198.78,-40.67 189.22,-36.11 188.47,-43.07"/>
</a>
</g>
</g>
<!-- Node3 -->
<g id="Node000003" class="node">
<title>Node3</title>
<g id="a_Node000003"><a xlink:href="../../d8/dfd/classMediaError.html#a3961a8fe7ee7234c3a66af1c30bb5418" target="_top" xlink:title=" ">
<polygon fill="white" stroke="#666666" points="318,-19 189,-19 189,0 318,0 318,-19"/>
<text text-anchor="middle" x="253.5" y="-7" font-family="Helvetica,sans-Serif" font-size="10.00">MediaError::MediaError</text>
</a>
</g>
</g>
<!-- Node1&#45;&gt;Node3 -->
<g id="edge2_Node000001_Node000003" class="edge">
<title>Node1&#45;&gt;Node3</title>
<g id="a_edge2_Node000001_Node000003"><a xlink:title=" ">
<path fill="none" stroke="#63b8ff" d="M153.24,-19.71C161.71,-18.84 170.33,-17.95 178.78,-17.08"/>
<polygon fill="#63b8ff" stroke="#63b8ff" points="179.38,-20.54 188.97,-16.03 178.67,-13.58 179.38,-20.54"/>
</a>
</g>
</g>
</g>
</svg>
