<?xml version="1.0" encoding="UTF-8" standalone="no"?>
<!DOCTYPE svg PUBLIC "-//W3C//DTD SVG 1.1//EN"
 "http://www.w3.org/Graphics/SVG/1.1/DTD/svg11.dtd">
<!-- Generated by graphviz version 2.43.0 (0)
 -->
<!-- Title: MediaError::fileAccessError Pages: 1 -->
<svg width="321pt" height="64pt"
 viewBox="0.00 0.00 321.00 64.00" xmlns="http://www.w3.org/2000/svg" xmlns:xlink="http://www.w3.org/1999/xlink">
<g id="graph0" class="graph" transform="scale(1 1) rotate(0) translate(4 60)">
<title>MediaError::fileAccessError</title>
<!-- Node1 -->
<g id="Node000001" class="node">
<title>Node1</title>
<g id="a_Node000001"><a xlink:title=" ">
<polygon fill="#999999" stroke="#666666" points="148,-37 0,-37 0,-18 148,-18 148,-37"/>
<text text-anchor="middle" x="74" y="-25" font-family="Helvetica,sans-Serif" font-size="10.00">MediaError::fileAccessError</text>
</a>
</g>
</g>
<!-- Node2 -->
<g id="Node000002" class="node">
<title>Node2</title>
<g id="a_Node000002"><a xlink:href="../../d8/dfd/classMediaError.html#a40f848f7d340a1d2fba1750b757ce2cf" target="_top" xlink:title=" ">
<polygon fill="white" stroke="#666666" points="303,-56 194,-56 194,-37 303,-37 303,-56"/>
<text text-anchor="middle" x="248.5" y="-44" font-family="Helvetica,sans-Serif" font-size="10.00">MediaError::details</text>
</a>
</g>
</g>
<!-- Node1&#45;&gt;Node2 -->
<g id="edge1_Node000001_Node000002" class="edge">
<title>Node1&#45;&gt;Node2</title>
<g id="a_edge1_Node000001_Node000002"><a xlink:title=" ">
<path fill="none" stroke="#63b8ff" d="M148.16,-35.56C160.02,-36.86 172.21,-38.21 183.83,-39.49"/>
<polygon fill="#63b8ff" stroke="#63b8ff" points="183.53,-42.98 193.86,-40.59 184.3,-36.02 183.53,-42.98"/>
</a>
</g>
</g>
<!-- Node3 -->
<g id="Node000003" class="node">
<title>Node3</title>
<g id="a_Node000003"><a xlink:href="../../d8/dfd/classMediaError.html#a3961a8fe7ee7234c3a66af1c30bb5418" target="_top" xlink:title=" ">
<polygon fill="white" stroke="#666666" points="313,-19 184,-19 184,0 313,0 313,-19"/>
<text text-anchor="middle" x="248.5" y="-7" font-family="Helvetica,sans-Serif" font-size="10.00">MediaError::MediaError</text>
</a>
</g>
</g>
<!-- Node1&#45;&gt;Node3 -->
<g id="edge2_Node000001_Node000003" class="edge">
<title>Node1&#45;&gt;Node3</title>
<g id="a_edge2_Node000001_Node000003"><a xlink:title=" ">
<path fill="none" stroke="#63b8ff" d="M148.16,-19.87C156.58,-18.99 165.17,-18.09 173.6,-17.21"/>
<polygon fill="#63b8ff" stroke="#63b8ff" points="174.2,-20.67 183.78,-16.15 173.47,-13.71 174.2,-20.67"/>
</a>
</g>
</g>
</g>
</svg>
