<?xml version="1.0" encoding="UTF-8" standalone="no"?>
<!DOCTYPE svg PUBLIC "-//W3C//DTD SVG 1.1//EN"
 "http://www.w3.org/Graphics/SVG/1.1/DTD/svg11.dtd">
<!-- Generated by graphviz version 2.43.0 (0)
 -->
<!-- Title: PlaybackController::pause Pages: 1 -->
<svg width="262pt" height="230pt"
 viewBox="0.00 0.00 262.00 230.00" xmlns="http://www.w3.org/2000/svg" xmlns:xlink="http://www.w3.org/1999/xlink">
<g id="graph0" class="graph" transform="scale(1 1) rotate(0) translate(4 226)">
<title>PlaybackController::pause</title>
<!-- Node1 -->
<g id="Node000001" class="node">
<title>Node1</title>
<g id="a_Node000001"><a xlink:title="Pause playback.">
<polygon fill="#999999" stroke="#666666" points="254,-126 145,-126 145,-96 254,-96 254,-126"/>
<text text-anchor="start" x="153" y="-114" font-family="Helvetica,sans-Serif" font-size="10.00">PlaybackController</text>
<text text-anchor="middle" x="199.5" y="-103" font-family="Helvetica,sans-Serif" font-size="10.00">::pause</text>
</a>
</g>
</g>
<!-- Node2 -->
<g id="Node000002" class="node">
<title>Node2</title>
<g id="a_Node000002"><a xlink:href="../../d0/d22/classPlaybackController.html#a2863b36c274bd466f71380a93426b92a" target="_top" xlink:title="Start fast forward with specified speed.">
<polygon fill="white" stroke="#666666" points="109,-222 0,-222 0,-192 109,-192 109,-222"/>
<text text-anchor="start" x="8" y="-210" font-family="Helvetica,sans-Serif" font-size="10.00">PlaybackController</text>
<text text-anchor="middle" x="54.5" y="-199" font-family="Helvetica,sans-Serif" font-size="10.00">::startFastForward</text>
</a>
</g>
</g>
<!-- Node1&#45;&gt;Node2 -->
<g id="edge1_Node000001_Node000002" class="edge">
<title>Node1&#45;&gt;Node2</title>
<g id="a_edge1_Node000001_Node000002"><a xlink:title=" ">
<path fill="none" stroke="#63b8ff" d="M174.4,-133.23C157.07,-148.48 132.67,-168.5 109,-183 103.79,-186.19 98.09,-189.2 92.4,-191.95"/>
<polygon fill="#63b8ff" stroke="#63b8ff" points="177.17,-135.44 182.3,-126.17 172.51,-130.22 177.17,-135.44"/>
</a>
</g>
</g>
<!-- Node3 -->
<g id="Node000003" class="node">
<title>Node3</title>
<g id="a_Node000003"><a xlink:href="../../d0/d22/classPlaybackController.html#a67f8769f236304a0060542a3dc226a56" target="_top" xlink:title="Start rewind with specified speed.">
<polygon fill="white" stroke="#666666" points="109,-174 0,-174 0,-144 109,-144 109,-174"/>
<text text-anchor="start" x="8" y="-162" font-family="Helvetica,sans-Serif" font-size="10.00">PlaybackController</text>
<text text-anchor="middle" x="54.5" y="-151" font-family="Helvetica,sans-Serif" font-size="10.00">::startRewind</text>
</a>
</g>
</g>
<!-- Node1&#45;&gt;Node3 -->
<g id="edge2_Node000001_Node000003" class="edge">
<title>Node1&#45;&gt;Node3</title>
<g id="a_edge2_Node000001_Node000003"><a xlink:title=" ">
<path fill="none" stroke="#63b8ff" d="M143.85,-129.35C129.42,-134.19 114.03,-139.36 100.19,-144"/>
<polygon fill="#63b8ff" stroke="#63b8ff" points="145.28,-132.56 153.65,-126.06 143.05,-125.92 145.28,-132.56"/>
</a>
</g>
</g>
<!-- Node4 -->
<g id="Node000004" class="node">
<title>Node4</title>
<g id="a_Node000004"><a xlink:href="../../d0/d22/classPlaybackController.html#abbf5ea8a1b47b768ef5883cdbcfe97b8" target="_top" xlink:title="Step backward one frame (video only)">
<polygon fill="white" stroke="#666666" points="109,-126 0,-126 0,-96 109,-96 109,-126"/>
<text text-anchor="start" x="8" y="-114" font-family="Helvetica,sans-Serif" font-size="10.00">PlaybackController</text>
<text text-anchor="middle" x="54.5" y="-103" font-family="Helvetica,sans-Serif" font-size="10.00">::stepBackward</text>
</a>
</g>
</g>
<!-- Node1&#45;&gt;Node4 -->
<g id="edge3_Node000001_Node000004" class="edge">
<title>Node1&#45;&gt;Node4</title>
<g id="a_edge3_Node000001_Node000004"><a xlink:title=" ">
<path fill="none" stroke="#63b8ff" d="M134.68,-111C126.25,-111 117.69,-111 109.46,-111"/>
<polygon fill="#63b8ff" stroke="#63b8ff" points="134.85,-114.5 144.85,-111 134.85,-107.5 134.85,-114.5"/>
</a>
</g>
</g>
<!-- Node5 -->
<g id="Node000005" class="node">
<title>Node5</title>
<g id="a_Node000005"><a xlink:href="../../d0/d22/classPlaybackController.html#adaa7ccd1a7ef9bb7d4bdec07ae8525f4" target="_top" xlink:title="Step forward one frame (video only)">
<polygon fill="white" stroke="#666666" points="109,-78 0,-78 0,-48 109,-48 109,-78"/>
<text text-anchor="start" x="8" y="-66" font-family="Helvetica,sans-Serif" font-size="10.00">PlaybackController</text>
<text text-anchor="middle" x="54.5" y="-55" font-family="Helvetica,sans-Serif" font-size="10.00">::stepForward</text>
</a>
</g>
</g>
<!-- Node1&#45;&gt;Node5 -->
<g id="edge4_Node000001_Node000005" class="edge">
<title>Node1&#45;&gt;Node5</title>
<g id="a_edge4_Node000001_Node000005"><a xlink:title=" ">
<path fill="none" stroke="#63b8ff" d="M143.85,-92.65C129.42,-87.81 114.03,-82.64 100.19,-78"/>
<polygon fill="#63b8ff" stroke="#63b8ff" points="143.05,-96.08 153.65,-95.94 145.28,-89.44 143.05,-96.08"/>
</a>
</g>
</g>
<!-- Node6 -->
<g id="Node000006" class="node">
<title>Node6</title>
<g id="a_Node000006"><a xlink:href="../../d0/d22/classPlaybackController.html#a17813f60cb68c63027ea3b830e4b9328" target="_top" xlink:title="Toggle between play and pause.">
<polygon fill="white" stroke="#666666" points="109,-30 0,-30 0,0 109,0 109,-30"/>
<text text-anchor="start" x="8" y="-18" font-family="Helvetica,sans-Serif" font-size="10.00">PlaybackController</text>
<text text-anchor="middle" x="54.5" y="-7" font-family="Helvetica,sans-Serif" font-size="10.00">::togglePlayPause</text>
</a>
</g>
</g>
<!-- Node1&#45;&gt;Node6 -->
<g id="edge5_Node000001_Node000006" class="edge">
<title>Node1&#45;&gt;Node6</title>
<g id="a_edge5_Node000001_Node000006"><a xlink:title=" ">
<path fill="none" stroke="#63b8ff" d="M174.4,-88.77C157.07,-73.52 132.67,-53.5 109,-39 103.79,-35.81 98.09,-32.8 92.4,-30.05"/>
<polygon fill="#63b8ff" stroke="#63b8ff" points="172.51,-91.78 182.3,-95.83 177.17,-86.56 172.51,-91.78"/>
</a>
</g>
</g>
</g>
</svg>
