<?xml version="1.0" encoding="UTF-8" standalone="no"?>
<!DOCTYPE svg PUBLIC "-//W3C//DTD SVG 1.1//EN"
 "http://www.w3.org/Graphics/SVG/1.1/DTD/svg11.dtd">
<!-- Generated by graphviz version 2.43.0 (0)
 -->
<!-- Title: PlaybackController::seek Pages: 1 -->
<svg width="420pt" height="278pt"
 viewBox="0.00 0.00 420.00 278.00" xmlns="http://www.w3.org/2000/svg" xmlns:xlink="http://www.w3.org/1999/xlink">
<g id="graph0" class="graph" transform="scale(1 1) rotate(0) translate(4 274)">
<title>PlaybackController::seek</title>
<!-- Node1 -->
<g id="Node000001" class="node">
<title>Node1</title>
<g id="a_Node000001"><a xlink:title="Seek to specific position.">
<polygon fill="#999999" stroke="#666666" points="412,-150 303,-150 303,-120 412,-120 412,-150"/>
<text text-anchor="start" x="311" y="-138" font-family="Helvetica,sans-Serif" font-size="10.00">PlaybackController</text>
<text text-anchor="middle" x="357.5" y="-127" font-family="Helvetica,sans-Serif" font-size="10.00">::seek</text>
</a>
</g>
</g>
<!-- Node2 -->
<g id="Node000002" class="node">
<title>Node2</title>
<g id="a_Node000002"><a xlink:href="../../d0/d22/classPlaybackController.html#acb360376f5afae30d7b16cd47df34f0c" target="_top" xlink:title="Load and seek to saved resume position.">
<polygon fill="white" stroke="#666666" points="267,-270 145,-270 145,-240 267,-240 267,-270"/>
<text text-anchor="start" x="153" y="-258" font-family="Helvetica,sans-Serif" font-size="10.00">PlaybackController</text>
<text text-anchor="middle" x="206" y="-247" font-family="Helvetica,sans-Serif" font-size="10.00">::loadResumePosition</text>
</a>
</g>
</g>
<!-- Node1&#45;&gt;Node2 -->
<g id="edge1_Node000001_Node000002" class="edge">
<title>Node1&#45;&gt;Node2</title>
<g id="a_edge1_Node000001_Node000002"><a xlink:title=" ">
<path fill="none" stroke="#63b8ff" d="M339.49,-158.49C323,-179.83 296.25,-210.97 267,-231 262.09,-234.36 256.65,-237.36 251.1,-240"/>
<polygon fill="#63b8ff" stroke="#63b8ff" points="342.46,-160.36 345.7,-150.27 336.87,-156.14 342.46,-160.36"/>
</a>
</g>
</g>
<!-- Node4 -->
<g id="Node000004" class="node">
<title>Node4</title>
<g id="a_Node000004"><a xlink:href="../../d0/d22/classPlaybackController.html#a85b1abf15e44338edafa5d003559ca3f" target="_top" xlink:title="Seek backward by specified amount.">
<polygon fill="white" stroke="#666666" points="260.5,-222 151.5,-222 151.5,-192 260.5,-192 260.5,-222"/>
<text text-anchor="start" x="159.5" y="-210" font-family="Helvetica,sans-Serif" font-size="10.00">PlaybackController</text>
<text text-anchor="middle" x="206" y="-199" font-family="Helvetica,sans-Serif" font-size="10.00">::seekBackward</text>
</a>
</g>
</g>
<!-- Node1&#45;&gt;Node4 -->
<g id="edge3_Node000001_Node000004" class="edge">
<title>Node1&#45;&gt;Node4</title>
<g id="a_edge3_Node000001_Node000004"><a xlink:title=" ">
<path fill="none" stroke="#63b8ff" d="M321.12,-155.15C304.85,-164.11 285.17,-174.53 267,-183 260.49,-186.03 253.49,-189.05 246.64,-191.87"/>
<polygon fill="#63b8ff" stroke="#63b8ff" points="323.22,-157.99 330.27,-150.07 319.82,-151.87 323.22,-157.99"/>
</a>
</g>
</g>
<!-- Node5 -->
<g id="Node000005" class="node">
<title>Node5</title>
<g id="a_Node000005"><a xlink:href="../../d0/d22/classPlaybackController.html#a6084dd2e7f68b0ee353f093e2fd8340a" target="_top" xlink:title="Seek forward by specified amount.">
<polygon fill="white" stroke="#666666" points="260.5,-174 151.5,-174 151.5,-144 260.5,-144 260.5,-174"/>
<text text-anchor="start" x="159.5" y="-162" font-family="Helvetica,sans-Serif" font-size="10.00">PlaybackController</text>
<text text-anchor="middle" x="206" y="-151" font-family="Helvetica,sans-Serif" font-size="10.00">::seekForward</text>
</a>
</g>
</g>
<!-- Node1&#45;&gt;Node5 -->
<g id="edge4_Node000001_Node000005" class="edge">
<title>Node1&#45;&gt;Node5</title>
<g id="a_edge4_Node000001_Node000005"><a xlink:title=" ">
<path fill="none" stroke="#63b8ff" d="M292.81,-145.22C282.11,-146.94 271.1,-148.71 260.68,-150.38"/>
<polygon fill="#63b8ff" stroke="#63b8ff" points="293.63,-148.64 302.95,-143.6 292.52,-141.73 293.63,-148.64"/>
</a>
</g>
</g>
<!-- Node6 -->
<g id="Node000006" class="node">
<title>Node6</title>
<g id="a_Node000006"><a xlink:href="../../d0/d22/classPlaybackController.html#ab4a61c8ea850238d901ad652c1bd4506" target="_top" xlink:title="Seek to percentage of total duration.">
<polygon fill="white" stroke="#666666" points="261.5,-126 150.5,-126 150.5,-96 261.5,-96 261.5,-126"/>
<text text-anchor="start" x="158.5" y="-114" font-family="Helvetica,sans-Serif" font-size="10.00">PlaybackController</text>
<text text-anchor="middle" x="206" y="-103" font-family="Helvetica,sans-Serif" font-size="10.00">::seekToPercentage</text>
</a>
</g>
</g>
<!-- Node1&#45;&gt;Node6 -->
<g id="edge5_Node000001_Node000006" class="edge">
<title>Node1&#45;&gt;Node6</title>
<g id="a_edge5_Node000001_Node000006"><a xlink:title=" ">
<path fill="none" stroke="#63b8ff" d="M293.06,-124.82C282.63,-123.14 271.89,-121.42 261.69,-119.78"/>
<polygon fill="#63b8ff" stroke="#63b8ff" points="292.52,-128.27 302.95,-126.4 293.63,-121.36 292.52,-128.27"/>
</a>
</g>
</g>
<!-- Node7 -->
<g id="Node000007" class="node">
<title>Node7</title>
<g id="a_Node000007"><a xlink:href="../../d0/d22/classPlaybackController.html#abbf5ea8a1b47b768ef5883cdbcfe97b8" target="_top" xlink:title="Step backward one frame (video only)">
<polygon fill="white" stroke="#666666" points="260.5,-78 151.5,-78 151.5,-48 260.5,-48 260.5,-78"/>
<text text-anchor="start" x="159.5" y="-66" font-family="Helvetica,sans-Serif" font-size="10.00">PlaybackController</text>
<text text-anchor="middle" x="206" y="-55" font-family="Helvetica,sans-Serif" font-size="10.00">::stepBackward</text>
</a>
</g>
</g>
<!-- Node1&#45;&gt;Node7 -->
<g id="edge6_Node000001_Node000007" class="edge">
<title>Node1&#45;&gt;Node7</title>
<g id="a_edge6_Node000001_Node000007"><a xlink:title=" ">
<path fill="none" stroke="#63b8ff" d="M321.12,-114.85C304.85,-105.89 285.17,-95.47 267,-87 260.49,-83.97 253.49,-80.95 246.64,-78.13"/>
<polygon fill="#63b8ff" stroke="#63b8ff" points="319.82,-118.13 330.27,-119.93 323.22,-112.01 319.82,-118.13"/>
</a>
</g>
</g>
<!-- Node8 -->
<g id="Node000008" class="node">
<title>Node8</title>
<g id="a_Node000008"><a xlink:href="../../d0/d22/classPlaybackController.html#adaa7ccd1a7ef9bb7d4bdec07ae8525f4" target="_top" xlink:title="Step forward one frame (video only)">
<polygon fill="white" stroke="#666666" points="260.5,-30 151.5,-30 151.5,0 260.5,0 260.5,-30"/>
<text text-anchor="start" x="159.5" y="-18" font-family="Helvetica,sans-Serif" font-size="10.00">PlaybackController</text>
<text text-anchor="middle" x="206" y="-7" font-family="Helvetica,sans-Serif" font-size="10.00">::stepForward</text>
</a>
</g>
</g>
<!-- Node1&#45;&gt;Node8 -->
<g id="edge7_Node000001_Node000008" class="edge">
<title>Node1&#45;&gt;Node8</title>
<g id="a_edge7_Node000001_Node000008"><a xlink:title=" ">
<path fill="none" stroke="#63b8ff" d="M339.49,-111.51C323,-90.17 296.25,-59.03 267,-39 262.09,-35.64 256.65,-32.64 251.1,-30"/>
<polygon fill="#63b8ff" stroke="#63b8ff" points="336.87,-113.86 345.7,-119.73 342.46,-109.64 336.87,-113.86"/>
</a>
</g>
</g>
<!-- Node3 -->
<g id="Node000003" class="node">
<title>Node3</title>
<g id="a_Node000003"><a xlink:href="../../d0/d22/classPlaybackController.html#a188796e3061d606b9f1ee44fca8fdf8d" target="_top" xlink:title="Load media file or URL.">
<polygon fill="white" stroke="#666666" points="109,-270 0,-270 0,-240 109,-240 109,-270"/>
<text text-anchor="start" x="8" y="-258" font-family="Helvetica,sans-Serif" font-size="10.00">PlaybackController</text>
<text text-anchor="middle" x="54.5" y="-247" font-family="Helvetica,sans-Serif" font-size="10.00">::loadMedia</text>
</a>
</g>
</g>
<!-- Node2&#45;&gt;Node3 -->
<g id="edge2_Node000002_Node000003" class="edge">
<title>Node2&#45;&gt;Node3</title>
<g id="a_edge2_Node000002_Node000003"><a xlink:title=" ">
<path fill="none" stroke="#63b8ff" d="M134.41,-255C125.99,-255 117.49,-255 109.35,-255"/>
<polygon fill="#63b8ff" stroke="#63b8ff" points="134.62,-258.5 144.62,-255 134.62,-251.5 134.62,-258.5"/>
</a>
</g>
</g>
</g>
</svg>
