<?xml version="1.0" encoding="UTF-8" standalone="no"?>
<!DOCTYPE svg PUBLIC "-//W3C//DTD SVG 1.1//EN"
 "http://www.w3.org/Graphics/SVG/1.1/DTD/svg11.dtd">
<!-- Generated by graphviz version 2.43.0 (0)
 -->
<!-- Title: PlaybackController::duration Pages: 1 -->
<svg width="581pt" height="299pt"
 viewBox="0.00 0.00 581.00 299.00" xmlns="http://www.w3.org/2000/svg" xmlns:xlink="http://www.w3.org/1999/xlink">
<g id="graph0" class="graph" transform="scale(1 1) rotate(0) translate(4 295)">
<title>PlaybackController::duration</title>
<!-- Node1 -->
<g id="Node000001" class="node">
<title>Node1</title>
<g id="a_Node000001"><a xlink:title="Get media duration.">
<polygon fill="#999999" stroke="#666666" points="573,-128 464,-128 464,-98 573,-98 573,-128"/>
<text text-anchor="start" x="472" y="-116" font-family="Helvetica,sans-Serif" font-size="10.00">PlaybackController</text>
<text text-anchor="middle" x="518.5" y="-105" font-family="Helvetica,sans-Serif" font-size="10.00">::duration</text>
</a>
</g>
</g>
<!-- Node2 -->
<g id="Node000002" class="node">
<title>Node2</title>
<g id="a_Node000002"><a xlink:href="../../d0/d22/classPlaybackController.html#a8cb2e6930e89b963867d2b6eca398020" target="_top" xlink:title="Save current playback position for resume.">
<polygon fill="white" stroke="#666666" points="428,-255 303,-255 303,-225 428,-225 428,-255"/>
<text text-anchor="start" x="311" y="-243" font-family="Helvetica,sans-Serif" font-size="10.00">PlaybackController</text>
<text text-anchor="middle" x="365.5" y="-232" font-family="Helvetica,sans-Serif" font-size="10.00">::saveResumePosition</text>
</a>
</g>
</g>
<!-- Node1&#45;&gt;Node2 -->
<g id="edge1_Node000001_Node000002" class="edge">
<title>Node1&#45;&gt;Node2</title>
<g id="a_edge1_Node000001_Node000002"><a xlink:title=" ">
<path fill="none" stroke="#63b8ff" d="M491.9,-134.53C461.35,-160.23 411.05,-202.53 384.39,-224.95"/>
<polygon fill="#63b8ff" stroke="#63b8ff" points="494.19,-137.18 499.59,-128.07 489.68,-131.83 494.19,-137.18"/>
</a>
</g>
</g>
<!-- Node4 -->
<g id="Node000004" class="node">
<title>Node4</title>
<g id="a_Node000004"><a xlink:href="../../d0/d22/classPlaybackController.html#a6ef737643d936bc69833b090f9ff4416" target="_top" xlink:title="Seek to specific position.">
<polygon fill="white" stroke="#666666" points="420,-150 311,-150 311,-120 420,-120 420,-150"/>
<text text-anchor="start" x="319" y="-138" font-family="Helvetica,sans-Serif" font-size="10.00">PlaybackController</text>
<text text-anchor="middle" x="365.5" y="-127" font-family="Helvetica,sans-Serif" font-size="10.00">::seek</text>
</a>
</g>
</g>
<!-- Node1&#45;&gt;Node4 -->
<g id="edge3_Node000001_Node000004" class="edge">
<title>Node1&#45;&gt;Node4</title>
<g id="a_edge3_Node000001_Node000004"><a xlink:title=" ">
<path fill="none" stroke="#63b8ff" d="M453.73,-122.29C442.58,-123.92 431.09,-125.59 420.24,-127.17"/>
<polygon fill="#63b8ff" stroke="#63b8ff" points="454.45,-125.72 463.84,-120.82 453.44,-118.8 454.45,-125.72"/>
</a>
</g>
</g>
<!-- Node8 -->
<g id="Node000008" class="node">
<title>Node8</title>
<g id="a_Node000008"><a xlink:href="../../d0/d22/classPlaybackController.html#ab4a61c8ea850238d901ad652c1bd4506" target="_top" xlink:title="Seek to percentage of total duration.">
<polygon fill="white" stroke="#666666" points="261.5,-30 150.5,-30 150.5,0 261.5,0 261.5,-30"/>
<text text-anchor="start" x="158.5" y="-18" font-family="Helvetica,sans-Serif" font-size="10.00">PlaybackController</text>
<text text-anchor="middle" x="206" y="-7" font-family="Helvetica,sans-Serif" font-size="10.00">::seekToPercentage</text>
</a>
</g>
</g>
<!-- Node1&#45;&gt;Node8 -->
<g id="edge11_Node000001_Node000008" class="edge">
<title>Node1&#45;&gt;Node8</title>
<g id="a_edge11_Node000001_Node000008"><a xlink:title=" ">
<path fill="none" stroke="#63b8ff" d="M453.6,-110.55C409.27,-106.64 349.99,-96.9 303,-73 283.38,-63.02 285.54,-50.85 267,-39 261.8,-35.68 256.07,-32.67 250.27,-30.01"/>
<polygon fill="#63b8ff" stroke="#63b8ff" points="453.43,-114.04 463.68,-111.36 453.99,-107.07 453.43,-114.04"/>
</a>
</g>
</g>
<!-- Node11 -->
<g id="Node000011" class="node">
<title>Node11</title>
<g id="a_Node000011"><a xlink:href="../../d0/d22/classPlaybackController.html#a3a55530f437efd75ab79c001a4367a5d" target="_top" xlink:title="Enable or disable crossfade between tracks.">
<polygon fill="white" stroke="#666666" points="428,-64 303,-64 303,-34 428,-34 428,-64"/>
<text text-anchor="start" x="311" y="-52" font-family="Helvetica,sans-Serif" font-size="10.00">PlaybackController</text>
<text text-anchor="middle" x="365.5" y="-41" font-family="Helvetica,sans-Serif" font-size="10.00">::setCrossfadeEnabled</text>
</a>
</g>
</g>
<!-- Node1&#45;&gt;Node11 -->
<g id="edge12_Node000001_Node000011" class="edge">
<title>Node1&#45;&gt;Node11</title>
<g id="a_edge12_Node000001_Node000011"><a xlink:title=" ">
<path fill="none" stroke="#63b8ff" d="M472.71,-94.02C450.11,-84.44 423.08,-72.98 401.94,-64.02"/>
<polygon fill="#63b8ff" stroke="#63b8ff" points="471.52,-97.31 482.1,-97.99 474.26,-90.87 471.52,-97.31"/>
</a>
</g>
</g>
<!-- Node3 -->
<g id="Node000003" class="node">
<title>Node3</title>
<g id="a_Node000003"><a xlink:href="../../d0/d22/classPlaybackController.html#a188796e3061d606b9f1ee44fca8fdf8d" target="_top" xlink:title="Load media file or URL.">
<polygon fill="white" stroke="#666666" points="109,-291 0,-291 0,-261 109,-261 109,-291"/>
<text text-anchor="start" x="8" y="-279" font-family="Helvetica,sans-Serif" font-size="10.00">PlaybackController</text>
<text text-anchor="middle" x="54.5" y="-268" font-family="Helvetica,sans-Serif" font-size="10.00">::loadMedia</text>
</a>
</g>
</g>
<!-- Node2&#45;&gt;Node3 -->
<g id="edge2_Node000002_Node000003" class="edge">
<title>Node2&#45;&gt;Node3</title>
<g id="a_edge2_Node000002_Node000003"><a xlink:title=" ">
<path fill="none" stroke="#63b8ff" d="M325.79,-259.43C308.3,-267.16 287.09,-275.13 267,-279 213.99,-289.21 152.12,-286.7 109.05,-282.72"/>
<polygon fill="#63b8ff" stroke="#63b8ff" points="327.45,-262.52 335.09,-255.18 324.54,-256.15 327.45,-262.52"/>
</a>
</g>
</g>
<!-- Node5 -->
<g id="Node000005" class="node">
<title>Node5</title>
<g id="a_Node000005"><a xlink:href="../../d0/d22/classPlaybackController.html#acb360376f5afae30d7b16cd47df34f0c" target="_top" xlink:title="Load and seek to saved resume position.">
<polygon fill="white" stroke="#666666" points="267,-270 145,-270 145,-240 267,-240 267,-270"/>
<text text-anchor="start" x="153" y="-258" font-family="Helvetica,sans-Serif" font-size="10.00">PlaybackController</text>
<text text-anchor="middle" x="206" y="-247" font-family="Helvetica,sans-Serif" font-size="10.00">::loadResumePosition</text>
</a>
</g>
</g>
<!-- Node4&#45;&gt;Node5 -->
<g id="edge4_Node000004_Node000005" class="edge">
<title>Node4&#45;&gt;Node5</title>
<g id="a_edge4_Node000004_Node000005"><a xlink:title=" ">
<path fill="none" stroke="#63b8ff" d="M345.78,-158.11C327.53,-179.4 298.07,-210.69 267,-231 261.93,-234.32 256.33,-237.3 250.65,-239.95"/>
<polygon fill="#63b8ff" stroke="#63b8ff" points="348.67,-160.11 352.43,-150.21 343.31,-155.61 348.67,-160.11"/>
</a>
</g>
</g>
<!-- Node6 -->
<g id="Node000006" class="node">
<title>Node6</title>
<g id="a_Node000006"><a xlink:href="../../d0/d22/classPlaybackController.html#a85b1abf15e44338edafa5d003559ca3f" target="_top" xlink:title="Seek backward by specified amount.">
<polygon fill="white" stroke="#666666" points="260.5,-222 151.5,-222 151.5,-192 260.5,-192 260.5,-222"/>
<text text-anchor="start" x="159.5" y="-210" font-family="Helvetica,sans-Serif" font-size="10.00">PlaybackController</text>
<text text-anchor="middle" x="206" y="-199" font-family="Helvetica,sans-Serif" font-size="10.00">::seekBackward</text>
</a>
</g>
</g>
<!-- Node4&#45;&gt;Node6 -->
<g id="edge6_Node000004_Node000006" class="edge">
<title>Node4&#45;&gt;Node6</title>
<g id="a_edge6_Node000004_Node000006"><a xlink:title=" ">
<path fill="none" stroke="#63b8ff" d="M326.37,-154.62C308.49,-163.6 286.81,-174.18 267,-183 260.24,-186.01 252.97,-189.07 245.91,-191.94"/>
<polygon fill="#63b8ff" stroke="#63b8ff" points="327.99,-157.72 335.34,-150.09 324.84,-151.47 327.99,-157.72"/>
</a>
</g>
</g>
<!-- Node7 -->
<g id="Node000007" class="node">
<title>Node7</title>
<g id="a_Node000007"><a xlink:href="../../d0/d22/classPlaybackController.html#a6084dd2e7f68b0ee353f093e2fd8340a" target="_top" xlink:title="Seek forward by specified amount.">
<polygon fill="white" stroke="#666666" points="260.5,-174 151.5,-174 151.5,-144 260.5,-144 260.5,-174"/>
<text text-anchor="start" x="159.5" y="-162" font-family="Helvetica,sans-Serif" font-size="10.00">PlaybackController</text>
<text text-anchor="middle" x="206" y="-151" font-family="Helvetica,sans-Serif" font-size="10.00">::seekForward</text>
</a>
</g>
</g>
<!-- Node4&#45;&gt;Node7 -->
<g id="edge7_Node000004_Node000007" class="edge">
<title>Node4&#45;&gt;Node7</title>
<g id="a_edge7_Node000004_Node000007"><a xlink:title=" ">
<path fill="none" stroke="#63b8ff" d="M300.69,-144.72C287.36,-146.76 273.43,-148.88 260.52,-150.84"/>
<polygon fill="#63b8ff" stroke="#63b8ff" points="301.38,-148.16 310.74,-143.19 300.32,-141.24 301.38,-148.16"/>
</a>
</g>
</g>
<!-- Node4&#45;&gt;Node8 -->
<g id="edge8_Node000004_Node000008" class="edge">
<title>Node4&#45;&gt;Node8</title>
<g id="a_edge8_Node000004_Node000008"><a xlink:title=" ">
<path fill="none" stroke="#63b8ff" d="M314.47,-114.92C310.35,-112.25 306.46,-109.28 303,-106 278.48,-82.73 292.21,-61.52 267,-39 263.15,-35.56 258.75,-32.58 254.11,-30.01"/>
<polygon fill="#63b8ff" stroke="#63b8ff" points="312.73,-117.96 323.13,-119.99 316.27,-111.92 312.73,-117.96"/>
</a>
</g>
</g>
<!-- Node9 -->
<g id="Node000009" class="node">
<title>Node9</title>
<g id="a_Node000009"><a xlink:href="../../d0/d22/classPlaybackController.html#abbf5ea8a1b47b768ef5883cdbcfe97b8" target="_top" xlink:title="Step backward one frame (video only)">
<polygon fill="white" stroke="#666666" points="260.5,-126 151.5,-126 151.5,-96 260.5,-96 260.5,-126"/>
<text text-anchor="start" x="159.5" y="-114" font-family="Helvetica,sans-Serif" font-size="10.00">PlaybackController</text>
<text text-anchor="middle" x="206" y="-103" font-family="Helvetica,sans-Serif" font-size="10.00">::stepBackward</text>
</a>
</g>
</g>
<!-- Node4&#45;&gt;Node9 -->
<g id="edge9_Node000004_Node000009" class="edge">
<title>Node4&#45;&gt;Node9</title>
<g id="a_edge9_Node000004_Node000009"><a xlink:title=" ">
<path fill="none" stroke="#63b8ff" d="M300.69,-125.28C287.36,-123.24 273.43,-121.12 260.52,-119.16"/>
<polygon fill="#63b8ff" stroke="#63b8ff" points="300.32,-128.76 310.74,-126.81 301.38,-121.84 300.32,-128.76"/>
</a>
</g>
</g>
<!-- Node10 -->
<g id="Node000010" class="node">
<title>Node10</title>
<g id="a_Node000010"><a xlink:href="../../d0/d22/classPlaybackController.html#adaa7ccd1a7ef9bb7d4bdec07ae8525f4" target="_top" xlink:title="Step forward one frame (video only)">
<polygon fill="white" stroke="#666666" points="260.5,-78 151.5,-78 151.5,-48 260.5,-48 260.5,-78"/>
<text text-anchor="start" x="159.5" y="-66" font-family="Helvetica,sans-Serif" font-size="10.00">PlaybackController</text>
<text text-anchor="middle" x="206" y="-55" font-family="Helvetica,sans-Serif" font-size="10.00">::stepForward</text>
</a>
</g>
</g>
<!-- Node4&#45;&gt;Node10 -->
<g id="edge10_Node000004_Node000010" class="edge">
<title>Node4&#45;&gt;Node10</title>
<g id="a_edge10_Node000004_Node000010"><a xlink:title=" ">
<path fill="none" stroke="#63b8ff" d="M322.41,-115.46C315.88,-112.34 309.24,-109.12 303,-106 286.81,-97.92 283.42,-94.59 267,-87 260.38,-83.94 253.25,-80.89 246.31,-78.03"/>
<polygon fill="#63b8ff" stroke="#63b8ff" points="321.28,-118.8 331.81,-119.92 324.28,-112.47 321.28,-118.8"/>
</a>
</g>
</g>
<!-- Node5&#45;&gt;Node3 -->
<g id="edge5_Node000005_Node000003" class="edge">
<title>Node5&#45;&gt;Node3</title>
<g id="a_edge5_Node000005_Node000003"><a xlink:title=" ">
<path fill="none" stroke="#63b8ff" d="M134.69,-264.88C126.17,-266.07 117.58,-267.28 109.35,-268.44"/>
<polygon fill="#63b8ff" stroke="#63b8ff" points="135.21,-268.34 144.62,-263.48 134.23,-261.41 135.21,-268.34"/>
</a>
</g>
</g>
</g>
</svg>
