<?xml version="1.0" encoding="UTF-8" standalone="no"?>
<!DOCTYPE svg PUBLIC "-//W3C//DTD SVG 1.1//EN"
 "http://www.w3.org/Graphics/SVG/1.1/DTD/svg11.dtd">
<!-- Generated by graphviz version 2.43.0 (0)
 -->
<!-- Title: PlaybackController::position Pages: 1 -->
<svg width="598pt" height="307pt"
 viewBox="0.00 0.00 598.00 306.55" xmlns="http://www.w3.org/2000/svg" xmlns:xlink="http://www.w3.org/1999/xlink">
<g id="graph0" class="graph" transform="scale(1 1) rotate(0) translate(4 302.55)">
<title>PlaybackController::position</title>
<!-- Node1 -->
<g id="Node000001" class="node">
<title>Node1</title>
<g id="a_Node000001"><a xlink:title="Get current playback position.">
<polygon fill="#999999" stroke="#666666" points="590,-144 481,-144 481,-114 590,-114 590,-144"/>
<text text-anchor="start" x="489" y="-132" font-family="Helvetica,sans-Serif" font-size="10.00">PlaybackController</text>
<text text-anchor="middle" x="535.5" y="-121" font-family="Helvetica,sans-Serif" font-size="10.00">::position</text>
</a>
</g>
</g>
<!-- Node2 -->
<g id="Node000002" class="node">
<title>Node2</title>
<g id="a_Node000002"><a xlink:href="../../d0/d22/classPlaybackController.html#a03781f3b7a83b6bb90ccd2e47d30e147" target="_top" xlink:title="Generate thumbnail for seek preview.">
<polygon fill="white" stroke="#666666" points="445,-262 303,-262 303,-232 445,-232 445,-262"/>
<text text-anchor="start" x="311" y="-250" font-family="Helvetica,sans-Serif" font-size="10.00">PlaybackController</text>
<text text-anchor="middle" x="374" y="-239" font-family="Helvetica,sans-Serif" font-size="10.00">::generateSeekThumbnail</text>
</a>
</g>
</g>
<!-- Node1&#45;&gt;Node2 -->
<g id="edge1_Node000001_Node000002" class="edge">
<title>Node1&#45;&gt;Node2</title>
<g id="a_edge1_Node000001_Node000002"><a xlink:title=" ">
<path fill="none" stroke="#63b8ff" d="M517.61,-152.32C501.21,-173.44 474.51,-204.08 445,-223 439.7,-226.4 433.87,-229.37 427.89,-231.97"/>
<polygon fill="#63b8ff" stroke="#63b8ff" points="520.53,-154.26 523.78,-144.18 514.95,-150.03 520.53,-154.26"/>
</a>
</g>
</g>
<!-- Node3 -->
<g id="Node000003" class="node">
<title>Node3</title>
<g id="a_Node000003"><a xlink:href="../../d0/d22/classPlaybackController.html#a8cb2e6930e89b963867d2b6eca398020" target="_top" xlink:title="Save current playback position for resume.">
<polygon fill="white" stroke="#666666" points="436.5,-214 311.5,-214 311.5,-184 436.5,-184 436.5,-214"/>
<text text-anchor="start" x="319.5" y="-202" font-family="Helvetica,sans-Serif" font-size="10.00">PlaybackController</text>
<text text-anchor="middle" x="374" y="-191" font-family="Helvetica,sans-Serif" font-size="10.00">::saveResumePosition</text>
</a>
</g>
</g>
<!-- Node1&#45;&gt;Node3 -->
<g id="edge2_Node000001_Node000003" class="edge">
<title>Node1&#45;&gt;Node3</title>
<g id="a_edge2_Node000001_Node000003"><a xlink:title=" ">
<path fill="none" stroke="#63b8ff" d="M498.5,-149.01C482.39,-157.57 463.01,-167.33 445,-175 437.67,-178.12 429.79,-181.14 422.05,-183.92"/>
<polygon fill="#63b8ff" stroke="#63b8ff" points="500.42,-151.95 507.57,-144.14 497.1,-145.79 500.42,-151.95"/>
</a>
</g>
</g>
<!-- Node5 -->
<g id="Node000005" class="node">
<title>Node5</title>
<g id="a_Node000005"><a xlink:href="../../d0/d22/classPlaybackController.html#a6ef737643d936bc69833b090f9ff4416" target="_top" xlink:title="Seek to specific position.">
<polygon fill="white" stroke="#666666" points="428.5,-166 319.5,-166 319.5,-136 428.5,-136 428.5,-166"/>
<text text-anchor="start" x="327.5" y="-154" font-family="Helvetica,sans-Serif" font-size="10.00">PlaybackController</text>
<text text-anchor="middle" x="374" y="-143" font-family="Helvetica,sans-Serif" font-size="10.00">::seek</text>
</a>
</g>
</g>
<!-- Node1&#45;&gt;Node5 -->
<g id="edge4_Node000001_Node000005" class="edge">
<title>Node1&#45;&gt;Node5</title>
<g id="a_edge4_Node000001_Node000005"><a xlink:title=" ">
<path fill="none" stroke="#63b8ff" d="M470.91,-137.77C456.92,-139.7 442.24,-141.73 428.69,-143.6"/>
<polygon fill="#63b8ff" stroke="#63b8ff" points="471.52,-141.22 480.95,-136.39 470.56,-134.29 471.52,-141.22"/>
</a>
</g>
</g>
<!-- Node9 -->
<g id="Node000009" class="node">
<title>Node9</title>
<g id="a_Node000009"><a xlink:href="../../d0/d22/classPlaybackController.html#ab4a61c8ea850238d901ad652c1bd4506" target="_top" xlink:title="Seek to percentage of total duration.">
<polygon fill="white" stroke="#666666" points="261.5,-126 150.5,-126 150.5,-96 261.5,-96 261.5,-126"/>
<text text-anchor="start" x="158.5" y="-114" font-family="Helvetica,sans-Serif" font-size="10.00">PlaybackController</text>
<text text-anchor="middle" x="206" y="-103" font-family="Helvetica,sans-Serif" font-size="10.00">::seekToPercentage</text>
</a>
</g>
</g>
<!-- Node1&#45;&gt;Node9 -->
<g id="edge12_Node000001_Node000009" class="edge">
<title>Node1&#45;&gt;Node9</title>
<g id="a_edge12_Node000001_Node000009"><a xlink:title=" ">
<path fill="none" stroke="#63b8ff" d="M470.54,-125.48C409.68,-122.14 319.1,-117.16 261.56,-114"/>
<polygon fill="#63b8ff" stroke="#63b8ff" points="470.61,-128.99 480.79,-126.05 470.99,-122 470.61,-128.99"/>
</a>
</g>
</g>
<!-- Node10 -->
<g id="Node000010" class="node">
<title>Node10</title>
<g id="a_Node000010"><a xlink:href="../../d0/d22/classPlaybackController.html#abbf5ea8a1b47b768ef5883cdbcfe97b8" target="_top" xlink:title="Step backward one frame (video only)">
<polygon fill="white" stroke="#666666" points="260.5,-78 151.5,-78 151.5,-48 260.5,-48 260.5,-78"/>
<text text-anchor="start" x="159.5" y="-66" font-family="Helvetica,sans-Serif" font-size="10.00">PlaybackController</text>
<text text-anchor="middle" x="206" y="-55" font-family="Helvetica,sans-Serif" font-size="10.00">::stepBackward</text>
</a>
</g>
</g>
<!-- Node1&#45;&gt;Node10 -->
<g id="edge13_Node000001_Node000010" class="edge">
<title>Node1&#45;&gt;Node10</title>
<g id="a_edge13_Node000001_Node000010"><a xlink:title=" ">
<path fill="none" stroke="#63b8ff" d="M470.87,-116.18C409.72,-103.85 318.34,-85.44 260.74,-73.83"/>
<polygon fill="#63b8ff" stroke="#63b8ff" points="470.29,-119.63 480.79,-118.18 471.68,-112.77 470.29,-119.63"/>
</a>
</g>
</g>
<!-- Node11 -->
<g id="Node000011" class="node">
<title>Node11</title>
<g id="a_Node000011"><a xlink:href="../../d0/d22/classPlaybackController.html#adaa7ccd1a7ef9bb7d4bdec07ae8525f4" target="_top" xlink:title="Step forward one frame (video only)">
<polygon fill="white" stroke="#666666" points="260.5,-30 151.5,-30 151.5,0 260.5,0 260.5,-30"/>
<text text-anchor="start" x="159.5" y="-18" font-family="Helvetica,sans-Serif" font-size="10.00">PlaybackController</text>
<text text-anchor="middle" x="206" y="-7" font-family="Helvetica,sans-Serif" font-size="10.00">::stepForward</text>
</a>
</g>
</g>
<!-- Node1&#45;&gt;Node11 -->
<g id="edge14_Node000001_Node000011" class="edge">
<title>Node1&#45;&gt;Node11</title>
<g id="a_edge14_Node000001_Node000011"><a xlink:title=" ">
<path fill="none" stroke="#63b8ff" d="M502.58,-108.63C485.92,-98.66 464.89,-87.09 445,-79 383.76,-54.11 309.75,-35.95 260.69,-25.46"/>
<polygon fill="#63b8ff" stroke="#63b8ff" points="501,-111.76 511.36,-113.98 504.64,-105.79 501,-111.76"/>
</a>
</g>
</g>
<!-- Node4 -->
<g id="Node000004" class="node">
<title>Node4</title>
<g id="a_Node000004"><a xlink:href="../../d0/d22/classPlaybackController.html#a188796e3061d606b9f1ee44fca8fdf8d" target="_top" xlink:title="Load media file or URL.">
<polygon fill="white" stroke="#666666" points="109,-291 0,-291 0,-261 109,-261 109,-291"/>
<text text-anchor="start" x="8" y="-279" font-family="Helvetica,sans-Serif" font-size="10.00">PlaybackController</text>
<text text-anchor="middle" x="54.5" y="-268" font-family="Helvetica,sans-Serif" font-size="10.00">::loadMedia</text>
</a>
</g>
</g>
<!-- Node3&#45;&gt;Node4 -->
<g id="edge3_Node000003_Node000004" class="edge">
<title>Node3&#45;&gt;Node4</title>
<g id="a_edge3_Node000003_Node000004"><a xlink:title=" ">
<path fill="none" stroke="#63b8ff" d="M308.53,-219.07C306.62,-220.31 304.77,-221.62 303,-223 279.71,-241.25 292.97,-264.82 267,-279 218.65,-305.4 154.35,-299.83 109.39,-290.69"/>
<polygon fill="#63b8ff" stroke="#63b8ff" points="310.31,-222.09 317.29,-214.12 306.86,-216 310.31,-222.09"/>
</a>
</g>
</g>
<!-- Node6 -->
<g id="Node000006" class="node">
<title>Node6</title>
<g id="a_Node000006"><a xlink:href="../../d0/d22/classPlaybackController.html#acb360376f5afae30d7b16cd47df34f0c" target="_top" xlink:title="Load and seek to saved resume position.">
<polygon fill="white" stroke="#666666" points="267,-270 145,-270 145,-240 267,-240 267,-270"/>
<text text-anchor="start" x="153" y="-258" font-family="Helvetica,sans-Serif" font-size="10.00">PlaybackController</text>
<text text-anchor="middle" x="206" y="-247" font-family="Helvetica,sans-Serif" font-size="10.00">::loadResumePosition</text>
</a>
</g>
</g>
<!-- Node5&#45;&gt;Node6 -->
<g id="edge5_Node000005_Node000006" class="edge">
<title>Node5&#45;&gt;Node6</title>
<g id="a_edge5_Node000005_Node000006"><a xlink:title=" ">
<path fill="none" stroke="#63b8ff" d="M310.36,-169.93C307.79,-171.49 305.32,-173.18 303,-175 279.71,-193.25 289.82,-212.17 267,-231 262.93,-234.36 258.34,-237.29 253.54,-239.84"/>
<polygon fill="#63b8ff" stroke="#63b8ff" points="312.26,-172.88 319.43,-165.08 308.96,-166.71 312.26,-172.88"/>
</a>
</g>
</g>
<!-- Node7 -->
<g id="Node000007" class="node">
<title>Node7</title>
<g id="a_Node000007"><a xlink:href="../../d0/d22/classPlaybackController.html#a85b1abf15e44338edafa5d003559ca3f" target="_top" xlink:title="Seek backward by specified amount.">
<polygon fill="white" stroke="#666666" points="260.5,-174 151.5,-174 151.5,-144 260.5,-144 260.5,-174"/>
<text text-anchor="start" x="159.5" y="-162" font-family="Helvetica,sans-Serif" font-size="10.00">PlaybackController</text>
<text text-anchor="middle" x="206" y="-151" font-family="Helvetica,sans-Serif" font-size="10.00">::seekBackward</text>
</a>
</g>
</g>
<!-- Node5&#45;&gt;Node7 -->
<g id="edge7_Node000005_Node000007" class="edge">
<title>Node5&#45;&gt;Node7</title>
<g id="a_edge7_Node000005_Node000007"><a xlink:title=" ">
<path fill="none" stroke="#63b8ff" d="M308.81,-154.09C292.88,-154.86 275.98,-155.68 260.63,-156.42"/>
<polygon fill="#63b8ff" stroke="#63b8ff" points="309.28,-157.57 319.1,-153.6 308.95,-150.58 309.28,-157.57"/>
</a>
</g>
</g>
<!-- Node8 -->
<g id="Node000008" class="node">
<title>Node8</title>
<g id="a_Node000008"><a xlink:href="../../d0/d22/classPlaybackController.html#a6084dd2e7f68b0ee353f093e2fd8340a" target="_top" xlink:title="Seek forward by specified amount.">
<polygon fill="white" stroke="#666666" points="260.5,-222 151.5,-222 151.5,-192 260.5,-192 260.5,-222"/>
<text text-anchor="start" x="159.5" y="-210" font-family="Helvetica,sans-Serif" font-size="10.00">PlaybackController</text>
<text text-anchor="middle" x="206" y="-199" font-family="Helvetica,sans-Serif" font-size="10.00">::seekForward</text>
</a>
</g>
</g>
<!-- Node5&#45;&gt;Node8 -->
<g id="edge8_Node000005_Node000008" class="edge">
<title>Node5&#45;&gt;Node8</title>
<g id="a_edge8_Node000005_Node000008"><a xlink:title=" ">
<path fill="none" stroke="#63b8ff" d="M318.76,-169.3C297.02,-176.63 272.28,-184.98 251.61,-191.95"/>
<polygon fill="#63b8ff" stroke="#63b8ff" points="320.16,-172.52 328.52,-166.01 317.92,-165.89 320.16,-172.52"/>
</a>
</g>
</g>
<!-- Node5&#45;&gt;Node9 -->
<g id="edge9_Node000005_Node000009" class="edge">
<title>Node5&#45;&gt;Node9</title>
<g id="a_edge9_Node000005_Node000009"><a xlink:title=" ">
<path fill="none" stroke="#63b8ff" d="M309.02,-135.58C293.42,-131.83 276.88,-127.84 261.76,-124.2"/>
<polygon fill="#63b8ff" stroke="#63b8ff" points="308.56,-139.07 319.1,-138.01 310.2,-132.27 308.56,-139.07"/>
</a>
</g>
</g>
<!-- Node5&#45;&gt;Node10 -->
<g id="edge10_Node000005_Node000010" class="edge">
<title>Node5&#45;&gt;Node10</title>
<g id="a_edge10_Node000005_Node000010"><a xlink:title=" ">
<path fill="none" stroke="#63b8ff" d="M342.04,-130.47C321.3,-117.18 293.1,-99.99 267,-87 260.77,-83.9 254.04,-80.89 247.42,-78.12"/>
<polygon fill="#63b8ff" stroke="#63b8ff" points="340.15,-133.42 350.45,-135.91 343.95,-127.54 340.15,-133.42"/>
</a>
</g>
</g>
<!-- Node5&#45;&gt;Node11 -->
<g id="edge11_Node000005_Node000011" class="edge">
<title>Node5&#45;&gt;Node11</title>
<g id="a_edge11_Node000005_Node000011"><a xlink:title=" ">
<path fill="none" stroke="#63b8ff" d="M356.05,-127.83C336.85,-102.98 303.45,-63.76 267,-39 262.08,-35.66 256.63,-32.67 251.07,-30.04"/>
<polygon fill="#63b8ff" stroke="#63b8ff" points="353.4,-130.13 362.23,-135.97 358.97,-125.89 353.4,-130.13"/>
</a>
</g>
</g>
<!-- Node6&#45;&gt;Node4 -->
<g id="edge6_Node000006_Node000004" class="edge">
<title>Node6&#45;&gt;Node4</title>
<g id="a_edge6_Node000006_Node000004"><a xlink:title=" ">
<path fill="none" stroke="#63b8ff" d="M134.69,-264.88C126.17,-266.07 117.58,-267.28 109.35,-268.44"/>
<polygon fill="#63b8ff" stroke="#63b8ff" points="135.21,-268.34 144.62,-263.48 134.23,-261.41 135.21,-268.34"/>
</a>
</g>
</g>
</g>
</svg>
