<?xml version="1.0" encoding="UTF-8" standalone="no"?>
<!DOCTYPE svg PUBLIC "-//W3C//DTD SVG 1.1//EN"
 "http://www.w3.org/Graphics/SVG/1.1/DTD/svg11.dtd">
<!-- Generated by graphviz version 2.43.0 (0)
 -->
<!-- Title: PlaybackController::seekToPercentage Pages: 1 -->
<svg width="409pt" height="95pt"
 viewBox="0.00 0.00 409.00 95.00" xmlns="http://www.w3.org/2000/svg" xmlns:xlink="http://www.w3.org/1999/xlink">

<svg id="main" version="1.1" xmlns="http://www.w3.org/2000/svg" xmlns:xlink="http://www.w3.org/1999/xlink" xml:space="preserve" onload="init(evt)">
<style type="text/css"><![CDATA[
.node, .edge {opacity: 0.7;}
.node.selected, .edge.selected {opacity: 1;}
.edge:hover path { stroke: red; }
.edge:hover polygon { stroke: red; fill: red; }
]]></style>
<script type="application/ecmascript" xlink:href="../../svg.min.js"/>
<svg id="graph" class="graph">
<g id="graph0" class="graph" transform="scale(1 1) rotate(0) translate(4 91)">
<title>PlaybackController::seekToPercentage</title>
<!-- Node1 -->
<g id="Node000001" class="node">
<title>Node1</title>
<g id="a_Node000001"><a xlink:title="Seek to percentage of total duration.">
<polygon fill="#999999" stroke="#666666" points="111,-54 0,-54 0,-24 111,-24 111,-54"/>
<text text-anchor="start" x="8" y="-42" font-family="Helvetica,sans-Serif" font-size="10.00">PlaybackController</text>
<text text-anchor="middle" x="55.5" y="-31" font-family="Helvetica,sans-Serif" font-size="10.00">::seekToPercentage</text>
</a>
</g>
</g>
<!-- Node2 -->
<g id="Node000002" class="node">
<title>Node2</title>
<g id="a_Node000002"><a xlink:href="../../d0/d22/classPlaybackController.html#ab04e1d486535808826072f0a2a31f6ed" target="_top" xlink:title="Get media duration.">
<polygon fill="white" stroke="#666666" points="401,-87 292,-87 292,-57 401,-57 401,-87"/>
<text text-anchor="start" x="300" y="-75" font-family="Helvetica,sans-Serif" font-size="10.00">PlaybackController</text>
<text text-anchor="middle" x="346.5" y="-64" font-family="Helvetica,sans-Serif" font-size="10.00">::duration</text>
</a>
</g>
</g>
<!-- Node1&#45;&gt;Node2 -->
<g id="edge1_Node000001_Node000002" class="edge">
<title>Node1&#45;&gt;Node2</title>
<g id="a_edge1_Node000001_Node000002"><a xlink:title=" ">
<path fill="none" stroke="#63b8ff" d="M105.41,-54.01C118.78,-57.55 133.34,-60.9 147,-63 191.6,-69.84 242.45,-72.04 281.52,-72.56"/>
<polygon fill="#63b8ff" stroke="#63b8ff" points="281.66,-76.06 291.7,-72.66 281.73,-69.06 281.66,-76.06"/>
</a>
</g>
</g>
<!-- Node3 -->
<g id="Node000003" class="node">
<title>Node3</title>
<g id="a_Node000003"><a xlink:href="../../d0/d22/classPlaybackController.html#aae1e4a03d5e4873bd67700ad0eecb827" target="_top" xlink:title="Get current playback position.">
<polygon fill="white" stroke="#666666" points="401,-30 292,-30 292,0 401,0 401,-30"/>
<text text-anchor="start" x="300" y="-18" font-family="Helvetica,sans-Serif" font-size="10.00">PlaybackController</text>
<text text-anchor="middle" x="346.5" y="-7" font-family="Helvetica,sans-Serif" font-size="10.00">::position</text>
</a>
</g>
</g>
<!-- Node1&#45;&gt;Node3 -->
<g id="edge2_Node000001_Node000003" class="edge">
<title>Node1&#45;&gt;Node3</title>
<g id="a_edge2_Node000001_Node000003"><a xlink:title=" ">
<path fill="none" stroke="#63b8ff" d="M103.94,-23.95C117.69,-20.26 132.82,-16.85 147,-15 191.7,-9.17 242.55,-9.3 281.59,-10.82"/>
<polygon fill="#63b8ff" stroke="#63b8ff" points="281.62,-14.32 291.76,-11.26 281.92,-7.33 281.62,-14.32"/>
</a>
</g>
</g>
<!-- Node4 -->
<g id="Node000004" class="node">
<title>Node4</title>
<g id="a_Node000004"><a xlink:href="../../d0/d22/classPlaybackController.html#a6ef737643d936bc69833b090f9ff4416" target="_top" xlink:title="Seek to specific position.">
<polygon fill="white" stroke="#666666" points="256,-54 147,-54 147,-24 256,-24 256,-54"/>
<text text-anchor="start" x="155" y="-42" font-family="Helvetica,sans-Serif" font-size="10.00">PlaybackController</text>
<text text-anchor="middle" x="201.5" y="-31" font-family="Helvetica,sans-Serif" font-size="10.00">::seek</text>
</a>
</g>
</g>
<!-- Node1&#45;&gt;Node4 -->
<g id="edge3_Node000001_Node000004" class="edge">
<title>Node1&#45;&gt;Node4</title>
<g id="a_edge3_Node000001_Node000004"><a xlink:title=" ">
<path fill="none" stroke="#63b8ff" d="M111.35,-39C119.6,-39 128.17,-39 136.59,-39"/>
<polygon fill="#63b8ff" stroke="#63b8ff" points="136.75,-42.5 146.75,-39 136.75,-35.5 136.75,-42.5"/>
</a>
</g>
</g>
<!-- Node4&#45;&gt;Node2 -->
<g id="edge4_Node000004_Node000002" class="edge">
<title>Node4&#45;&gt;Node2</title>
<g id="a_edge4_Node000004_Node000002"><a xlink:title=" ">
<path fill="none" stroke="#63b8ff" d="M256.15,-51.38C264.47,-53.3 273.13,-55.3 281.65,-57.26"/>
<polygon fill="#63b8ff" stroke="#63b8ff" points="281.01,-60.71 291.54,-59.55 282.59,-53.89 281.01,-60.71"/>
</a>
</g>
</g>
<!-- Node4&#45;&gt;Node3 -->
<g id="edge5_Node000004_Node000003" class="edge">
<title>Node4&#45;&gt;Node3</title>
<g id="a_edge5_Node000004_Node000003"><a xlink:title=" ">
<path fill="none" stroke="#63b8ff" d="M256.15,-30C264.47,-28.6 273.13,-27.15 281.65,-25.72"/>
<polygon fill="#63b8ff" stroke="#63b8ff" points="282.26,-29.16 291.54,-24.06 281.1,-22.26 282.26,-29.16"/>
</a>
</g>
</g>
</g>
</svg>
</svg>

<style type='text/css'>
<![CDATA[
[data-mouse-over-selected='false'] { opacity: 0.7; }
[data-mouse-over-selected='true']  { opacity: 1.0; }
]]>
</style>
<script type="application/ecmascript"><![CDATA[
document.addEventListener('DOMContentLoaded', (event) => {
  highlightEdges();
  highlightAdjacentNodes();
});
]]></script>
</svg>
