<?xml version="1.0" encoding="UTF-8" standalone="no"?>
<!DOCTYPE svg PUBLIC "-//W3C//DTD SVG 1.1//EN"
 "http://www.w3.org/Graphics/SVG/1.1/DTD/svg11.dtd">
<!-- Generated by graphviz version 2.43.0 (0)
 -->
<!-- Title: PlaybackController::generateSeekThumbnail Pages: 1 -->
<svg width="335pt" height="134pt"
 viewBox="0.00 0.00 335.00 134.00" xmlns="http://www.w3.org/2000/svg" xmlns:xlink="http://www.w3.org/1999/xlink">
<g id="graph0" class="graph" transform="scale(1 1) rotate(0) translate(4 130)">
<title>PlaybackController::generateSeekThumbnail</title>
<!-- Node1 -->
<g id="Node000001" class="node">
<title>Node1</title>
<g id="a_Node000001"><a xlink:title="Generate thumbnail for seek preview.">
<polygon fill="#999999" stroke="#666666" points="142,-78 0,-78 0,-48 142,-48 142,-78"/>
<text text-anchor="start" x="8" y="-66" font-family="Helvetica,sans-Serif" font-size="10.00">PlaybackController</text>
<text text-anchor="middle" x="71" y="-55" font-family="Helvetica,sans-Serif" font-size="10.00">::generateSeekThumbnail</text>
</a>
</g>
</g>
<!-- Node2 -->
<g id="Node000002" class="node">
<title>Node2</title>
<g id="a_Node000002"><a xlink:href="../../d0/d22/classPlaybackController.html#a1a864cc9746736841077caf5195ea483" target="_top" xlink:title="Check if media is currently loaded.">
<polygon fill="white" stroke="#666666" points="307,-126 198,-126 198,-96 307,-96 307,-126"/>
<text text-anchor="start" x="206" y="-114" font-family="Helvetica,sans-Serif" font-size="10.00">PlaybackController</text>
<text text-anchor="middle" x="252.5" y="-103" font-family="Helvetica,sans-Serif" font-size="10.00">::hasMedia</text>
</a>
</g>
</g>
<!-- Node1&#45;&gt;Node2 -->
<g id="edge1_Node000001_Node000002" class="edge">
<title>Node1&#45;&gt;Node2</title>
<g id="a_edge1_Node000001_Node000002"><a xlink:title=" ">
<path fill="none" stroke="#63b8ff" d="M128.3,-78.06C147.3,-83.14 168.63,-88.84 188.14,-94.06"/>
<polygon fill="#63b8ff" stroke="#63b8ff" points="187.28,-97.45 197.85,-96.65 189.09,-90.69 187.28,-97.45"/>
</a>
</g>
</g>
<!-- Node3 -->
<g id="Node000003" class="node">
<title>Node3</title>
<g id="a_Node000003"><a xlink:href="../../d0/d22/classPlaybackController.html#aae1e4a03d5e4873bd67700ad0eecb827" target="_top" xlink:title="Get current playback position.">
<polygon fill="white" stroke="#666666" points="307,-78 198,-78 198,-48 307,-48 307,-78"/>
<text text-anchor="start" x="206" y="-66" font-family="Helvetica,sans-Serif" font-size="10.00">PlaybackController</text>
<text text-anchor="middle" x="252.5" y="-55" font-family="Helvetica,sans-Serif" font-size="10.00">::position</text>
</a>
</g>
</g>
<!-- Node1&#45;&gt;Node3 -->
<g id="edge2_Node000001_Node000003" class="edge">
<title>Node1&#45;&gt;Node3</title>
<g id="a_edge2_Node000001_Node000003"><a xlink:title=" ">
<path fill="none" stroke="#63b8ff" d="M142.17,-63C157.19,-63 172.98,-63 187.74,-63"/>
<polygon fill="#63b8ff" stroke="#63b8ff" points="187.78,-66.5 197.78,-63 187.78,-59.5 187.78,-66.5"/>
</a>
</g>
</g>
<!-- Node4 -->
<g id="Node000004" class="node">
<title>Node4</title>
<g id="a_Node000004"><a xlink:href="../../d0/d22/classPlaybackController.html#ae88ce15c3c3daccf70caaaecf957b866" target="_top" xlink:title="Emitted when a seek thumbnail is generated.">
<polygon fill="white" stroke="#666666" points="327,-30 178,-30 178,0 327,0 327,-30"/>
<text text-anchor="start" x="186" y="-18" font-family="Helvetica,sans-Serif" font-size="10.00">PlaybackController</text>
<text text-anchor="middle" x="252.5" y="-7" font-family="Helvetica,sans-Serif" font-size="10.00">::seekThumbnailGenerated</text>
</a>
</g>
</g>
<!-- Node1&#45;&gt;Node4 -->
<g id="edge3_Node000001_Node000004" class="edge">
<title>Node1&#45;&gt;Node4</title>
<g id="a_edge3_Node000001_Node000004"><a xlink:title=" ">
<path fill="none" stroke="#63b8ff" d="M128.3,-47.94C146.51,-43.07 166.87,-37.63 185.71,-32.59"/>
<polygon fill="#63b8ff" stroke="#63b8ff" points="186.64,-35.97 195.4,-30 184.83,-29.2 186.64,-35.97"/>
</a>
</g>
</g>
</g>
</svg>
