<?xml version="1.0" encoding="UTF-8" standalone="no"?>
<!DOCTYPE svg PUBLIC "-//W3C//DTD SVG 1.1//EN"
 "http://www.w3.org/Graphics/SVG/1.1/DTD/svg11.dtd">
<!-- Generated by graphviz version 2.43.0 (0)
 -->
<!-- Title: PlaybackController::stepForward Pages: 1 -->
<svg width="407pt" height="220pt"
 viewBox="0.00 0.00 407.00 220.00" xmlns="http://www.w3.org/2000/svg" xmlns:xlink="http://www.w3.org/1999/xlink">

<svg id="main" version="1.1" xmlns="http://www.w3.org/2000/svg" xmlns:xlink="http://www.w3.org/1999/xlink" xml:space="preserve" onload="init(evt)">
<style type="text/css"><![CDATA[
.node, .edge {opacity: 0.7;}
.node.selected, .edge.selected {opacity: 1;}
.edge:hover path { stroke: red; }
.edge:hover polygon { stroke: red; fill: red; }
]]></style>
<script type="application/ecmascript" xlink:href="../../svg.min.js"/>
<svg id="graph" class="graph">
<g id="graph0" class="graph" transform="scale(1 1) rotate(0) translate(4 216)">
<title>PlaybackController::stepForward</title>
<!-- Node1 -->
<g id="Node000001" class="node">
<title>Node1</title>
<g id="a_Node000001"><a xlink:title="Step forward one frame (video only)">
<polygon fill="#999999" stroke="#666666" points="109,-121 0,-121 0,-91 109,-91 109,-121"/>
<text text-anchor="start" x="8" y="-109" font-family="Helvetica,sans-Serif" font-size="10.00">PlaybackController</text>
<text text-anchor="middle" x="54.5" y="-98" font-family="Helvetica,sans-Serif" font-size="10.00">::stepForward</text>
</a>
</g>
</g>
<!-- Node2 -->
<g id="Node000002" class="node">
<title>Node2</title>
<g id="a_Node000002"><a xlink:href="../../d0/d22/classPlaybackController.html#a1a864cc9746736841077caf5195ea483" target="_top" xlink:title="Check if media is currently loaded.">
<polygon fill="white" stroke="#666666" points="254,-212 145,-212 145,-182 254,-182 254,-212"/>
<text text-anchor="start" x="153" y="-200" font-family="Helvetica,sans-Serif" font-size="10.00">PlaybackController</text>
<text text-anchor="middle" x="199.5" y="-189" font-family="Helvetica,sans-Serif" font-size="10.00">::hasMedia</text>
</a>
</g>
</g>
<!-- Node1&#45;&gt;Node2 -->
<g id="edge1_Node000001_Node000002" class="edge">
<title>Node1&#45;&gt;Node2</title>
<g id="a_edge1_Node000001_Node000002"><a xlink:title=" ">
<path fill="none" stroke="#63b8ff" d="M73.19,-121.1C90.67,-135.57 118.57,-157.44 145,-173 147.51,-174.48 150.12,-175.92 152.79,-177.33"/>
<polygon fill="#63b8ff" stroke="#63b8ff" points="151.47,-180.58 161.98,-181.92 154.6,-174.32 151.47,-180.58"/>
</a>
</g>
</g>
<!-- Node3 -->
<g id="Node000003" class="node">
<title>Node3</title>
<g id="a_Node000003"><a xlink:href="../../d0/d22/classPlaybackController.html#a1cbd834c290e563d4860a58436f70687" target="_top" xlink:title="Pause playback.">
<polygon fill="white" stroke="#666666" points="254,-164 145,-164 145,-134 254,-134 254,-164"/>
<text text-anchor="start" x="153" y="-152" font-family="Helvetica,sans-Serif" font-size="10.00">PlaybackController</text>
<text text-anchor="middle" x="199.5" y="-141" font-family="Helvetica,sans-Serif" font-size="10.00">::pause</text>
</a>
</g>
</g>
<!-- Node1&#45;&gt;Node3 -->
<g id="edge2_Node000001_Node000003" class="edge">
<title>Node1&#45;&gt;Node3</title>
<g id="a_edge2_Node000001_Node000003"><a xlink:title=" ">
<path fill="none" stroke="#63b8ff" d="M105.51,-121.04C116.23,-124.26 127.65,-127.7 138.69,-131.02"/>
<polygon fill="#63b8ff" stroke="#63b8ff" points="137.69,-134.37 148.27,-133.9 139.7,-127.67 137.69,-134.37"/>
</a>
</g>
</g>
<!-- Node4 -->
<g id="Node000004" class="node">
<title>Node4</title>
<g id="a_Node000004"><a xlink:href="../../d0/d22/classPlaybackController.html#aae1e4a03d5e4873bd67700ad0eecb827" target="_top" xlink:title="Get current playback position.">
<polygon fill="white" stroke="#666666" points="399,-121 290,-121 290,-91 399,-91 399,-121"/>
<text text-anchor="start" x="298" y="-109" font-family="Helvetica,sans-Serif" font-size="10.00">PlaybackController</text>
<text text-anchor="middle" x="344.5" y="-98" font-family="Helvetica,sans-Serif" font-size="10.00">::position</text>
</a>
</g>
</g>
<!-- Node1&#45;&gt;Node4 -->
<g id="edge3_Node000001_Node000004" class="edge">
<title>Node1&#45;&gt;Node4</title>
<g id="a_edge3_Node000001_Node000004"><a xlink:title=" ">
<path fill="none" stroke="#63b8ff" d="M109.33,-106C157.62,-106 228.53,-106 279.66,-106"/>
<polygon fill="#63b8ff" stroke="#63b8ff" points="279.93,-109.5 289.93,-106 279.93,-102.5 279.93,-109.5"/>
</a>
</g>
</g>
<!-- Node5 -->
<g id="Node000005" class="node">
<title>Node5</title>
<g id="a_Node000005"><a xlink:href="../../d0/d22/classPlaybackController.html#a6ef737643d936bc69833b090f9ff4416" target="_top" xlink:title="Seek to specific position.">
<polygon fill="white" stroke="#666666" points="254,-78 145,-78 145,-48 254,-48 254,-78"/>
<text text-anchor="start" x="153" y="-66" font-family="Helvetica,sans-Serif" font-size="10.00">PlaybackController</text>
<text text-anchor="middle" x="199.5" y="-55" font-family="Helvetica,sans-Serif" font-size="10.00">::seek</text>
</a>
</g>
</g>
<!-- Node1&#45;&gt;Node5 -->
<g id="edge4_Node000001_Node000005" class="edge">
<title>Node1&#45;&gt;Node5</title>
<g id="a_edge4_Node000001_Node000005"><a xlink:title=" ">
<path fill="none" stroke="#63b8ff" d="M105.51,-90.96C116.23,-87.74 127.65,-84.3 138.69,-80.98"/>
<polygon fill="#63b8ff" stroke="#63b8ff" points="139.7,-84.33 148.27,-78.1 137.69,-77.63 139.7,-84.33"/>
</a>
</g>
</g>
<!-- Node7 -->
<g id="Node000007" class="node">
<title>Node7</title>
<g id="a_Node000007"><a xlink:href="../../d0/d22/classPlaybackController.html#ac3a12ae040b1e8370e0d611943f9adbe" target="_top" xlink:title="Get current playback state.">
<polygon fill="white" stroke="#666666" points="254,-30 145,-30 145,0 254,0 254,-30"/>
<text text-anchor="start" x="153" y="-18" font-family="Helvetica,sans-Serif" font-size="10.00">PlaybackController</text>
<text text-anchor="middle" x="199.5" y="-7" font-family="Helvetica,sans-Serif" font-size="10.00">::state</text>
</a>
</g>
</g>
<!-- Node1&#45;&gt;Node7 -->
<g id="edge7_Node000001_Node000007" class="edge">
<title>Node1&#45;&gt;Node7</title>
<g id="a_edge7_Node000001_Node000007"><a xlink:title=" ">
<path fill="none" stroke="#63b8ff" d="M73.19,-90.9C90.67,-76.43 118.57,-54.56 145,-39 147.51,-37.52 150.12,-36.08 152.79,-34.67"/>
<polygon fill="#63b8ff" stroke="#63b8ff" points="154.6,-37.68 161.98,-30.08 151.47,-31.42 154.6,-37.68"/>
</a>
</g>
</g>
<!-- Node5&#45;&gt;Node4 -->
<g id="edge6_Node000005_Node000004" class="edge">
<title>Node5&#45;&gt;Node4</title>
<g id="a_edge6_Node000005_Node000004"><a xlink:title=" ">
<path fill="none" stroke="#63b8ff" d="M250.51,-78.04C261.23,-81.26 272.65,-84.7 283.69,-88.02"/>
<polygon fill="#63b8ff" stroke="#63b8ff" points="282.69,-91.37 293.27,-90.9 284.7,-84.67 282.69,-91.37"/>
</a>
</g>
</g>
<!-- Node6 -->
<g id="Node000006" class="node">
<title>Node6</title>
<g id="a_Node000006"><a xlink:href="../../d0/d22/classPlaybackController.html#ab04e1d486535808826072f0a2a31f6ed" target="_top" xlink:title="Get media duration.">
<polygon fill="white" stroke="#666666" points="399,-73 290,-73 290,-43 399,-43 399,-73"/>
<text text-anchor="start" x="298" y="-61" font-family="Helvetica,sans-Serif" font-size="10.00">PlaybackController</text>
<text text-anchor="middle" x="344.5" y="-50" font-family="Helvetica,sans-Serif" font-size="10.00">::duration</text>
</a>
</g>
</g>
<!-- Node5&#45;&gt;Node6 -->
<g id="edge5_Node000005_Node000006" class="edge">
<title>Node5&#45;&gt;Node6</title>
<g id="a_edge5_Node000005_Node000006"><a xlink:title=" ">
<path fill="none" stroke="#63b8ff" d="M254.15,-61.12C262.38,-60.84 270.94,-60.54 279.37,-60.24"/>
<polygon fill="#63b8ff" stroke="#63b8ff" points="279.67,-63.73 289.54,-59.89 279.43,-56.74 279.67,-63.73"/>
</a>
</g>
</g>
</g>
</svg>
</svg>

<style type='text/css'>
<![CDATA[
[data-mouse-over-selected='false'] { opacity: 0.7; }
[data-mouse-over-selected='true']  { opacity: 1.0; }
]]>
</style>
<script type="application/ecmascript"><![CDATA[
document.addEventListener('DOMContentLoaded', (event) => {
  highlightEdges();
  highlightAdjacentNodes();
});
]]></script>
</svg>
