<?xml version="1.0" encoding="UTF-8" standalone="no"?>
<!DOCTYPE svg PUBLIC "-//W3C//DTD SVG 1.1//EN"
 "http://www.w3.org/Graphics/SVG/1.1/DTD/svg11.dtd">
<!-- Generated by graphviz version 2.43.0 (0)
 -->
<!-- Title: PlaybackController::setCrossfadeEnabled Pages: 1 -->
<svg width="282pt" height="86pt"
 viewBox="0.00 0.00 282.00 86.00" xmlns="http://www.w3.org/2000/svg" xmlns:xlink="http://www.w3.org/1999/xlink">
<g id="graph0" class="graph" transform="scale(1 1) rotate(0) translate(4 82)">
<title>PlaybackController::setCrossfadeEnabled</title>
<!-- Node1 -->
<g id="Node000001" class="node">
<title>Node1</title>
<g id="a_Node000001"><a xlink:title="Enable or disable crossfade between tracks.">
<polygon fill="#999999" stroke="#666666" points="125,-54 0,-54 0,-24 125,-24 125,-54"/>
<text text-anchor="start" x="8" y="-42" font-family="Helvetica,sans-Serif" font-size="10.00">PlaybackController</text>
<text text-anchor="middle" x="62.5" y="-31" font-family="Helvetica,sans-Serif" font-size="10.00">::setCrossfadeEnabled</text>
</a>
</g>
</g>
<!-- Node2 -->
<g id="Node000002" class="node">
<title>Node2</title>
<g id="a_Node000002"><a xlink:href="../../d0/d22/classPlaybackController.html#a8d82320d9084378433bd16dc33267ca4" target="_top" xlink:title="Emitted when crossfade settings change.">
<polygon fill="white" stroke="#666666" points="274,-78 161,-78 161,-48 274,-48 274,-78"/>
<text text-anchor="start" x="169" y="-66" font-family="Helvetica,sans-Serif" font-size="10.00">PlaybackController</text>
<text text-anchor="middle" x="217.5" y="-55" font-family="Helvetica,sans-Serif" font-size="10.00">::crossfadeChanged</text>
</a>
</g>
</g>
<!-- Node1&#45;&gt;Node2 -->
<g id="edge1_Node000001_Node000002" class="edge">
<title>Node1&#45;&gt;Node2</title>
<g id="a_edge1_Node000001_Node000002"><a xlink:title=" ">
<path fill="none" stroke="#63b8ff" d="M125.29,-48.69C133.75,-50.02 142.47,-51.39 151,-52.73"/>
<polygon fill="#63b8ff" stroke="#63b8ff" points="150.48,-56.19 160.9,-54.28 151.56,-49.27 150.48,-56.19"/>
</a>
</g>
</g>
<!-- Node3 -->
<g id="Node000003" class="node">
<title>Node3</title>
<g id="a_Node000003"><a xlink:href="../../d0/d22/classPlaybackController.html#ab04e1d486535808826072f0a2a31f6ed" target="_top" xlink:title="Get media duration.">
<polygon fill="white" stroke="#666666" points="272,-30 163,-30 163,0 272,0 272,-30"/>
<text text-anchor="start" x="171" y="-18" font-family="Helvetica,sans-Serif" font-size="10.00">PlaybackController</text>
<text text-anchor="middle" x="217.5" y="-7" font-family="Helvetica,sans-Serif" font-size="10.00">::duration</text>
</a>
</g>
</g>
<!-- Node1&#45;&gt;Node3 -->
<g id="edge2_Node000001_Node000003" class="edge">
<title>Node1&#45;&gt;Node3</title>
<g id="a_edge2_Node000001_Node000003"><a xlink:title=" ">
<path fill="none" stroke="#63b8ff" d="M125.29,-29.31C134.33,-27.89 143.65,-26.43 152.73,-25"/>
<polygon fill="#63b8ff" stroke="#63b8ff" points="153.51,-28.42 162.85,-23.42 152.42,-21.51 153.51,-28.42"/>
</a>
</g>
</g>
</g>
</svg>
