<?xml version="1.0" encoding="UTF-8" standalone="no"?>
<!DOCTYPE svg PUBLIC "-//W3C//DTD SVG 1.1//EN"
 "http://www.w3.org/Graphics/SVG/1.1/DTD/svg11.dtd">
<!-- Generated by graphviz version 2.43.0 (0)
 -->
<!-- Title: PlaybackController::loadMedia Pages: 1 -->
<svg width="568pt" height="265pt"
 viewBox="0.00 0.00 568.00 265.00" xmlns="http://www.w3.org/2000/svg" xmlns:xlink="http://www.w3.org/1999/xlink">
<g id="graph0" class="graph" transform="scale(1 1) rotate(0) translate(4 261)">
<title>PlaybackController::loadMedia</title>
<!-- Node1 -->
<g id="Node000001" class="node">
<title>Node1</title>
<g id="a_Node000001"><a xlink:title="Load media file or URL.">
<polygon fill="#999999" stroke="#666666" points="109,-166 0,-166 0,-136 109,-136 109,-166"/>
<text text-anchor="start" x="8" y="-154" font-family="Helvetica,sans-Serif" font-size="10.00">PlaybackController</text>
<text text-anchor="middle" x="54.5" y="-143" font-family="Helvetica,sans-Serif" font-size="10.00">::loadMedia</text>
</a>
</g>
</g>
<!-- Node2 -->
<g id="Node000002" class="node">
<title>Node2</title>
<g id="a_Node000002"><a xlink:href="../../d0/d22/classPlaybackController.html#a1a864cc9746736841077caf5195ea483" target="_top" xlink:title="Check if media is currently loaded.">
<polygon fill="white" stroke="#666666" points="415,-257 306,-257 306,-227 415,-227 415,-257"/>
<text text-anchor="start" x="314" y="-245" font-family="Helvetica,sans-Serif" font-size="10.00">PlaybackController</text>
<text text-anchor="middle" x="360.5" y="-234" font-family="Helvetica,sans-Serif" font-size="10.00">::hasMedia</text>
</a>
</g>
</g>
<!-- Node1&#45;&gt;Node2 -->
<g id="edge1_Node000001_Node000002" class="edge">
<title>Node1&#45;&gt;Node2</title>
<g id="a_edge1_Node000001_Node000002"><a xlink:title=" ">
<path fill="none" stroke="#63b8ff" d="M68.94,-166.24C85.09,-183.39 113.92,-210.48 145,-223 193,-242.33 251.79,-246.31 295.68,-245.89"/>
<polygon fill="#63b8ff" stroke="#63b8ff" points="296,-249.39 305.94,-245.71 295.88,-242.39 296,-249.39"/>
</a>
</g>
</g>
<!-- Node3 -->
<g id="Node000003" class="node">
<title>Node3</title>
<g id="a_Node000003"><a xlink:href="../../d0/d22/classPlaybackController.html#acb360376f5afae30d7b16cd47df34f0c" target="_top" xlink:title="Load and seek to saved resume position.">
<polygon fill="white" stroke="#666666" points="268.5,-166 146.5,-166 146.5,-136 268.5,-136 268.5,-166"/>
<text text-anchor="start" x="154.5" y="-154" font-family="Helvetica,sans-Serif" font-size="10.00">PlaybackController</text>
<text text-anchor="middle" x="207.5" y="-143" font-family="Helvetica,sans-Serif" font-size="10.00">::loadResumePosition</text>
</a>
</g>
</g>
<!-- Node1&#45;&gt;Node3 -->
<g id="edge2_Node000001_Node000003" class="edge">
<title>Node1&#45;&gt;Node3</title>
<g id="a_edge2_Node000001_Node000003"><a xlink:title=" ">
<path fill="none" stroke="#63b8ff" d="M109.16,-151C117.91,-151 127.08,-151 136.16,-151"/>
<polygon fill="#63b8ff" stroke="#63b8ff" points="136.33,-154.5 146.33,-151 136.33,-147.5 136.33,-154.5"/>
</a>
</g>
</g>
<!-- Node7 -->
<g id="Node000007" class="node">
<title>Node7</title>
<g id="a_Node000007"><a xlink:href="../../d0/d22/classPlaybackController.html#afbf281f2142eb16aa5b3e73d3c387120" target="_top" xlink:title="Emitted when media loading completes.">
<polygon fill="white" stroke="#666666" points="262,-118 153,-118 153,-88 262,-88 262,-118"/>
<text text-anchor="start" x="161" y="-106" font-family="Helvetica,sans-Serif" font-size="10.00">PlaybackController</text>
<text text-anchor="middle" x="207.5" y="-95" font-family="Helvetica,sans-Serif" font-size="10.00">::mediaLoaded</text>
</a>
</g>
</g>
<!-- Node1&#45;&gt;Node7 -->
<g id="edge6_Node000001_Node000007" class="edge">
<title>Node1&#45;&gt;Node7</title>
<g id="a_edge6_Node000001_Node000007"><a xlink:title=" ">
<path fill="none" stroke="#63b8ff" d="M102.86,-135.94C117.62,-131.25 134.05,-126.03 149.4,-121.15"/>
<polygon fill="#63b8ff" stroke="#63b8ff" points="150.84,-124.37 159.31,-118 148.71,-117.7 150.84,-124.37"/>
</a>
</g>
</g>
<!-- Node8 -->
<g id="Node000008" class="node">
<title>Node8</title>
<g id="a_Node000008"><a xlink:href="../../d0/d22/classPlaybackController.html#a8cb2e6930e89b963867d2b6eca398020" target="_top" xlink:title="Save current playback position for resume.">
<polygon fill="white" stroke="#666666" points="270,-214 145,-214 145,-184 270,-184 270,-214"/>
<text text-anchor="start" x="153" y="-202" font-family="Helvetica,sans-Serif" font-size="10.00">PlaybackController</text>
<text text-anchor="middle" x="207.5" y="-191" font-family="Helvetica,sans-Serif" font-size="10.00">::saveResumePosition</text>
</a>
</g>
</g>
<!-- Node1&#45;&gt;Node8 -->
<g id="edge7_Node000001_Node000008" class="edge">
<title>Node1&#45;&gt;Node8</title>
<g id="a_edge7_Node000001_Node000008"><a xlink:title=" ">
<path fill="none" stroke="#63b8ff" d="M102.86,-166.06C117.62,-170.75 134.05,-175.97 149.4,-180.85"/>
<polygon fill="#63b8ff" stroke="#63b8ff" points="148.71,-184.3 159.31,-184 150.84,-177.63 148.71,-184.3"/>
</a>
</g>
</g>
<!-- Node9 -->
<g id="Node000009" class="node">
<title>Node9</title>
<g id="a_Node000009"><a xlink:href="../../d0/d22/classPlaybackController.html#a1942021a93ef2bb5b1f800c4876b7cc4" target="_top" xlink:title="Stop fast forward/rewind and return to normal playback.">
<polygon fill="white" stroke="#666666" points="262,-70 153,-70 153,-40 262,-40 262,-70"/>
<text text-anchor="start" x="161" y="-58" font-family="Helvetica,sans-Serif" font-size="10.00">PlaybackController</text>
<text text-anchor="middle" x="207.5" y="-47" font-family="Helvetica,sans-Serif" font-size="10.00">::stopFastSeek</text>
</a>
</g>
</g>
<!-- Node1&#45;&gt;Node9 -->
<g id="edge11_Node000001_Node000009" class="edge">
<title>Node1&#45;&gt;Node9</title>
<g id="a_edge11_Node000001_Node000009"><a xlink:title=" ">
<path fill="none" stroke="#63b8ff" d="M71.22,-135.85C88.28,-120.02 116.87,-95.29 145,-79 147.83,-77.36 150.79,-75.79 153.81,-74.3"/>
<polygon fill="#63b8ff" stroke="#63b8ff" points="155.43,-77.4 163.04,-70.03 152.49,-71.05 155.43,-77.4"/>
</a>
</g>
</g>
<!-- Node4 -->
<g id="Node000004" class="node">
<title>Node4</title>
<g id="a_Node000004"><a xlink:href="../../d0/d22/classPlaybackController.html#a6ef737643d936bc69833b090f9ff4416" target="_top" xlink:title="Seek to specific position.">
<polygon fill="white" stroke="#666666" points="415,-133 306,-133 306,-103 415,-103 415,-133"/>
<text text-anchor="start" x="314" y="-121" font-family="Helvetica,sans-Serif" font-size="10.00">PlaybackController</text>
<text text-anchor="middle" x="360.5" y="-110" font-family="Helvetica,sans-Serif" font-size="10.00">::seek</text>
</a>
</g>
</g>
<!-- Node3&#45;&gt;Node4 -->
<g id="edge3_Node000003_Node000004" class="edge">
<title>Node3&#45;&gt;Node4</title>
<g id="a_edge3_Node000003_Node000004"><a xlink:title=" ">
<path fill="none" stroke="#63b8ff" d="M268.61,-137.86C277.67,-135.88 287.04,-133.84 296.17,-131.84"/>
<polygon fill="#63b8ff" stroke="#63b8ff" points="296.92,-135.26 305.95,-129.7 295.43,-128.42 296.92,-135.26"/>
</a>
</g>
</g>
<!-- Node5 -->
<g id="Node000005" class="node">
<title>Node5</title>
<g id="a_Node000005"><a xlink:href="../../d0/d22/classPlaybackController.html#ab04e1d486535808826072f0a2a31f6ed" target="_top" xlink:title="Get media duration.">
<polygon fill="white" stroke="#666666" points="560,-205 451,-205 451,-175 560,-175 560,-205"/>
<text text-anchor="start" x="459" y="-193" font-family="Helvetica,sans-Serif" font-size="10.00">PlaybackController</text>
<text text-anchor="middle" x="505.5" y="-182" font-family="Helvetica,sans-Serif" font-size="10.00">::duration</text>
</a>
</g>
</g>
<!-- Node4&#45;&gt;Node5 -->
<g id="edge4_Node000004_Node000005" class="edge">
<title>Node4&#45;&gt;Node5</title>
<g id="a_edge4_Node000004_Node000005"><a xlink:title=" ">
<path fill="none" stroke="#63b8ff" d="M391.48,-133.09C413.02,-143.94 442.27,-158.67 465.61,-170.42"/>
<polygon fill="#63b8ff" stroke="#63b8ff" points="464.06,-173.56 474.56,-174.93 467.2,-167.3 464.06,-173.56"/>
</a>
</g>
</g>
<!-- Node6 -->
<g id="Node000006" class="node">
<title>Node6</title>
<g id="a_Node000006"><a xlink:href="../../d0/d22/classPlaybackController.html#aae1e4a03d5e4873bd67700ad0eecb827" target="_top" xlink:title="Get current playback position.">
<polygon fill="white" stroke="#666666" points="560,-141 451,-141 451,-111 560,-111 560,-141"/>
<text text-anchor="start" x="459" y="-129" font-family="Helvetica,sans-Serif" font-size="10.00">PlaybackController</text>
<text text-anchor="middle" x="505.5" y="-118" font-family="Helvetica,sans-Serif" font-size="10.00">::position</text>
</a>
</g>
</g>
<!-- Node4&#45;&gt;Node6 -->
<g id="edge5_Node000004_Node000006" class="edge">
<title>Node4&#45;&gt;Node6</title>
<g id="a_edge5_Node000004_Node000006"><a xlink:title=" ">
<path fill="none" stroke="#63b8ff" d="M415.15,-121C423.38,-121.46 431.94,-121.94 440.37,-122.41"/>
<polygon fill="#63b8ff" stroke="#63b8ff" points="440.36,-125.92 450.54,-122.98 440.76,-118.93 440.36,-125.92"/>
</a>
</g>
</g>
<!-- Node8&#45;&gt;Node2 -->
<g id="edge9_Node000008_Node000002" class="edge">
<title>Node8&#45;&gt;Node2</title>
<g id="a_edge9_Node000008_Node000002"><a xlink:title=" ">
<path fill="none" stroke="#63b8ff" d="M261.31,-214.04C272.81,-217.31 285.08,-220.81 296.91,-224.18"/>
<polygon fill="#63b8ff" stroke="#63b8ff" points="296.14,-227.6 306.72,-226.97 298.06,-220.86 296.14,-227.6"/>
</a>
</g>
</g>
<!-- Node8&#45;&gt;Node5 -->
<g id="edge8_Node000008_Node000005" class="edge">
<title>Node8&#45;&gt;Node5</title>
<g id="a_edge8_Node000008_Node000005"><a xlink:title=" ">
<path fill="none" stroke="#63b8ff" d="M270.19,-197.12C320.12,-195.61 390.2,-193.48 440.69,-191.94"/>
<polygon fill="#63b8ff" stroke="#63b8ff" points="440.94,-195.43 450.83,-191.63 440.73,-188.44 440.94,-195.43"/>
</a>
</g>
</g>
<!-- Node8&#45;&gt;Node6 -->
<g id="edge10_Node000008_Node000006" class="edge">
<title>Node8&#45;&gt;Node6</title>
<g id="a_edge10_Node000008_Node000006"><a xlink:title=" ">
<path fill="none" stroke="#63b8ff" d="M269.47,-183.96C319.45,-171.64 389.96,-154.25 440.7,-141.74"/>
<polygon fill="#63b8ff" stroke="#63b8ff" points="441.7,-145.09 450.57,-139.3 440.02,-138.3 441.7,-145.09"/>
</a>
</g>
</g>
<!-- Node10 -->
<g id="Node000010" class="node">
<title>Node10</title>
<g id="a_Node000010"><a xlink:href="../../d0/d22/classPlaybackController.html#a65f120c8c3e1d7ccd6067631d6d4409e" target="_top" xlink:title="Emitted when fast seek state changes.">
<polygon fill="white" stroke="#666666" points="415,-78 306,-78 306,-48 415,-48 415,-78"/>
<text text-anchor="start" x="314" y="-66" font-family="Helvetica,sans-Serif" font-size="10.00">PlaybackController</text>
<text text-anchor="middle" x="360.5" y="-55" font-family="Helvetica,sans-Serif" font-size="10.00">::fastSeekChanged</text>
</a>
</g>
</g>
<!-- Node9&#45;&gt;Node10 -->
<g id="edge12_Node000009_Node000010" class="edge">
<title>Node9&#45;&gt;Node10</title>
<g id="a_edge12_Node000009_Node000010"><a xlink:title=" ">
<path fill="none" stroke="#63b8ff" d="M262.16,-57.84C273,-58.42 284.5,-59.03 295.64,-59.62"/>
<polygon fill="#63b8ff" stroke="#63b8ff" points="295.59,-63.12 305.76,-60.15 295.96,-56.13 295.59,-63.12"/>
</a>
</g>
</g>
<!-- Node11 -->
<g id="Node000011" class="node">
<title>Node11</title>
<g id="a_Node000011"><a xlink:href="../../d0/d22/classPlaybackController.html#aa73d55c20b71a8c6c18c3ac914154636" target="_top" xlink:title="Start or resume playback.">
<polygon fill="white" stroke="#666666" points="415,-30 306,-30 306,0 415,0 415,-30"/>
<text text-anchor="start" x="314" y="-18" font-family="Helvetica,sans-Serif" font-size="10.00">PlaybackController</text>
<text text-anchor="middle" x="360.5" y="-7" font-family="Helvetica,sans-Serif" font-size="10.00">::play</text>
</a>
</g>
</g>
<!-- Node9&#45;&gt;Node11 -->
<g id="edge13_Node000009_Node000011" class="edge">
<title>Node9&#45;&gt;Node11</title>
<g id="a_edge13_Node000009_Node000011"><a xlink:title=" ">
<path fill="none" stroke="#63b8ff" d="M262.16,-40.78C273.11,-37.88 284.73,-34.81 295.99,-31.82"/>
<polygon fill="#63b8ff" stroke="#63b8ff" points="296.99,-35.18 305.76,-29.24 295.19,-28.41 296.99,-35.18"/>
</a>
</g>
</g>
<!-- Node12 -->
<g id="Node000012" class="node">
<title>Node12</title>
<g id="a_Node000012"><a xlink:href="../../d0/d22/classPlaybackController.html#aeb617eb0c421fcbb5d449a1b99b24a93" target="_top" xlink:title="Emitted when an error occurs.">
<polygon fill="white" stroke="#666666" points="560,-30 451,-30 451,0 560,0 560,-30"/>
<text text-anchor="start" x="459" y="-18" font-family="Helvetica,sans-Serif" font-size="10.00">PlaybackController</text>
<text text-anchor="middle" x="505.5" y="-7" font-family="Helvetica,sans-Serif" font-size="10.00">::errorOccurred</text>
</a>
</g>
</g>
<!-- Node11&#45;&gt;Node12 -->
<g id="edge14_Node000011_Node000012" class="edge">
<title>Node11&#45;&gt;Node12</title>
<g id="a_edge14_Node000011_Node000012"><a xlink:title=" ">
<path fill="none" stroke="#63b8ff" d="M415.15,-15C423.38,-15 431.94,-15 440.37,-15"/>
<polygon fill="#63b8ff" stroke="#63b8ff" points="440.54,-18.5 450.54,-15 440.54,-11.5 440.54,-18.5"/>
</a>
</g>
</g>
</g>
</svg>
