<?xml version="1.0" encoding="UTF-8" standalone="no"?>
<!DOCTYPE svg PUBLIC "-//W3C//DTD SVG 1.1//EN"
 "http://www.w3.org/Graphics/SVG/1.1/DTD/svg11.dtd">
<!-- Generated by graphviz version 2.43.0 (0)
 -->
<!-- Title: PlaybackController::fastSeekChanged Pages: 1 -->
<svg width="407pt" height="134pt"
 viewBox="0.00 0.00 407.00 134.00" xmlns="http://www.w3.org/2000/svg" xmlns:xlink="http://www.w3.org/1999/xlink">
<g id="graph0" class="graph" transform="scale(1 1) rotate(0) translate(4 130)">
<title>PlaybackController::fastSeekChanged</title>
<!-- Node1 -->
<g id="Node000001" class="node">
<title>Node1</title>
<g id="a_Node000001"><a xlink:title="Emitted when fast seek state changes.">
<polygon fill="#999999" stroke="#666666" points="399,-78 290,-78 290,-48 399,-48 399,-78"/>
<text text-anchor="start" x="298" y="-66" font-family="Helvetica,sans-Serif" font-size="10.00">PlaybackController</text>
<text text-anchor="middle" x="344.5" y="-55" font-family="Helvetica,sans-Serif" font-size="10.00">::fastSeekChanged</text>
</a>
</g>
</g>
<!-- Node2 -->
<g id="Node000002" class="node">
<title>Node2</title>
<g id="a_Node000002"><a xlink:href="../../d0/d22/classPlaybackController.html#a2863b36c274bd466f71380a93426b92a" target="_top" xlink:title="Start fast forward with specified speed.">
<polygon fill="white" stroke="#666666" points="254,-126 145,-126 145,-96 254,-96 254,-126"/>
<text text-anchor="start" x="153" y="-114" font-family="Helvetica,sans-Serif" font-size="10.00">PlaybackController</text>
<text text-anchor="middle" x="199.5" y="-103" font-family="Helvetica,sans-Serif" font-size="10.00">::startFastForward</text>
</a>
</g>
</g>
<!-- Node1&#45;&gt;Node2 -->
<g id="edge1_Node000001_Node000002" class="edge">
<title>Node1&#45;&gt;Node2</title>
<g id="a_edge1_Node000001_Node000002"><a xlink:title=" ">
<path fill="none" stroke="#63b8ff" d="M288.85,-81.35C274.42,-86.19 259.03,-91.36 245.19,-96"/>
<polygon fill="#63b8ff" stroke="#63b8ff" points="290.28,-84.56 298.65,-78.06 288.05,-77.92 290.28,-84.56"/>
</a>
</g>
</g>
<!-- Node3 -->
<g id="Node000003" class="node">
<title>Node3</title>
<g id="a_Node000003"><a xlink:href="../../d0/d22/classPlaybackController.html#a67f8769f236304a0060542a3dc226a56" target="_top" xlink:title="Start rewind with specified speed.">
<polygon fill="white" stroke="#666666" points="254,-78 145,-78 145,-48 254,-48 254,-78"/>
<text text-anchor="start" x="153" y="-66" font-family="Helvetica,sans-Serif" font-size="10.00">PlaybackController</text>
<text text-anchor="middle" x="199.5" y="-55" font-family="Helvetica,sans-Serif" font-size="10.00">::startRewind</text>
</a>
</g>
</g>
<!-- Node1&#45;&gt;Node3 -->
<g id="edge2_Node000001_Node000003" class="edge">
<title>Node1&#45;&gt;Node3</title>
<g id="a_edge2_Node000001_Node000003"><a xlink:title=" ">
<path fill="none" stroke="#63b8ff" d="M279.68,-63C271.25,-63 262.69,-63 254.46,-63"/>
<polygon fill="#63b8ff" stroke="#63b8ff" points="279.85,-66.5 289.85,-63 279.85,-59.5 279.85,-66.5"/>
</a>
</g>
</g>
<!-- Node4 -->
<g id="Node000004" class="node">
<title>Node4</title>
<g id="a_Node000004"><a xlink:href="../../d0/d22/classPlaybackController.html#a1942021a93ef2bb5b1f800c4876b7cc4" target="_top" xlink:title="Stop fast forward/rewind and return to normal playback.">
<polygon fill="white" stroke="#666666" points="254,-30 145,-30 145,0 254,0 254,-30"/>
<text text-anchor="start" x="153" y="-18" font-family="Helvetica,sans-Serif" font-size="10.00">PlaybackController</text>
<text text-anchor="middle" x="199.5" y="-7" font-family="Helvetica,sans-Serif" font-size="10.00">::stopFastSeek</text>
</a>
</g>
</g>
<!-- Node1&#45;&gt;Node4 -->
<g id="edge3_Node000001_Node000004" class="edge">
<title>Node1&#45;&gt;Node4</title>
<g id="a_edge3_Node000001_Node000004"><a xlink:title=" ">
<path fill="none" stroke="#63b8ff" d="M288.85,-44.65C274.42,-39.81 259.03,-34.64 245.19,-30"/>
<polygon fill="#63b8ff" stroke="#63b8ff" points="288.05,-48.08 298.65,-47.94 290.28,-41.44 288.05,-48.08"/>
</a>
</g>
</g>
<!-- Node5 -->
<g id="Node000005" class="node">
<title>Node5</title>
<g id="a_Node000005"><a xlink:href="../../d0/d22/classPlaybackController.html#a188796e3061d606b9f1ee44fca8fdf8d" target="_top" xlink:title="Load media file or URL.">
<polygon fill="white" stroke="#666666" points="109,-30 0,-30 0,0 109,0 109,-30"/>
<text text-anchor="start" x="8" y="-18" font-family="Helvetica,sans-Serif" font-size="10.00">PlaybackController</text>
<text text-anchor="middle" x="54.5" y="-7" font-family="Helvetica,sans-Serif" font-size="10.00">::loadMedia</text>
</a>
</g>
</g>
<!-- Node4&#45;&gt;Node5 -->
<g id="edge4_Node000004_Node000005" class="edge">
<title>Node4&#45;&gt;Node5</title>
<g id="a_edge4_Node000004_Node000005"><a xlink:title=" ">
<path fill="none" stroke="#63b8ff" d="M134.68,-15C126.25,-15 117.69,-15 109.46,-15"/>
<polygon fill="#63b8ff" stroke="#63b8ff" points="134.85,-18.5 144.85,-15 134.85,-11.5 134.85,-18.5"/>
</a>
</g>
</g>
</g>
</svg>
