<?xml version="1.0" encoding="UTF-8" standalone="no"?>
<!DOCTYPE svg PUBLIC "-//W3C//DTD SVG 1.1//EN"
 "http://www.w3.org/Graphics/SVG/1.1/DTD/svg11.dtd">
<!-- Generated by graphviz version 2.43.0 (0)
 -->
<!-- Title: NetworkStreamManager::streamStateChanged Pages: 1 -->
<svg width="502pt" height="86pt"
 viewBox="0.00 0.00 502.00 86.00" xmlns="http://www.w3.org/2000/svg" xmlns:xlink="http://www.w3.org/1999/xlink">
<g id="graph0" class="graph" transform="scale(1 1) rotate(0) translate(4 82)">
<title>NetworkStreamManager::streamStateChanged</title>
<!-- Node1 -->
<g id="Node000001" class="node">
<title>Node1</title>
<g id="a_Node000001"><a xlink:title=" ">
<polygon fill="#999999" stroke="#666666" points="494,-56 358,-56 358,-26 494,-26 494,-56"/>
<text text-anchor="start" x="366" y="-44" font-family="Helvetica,sans-Serif" font-size="10.00">NetworkStreamManager</text>
<text text-anchor="middle" x="426" y="-33" font-family="Helvetica,sans-Serif" font-size="10.00">::streamStateChanged</text>
</a>
</g>
</g>
<!-- Node2 -->
<g id="Node000002" class="node">
<title>Node2</title>
<g id="a_Node000002"><a xlink:href="../../dd/d55/classNetworkStreamManager.html#a04d53350368ca173ace7e0431fe8ab81" target="_top" xlink:title=" ">
<polygon fill="white" stroke="#666666" points="322,-35 186,-35 186,-5 322,-5 322,-35"/>
<text text-anchor="start" x="194" y="-23" font-family="Helvetica,sans-Serif" font-size="10.00">NetworkStreamManager</text>
<text text-anchor="middle" x="254" y="-12" font-family="Helvetica,sans-Serif" font-size="10.00">::closeStream</text>
</a>
</g>
</g>
<!-- Node1&#45;&gt;Node2 -->
<g id="edge1_Node000001_Node000002" class="edge">
<title>Node1&#45;&gt;Node2</title>
<g id="a_edge1_Node000001_Node000002"><a xlink:title=" ">
<path fill="none" stroke="#63b8ff" d="M347.85,-31.47C339.31,-30.42 330.66,-29.35 322.26,-28.31"/>
<polygon fill="#63b8ff" stroke="#63b8ff" points="347.46,-34.95 357.81,-32.7 348.32,-28 347.46,-34.95"/>
</a>
</g>
</g>
<!-- Node3 -->
<g id="Node000003" class="node">
<title>Node3</title>
<g id="a_Node000003"><a xlink:href="../../dd/d55/classNetworkStreamManager.html#a720559bd79a7882468ef7066b3174bc5" target="_top" xlink:title=" ">
<polygon fill="white" stroke="#666666" points="143,-78 7,-78 7,-48 143,-48 143,-78"/>
<text text-anchor="start" x="15" y="-66" font-family="Helvetica,sans-Serif" font-size="10.00">NetworkStreamManager</text>
<text text-anchor="middle" x="75" y="-55" font-family="Helvetica,sans-Serif" font-size="10.00">::openStream</text>
</a>
</g>
</g>
<!-- Node1&#45;&gt;Node3 -->
<g id="edge4_Node000001_Node000003" class="edge">
<title>Node1&#45;&gt;Node3</title>
<g id="a_edge4_Node000001_Node000003"><a xlink:title=" ">
<path fill="none" stroke="#63b8ff" d="M347.7,-45.87C286.38,-49.74 201.56,-55.08 143.08,-58.77"/>
<polygon fill="#63b8ff" stroke="#63b8ff" points="347.95,-49.36 357.71,-45.24 347.51,-42.38 347.95,-49.36"/>
</a>
</g>
</g>
<!-- Node2&#45;&gt;Node3 -->
<g id="edge2_Node000002_Node000003" class="edge">
<title>Node2&#45;&gt;Node3</title>
<g id="a_edge2_Node000002_Node000003"><a xlink:title=" ">
<path fill="none" stroke="#63b8ff" d="M181.26,-37.43C166.88,-40.92 151.88,-44.57 137.87,-47.97"/>
<polygon fill="#63b8ff" stroke="#63b8ff" points="182.2,-40.8 191.09,-35.04 180.55,-34 182.2,-40.8"/>
</a>
</g>
</g>
<!-- Node4 -->
<g id="Node000004" class="node">
<title>Node4</title>
<g id="a_Node000004"><a xlink:href="../../dd/d55/classNetworkStreamManager.html#a62de87025306fb6e0a7257f46cf9b9f0" target="_top" xlink:title=" ">
<polygon fill="white" stroke="#666666" points="150,-30 0,-30 0,0 150,0 150,-30"/>
<text text-anchor="start" x="8" y="-18" font-family="Helvetica,sans-Serif" font-size="10.00">NetworkStreamManager</text>
<text text-anchor="middle" x="75" y="-7" font-family="Helvetica,sans-Serif" font-size="10.00">::~NetworkStreamManager</text>
</a>
</g>
</g>
<!-- Node2&#45;&gt;Node4 -->
<g id="edge3_Node000002_Node000004" class="edge">
<title>Node2&#45;&gt;Node4</title>
<g id="a_edge3_Node000002_Node000004"><a xlink:title=" ">
<path fill="none" stroke="#63b8ff" d="M175.63,-17.81C167.19,-17.58 158.62,-17.33 150.22,-17.1"/>
<polygon fill="#63b8ff" stroke="#63b8ff" points="175.74,-21.32 185.83,-18.1 175.93,-14.32 175.74,-21.32"/>
</a>
</g>
</g>
</g>
</svg>
