<?xml version="1.0" encoding="UTF-8" standalone="no"?>
<!DOCTYPE svg PUBLIC "-//W3C//DTD SVG 1.1//EN"
 "http://www.w3.org/Graphics/SVG/1.1/DTD/svg11.dtd">
<!-- Generated by graphviz version 2.43.0 (0)
 -->
<!-- Title: NetworkStreamManager::~NetworkStreamManager Pages: 1 -->
<svg width="514pt" height="182pt"
 viewBox="0.00 0.00 514.00 182.00" xmlns="http://www.w3.org/2000/svg" xmlns:xlink="http://www.w3.org/1999/xlink">
<g id="graph0" class="graph" transform="scale(1 1) rotate(0) translate(4 178)">
<title>NetworkStreamManager::~NetworkStreamManager</title>
<!-- Node1 -->
<g id="Node000001" class="node">
<title>Node1</title>
<g id="a_Node000001"><a xlink:title=" ">
<polygon fill="#999999" stroke="#666666" points="150,-78 0,-78 0,-48 150,-48 150,-78"/>
<text text-anchor="start" x="8" y="-66" font-family="Helvetica,sans-Serif" font-size="10.00">NetworkStreamManager</text>
<text text-anchor="middle" x="75" y="-55" font-family="Helvetica,sans-Serif" font-size="10.00">::~NetworkStreamManager</text>
</a>
</g>
</g>
<!-- Node2 -->
<g id="Node000002" class="node">
<title>Node2</title>
<g id="a_Node000002"><a xlink:href="../../dd/d55/classNetworkStreamManager.html#a04d53350368ca173ace7e0431fe8ab81" target="_top" xlink:title=" ">
<polygon fill="white" stroke="#666666" points="322,-114 186,-114 186,-84 322,-84 322,-114"/>
<text text-anchor="start" x="194" y="-102" font-family="Helvetica,sans-Serif" font-size="10.00">NetworkStreamManager</text>
<text text-anchor="middle" x="254" y="-91" font-family="Helvetica,sans-Serif" font-size="10.00">::closeStream</text>
</a>
</g>
</g>
<!-- Node1&#45;&gt;Node2 -->
<g id="edge1_Node000001_Node000002" class="edge">
<title>Node1&#45;&gt;Node2</title>
<g id="a_edge1_Node000001_Node000002"><a xlink:title=" ">
<path fill="none" stroke="#63b8ff" d="M149.78,-78.01C158.37,-79.75 167.15,-81.54 175.79,-83.3"/>
<polygon fill="#63b8ff" stroke="#63b8ff" points="175.34,-86.78 185.84,-85.34 176.74,-79.92 175.34,-86.78"/>
</a>
</g>
</g>
<!-- Node6 -->
<g id="Node000006" class="node">
<title>Node6</title>
<g id="a_Node000006"><a xlink:href="../../dd/d55/classNetworkStreamManager.html#a3179c715696916ac9448c9b0791065a3" target="_top" xlink:title=" ">
<polygon fill="white" stroke="#666666" points="322,-54 186,-54 186,-24 322,-24 322,-54"/>
<text text-anchor="start" x="194" y="-42" font-family="Helvetica,sans-Serif" font-size="10.00">NetworkStreamManager</text>
<text text-anchor="middle" x="254" y="-31" font-family="Helvetica,sans-Serif" font-size="10.00">::unmountNetworkShare</text>
</a>
</g>
</g>
<!-- Node1&#45;&gt;Node6 -->
<g id="edge5_Node000001_Node000006" class="edge">
<title>Node1&#45;&gt;Node6</title>
<g id="a_edge5_Node000001_Node000006"><a xlink:title=" ">
<path fill="none" stroke="#63b8ff" d="M150.04,-52.96C158.55,-51.81 167.24,-50.63 175.8,-49.47"/>
<polygon fill="#63b8ff" stroke="#63b8ff" points="176.31,-52.93 185.75,-48.12 175.37,-45.99 176.31,-52.93"/>
</a>
</g>
</g>
<!-- Node3 -->
<g id="Node000003" class="node">
<title>Node3</title>
<g id="a_Node000003"><a xlink:href="../../dd/d55/classNetworkStreamManager.html#ad00590fceb04ded19a1bec8917bde165" target="_top" xlink:title=" ">
<polygon fill="white" stroke="#666666" points="506,-174 358,-174 358,-144 506,-144 506,-174"/>
<text text-anchor="start" x="366" y="-162" font-family="Helvetica,sans-Serif" font-size="10.00">NetworkStreamManager</text>
<text text-anchor="middle" x="432" y="-151" font-family="Helvetica,sans-Serif" font-size="10.00">::stopBandwidthMonitoring</text>
</a>
</g>
</g>
<!-- Node2&#45;&gt;Node3 -->
<g id="edge2_Node000002_Node000003" class="edge">
<title>Node2&#45;&gt;Node3</title>
<g id="a_edge2_Node000002_Node000003"><a xlink:title=" ">
<path fill="none" stroke="#63b8ff" d="M297.53,-114.07C316.08,-120.58 338.09,-128.25 358,-135 363.5,-136.87 369.25,-138.79 374.99,-140.7"/>
<polygon fill="#63b8ff" stroke="#63b8ff" points="374.02,-144.07 384.62,-143.89 376.22,-137.43 374.02,-144.07"/>
</a>
</g>
</g>
<!-- Node4 -->
<g id="Node000004" class="node">
<title>Node4</title>
<g id="a_Node000004"><a xlink:href="../../dd/d55/classNetworkStreamManager.html#a675b6344d7c54d54bcaa2def77c064d2" target="_top" xlink:title=" ">
<polygon fill="white" stroke="#666666" points="500,-126 364,-126 364,-96 500,-96 500,-126"/>
<text text-anchor="start" x="372" y="-114" font-family="Helvetica,sans-Serif" font-size="10.00">NetworkStreamManager</text>
<text text-anchor="middle" x="432" y="-103" font-family="Helvetica,sans-Serif" font-size="10.00">::streamClosed</text>
</a>
</g>
</g>
<!-- Node2&#45;&gt;Node4 -->
<g id="edge3_Node000002_Node000004" class="edge">
<title>Node2&#45;&gt;Node4</title>
<g id="a_edge3_Node000002_Node000004"><a xlink:title=" ">
<path fill="none" stroke="#63b8ff" d="M322.04,-103.57C332.42,-104.28 343.21,-105.01 353.79,-105.74"/>
<polygon fill="#63b8ff" stroke="#63b8ff" points="353.64,-109.23 363.85,-106.42 354.12,-102.25 353.64,-109.23"/>
</a>
</g>
</g>
<!-- Node5 -->
<g id="Node000005" class="node">
<title>Node5</title>
<g id="a_Node000005"><a xlink:href="../../dd/d55/classNetworkStreamManager.html#a879f118c02501c27462064f78a83586b" target="_top" xlink:title=" ">
<polygon fill="white" stroke="#666666" points="500,-78 364,-78 364,-48 500,-48 500,-78"/>
<text text-anchor="start" x="372" y="-66" font-family="Helvetica,sans-Serif" font-size="10.00">NetworkStreamManager</text>
<text text-anchor="middle" x="432" y="-55" font-family="Helvetica,sans-Serif" font-size="10.00">::streamStateChanged</text>
</a>
</g>
</g>
<!-- Node2&#45;&gt;Node5 -->
<g id="edge4_Node000002_Node000005" class="edge">
<title>Node2&#45;&gt;Node5</title>
<g id="a_edge4_Node000002_Node000005"><a xlink:title=" ">
<path fill="none" stroke="#63b8ff" d="M322.04,-85.29C332.42,-83.16 343.21,-80.96 353.79,-78.79"/>
<polygon fill="#63b8ff" stroke="#63b8ff" points="354.76,-82.17 363.85,-76.73 353.36,-75.31 354.76,-82.17"/>
</a>
</g>
</g>
<!-- Node7 -->
<g id="Node000007" class="node">
<title>Node7</title>
<g id="a_Node000007"><a xlink:href="../../dd/d55/classNetworkStreamManager.html#a43885514eef0c8dc15476563849ddc31" target="_top" xlink:title=" ">
<polygon fill="white" stroke="#666666" points="505.5,-30 358.5,-30 358.5,0 505.5,0 505.5,-30"/>
<text text-anchor="start" x="366.5" y="-18" font-family="Helvetica,sans-Serif" font-size="10.00">NetworkStreamManager</text>
<text text-anchor="middle" x="432" y="-7" font-family="Helvetica,sans-Serif" font-size="10.00">::networkShareUnmounted</text>
</a>
</g>
</g>
<!-- Node6&#45;&gt;Node7 -->
<g id="edge6_Node000006_Node000007" class="edge">
<title>Node6&#45;&gt;Node7</title>
<g id="a_edge6_Node000006_Node000007"><a xlink:title=" ">
<path fill="none" stroke="#63b8ff" d="M322.04,-29.86C330.65,-28.68 339.55,-27.47 348.37,-26.27"/>
<polygon fill="#63b8ff" stroke="#63b8ff" points="348.85,-29.74 358.28,-24.92 347.9,-22.8 348.85,-29.74"/>
</a>
</g>
</g>
</g>
</svg>
