<?xml version="1.0" encoding="UTF-8" standalone="no"?>
<!DOCTYPE svg PUBLIC "-//W3C//DTD SVG 1.1//EN"
 "http://www.w3.org/Graphics/SVG/1.1/DTD/svg11.dtd">
<!-- Generated by graphviz version 2.43.0 (0)
 -->
<!-- Title: EonPlay::Data::LibraryManager::LibrarySettings Pages: 1 -->
<svg width="354pt" height="370pt"
 viewBox="0.00 0.00 354.00 370.00" xmlns="http://www.w3.org/2000/svg" xmlns:xlink="http://www.w3.org/1999/xlink">
<g id="graph0" class="graph" transform="scale(1 1) rotate(0) translate(4 366)">
<title>EonPlay::Data::LibraryManager::LibrarySettings</title>
<!-- Node1 -->
<g id="Node000001" class="node">
<title>Node1</title>
<g id="a_Node000001"><a xlink:title=" ">
<polygon fill="#999999" stroke="transparent" points="248,-135 87,-135 87,0 248,0 248,-135"/>
<text text-anchor="start" x="92.5" y="-122.5" font-family="Helvetica,sans-Serif" font-size="10.00">EonPlay::Data::LibraryManager</text>
<text text-anchor="start" x="128" y="-111.5" font-family="Helvetica,sans-Serif" font-size="10.00">::LibrarySettings</text>
<text text-anchor="start" x="103" y="-96.5" font-family="Helvetica,sans-Serif" font-size="10.00">+</text>
<text text-anchor="start" x="127.5" y="-96.5" font-family="Helvetica,sans-Serif" font-size="10.00">libraryPaths</text>
<text text-anchor="start" x="103" y="-81.5" font-family="Helvetica,sans-Serif" font-size="10.00">+</text>
<text text-anchor="start" x="127.5" y="-81.5" font-family="Helvetica,sans-Serif" font-size="10.00">autoScanEnabled</text>
<text text-anchor="start" x="103" y="-66.5" font-family="Helvetica,sans-Serif" font-size="10.00">+</text>
<text text-anchor="start" x="127.5" y="-66.5" font-family="Helvetica,sans-Serif" font-size="10.00">autoScanInterval</text>
<text text-anchor="start" x="103" y="-51.5" font-family="Helvetica,sans-Serif" font-size="10.00">+</text>
<text text-anchor="start" x="127.5" y="-51.5" font-family="Helvetica,sans-Serif" font-size="10.00">extractMetadata</text>
<text text-anchor="start" x="103" y="-36.5" font-family="Helvetica,sans-Serif" font-size="10.00">+</text>
<text text-anchor="start" x="127.5" y="-36.5" font-family="Helvetica,sans-Serif" font-size="10.00">fetchWebMetadata</text>
<text text-anchor="start" x="103" y="-21.5" font-family="Helvetica,sans-Serif" font-size="10.00">+</text>
<text text-anchor="start" x="127.5" y="-21.5" font-family="Helvetica,sans-Serif" font-size="10.00">autoCleanup</text>
<text text-anchor="start" x="166" y="-6.5" font-family="Helvetica,sans-Serif" font-size="10.00"> </text>
<polygon fill="#666666" stroke="#666666" points="87.5,-106.5 87.5,-106.5 248.5,-106.5 248.5,-106.5 87.5,-106.5"/>
<polygon fill="#666666" stroke="#666666" points="87.5,-16.5 87.5,-16.5 125.5,-16.5 125.5,-16.5 87.5,-16.5"/>
<polygon fill="#666666" stroke="#666666" points="125.5,-16.5 125.5,-16.5 248.5,-16.5 248.5,-16.5 125.5,-16.5"/>
<polygon fill="none" stroke="#666666" points="87,0 87,-135 248,-135 248,0 87,0"/>
</a>
</g>
</g>
<!-- Node2 -->
<g id="Node000002" class="node">
<title>Node2</title>
<g id="a_Node000002"><a xlink:href="../../d9/d36/structEonPlay_1_1Data_1_1MediaScanner_1_1ScanOptions.html" target="_top" xlink:title=" ">
<polygon fill="white" stroke="transparent" points="153,-362 0,-362 0,-182 153,-182 153,-362"/>
<text text-anchor="start" x="5.5" y="-350" font-family="Helvetica,sans-Serif" font-size="10.00">EonPlay::Data::MediaScanner</text>
<text text-anchor="start" x="43.5" y="-339" font-family="Helvetica,sans-Serif" font-size="10.00">::ScanOptions</text>
<text text-anchor="start" x="16" y="-324" font-family="Helvetica,sans-Serif" font-size="10.00">+</text>
<text text-anchor="start" x="40.5" y="-324" font-family="Helvetica,sans-Serif" font-size="10.00">mode</text>
<text text-anchor="start" x="16" y="-309" font-family="Helvetica,sans-Serif" font-size="10.00">+</text>
<text text-anchor="start" x="40.5" y="-309" font-family="Helvetica,sans-Serif" font-size="10.00">recursive</text>
<text text-anchor="start" x="16" y="-294" font-family="Helvetica,sans-Serif" font-size="10.00">+</text>
<text text-anchor="start" x="40.5" y="-294" font-family="Helvetica,sans-Serif" font-size="10.00">followSymlinks</text>
<text text-anchor="start" x="16" y="-279" font-family="Helvetica,sans-Serif" font-size="10.00">+</text>
<text text-anchor="start" x="40.5" y="-279" font-family="Helvetica,sans-Serif" font-size="10.00">extractMetadata</text>
<text text-anchor="start" x="16" y="-264" font-family="Helvetica,sans-Serif" font-size="10.00">+</text>
<text text-anchor="start" x="40.5" y="-264" font-family="Helvetica,sans-Serif" font-size="10.00">detectDuplicates</text>
<text text-anchor="start" x="16" y="-249" font-family="Helvetica,sans-Serif" font-size="10.00">+</text>
<text text-anchor="start" x="40.5" y="-249" font-family="Helvetica,sans-Serif" font-size="10.00">autoAddToLibrary</text>
<text text-anchor="start" x="16" y="-234" font-family="Helvetica,sans-Serif" font-size="10.00">+</text>
<text text-anchor="start" x="40.5" y="-234" font-family="Helvetica,sans-Serif" font-size="10.00">maxDepth</text>
<text text-anchor="start" x="16" y="-219" font-family="Helvetica,sans-Serif" font-size="10.00">+</text>
<text text-anchor="start" x="40.5" y="-219" font-family="Helvetica,sans-Serif" font-size="10.00">excludePatterns</text>
<text text-anchor="start" x="16" y="-204" font-family="Helvetica,sans-Serif" font-size="10.00">+</text>
<text text-anchor="start" x="40.5" y="-204" font-family="Helvetica,sans-Serif" font-size="10.00">includePatterns</text>
<text text-anchor="start" x="75" y="-189" font-family="Helvetica,sans-Serif" font-size="10.00"> </text>
<polygon fill="#666666" stroke="#666666" points="0.5,-334 0.5,-334 153.5,-334 153.5,-334 0.5,-334"/>
<polygon fill="#666666" stroke="#666666" points="0.5,-199 0.5,-199 38.5,-199 38.5,-199 0.5,-199"/>
<polygon fill="#666666" stroke="#666666" points="38.5,-199 38.5,-199 153.5,-199 153.5,-199 38.5,-199"/>
<polygon fill="none" stroke="#666666" points="0,-182 0,-362 153,-362 153,-182 0,-182"/>
</a>
</g>
</g>
<!-- Node2&#45;&gt;Node1 -->
<g id="edge1_Node000001_Node000002" class="edge">
<title>Node2&#45;&gt;Node1</title>
<g id="a_edge1_Node000001_Node000002"><a xlink:title=" ">
<path fill="none" stroke="#63b8ff" d="M116.55,-181.89C121.89,-169.98 127.34,-157.86 132.6,-146.17"/>
<polygon fill="none" stroke="#63b8ff" points="132.64,-146.07 131.45,-138.96 137.56,-135.13 138.75,-142.24 132.64,-146.07"/>
</a>
</g>
<text text-anchor="middle" x="163.5" y="-156" font-family="Helvetica,sans-Serif" font-size="10.00" fill="grey"> +scanOptions</text>
</g>
<!-- Node3 -->
<g id="Node000003" class="node">
<title>Node3</title>
<g id="a_Node000003"><a xlink:href="../../d1/d13/structEonPlay_1_1Data_1_1MetadataExtractor_1_1ExtractionOptions.html" target="_top" xlink:title=" ">
<polygon fill="white" stroke="transparent" points="346,-339.5 171,-339.5 171,-204.5 346,-204.5 346,-339.5"/>
<text text-anchor="start" x="176.5" y="-327" font-family="Helvetica,sans-Serif" font-size="10.00">EonPlay::Data::MetadataExtractor</text>
<text text-anchor="start" x="212" y="-316" font-family="Helvetica,sans-Serif" font-size="10.00">::ExtractionOptions</text>
<text text-anchor="start" x="188.5" y="-301" font-family="Helvetica,sans-Serif" font-size="10.00">+</text>
<text text-anchor="start" x="214.5" y="-301" font-family="Helvetica,sans-Serif" font-size="10.00">method</text>
<text text-anchor="start" x="188.5" y="-286" font-family="Helvetica,sans-Serif" font-size="10.00">+</text>
<text text-anchor="start" x="214.5" y="-286" font-family="Helvetica,sans-Serif" font-size="10.00">extractCoverArt</text>
<text text-anchor="start" x="188.5" y="-271" font-family="Helvetica,sans-Serif" font-size="10.00">+</text>
<text text-anchor="start" x="214.5" y="-271" font-family="Helvetica,sans-Serif" font-size="10.00">fetchFromWeb</text>
<text text-anchor="start" x="188.5" y="-256" font-family="Helvetica,sans-Serif" font-size="10.00">+</text>
<text text-anchor="start" x="214.5" y="-256" font-family="Helvetica,sans-Serif" font-size="10.00">cacheResults</text>
<text text-anchor="start" x="188.5" y="-241" font-family="Helvetica,sans-Serif" font-size="10.00">+</text>
<text text-anchor="start" x="214.5" y="-241" font-family="Helvetica,sans-Serif" font-size="10.00">webRequestTimeout</text>
<text text-anchor="start" x="188.5" y="-226" font-family="Helvetica,sans-Serif" font-size="10.00">+</text>
<text text-anchor="start" x="214.5" y="-226" font-family="Helvetica,sans-Serif" font-size="10.00">coverArtDirectory</text>
<text text-anchor="start" x="257" y="-211" font-family="Helvetica,sans-Serif" font-size="10.00"> </text>
<polygon fill="#666666" stroke="#666666" points="171.5,-311 171.5,-311 346.5,-311 346.5,-311 171.5,-311"/>
<polygon fill="#666666" stroke="#666666" points="171.5,-221 171.5,-221 212.5,-221 212.5,-221 171.5,-221"/>
<polygon fill="#666666" stroke="#666666" points="212.5,-221 212.5,-221 346.5,-221 346.5,-221 212.5,-221"/>
<polygon fill="none" stroke="#666666" points="171,-204.5 171,-339.5 346,-339.5 346,-204.5 171,-204.5"/>
</a>
</g>
</g>
<!-- Node3&#45;&gt;Node1 -->
<g id="edge2_Node000001_Node000003" class="edge">
<title>Node3&#45;&gt;Node1</title>
<g id="a_edge2_Node000001_Node000003"><a xlink:title=" ">
<path fill="none" stroke="#63b8ff" d="M228.58,-204.41C220.22,-185.82 211.06,-165.44 202.44,-146.26"/>
<polygon fill="none" stroke="#63b8ff" points="202.36,-146.07 196.25,-142.24 197.44,-135.13 203.55,-138.96 202.36,-146.07"/>
</a>
</g>
<text text-anchor="middle" x="259" y="-156" font-family="Helvetica,sans-Serif" font-size="10.00" fill="grey"> +extractionOptions</text>
</g>
</g>
</svg>
