<?xml version="1.0" encoding="UTF-8" standalone="no"?>
<!DOCTYPE svg PUBLIC "-//W3C//DTD SVG 1.1//EN"
 "http://www.w3.org/Graphics/SVG/1.1/DTD/svg11.dtd">
<!-- Generated by graphviz version 2.43.0 (0)
 -->
<!-- Title: SystemTrayManager::initialize Pages: 1 -->
<svg width="323pt" height="172pt"
 viewBox="0.00 0.00 323.00 171.50" xmlns="http://www.w3.org/2000/svg" xmlns:xlink="http://www.w3.org/1999/xlink">

<svg id="main" version="1.1" xmlns="http://www.w3.org/2000/svg" xmlns:xlink="http://www.w3.org/1999/xlink" xml:space="preserve" onload="init(evt)">
<style type="text/css"><![CDATA[
.node, .edge {opacity: 0.7;}
.node.selected, .edge.selected {opacity: 1;}
.edge:hover path { stroke: red; }
.edge:hover polygon { stroke: red; fill: red; }
]]></style>
<script type="application/ecmascript" xlink:href="../../svg.min.js"/>
<svg id="graph" class="graph">
<g id="graph0" class="graph" transform="scale(1 1) rotate(0) translate(4 167.5)">
<title>SystemTrayManager::initialize</title>
<!-- Node1 -->
<g id="Node000001" class="node">
<title>Node1</title>
<g id="a_Node000001"><a xlink:title="Initialize system tray with main window reference.">
<polygon fill="#999999" stroke="#666666" points="122,-91.5 0,-91.5 0,-61.5 122,-61.5 122,-91.5"/>
<text text-anchor="start" x="8" y="-79.5" font-family="Helvetica,sans-Serif" font-size="10.00">SystemTrayManager::</text>
<text text-anchor="middle" x="61" y="-68.5" font-family="Helvetica,sans-Serif" font-size="10.00">initialize</text>
</a>
</g>
</g>
<!-- Node2 -->
<g id="Node000002" class="node">
<title>Node2</title>
<g id="a_Node000002"><a xlink:href="../../d6/dfb/classSystemTrayManager.html#a4c24cefb549c374c68c61f8ad5ec6e6f" target="_top" xlink:title="Check if system tray is available on this system.">
<polygon fill="white" stroke="#666666" points="300,-163.5 173,-163.5 173,-133.5 300,-133.5 300,-163.5"/>
<text text-anchor="start" x="181" y="-151.5" font-family="Helvetica,sans-Serif" font-size="10.00">SystemTrayManager::</text>
<text text-anchor="middle" x="236.5" y="-140.5" font-family="Helvetica,sans-Serif" font-size="10.00">isSystemTrayAvailable</text>
</a>
</g>
</g>
<!-- Node1&#45;&gt;Node2 -->
<g id="edge1_Node000001_Node000002" class="edge">
<title>Node1&#45;&gt;Node2</title>
<g id="a_edge1_Node000001_Node000002"><a xlink:title=" ">
<path fill="none" stroke="#63b8ff" d="M89.18,-91.58C108.11,-101.72 134.14,-114.91 158,-124.5 162.78,-126.42 167.77,-128.28 172.82,-130.06"/>
<polygon fill="#63b8ff" stroke="#63b8ff" points="171.97,-133.47 182.57,-133.38 174.23,-126.84 171.97,-133.47"/>
</a>
</g>
</g>
<!-- Node3 -->
<g id="Node000003" class="node">
<title>Node3</title>
<g id="a_Node000003"><a xlink:href="../../d6/dfb/classSystemTrayManager.html#a3510dbf2561d2507695d4a86ab91dd81" target="_top" xlink:title="Emitted when user requests to quit application.">
<polygon fill="white" stroke="#666666" points="297.5,-115.5 175.5,-115.5 175.5,-85.5 297.5,-85.5 297.5,-115.5"/>
<text text-anchor="start" x="183.5" y="-103.5" font-family="Helvetica,sans-Serif" font-size="10.00">SystemTrayManager::</text>
<text text-anchor="middle" x="236.5" y="-92.5" font-family="Helvetica,sans-Serif" font-size="10.00">quitRequested</text>
</a>
</g>
</g>
<!-- Node1&#45;&gt;Node3 -->
<g id="edge2_Node000001_Node000003" class="edge">
<title>Node1&#45;&gt;Node3</title>
<g id="a_edge2_Node000001_Node000003"><a xlink:title=" ">
<path fill="none" stroke="#63b8ff" d="M122.19,-84.83C136.06,-86.74 150.92,-88.8 165.17,-90.77"/>
<polygon fill="#63b8ff" stroke="#63b8ff" points="165.03,-94.28 175.41,-92.19 165.99,-87.35 165.03,-94.28"/>
</a>
</g>
</g>
<!-- Node4 -->
<g id="Node000004" class="node">
<title>Node4</title>
<g id="a_Node000004"><a xlink:href="../../d6/dfb/classSystemTrayManager.html#aec4ab1426497ab8246c3a5a31d6f0bca" target="_top" xlink:title="Emitted when user requests to show main window.">
<polygon fill="white" stroke="#666666" points="315,-67.5 158,-67.5 158,-37.5 315,-37.5 315,-67.5"/>
<text text-anchor="start" x="166" y="-55.5" font-family="Helvetica,sans-Serif" font-size="10.00">SystemTrayManager::</text>
<text text-anchor="middle" x="236.5" y="-44.5" font-family="Helvetica,sans-Serif" font-size="10.00">showMainWindowRequested</text>
</a>
</g>
</g>
<!-- Node1&#45;&gt;Node4 -->
<g id="edge3_Node000001_Node000004" class="edge">
<title>Node1&#45;&gt;Node4</title>
<g id="a_edge3_Node000001_Node000004"><a xlink:title=" ">
<path fill="none" stroke="#63b8ff" d="M122.19,-68.17C130.5,-67.03 139.16,-65.83 147.83,-64.63"/>
<polygon fill="#63b8ff" stroke="#63b8ff" points="148.57,-68.06 157.99,-63.22 147.61,-61.12 148.57,-68.06"/>
</a>
</g>
</g>
<!-- Node5 -->
<g id="Node000005" class="node">
<title>Node5</title>
<g id="a_Node000005"><a xlink:href="../../d6/d1a/classMainWindow.html#a04d901dec193f723d5ab3c4a3231b6b8" target="_top" xlink:title="Show the main window and restore state.">
<polygon fill="white" stroke="#666666" points="311,-19 162,-19 162,0 311,0 311,-19"/>
<text text-anchor="middle" x="236.5" y="-7" font-family="Helvetica,sans-Serif" font-size="10.00">MainWindow::showWindow</text>
</a>
</g>
</g>
<!-- Node1&#45;&gt;Node5 -->
<g id="edge4_Node000001_Node000005" class="edge">
<title>Node1&#45;&gt;Node5</title>
<g id="a_edge4_Node000001_Node000005"><a xlink:title=" ">
<path fill="none" stroke="#63b8ff" d="M88.19,-61.41C107.1,-51.01 133.51,-37.5 158,-28.5 164.79,-26 172.04,-23.74 179.28,-21.71"/>
<polygon fill="#63b8ff" stroke="#63b8ff" points="180.33,-25.05 189.09,-19.09 178.53,-18.28 180.33,-25.05"/>
</a>
</g>
</g>
</g>
</svg>
</svg>

<style type='text/css'>
<![CDATA[
[data-mouse-over-selected='false'] { opacity: 0.7; }
[data-mouse-over-selected='true']  { opacity: 1.0; }
]]>
</style>
<script type="application/ecmascript"><![CDATA[
document.addEventListener('DOMContentLoaded', (event) => {
  highlightEdges();
  highlightAdjacentNodes();
});
]]></script>
</svg>
