<?xml version="1.0" encoding="UTF-8" standalone="no"?>
<!DOCTYPE svg PUBLIC "-//W3C//DTD SVG 1.1//EN"
 "http://www.w3.org/Graphics/SVG/1.1/DTD/svg11.dtd">
<!-- Generated by graphviz version 2.43.0 (0)
 -->
<!-- Title: SystemTrayManager::onPlaybackStateChanged Pages: 1 -->
<svg width="465pt" height="86pt"
 viewBox="0.00 0.00 465.00 86.00" xmlns="http://www.w3.org/2000/svg" xmlns:xlink="http://www.w3.org/1999/xlink">
<g id="graph0" class="graph" transform="scale(1 1) rotate(0) translate(4 82)">
<title>SystemTrayManager::onPlaybackStateChanged</title>
<!-- Node1 -->
<g id="Node000001" class="node">
<title>Node1</title>
<g id="a_Node000001"><a xlink:title="Handle playback state changes.">
<polygon fill="#999999" stroke="#666666" points="141,-54 0,-54 0,-24 141,-24 141,-54"/>
<text text-anchor="start" x="8" y="-42" font-family="Helvetica,sans-Serif" font-size="10.00">SystemTrayManager::</text>
<text text-anchor="middle" x="70.5" y="-31" font-family="Helvetica,sans-Serif" font-size="10.00">onPlaybackStateChanged</text>
</a>
</g>
</g>
<!-- Node2 -->
<g id="Node000002" class="node">
<title>Node2</title>
<g id="a_Node000002"><a xlink:href="../../d6/dfb/classSystemTrayManager.html#a0d5500cf2b4967b648ad1305c8a9674c" target="_top" xlink:title="Show notification message.">
<polygon fill="white" stroke="#666666" points="299,-78 177,-78 177,-48 299,-48 299,-78"/>
<text text-anchor="start" x="185" y="-66" font-family="Helvetica,sans-Serif" font-size="10.00">SystemTrayManager::</text>
<text text-anchor="middle" x="238" y="-55" font-family="Helvetica,sans-Serif" font-size="10.00">showNotification</text>
</a>
</g>
</g>
<!-- Node1&#45;&gt;Node2 -->
<g id="edge1_Node000001_Node000002" class="edge">
<title>Node1&#45;&gt;Node2</title>
<g id="a_edge1_Node000001_Node000002"><a xlink:title=" ">
<path fill="none" stroke="#63b8ff" d="M141.21,-49.11C149.62,-50.33 158.22,-51.58 166.65,-52.8"/>
<polygon fill="#63b8ff" stroke="#63b8ff" points="166.41,-56.3 176.81,-54.27 167.42,-49.37 166.41,-56.3"/>
</a>
</g>
</g>
<!-- Node3 -->
<g id="Node000003" class="node">
<title>Node3</title>
<g id="a_Node000003"><a xlink:href="../../d6/dfb/classSystemTrayManager.html#a951260cd5bcaa70e658bfe8e509a2264" target="_top" xlink:title="Update playback controls state.">
<polygon fill="white" stroke="#666666" points="299,-30 177,-30 177,0 299,0 299,-30"/>
<text text-anchor="start" x="185" y="-18" font-family="Helvetica,sans-Serif" font-size="10.00">SystemTrayManager::</text>
<text text-anchor="middle" x="238" y="-7" font-family="Helvetica,sans-Serif" font-size="10.00">updatePlaybackState</text>
</a>
</g>
</g>
<!-- Node1&#45;&gt;Node3 -->
<g id="edge2_Node000001_Node000003" class="edge">
<title>Node1&#45;&gt;Node3</title>
<g id="a_edge2_Node000001_Node000003"><a xlink:title=" ">
<path fill="none" stroke="#63b8ff" d="M141.21,-28.89C149.62,-27.67 158.22,-26.42 166.65,-25.2"/>
<polygon fill="#63b8ff" stroke="#63b8ff" points="167.42,-28.63 176.81,-23.73 166.41,-21.7 167.42,-28.63"/>
</a>
</g>
</g>
<!-- Node4 -->
<g id="Node000004" class="node">
<title>Node4</title>
<g id="a_Node000004"><a xlink:href="../../d6/dfb/classSystemTrayManager.html#ac8ff72ea9be764f21243b03a7ea8ee31" target="_top" xlink:title="Update tray icon tooltip with current media info.">
<polygon fill="white" stroke="#666666" points="457,-30 335,-30 335,0 457,0 457,-30"/>
<text text-anchor="start" x="343" y="-18" font-family="Helvetica,sans-Serif" font-size="10.00">SystemTrayManager::</text>
<text text-anchor="middle" x="396" y="-7" font-family="Helvetica,sans-Serif" font-size="10.00">updateTooltip</text>
</a>
</g>
</g>
<!-- Node3&#45;&gt;Node4 -->
<g id="edge3_Node000003_Node000004" class="edge">
<title>Node3&#45;&gt;Node4</title>
<g id="a_edge3_Node000003_Node000004"><a xlink:title=" ">
<path fill="none" stroke="#63b8ff" d="M299.31,-15C307.6,-15 316.17,-15 324.63,-15"/>
<polygon fill="#63b8ff" stroke="#63b8ff" points="324.85,-18.5 334.85,-15 324.85,-11.5 324.85,-18.5"/>
</a>
</g>
</g>
</g>
</svg>
