<?xml version="1.0" encoding="UTF-8" standalone="no"?>
<!DOCTYPE svg PUBLIC "-//W3C//DTD SVG 1.1//EN"
 "http://www.w3.org/Graphics/SVG/1.1/DTD/svg11.dtd">
<!-- Generated by graphviz version 2.43.0 (0)
 -->
<!-- Title: EonPlay::Data::MetadataExtractor::MediaMetadata Pages: 1 -->
<svg width="183pt" height="218pt"
 viewBox="0.00 0.00 183.00 218.00" xmlns="http://www.w3.org/2000/svg" xmlns:xlink="http://www.w3.org/1999/xlink">
<g id="graph0" class="graph" transform="scale(1 1) rotate(0) translate(4 214)">
<title>EonPlay::Data::MetadataExtractor::MediaMetadata</title>
<!-- Node1 -->
<g id="Node000001" class="node">
<title>Node1</title>
<g id="a_Node000001"><a xlink:title=" ">
<polygon fill="#999999" stroke="transparent" points="175,-210 0,-210 0,0 175,0 175,-210"/>
<text text-anchor="start" x="5.5" y="-198" font-family="Helvetica,sans-Serif" font-size="10.00">EonPlay::Data::MetadataExtractor</text>
<text text-anchor="start" x="46.5" y="-187" font-family="Helvetica,sans-Serif" font-size="10.00">::MediaMetadata</text>
<text text-anchor="start" x="25" y="-172" font-family="Helvetica,sans-Serif" font-size="10.00">+</text>
<text text-anchor="start" x="58.5" y="-172" font-family="Helvetica,sans-Serif" font-size="10.00">title</text>
<text text-anchor="start" x="25" y="-157" font-family="Helvetica,sans-Serif" font-size="10.00">+</text>
<text text-anchor="start" x="58.5" y="-157" font-family="Helvetica,sans-Serif" font-size="10.00">artist</text>
<text text-anchor="start" x="25" y="-142" font-family="Helvetica,sans-Serif" font-size="10.00">+</text>
<text text-anchor="start" x="58.5" y="-142" font-family="Helvetica,sans-Serif" font-size="10.00">album</text>
<text text-anchor="start" x="25" y="-127" font-family="Helvetica,sans-Serif" font-size="10.00">+</text>
<text text-anchor="start" x="58.5" y="-127" font-family="Helvetica,sans-Serif" font-size="10.00">genre</text>
<text text-anchor="start" x="25" y="-112" font-family="Helvetica,sans-Serif" font-size="10.00">+</text>
<text text-anchor="start" x="58.5" y="-112" font-family="Helvetica,sans-Serif" font-size="10.00">albumArtist</text>
<text text-anchor="start" x="25" y="-97" font-family="Helvetica,sans-Serif" font-size="10.00">+</text>
<text text-anchor="start" x="58.5" y="-97" font-family="Helvetica,sans-Serif" font-size="10.00">composer</text>
<text text-anchor="start" x="25" y="-82" font-family="Helvetica,sans-Serif" font-size="10.00">+</text>
<text text-anchor="start" x="58.5" y="-82" font-family="Helvetica,sans-Serif" font-size="10.00">comment</text>
<text text-anchor="start" x="25" y="-67" font-family="Helvetica,sans-Serif" font-size="10.00">+</text>
<text text-anchor="start" x="58.5" y="-67" font-family="Helvetica,sans-Serif" font-size="10.00">year</text>
<text text-anchor="start" x="25" y="-52" font-family="Helvetica,sans-Serif" font-size="10.00">+</text>
<text text-anchor="start" x="58.5" y="-52" font-family="Helvetica,sans-Serif" font-size="10.00">trackNumber</text>
<text text-anchor="start" x="25" y="-37" font-family="Helvetica,sans-Serif" font-size="10.00">+</text>
<text text-anchor="start" x="58.5" y="-37" font-family="Helvetica,sans-Serif" font-size="10.00">discNumber</text>
<text text-anchor="start" x="58.5" y="-22" font-family="Helvetica,sans-Serif" font-size="10.00">and 13 more...</text>
<text text-anchor="start" x="86" y="-7" font-family="Helvetica,sans-Serif" font-size="10.00"> </text>
<polygon fill="#666666" stroke="#666666" points="0.5,-182 0.5,-182 175.5,-182 175.5,-182 0.5,-182"/>
<polygon fill="#666666" stroke="#666666" points="0.5,-17 0.5,-17 56.5,-17 56.5,-17 0.5,-17"/>
<polygon fill="#666666" stroke="#666666" points="56.5,-17 56.5,-17 175.5,-17 175.5,-17 56.5,-17"/>
<polygon fill="none" stroke="#666666" points="0,0 0,-210 175,-210 175,0 0,0"/>
</a>
</g>
</g>
</g>
</svg>
