<?xml version="1.0" encoding="UTF-8" standalone="no"?>
<!DOCTYPE svg PUBLIC "-//W3C//DTD SVG 1.1//EN"
 "http://www.w3.org/Graphics/SVG/1.1/DTD/svg11.dtd">
<!-- Generated by graphviz version 2.43.0 (0)
 -->
<!-- Title: EonPlay::Data::Playlist::removeItems Pages: 1 -->
<svg width="459pt" height="134pt"
 viewBox="0.00 0.00 459.00 134.00" xmlns="http://www.w3.org/2000/svg" xmlns:xlink="http://www.w3.org/1999/xlink">
<g id="graph0" class="graph" transform="scale(1 1) rotate(0) translate(4 130)">
<title>EonPlay::Data::Playlist::removeItems</title>
<!-- Node1 -->
<g id="Node000001" class="node">
<title>Node1</title>
<g id="a_Node000001"><a xlink:title=" ">
<polygon fill="#999999" stroke="#666666" points="126,-78 0,-78 0,-48 126,-48 126,-78"/>
<text text-anchor="start" x="8" y="-66" font-family="Helvetica,sans-Serif" font-size="10.00">EonPlay::Data::Playlist</text>
<text text-anchor="middle" x="63" y="-55" font-family="Helvetica,sans-Serif" font-size="10.00">::removeItems</text>
</a>
</g>
</g>
<!-- Node2 -->
<g id="Node000002" class="node">
<title>Node2</title>
<g id="a_Node000002"><a xlink:href="../../d0/d00/classEonPlay_1_1Data_1_1Playlist.html#ab035dc491645b0d628f526ce82815d3c" target="_top" xlink:title=" ">
<polygon fill="white" stroke="#666666" points="288,-78 162,-78 162,-48 288,-48 288,-78"/>
<text text-anchor="start" x="170" y="-66" font-family="Helvetica,sans-Serif" font-size="10.00">EonPlay::Data::Playlist</text>
<text text-anchor="middle" x="225" y="-55" font-family="Helvetica,sans-Serif" font-size="10.00">::removeItem</text>
</a>
</g>
</g>
<!-- Node1&#45;&gt;Node2 -->
<g id="edge1_Node000001_Node000002" class="edge">
<title>Node1&#45;&gt;Node2</title>
<g id="a_edge1_Node000001_Node000002"><a xlink:title=" ">
<path fill="none" stroke="#63b8ff" d="M126.32,-63C134.62,-63 143.18,-63 151.63,-63"/>
<polygon fill="#63b8ff" stroke="#63b8ff" points="151.85,-66.5 161.85,-63 151.85,-59.5 151.85,-66.5"/>
</a>
</g>
</g>
<!-- Node3 -->
<g id="Node000003" class="node">
<title>Node3</title>
<g id="a_Node000003"><a xlink:href="../../d0/d00/classEonPlay_1_1Data_1_1Playlist.html#a1741a93f8967ecbf24486ae8baac00dd" target="_top" xlink:title=" ">
<polygon fill="white" stroke="#666666" points="451,-126 324,-126 324,-96 451,-96 451,-126"/>
<text text-anchor="start" x="332" y="-114" font-family="Helvetica,sans-Serif" font-size="10.00">EonPlay::Data::Playlist</text>
<text text-anchor="middle" x="387.5" y="-103" font-family="Helvetica,sans-Serif" font-size="10.00">::currentIndexChanged</text>
</a>
</g>
</g>
<!-- Node2&#45;&gt;Node3 -->
<g id="edge2_Node000002_Node000003" class="edge">
<title>Node2&#45;&gt;Node3</title>
<g id="a_edge2_Node000002_Node000003"><a xlink:title=" ">
<path fill="none" stroke="#63b8ff" d="M276.34,-78.06C292.33,-82.84 310.16,-88.17 326.74,-93.13"/>
<polygon fill="#63b8ff" stroke="#63b8ff" points="325.75,-96.49 336.34,-96 327.76,-89.78 325.75,-96.49"/>
</a>
</g>
</g>
<!-- Node4 -->
<g id="Node000004" class="node">
<title>Node4</title>
<g id="a_Node000004"><a xlink:href="../../d0/d00/classEonPlay_1_1Data_1_1Playlist.html#a298e729fa89f32e85374a767b22174d8" target="_top" xlink:title=" ">
<polygon fill="white" stroke="#666666" points="450.5,-78 324.5,-78 324.5,-48 450.5,-48 450.5,-78"/>
<text text-anchor="start" x="332.5" y="-66" font-family="Helvetica,sans-Serif" font-size="10.00">EonPlay::Data::Playlist</text>
<text text-anchor="middle" x="387.5" y="-55" font-family="Helvetica,sans-Serif" font-size="10.00">::itemRemoved</text>
</a>
</g>
</g>
<!-- Node2&#45;&gt;Node4 -->
<g id="edge3_Node000002_Node000004" class="edge">
<title>Node2&#45;&gt;Node4</title>
<g id="a_edge3_Node000002_Node000004"><a xlink:title=" ">
<path fill="none" stroke="#63b8ff" d="M288.05,-63C296.61,-63 305.46,-63 314.19,-63"/>
<polygon fill="#63b8ff" stroke="#63b8ff" points="314.35,-66.5 324.35,-63 314.35,-59.5 314.35,-66.5"/>
</a>
</g>
</g>
<!-- Node5 -->
<g id="Node000005" class="node">
<title>Node5</title>
<g id="a_Node000005"><a xlink:href="../../d0/d00/classEonPlay_1_1Data_1_1Playlist.html#ae6327fcd3e160fada15ea4522393bb60" target="_top" xlink:title=" ">
<polygon fill="white" stroke="#666666" points="450.5,-30 324.5,-30 324.5,0 450.5,0 450.5,-30"/>
<text text-anchor="start" x="332.5" y="-18" font-family="Helvetica,sans-Serif" font-size="10.00">EonPlay::Data::Playlist</text>
<text text-anchor="middle" x="387.5" y="-7" font-family="Helvetica,sans-Serif" font-size="10.00">::playlistModified</text>
</a>
</g>
</g>
<!-- Node2&#45;&gt;Node5 -->
<g id="edge4_Node000002_Node000005" class="edge">
<title>Node2&#45;&gt;Node5</title>
<g id="a_edge4_Node000002_Node000005"><a xlink:title=" ">
<path fill="none" stroke="#63b8ff" d="M276.34,-47.94C292.33,-43.16 310.16,-37.83 326.74,-32.87"/>
<polygon fill="#63b8ff" stroke="#63b8ff" points="327.76,-36.22 336.34,-30 325.75,-29.51 327.76,-36.22"/>
</a>
</g>
</g>
</g>
</svg>
