<?xml version="1.0" encoding="UTF-8" standalone="no"?>
<!DOCTYPE svg PUBLIC "-//W3C//DTD SVG 1.1//EN"
 "http://www.w3.org/Graphics/SVG/1.1/DTD/svg11.dtd">
<!-- Generated by graphviz version 2.43.0 (0)
 -->
<!-- Title: EonPlay::Data::Playlist::currentIndexChanged Pages: 1 -->
<svg width="459pt" height="182pt"
 viewBox="0.00 0.00 459.00 182.00" xmlns="http://www.w3.org/2000/svg" xmlns:xlink="http://www.w3.org/1999/xlink">
<g id="graph0" class="graph" transform="scale(1 1) rotate(0) translate(4 178)">
<title>EonPlay::Data::Playlist::currentIndexChanged</title>
<!-- Node1 -->
<g id="Node000001" class="node">
<title>Node1</title>
<g id="a_Node000001"><a xlink:title=" ">
<polygon fill="#999999" stroke="#666666" points="451,-102 324,-102 324,-72 451,-72 451,-102"/>
<text text-anchor="start" x="332" y="-90" font-family="Helvetica,sans-Serif" font-size="10.00">EonPlay::Data::Playlist</text>
<text text-anchor="middle" x="387.5" y="-79" font-family="Helvetica,sans-Serif" font-size="10.00">::currentIndexChanged</text>
</a>
</g>
</g>
<!-- Node2 -->
<g id="Node000002" class="node">
<title>Node2</title>
<g id="a_Node000002"><a xlink:href="../../d0/d00/classEonPlay_1_1Data_1_1Playlist.html#a695b8db0a05ac3e7d3986788976a5ff9" target="_top" xlink:title=" ">
<polygon fill="white" stroke="#666666" points="288,-174 162,-174 162,-144 288,-144 288,-174"/>
<text text-anchor="start" x="170" y="-162" font-family="Helvetica,sans-Serif" font-size="10.00">EonPlay::Data::Playlist</text>
<text text-anchor="middle" x="225" y="-151" font-family="Helvetica,sans-Serif" font-size="10.00">::clear</text>
</a>
</g>
</g>
<!-- Node1&#45;&gt;Node2 -->
<g id="edge1_Node000001_Node000002" class="edge">
<title>Node1&#45;&gt;Node2</title>
<g id="a_edge1_Node000001_Node000002"><a xlink:title=" ">
<path fill="none" stroke="#63b8ff" d="M348,-106.69C329.95,-115.68 308.04,-126.25 288,-135 281.02,-138.05 273.51,-141.12 266.22,-144"/>
<polygon fill="#63b8ff" stroke="#63b8ff" points="349.69,-109.76 357.06,-102.15 346.55,-103.5 349.69,-109.76"/>
</a>
</g>
</g>
<!-- Node3 -->
<g id="Node000003" class="node">
<title>Node3</title>
<g id="a_Node000003"><a xlink:href="../../d0/d00/classEonPlay_1_1Data_1_1Playlist.html#afb4db675b9d1b2d98fc92127cb1d466c" target="_top" xlink:title=" ">
<polygon fill="white" stroke="#666666" points="288,-126 162,-126 162,-96 288,-96 288,-126"/>
<text text-anchor="start" x="170" y="-114" font-family="Helvetica,sans-Serif" font-size="10.00">EonPlay::Data::Playlist</text>
<text text-anchor="middle" x="225" y="-103" font-family="Helvetica,sans-Serif" font-size="10.00">::moveItem</text>
</a>
</g>
</g>
<!-- Node1&#45;&gt;Node3 -->
<g id="edge2_Node000001_Node000003" class="edge">
<title>Node1&#45;&gt;Node3</title>
<g id="a_edge2_Node000001_Node000003"><a xlink:title=" ">
<path fill="none" stroke="#63b8ff" d="M313.93,-97.85C305.3,-99.14 296.55,-100.45 288.08,-101.72"/>
<polygon fill="#63b8ff" stroke="#63b8ff" points="314.61,-101.29 323.99,-96.35 313.58,-94.37 314.61,-101.29"/>
</a>
</g>
</g>
<!-- Node4 -->
<g id="Node000004" class="node">
<title>Node4</title>
<g id="a_Node000004"><a xlink:href="../../d0/d00/classEonPlay_1_1Data_1_1Playlist.html#ab035dc491645b0d628f526ce82815d3c" target="_top" xlink:title=" ">
<polygon fill="white" stroke="#666666" points="288,-78 162,-78 162,-48 288,-48 288,-78"/>
<text text-anchor="start" x="170" y="-66" font-family="Helvetica,sans-Serif" font-size="10.00">EonPlay::Data::Playlist</text>
<text text-anchor="middle" x="225" y="-55" font-family="Helvetica,sans-Serif" font-size="10.00">::removeItem</text>
</a>
</g>
</g>
<!-- Node1&#45;&gt;Node4 -->
<g id="edge3_Node000001_Node000004" class="edge">
<title>Node1&#45;&gt;Node4</title>
<g id="a_edge3_Node000001_Node000004"><a xlink:title=" ">
<path fill="none" stroke="#63b8ff" d="M313.93,-76.15C305.3,-74.86 296.55,-73.55 288.08,-72.28"/>
<polygon fill="#63b8ff" stroke="#63b8ff" points="313.58,-79.63 323.99,-77.65 314.61,-72.71 313.58,-79.63"/>
</a>
</g>
</g>
<!-- Node7 -->
<g id="Node000007" class="node">
<title>Node7</title>
<g id="a_Node000007"><a xlink:href="../../d0/d00/classEonPlay_1_1Data_1_1Playlist.html#a59e11883890176b2649c64333b9114ed" target="_top" xlink:title=" ">
<polygon fill="white" stroke="#666666" points="288,-30 162,-30 162,0 288,0 288,-30"/>
<text text-anchor="start" x="170" y="-18" font-family="Helvetica,sans-Serif" font-size="10.00">EonPlay::Data::Playlist</text>
<text text-anchor="middle" x="225" y="-7" font-family="Helvetica,sans-Serif" font-size="10.00">::setCurrentIndex</text>
</a>
</g>
</g>
<!-- Node1&#45;&gt;Node7 -->
<g id="edge6_Node000001_Node000007" class="edge">
<title>Node1&#45;&gt;Node7</title>
<g id="a_edge6_Node000001_Node000007"><a xlink:title=" ">
<path fill="none" stroke="#63b8ff" d="M348,-67.31C329.95,-58.32 308.04,-47.75 288,-39 281.02,-35.95 273.51,-32.88 266.22,-30"/>
<polygon fill="#63b8ff" stroke="#63b8ff" points="346.55,-70.5 357.06,-71.85 349.69,-64.24 346.55,-70.5"/>
</a>
</g>
</g>
<!-- Node5 -->
<g id="Node000005" class="node">
<title>Node5</title>
<g id="a_Node000005"><a xlink:href="../../d0/d00/classEonPlay_1_1Data_1_1Playlist.html#abe7ca2f792b59771d68dd4925e5da42e" target="_top" xlink:title=" ">
<polygon fill="white" stroke="#666666" points="126,-102 0,-102 0,-72 126,-72 126,-102"/>
<text text-anchor="start" x="8" y="-90" font-family="Helvetica,sans-Serif" font-size="10.00">EonPlay::Data::Playlist</text>
<text text-anchor="middle" x="63" y="-79" font-family="Helvetica,sans-Serif" font-size="10.00">::removeItem</text>
</a>
</g>
</g>
<!-- Node4&#45;&gt;Node5 -->
<g id="edge4_Node000004_Node000005" class="edge">
<title>Node4&#45;&gt;Node5</title>
<g id="a_edge4_Node000004_Node000005"><a xlink:title=" ">
<path fill="none" stroke="#63b8ff" d="M151.73,-73.84C143.19,-75.12 134.53,-76.42 126.15,-77.68"/>
<polygon fill="#63b8ff" stroke="#63b8ff" points="152.31,-77.29 161.68,-72.35 151.27,-70.37 152.31,-77.29"/>
</a>
</g>
</g>
<!-- Node6 -->
<g id="Node000006" class="node">
<title>Node6</title>
<g id="a_Node000006"><a xlink:href="../../d0/d00/classEonPlay_1_1Data_1_1Playlist.html#ac4194490570c588f1de7121de065b249" target="_top" xlink:title=" ">
<polygon fill="white" stroke="#666666" points="126,-54 0,-54 0,-24 126,-24 126,-54"/>
<text text-anchor="start" x="8" y="-42" font-family="Helvetica,sans-Serif" font-size="10.00">EonPlay::Data::Playlist</text>
<text text-anchor="middle" x="63" y="-31" font-family="Helvetica,sans-Serif" font-size="10.00">::removeItems</text>
</a>
</g>
</g>
<!-- Node4&#45;&gt;Node6 -->
<g id="edge5_Node000004_Node000006" class="edge">
<title>Node4&#45;&gt;Node6</title>
<g id="a_edge5_Node000004_Node000006"><a xlink:title=" ">
<path fill="none" stroke="#63b8ff" d="M151.73,-52.16C143.19,-50.88 134.53,-49.58 126.15,-48.32"/>
<polygon fill="#63b8ff" stroke="#63b8ff" points="151.27,-55.63 161.68,-53.65 152.31,-48.71 151.27,-55.63"/>
</a>
</g>
</g>
</g>
</svg>
