<?xml version="1.0" encoding="UTF-8" standalone="no"?>
<!DOCTYPE svg PUBLIC "-//W3C//DTD SVG 1.1//EN"
 "http://www.w3.org/Graphics/SVG/1.1/DTD/svg11.dtd">
<!-- Generated by graphviz version 2.43.0 (0)
 -->
<!-- Title: EonPlay::Data::Playlist::save Pages: 1 -->
<svg width="564pt" height="268pt"
 viewBox="0.00 0.00 564.00 268.00" xmlns="http://www.w3.org/2000/svg" xmlns:xlink="http://www.w3.org/1999/xlink">
<g id="graph0" class="graph" transform="scale(1 1) rotate(0) translate(4 264)">
<title>EonPlay::Data::Playlist::save</title>
<!-- Node1 -->
<g id="Node000001" class="node">
<title>Node1</title>
<g id="a_Node000001"><a xlink:title=" ">
<polygon fill="#999999" stroke="#666666" points="126,-140 0,-140 0,-110 126,-110 126,-140"/>
<text text-anchor="start" x="8" y="-128" font-family="Helvetica,sans-Serif" font-size="10.00">EonPlay::Data::Playlist</text>
<text text-anchor="middle" x="63" y="-117" font-family="Helvetica,sans-Serif" font-size="10.00">::save</text>
</a>
</g>
</g>
<!-- Node2 -->
<g id="Node000002" class="node">
<title>Node2</title>
<g id="a_Node000002"><a xlink:href="../../da/db6/classEonPlay_1_1Data_1_1DatabaseManager.html#aca1d848bb9b4f1a489f0bd42dbb3a423" target="_top" xlink:title=" ">
<polygon fill="white" stroke="#666666" points="341,-260 162,-260 162,-230 341,-230 341,-260"/>
<text text-anchor="start" x="170" y="-248" font-family="Helvetica,sans-Serif" font-size="10.00">EonPlay::Data::DatabaseManager</text>
<text text-anchor="middle" x="251.5" y="-237" font-family="Helvetica,sans-Serif" font-size="10.00">::addToPlaylist</text>
</a>
</g>
</g>
<!-- Node1&#45;&gt;Node2 -->
<g id="edge1_Node000001_Node000002" class="edge">
<title>Node1&#45;&gt;Node2</title>
<g id="a_edge1_Node000001_Node000002"><a xlink:title=" ">
<path fill="none" stroke="#63b8ff" d="M75.22,-140.08C91.83,-161.32 125,-199.82 162,-221 165.06,-222.75 168.26,-224.38 171.54,-225.9"/>
<polygon fill="#63b8ff" stroke="#63b8ff" points="170.41,-229.22 180.99,-229.87 173.13,-222.77 170.41,-229.22"/>
</a>
</g>
</g>
<!-- Node3 -->
<g id="Node000003" class="node">
<title>Node3</title>
<g id="a_Node000003"><a xlink:href="../../da/db6/classEonPlay_1_1Data_1_1DatabaseManager.html#a16184bd944b8c3a9ec5309c9b23f97dc" target="_top" xlink:title=" ">
<polygon fill="white" stroke="#666666" points="341,-212 162,-212 162,-182 341,-182 341,-212"/>
<text text-anchor="start" x="170" y="-200" font-family="Helvetica,sans-Serif" font-size="10.00">EonPlay::Data::DatabaseManager</text>
<text text-anchor="middle" x="251.5" y="-189" font-family="Helvetica,sans-Serif" font-size="10.00">::clearPlaylist</text>
</a>
</g>
</g>
<!-- Node1&#45;&gt;Node3 -->
<g id="edge2_Node000001_Node000003" class="edge">
<title>Node1&#45;&gt;Node3</title>
<g id="a_edge2_Node000001_Node000003"><a xlink:title=" ">
<path fill="none" stroke="#63b8ff" d="M91.26,-140.1C110.58,-150.37 137.36,-163.72 162,-173 167.54,-175.08 173.33,-177.07 179.19,-178.94"/>
<polygon fill="#63b8ff" stroke="#63b8ff" points="178.49,-182.39 189.08,-181.98 180.55,-175.7 178.49,-182.39"/>
</a>
</g>
</g>
<!-- Node4 -->
<g id="Node000004" class="node">
<title>Node4</title>
<g id="a_Node000004"><a xlink:href="../../da/db6/classEonPlay_1_1Data_1_1DatabaseManager.html#adf772dde7757e0cbca6f48dd143d884c" target="_top" xlink:title=" ">
<polygon fill="white" stroke="#666666" points="341,-164 162,-164 162,-134 341,-134 341,-164"/>
<text text-anchor="start" x="170" y="-152" font-family="Helvetica,sans-Serif" font-size="10.00">EonPlay::Data::DatabaseManager</text>
<text text-anchor="middle" x="251.5" y="-141" font-family="Helvetica,sans-Serif" font-size="10.00">::createPlaylist</text>
</a>
</g>
</g>
<!-- Node1&#45;&gt;Node4 -->
<g id="edge3_Node000001_Node000004" class="edge">
<title>Node1&#45;&gt;Node4</title>
<g id="a_edge3_Node000001_Node000004"><a xlink:title=" ">
<path fill="none" stroke="#63b8ff" d="M126.1,-132.99C134.33,-134.05 142.92,-135.16 151.57,-136.27"/>
<polygon fill="#63b8ff" stroke="#63b8ff" points="151.38,-139.77 161.75,-137.58 152.28,-132.83 151.38,-139.77"/>
</a>
</g>
</g>
<!-- Node5 -->
<g id="Node000005" class="node">
<title>Node5</title>
<g id="a_Node000005"><a xlink:href="../../de/dc7/classEonPlay_1_1Data_1_1MediaFile.html#a7eb834a0663186a43f3eacb12d18ded7" target="_top" xlink:title=" ">
<polygon fill="white" stroke="#666666" points="320,-116 183,-116 183,-86 320,-86 320,-116"/>
<text text-anchor="start" x="191" y="-104" font-family="Helvetica,sans-Serif" font-size="10.00">EonPlay::Data::MediaFile</text>
<text text-anchor="middle" x="251.5" y="-93" font-family="Helvetica,sans-Serif" font-size="10.00">::filePath</text>
</a>
</g>
</g>
<!-- Node1&#45;&gt;Node5 -->
<g id="edge4_Node000001_Node000005" class="edge">
<title>Node1&#45;&gt;Node5</title>
<g id="a_edge4_Node000001_Node000005"><a xlink:title=" ">
<path fill="none" stroke="#63b8ff" d="M126.1,-117.01C141.05,-115.08 157.21,-113.01 172.77,-111"/>
<polygon fill="#63b8ff" stroke="#63b8ff" points="173.43,-114.45 182.9,-109.7 172.53,-107.5 173.43,-114.45"/>
</a>
</g>
</g>
<!-- Node6 -->
<g id="Node000006" class="node">
<title>Node6</title>
<g id="a_Node000006"><a xlink:href="../../de/dc7/classEonPlay_1_1Data_1_1MediaFile.html#aeb83eaa447b5b8ee7ffd807ba13f91de" target="_top" xlink:title=" ">
<polygon fill="white" stroke="#666666" points="327.5,-67.5 175.5,-67.5 175.5,-48.5 327.5,-48.5 327.5,-67.5"/>
<text text-anchor="middle" x="251.5" y="-55.5" font-family="Helvetica,sans-Serif" font-size="10.00">EonPlay::Data::MediaFile::id</text>
</a>
</g>
</g>
<!-- Node1&#45;&gt;Node6 -->
<g id="edge5_Node000001_Node000006" class="edge">
<title>Node1&#45;&gt;Node6</title>
<g id="a_edge5_Node000001_Node000006"><a xlink:title=" ">
<path fill="none" stroke="#63b8ff" d="M90.28,-109.94C109.59,-99.42 136.76,-85.74 162,-77 169.6,-74.37 177.7,-72.03 185.8,-69.97"/>
<polygon fill="#63b8ff" stroke="#63b8ff" points="186.73,-73.34 195.63,-67.6 185.09,-66.54 186.73,-73.34"/>
</a>
</g>
</g>
<!-- Node7 -->
<g id="Node000007" class="node">
<title>Node7</title>
<g id="a_Node000007"><a xlink:href="../../da/db6/classEonPlay_1_1Data_1_1DatabaseManager.html#a8d7f20255de6ed1c6492804aeb6e3d30" target="_top" xlink:title=" ">
<polygon fill="white" stroke="#666666" points="341,-30 162,-30 162,0 341,0 341,-30"/>
<text text-anchor="start" x="170" y="-18" font-family="Helvetica,sans-Serif" font-size="10.00">EonPlay::Data::DatabaseManager</text>
<text text-anchor="middle" x="251.5" y="-7" font-family="Helvetica,sans-Serif" font-size="10.00">::updatePlaylist</text>
</a>
</g>
</g>
<!-- Node1&#45;&gt;Node7 -->
<g id="edge6_Node000001_Node000007" class="edge">
<title>Node1&#45;&gt;Node7</title>
<g id="a_edge6_Node000001_Node000007"><a xlink:title=" ">
<path fill="none" stroke="#63b8ff" d="M77.41,-109.82C95.01,-90.82 127.71,-58.51 162,-40 166.17,-37.75 170.57,-35.68 175.07,-33.79"/>
<polygon fill="#63b8ff" stroke="#63b8ff" points="176.4,-37.03 184.46,-30.15 173.87,-30.51 176.4,-37.03"/>
</a>
</g>
</g>
<!-- Node8 -->
<g id="Node000008" class="node">
<title>Node8</title>
<g id="a_Node000008"><a xlink:href="../../da/db6/classEonPlay_1_1Data_1_1DatabaseManager.html#a17c3a9ed1ea5a58d450bd7311bddb41c" target="_top" xlink:title=" ">
<polygon fill="white" stroke="#666666" points="556,-30 377,-30 377,0 556,0 556,-30"/>
<text text-anchor="start" x="385" y="-18" font-family="Helvetica,sans-Serif" font-size="10.00">EonPlay::Data::DatabaseManager</text>
<text text-anchor="middle" x="466.5" y="-7" font-family="Helvetica,sans-Serif" font-size="10.00">::prepareQuery</text>
</a>
</g>
</g>
<!-- Node7&#45;&gt;Node8 -->
<g id="edge7_Node000007_Node000008" class="edge">
<title>Node7&#45;&gt;Node8</title>
<g id="a_edge7_Node000007_Node000008"><a xlink:title=" ">
<path fill="none" stroke="#63b8ff" d="M341.29,-15C349.65,-15 358.16,-15 366.6,-15"/>
<polygon fill="#63b8ff" stroke="#63b8ff" points="366.86,-18.5 376.86,-15 366.85,-11.5 366.86,-18.5"/>
</a>
</g>
</g>
</g>
</svg>
