<?xml version="1.0" encoding="UTF-8" standalone="no"?>
<!DOCTYPE svg PUBLIC "-//W3C//DTD SVG 1.1//EN"
 "http://www.w3.org/Graphics/SVG/1.1/DTD/svg11.dtd">
<!-- Generated by graphviz version 2.43.0 (0)
 -->
<!-- Title: EonPlay::Data::Playlist::playlistModified Pages: 1 -->
<svg width="458pt" height="254pt"
 viewBox="0.00 0.00 458.00 254.00" xmlns="http://www.w3.org/2000/svg" xmlns:xlink="http://www.w3.org/1999/xlink">
<g id="graph0" class="graph" transform="scale(1 1) rotate(0) translate(4 250)">
<title>EonPlay::Data::Playlist::playlistModified</title>
<!-- Node1 -->
<g id="Node000001" class="node">
<title>Node1</title>
<g id="a_Node000001"><a xlink:title=" ">
<polygon fill="#999999" stroke="#666666" points="450,-150 324,-150 324,-120 450,-120 450,-150"/>
<text text-anchor="start" x="332" y="-138" font-family="Helvetica,sans-Serif" font-size="10.00">EonPlay::Data::Playlist</text>
<text text-anchor="middle" x="387" y="-127" font-family="Helvetica,sans-Serif" font-size="10.00">::playlistModified</text>
</a>
</g>
</g>
<!-- Node2 -->
<g id="Node000002" class="node">
<title>Node2</title>
<g id="a_Node000002"><a xlink:href="../../d0/d00/classEonPlay_1_1Data_1_1Playlist.html#a27a5870aa7756eaf5534e49f21887bad" target="_top" xlink:title=" ">
<polygon fill="white" stroke="#666666" points="288,-246 162,-246 162,-216 288,-216 288,-246"/>
<text text-anchor="start" x="170" y="-234" font-family="Helvetica,sans-Serif" font-size="10.00">EonPlay::Data::Playlist</text>
<text text-anchor="middle" x="225" y="-223" font-family="Helvetica,sans-Serif" font-size="10.00">::addItems</text>
</a>
</g>
</g>
<!-- Node1&#45;&gt;Node2 -->
<g id="edge1_Node000001_Node000002" class="edge">
<title>Node1&#45;&gt;Node2</title>
<g id="a_edge1_Node000001_Node000002"><a xlink:title=" ">
<path fill="none" stroke="#63b8ff" d="M360.64,-156.55C341.56,-172.02 314.29,-192.59 288,-207 282.13,-210.22 275.74,-213.21 269.36,-215.91"/>
<polygon fill="#63b8ff" stroke="#63b8ff" points="363.04,-159.11 368.54,-150.05 358.6,-153.7 363.04,-159.11"/>
</a>
</g>
</g>
<!-- Node3 -->
<g id="Node000003" class="node">
<title>Node3</title>
<g id="a_Node000003"><a xlink:href="../../d0/d00/classEonPlay_1_1Data_1_1Playlist.html#a695b8db0a05ac3e7d3986788976a5ff9" target="_top" xlink:title=" ">
<polygon fill="white" stroke="#666666" points="288,-198 162,-198 162,-168 288,-168 288,-198"/>
<text text-anchor="start" x="170" y="-186" font-family="Helvetica,sans-Serif" font-size="10.00">EonPlay::Data::Playlist</text>
<text text-anchor="middle" x="225" y="-175" font-family="Helvetica,sans-Serif" font-size="10.00">::clear</text>
</a>
</g>
</g>
<!-- Node1&#45;&gt;Node3 -->
<g id="edge2_Node000001_Node000003" class="edge">
<title>Node1&#45;&gt;Node3</title>
<g id="a_edge2_Node000001_Node000003"><a xlink:title=" ">
<path fill="none" stroke="#63b8ff" d="M325.78,-153.07C309.37,-157.99 291.78,-163.27 276.01,-168"/>
<polygon fill="#63b8ff" stroke="#63b8ff" points="327.24,-156.28 335.81,-150.06 325.23,-149.58 327.24,-156.28"/>
</a>
</g>
</g>
<!-- Node4 -->
<g id="Node000004" class="node">
<title>Node4</title>
<g id="a_Node000004"><a xlink:href="../../d0/d00/classEonPlay_1_1Data_1_1Playlist.html#a842c9a92e0bcf7f4ce38497354779d89" target="_top" xlink:title=" ">
<polygon fill="white" stroke="#666666" points="288,-150 162,-150 162,-120 288,-120 288,-150"/>
<text text-anchor="start" x="170" y="-138" font-family="Helvetica,sans-Serif" font-size="10.00">EonPlay::Data::Playlist</text>
<text text-anchor="middle" x="225" y="-127" font-family="Helvetica,sans-Serif" font-size="10.00">::insertItem</text>
</a>
</g>
</g>
<!-- Node1&#45;&gt;Node4 -->
<g id="edge3_Node000001_Node000004" class="edge">
<title>Node1&#45;&gt;Node4</title>
<g id="a_edge3_Node000001_Node000004"><a xlink:title=" ">
<path fill="none" stroke="#63b8ff" d="M313.45,-135C305,-135 296.44,-135 288.15,-135"/>
<polygon fill="#63b8ff" stroke="#63b8ff" points="313.68,-138.5 323.68,-135 313.68,-131.5 313.68,-138.5"/>
</a>
</g>
</g>
<!-- Node6 -->
<g id="Node000006" class="node">
<title>Node6</title>
<g id="a_Node000006"><a xlink:href="../../d0/d00/classEonPlay_1_1Data_1_1Playlist.html#afb4db675b9d1b2d98fc92127cb1d466c" target="_top" xlink:title=" ">
<polygon fill="white" stroke="#666666" points="288,-102 162,-102 162,-72 288,-72 288,-102"/>
<text text-anchor="start" x="170" y="-90" font-family="Helvetica,sans-Serif" font-size="10.00">EonPlay::Data::Playlist</text>
<text text-anchor="middle" x="225" y="-79" font-family="Helvetica,sans-Serif" font-size="10.00">::moveItem</text>
</a>
</g>
</g>
<!-- Node1&#45;&gt;Node6 -->
<g id="edge5_Node000001_Node000006" class="edge">
<title>Node1&#45;&gt;Node6</title>
<g id="a_edge5_Node000001_Node000006"><a xlink:title=" ">
<path fill="none" stroke="#63b8ff" d="M325.78,-116.93C309.37,-112.01 291.78,-106.73 276.01,-102"/>
<polygon fill="#63b8ff" stroke="#63b8ff" points="325.23,-120.42 335.81,-119.94 327.24,-113.72 325.23,-120.42"/>
</a>
</g>
</g>
<!-- Node7 -->
<g id="Node000007" class="node">
<title>Node7</title>
<g id="a_Node000007"><a xlink:href="../../d0/d00/classEonPlay_1_1Data_1_1Playlist.html#ab035dc491645b0d628f526ce82815d3c" target="_top" xlink:title=" ">
<polygon fill="white" stroke="#666666" points="288,-54 162,-54 162,-24 288,-24 288,-54"/>
<text text-anchor="start" x="170" y="-42" font-family="Helvetica,sans-Serif" font-size="10.00">EonPlay::Data::Playlist</text>
<text text-anchor="middle" x="225" y="-31" font-family="Helvetica,sans-Serif" font-size="10.00">::removeItem</text>
</a>
</g>
</g>
<!-- Node1&#45;&gt;Node7 -->
<g id="edge6_Node000001_Node000007" class="edge">
<title>Node1&#45;&gt;Node7</title>
<g id="a_edge6_Node000001_Node000007"><a xlink:title=" ">
<path fill="none" stroke="#63b8ff" d="M360.64,-113.45C341.56,-97.98 314.29,-77.41 288,-63 282.13,-59.78 275.74,-56.79 269.36,-54.09"/>
<polygon fill="#63b8ff" stroke="#63b8ff" points="358.6,-116.3 368.54,-119.95 363.04,-110.89 358.6,-116.3"/>
</a>
</g>
</g>
<!-- Node5 -->
<g id="Node000005" class="node">
<title>Node5</title>
<g id="a_Node000005"><a xlink:href="../../d0/d00/classEonPlay_1_1Data_1_1Playlist.html#a634b1e1d5a94f1ac3f196dcd490eb242" target="_top" xlink:title=" ">
<polygon fill="white" stroke="#666666" points="126,-150 0,-150 0,-120 126,-120 126,-150"/>
<text text-anchor="start" x="8" y="-138" font-family="Helvetica,sans-Serif" font-size="10.00">EonPlay::Data::Playlist</text>
<text text-anchor="middle" x="63" y="-127" font-family="Helvetica,sans-Serif" font-size="10.00">::addItem</text>
</a>
</g>
</g>
<!-- Node4&#45;&gt;Node5 -->
<g id="edge4_Node000004_Node000005" class="edge">
<title>Node4&#45;&gt;Node5</title>
<g id="a_edge4_Node000004_Node000005"><a xlink:title=" ">
<path fill="none" stroke="#63b8ff" d="M151.45,-135C143,-135 134.44,-135 126.15,-135"/>
<polygon fill="#63b8ff" stroke="#63b8ff" points="151.68,-138.5 161.68,-135 151.68,-131.5 151.68,-138.5"/>
</a>
</g>
</g>
<!-- Node8 -->
<g id="Node000008" class="node">
<title>Node8</title>
<g id="a_Node000008"><a xlink:href="../../d0/d00/classEonPlay_1_1Data_1_1Playlist.html#abe7ca2f792b59771d68dd4925e5da42e" target="_top" xlink:title=" ">
<polygon fill="white" stroke="#666666" points="126,-78 0,-78 0,-48 126,-48 126,-78"/>
<text text-anchor="start" x="8" y="-66" font-family="Helvetica,sans-Serif" font-size="10.00">EonPlay::Data::Playlist</text>
<text text-anchor="middle" x="63" y="-55" font-family="Helvetica,sans-Serif" font-size="10.00">::removeItem</text>
</a>
</g>
</g>
<!-- Node7&#45;&gt;Node8 -->
<g id="edge7_Node000007_Node000008" class="edge">
<title>Node7&#45;&gt;Node8</title>
<g id="a_edge7_Node000007_Node000008"><a xlink:title=" ">
<path fill="none" stroke="#63b8ff" d="M151.73,-49.84C143.19,-51.12 134.53,-52.42 126.15,-53.68"/>
<polygon fill="#63b8ff" stroke="#63b8ff" points="152.31,-53.29 161.68,-48.35 151.27,-46.37 152.31,-53.29"/>
</a>
</g>
</g>
<!-- Node9 -->
<g id="Node000009" class="node">
<title>Node9</title>
<g id="a_Node000009"><a xlink:href="../../d0/d00/classEonPlay_1_1Data_1_1Playlist.html#ac4194490570c588f1de7121de065b249" target="_top" xlink:title=" ">
<polygon fill="white" stroke="#666666" points="126,-30 0,-30 0,0 126,0 126,-30"/>
<text text-anchor="start" x="8" y="-18" font-family="Helvetica,sans-Serif" font-size="10.00">EonPlay::Data::Playlist</text>
<text text-anchor="middle" x="63" y="-7" font-family="Helvetica,sans-Serif" font-size="10.00">::removeItems</text>
</a>
</g>
</g>
<!-- Node7&#45;&gt;Node9 -->
<g id="edge8_Node000007_Node000009" class="edge">
<title>Node7&#45;&gt;Node9</title>
<g id="a_edge8_Node000007_Node000009"><a xlink:title=" ">
<path fill="none" stroke="#63b8ff" d="M151.73,-28.16C143.19,-26.88 134.53,-25.58 126.15,-24.32"/>
<polygon fill="#63b8ff" stroke="#63b8ff" points="151.27,-31.63 161.68,-29.65 152.31,-24.71 151.27,-31.63"/>
</a>
</g>
</g>
</g>
</svg>
