<?xml version="1.0" encoding="UTF-8" standalone="no"?>
<!DOCTYPE svg PUBLIC "-//W3C//DTD SVG 1.1//EN"
 "http://www.w3.org/Graphics/SVG/1.1/DTD/svg11.dtd">
<!-- Generated by graphviz version 2.43.0 (0)
 -->
<!-- Title: EonPlay::Data::Playlist::exportToPLS Pages: 1 -->
<svg width="653pt" height="172pt"
 viewBox="0.00 0.00 653.00 172.00" xmlns="http://www.w3.org/2000/svg" xmlns:xlink="http://www.w3.org/1999/xlink">
<g id="graph0" class="graph" transform="scale(1 1) rotate(0) translate(4 168)">
<title>EonPlay::Data::Playlist::exportToPLS</title>
<!-- Node1 -->
<g id="Node000001" class="node">
<title>Node1</title>
<g id="a_Node000001"><a xlink:title=" ">
<polygon fill="#999999" stroke="#666666" points="126,-94 0,-94 0,-64 126,-64 126,-94"/>
<text text-anchor="start" x="8" y="-82" font-family="Helvetica,sans-Serif" font-size="10.00">EonPlay::Data::Playlist</text>
<text text-anchor="middle" x="63" y="-71" font-family="Helvetica,sans-Serif" font-size="10.00">::exportToPLS</text>
</a>
</g>
</g>
<!-- Node2 -->
<g id="Node000002" class="node">
<title>Node2</title>
<g id="a_Node000002"><a xlink:href="../../de/dc7/classEonPlay_1_1Data_1_1MediaFile.html#aa1324a8833d2f8bf2efd162a22ce0052" target="_top" xlink:title=" ">
<polygon fill="white" stroke="#666666" points="299,-164 162,-164 162,-134 299,-134 299,-164"/>
<text text-anchor="start" x="170" y="-152" font-family="Helvetica,sans-Serif" font-size="10.00">EonPlay::Data::MediaFile</text>
<text text-anchor="middle" x="230.5" y="-141" font-family="Helvetica,sans-Serif" font-size="10.00">::displayName</text>
</a>
</g>
</g>
<!-- Node1&#45;&gt;Node2 -->
<g id="edge1_Node000001_Node000002" class="edge">
<title>Node1&#45;&gt;Node2</title>
<g id="a_edge1_Node000001_Node000002"><a xlink:title=" ">
<path fill="none" stroke="#63b8ff" d="M94.12,-94.07C113.33,-103.45 138.88,-115.49 162,-125 166.44,-126.83 171.07,-128.65 175.74,-130.42"/>
<polygon fill="#63b8ff" stroke="#63b8ff" points="174.74,-133.78 185.33,-133.99 177.18,-127.22 174.74,-133.78"/>
</a>
</g>
</g>
<!-- Node5 -->
<g id="Node000005" class="node">
<title>Node5</title>
<g id="a_Node000005"><a xlink:href="../../de/dc7/classEonPlay_1_1Data_1_1MediaFile.html#a9f59cdb65f31f8506749bd6984339c0f" target="_top" xlink:title=" ">
<polygon fill="white" stroke="#666666" points="299,-116 162,-116 162,-86 299,-86 299,-116"/>
<text text-anchor="start" x="170" y="-104" font-family="Helvetica,sans-Serif" font-size="10.00">EonPlay::Data::MediaFile</text>
<text text-anchor="middle" x="230.5" y="-93" font-family="Helvetica,sans-Serif" font-size="10.00">::duration</text>
</a>
</g>
</g>
<!-- Node1&#45;&gt;Node5 -->
<g id="edge4_Node000001_Node000005" class="edge">
<title>Node1&#45;&gt;Node5</title>
<g id="a_edge4_Node000001_Node000005"><a xlink:title=" ">
<path fill="none" stroke="#63b8ff" d="M126.1,-87.25C134.47,-88.37 143.14,-89.52 151.74,-90.66"/>
<polygon fill="#63b8ff" stroke="#63b8ff" points="151.41,-94.15 161.79,-92 152.34,-87.21 151.41,-94.15"/>
</a>
</g>
</g>
<!-- Node6 -->
<g id="Node000006" class="node">
<title>Node6</title>
<g id="a_Node000006"><a xlink:href="../../de/dc7/classEonPlay_1_1Data_1_1MediaFile.html#ad640ac7e92f75f102d2828dc0b092eb0" target="_top" xlink:title=" ">
<polygon fill="white" stroke="#666666" points="472,-94 335,-94 335,-64 472,-64 472,-94"/>
<text text-anchor="start" x="343" y="-82" font-family="Helvetica,sans-Serif" font-size="10.00">EonPlay::Data::MediaFile</text>
<text text-anchor="middle" x="403.5" y="-71" font-family="Helvetica,sans-Serif" font-size="10.00">::fileExists</text>
</a>
</g>
</g>
<!-- Node1&#45;&gt;Node6 -->
<g id="edge5_Node000001_Node000006" class="edge">
<title>Node1&#45;&gt;Node6</title>
<g id="a_edge5_Node000001_Node000006"><a xlink:title=" ">
<path fill="none" stroke="#63b8ff" d="M126.21,-77.54C138.09,-77.31 150.43,-77.12 162,-77 222.89,-76.38 238.11,-76.41 299,-77 307.33,-77.08 316.04,-77.2 324.71,-77.33"/>
<polygon fill="#63b8ff" stroke="#63b8ff" points="324.8,-80.84 334.86,-77.5 324.92,-73.84 324.8,-80.84"/>
</a>
</g>
</g>
<!-- Node7 -->
<g id="Node000007" class="node">
<title>Node7</title>
<g id="a_Node000007"><a xlink:href="../../de/dc7/classEonPlay_1_1Data_1_1MediaFile.html#a7eb834a0663186a43f3eacb12d18ded7" target="_top" xlink:title=" ">
<polygon fill="white" stroke="#666666" points="299,-30 162,-30 162,0 299,0 299,-30"/>
<text text-anchor="start" x="170" y="-18" font-family="Helvetica,sans-Serif" font-size="10.00">EonPlay::Data::MediaFile</text>
<text text-anchor="middle" x="230.5" y="-7" font-family="Helvetica,sans-Serif" font-size="10.00">::filePath</text>
</a>
</g>
</g>
<!-- Node1&#45;&gt;Node7 -->
<g id="edge7_Node000001_Node000007" class="edge">
<title>Node1&#45;&gt;Node7</title>
<g id="a_edge7_Node000001_Node000007"><a xlink:title=" ">
<path fill="none" stroke="#63b8ff" d="M102.8,-63.99C126.17,-54.96 156.11,-43.38 181.03,-33.75"/>
<polygon fill="#63b8ff" stroke="#63b8ff" points="182.59,-36.89 190.65,-30.02 180.07,-30.36 182.59,-36.89"/>
</a>
</g>
</g>
<!-- Node3 -->
<g id="Node000003" class="node">
<title>Node3</title>
<g id="a_Node000003"><a xlink:href="../../de/dc7/classEonPlay_1_1Data_1_1MediaFile.html#a958e77f39952606beaf7e539b116aa48" target="_top" xlink:title=" ">
<polygon fill="white" stroke="#666666" points="472,-153 335,-153 335,-123 472,-123 472,-153"/>
<text text-anchor="start" x="343" y="-141" font-family="Helvetica,sans-Serif" font-size="10.00">EonPlay::Data::MediaFile</text>
<text text-anchor="middle" x="403.5" y="-130" font-family="Helvetica,sans-Serif" font-size="10.00">::fileName</text>
</a>
</g>
</g>
<!-- Node2&#45;&gt;Node3 -->
<g id="edge2_Node000002_Node000003" class="edge">
<title>Node2&#45;&gt;Node3</title>
<g id="a_edge2_Node000002_Node000003"><a xlink:title=" ">
<path fill="none" stroke="#63b8ff" d="M299.08,-144.65C307.54,-144.11 316.24,-143.55 324.83,-143"/>
<polygon fill="#63b8ff" stroke="#63b8ff" points="325.09,-146.49 334.85,-142.35 324.64,-139.5 325.09,-146.49"/>
</a>
</g>
</g>
<!-- Node4 -->
<g id="Node000004" class="node">
<title>Node4</title>
<g id="a_Node000004"><a xlink:href="../../de/dc7/classEonPlay_1_1Data_1_1MediaFile.html#ad3d64b0f06c4b50e4be23cba4b668680" target="_top" xlink:title=" ">
<polygon fill="white" stroke="#666666" points="645,-118 508,-118 508,-88 645,-88 645,-118"/>
<text text-anchor="start" x="516" y="-106" font-family="Helvetica,sans-Serif" font-size="10.00">EonPlay::Data::MediaFile</text>
<text text-anchor="middle" x="576.5" y="-95" font-family="Helvetica,sans-Serif" font-size="10.00">::fileInfo</text>
</a>
</g>
</g>
<!-- Node3&#45;&gt;Node4 -->
<g id="edge3_Node000003_Node000004" class="edge">
<title>Node3&#45;&gt;Node4</title>
<g id="a_edge3_Node000003_Node000004"><a xlink:title=" ">
<path fill="none" stroke="#63b8ff" d="M472.08,-124.17C480.54,-122.44 489.24,-120.66 497.83,-118.9"/>
<polygon fill="#63b8ff" stroke="#63b8ff" points="498.75,-122.28 507.85,-116.85 497.35,-115.42 498.75,-122.28"/>
</a>
</g>
</g>
<!-- Node6&#45;&gt;Node4 -->
<g id="edge6_Node000006_Node000004" class="edge">
<title>Node6&#45;&gt;Node4</title>
<g id="a_edge6_Node000006_Node000004"><a xlink:title=" ">
<path fill="none" stroke="#63b8ff" d="M472.08,-88.49C480.54,-89.67 489.24,-90.89 497.83,-92.1"/>
<polygon fill="#63b8ff" stroke="#63b8ff" points="497.46,-95.58 507.85,-93.5 498.43,-88.65 497.46,-95.58"/>
</a>
</g>
</g>
</g>
</svg>
