<?xml version="1.0" encoding="UTF-8" standalone="no"?>
<!DOCTYPE svg PUBLIC "-//W3C//DTD SVG 1.1//EN"
 "http://www.w3.org/Graphics/SVG/1.1/DTD/svg11.dtd">
<!-- Generated by graphviz version 2.43.0 (0)
 -->
<!-- Title: ASSParser::parseContent Pages: 1 -->
<svg width="495pt" height="198pt"
 viewBox="0.00 0.00 495.00 198.00" xmlns="http://www.w3.org/2000/svg" xmlns:xlink="http://www.w3.org/1999/xlink">

<svg id="main" version="1.1" xmlns="http://www.w3.org/2000/svg" xmlns:xlink="http://www.w3.org/1999/xlink" xml:space="preserve" onload="init(evt)">
<style type="text/css"><![CDATA[
.node, .edge {opacity: 0.7;}
.node.selected, .edge.selected {opacity: 1;}
.edge:hover path { stroke: red; }
.edge:hover polygon { stroke: red; fill: red; }
]]></style>
<script type="application/ecmascript" xlink:href="../../svg.min.js"/>
<svg id="graph" class="graph">
<g id="graph0" class="graph" transform="scale(1 1) rotate(0) translate(4 194)">
<title>ASSParser::parseContent</title>
<!-- Node1 -->
<g id="Node000001" class="node">
<title>Node1</title>
<g id="a_Node000001"><a xlink:title="Parse subtitle content and return subtitle track.">
<polygon fill="#999999" stroke="#666666" points="137,-110 0,-110 0,-91 137,-91 137,-110"/>
<text text-anchor="middle" x="68.5" y="-98" font-family="Helvetica,sans-Serif" font-size="10.00">ASSParser::parseContent</text>
</a>
</g>
</g>
<!-- Node2 -->
<g id="Node000002" class="node">
<title>Node2</title>
<g id="a_Node000002"><a xlink:href="../../d1/de3/classSubtitleTrack.html#a14288829f2168d06300faf875a2498f3" target="_top" xlink:title=" ">
<polygon fill="white" stroke="#666666" points="320,-190 185,-190 185,-171 320,-171 320,-190"/>
<text text-anchor="middle" x="252.5" y="-178" font-family="Helvetica,sans-Serif" font-size="10.00">SubtitleTrack::setFormat</text>
</a>
</g>
</g>
<!-- Node1&#45;&gt;Node2 -->
<g id="edge1_Node000001_Node000002" class="edge">
<title>Node1&#45;&gt;Node2</title>
<g id="a_edge1_Node000001_Node000002"><a xlink:title=" ">
<path fill="none" stroke="#63b8ff" d="M82.52,-110.15C101.47,-123.77 138.22,-148.5 173,-162.5 178.19,-164.59 183.67,-166.46 189.23,-168.14"/>
<polygon fill="#63b8ff" stroke="#63b8ff" points="188.7,-171.63 199.27,-170.95 190.59,-164.88 188.7,-171.63"/>
</a>
</g>
</g>
<!-- Node4 -->
<g id="Node000004" class="node">
<title>Node4</title>
<g id="a_Node000004"><a xlink:href="../../d1/de3/classSubtitleTrack.html#a6f59ca6817dc11a4f2ac0b30aeb8b97c" target="_top" xlink:title="Sort entries by start time.">
<polygon fill="white" stroke="#666666" points="323.5,-153 181.5,-153 181.5,-134 323.5,-134 323.5,-153"/>
<text text-anchor="middle" x="252.5" y="-141" font-family="Helvetica,sans-Serif" font-size="10.00">SubtitleTrack::sortByTime</text>
</a>
</g>
</g>
<!-- Node1&#45;&gt;Node4 -->
<g id="edge3_Node000001_Node000004" class="edge">
<title>Node1&#45;&gt;Node4</title>
<g id="a_edge3_Node000001_Node000004"><a xlink:title=" ">
<path fill="none" stroke="#63b8ff" d="M109.89,-110.04C136.87,-116.42 172.55,-124.85 201.35,-131.65"/>
<polygon fill="#63b8ff" stroke="#63b8ff" points="200.68,-135.09 211.22,-133.98 202.29,-128.28 200.68,-135.09"/>
</a>
</g>
</g>
<!-- Node5 -->
<g id="Node000005" class="node">
<title>Node5</title>
<g id="a_Node000005"><a xlink:href="../../dd/d74/structSubtitleParseResult.html#a615d239f4b9cc79cf5f16e38b3cbb584" target="_top" xlink:title="Get human&#45;readable result summary.">
<polygon fill="white" stroke="#666666" points="308,-115.5 197,-115.5 197,-85.5 308,-85.5 308,-115.5"/>
<text text-anchor="start" x="205" y="-103.5" font-family="Helvetica,sans-Serif" font-size="10.00">SubtitleParseResult</text>
<text text-anchor="middle" x="252.5" y="-92.5" font-family="Helvetica,sans-Serif" font-size="10.00">::summary</text>
</a>
</g>
</g>
<!-- Node1&#45;&gt;Node5 -->
<g id="edge4_Node000001_Node000005" class="edge">
<title>Node1&#45;&gt;Node5</title>
<g id="a_edge4_Node000001_Node000005"><a xlink:title=" ">
<path fill="none" stroke="#63b8ff" d="M137.01,-100.5C153.19,-100.5 170.44,-100.5 186.5,-100.5"/>
<polygon fill="#63b8ff" stroke="#63b8ff" points="186.87,-104 196.87,-100.5 186.87,-97 186.87,-104"/>
</a>
</g>
</g>
<!-- Node6 -->
<g id="Node000006" class="node">
<title>Node6</title>
<g id="a_Node000006"><a xlink:href="../../d0/dcf/classBaseSubtitleParser.html#a62679a3e71c2e13e63515fccb82f25e2" target="_top" xlink:title="Validate subtitle content for security issues.">
<polygon fill="white" stroke="#666666" points="306.5,-67.5 198.5,-67.5 198.5,-37.5 306.5,-37.5 306.5,-67.5"/>
<text text-anchor="start" x="206.5" y="-55.5" font-family="Helvetica,sans-Serif" font-size="10.00">BaseSubtitleParser</text>
<text text-anchor="middle" x="252.5" y="-44.5" font-family="Helvetica,sans-Serif" font-size="10.00">::validateContent</text>
</a>
</g>
</g>
<!-- Node1&#45;&gt;Node6 -->
<g id="edge5_Node000001_Node000006" class="edge">
<title>Node1&#45;&gt;Node6</title>
<g id="a_edge5_Node000001_Node000006"><a xlink:title=" ">
<path fill="none" stroke="#63b8ff" d="M105.89,-90.9C129.45,-84.69 160.76,-76.43 188.31,-69.17"/>
<polygon fill="#63b8ff" stroke="#63b8ff" points="189.49,-72.47 198.26,-66.54 187.7,-65.71 189.49,-72.47"/>
</a>
</g>
</g>
<!-- Node7 -->
<g id="Node000007" class="node">
<title>Node7</title>
<g id="a_Node000007"><a xlink:href="../../d1/de3/classSubtitleTrack.html#a2ef28446d8fc6e666d86a00b698d1241" target="_top" xlink:title="Validate all entries and remove invalid ones.">
<polygon fill="white" stroke="#666666" points="332,-19 173,-19 173,0 332,0 332,-19"/>
<text text-anchor="middle" x="252.5" y="-7" font-family="Helvetica,sans-Serif" font-size="10.00">SubtitleTrack::validateEntries</text>
</a>
</g>
</g>
<!-- Node1&#45;&gt;Node7 -->
<g id="edge6_Node000001_Node000007" class="edge">
<title>Node1&#45;&gt;Node7</title>
<g id="a_edge6_Node000001_Node000007"><a xlink:title=" ">
<path fill="none" stroke="#63b8ff" d="M80.45,-90.79C98.46,-75.31 136.07,-45.11 173,-28.5 178.41,-26.07 184.17,-23.92 190.02,-22.03"/>
<polygon fill="#63b8ff" stroke="#63b8ff" points="191.32,-25.3 199.91,-19.09 189.33,-18.59 191.32,-25.3"/>
</a>
</g>
</g>
<!-- Node3 -->
<g id="Node000003" class="node">
<title>Node3</title>
<g id="a_Node000003"><a xlink:href="../../d1/de3/classSubtitleTrack.html#ae429993e8ef2f02d263d784cb8fab249" target="_top" xlink:title=" ">
<polygon fill="white" stroke="#666666" points="487,-190 368,-190 368,-171 487,-171 487,-190"/>
<text text-anchor="middle" x="427.5" y="-178" font-family="Helvetica,sans-Serif" font-size="10.00">SubtitleTrack::format</text>
</a>
</g>
</g>
<!-- Node2&#45;&gt;Node3 -->
<g id="edge2_Node000002_Node000003" class="edge">
<title>Node2&#45;&gt;Node3</title>
<g id="a_edge2_Node000002_Node000003"><a xlink:title=" ">
<path fill="none" stroke="#63b8ff" d="M320.39,-180.5C332.64,-180.5 345.45,-180.5 357.76,-180.5"/>
<polygon fill="#63b8ff" stroke="#63b8ff" points="357.96,-184 367.96,-180.5 357.96,-177 357.96,-184"/>
</a>
</g>
</g>
</g>
</svg>
</svg>

<style type='text/css'>
<![CDATA[
[data-mouse-over-selected='false'] { opacity: 0.7; }
[data-mouse-over-selected='true']  { opacity: 1.0; }
]]>
</style>
<script type="application/ecmascript"><![CDATA[
document.addEventListener('DOMContentLoaded', (event) => {
  highlightEdges();
  highlightAdjacentNodes();
});
]]></script>
</svg>
