<?xml version="1.0" encoding="UTF-8" standalone="no"?>
<!DOCTYPE svg PUBLIC "-//W3C//DTD SVG 1.1//EN"
 "http://www.w3.org/Graphics/SVG/1.1/DTD/svg11.dtd">
<!-- Generated by graphviz version 2.43.0 (0)
 -->
<!-- Title: src/ui/SubtitleControlWidget.cpp Pages: 1 -->
<svg width="1739pt" height="247pt"
 viewBox="0.00 0.00 1738.50 247.00" xmlns="http://www.w3.org/2000/svg" xmlns:xlink="http://www.w3.org/1999/xlink">
<g id="graph0" class="graph" transform="scale(1 1) rotate(0) translate(4 243)">
<title>src/ui/SubtitleControlWidget.cpp</title>
<!-- Node1 -->
<g id="Node000001" class="node">
<title>Node1</title>
<g id="a_Node000001"><a xlink:title=" ">
<polygon fill="#999999" stroke="#666666" points="1535.5,-239 1362.5,-239 1362.5,-220 1535.5,-220 1535.5,-239"/>
<text text-anchor="middle" x="1449" y="-227" font-family="Helvetica,sans-Serif" font-size="10.00">src/ui/SubtitleControlWidget.cpp</text>
</a>
</g>
</g>
<!-- Node2 -->
<g id="Node000002" class="node">
<title>Node2</title>
<g id="a_Node000002"><a xlink:href="../../d5/dcd/SubtitleControlWidget_8h.html" target="_top" xlink:title=" ">
<polygon fill="white" stroke="#666666" points="1194.5,-184 1049.5,-184 1049.5,-165 1194.5,-165 1194.5,-184"/>
<text text-anchor="middle" x="1122" y="-172" font-family="Helvetica,sans-Serif" font-size="10.00">ui/SubtitleControlWidget.h</text>
</a>
</g>
</g>
<!-- Node1&#45;&gt;Node2 -->
<g id="edge1_Node000001_Node000002" class="edge">
<title>Node1&#45;&gt;Node2</title>
<g id="a_edge1_Node000001_Node000002"><a xlink:title=" ">
<path fill="none" stroke="#63b8ff" d="M1396.46,-219.98C1338.74,-210.63 1246.09,-195.61 1184.64,-185.65"/>
<polygon fill="#63b8ff" stroke="#63b8ff" points="1185.11,-182.18 1174.68,-184.04 1183.99,-189.09 1185.11,-182.18"/>
</a>
</g>
</g>
<!-- Node24 -->
<g id="Node000024" class="node">
<title>Node24</title>
<g id="a_Node000024"><a xlink:title=" ">
<polygon fill="#e0e0e0" stroke="#999999" points="1635.5,-129 1554.5,-129 1554.5,-110 1635.5,-110 1635.5,-129"/>
<text text-anchor="middle" x="1595" y="-117" font-family="Helvetica,sans-Serif" font-size="10.00">QColorDialog</text>
</a>
</g>
</g>
<!-- Node1&#45;&gt;Node24 -->
<g id="edge44_Node000001_Node000024" class="edge">
<title>Node1&#45;&gt;Node24</title>
<g id="a_edge44_Node000001_Node000024"><a xlink:title=" ">
<path fill="none" stroke="#63b8ff" d="M1446.87,-219.6C1444.23,-206.2 1441.47,-180.75 1454,-165 1465.54,-150.49 1508.93,-138.19 1544.57,-130.22"/>
<polygon fill="#63b8ff" stroke="#63b8ff" points="1545.35,-133.64 1554.38,-128.09 1543.87,-126.79 1545.35,-133.64"/>
</a>
</g>
</g>
<!-- Node25 -->
<g id="Node000025" class="node">
<title>Node25</title>
<g id="a_Node000025"><a xlink:title=" ">
<polygon fill="#e0e0e0" stroke="#999999" points="1730.5,-129 1653.5,-129 1653.5,-110 1730.5,-110 1730.5,-129"/>
<text text-anchor="middle" x="1692" y="-117" font-family="Helvetica,sans-Serif" font-size="10.00">QFontDialog</text>
</a>
</g>
</g>
<!-- Node1&#45;&gt;Node25 -->
<g id="edge45_Node000001_Node000025" class="edge">
<title>Node1&#45;&gt;Node25</title>
<g id="a_edge45_Node000001_Node000025"><a xlink:title=" ">
<path fill="none" stroke="#63b8ff" d="M1451.62,-219.98C1456.32,-206.14 1467.59,-178.94 1487,-165 1493.4,-160.41 1584.76,-141.7 1643.34,-130.05"/>
<polygon fill="#63b8ff" stroke="#63b8ff" points="1644.02,-133.49 1653.15,-128.11 1642.66,-126.62 1644.02,-133.49"/>
</a>
</g>
</g>
<!-- Node28 -->
<g id="Node000028" class="node">
<title>Node28</title>
<g id="a_Node000028"><a xlink:href="../../dc/da7/SubtitleManager_8h.html" target="_top" xlink:title=" ">
<polygon fill="white" stroke="#666666" points="349,-184 199,-184 199,-165 349,-165 349,-184"/>
<text text-anchor="middle" x="274" y="-172" font-family="Helvetica,sans-Serif" font-size="10.00">subtitles/SubtitleManager.h</text>
</a>
</g>
</g>
<!-- Node1&#45;&gt;Node28 -->
<g id="edge32_Node000001_Node000028" class="edge">
<title>Node1&#45;&gt;Node28</title>
<g id="a_edge32_Node000001_Node000028"><a xlink:title=" ">
<path fill="none" stroke="#63b8ff" d="M1362.12,-224.58C1144.06,-214.75 575.61,-189.1 359.27,-179.35"/>
<polygon fill="#63b8ff" stroke="#63b8ff" points="359.39,-175.85 349.24,-178.89 359.07,-182.84 359.39,-175.85"/>
</a>
</g>
</g>
<!-- Node35 -->
<g id="Node000035" class="node">
<title>Node35</title>
<g id="a_Node000035"><a xlink:title=" ">
<polygon fill="#e0e0e0" stroke="#999999" points="1582,-184 1496,-184 1496,-165 1582,-165 1582,-184"/>
<text text-anchor="middle" x="1539" y="-172" font-family="Helvetica,sans-Serif" font-size="10.00">QMessageBox</text>
</a>
</g>
</g>
<!-- Node1&#45;&gt;Node35 -->
<g id="edge46_Node000001_Node000035" class="edge">
<title>Node1&#45;&gt;Node35</title>
<g id="a_edge46_Node000001_Node000035"><a xlink:title=" ">
<path fill="none" stroke="#63b8ff" d="M1463.46,-219.98C1477.42,-211.77 1498.79,-199.18 1515.25,-189.49"/>
<polygon fill="#63b8ff" stroke="#63b8ff" points="1517.44,-192.26 1524.28,-184.17 1513.88,-186.23 1517.44,-192.26"/>
</a>
</g>
</g>
<!-- Node36 -->
<g id="Node000036" class="node">
<title>Node36</title>
<g id="a_Node000036"><a xlink:title=" ">
<polygon fill="#e0e0e0" stroke="#999999" points="1707.5,-184 1600.5,-184 1600.5,-165 1707.5,-165 1707.5,-184"/>
<text text-anchor="middle" x="1654" y="-172" font-family="Helvetica,sans-Serif" font-size="10.00">QLoggingCategory</text>
</a>
</g>
</g>
<!-- Node1&#45;&gt;Node36 -->
<g id="edge47_Node000001_Node000036" class="edge">
<title>Node1&#45;&gt;Node36</title>
<g id="a_edge47_Node000001_Node000036"><a xlink:title=" ">
<path fill="none" stroke="#63b8ff" d="M1481.94,-219.98C1516.95,-210.93 1572.47,-196.58 1610.93,-186.64"/>
<polygon fill="#63b8ff" stroke="#63b8ff" points="1612,-189.97 1620.81,-184.08 1610.25,-183.2 1612,-189.97"/>
</a>
</g>
</g>
<!-- Node3 -->
<g id="Node000003" class="node">
<title>Node3</title>
<g id="a_Node000003"><a xlink:href="../../d6/d6f/SubtitleEntry_8h.html" target="_top" xlink:title=" ">
<polygon fill="white" stroke="#666666" points="432,-74 300,-74 300,-55 432,-55 432,-74"/>
<text text-anchor="middle" x="366" y="-62" font-family="Helvetica,sans-Serif" font-size="10.00">subtitles/SubtitleEntry.h</text>
</a>
</g>
</g>
<!-- Node2&#45;&gt;Node3 -->
<g id="edge2_Node000002_Node000003" class="edge">
<title>Node2&#45;&gt;Node3</title>
<g id="a_edge2_Node000002_Node000003"><a xlink:title=" ">
<path fill="none" stroke="#63b8ff" d="M1049.38,-172.02C881.63,-168.14 477.25,-156.08 422,-129 401.86,-119.13 385.84,-98.47 376.17,-83.38"/>
<polygon fill="#63b8ff" stroke="#63b8ff" points="378.94,-81.19 370.76,-74.45 372.95,-84.81 378.94,-81.19"/>
</a>
</g>
</g>
<!-- Node10 -->
<g id="Node000010" class="node">
<title>Node10</title>
<g id="a_Node000010"><a xlink:href="../../dc/d64/SubtitleRenderer_8h.html" target="_top" xlink:title=" ">
<polygon fill="white" stroke="#666666" points="881,-129 729,-129 729,-110 881,-110 881,-129"/>
<text text-anchor="middle" x="805" y="-117" font-family="Helvetica,sans-Serif" font-size="10.00">subtitles/SubtitleRenderer.h</text>
</a>
</g>
</g>
<!-- Node2&#45;&gt;Node10 -->
<g id="edge9_Node000002_Node000010" class="edge">
<title>Node2&#45;&gt;Node10</title>
<g id="a_edge9_Node000002_Node000010"><a xlink:title=" ">
<path fill="none" stroke="#63b8ff" d="M1071.07,-164.98C1015.23,-155.65 925.67,-140.67 866.09,-130.71"/>
<polygon fill="#63b8ff" stroke="#63b8ff" points="866.51,-127.24 856.07,-129.04 865.35,-134.14 866.51,-127.24"/>
</a>
</g>
</g>
<!-- Node11 -->
<g id="Node000011" class="node">
<title>Node11</title>
<g id="a_Node000011"><a xlink:title=" ">
<polygon fill="#e0e0e0" stroke="#999999" points="1055.5,-74 996.5,-74 996.5,-55 1055.5,-55 1055.5,-74"/>
<text text-anchor="middle" x="1026" y="-62" font-family="Helvetica,sans-Serif" font-size="10.00">QWidget</text>
</a>
</g>
</g>
<!-- Node2&#45;&gt;Node11 -->
<g id="edge19_Node000002_Node000011" class="edge">
<title>Node2&#45;&gt;Node11</title>
<g id="a_edge19_Node000002_Node000011"><a xlink:title=" ">
<path fill="none" stroke="#63b8ff" d="M1049.43,-166.23C1000.9,-159.7 943.23,-148.12 928,-129 907.74,-103.56 951.35,-85.07 986.74,-74.81"/>
<polygon fill="#63b8ff" stroke="#63b8ff" points="987.74,-78.16 996.45,-72.13 985.88,-71.42 987.74,-78.16"/>
</a>
</g>
</g>
<!-- Node16 -->
<g id="Node000016" class="node">
<title>Node16</title>
<g id="a_Node000016"><a xlink:title=" ">
<polygon fill="#e0e0e0" stroke="#999999" points="1020.5,-129 937.5,-129 937.5,-110 1020.5,-110 1020.5,-129"/>
<text text-anchor="middle" x="979" y="-117" font-family="Helvetica,sans-Serif" font-size="10.00">QVBoxLayout</text>
</a>
</g>
</g>
<!-- Node2&#45;&gt;Node16 -->
<g id="edge20_Node000002_Node000016" class="edge">
<title>Node2&#45;&gt;Node16</title>
<g id="a_edge20_Node000002_Node000016"><a xlink:title=" ">
<path fill="none" stroke="#63b8ff" d="M1099.02,-164.98C1075.5,-156.27 1038.71,-142.63 1012.06,-132.75"/>
<polygon fill="#63b8ff" stroke="#63b8ff" points="1012.99,-129.36 1002.39,-129.17 1010.55,-135.93 1012.99,-129.36"/>
</a>
</g>
</g>
<!-- Node17 -->
<g id="Node000017" class="node">
<title>Node17</title>
<g id="a_Node000017"><a xlink:title=" ">
<polygon fill="#e0e0e0" stroke="#999999" points="1121.5,-129 1038.5,-129 1038.5,-110 1121.5,-110 1121.5,-129"/>
<text text-anchor="middle" x="1080" y="-117" font-family="Helvetica,sans-Serif" font-size="10.00">QHBoxLayout</text>
</a>
</g>
</g>
<!-- Node2&#45;&gt;Node17 -->
<g id="edge21_Node000002_Node000017" class="edge">
<title>Node2&#45;&gt;Node17</title>
<g id="a_edge21_Node000002_Node000017"><a xlink:title=" ">
<path fill="none" stroke="#63b8ff" d="M1115.06,-164.75C1109.13,-157.26 1100.43,-146.28 1093.18,-137.13"/>
<polygon fill="#63b8ff" stroke="#63b8ff" points="1095.76,-134.75 1086.81,-129.09 1090.27,-139.1 1095.76,-134.75"/>
</a>
</g>
</g>
<!-- Node18 -->
<g id="Node000018" class="node">
<title>Node18</title>
<g id="a_Node000018"><a xlink:title=" ">
<polygon fill="#e0e0e0" stroke="#999999" points="1190,-129 1140,-129 1140,-110 1190,-110 1190,-129"/>
<text text-anchor="middle" x="1165" y="-117" font-family="Helvetica,sans-Serif" font-size="10.00">QLabel</text>
</a>
</g>
</g>
<!-- Node2&#45;&gt;Node18 -->
<g id="edge22_Node000002_Node000018" class="edge">
<title>Node2&#45;&gt;Node18</title>
<g id="a_edge22_Node000002_Node000018"><a xlink:title=" ">
<path fill="none" stroke="#63b8ff" d="M1129.1,-164.75C1135.17,-157.26 1144.09,-146.28 1151.51,-137.13"/>
<polygon fill="#63b8ff" stroke="#63b8ff" points="1154.45,-139.06 1158.03,-129.09 1149.01,-134.65 1154.45,-139.06"/>
</a>
</g>
</g>
<!-- Node19 -->
<g id="Node000019" class="node">
<title>Node19</title>
<g id="a_Node000019"><a xlink:title=" ">
<polygon fill="#e0e0e0" stroke="#999999" points="1260,-129 1208,-129 1208,-110 1260,-110 1260,-129"/>
<text text-anchor="middle" x="1234" y="-117" font-family="Helvetica,sans-Serif" font-size="10.00">QSlider</text>
</a>
</g>
</g>
<!-- Node2&#45;&gt;Node19 -->
<g id="edge23_Node000002_Node000019" class="edge">
<title>Node2&#45;&gt;Node19</title>
<g id="a_edge23_Node000002_Node000019"><a xlink:title=" ">
<path fill="none" stroke="#63b8ff" d="M1139.99,-164.98C1157.93,-156.5 1185.72,-143.35 1206.43,-133.54"/>
<polygon fill="#63b8ff" stroke="#63b8ff" points="1208.14,-136.61 1215.68,-129.17 1205.14,-130.28 1208.14,-136.61"/>
</a>
</g>
</g>
<!-- Node20 -->
<g id="Node000020" class="node">
<title>Node20</title>
<g id="a_Node000020"><a xlink:title=" ">
<polygon fill="#e0e0e0" stroke="#999999" points="1358,-129 1278,-129 1278,-110 1358,-110 1358,-129"/>
<text text-anchor="middle" x="1318" y="-117" font-family="Helvetica,sans-Serif" font-size="10.00">QPushButton</text>
</a>
</g>
</g>
<!-- Node2&#45;&gt;Node20 -->
<g id="edge24_Node000002_Node000020" class="edge">
<title>Node2&#45;&gt;Node20</title>
<g id="a_edge24_Node000002_Node000020"><a xlink:title=" ">
<path fill="none" stroke="#63b8ff" d="M1153.49,-164.98C1186.82,-155.97 1239.6,-141.7 1276.35,-131.76"/>
<polygon fill="#63b8ff" stroke="#63b8ff" points="1277.52,-135.07 1286.26,-129.08 1275.7,-128.31 1277.52,-135.07"/>
</a>
</g>
</g>
<!-- Node21 -->
<g id="Node000021" class="node">
<title>Node21</title>
<g id="a_Node000021"><a xlink:title=" ">
<polygon fill="#e0e0e0" stroke="#999999" points="1453.5,-129 1376.5,-129 1376.5,-110 1453.5,-110 1453.5,-129"/>
<text text-anchor="middle" x="1415" y="-117" font-family="Helvetica,sans-Serif" font-size="10.00">QComboBox</text>
</a>
</g>
</g>
<!-- Node2&#45;&gt;Node21 -->
<g id="edge25_Node000002_Node000021" class="edge">
<title>Node2&#45;&gt;Node21</title>
<g id="a_edge25_Node000002_Node000021"><a xlink:title=" ">
<path fill="none" stroke="#63b8ff" d="M1169.08,-164.98C1223.18,-155.2 1311.53,-139.22 1366.31,-129.31"/>
<polygon fill="#63b8ff" stroke="#63b8ff" points="1367.24,-132.7 1376.46,-127.47 1366,-125.81 1367.24,-132.7"/>
</a>
</g>
</g>
<!-- Node22 -->
<g id="Node000022" class="node">
<title>Node22</title>
<g id="a_Node000022"><a xlink:title=" ">
<polygon fill="#e0e0e0" stroke="#999999" points="1536,-129 1472,-129 1472,-110 1536,-110 1536,-129"/>
<text text-anchor="middle" x="1504" y="-117" font-family="Helvetica,sans-Serif" font-size="10.00">QSpinBox</text>
</a>
</g>
</g>
<!-- Node2&#45;&gt;Node22 -->
<g id="edge26_Node000002_Node000022" class="edge">
<title>Node2&#45;&gt;Node22</title>
<g id="a_edge26_Node000002_Node000022"><a xlink:title=" ">
<path fill="none" stroke="#63b8ff" d="M1194.74,-165.6C1261.64,-157.97 1363.81,-145.41 1461.74,-129.1"/>
<polygon fill="#63b8ff" stroke="#63b8ff" points="1462.53,-132.52 1471.81,-127.41 1461.37,-125.62 1462.53,-132.52"/>
</a>
</g>
</g>
<!-- Node23 -->
<g id="Node000023" class="node">
<title>Node23</title>
<g id="a_Node000023"><a xlink:title=" ">
<polygon fill="#e0e0e0" stroke="#999999" points="529,-129 431,-129 431,-110 529,-110 529,-129"/>
<text text-anchor="middle" x="480" y="-117" font-family="Helvetica,sans-Serif" font-size="10.00">QDoubleSpinBox</text>
</a>
</g>
</g>
<!-- Node2&#45;&gt;Node23 -->
<g id="edge27_Node000002_Node000023" class="edge">
<title>Node2&#45;&gt;Node23</title>
<g id="a_edge27_Node000002_Node000023"><a xlink:title=" ">
<path fill="none" stroke="#63b8ff" d="M1049.47,-169.6C940.85,-163.39 729.28,-149.92 539.2,-129.05"/>
<polygon fill="#63b8ff" stroke="#63b8ff" points="539.34,-125.55 529.02,-127.93 538.57,-132.51 539.34,-125.55"/>
</a>
</g>
</g>
<!-- Node2&#45;&gt;Node24 -->
<g id="edge28_Node000002_Node000024" class="edge">
<title>Node2&#45;&gt;Node24</title>
<g id="a_edge28_Node000002_Node000024"><a xlink:title=" ">
<path fill="none" stroke="#63b8ff" d="M1194.77,-167.26C1277.05,-159.89 1415.23,-146.54 1544.31,-129.01"/>
<polygon fill="#63b8ff" stroke="#63b8ff" points="1544.94,-132.45 1554.37,-127.63 1543.99,-125.52 1544.94,-132.45"/>
</a>
</g>
</g>
<!-- Node2&#45;&gt;Node25 -->
<g id="edge29_Node000002_Node000025" class="edge">
<title>Node2&#45;&gt;Node25</title>
<g id="a_edge29_Node000002_Node000025"><a xlink:title=" ">
<path fill="none" stroke="#63b8ff" d="M1194.57,-169.49C1293.69,-163.53 1477.16,-150.78 1642.93,-129.16"/>
<polygon fill="#63b8ff" stroke="#63b8ff" points="1643.86,-132.57 1653.32,-127.79 1642.94,-125.63 1643.86,-132.57"/>
</a>
</g>
</g>
<!-- Node26 -->
<g id="Node000026" class="node">
<title>Node26</title>
<g id="a_Node000026"><a xlink:title=" ">
<polygon fill="#e0e0e0" stroke="#999999" points="619,-129 547,-129 547,-110 619,-110 619,-129"/>
<text text-anchor="middle" x="583" y="-117" font-family="Helvetica,sans-Serif" font-size="10.00">QGroupBox</text>
</a>
</g>
</g>
<!-- Node2&#45;&gt;Node26 -->
<g id="edge30_Node000002_Node000026" class="edge">
<title>Node2&#45;&gt;Node26</title>
<g id="a_edge30_Node000002_Node000026"><a xlink:title=" ">
<path fill="none" stroke="#63b8ff" d="M1049.34,-169.17C954.87,-163.03 784.56,-150.3 629.49,-129.08"/>
<polygon fill="#63b8ff" stroke="#63b8ff" points="629.69,-125.57 619.3,-127.67 628.73,-132.51 629.69,-125.57"/>
</a>
</g>
</g>
<!-- Node27 -->
<g id="Node000027" class="node">
<title>Node27</title>
<g id="a_Node000027"><a xlink:title=" ">
<polygon fill="#e0e0e0" stroke="#999999" points="710.5,-129 637.5,-129 637.5,-110 710.5,-110 710.5,-129"/>
<text text-anchor="middle" x="674" y="-117" font-family="Helvetica,sans-Serif" font-size="10.00">QCheckBox</text>
</a>
</g>
</g>
<!-- Node2&#45;&gt;Node27 -->
<g id="edge31_Node000002_Node000027" class="edge">
<title>Node2&#45;&gt;Node27</title>
<g id="a_edge31_Node000002_Node000027"><a xlink:title=" ">
<path fill="none" stroke="#63b8ff" d="M1049.17,-167.04C970.69,-159.71 841.9,-146.65 720.81,-129.01"/>
<polygon fill="#63b8ff" stroke="#63b8ff" points="721.02,-125.51 710.62,-127.51 720,-132.43 721.02,-125.51"/>
</a>
</g>
</g>
<!-- Node4 -->
<g id="Node000004" class="node">
<title>Node4</title>
<g id="a_Node000004"><a xlink:title=" ">
<polygon fill="#e0e0e0" stroke="#999999" points="260.5,-19 207.5,-19 207.5,0 260.5,0 260.5,-19"/>
<text text-anchor="middle" x="234" y="-7" font-family="Helvetica,sans-Serif" font-size="10.00">QString</text>
</a>
</g>
</g>
<!-- Node3&#45;&gt;Node4 -->
<g id="edge3_Node000003_Node000004" class="edge">
<title>Node3&#45;&gt;Node4</title>
<g id="a_edge3_Node000003_Node000004"><a xlink:title=" ">
<path fill="none" stroke="#63b8ff" d="M344.79,-54.98C323.27,-46.34 289.72,-32.87 265.17,-23.02"/>
<polygon fill="#63b8ff" stroke="#63b8ff" points="266.18,-19.65 255.59,-19.17 263.57,-26.14 266.18,-19.65"/>
</a>
</g>
</g>
<!-- Node5 -->
<g id="Node000005" class="node">
<title>Node5</title>
<g id="a_Node000005"><a xlink:title=" ">
<polygon fill="#e0e0e0" stroke="#999999" points="352.5,-19 303.5,-19 303.5,0 352.5,0 352.5,-19"/>
<text text-anchor="middle" x="328" y="-7" font-family="Helvetica,sans-Serif" font-size="10.00">QTime</text>
</a>
</g>
</g>
<!-- Node3&#45;&gt;Node5 -->
<g id="edge4_Node000003_Node000005" class="edge">
<title>Node3&#45;&gt;Node5</title>
<g id="a_edge4_Node000003_Node000005"><a xlink:title=" ">
<path fill="none" stroke="#63b8ff" d="M359.73,-54.75C354.41,-47.34 346.64,-36.5 340.12,-27.41"/>
<polygon fill="#63b8ff" stroke="#63b8ff" points="342.83,-25.18 334.16,-19.09 337.14,-29.26 342.83,-25.18"/>
</a>
</g>
</g>
<!-- Node6 -->
<g id="Node000006" class="node">
<title>Node6</title>
<g id="a_Node000006"><a xlink:title=" ">
<polygon fill="#e0e0e0" stroke="#999999" points="684,-19 634,-19 634,0 684,0 684,-19"/>
<text text-anchor="middle" x="659" y="-7" font-family="Helvetica,sans-Serif" font-size="10.00">QColor</text>
</a>
</g>
</g>
<!-- Node3&#45;&gt;Node6 -->
<g id="edge5_Node000003_Node000006" class="edge">
<title>Node3&#45;&gt;Node6</title>
<g id="a_edge5_Node000003_Node000006"><a xlink:title=" ">
<path fill="none" stroke="#63b8ff" d="M413.08,-54.98C471.92,-44.34 571.28,-26.37 623.89,-16.85"/>
<polygon fill="#63b8ff" stroke="#63b8ff" points="624.54,-20.29 633.76,-15.07 623.29,-13.4 624.54,-20.29"/>
</a>
</g>
</g>
<!-- Node7 -->
<g id="Node000007" class="node">
<title>Node7</title>
<g id="a_Node000007"><a xlink:title=" ">
<polygon fill="#e0e0e0" stroke="#999999" points="849.5,-19 804.5,-19 804.5,0 849.5,0 849.5,-19"/>
<text text-anchor="middle" x="827" y="-7" font-family="Helvetica,sans-Serif" font-size="10.00">QFont</text>
</a>
</g>
</g>
<!-- Node3&#45;&gt;Node7 -->
<g id="edge6_Node000003_Node000007" class="edge">
<title>Node3&#45;&gt;Node7</title>
<g id="a_edge6_Node000003_Node000007"><a xlink:title=" ">
<path fill="none" stroke="#63b8ff" d="M432.05,-55.91C532.19,-44.39 718.73,-22.95 794.13,-14.28"/>
<polygon fill="#63b8ff" stroke="#63b8ff" points="794.88,-17.72 804.42,-13.1 794.08,-10.76 794.88,-17.72"/>
</a>
</g>
</g>
<!-- Node8 -->
<g id="Node000008" class="node">
<title>Node8</title>
<g id="a_Node000008"><a xlink:title=" ">
<polygon fill="#e0e0e0" stroke="#999999" points="965,-19 919,-19 919,0 965,0 965,-19"/>
<text text-anchor="middle" x="942" y="-7" font-family="Helvetica,sans-Serif" font-size="10.00">QRect</text>
</a>
</g>
</g>
<!-- Node3&#45;&gt;Node8 -->
<g id="edge7_Node000003_Node000008" class="edge">
<title>Node3&#45;&gt;Node8</title>
<g id="a_edge7_Node000003_Node000008"><a xlink:title=" ">
<path fill="none" stroke="#63b8ff" d="M432.24,-55.9C435.2,-55.59 438.13,-55.29 441,-55 626.1,-36.52 672.79,-36.36 858,-19 874.72,-17.43 893.3,-15.57 908.72,-13.98"/>
<polygon fill="#63b8ff" stroke="#63b8ff" points="909.25,-17.45 918.83,-12.94 908.53,-10.48 909.25,-17.45"/>
</a>
</g>
</g>
<!-- Node9 -->
<g id="Node000009" class="node">
<title>Node9</title>
<g id="a_Node000009"><a xlink:title=" ">
<polygon fill="#e0e0e0" stroke="#999999" points="411.5,-19 370.5,-19 370.5,0 411.5,0 411.5,-19"/>
<text text-anchor="middle" x="391" y="-7" font-family="Helvetica,sans-Serif" font-size="10.00">QList</text>
</a>
</g>
</g>
<!-- Node3&#45;&gt;Node9 -->
<g id="edge8_Node000003_Node000009" class="edge">
<title>Node3&#45;&gt;Node9</title>
<g id="a_edge8_Node000003_Node000009"><a xlink:title=" ">
<path fill="none" stroke="#63b8ff" d="M370.13,-54.75C373.51,-47.57 378.42,-37.18 382.62,-28.27"/>
<polygon fill="#63b8ff" stroke="#63b8ff" points="385.85,-29.63 386.95,-19.09 379.52,-26.64 385.85,-29.63"/>
</a>
</g>
</g>
<!-- Node10&#45;&gt;Node3 -->
<g id="edge10_Node000010_Node000003" class="edge">
<title>Node10&#45;&gt;Node3</title>
<g id="a_edge10_Node000010_Node000003"><a xlink:title=" ">
<path fill="none" stroke="#63b8ff" d="M734.47,-109.98C654.43,-100.32 524.36,-84.62 442.09,-74.69"/>
<polygon fill="#63b8ff" stroke="#63b8ff" points="442.4,-71.2 432.05,-73.47 441.56,-78.15 442.4,-71.2"/>
</a>
</g>
</g>
<!-- Node10&#45;&gt;Node6 -->
<g id="edge17_Node000010_Node000006" class="edge">
<title>Node10&#45;&gt;Node6</title>
<g id="a_edge17_Node000010_Node000006"><a xlink:title=" ">
<path fill="none" stroke="#63b8ff" d="M826.92,-109.84C852.95,-98.3 890.74,-76.8 873,-55 850.89,-27.82 749.3,-16.69 694.42,-12.61"/>
<polygon fill="#63b8ff" stroke="#63b8ff" points="694.32,-9.09 684.1,-11.88 693.83,-16.07 694.32,-9.09"/>
</a>
</g>
</g>
<!-- Node10&#45;&gt;Node7 -->
<g id="edge16_Node000010_Node000007" class="edge">
<title>Node10&#45;&gt;Node7</title>
<g id="a_edge16_Node000010_Node000007"><a xlink:title=" ">
<path fill="none" stroke="#63b8ff" d="M851.16,-110C871.6,-103.69 893.75,-92.78 906,-74 921.22,-50.66 887.39,-31.9 859.37,-20.99"/>
<polygon fill="#63b8ff" stroke="#63b8ff" points="860.38,-17.63 849.79,-17.46 857.96,-24.2 860.38,-17.63"/>
</a>
</g>
</g>
<!-- Node10&#45;&gt;Node8 -->
<g id="edge18_Node000010_Node000008" class="edge">
<title>Node10&#45;&gt;Node8</title>
<g id="a_edge18_Node000010_Node000008"><a xlink:title=" ">
<path fill="none" stroke="#63b8ff" d="M854.71,-109.99C877.95,-103.66 904.33,-92.73 922,-74 933.51,-61.79 938.4,-43.01 940.47,-29.03"/>
<polygon fill="#63b8ff" stroke="#63b8ff" points="943.95,-29.4 941.61,-19.07 937,-28.61 943.95,-29.4"/>
</a>
</g>
</g>
<!-- Node10&#45;&gt;Node11 -->
<g id="edge11_Node000010_Node000011" class="edge">
<title>Node10&#45;&gt;Node11</title>
<g id="a_edge11_Node000010_Node000011"><a xlink:title=" ">
<path fill="none" stroke="#63b8ff" d="M840.51,-109.98C880.41,-100.42 945.02,-84.92 986.49,-74.98"/>
<polygon fill="#63b8ff" stroke="#63b8ff" points="987.34,-78.37 996.25,-72.63 985.71,-71.56 987.34,-78.37"/>
</a>
</g>
</g>
<!-- Node12 -->
<g id="Node000012" class="node">
<title>Node12</title>
<g id="a_Node000012"><a xlink:title=" ">
<polygon fill="#e0e0e0" stroke="#999999" points="580,-74 522,-74 522,-55 580,-55 580,-74"/>
<text text-anchor="middle" x="551" y="-62" font-family="Helvetica,sans-Serif" font-size="10.00">QPainter</text>
</a>
</g>
</g>
<!-- Node10&#45;&gt;Node12 -->
<g id="edge12_Node000010_Node000012" class="edge">
<title>Node10&#45;&gt;Node12</title>
<g id="a_edge12_Node000010_Node000012"><a xlink:title=" ">
<path fill="none" stroke="#63b8ff" d="M762.33,-109.93C720.86,-101.55 655.82,-88.28 590.15,-74.22"/>
<polygon fill="#63b8ff" stroke="#63b8ff" points="590.55,-70.72 580.04,-72.05 589.08,-77.57 590.55,-70.72"/>
</a>
</g>
</g>
<!-- Node13 -->
<g id="Node000013" class="node">
<title>Node13</title>
<g id="a_Node000013"><a xlink:title=" ">
<polygon fill="#e0e0e0" stroke="#999999" points="503.5,-74 450.5,-74 450.5,-55 503.5,-55 503.5,-74"/>
<text text-anchor="middle" x="477" y="-62" font-family="Helvetica,sans-Serif" font-size="10.00">QTimer</text>
</a>
</g>
</g>
<!-- Node10&#45;&gt;Node13 -->
<g id="edge13_Node000010_Node000013" class="edge">
<title>Node10&#45;&gt;Node13</title>
<g id="a_edge13_Node000010_Node000013"><a xlink:title=" ">
<path fill="none" stroke="#63b8ff" d="M738.93,-109.98C681.83,-102.26 596.92,-89.94 513.57,-73.97"/>
<polygon fill="#63b8ff" stroke="#63b8ff" points="514.17,-70.52 503.68,-72.05 512.84,-77.39 514.17,-70.52"/>
</a>
</g>
</g>
<!-- Node14 -->
<g id="Node000014" class="node">
<title>Node14</title>
<g id="a_Node000014"><a xlink:title=" ">
<polygon fill="#e0e0e0" stroke="#999999" points="714,-74 598,-74 598,-55 714,-55 714,-74"/>
<text text-anchor="middle" x="656" y="-62" font-family="Helvetica,sans-Serif" font-size="10.00">QPropertyAnimation</text>
</a>
</g>
</g>
<!-- Node10&#45;&gt;Node14 -->
<g id="edge14_Node000010_Node000014" class="edge">
<title>Node10&#45;&gt;Node14</title>
<g id="a_edge14_Node000010_Node000014"><a xlink:title=" ">
<path fill="none" stroke="#63b8ff" d="M781.06,-109.98C756.44,-101.23 717.88,-87.51 690.08,-77.62"/>
<polygon fill="#63b8ff" stroke="#63b8ff" points="690.97,-74.22 680.38,-74.17 688.62,-80.82 690.97,-74.22"/>
</a>
</g>
</g>
<!-- Node15 -->
<g id="Node000015" class="node">
<title>Node15</title>
<g id="a_Node000015"><a xlink:title=" ">
<polygon fill="#e0e0e0" stroke="#999999" points="864,-74 732,-74 732,-55 864,-55 864,-74"/>
<text text-anchor="middle" x="798" y="-62" font-family="Helvetica,sans-Serif" font-size="10.00">QGraphicsOpacityEffect</text>
</a>
</g>
</g>
<!-- Node10&#45;&gt;Node15 -->
<g id="edge15_Node000010_Node000015" class="edge">
<title>Node10&#45;&gt;Node15</title>
<g id="a_edge15_Node000010_Node000015"><a xlink:title=" ">
<path fill="none" stroke="#63b8ff" d="M803.84,-109.75C802.93,-102.8 801.61,-92.85 800.46,-84.13"/>
<polygon fill="#63b8ff" stroke="#63b8ff" points="803.91,-83.54 799.13,-74.09 796.97,-84.46 803.91,-83.54"/>
</a>
</g>
</g>
<!-- Node28&#45;&gt;Node3 -->
<g id="edge33_Node000028_Node000003" class="edge">
<title>Node28&#45;&gt;Node3</title>
<g id="a_edge33_Node000028_Node000003"><a xlink:title=" ">
<path fill="none" stroke="#63b8ff" d="M281.53,-164.66C296.9,-146.61 332.12,-105.28 351.88,-82.08"/>
<polygon fill="#63b8ff" stroke="#63b8ff" points="354.8,-84.04 358.62,-74.16 349.48,-79.5 354.8,-84.04"/>
</a>
</g>
</g>
<!-- Node28&#45;&gt;Node13 -->
<g id="edge41_Node000028_Node000013" class="edge">
<title>Node28&#45;&gt;Node13</title>
<g id="a_edge41_Node000028_Node000013"><a xlink:title=" ">
<path fill="none" stroke="#63b8ff" d="M290.27,-164.84C325.62,-146.04 409.65,-101.33 451.87,-78.87"/>
<polygon fill="#63b8ff" stroke="#63b8ff" points="453.75,-81.83 460.94,-74.05 450.46,-75.65 453.75,-81.83"/>
</a>
</g>
</g>
<!-- Node29 -->
<g id="Node000029" class="node">
<title>Node29</title>
<g id="a_Node000029"><a xlink:href="../../df/dcd/ISubtitleParser_8h.html" target="_top" xlink:title=" ">
<polygon fill="white" stroke="#666666" points="231.5,-129 136.5,-129 136.5,-110 231.5,-110 231.5,-129"/>
<text text-anchor="middle" x="184" y="-117" font-family="Helvetica,sans-Serif" font-size="10.00">ISubtitleParser.h</text>
</a>
</g>
</g>
<!-- Node28&#45;&gt;Node29 -->
<g id="edge34_Node000028_Node000029" class="edge">
<title>Node28&#45;&gt;Node29</title>
<g id="a_edge34_Node000028_Node000029"><a xlink:title=" ">
<path fill="none" stroke="#63b8ff" d="M259.54,-164.98C245.58,-156.77 224.21,-144.18 207.75,-134.49"/>
<polygon fill="#63b8ff" stroke="#63b8ff" points="209.12,-131.23 198.72,-129.17 205.56,-137.26 209.12,-131.23"/>
</a>
</g>
</g>
<!-- Node32 -->
<g id="Node000032" class="node">
<title>Node32</title>
<g id="a_Node000032"><a xlink:title=" ">
<polygon fill="#e0e0e0" stroke="#999999" points="58,-74 0,-74 0,-55 58,-55 58,-74"/>
<text text-anchor="middle" x="29" y="-62" font-family="Helvetica,sans-Serif" font-size="10.00">memory</text>
</a>
</g>
</g>
<!-- Node28&#45;&gt;Node32 -->
<g id="edge43_Node000028_Node000032" class="edge">
<title>Node28&#45;&gt;Node32</title>
<g id="a_edge43_Node000028_Node000032"><a xlink:title=" ">
<path fill="none" stroke="#63b8ff" d="M198.72,-166.16C143.6,-159.37 74.78,-147.49 53,-129 39.96,-117.92 33.99,-98.99 31.27,-84.67"/>
<polygon fill="#63b8ff" stroke="#63b8ff" points="34.67,-83.77 29.71,-74.41 27.75,-84.83 34.67,-83.77"/>
</a>
</g>
</g>
<!-- Node33 -->
<g id="Node000033" class="node">
<title>Node33</title>
<g id="a_Node000033"><a xlink:title=" ">
<polygon fill="#e0e0e0" stroke="#999999" points="118,-129 62,-129 62,-110 118,-110 118,-129"/>
<text text-anchor="middle" x="90" y="-117" font-family="Helvetica,sans-Serif" font-size="10.00">QObject</text>
</a>
</g>
</g>
<!-- Node28&#45;&gt;Node33 -->
<g id="edge40_Node000028_Node000033" class="edge">
<title>Node28&#45;&gt;Node33</title>
<g id="a_edge40_Node000028_Node000033"><a xlink:title=" ">
<path fill="none" stroke="#63b8ff" d="M244.44,-164.98C212.82,-155.88 162.56,-141.4 128.02,-131.45"/>
<polygon fill="#63b8ff" stroke="#63b8ff" points="128.86,-128.05 118.28,-128.65 126.92,-134.78 128.86,-128.05"/>
</a>
</g>
</g>
<!-- Node34 -->
<g id="Node000034" class="node">
<title>Node34</title>
<g id="a_Node000034"><a xlink:title=" ">
<polygon fill="#e0e0e0" stroke="#999999" points="298.5,-129 249.5,-129 249.5,-110 298.5,-110 298.5,-129"/>
<text text-anchor="middle" x="274" y="-117" font-family="Helvetica,sans-Serif" font-size="10.00">QHash</text>
</a>
</g>
</g>
<!-- Node28&#45;&gt;Node34 -->
<g id="edge42_Node000028_Node000034" class="edge">
<title>Node28&#45;&gt;Node34</title>
<g id="a_edge42_Node000028_Node000034"><a xlink:title=" ">
<path fill="none" stroke="#63b8ff" d="M274,-164.75C274,-157.8 274,-147.85 274,-139.13"/>
<polygon fill="#63b8ff" stroke="#63b8ff" points="277.5,-139.09 274,-129.09 270.5,-139.09 277.5,-139.09"/>
</a>
</g>
</g>
<!-- Node29&#45;&gt;Node3 -->
<g id="edge35_Node000029_Node000003" class="edge">
<title>Node29&#45;&gt;Node3</title>
<g id="a_edge35_Node000029_Node000003"><a xlink:title=" ">
<path fill="none" stroke="#63b8ff" d="M213.24,-109.98C244.06,-101.01 292.78,-86.82 326.89,-76.89"/>
<polygon fill="#63b8ff" stroke="#63b8ff" points="327.91,-80.24 336.53,-74.08 325.95,-73.52 327.91,-80.24"/>
</a>
</g>
</g>
<!-- Node29&#45;&gt;Node4 -->
<g id="edge36_Node000029_Node000004" class="edge">
<title>Node29&#45;&gt;Node4</title>
<g id="a_edge36_Node000029_Node000004"><a xlink:title=" ">
<path fill="none" stroke="#63b8ff" d="M185.65,-109.97C188.26,-97.47 194,-73.65 203,-55 207.7,-45.27 214.42,-35.31 220.4,-27.3"/>
<polygon fill="#63b8ff" stroke="#63b8ff" points="223.33,-29.23 226.69,-19.18 217.8,-24.94 223.33,-29.23"/>
</a>
</g>
</g>
<!-- Node30 -->
<g id="Node000030" class="node">
<title>Node30</title>
<g id="a_Node000030"><a xlink:title=" ">
<polygon fill="#e0e0e0" stroke="#999999" points="282,-74 212,-74 212,-55 282,-55 282,-74"/>
<text text-anchor="middle" x="247" y="-62" font-family="Helvetica,sans-Serif" font-size="10.00">QStringList</text>
</a>
</g>
</g>
<!-- Node29&#45;&gt;Node30 -->
<g id="edge37_Node000029_Node000030" class="edge">
<title>Node29&#45;&gt;Node30</title>
<g id="a_edge37_Node000029_Node000030"><a xlink:title=" ">
<path fill="none" stroke="#63b8ff" d="M194.12,-109.98C203.44,-102.15 217.47,-90.34 228.74,-80.86"/>
<polygon fill="#63b8ff" stroke="#63b8ff" points="231.29,-83.29 236.69,-74.17 226.79,-77.93 231.29,-83.29"/>
</a>
</g>
</g>
<!-- Node31 -->
<g id="Node000031" class="node">
<title>Node31</title>
<g id="a_Node000031"><a xlink:title=" ">
<polygon fill="#e0e0e0" stroke="#999999" points="156,-74 76,-74 76,-55 156,-55 156,-74"/>
<text text-anchor="middle" x="116" y="-62" font-family="Helvetica,sans-Serif" font-size="10.00">QTextStream</text>
</a>
</g>
</g>
<!-- Node29&#45;&gt;Node31 -->
<g id="edge38_Node000029_Node000031" class="edge">
<title>Node29&#45;&gt;Node31</title>
<g id="a_edge38_Node000029_Node000031"><a xlink:title=" ">
<path fill="none" stroke="#63b8ff" d="M173.07,-109.98C162.92,-102.07 147.58,-90.11 135.35,-80.58"/>
<polygon fill="#63b8ff" stroke="#63b8ff" points="137.16,-77.56 127.12,-74.17 132.86,-83.08 137.16,-77.56"/>
</a>
</g>
</g>
<!-- Node29&#45;&gt;Node32 -->
<g id="edge39_Node000029_Node000032" class="edge">
<title>Node29&#45;&gt;Node32</title>
<g id="a_edge39_Node000029_Node000032"><a xlink:title=" ">
<path fill="none" stroke="#63b8ff" d="M159.1,-109.98C133.3,-101.16 92.78,-87.31 63.82,-77.41"/>
<polygon fill="#63b8ff" stroke="#63b8ff" points="64.69,-74.01 54.1,-74.08 62.43,-80.63 64.69,-74.01"/>
</a>
</g>
</g>
</g>
</svg>
