<?xml version="1.0" encoding="UTF-8" standalone="no"?>
<!DOCTYPE svg PUBLIC "-//W3C//DTD SVG 1.1//EN"
 "http://www.w3.org/Graphics/SVG/1.1/DTD/svg11.dtd">
<!-- Generated by graphviz version 2.43.0 (0)
 -->
<!-- Title: src/ui/DragDropWidget.cpp Pages: 1 -->
<svg width="1265pt" height="192pt"
 viewBox="0.00 0.00 1265.00 192.00" xmlns="http://www.w3.org/2000/svg" xmlns:xlink="http://www.w3.org/1999/xlink">
<g id="graph0" class="graph" transform="scale(1 1) rotate(0) translate(4 188)">
<title>src/ui/DragDropWidget.cpp</title>
<!-- Node1 -->
<g id="Node000001" class="node">
<title>Node1</title>
<g id="a_Node000001"><a xlink:title=" ">
<polygon fill="#999999" stroke="#666666" points="1011,-184 864,-184 864,-165 1011,-165 1011,-184"/>
<text text-anchor="middle" x="937.5" y="-172" font-family="Helvetica,sans-Serif" font-size="10.00">src/ui/DragDropWidget.cpp</text>
</a>
</g>
</g>
<!-- Node2 -->
<g id="Node000002" class="node">
<title>Node2</title>
<g id="a_Node000002"><a xlink:href="../../df/dfc/DragDropWidget_8h.html" target="_top" xlink:title=" ">
<polygon fill="white" stroke="#666666" points="404,-129 285,-129 285,-110 404,-110 404,-129"/>
<text text-anchor="middle" x="344.5" y="-117" font-family="Helvetica,sans-Serif" font-size="10.00">ui/DragDropWidget.h</text>
</a>
</g>
</g>
<!-- Node1&#45;&gt;Node2 -->
<g id="edge1_Node000001_Node000002" class="edge">
<title>Node1&#45;&gt;Node2</title>
<g id="a_edge1_Node000001_Node000002"><a xlink:title=" ">
<path fill="none" stroke="#63b8ff" d="M863.89,-166.92C748.69,-156.63 527.32,-136.84 414.42,-126.75"/>
<polygon fill="#63b8ff" stroke="#63b8ff" points="414.45,-123.24 404.18,-125.83 413.82,-130.21 414.45,-123.24"/>
</a>
</g>
</g>
<!-- Node10 -->
<g id="Node000010" class="node">
<title>Node10</title>
<g id="a_Node000010"><a xlink:href="../../d7/d62/FileUrlSupport_8h.html" target="_top" xlink:title=" ">
<polygon fill="white" stroke="#666666" points="696.5,-129 568.5,-129 568.5,-110 696.5,-110 696.5,-129"/>
<text text-anchor="middle" x="632.5" y="-117" font-family="Helvetica,sans-Serif" font-size="10.00">media/FileUrlSupport.h</text>
</a>
</g>
</g>
<!-- Node1&#45;&gt;Node10 -->
<g id="edge9_Node000001_Node000010" class="edge">
<title>Node1&#45;&gt;Node10</title>
<g id="a_edge9_Node000001_Node000010"><a xlink:title=" ">
<path fill="none" stroke="#63b8ff" d="M888.5,-164.98C834.88,-155.67 748.96,-140.74 691.64,-130.78"/>
<polygon fill="#63b8ff" stroke="#63b8ff" points="692.09,-127.3 681.63,-129.04 690.89,-134.2 692.09,-127.3"/>
</a>
</g>
</g>
<!-- Node17 -->
<g id="Node000017" class="node">
<title>Node17</title>
<g id="a_Node000017"><a xlink:title=" ">
<polygon fill="#e0e0e0" stroke="#999999" points="822,-129 715,-129 715,-110 822,-110 822,-129"/>
<text text-anchor="middle" x="768.5" y="-117" font-family="Helvetica,sans-Serif" font-size="10.00">QLoggingCategory</text>
</a>
</g>
</g>
<!-- Node1&#45;&gt;Node17 -->
<g id="edge21_Node000001_Node000017" class="edge">
<title>Node1&#45;&gt;Node17</title>
<g id="a_edge21_Node000001_Node000017"><a xlink:title=" ">
<path fill="none" stroke="#63b8ff" d="M910.35,-164.98C881.97,-156.09 837.27,-142.07 805.64,-132.15"/>
<polygon fill="#63b8ff" stroke="#63b8ff" points="806.45,-128.73 795.87,-129.08 804.36,-135.41 806.45,-128.73"/>
</a>
</g>
</g>
<!-- Node18 -->
<g id="Node000018" class="node">
<title>Node18</title>
<g id="a_Node000018"><a xlink:title=" ">
<polygon fill="#e0e0e0" stroke="#999999" points="898.5,-129 840.5,-129 840.5,-110 898.5,-110 898.5,-129"/>
<text text-anchor="middle" x="869.5" y="-117" font-family="Helvetica,sans-Serif" font-size="10.00">QPainter</text>
</a>
</g>
</g>
<!-- Node1&#45;&gt;Node18 -->
<g id="edge22_Node000001_Node000018" class="edge">
<title>Node1&#45;&gt;Node18</title>
<g id="a_edge22_Node000001_Node000018"><a xlink:title=" ">
<path fill="none" stroke="#63b8ff" d="M926.57,-164.98C916.42,-157.07 901.08,-145.11 888.85,-135.58"/>
<polygon fill="#63b8ff" stroke="#63b8ff" points="890.66,-132.56 880.62,-129.17 886.36,-138.08 890.66,-132.56"/>
</a>
</g>
</g>
<!-- Node19 -->
<g id="Node000019" class="node">
<title>Node19</title>
<g id="a_Node000019"><a xlink:title=" ">
<polygon fill="#e0e0e0" stroke="#999999" points="958.5,-129 916.5,-129 916.5,-110 958.5,-110 958.5,-129"/>
<text text-anchor="middle" x="937.5" y="-117" font-family="Helvetica,sans-Serif" font-size="10.00">QPen</text>
</a>
</g>
</g>
<!-- Node1&#45;&gt;Node19 -->
<g id="edge23_Node000001_Node000019" class="edge">
<title>Node1&#45;&gt;Node19</title>
<g id="a_edge23_Node000001_Node000019"><a xlink:title=" ">
<path fill="none" stroke="#63b8ff" d="M937.5,-164.75C937.5,-157.8 937.5,-147.85 937.5,-139.13"/>
<polygon fill="#63b8ff" stroke="#63b8ff" points="941,-139.09 937.5,-129.09 934,-139.09 941,-139.09"/>
</a>
</g>
</g>
<!-- Node20 -->
<g id="Node000020" class="node">
<title>Node20</title>
<g id="a_Node000020"><a xlink:title=" ">
<polygon fill="#e0e0e0" stroke="#999999" points="1028.5,-129 976.5,-129 976.5,-110 1028.5,-110 1028.5,-129"/>
<text text-anchor="middle" x="1002.5" y="-117" font-family="Helvetica,sans-Serif" font-size="10.00">QBrush</text>
</a>
</g>
</g>
<!-- Node1&#45;&gt;Node20 -->
<g id="edge24_Node000001_Node000020" class="edge">
<title>Node1&#45;&gt;Node20</title>
<g id="a_edge24_Node000001_Node000020"><a xlink:title=" ">
<path fill="none" stroke="#63b8ff" d="M947.94,-164.98C957.65,-157.07 972.32,-145.11 984,-135.58"/>
<polygon fill="#63b8ff" stroke="#63b8ff" points="986.33,-138.2 991.87,-129.17 981.9,-132.78 986.33,-138.2"/>
</a>
</g>
</g>
<!-- Node21 -->
<g id="Node000021" class="node">
<title>Node21</title>
<g id="a_Node000021"><a xlink:title=" ">
<polygon fill="#e0e0e0" stroke="#999999" points="1092.5,-129 1046.5,-129 1046.5,-110 1092.5,-110 1092.5,-129"/>
<text text-anchor="middle" x="1069.5" y="-117" font-family="Helvetica,sans-Serif" font-size="10.00">QRect</text>
</a>
</g>
</g>
<!-- Node1&#45;&gt;Node21 -->
<g id="edge25_Node000001_Node000021" class="edge">
<title>Node1&#45;&gt;Node21</title>
<g id="a_edge25_Node000001_Node000021"><a xlink:title=" ">
<path fill="none" stroke="#63b8ff" d="M958.71,-164.98C980.23,-156.34 1013.78,-142.87 1038.33,-133.02"/>
<polygon fill="#63b8ff" stroke="#63b8ff" points="1039.93,-136.14 1047.91,-129.17 1037.32,-129.65 1039.93,-136.14"/>
</a>
</g>
</g>
<!-- Node22 -->
<g id="Node000022" class="node">
<title>Node22</title>
<g id="a_Node000022"><a xlink:title=" ">
<polygon fill="#e0e0e0" stroke="#999999" points="1190,-129 1111,-129 1111,-110 1190,-110 1190,-129"/>
<text text-anchor="middle" x="1150.5" y="-117" font-family="Helvetica,sans-Serif" font-size="10.00">QApplication</text>
</a>
</g>
</g>
<!-- Node1&#45;&gt;Node22 -->
<g id="edge26_Node000001_Node000022" class="edge">
<title>Node1&#45;&gt;Node22</title>
<g id="a_edge26_Node000001_Node000022"><a xlink:title=" ">
<path fill="none" stroke="#63b8ff" d="M971.72,-164.98C1008.26,-155.89 1066.28,-141.46 1106.26,-131.51"/>
<polygon fill="#63b8ff" stroke="#63b8ff" points="1107.15,-134.89 1116.01,-129.08 1105.46,-128.1 1107.15,-134.89"/>
</a>
</g>
</g>
<!-- Node23 -->
<g id="Node000023" class="node">
<title>Node23</title>
<g id="a_Node000023"><a xlink:title=" ">
<polygon fill="#e0e0e0" stroke="#999999" points="1257,-129 1208,-129 1208,-110 1257,-110 1257,-129"/>
<text text-anchor="middle" x="1232.5" y="-117" font-family="Helvetica,sans-Serif" font-size="10.00">QStyle</text>
</a>
</g>
</g>
<!-- Node1&#45;&gt;Node23 -->
<g id="edge27_Node000001_Node000023" class="edge">
<title>Node1&#45;&gt;Node23</title>
<g id="a_edge27_Node000001_Node000023"><a xlink:title=" ">
<path fill="none" stroke="#63b8ff" d="M996.04,-165C1047.03,-157.26 1123.13,-144.94 1197.66,-129.26"/>
<polygon fill="#63b8ff" stroke="#63b8ff" points="1198.63,-132.63 1207.69,-127.13 1197.18,-125.79 1198.63,-132.63"/>
</a>
</g>
</g>
<!-- Node3 -->
<g id="Node000003" class="node">
<title>Node3</title>
<g id="a_Node000003"><a xlink:title=" ">
<polygon fill="#e0e0e0" stroke="#999999" points="59,-74 0,-74 0,-55 59,-55 59,-74"/>
<text text-anchor="middle" x="29.5" y="-62" font-family="Helvetica,sans-Serif" font-size="10.00">QWidget</text>
</a>
</g>
</g>
<!-- Node2&#45;&gt;Node3 -->
<g id="edge2_Node000002_Node000003" class="edge">
<title>Node2&#45;&gt;Node3</title>
<g id="a_edge2_Node000002_Node000003"><a xlink:title=" ">
<path fill="none" stroke="#63b8ff" d="M284.88,-109.99C230.96,-102.06 149.17,-89.42 69.54,-74.31"/>
<polygon fill="#63b8ff" stroke="#63b8ff" points="69.81,-70.8 59.34,-72.35 68.5,-77.67 69.81,-70.8"/>
</a>
</g>
</g>
<!-- Node4 -->
<g id="Node000004" class="node">
<title>Node4</title>
<g id="a_Node000004"><a xlink:title=" ">
<polygon fill="#e0e0e0" stroke="#999999" points="178,-74 77,-74 77,-55 178,-55 178,-74"/>
<text text-anchor="middle" x="127.5" y="-62" font-family="Helvetica,sans-Serif" font-size="10.00">QDragEnterEvent</text>
</a>
</g>
</g>
<!-- Node2&#45;&gt;Node4 -->
<g id="edge3_Node000002_Node000004" class="edge">
<title>Node2&#45;&gt;Node4</title>
<g id="a_edge3_Node000002_Node000004"><a xlink:title=" ">
<path fill="none" stroke="#63b8ff" d="M309.64,-109.98C272.41,-100.89 213.3,-86.46 172.57,-76.51"/>
<polygon fill="#63b8ff" stroke="#63b8ff" points="173.18,-73.05 162.64,-74.08 171.52,-79.85 173.18,-73.05"/>
</a>
</g>
</g>
<!-- Node5 -->
<g id="Node000005" class="node">
<title>Node5</title>
<g id="a_Node000005"><a xlink:title=" ">
<polygon fill="#e0e0e0" stroke="#999999" points="271,-74 196,-74 196,-55 271,-55 271,-74"/>
<text text-anchor="middle" x="233.5" y="-62" font-family="Helvetica,sans-Serif" font-size="10.00">QDropEvent</text>
</a>
</g>
</g>
<!-- Node2&#45;&gt;Node5 -->
<g id="edge4_Node000002_Node000005" class="edge">
<title>Node2&#45;&gt;Node5</title>
<g id="a_edge4_Node000002_Node000005"><a xlink:title=" ">
<path fill="none" stroke="#63b8ff" d="M326.67,-109.98C308.89,-101.5 281.35,-88.35 260.82,-78.54"/>
<polygon fill="#63b8ff" stroke="#63b8ff" points="262.19,-75.32 251.66,-74.17 259.17,-81.64 262.19,-75.32"/>
</a>
</g>
</g>
<!-- Node6 -->
<g id="Node000006" class="node">
<title>Node6</title>
<g id="a_Node000006"><a xlink:title=" ">
<polygon fill="#e0e0e0" stroke="#999999" points="585,-74 510,-74 510,-55 585,-55 585,-74"/>
<text text-anchor="middle" x="547.5" y="-62" font-family="Helvetica,sans-Serif" font-size="10.00">QMimeData</text>
</a>
</g>
</g>
<!-- Node2&#45;&gt;Node6 -->
<g id="edge5_Node000002_Node000006" class="edge">
<title>Node2&#45;&gt;Node6</title>
<g id="a_edge5_Node000002_Node000006"><a xlink:title=" ">
<path fill="none" stroke="#63b8ff" d="M377.12,-109.98C411.79,-100.93 466.76,-86.58 504.85,-76.64"/>
<polygon fill="#63b8ff" stroke="#63b8ff" points="505.84,-79.99 514.63,-74.08 504.07,-73.22 505.84,-79.99"/>
</a>
</g>
</g>
<!-- Node7 -->
<g id="Node000007" class="node">
<title>Node7</title>
<g id="a_Node000007"><a xlink:title=" ">
<polygon fill="#e0e0e0" stroke="#999999" points="327.5,-74 289.5,-74 289.5,-55 327.5,-55 327.5,-74"/>
<text text-anchor="middle" x="308.5" y="-62" font-family="Helvetica,sans-Serif" font-size="10.00">QUrl</text>
</a>
</g>
</g>
<!-- Node2&#45;&gt;Node7 -->
<g id="edge6_Node000002_Node000007" class="edge">
<title>Node2&#45;&gt;Node7</title>
<g id="a_edge6_Node000002_Node000007"><a xlink:title=" ">
<path fill="none" stroke="#63b8ff" d="M338.56,-109.75C333.52,-102.34 326.16,-91.5 319.99,-82.41"/>
<polygon fill="#63b8ff" stroke="#63b8ff" points="322.85,-80.39 314.33,-74.09 317.06,-84.33 322.85,-80.39"/>
</a>
</g>
</g>
<!-- Node8 -->
<g id="Node000008" class="node">
<title>Node8</title>
<g id="a_Node000008"><a xlink:title=" ">
<polygon fill="#e0e0e0" stroke="#999999" points="415.5,-74 345.5,-74 345.5,-55 415.5,-55 415.5,-74"/>
<text text-anchor="middle" x="380.5" y="-62" font-family="Helvetica,sans-Serif" font-size="10.00">QStringList</text>
</a>
</g>
</g>
<!-- Node2&#45;&gt;Node8 -->
<g id="edge7_Node000002_Node000008" class="edge">
<title>Node2&#45;&gt;Node8</title>
<g id="a_edge7_Node000002_Node000008"><a xlink:title=" ">
<path fill="none" stroke="#63b8ff" d="M350.44,-109.75C355.48,-102.34 362.84,-91.5 369.01,-82.41"/>
<polygon fill="#63b8ff" stroke="#63b8ff" points="371.94,-84.33 374.67,-74.09 366.15,-80.39 371.94,-84.33"/>
</a>
</g>
</g>
<!-- Node9 -->
<g id="Node000009" class="node">
<title>Node9</title>
<g id="a_Node000009"><a xlink:title=" ">
<polygon fill="#e0e0e0" stroke="#999999" points="491.5,-74 433.5,-74 433.5,-55 491.5,-55 491.5,-74"/>
<text text-anchor="middle" x="462.5" y="-62" font-family="Helvetica,sans-Serif" font-size="10.00">memory</text>
</a>
</g>
</g>
<!-- Node2&#45;&gt;Node9 -->
<g id="edge8_Node000002_Node000009" class="edge">
<title>Node2&#45;&gt;Node9</title>
<g id="a_edge8_Node000002_Node000009"><a xlink:title=" ">
<path fill="none" stroke="#63b8ff" d="M363.46,-109.98C382.53,-101.42 412.16,-88.11 434.05,-78.28"/>
<polygon fill="#63b8ff" stroke="#63b8ff" points="435.51,-81.46 443.2,-74.17 432.64,-75.07 435.51,-81.46"/>
</a>
</g>
</g>
<!-- Node10&#45;&gt;Node6 -->
<g id="edge16_Node000010_Node000006" class="edge">
<title>Node10&#45;&gt;Node6</title>
<g id="a_edge16_Node000010_Node000006"><a xlink:title=" ">
<path fill="none" stroke="#63b8ff" d="M618.84,-109.98C605.66,-101.77 585.47,-89.18 569.93,-79.49"/>
<polygon fill="#63b8ff" stroke="#63b8ff" points="571.74,-76.49 561.41,-74.17 568.04,-82.43 571.74,-76.49"/>
</a>
</g>
</g>
<!-- Node10&#45;&gt;Node7 -->
<g id="edge15_Node000010_Node000007" class="edge">
<title>Node10&#45;&gt;Node7</title>
<g id="a_edge15_Node000010_Node000007"><a xlink:title=" ">
<path fill="none" stroke="#63b8ff" d="M568.49,-111.6C510.43,-104.73 422.41,-92.78 337.48,-73.93"/>
<polygon fill="#63b8ff" stroke="#63b8ff" points="338.21,-70.51 327.68,-71.72 336.67,-77.34 338.21,-70.51"/>
</a>
</g>
</g>
<!-- Node10&#45;&gt;Node8 -->
<g id="edge14_Node000010_Node000008" class="edge">
<title>Node10&#45;&gt;Node8</title>
<g id="a_edge14_Node000010_Node000008"><a xlink:title=" ">
<path fill="none" stroke="#63b8ff" d="M592.01,-109.98C546.52,-100.42 472.86,-84.92 425.57,-74.98"/>
<polygon fill="#63b8ff" stroke="#63b8ff" points="426.11,-71.52 415.6,-72.88 424.67,-78.37 426.11,-71.52"/>
</a>
</g>
</g>
<!-- Node10&#45;&gt;Node9 -->
<g id="edge20_Node000010_Node000009" class="edge">
<title>Node10&#45;&gt;Node9</title>
<g id="a_edge20_Node000010_Node000009"><a xlink:title=" ">
<path fill="none" stroke="#63b8ff" d="M605.19,-109.98C576.65,-101.09 531.67,-87.07 499.86,-77.15"/>
<polygon fill="#63b8ff" stroke="#63b8ff" points="500.62,-73.72 490.03,-74.08 498.53,-80.4 500.62,-73.72"/>
</a>
</g>
</g>
<!-- Node11 -->
<g id="Node000011" class="node">
<title>Node11</title>
<g id="a_Node000011"><a xlink:href="../../df/d56/IComponent_8h.html" target="_top" xlink:title=" ">
<polygon fill="white" stroke="#666666" points="904,-74 819,-74 819,-55 904,-55 904,-74"/>
<text text-anchor="middle" x="861.5" y="-62" font-family="Helvetica,sans-Serif" font-size="10.00">IComponent.h</text>
</a>
</g>
</g>
<!-- Node10&#45;&gt;Node11 -->
<g id="edge10_Node000010_Node000011" class="edge">
<title>Node10&#45;&gt;Node11</title>
<g id="a_edge10_Node000010_Node000011"><a xlink:title=" ">
<path fill="none" stroke="#63b8ff" d="M669.29,-109.98C708.74,-100.86 771.48,-86.33 814.48,-76.38"/>
<polygon fill="#63b8ff" stroke="#63b8ff" points="815.47,-79.75 824.42,-74.08 813.89,-72.93 815.47,-79.75"/>
</a>
</g>
</g>
<!-- Node12 -->
<g id="Node000012" class="node">
<title>Node12</title>
<g id="a_Node000012"><a xlink:title=" ">
<polygon fill="#e0e0e0" stroke="#999999" points="923,-19 870,-19 870,0 923,0 923,-19"/>
<text text-anchor="middle" x="896.5" y="-7" font-family="Helvetica,sans-Serif" font-size="10.00">QString</text>
</a>
</g>
</g>
<!-- Node10&#45;&gt;Node12 -->
<g id="edge13_Node000010_Node000012" class="edge">
<title>Node10&#45;&gt;Node12</title>
<g id="a_edge13_Node000010_Node000012"><a xlink:title=" ">
<path fill="none" stroke="#63b8ff" d="M696.64,-110.47C777.38,-100.04 906.47,-82.23 913.5,-74 924.46,-61.17 917.09,-41.97 908.9,-28.05"/>
<polygon fill="#63b8ff" stroke="#63b8ff" points="911.68,-25.9 903.32,-19.39 905.8,-29.69 911.68,-25.9"/>
</a>
</g>
</g>
<!-- Node13 -->
<g id="Node000013" class="node">
<title>Node13</title>
<g id="a_Node000013"><a xlink:title=" ">
<polygon fill="#e0e0e0" stroke="#999999" points="1016.5,-74 960.5,-74 960.5,-55 1016.5,-55 1016.5,-74"/>
<text text-anchor="middle" x="988.5" y="-62" font-family="Helvetica,sans-Serif" font-size="10.00">QObject</text>
</a>
</g>
</g>
<!-- Node10&#45;&gt;Node13 -->
<g id="edge12_Node000010_Node000013" class="edge">
<title>Node10&#45;&gt;Node13</title>
<g id="a_edge12_Node000010_Node000013"><a xlink:title=" ">
<path fill="none" stroke="#63b8ff" d="M696.72,-110.52C760.3,-102.36 860.36,-88.81 946.5,-74 947.6,-73.81 948.71,-73.61 949.84,-73.41"/>
<polygon fill="#63b8ff" stroke="#63b8ff" points="950.9,-76.78 960.08,-71.49 949.6,-69.9 950.9,-76.78"/>
</a>
</g>
</g>
<!-- Node14 -->
<g id="Node000014" class="node">
<title>Node14</title>
<g id="a_Node000014"><a xlink:title=" ">
<polygon fill="#e0e0e0" stroke="#999999" points="662.5,-74 602.5,-74 602.5,-55 662.5,-55 662.5,-74"/>
<text text-anchor="middle" x="632.5" y="-62" font-family="Helvetica,sans-Serif" font-size="10.00">QFileInfo</text>
</a>
</g>
</g>
<!-- Node10&#45;&gt;Node14 -->
<g id="edge17_Node000010_Node000014" class="edge">
<title>Node10&#45;&gt;Node14</title>
<g id="a_edge17_Node000010_Node000014"><a xlink:title=" ">
<path fill="none" stroke="#63b8ff" d="M632.5,-109.75C632.5,-102.8 632.5,-92.85 632.5,-84.13"/>
<polygon fill="#63b8ff" stroke="#63b8ff" points="636,-84.09 632.5,-74.09 629,-84.09 636,-84.09"/>
</a>
</g>
</g>
<!-- Node15 -->
<g id="Node000015" class="node">
<title>Node15</title>
<g id="a_Node000015"><a xlink:title=" ">
<polygon fill="#e0e0e0" stroke="#999999" points="734,-74 681,-74 681,-55 734,-55 734,-74"/>
<text text-anchor="middle" x="707.5" y="-62" font-family="Helvetica,sans-Serif" font-size="10.00">QTimer</text>
</a>
</g>
</g>
<!-- Node10&#45;&gt;Node15 -->
<g id="edge18_Node000010_Node000015" class="edge">
<title>Node10&#45;&gt;Node15</title>
<g id="a_edge18_Node000010_Node000015"><a xlink:title=" ">
<path fill="none" stroke="#63b8ff" d="M644.55,-109.98C655.96,-101.92 673.33,-89.65 686.93,-80.03"/>
<polygon fill="#63b8ff" stroke="#63b8ff" points="689.08,-82.8 695.23,-74.17 685.04,-77.08 689.08,-82.8"/>
</a>
</g>
</g>
<!-- Node16 -->
<g id="Node000016" class="node">
<title>Node16</title>
<g id="a_Node000016"><a xlink:title=" ">
<polygon fill="#e0e0e0" stroke="#999999" points="801,-74 752,-74 752,-55 801,-55 801,-74"/>
<text text-anchor="middle" x="776.5" y="-62" font-family="Helvetica,sans-Serif" font-size="10.00">QHash</text>
</a>
</g>
</g>
<!-- Node10&#45;&gt;Node16 -->
<g id="edge19_Node000010_Node000016" class="edge">
<title>Node10&#45;&gt;Node16</title>
<g id="a_edge19_Node000010_Node000016"><a xlink:title=" ">
<path fill="none" stroke="#63b8ff" d="M655.64,-109.98C679.32,-101.27 716.37,-87.63 743.21,-77.75"/>
<polygon fill="#63b8ff" stroke="#63b8ff" points="744.77,-80.91 752.94,-74.17 742.35,-74.34 744.77,-80.91"/>
</a>
</g>
</g>
<!-- Node11&#45;&gt;Node12 -->
<g id="edge11_Node000011_Node000012" class="edge">
<title>Node11&#45;&gt;Node12</title>
<g id="a_edge11_Node000011_Node000012"><a xlink:title=" ">
<path fill="none" stroke="#63b8ff" d="M867.28,-54.75C872.12,-47.42 879.18,-36.73 885.14,-27.7"/>
<polygon fill="#63b8ff" stroke="#63b8ff" points="888.24,-29.36 890.83,-19.09 882.4,-25.5 888.24,-29.36"/>
</a>
</g>
</g>
</g>
</svg>
