<?xml version="1.0" encoding="UTF-8" standalone="no"?>
<!DOCTYPE svg PUBLIC "-//W3C//DTD SVG 1.1//EN"
 "http://www.w3.org/Graphics/SVG/1.1/DTD/svg11.dtd">
<!-- Generated by graphviz version 2.43.0 (0)
 -->
<!-- Title: src/data/SettingsManager.cpp Pages: 1 -->
<svg width="1114pt" height="192pt"
 viewBox="0.00 0.00 1114.00 192.00" xmlns="http://www.w3.org/2000/svg" xmlns:xlink="http://www.w3.org/1999/xlink">
<g id="graph0" class="graph" transform="scale(1 1) rotate(0) translate(4 188)">
<title>src/data/SettingsManager.cpp</title>
<!-- Node1 -->
<g id="Node000001" class="node">
<title>Node1</title>
<g id="a_Node000001"><a xlink:title=" ">
<polygon fill="#999999" stroke="#666666" points="734,-184 573,-184 573,-165 734,-165 734,-184"/>
<text text-anchor="middle" x="653.5" y="-172" font-family="Helvetica,sans-Serif" font-size="10.00">src/data/SettingsManager.cpp</text>
</a>
</g>
</g>
<!-- Node2 -->
<g id="Node000002" class="node">
<title>Node2</title>
<g id="a_Node000002"><a xlink:href="../../d9/d4a/SettingsManager_8h.html" target="_top" xlink:title=" ">
<polygon fill="white" stroke="#666666" points="348,-129 241,-129 241,-110 348,-110 348,-129"/>
<text text-anchor="middle" x="294.5" y="-117" font-family="Helvetica,sans-Serif" font-size="10.00">SettingsManager.h</text>
</a>
</g>
</g>
<!-- Node1&#45;&gt;Node2 -->
<g id="edge1_Node000001_Node000002" class="edge">
<title>Node1&#45;&gt;Node2</title>
<g id="a_edge1_Node000001_Node000002"><a xlink:title=" ">
<path fill="none" stroke="#63b8ff" d="M595.82,-164.98C530.87,-155.4 425.64,-139.86 358.29,-129.92"/>
<polygon fill="#63b8ff" stroke="#63b8ff" points="358.63,-126.43 348.22,-128.43 357.6,-133.35 358.63,-126.43"/>
</a>
</g>
</g>
<!-- Node13 -->
<g id="Node000013" class="node">
<title>Node13</title>
<g id="a_Node000013"><a xlink:title=" ">
<polygon fill="#e0e0e0" stroke="#999999" points="460.5,-129 366.5,-129 366.5,-110 460.5,-110 460.5,-129"/>
<text text-anchor="middle" x="413.5" y="-117" font-family="Helvetica,sans-Serif" font-size="10.00">QStandardPaths</text>
</a>
</g>
</g>
<!-- Node1&#45;&gt;Node13 -->
<g id="edge13_Node000001_Node000013" class="edge">
<title>Node1&#45;&gt;Node13</title>
<g id="a_edge13_Node000001_Node000013"><a xlink:title=" ">
<path fill="none" stroke="#63b8ff" d="M614.94,-164.98C573.43,-155.82 507.29,-141.21 462.21,-131.26"/>
<polygon fill="#63b8ff" stroke="#63b8ff" points="462.88,-127.82 452.36,-129.08 461.37,-134.66 462.88,-127.82"/>
</a>
</g>
</g>
<!-- Node14 -->
<g id="Node000014" class="node">
<title>Node14</title>
<g id="a_Node000014"><a xlink:title=" ">
<polygon fill="#e0e0e0" stroke="#999999" points="516.5,-129 478.5,-129 478.5,-110 516.5,-110 516.5,-129"/>
<text text-anchor="middle" x="497.5" y="-117" font-family="Helvetica,sans-Serif" font-size="10.00">QDir</text>
</a>
</g>
</g>
<!-- Node1&#45;&gt;Node14 -->
<g id="edge14_Node000001_Node000014" class="edge">
<title>Node1&#45;&gt;Node14</title>
<g id="a_edge14_Node000001_Node000014"><a xlink:title=" ">
<path fill="none" stroke="#63b8ff" d="M628.44,-164.98C600.55,-155.51 555.56,-140.23 526.26,-130.27"/>
<polygon fill="#63b8ff" stroke="#63b8ff" points="527.2,-126.89 516.6,-126.99 524.94,-133.52 527.2,-126.89"/>
</a>
</g>
</g>
<!-- Node15 -->
<g id="Node000015" class="node">
<title>Node15</title>
<g id="a_Node000015"><a xlink:title=" ">
<polygon fill="#e0e0e0" stroke="#999999" points="642,-129 535,-129 535,-110 642,-110 642,-129"/>
<text text-anchor="middle" x="588.5" y="-117" font-family="Helvetica,sans-Serif" font-size="10.00">QLoggingCategory</text>
</a>
</g>
</g>
<!-- Node1&#45;&gt;Node15 -->
<g id="edge15_Node000001_Node000015" class="edge">
<title>Node1&#45;&gt;Node15</title>
<g id="a_edge15_Node000001_Node000015"><a xlink:title=" ">
<path fill="none" stroke="#63b8ff" d="M643.06,-164.98C633.35,-157.07 618.68,-145.11 607,-135.58"/>
<polygon fill="#63b8ff" stroke="#63b8ff" points="609.1,-132.78 599.13,-129.17 604.67,-138.2 609.1,-132.78"/>
</a>
</g>
</g>
<!-- Node16 -->
<g id="Node000016" class="node">
<title>Node16</title>
<g id="a_Node000016"><a xlink:title=" ">
<polygon fill="#e0e0e0" stroke="#999999" points="777,-129 660,-129 660,-110 777,-110 777,-129"/>
<text text-anchor="middle" x="718.5" y="-117" font-family="Helvetica,sans-Serif" font-size="10.00">QCryptographicHash</text>
</a>
</g>
</g>
<!-- Node1&#45;&gt;Node16 -->
<g id="edge16_Node000001_Node000016" class="edge">
<title>Node1&#45;&gt;Node16</title>
<g id="a_edge16_Node000001_Node000016"><a xlink:title=" ">
<path fill="none" stroke="#63b8ff" d="M663.94,-164.98C673.65,-157.07 688.32,-145.11 700,-135.58"/>
<polygon fill="#63b8ff" stroke="#63b8ff" points="702.33,-138.2 707.87,-129.17 697.9,-132.78 702.33,-138.2"/>
</a>
</g>
</g>
<!-- Node17 -->
<g id="Node000017" class="node">
<title>Node17</title>
<g id="a_Node000017"><a xlink:title=" ">
<polygon fill="#e0e0e0" stroke="#999999" points="908,-129 795,-129 795,-110 908,-110 908,-129"/>
<text text-anchor="middle" x="851.5" y="-117" font-family="Helvetica,sans-Serif" font-size="10.00">QRandomGenerator</text>
</a>
</g>
</g>
<!-- Node1&#45;&gt;Node17 -->
<g id="edge17_Node000001_Node000017" class="edge">
<title>Node1&#45;&gt;Node17</title>
<g id="a_edge17_Node000001_Node000017"><a xlink:title=" ">
<path fill="none" stroke="#63b8ff" d="M685.31,-164.98C718.99,-155.97 772.3,-141.7 809.42,-131.76"/>
<polygon fill="#63b8ff" stroke="#63b8ff" points="810.68,-135.05 819.44,-129.08 808.87,-128.29 810.68,-135.05"/>
</a>
</g>
</g>
<!-- Node18 -->
<g id="Node000018" class="node">
<title>Node18</title>
<g id="a_Node000018"><a xlink:title=" ">
<polygon fill="#e0e0e0" stroke="#999999" points="986.5,-129 926.5,-129 926.5,-110 986.5,-110 986.5,-129"/>
<text text-anchor="middle" x="956.5" y="-117" font-family="Helvetica,sans-Serif" font-size="10.00">QSysInfo</text>
</a>
</g>
</g>
<!-- Node1&#45;&gt;Node18 -->
<g id="edge18_Node000001_Node000018" class="edge">
<title>Node1&#45;&gt;Node18</title>
<g id="a_edge18_Node000001_Node000018"><a xlink:title=" ">
<path fill="none" stroke="#63b8ff" d="M708.75,-164.97C760.07,-156.87 838.83,-143.99 916.36,-129.15"/>
<polygon fill="#63b8ff" stroke="#63b8ff" points="917.14,-132.56 926.3,-127.23 915.81,-125.69 917.14,-132.56"/>
</a>
</g>
</g>
<!-- Node19 -->
<g id="Node000019" class="node">
<title>Node19</title>
<g id="a_Node000019"><a xlink:title=" ">
<polygon fill="#e0e0e0" stroke="#999999" points="1106,-129 1005,-129 1005,-110 1106,-110 1106,-129"/>
<text text-anchor="middle" x="1055.5" y="-117" font-family="Helvetica,sans-Serif" font-size="10.00">QCoreApplication</text>
</a>
</g>
</g>
<!-- Node1&#45;&gt;Node19 -->
<g id="edge19_Node000001_Node000019" class="edge">
<title>Node1&#45;&gt;Node19</title>
<g id="a_edge19_Node000001_Node000019"><a xlink:title=" ">
<path fill="none" stroke="#63b8ff" d="M720.69,-164.99C787.46,-156.47 893.05,-142.87 994.63,-129.1"/>
<polygon fill="#63b8ff" stroke="#63b8ff" points="995.33,-132.54 1004.77,-127.73 994.39,-125.61 995.33,-132.54"/>
</a>
</g>
</g>
<!-- Node3 -->
<g id="Node000003" class="node">
<title>Node3</title>
<g id="a_Node000003"><a xlink:href="../../df/d56/IComponent_8h.html" target="_top" xlink:title=" ">
<polygon fill="white" stroke="#666666" points="85,-74 0,-74 0,-55 85,-55 85,-74"/>
<text text-anchor="middle" x="42.5" y="-62" font-family="Helvetica,sans-Serif" font-size="10.00">IComponent.h</text>
</a>
</g>
</g>
<!-- Node2&#45;&gt;Node3 -->
<g id="edge2_Node000002_Node000003" class="edge">
<title>Node2&#45;&gt;Node3</title>
<g id="a_edge2_Node000002_Node000003"><a xlink:title=" ">
<path fill="none" stroke="#63b8ff" d="M254.01,-109.98C210.33,-100.8 140.69,-86.15 93.35,-76.19"/>
<polygon fill="#63b8ff" stroke="#63b8ff" points="93.81,-72.72 83.31,-74.08 92.37,-79.57 93.81,-72.72"/>
</a>
</g>
</g>
<!-- Node5 -->
<g id="Node000005" class="node">
<title>Node5</title>
<g id="a_Node000005"><a xlink:href="../../dc/d96/UserPreferences_8h.html" target="_top" xlink:title=" ">
<polygon fill="white" stroke="#666666" points="209.5,-74 103.5,-74 103.5,-55 209.5,-55 209.5,-74"/>
<text text-anchor="middle" x="156.5" y="-62" font-family="Helvetica,sans-Serif" font-size="10.00">UserPreferences.h</text>
</a>
</g>
</g>
<!-- Node2&#45;&gt;Node5 -->
<g id="edge4_Node000002_Node000005" class="edge">
<title>Node2&#45;&gt;Node5</title>
<g id="a_edge4_Node000002_Node000005"><a xlink:title=" ">
<path fill="none" stroke="#63b8ff" d="M272.33,-109.98C249.73,-101.3 214.44,-87.75 188.75,-77.88"/>
<polygon fill="#63b8ff" stroke="#63b8ff" points="189.67,-74.49 179.08,-74.17 187.16,-81.02 189.67,-74.49"/>
</a>
</g>
</g>
<!-- Node9 -->
<g id="Node000009" class="node">
<title>Node9</title>
<g id="a_Node000009"><a xlink:title=" ">
<polygon fill="#e0e0e0" stroke="#999999" points="283.5,-74 227.5,-74 227.5,-55 283.5,-55 283.5,-74"/>
<text text-anchor="middle" x="255.5" y="-62" font-family="Helvetica,sans-Serif" font-size="10.00">QObject</text>
</a>
</g>
</g>
<!-- Node2&#45;&gt;Node9 -->
<g id="edge9_Node000002_Node000009" class="edge">
<title>Node2&#45;&gt;Node9</title>
<g id="a_edge9_Node000002_Node000009"><a xlink:title=" ">
<path fill="none" stroke="#63b8ff" d="M288.06,-109.75C282.61,-102.34 274.64,-91.5 267.94,-82.41"/>
<polygon fill="#63b8ff" stroke="#63b8ff" points="270.57,-80.07 261.82,-74.09 264.93,-84.22 270.57,-80.07"/>
</a>
</g>
</g>
<!-- Node10 -->
<g id="Node000010" class="node">
<title>Node10</title>
<g id="a_Node000010"><a xlink:title=" ">
<polygon fill="#e0e0e0" stroke="#999999" points="365.5,-74 301.5,-74 301.5,-55 365.5,-55 365.5,-74"/>
<text text-anchor="middle" x="333.5" y="-62" font-family="Helvetica,sans-Serif" font-size="10.00">QSettings</text>
</a>
</g>
</g>
<!-- Node2&#45;&gt;Node10 -->
<g id="edge10_Node000002_Node000010" class="edge">
<title>Node2&#45;&gt;Node10</title>
<g id="a_edge10_Node000002_Node000010"><a xlink:title=" ">
<path fill="none" stroke="#63b8ff" d="M300.94,-109.75C306.39,-102.34 314.36,-91.5 321.06,-82.41"/>
<polygon fill="#63b8ff" stroke="#63b8ff" points="324.07,-84.22 327.18,-74.09 318.43,-80.07 324.07,-84.22"/>
</a>
</g>
</g>
<!-- Node11 -->
<g id="Node000011" class="node">
<title>Node11</title>
<g id="a_Node000011"><a xlink:title=" ">
<polygon fill="#e0e0e0" stroke="#999999" points="437,-74 384,-74 384,-55 437,-55 437,-74"/>
<text text-anchor="middle" x="410.5" y="-62" font-family="Helvetica,sans-Serif" font-size="10.00">QTimer</text>
</a>
</g>
</g>
<!-- Node2&#45;&gt;Node11 -->
<g id="edge11_Node000002_Node000011" class="edge">
<title>Node2&#45;&gt;Node11</title>
<g id="a_edge11_Node000002_Node000011"><a xlink:title=" ">
<path fill="none" stroke="#63b8ff" d="M313.14,-109.98C331.8,-101.46 360.75,-88.23 382.24,-78.41"/>
<polygon fill="#63b8ff" stroke="#63b8ff" points="383.88,-81.51 391.52,-74.17 380.97,-75.14 383.88,-81.51"/>
</a>
</g>
</g>
<!-- Node12 -->
<g id="Node000012" class="node">
<title>Node12</title>
<g id="a_Node000012"><a xlink:title=" ">
<polygon fill="#e0e0e0" stroke="#999999" points="513.5,-74 455.5,-74 455.5,-55 513.5,-55 513.5,-74"/>
<text text-anchor="middle" x="484.5" y="-62" font-family="Helvetica,sans-Serif" font-size="10.00">memory</text>
</a>
</g>
</g>
<!-- Node2&#45;&gt;Node12 -->
<g id="edge12_Node000002_Node000012" class="edge">
<title>Node2&#45;&gt;Node12</title>
<g id="a_edge12_Node000002_Node000012"><a xlink:title=" ">
<path fill="none" stroke="#63b8ff" d="M325.03,-109.98C357.68,-100.88 409.57,-86.4 445.24,-76.45"/>
<polygon fill="#63b8ff" stroke="#63b8ff" points="446.61,-79.7 455.3,-73.65 444.72,-72.96 446.61,-79.7"/>
</a>
</g>
</g>
<!-- Node4 -->
<g id="Node000004" class="node">
<title>Node4</title>
<g id="a_Node000004"><a xlink:title=" ">
<polygon fill="#e0e0e0" stroke="#999999" points="69,-19 16,-19 16,0 69,0 69,-19"/>
<text text-anchor="middle" x="42.5" y="-7" font-family="Helvetica,sans-Serif" font-size="10.00">QString</text>
</a>
</g>
</g>
<!-- Node3&#45;&gt;Node4 -->
<g id="edge3_Node000003_Node000004" class="edge">
<title>Node3&#45;&gt;Node4</title>
<g id="a_edge3_Node000003_Node000004"><a xlink:title=" ">
<path fill="none" stroke="#63b8ff" d="M42.5,-54.75C42.5,-47.8 42.5,-37.85 42.5,-29.13"/>
<polygon fill="#63b8ff" stroke="#63b8ff" points="46,-29.09 42.5,-19.09 39,-29.09 46,-29.09"/>
</a>
</g>
</g>
<!-- Node5&#45;&gt;Node4 -->
<g id="edge5_Node000005_Node000004" class="edge">
<title>Node5&#45;&gt;Node4</title>
<g id="a_edge5_Node000005_Node000004"><a xlink:title=" ">
<path fill="none" stroke="#63b8ff" d="M138.18,-54.98C119.84,-46.46 91.39,-33.23 70.27,-23.41"/>
<polygon fill="#63b8ff" stroke="#63b8ff" points="71.69,-20.21 61.15,-19.17 68.74,-26.56 71.69,-20.21"/>
</a>
</g>
</g>
<!-- Node6 -->
<g id="Node000006" class="node">
<title>Node6</title>
<g id="a_Node000006"><a xlink:title=" ">
<polygon fill="#e0e0e0" stroke="#999999" points="157.5,-19 87.5,-19 87.5,0 157.5,0 157.5,-19"/>
<text text-anchor="middle" x="122.5" y="-7" font-family="Helvetica,sans-Serif" font-size="10.00">QStringList</text>
</a>
</g>
</g>
<!-- Node5&#45;&gt;Node6 -->
<g id="edge6_Node000005_Node000006" class="edge">
<title>Node5&#45;&gt;Node6</title>
<g id="a_edge6_Node000005_Node000006"><a xlink:title=" ">
<path fill="none" stroke="#63b8ff" d="M150.89,-54.75C146.18,-47.42 139.33,-36.73 133.53,-27.7"/>
<polygon fill="#63b8ff" stroke="#63b8ff" points="136.36,-25.62 128.01,-19.09 130.46,-29.4 136.36,-25.62"/>
</a>
</g>
</g>
<!-- Node7 -->
<g id="Node000007" class="node">
<title>Node7</title>
<g id="a_Node000007"><a xlink:title=" ">
<polygon fill="#e0e0e0" stroke="#999999" points="219.5,-19 175.5,-19 175.5,0 219.5,0 219.5,-19"/>
<text text-anchor="middle" x="197.5" y="-7" font-family="Helvetica,sans-Serif" font-size="10.00">QSize</text>
</a>
</g>
</g>
<!-- Node5&#45;&gt;Node7 -->
<g id="edge7_Node000005_Node000007" class="edge">
<title>Node5&#45;&gt;Node7</title>
<g id="a_edge7_Node000005_Node000007"><a xlink:title=" ">
<path fill="none" stroke="#63b8ff" d="M163.27,-54.75C169.06,-47.26 177.56,-36.28 184.64,-27.13"/>
<polygon fill="#63b8ff" stroke="#63b8ff" points="187.51,-29.14 190.86,-19.09 181.97,-24.86 187.51,-29.14"/>
</a>
</g>
</g>
<!-- Node8 -->
<g id="Node000008" class="node">
<title>Node8</title>
<g id="a_Node000008"><a xlink:title=" ">
<polygon fill="#e0e0e0" stroke="#999999" points="287,-19 238,-19 238,0 287,0 287,-19"/>
<text text-anchor="middle" x="262.5" y="-7" font-family="Helvetica,sans-Serif" font-size="10.00">QPoint</text>
</a>
</g>
</g>
<!-- Node5&#45;&gt;Node8 -->
<g id="edge8_Node000005_Node000008" class="edge">
<title>Node5&#45;&gt;Node8</title>
<g id="a_edge8_Node000005_Node000008"><a xlink:title=" ">
<path fill="none" stroke="#63b8ff" d="M173.53,-54.98C190.43,-46.54 216.56,-33.47 236.14,-23.68"/>
<polygon fill="#63b8ff" stroke="#63b8ff" points="237.78,-26.77 245.16,-19.17 234.65,-20.51 237.78,-26.77"/>
</a>
</g>
</g>
</g>
</svg>
