<?xml version="1.0" encoding="UTF-8" standalone="no"?>
<!DOCTYPE svg PUBLIC "-//W3C//DTD SVG 1.1//EN"
 "http://www.w3.org/Graphics/SVG/1.1/DTD/svg11.dtd">
<!-- Generated by graphviz version 2.43.0 (0)
 -->
<!-- Title: include/IComponent.h Pages: 1 -->
<!--zoomable 192 -->

<svg id="main" version="1.1" xmlns="http://www.w3.org/2000/svg" xmlns:xlink="http://www.w3.org/1999/xlink" xml:space="preserve" onload="init(evt)">
<style type="text/css"><![CDATA[
.node, .edge {opacity: 0.7;}
.node.selected, .edge.selected {opacity: 1;}
.edge:hover path { stroke: red; }
.edge:hover polygon { stroke: red; fill: red; }
]]></style>

<defs>
  <circle id="rim" cx="0" cy="0" r="7"/>
  <circle id="rim2" cx="0" cy="0" r="3.5"/>
  <g id="zoomPlus">
    <use xlink:href="#rim" fill="#404040"><set attributeName="fill" to="#808080" begin="zoomplus.mouseover" end="zoomplus.mouseout"/></use>
    <path d="M-4,0h8M0,-4v8" fill="none" stroke="white" stroke-width="1.5" pointer-events="none"/>
  </g>
  <g id="zoomMin">
    <use xlink:href="#rim" fill="#404040"><set attributeName="fill" to="#808080" begin="zoomminus.mouseover" end="zoomminus.mouseout"/></use>
    <path d="M-4,0h8" fill="none" stroke="white" stroke-width="1.5" pointer-events="none"/>
  </g>
  <g id="arrowUp" transform="translate(30 24)">
    <use xlink:href="#rim"/>
    <path pointer-events="none" fill="none" stroke="white" stroke-width="1.5" d="M0,-3.0v7 M-2.5,-0.5L0,-3.0L2.5,-0.5"/>
  </g>
  <g id="arrowRight" transform="rotate(90) translate(36 -43)">
    <use xlink:href="#rim"/>
    <path pointer-events="none" fill="none" stroke="white" stroke-width="1.5" d="M0,-3.0v7 M-2.5,-0.5L0,-3.0L2.5,-0.5"/>
  </g>
  <g id="arrowDown" transform="rotate(180) translate(-30 -48)">
    <use xlink:href="#rim"/>
    <path pointer-events="none" fill="none" stroke="white" stroke-width="1.5" d="M0,-3.0v7 M-2.5,-0.5L0,-3.0L2.5,-0.5"/>
  </g>
  <g id="arrowLeft" transform="rotate(270) translate(-36 17)">
    <use xlink:href="#rim"/>
    <path pointer-events="none" fill="none" stroke="white" stroke-width="1.5" d="M0,-3.0v7 M-2.5,-0.5L0,-3.0L2.5,-0.5"/>
  </g>
  <g id="resetDef">
    <use xlink:href="#rim2" fill="#404040"><set attributeName="fill" to="#808080" begin="reset.mouseover" end="reset.mouseout"/></use>
  </g>
</defs>
<script type="application/ecmascript">
var viewWidth = 2442;
var viewHeight = 192;
var sectionId = 'dynsection-1';
</script>
<script type="application/ecmascript" xlink:href="../../svg.min.js"/>
<svg id="graph" class="graph">
<g id="viewport">
<title>include/IComponent.h</title>
<!-- Node1 -->
<g id="Node000001" class="node">
<title>Node1</title>
<g id="a_Node000001"><a xlink:title=" ">
<polygon fill="#999999" stroke="#666666" points="1386.5,-184 1263.5,-184 1263.5,-165 1386.5,-165 1386.5,-184"/>
<text text-anchor="middle" x="1325" y="-172" font-family="Helvetica,sans-Serif" font-size="10.00">include/IComponent.h</text>
</a>
</g>
</g>
<!-- Node2 -->
<g id="Node000002" class="node">
<title>Node2</title>
<g id="a_Node000002"><a xlink:href="../../d3/d3e/ComponentManager_8h.html" target="_top" xlink:title=" ">
<polygon fill="white" stroke="#666666" points="597,-129 435,-129 435,-110 597,-110 597,-129"/>
<text text-anchor="middle" x="516" y="-117" font-family="Helvetica,sans-Serif" font-size="10.00">include/ComponentManager.h</text>
</a>
</g>
</g>
<!-- Node1&#45;&gt;Node2 -->
<g id="edge1_Node000001_Node000002" class="edge">
<title>Node1&#45;&gt;Node2</title>
<g id="a_edge1_Node000001_Node000002"><a xlink:title=" ">
<path fill="none" stroke="#63b8ff" d="M1253.14,-168.79C1102.72,-158.94 755.54,-136.19 597.27,-125.82"/>
<polygon fill="#63b8ff" stroke="#63b8ff" points="1252.99,-172.29 1263.2,-169.45 1253.45,-165.3 1252.99,-172.29"/>
</a>
</g>
</g>
<!-- Node9 -->
<g id="Node000009" class="node">
<title>Node9</title>
<g id="a_Node000009"><a xlink:href="../../d9/d4a/SettingsManager_8h.html" target="_top" xlink:title=" ">
<polygon fill="white" stroke="#666666" points="1290,-129 1144,-129 1144,-110 1290,-110 1290,-129"/>
<text text-anchor="middle" x="1217" y="-117" font-family="Helvetica,sans-Serif" font-size="10.00">include/SettingsManager.h</text>
</a>
</g>
</g>
<!-- Node1&#45;&gt;Node9 -->
<g id="edge8_Node000001_Node000009" class="edge">
<title>Node1&#45;&gt;Node9</title>
<g id="a_edge8_Node000001_Node000009"><a xlink:title=" ">
<path fill="none" stroke="#63b8ff" d="M1298.51,-160.5C1278.64,-150.75 1252,-137.68 1234.67,-129.17"/>
<polygon fill="#63b8ff" stroke="#63b8ff" points="1297.13,-163.72 1307.65,-164.98 1300.21,-157.44 1297.13,-163.72"/>
</a>
</g>
</g>
<!-- Node11 -->
<g id="Node000011" class="node">
<title>Node11</title>
<g id="a_Node000011"><a xlink:href="../../d7/d62/FileUrlSupport_8h.html" target="_top" xlink:title=" ">
<polygon fill="white" stroke="#666666" points="1549.5,-129 1382.5,-129 1382.5,-110 1549.5,-110 1549.5,-129"/>
<text text-anchor="middle" x="1466" y="-117" font-family="Helvetica,sans-Serif" font-size="10.00">include/media/FileUrlSupport.h</text>
</a>
</g>
</g>
<!-- Node1&#45;&gt;Node11 -->
<g id="edge10_Node000001_Node000011" class="edge">
<title>Node1&#45;&gt;Node11</title>
<g id="a_edge10_Node000001_Node000011"><a xlink:title=" ">
<path fill="none" stroke="#63b8ff" d="M1357.14,-161.42C1383.29,-151.59 1419.59,-137.95 1442.93,-129.17"/>
<polygon fill="#63b8ff" stroke="#63b8ff" points="1355.78,-158.19 1347.65,-164.98 1358.25,-164.74 1355.78,-158.19"/>
</a>
</g>
</g>
<!-- Node16 -->
<g id="Node000016" class="node">
<title>Node16</title>
<g id="a_Node000016"><a xlink:href="../../dd/d0d/PlaybackController_8h.html" target="_top" xlink:title=" ">
<polygon fill="white" stroke="#666666" points="1972.5,-129 1783.5,-129 1783.5,-110 1972.5,-110 1972.5,-129"/>
<text text-anchor="middle" x="1878" y="-117" font-family="Helvetica,sans-Serif" font-size="10.00">include/media/PlaybackController.h</text>
</a>
</g>
</g>
<!-- Node1&#45;&gt;Node16 -->
<g id="edge18_Node000001_Node000016" class="edge">
<title>Node1&#45;&gt;Node16</title>
<g id="a_edge18_Node000001_Node000016"><a xlink:title=" ">
<path fill="none" stroke="#63b8ff" d="M1396.62,-166.64C1497.18,-157 1680.1,-139.47 1789.19,-129.01"/>
<polygon fill="#63b8ff" stroke="#63b8ff" points="1396.18,-163.16 1386.56,-167.6 1396.85,-170.13 1396.18,-163.16"/>
</a>
</g>
</g>
<!-- Node20 -->
<g id="Node000020" class="node">
<title>Node20</title>
<g id="a_Node000020"><a xlink:href="../../d0/df4/VLCBackend_8h.html" target="_top" xlink:title=" ">
<polygon fill="white" stroke="#666666" points="1103,-129 945,-129 945,-110 1103,-110 1103,-129"/>
<text text-anchor="middle" x="1024" y="-117" font-family="Helvetica,sans-Serif" font-size="10.00">include/media/VLCBackend.h</text>
</a>
</g>
</g>
<!-- Node1&#45;&gt;Node20 -->
<g id="edge23_Node000001_Node000020" class="edge">
<title>Node1&#45;&gt;Node20</title>
<g id="a_edge23_Node000001_Node000020"><a xlink:title=" ">
<path fill="none" stroke="#63b8ff" d="M1266.44,-163.19C1210.01,-153.25 1125.61,-138.39 1072.74,-129.08"/>
<polygon fill="#63b8ff" stroke="#63b8ff" points="1266.18,-166.7 1276.64,-164.98 1267.4,-159.8 1266.18,-166.7"/>
</a>
</g>
</g>
<!-- Node22 -->
<g id="Node000022" class="node">
<title>Node22</title>
<g id="a_Node000022"><a xlink:href="../../d4/db1/IComponent_8cpp.html" target="_top" xlink:title=" ">
<polygon fill="white" stroke="#666666" points="2127.5,-129 1990.5,-129 1990.5,-110 2127.5,-110 2127.5,-129"/>
<text text-anchor="middle" x="2059" y="-117" font-family="Helvetica,sans-Serif" font-size="10.00">src/core/IComponent.cpp</text>
</a>
</g>
</g>
<!-- Node1&#45;&gt;Node22 -->
<g id="edge26_Node000001_Node000022" class="edge">
<title>Node1&#45;&gt;Node22</title>
<g id="a_edge26_Node000001_Node000022"><a xlink:title=" ">
<path fill="none" stroke="#63b8ff" d="M1396.9,-169.63C1517.83,-162.89 1769.55,-147.91 1982,-129 1984.68,-128.76 1987.41,-128.51 1990.17,-128.24"/>
<polygon fill="#63b8ff" stroke="#63b8ff" points="1396.45,-166.15 1386.66,-170.2 1396.84,-173.14 1396.45,-166.15"/>
</a>
</g>
</g>
<!-- Node3 -->
<g id="Node000003" class="node">
<title>Node3</title>
<g id="a_Node000003"><a xlink:href="../../dd/dc9/ComponentManager_8cpp.html" target="_top" xlink:title=" ">
<polygon fill="white" stroke="#666666" points="786,-74 610,-74 610,-55 786,-55 786,-74"/>
<text text-anchor="middle" x="698" y="-62" font-family="Helvetica,sans-Serif" font-size="10.00">src/core/ComponentManager.cpp</text>
</a>
</g>
</g>
<!-- Node2&#45;&gt;Node3 -->
<g id="edge2_Node000002_Node000003" class="edge">
<title>Node2&#45;&gt;Node3</title>
<g id="a_edge2_Node000002_Node000003"><a xlink:title=" ">
<path fill="none" stroke="#63b8ff" d="M554.86,-107.18C588.9,-97.27 637.62,-83.08 668.53,-74.08"/>
<polygon fill="#63b8ff" stroke="#63b8ff" points="553.86,-103.83 545.24,-109.98 555.82,-110.55 553.86,-103.83"/>
</a>
</g>
</g>
<!-- Node4 -->
<g id="Node000004" class="node">
<title>Node4</title>
<g id="a_Node000004"><a xlink:href="../../d8/db4/EonPlayApplication_8cpp.html" target="_top" xlink:title=" ">
<polygon fill="white" stroke="#666666" points="172,-74 0,-74 0,-55 172,-55 172,-74"/>
<text text-anchor="middle" x="86" y="-62" font-family="Helvetica,sans-Serif" font-size="10.00">src/core/EonPlayApplication.cpp</text>
</a>
</g>
</g>
<!-- Node2&#45;&gt;Node4 -->
<g id="edge3_Node000002_Node000004" class="edge">
<title>Node2&#45;&gt;Node4</title>
<g id="a_edge3_Node000002_Node000004"><a xlink:title=" ">
<path fill="none" stroke="#63b8ff" d="M436.8,-108.74C356.1,-98.79 232.18,-83.52 155.27,-74.04"/>
<polygon fill="#63b8ff" stroke="#63b8ff" points="436.56,-112.23 446.91,-109.98 437.42,-105.29 436.56,-112.23"/>
</a>
</g>
</g>
<!-- Node5 -->
<g id="Node000005" class="node">
<title>Node5</title>
<g id="a_Node000005"><a xlink:href="../../da/d59/MediaPlayerApplication_8cpp.html" target="_top" xlink:title=" ">
<polygon fill="white" stroke="#666666" points="384,-74 190,-74 190,-55 384,-55 384,-74"/>
<text text-anchor="middle" x="287" y="-62" font-family="Helvetica,sans-Serif" font-size="10.00">src/core/MediaPlayerApplication.cpp</text>
</a>
</g>
</g>
<!-- Node2&#45;&gt;Node5 -->
<g id="edge4_Node000002_Node000005" class="edge">
<title>Node2&#45;&gt;Node5</title>
<g id="a_edge4_Node000002_Node000005"><a xlink:title=" ">
<path fill="none" stroke="#63b8ff" d="M469.29,-107.69C426.39,-97.76 363.64,-83.24 324.08,-74.08"/>
<polygon fill="#63b8ff" stroke="#63b8ff" points="468.68,-111.14 479.21,-109.98 470.25,-104.32 468.68,-111.14"/>
</a>
</g>
</g>
<!-- Node6 -->
<g id="Node000006" class="node">
<title>Node6</title>
<g id="a_Node000006"><a xlink:href="../../d3/db7/MainWindow_8cpp.html" target="_top" xlink:title=" ">
<polygon fill="white" stroke="#666666" points="1370,-19 1242,-19 1242,0 1370,0 1370,-19"/>
<text text-anchor="middle" x="1306" y="-7" font-family="Helvetica,sans-Serif" font-size="10.00">src/ui/MainWindow.cpp</text>
</a>
</g>
</g>
<!-- Node2&#45;&gt;Node6 -->
<g id="edge5_Node000002_Node000006" class="edge">
<title>Node2&#45;&gt;Node6</title>
<g id="a_edge5_Node000002_Node000006"><a xlink:title=" ">
<path fill="none" stroke="#63b8ff" d="M478.36,-106.61C447.25,-94.93 411.16,-75.87 431,-55 458.87,-25.68 1044.74,-14.36 1241.9,-11.37"/>
<polygon fill="#63b8ff" stroke="#63b8ff" points="477.19,-109.91 487.78,-109.99 479.55,-103.32 477.19,-109.91"/>
</a>
</g>
</g>
<!-- Node7 -->
<g id="Node000007" class="node">
<title>Node7</title>
<g id="a_Node000007"><a xlink:href="../../d3/d6e/PlaybackControls_8cpp.html" target="_top" xlink:title=" ">
<polygon fill="white" stroke="#666666" points="591.5,-74 440.5,-74 440.5,-55 591.5,-55 591.5,-74"/>
<text text-anchor="middle" x="516" y="-62" font-family="Helvetica,sans-Serif" font-size="10.00">src/ui/PlaybackControls.cpp</text>
</a>
</g>
</g>
<!-- Node2&#45;&gt;Node7 -->
<g id="edge6_Node000002_Node000007" class="edge">
<title>Node2&#45;&gt;Node7</title>
<g id="a_edge6_Node000002_Node000007"><a xlink:title=" ">
<path fill="none" stroke="#63b8ff" d="M516,-99.66C516,-90.93 516,-80.99 516,-74.09"/>
<polygon fill="#63b8ff" stroke="#63b8ff" points="512.5,-99.75 516,-109.75 519.5,-99.75 512.5,-99.75"/>
</a>
</g>
</g>
<!-- Node8 -->
<g id="Node000008" class="node">
<title>Node8</title>
<g id="a_Node000008"><a xlink:href="../../df/db1/VideoWidget_8cpp.html" target="_top" xlink:title=" ">
<polygon fill="white" stroke="#666666" points="932,-74 804,-74 804,-55 932,-55 932,-74"/>
<text text-anchor="middle" x="868" y="-62" font-family="Helvetica,sans-Serif" font-size="10.00">src/ui/VideoWidget.cpp</text>
</a>
</g>
</g>
<!-- Node2&#45;&gt;Node8 -->
<g id="edge7_Node000002_Node000008" class="edge">
<title>Node2&#45;&gt;Node8</title>
<g id="a_edge7_Node000002_Node000008"><a xlink:title=" ">
<path fill="none" stroke="#63b8ff" d="M582.45,-108.49C648.54,-98.54 748.85,-83.44 811.29,-74.04"/>
<polygon fill="#63b8ff" stroke="#63b8ff" points="581.92,-105.03 572.55,-109.98 582.96,-111.96 581.92,-105.03"/>
</a>
</g>
</g>
<!-- Node10 -->
<g id="Node000010" class="node">
<title>Node10</title>
<g id="a_Node000010"><a xlink:href="../../da/dec/SettingsManager_8cpp.html" target="_top" xlink:title=" ">
<polygon fill="white" stroke="#666666" points="1277.5,-74 1116.5,-74 1116.5,-55 1277.5,-55 1277.5,-74"/>
<text text-anchor="middle" x="1197" y="-62" font-family="Helvetica,sans-Serif" font-size="10.00">src/data/SettingsManager.cpp</text>
</a>
</g>
</g>
<!-- Node9&#45;&gt;Node10 -->
<g id="edge9_Node000009_Node000010" class="edge">
<title>Node9&#45;&gt;Node10</title>
<g id="a_edge9_Node000009_Node000010"><a xlink:title=" ">
<path fill="none" stroke="#63b8ff" d="M1210.11,-100.24C1206.76,-91.37 1202.9,-81.14 1200.24,-74.09"/>
<polygon fill="#63b8ff" stroke="#63b8ff" points="1206.89,-101.63 1213.7,-109.75 1213.44,-99.16 1206.89,-101.63"/>
</a>
</g>
</g>
<!-- Node11&#45;&gt;Node6 -->
<g id="edge16_Node000011_Node000006" class="edge">
<title>Node11&#45;&gt;Node6</title>
<g id="a_edge16_Node000011_Node000006"><a xlink:title=" ">
<path fill="none" stroke="#63b8ff" d="M1385.28,-107.33C1363.32,-100.78 1341.16,-90.41 1325,-74 1310.14,-58.92 1306.83,-32.71 1306.14,-19.16"/>
<polygon fill="#63b8ff" stroke="#63b8ff" points="1384.42,-110.73 1394.99,-110 1386.27,-103.98 1384.42,-110.73"/>
</a>
</g>
</g>
<!-- Node12 -->
<g id="Node000012" class="node">
<title>Node12</title>
<g id="a_Node000012"><a xlink:href="../../d8/d12/MediaInfoWidget_8h.html" target="_top" xlink:title=" ">
<polygon fill="white" stroke="#666666" points="1492.5,-74 1333.5,-74 1333.5,-55 1492.5,-55 1492.5,-74"/>
<text text-anchor="middle" x="1413" y="-62" font-family="Helvetica,sans-Serif" font-size="10.00">include/ui/MediaInfoWidget.h</text>
</a>
</g>
</g>
<!-- Node11&#45;&gt;Node12 -->
<g id="edge11_Node000011_Node000012" class="edge">
<title>Node11&#45;&gt;Node12</title>
<g id="a_edge11_Node000011_Node000012"><a xlink:title=" ">
<path fill="none" stroke="#63b8ff" d="M1450.02,-102.52C1440.68,-93.18 1429.25,-81.75 1421.59,-74.09"/>
<polygon fill="#63b8ff" stroke="#63b8ff" points="1447.7,-105.15 1457.25,-109.75 1452.65,-100.2 1447.7,-105.15"/>
</a>
</g>
</g>
<!-- Node13 -->
<g id="Node000013" class="node">
<title>Node13</title>
<g id="a_Node000013"><a xlink:href="../../dd/d8e/MediaInfoWidget_8cpp.html" target="_top" xlink:title=" ">
<polygon fill="white" stroke="#666666" points="1565.5,-19 1416.5,-19 1416.5,0 1565.5,0 1565.5,-19"/>
<text text-anchor="middle" x="1491" y="-7" font-family="Helvetica,sans-Serif" font-size="10.00">src/ui/MediaInfoWidget.cpp</text>
</a>
</g>
</g>
<!-- Node11&#45;&gt;Node13 -->
<g id="edge17_Node000011_Node000013" class="edge">
<title>Node11&#45;&gt;Node13</title>
<g id="a_edge17_Node000011_Node000013"><a xlink:title=" ">
<path fill="none" stroke="#63b8ff" d="M1483.63,-102.29C1490.79,-94.51 1498.25,-84.59 1502,-74 1508.64,-55.23 1500.73,-31.86 1495.29,-19.36"/>
<polygon fill="#63b8ff" stroke="#63b8ff" points="1480.72,-100.24 1476.16,-109.81 1485.69,-105.18 1480.72,-100.24"/>
</a>
</g>
</g>
<!-- Node14 -->
<g id="Node000014" class="node">
<title>Node14</title>
<g id="a_Node000014"><a xlink:href="../../d6/dff/FileUrlSupport_8cpp.html" target="_top" xlink:title=" ">
<polygon fill="white" stroke="#666666" points="1870.5,-74 1713.5,-74 1713.5,-55 1870.5,-55 1870.5,-74"/>
<text text-anchor="middle" x="1792" y="-62" font-family="Helvetica,sans-Serif" font-size="10.00">src/media/FileUrlSupport.cpp</text>
</a>
</g>
</g>
<!-- Node11&#45;&gt;Node14 -->
<g id="edge14_Node000011_Node000014" class="edge">
<title>Node11&#45;&gt;Node14</title>
<g id="a_edge14_Node000011_Node000014"><a xlink:title=" ">
<path fill="none" stroke="#63b8ff" d="M1528.3,-108.37C1589.51,-98.42 1681.88,-83.4 1739.48,-74.04"/>
<polygon fill="#63b8ff" stroke="#63b8ff" points="1527.69,-104.93 1518.38,-109.98 1528.81,-111.83 1527.69,-104.93"/>
</a>
</g>
</g>
<!-- Node15 -->
<g id="Node000015" class="node">
<title>Node15</title>
<g id="a_Node000015"><a xlink:href="../../db/d4b/DragDropWidget_8cpp.html" target="_top" xlink:title=" ">
<polygon fill="white" stroke="#666666" points="1695.5,-74 1548.5,-74 1548.5,-55 1695.5,-55 1695.5,-74"/>
<text text-anchor="middle" x="1622" y="-62" font-family="Helvetica,sans-Serif" font-size="10.00">src/ui/DragDropWidget.cpp</text>
</a>
</g>
</g>
<!-- Node11&#45;&gt;Node15 -->
<g id="edge15_Node000011_Node000015" class="edge">
<title>Node11&#45;&gt;Node15</title>
<g id="a_edge15_Node000011_Node000015"><a xlink:title=" ">
<path fill="none" stroke="#63b8ff" d="M1500.82,-106.67C1529.91,-96.79 1570.7,-82.93 1596.74,-74.08"/>
<polygon fill="#63b8ff" stroke="#63b8ff" points="1499.41,-103.45 1491.06,-109.98 1501.66,-110.08 1499.41,-103.45"/>
</a>
</g>
</g>
<!-- Node12&#45;&gt;Node6 -->
<g id="edge12_Node000012_Node000006" class="edge">
<title>Node12&#45;&gt;Node6</title>
<g id="a_edge12_Node000012_Node000006"><a xlink:title=" ">
<path fill="none" stroke="#63b8ff" d="M1386.76,-50.5C1367.07,-40.75 1340.68,-27.68 1323.5,-19.17"/>
<polygon fill="#63b8ff" stroke="#63b8ff" points="1385.29,-53.68 1395.81,-54.98 1388.4,-47.41 1385.29,-53.68"/>
</a>
</g>
</g>
<!-- Node12&#45;&gt;Node13 -->
<g id="edge13_Node000012_Node000013" class="edge">
<title>Node12&#45;&gt;Node13</title>
<g id="a_edge13_Node000012_Node000013"><a xlink:title=" ">
<path fill="none" stroke="#63b8ff" d="M1434.12,-49.15C1448.21,-39.57 1466.29,-27.29 1478.24,-19.17"/>
<polygon fill="#63b8ff" stroke="#63b8ff" points="1431.84,-46.47 1425.53,-54.98 1435.77,-52.26 1431.84,-46.47"/>
</a>
</g>
</g>
<!-- Node16&#45;&gt;Node14 -->
<g id="edge19_Node000016_Node000014" class="edge">
<title>Node16&#45;&gt;Node14</title>
<g id="a_edge19_Node000016_Node000014"><a xlink:title=" ">
<path fill="none" stroke="#63b8ff" d="M1855.6,-104.7C1839.93,-95.04 1819.49,-82.44 1806.07,-74.17"/>
<polygon fill="#63b8ff" stroke="#63b8ff" points="1853.83,-107.72 1864.18,-109.98 1857.51,-101.76 1853.83,-107.72"/>
</a>
</g>
</g>
<!-- Node17 -->
<g id="Node000017" class="node">
<title>Node17</title>
<g id="a_Node000017"><a xlink:href="../../db/d57/PlaybackController_8cpp.html" target="_top" xlink:title=" ">
<polygon fill="white" stroke="#666666" points="2433.5,-74 2254.5,-74 2254.5,-55 2433.5,-55 2433.5,-74"/>
<text text-anchor="middle" x="2344" y="-62" font-family="Helvetica,sans-Serif" font-size="10.00">src/media/PlaybackController.cpp</text>
</a>
</g>
</g>
<!-- Node16&#45;&gt;Node17 -->
<g id="edge20_Node000016_Node000017" class="edge">
<title>Node16&#45;&gt;Node17</title>
<g id="a_edge20_Node000016_Node000017"><a xlink:title=" ">
<path fill="none" stroke="#63b8ff" d="M1963.03,-108.83C2050.46,-98.89 2185.32,-83.55 2268.93,-74.04"/>
<polygon fill="#63b8ff" stroke="#63b8ff" points="1962.41,-105.38 1952.87,-109.98 1963.2,-112.33 1962.41,-105.38"/>
</a>
</g>
</g>
<!-- Node18 -->
<g id="Node000018" class="node">
<title>Node18</title>
<g id="a_Node000018"><a xlink:href="../../d9/d11/MiniPlayerWidget_8cpp.html" target="_top" xlink:title=" ">
<polygon fill="white" stroke="#666666" points="2041,-74 1889,-74 1889,-55 2041,-55 2041,-74"/>
<text text-anchor="middle" x="1965" y="-62" font-family="Helvetica,sans-Serif" font-size="10.00">src/ui/MiniPlayerWidget.cpp</text>
</a>
</g>
</g>
<!-- Node16&#45;&gt;Node18 -->
<g id="edge21_Node000016_Node000018" class="edge">
<title>Node16&#45;&gt;Node18</title>
<g id="a_edge21_Node000016_Node000018"><a xlink:title=" ">
<path fill="none" stroke="#63b8ff" d="M1900.66,-104.7C1916.51,-95.04 1937.19,-82.44 1950.77,-74.17"/>
<polygon fill="#63b8ff" stroke="#63b8ff" points="1898.7,-101.79 1891.98,-109.98 1902.34,-107.77 1898.7,-101.79"/>
</a>
</g>
</g>
<!-- Node19 -->
<g id="Node000019" class="node">
<title>Node19</title>
<g id="a_Node000019"><a xlink:href="../../d6/d23/PictureInPictureWidget_8cpp.html" target="_top" xlink:title=" ">
<polygon fill="white" stroke="#666666" points="2236.5,-74 2059.5,-74 2059.5,-55 2236.5,-55 2236.5,-74"/>
<text text-anchor="middle" x="2148" y="-62" font-family="Helvetica,sans-Serif" font-size="10.00">src/ui/PictureInPictureWidget.cpp</text>
</a>
</g>
</g>
<!-- Node16&#45;&gt;Node19 -->
<g id="edge22_Node000016_Node000019" class="edge">
<title>Node16&#45;&gt;Node19</title>
<g id="a_edge22_Node000016_Node000019"><a xlink:title=" ">
<path fill="none" stroke="#63b8ff" d="M1931.48,-108C1982.09,-98.07 2057.15,-83.33 2104.28,-74.08"/>
<polygon fill="#63b8ff" stroke="#63b8ff" points="1930.52,-104.62 1921.38,-109.98 1931.87,-111.49 1930.52,-104.62"/>
</a>
</g>
</g>
<!-- Node20&#45;&gt;Node8 -->
<g id="edge25_Node000020_Node000008" class="edge">
<title>Node20&#45;&gt;Node8</title>
<g id="a_edge25_Node000020_Node000008"><a xlink:title=" ">
<path fill="none" stroke="#63b8ff" d="M989.18,-106.67C960.09,-96.79 919.3,-82.93 893.26,-74.08"/>
<polygon fill="#63b8ff" stroke="#63b8ff" points="988.34,-110.08 998.94,-109.98 990.59,-103.45 988.34,-110.08"/>
</a>
</g>
</g>
<!-- Node21 -->
<g id="Node000021" class="node">
<title>Node21</title>
<g id="a_Node000021"><a xlink:href="../../d5/dac/VLCBackend_8cpp.html" target="_top" xlink:title=" ">
<polygon fill="white" stroke="#666666" points="1098,-74 950,-74 950,-55 1098,-55 1098,-74"/>
<text text-anchor="middle" x="1024" y="-62" font-family="Helvetica,sans-Serif" font-size="10.00">src/media/VLCBackend.cpp</text>
</a>
</g>
</g>
<!-- Node20&#45;&gt;Node21 -->
<g id="edge24_Node000020_Node000021" class="edge">
<title>Node20&#45;&gt;Node21</title>
<g id="a_edge24_Node000020_Node000021"><a xlink:title=" ">
<path fill="none" stroke="#63b8ff" d="M1024,-99.66C1024,-90.93 1024,-80.99 1024,-74.09"/>
<polygon fill="#63b8ff" stroke="#63b8ff" points="1020.5,-99.75 1024,-109.75 1027.5,-99.75 1020.5,-99.75"/>
</a>
</g>
</g>
</g>
</svg>

<g id="navigator" transform="translate(0 0)" fill="#404254">
  <rect fill="#f2f5e9" fill-opacity="0.5" stroke="#606060" stroke-width=".5" x="0" y="0" width="60" height="60"/>
  <use id="zoomplus" xlink:href="#zoomPlus" x="17" y="9" onmousedown="handleZoom(evt,'in')"/>
  <use id="zoomminus" xlink:href="#zoomMin" x="42" y="9" onmousedown="handleZoom(evt,'out')"/>
  <use id="reset" xlink:href="#resetDef" x="30" y="36" onmousedown="handleReset()"/>
   <use id="arrowup" xlink:href="#arrowUp" x="0" y="0" onmousedown="handlePan(0,-1)"/>
  <use id="arrowright" xlink:href="#arrowRight" x="0" y="0" onmousedown="handlePan(1,0)"/>
  <use id="arrowdown" xlink:href="#arrowDown" x="0" y="0" onmousedown="handlePan(0,1)"/>
  <use id="arrowleft" xlink:href="#arrowLeft" x="0" y="0" onmousedown="handlePan(-1,0)"/>
</g>
<svg viewBox="0 0 15 15" width="100%" height="30px" preserveAspectRatio="xMaxYMin meet">
 <g id="arrow_out" transform="scale(0.3 0.3)">
  <a xlink:href="IComponent_8h__dep__incl_org.svg" target="_base">
   <rect id="button" ry="5" rx="5" y="6" x="6" height="38" width="38"
        fill="#f2f5e9" fill-opacity="0.5" stroke="#606060" stroke-width="1.0"/>
   <path id="arrow"
     d="M 11.500037,31.436501 C 11.940474,20.09759 22.043105,11.32322 32.158766,21.979434 L 37.068811,17.246167 C 37.068811,17.246167 37.088388,32 37.088388,32 L 22.160133,31.978069 C 22.160133,31.978069 26.997745,27.140456 26.997745,27.140456 C 18.528582,18.264221 13.291696,25.230495 11.500037,31.436501 z"
     style="fill:#404040;"/>
  </a>
 </g>
</svg>

<style type='text/css'>
<![CDATA[
[data-mouse-over-selected='false'] { opacity: 0.7; }
[data-mouse-over-selected='true']  { opacity: 1.0; }
]]>
</style>
<script type="application/ecmascript"><![CDATA[
document.addEventListener('DOMContentLoaded', (event) => {
  highlightEdges();
  highlightAdjacentNodes();
});
]]></script>
</svg>
