<?xml version="1.0" encoding="UTF-8" standalone="no"?>
<!DOCTYPE svg PUBLIC "-//W3C//DTD SVG 1.1//EN"
 "http://www.w3.org/Graphics/SVG/1.1/DTD/svg11.dtd">
<!-- Generated by graphviz version 2.43.0 (0)
 -->
<!-- Title: NotificationManager::showNotification Pages: 1 -->
<svg width="307pt" height="230pt"
 viewBox="0.00 0.00 307.00 230.00" xmlns="http://www.w3.org/2000/svg" xmlns:xlink="http://www.w3.org/1999/xlink">
<g id="graph0" class="graph" transform="scale(1 1) rotate(0) translate(4 226)">
<title>NotificationManager::showNotification</title>
<!-- Node1 -->
<g id="Node000001" class="node">
<title>Node1</title>
<g id="a_Node000001"><a xlink:title="Show notification message.">
<polygon fill="#999999" stroke="#666666" points="299,-126 183,-126 183,-96 299,-96 299,-126"/>
<text text-anchor="start" x="191" y="-114" font-family="Helvetica,sans-Serif" font-size="10.00">NotificationManager</text>
<text text-anchor="middle" x="241" y="-103" font-family="Helvetica,sans-Serif" font-size="10.00">::showNotification</text>
</a>
</g>
</g>
<!-- Node1&#45;&gt;Node1 -->
<g id="edge6_Node000001_Node000001" class="edge">
<title>Node1&#45;&gt;Node1</title>
<g id="a_edge6_Node000001_Node000001"><a xlink:title=" ">
<path fill="none" stroke="#63b8ff" d="M270.06,-136.6C266.09,-140.97 256.4,-144 241,-144 215.06,-144 205.34,-135.41 211.82,-126.28"/>
<polygon fill="#63b8ff" stroke="#63b8ff" points="273.56,-136.32 270.18,-126.28 266.56,-136.23 273.56,-136.32"/>
</a>
</g>
</g>
<!-- Node2 -->
<g id="Node000002" class="node">
<title>Node2</title>
<g id="a_Node000002"><a xlink:href="../../d3/d46/classNotificationManager.html#a28cf04bb51e2cb9f7ba4b2349897e94a" target="_top" xlink:title="Handle error notifications.">
<polygon fill="white" stroke="#666666" points="131.5,-222 15.5,-222 15.5,-192 131.5,-192 131.5,-222"/>
<text text-anchor="start" x="23.5" y="-210" font-family="Helvetica,sans-Serif" font-size="10.00">NotificationManager</text>
<text text-anchor="middle" x="73.5" y="-199" font-family="Helvetica,sans-Serif" font-size="10.00">::onError</text>
</a>
</g>
</g>
<!-- Node1&#45;&gt;Node2 -->
<g id="edge1_Node000001_Node000002" class="edge">
<title>Node1&#45;&gt;Node2</title>
<g id="a_edge1_Node000001_Node000002"><a xlink:title=" ">
<path fill="none" stroke="#63b8ff" d="M216.41,-132.94C198.49,-148.65 172.63,-169.35 147,-183 140.8,-186.3 134.06,-189.27 127.26,-191.89"/>
<polygon fill="#63b8ff" stroke="#63b8ff" points="218.92,-135.39 224.05,-126.12 214.26,-130.16 218.92,-135.39"/>
</a>
</g>
</g>
<!-- Node3 -->
<g id="Node000003" class="node">
<title>Node3</title>
<g id="a_Node000003"><a xlink:href="../../d3/d46/classNotificationManager.html#ae61b99d1bc7ddd1f17abfb77cb1e2b59" target="_top" xlink:title="Handle media loaded notifications.">
<polygon fill="white" stroke="#666666" points="131.5,-174 15.5,-174 15.5,-144 131.5,-144 131.5,-174"/>
<text text-anchor="start" x="23.5" y="-162" font-family="Helvetica,sans-Serif" font-size="10.00">NotificationManager</text>
<text text-anchor="middle" x="73.5" y="-151" font-family="Helvetica,sans-Serif" font-size="10.00">::onMediaLoaded</text>
</a>
</g>
</g>
<!-- Node1&#45;&gt;Node3 -->
<g id="edge2_Node000001_Node000003" class="edge">
<title>Node1&#45;&gt;Node3</title>
<g id="a_edge2_Node000001_Node000003"><a xlink:title=" ">
<path fill="none" stroke="#63b8ff" d="M178.19,-128.93C161.08,-133.89 142.7,-139.22 126.23,-144"/>
<polygon fill="#63b8ff" stroke="#63b8ff" points="179.46,-132.2 188.09,-126.06 177.51,-125.48 179.46,-132.2"/>
</a>
</g>
</g>
<!-- Node4 -->
<g id="Node000004" class="node">
<title>Node4</title>
<g id="a_Node000004"><a xlink:href="../../d3/d46/classNotificationManager.html#a54ce097d96cc2cdf40c47cf046f54156" target="_top" xlink:title="Handle playback state change notifications.">
<polygon fill="white" stroke="#666666" points="147,-126 0,-126 0,-96 147,-96 147,-126"/>
<text text-anchor="start" x="8" y="-114" font-family="Helvetica,sans-Serif" font-size="10.00">NotificationManager</text>
<text text-anchor="middle" x="73.5" y="-103" font-family="Helvetica,sans-Serif" font-size="10.00">::onPlaybackStateChanged</text>
</a>
</g>
</g>
<!-- Node1&#45;&gt;Node4 -->
<g id="edge3_Node000001_Node000004" class="edge">
<title>Node1&#45;&gt;Node4</title>
<g id="a_edge3_Node000001_Node000004"><a xlink:title=" ">
<path fill="none" stroke="#63b8ff" d="M172.55,-111C164.22,-111 155.67,-111 147.27,-111"/>
<polygon fill="#63b8ff" stroke="#63b8ff" points="172.58,-114.5 182.58,-111 172.58,-107.5 172.58,-114.5"/>
</a>
</g>
</g>
<!-- Node5 -->
<g id="Node000005" class="node">
<title>Node5</title>
<g id="a_Node000005"><a xlink:href="../../d3/d46/classNotificationManager.html#ad0b649f43788599bf4a6d6167fb0ef8d" target="_top" xlink:title="Handle volume change notifications.">
<polygon fill="white" stroke="#666666" points="131.5,-78 15.5,-78 15.5,-48 131.5,-48 131.5,-78"/>
<text text-anchor="start" x="23.5" y="-66" font-family="Helvetica,sans-Serif" font-size="10.00">NotificationManager</text>
<text text-anchor="middle" x="73.5" y="-55" font-family="Helvetica,sans-Serif" font-size="10.00">::onVolumeChanged</text>
</a>
</g>
</g>
<!-- Node1&#45;&gt;Node5 -->
<g id="edge4_Node000001_Node000005" class="edge">
<title>Node1&#45;&gt;Node5</title>
<g id="a_edge4_Node000001_Node000005"><a xlink:title=" ">
<path fill="none" stroke="#63b8ff" d="M178.19,-93.07C161.08,-88.11 142.7,-82.78 126.23,-78"/>
<polygon fill="#63b8ff" stroke="#63b8ff" points="177.51,-96.52 188.09,-95.94 179.46,-89.8 177.51,-96.52"/>
</a>
</g>
</g>
<!-- Node6 -->
<g id="Node000006" class="node">
<title>Node6</title>
<g id="a_Node000006"><a xlink:href="../../d3/d46/classNotificationManager.html#af19bcd9ede76ddee4f9550af2c8bd52e" target="_top" xlink:title="Show notification with icon.">
<polygon fill="white" stroke="#666666" points="131.5,-30 15.5,-30 15.5,0 131.5,0 131.5,-30"/>
<text text-anchor="start" x="23.5" y="-18" font-family="Helvetica,sans-Serif" font-size="10.00">NotificationManager</text>
<text text-anchor="middle" x="73.5" y="-7" font-family="Helvetica,sans-Serif" font-size="10.00">::showNotification</text>
</a>
</g>
</g>
<!-- Node1&#45;&gt;Node6 -->
<g id="edge5_Node000001_Node000006" class="edge">
<title>Node1&#45;&gt;Node6</title>
<g id="a_edge5_Node000001_Node000006"><a xlink:title=" ">
<path fill="none" stroke="#63b8ff" d="M216.41,-89.06C198.49,-73.35 172.63,-52.65 147,-39 140.8,-35.7 134.06,-32.73 127.26,-30.11"/>
<polygon fill="#63b8ff" stroke="#63b8ff" points="214.26,-91.84 224.05,-95.88 218.92,-86.61 214.26,-91.84"/>
</a>
</g>
</g>
</g>
</svg>
