<?xml version="1.0" encoding="UTF-8" standalone="no"?>
<!DOCTYPE svg PUBLIC "-//W3C//DTD SVG 1.1//EN"
 "http://www.w3.org/Graphics/SVG/1.1/DTD/svg11.dtd">
<!-- Generated by graphviz version 2.43.0 (0)
 -->
<!-- Title: include/audio/AudioProcessor.h Pages: 1 -->
<svg width="741pt" height="148pt"
 viewBox="0.00 0.00 741.00 148.00" xmlns="http://www.w3.org/2000/svg" xmlns:xlink="http://www.w3.org/1999/xlink">
<g id="graph0" class="graph" transform="scale(1 1) rotate(0) translate(4 144)">
<title>include/audio/AudioProcessor.h</title>
<!-- Node1 -->
<g id="Node000001" class="node">
<title>Node1</title>
<g id="a_Node000001"><a xlink:title=" ">
<polygon fill="#999999" stroke="#666666" points="463,-140 295,-140 295,-121 463,-121 463,-140"/>
<text text-anchor="middle" x="379" y="-128" font-family="Helvetica,sans-Serif" font-size="10.00">include/audio/AudioProcessor.h</text>
</a>
</g>
</g>
<!-- Node2 -->
<g id="Node000002" class="node">
<title>Node2</title>
<g id="a_Node000002"><a xlink:href="../../dd/db5/AudioProcessorWidget_8h.html" target="_top" xlink:title=" ">
<polygon fill="white" stroke="#666666" points="159,-85 17,-85 17,-55 159,-55 159,-85"/>
<text text-anchor="start" x="25" y="-73" font-family="Helvetica,sans-Serif" font-size="10.00">include/ui/AudioProcessor</text>
<text text-anchor="middle" x="88" y="-62" font-family="Helvetica,sans-Serif" font-size="10.00">Widget.h</text>
</a>
</g>
</g>
<!-- Node1&#45;&gt;Node2 -->
<g id="edge1_Node000001_Node000002" class="edge">
<title>Node1&#45;&gt;Node2</title>
<g id="a_edge1_Node000001_Node000002"><a xlink:title=" ">
<path fill="none" stroke="#63b8ff" d="M326.67,-118.98C279.45,-109.49 209.62,-95.45 157.68,-85.01"/>
<polygon fill="#63b8ff" stroke="#63b8ff" points="326.19,-122.45 336.69,-120.99 327.57,-115.59 326.19,-122.45"/>
</a>
</g>
</g>
<!-- Node4 -->
<g id="Node000004" class="node">
<title>Node4</title>
<g id="a_Node000004"><a xlink:href="../../da/db8/AdvancedAudioProcessor_8cpp.html" target="_top" xlink:title=" ">
<polygon fill="white" stroke="#666666" points="383,-79.5 177,-79.5 177,-60.5 383,-60.5 383,-79.5"/>
<text text-anchor="middle" x="280" y="-67.5" font-family="Helvetica,sans-Serif" font-size="10.00">src/audio/AdvancedAudioProcessor.cpp</text>
</a>
</g>
</g>
<!-- Node1&#45;&gt;Node4 -->
<g id="edge3_Node000001_Node000004" class="edge">
<title>Node1&#45;&gt;Node4</title>
<g id="a_edge3_Node000001_Node000004"><a xlink:title=" ">
<path fill="none" stroke="#63b8ff" d="M355.77,-115.77C336.87,-104.6 310.78,-89.19 294.67,-79.67"/>
<polygon fill="#63b8ff" stroke="#63b8ff" points="354,-118.79 364.39,-120.87 357.56,-112.77 354,-118.79"/>
</a>
</g>
</g>
<!-- Node5 -->
<g id="Node000005" class="node">
<title>Node5</title>
<g id="a_Node000005"><a xlink:href="../../dd/db5/AudioEqualizer_8cpp.html" target="_top" xlink:title=" ">
<polygon fill="white" stroke="#666666" points="557,-79.5 401,-79.5 401,-60.5 557,-60.5 557,-79.5"/>
<text text-anchor="middle" x="479" y="-67.5" font-family="Helvetica,sans-Serif" font-size="10.00">src/audio/AudioEqualizer.cpp</text>
</a>
</g>
</g>
<!-- Node1&#45;&gt;Node5 -->
<g id="edge4_Node000001_Node000005" class="edge">
<title>Node1&#45;&gt;Node5</title>
<g id="a_edge4_Node000001_Node000005"><a xlink:title=" ">
<path fill="none" stroke="#63b8ff" d="M402.47,-115.77C421.56,-104.6 447.91,-89.19 464.18,-79.67"/>
<polygon fill="#63b8ff" stroke="#63b8ff" points="400.62,-112.8 393.76,-120.87 404.15,-118.84 400.62,-112.8"/>
</a>
</g>
</g>
<!-- Node6 -->
<g id="Node000006" class="node">
<title>Node6</title>
<g id="a_Node000006"><a xlink:href="../../dd/dba/AudioProcessor_8cpp.html" target="_top" xlink:title=" ">
<polygon fill="white" stroke="#666666" points="733,-79.5 575,-79.5 575,-60.5 733,-60.5 733,-79.5"/>
<text text-anchor="middle" x="654" y="-67.5" font-family="Helvetica,sans-Serif" font-size="10.00">src/audio/AudioProcessor.cpp</text>
</a>
</g>
</g>
<!-- Node1&#45;&gt;Node6 -->
<g id="edge5_Node000001_Node000006" class="edge">
<title>Node1&#45;&gt;Node6</title>
<g id="a_edge5_Node000001_Node000006"><a xlink:title=" ">
<path fill="none" stroke="#63b8ff" d="M428.86,-118.89C481.96,-107.6 564.96,-89.94 613.96,-79.52"/>
<polygon fill="#63b8ff" stroke="#63b8ff" points="428.04,-115.49 418.99,-120.99 429.5,-122.34 428.04,-115.49"/>
</a>
</g>
</g>
<!-- Node3 -->
<g id="Node000003" class="node">
<title>Node3</title>
<g id="a_Node000003"><a xlink:href="../../d6/dc7/AudioProcessorWidget_8cpp.html" target="_top" xlink:title=" ">
<polygon fill="white" stroke="#666666" points="176,-19 0,-19 0,0 176,0 176,-19"/>
<text text-anchor="middle" x="88" y="-7" font-family="Helvetica,sans-Serif" font-size="10.00">src/ui/AudioProcessorWidget.cpp</text>
</a>
</g>
</g>
<!-- Node2&#45;&gt;Node3 -->
<g id="edge2_Node000002_Node000003" class="edge">
<title>Node2&#45;&gt;Node3</title>
<g id="a_edge2_Node000002_Node000003"><a xlink:title=" ">
<path fill="none" stroke="#63b8ff" d="M88,-44.75C88,-35.72 88,-26.03 88,-19.27"/>
<polygon fill="#63b8ff" stroke="#63b8ff" points="84.5,-44.84 88,-54.84 91.5,-44.84 84.5,-44.84"/>
</a>
</g>
</g>
</g>
</svg>
