<?xml version="1.0" encoding="UTF-8" standalone="no"?>
<!DOCTYPE svg PUBLIC "-//W3C//DTD SVG 1.1//EN"
 "http://www.w3.org/Graphics/SVG/1.1/DTD/svg11.dtd">
<!-- Generated by graphviz version 2.43.0 (0)
 -->
<!-- Title: ParentalControlManager::~ParentalControlManager Pages: 1 -->
<svg width="497pt" height="86pt"
 viewBox="0.00 0.00 497.00 86.00" xmlns="http://www.w3.org/2000/svg" xmlns:xlink="http://www.w3.org/1999/xlink">
<g id="graph0" class="graph" transform="scale(1 1) rotate(0) translate(4 82)">
<title>ParentalControlManager::~ParentalControlManager</title>
<!-- Node1 -->
<g id="Node000001" class="node">
<title>Node1</title>
<g id="a_Node000001"><a xlink:title=" ">
<polygon fill="#999999" stroke="#666666" points="149,-54 0,-54 0,-24 149,-24 149,-54"/>
<text text-anchor="start" x="8" y="-42" font-family="Helvetica,sans-Serif" font-size="10.00">ParentalControlManager</text>
<text text-anchor="middle" x="74.5" y="-31" font-family="Helvetica,sans-Serif" font-size="10.00">::~ParentalControlManager</text>
</a>
</g>
</g>
<!-- Node2 -->
<g id="Node000002" class="node">
<title>Node2</title>
<g id="a_Node000002"><a xlink:href="../../dd/d2d/classParentalControlManager.html#a233920a6d3eaba19f735b8d87f4065e7" target="_top" xlink:title=" ">
<polygon fill="white" stroke="#666666" points="319,-54 185,-54 185,-24 319,-24 319,-54"/>
<text text-anchor="start" x="193" y="-42" font-family="Helvetica,sans-Serif" font-size="10.00">ParentalControlManager</text>
<text text-anchor="middle" x="252" y="-31" font-family="Helvetica,sans-Serif" font-size="10.00">::endUsageSession</text>
</a>
</g>
</g>
<!-- Node1&#45;&gt;Node2 -->
<g id="edge1_Node000001_Node000002" class="edge">
<title>Node1&#45;&gt;Node2</title>
<g id="a_edge1_Node000001_Node000002"><a xlink:title=" ">
<path fill="none" stroke="#63b8ff" d="M149.16,-39C157.57,-39 166.15,-39 174.58,-39"/>
<polygon fill="#63b8ff" stroke="#63b8ff" points="174.78,-42.5 184.78,-39 174.78,-35.5 174.78,-42.5"/>
</a>
</g>
</g>
<!-- Node3 -->
<g id="Node000003" class="node">
<title>Node3</title>
<g id="a_Node000003"><a xlink:href="../../dd/d2d/classParentalControlManager.html#a411dbebc2f02f5995b4f1e9dd1f5431c" target="_top" xlink:title=" ">
<polygon fill="white" stroke="#666666" points="489,-78 355,-78 355,-48 489,-48 489,-78"/>
<text text-anchor="start" x="363" y="-66" font-family="Helvetica,sans-Serif" font-size="10.00">ParentalControlManager</text>
<text text-anchor="middle" x="422" y="-55" font-family="Helvetica,sans-Serif" font-size="10.00">::recordUsageTime</text>
</a>
</g>
</g>
<!-- Node2&#45;&gt;Node3 -->
<g id="edge2_Node000002_Node000003" class="edge">
<title>Node2&#45;&gt;Node3</title>
<g id="a_edge2_Node000002_Node000003"><a xlink:title=" ">
<path fill="none" stroke="#63b8ff" d="M319.4,-48.49C327.77,-49.68 336.39,-50.91 344.89,-52.13"/>
<polygon fill="#63b8ff" stroke="#63b8ff" points="344.41,-55.59 354.81,-53.54 345.4,-48.67 344.41,-55.59"/>
</a>
</g>
</g>
<!-- Node4 -->
<g id="Node000004" class="node">
<title>Node4</title>
<g id="a_Node000004"><a xlink:href="../../dd/d2d/classParentalControlManager.html#a154bf33d3cc217fc76d58751d814aeb4" target="_top" xlink:title=" ">
<polygon fill="white" stroke="#666666" points="489,-30 355,-30 355,0 489,0 489,-30"/>
<text text-anchor="start" x="363" y="-18" font-family="Helvetica,sans-Serif" font-size="10.00">ParentalControlManager</text>
<text text-anchor="middle" x="422" y="-7" font-family="Helvetica,sans-Serif" font-size="10.00">::usageSessionEnded</text>
</a>
</g>
</g>
<!-- Node2&#45;&gt;Node4 -->
<g id="edge3_Node000002_Node000004" class="edge">
<title>Node2&#45;&gt;Node4</title>
<g id="a_edge3_Node000002_Node000004"><a xlink:title=" ">
<path fill="none" stroke="#63b8ff" d="M319.4,-29.51C327.77,-28.32 336.39,-27.09 344.89,-25.87"/>
<polygon fill="#63b8ff" stroke="#63b8ff" points="345.4,-29.33 354.81,-24.46 344.41,-22.41 345.4,-29.33"/>
</a>
</g>
</g>
</g>
</svg>
