<?xml version="1.0" encoding="UTF-8" standalone="no"?>
<!DOCTYPE svg PUBLIC "-//W3C//DTD SVG 1.1//EN"
 "http://www.w3.org/Graphics/SVG/1.1/DTD/svg11.dtd">
<!-- Generated by graphviz version 2.43.0 (0)
 -->
<!-- Title: ParentalControlManager::isAccessAllowed Pages: 1 -->
<svg width="503pt" height="86pt"
 viewBox="0.00 0.00 503.00 86.00" xmlns="http://www.w3.org/2000/svg" xmlns:xlink="http://www.w3.org/1999/xlink">
<g id="graph0" class="graph" transform="scale(1 1) rotate(0) translate(4 82)">
<title>ParentalControlManager::isAccessAllowed</title>
<!-- Node1 -->
<g id="Node000001" class="node">
<title>Node1</title>
<g id="a_Node000001"><a xlink:title=" ">
<polygon fill="#999999" stroke="#666666" points="134,-54 0,-54 0,-24 134,-24 134,-54"/>
<text text-anchor="start" x="8" y="-42" font-family="Helvetica,sans-Serif" font-size="10.00">ParentalControlManager</text>
<text text-anchor="middle" x="67" y="-31" font-family="Helvetica,sans-Serif" font-size="10.00">::isAccessAllowed</text>
</a>
</g>
</g>
<!-- Node2 -->
<g id="Node000002" class="node">
<title>Node2</title>
<g id="a_Node000002"><a xlink:href="../../dd/d2d/classParentalControlManager.html#ab0293231b351e018c46256625a1db4b3" target="_top" xlink:title=" ">
<polygon fill="white" stroke="#666666" points="325,-78 170,-78 170,-48 325,-48 325,-78"/>
<text text-anchor="start" x="178" y="-66" font-family="Helvetica,sans-Serif" font-size="10.00">ParentalControlManager</text>
<text text-anchor="middle" x="247.5" y="-55" font-family="Helvetica,sans-Serif" font-size="10.00">::getRemainingDailyMinutes</text>
</a>
</g>
</g>
<!-- Node1&#45;&gt;Node2 -->
<g id="edge1_Node000001_Node000002" class="edge">
<title>Node1&#45;&gt;Node2</title>
<g id="a_edge1_Node000001_Node000002"><a xlink:title=" ">
<path fill="none" stroke="#63b8ff" d="M134.21,-47.9C142.56,-49.02 151.19,-50.19 159.79,-51.34"/>
<polygon fill="#63b8ff" stroke="#63b8ff" points="159.47,-54.83 169.85,-52.69 160.41,-47.89 159.47,-54.83"/>
</a>
</g>
</g>
<!-- Node4 -->
<g id="Node000004" class="node">
<title>Node4</title>
<g id="a_Node000004"><a xlink:href="../../dd/d2d/classParentalControlManager.html#a23e1ed9afa000b14d40c38e1c378ac65" target="_top" xlink:title=" ">
<polygon fill="white" stroke="#666666" points="314.5,-30 180.5,-30 180.5,0 314.5,0 314.5,-30"/>
<text text-anchor="start" x="188.5" y="-18" font-family="Helvetica,sans-Serif" font-size="10.00">ParentalControlManager</text>
<text text-anchor="middle" x="247.5" y="-7" font-family="Helvetica,sans-Serif" font-size="10.00">::isTimeAllowed</text>
</a>
</g>
</g>
<!-- Node1&#45;&gt;Node4 -->
<g id="edge3_Node000001_Node000004" class="edge">
<title>Node1&#45;&gt;Node4</title>
<g id="a_edge3_Node000001_Node000004"><a xlink:title=" ">
<path fill="none" stroke="#63b8ff" d="M134.21,-30.1C146,-28.51 158.35,-26.85 170.38,-25.23"/>
<polygon fill="#63b8ff" stroke="#63b8ff" points="170.95,-28.69 180.39,-23.89 170.02,-21.75 170.95,-28.69"/>
</a>
</g>
</g>
<!-- Node3 -->
<g id="Node000003" class="node">
<title>Node3</title>
<g id="a_Node000003"><a xlink:href="../../dd/d2d/classParentalControlManager.html#a5b7eeafe26e1e629110b400c682ac1c9" target="_top" xlink:title=" ">
<polygon fill="white" stroke="#666666" points="495,-54 361,-54 361,-24 495,-24 495,-54"/>
<text text-anchor="start" x="369" y="-42" font-family="Helvetica,sans-Serif" font-size="10.00">ParentalControlManager</text>
<text text-anchor="middle" x="428" y="-31" font-family="Helvetica,sans-Serif" font-size="10.00">::getActiveProfile</text>
</a>
</g>
</g>
<!-- Node2&#45;&gt;Node3 -->
<g id="edge2_Node000002_Node000003" class="edge">
<title>Node2&#45;&gt;Node3</title>
<g id="a_edge2_Node000002_Node000003"><a xlink:title=" ">
<path fill="none" stroke="#63b8ff" d="M325.24,-52.68C333.79,-51.53 342.51,-50.36 351.05,-49.21"/>
<polygon fill="#63b8ff" stroke="#63b8ff" points="351.55,-52.68 360.99,-47.87 350.62,-45.74 351.55,-52.68"/>
</a>
</g>
</g>
<!-- Node4&#45;&gt;Node3 -->
<g id="edge4_Node000004_Node000003" class="edge">
<title>Node4&#45;&gt;Node3</title>
<g id="a_edge4_Node000004_Node000003"><a xlink:title=" ">
<path fill="none" stroke="#63b8ff" d="M314.71,-23.9C326.5,-25.49 338.85,-27.15 350.88,-28.77"/>
<polygon fill="#63b8ff" stroke="#63b8ff" points="350.52,-32.25 360.89,-30.11 351.45,-25.31 350.52,-32.25"/>
</a>
</g>
</g>
</g>
</svg>
