<?xml version="1.0" encoding="UTF-8" standalone="no"?>
<!DOCTYPE svg PUBLIC "-//W3C//DTD SVG 1.1//EN"
 "http://www.w3.org/Graphics/SVG/1.1/DTD/svg11.dtd">
<!-- Generated by graphviz version 2.43.0 (0)
 -->
<!-- Title: ParentalControlManager::UserProfile Pages: 1 -->
<svg width="428pt" height="385pt"
 viewBox="0.00 0.00 428.00 385.00" xmlns="http://www.w3.org/2000/svg" xmlns:xlink="http://www.w3.org/1999/xlink">

<svg id="main" version="1.1" xmlns="http://www.w3.org/2000/svg" xmlns:xlink="http://www.w3.org/1999/xlink" xml:space="preserve" onload="init(evt)">
<style type="text/css"><![CDATA[
.node, .edge {opacity: 0.7;}
.node.selected, .edge.selected {opacity: 1;}
.edge:hover path { stroke: red; }
.edge:hover polygon { stroke: red; fill: red; }
]]></style>
<script type="application/ecmascript" xlink:href="../../svg.min.js"/>
<svg id="graph" class="graph">
<g id="graph0" class="graph" transform="scale(1 1) rotate(0) translate(4 381)">
<title>ParentalControlManager::UserProfile</title>
<!-- Node1 -->
<g id="Node000001" class="node">
<title>Node1</title>
<g id="a_Node000001"><a xlink:title=" ">
<polygon fill="#999999" stroke="transparent" points="274,-165 146,-165 146,0 274,0 274,-165"/>
<text text-anchor="start" x="151" y="-152.5" font-family="Helvetica,sans-Serif" font-size="10.00">ParentalControlManager</text>
<text text-anchor="start" x="180" y="-141.5" font-family="Helvetica,sans-Serif" font-size="10.00">::UserProfile</text>
<text text-anchor="start" x="152.5" y="-126.5" font-family="Helvetica,sans-Serif" font-size="10.00">+</text>
<text text-anchor="start" x="168" y="-126.5" font-family="Helvetica,sans-Serif" font-size="10.00">profileName</text>
<text text-anchor="start" x="152.5" y="-111.5" font-family="Helvetica,sans-Serif" font-size="10.00">+</text>
<text text-anchor="start" x="168" y="-111.5" font-family="Helvetica,sans-Serif" font-size="10.00">profileId</text>
<text text-anchor="start" x="152.5" y="-96.5" font-family="Helvetica,sans-Serif" font-size="10.00">+</text>
<text text-anchor="start" x="168" y="-96.5" font-family="Helvetica,sans-Serif" font-size="10.00">birthDate</text>
<text text-anchor="start" x="152.5" y="-81.5" font-family="Helvetica,sans-Serif" font-size="10.00">+</text>
<text text-anchor="start" x="168" y="-81.5" font-family="Helvetica,sans-Serif" font-size="10.00">accessLevel</text>
<text text-anchor="start" x="152.5" y="-66.5" font-family="Helvetica,sans-Serif" font-size="10.00">+</text>
<text text-anchor="start" x="168" y="-66.5" font-family="Helvetica,sans-Serif" font-size="10.00">parentalPin</text>
<text text-anchor="start" x="152.5" y="-51.5" font-family="Helvetica,sans-Serif" font-size="10.00">+</text>
<text text-anchor="start" x="168" y="-51.5" font-family="Helvetica,sans-Serif" font-size="10.00">requiresSupervision</text>
<text text-anchor="start" x="152.5" y="-36.5" font-family="Helvetica,sans-Serif" font-size="10.00">+</text>
<text text-anchor="start" x="168" y="-36.5" font-family="Helvetica,sans-Serif" font-size="10.00">allowedFeatures</text>
<text text-anchor="start" x="152.5" y="-21.5" font-family="Helvetica,sans-Serif" font-size="10.00">+</text>
<text text-anchor="start" x="168" y="-21.5" font-family="Helvetica,sans-Serif" font-size="10.00">blockedFeatures</text>
<text text-anchor="start" x="208" y="-6.5" font-family="Helvetica,sans-Serif" font-size="10.00"> </text>
<polygon fill="#666666" stroke="#666666" points="146,-136.5 146,-136.5 274,-136.5 274,-136.5 146,-136.5"/>
<polygon fill="#666666" stroke="#666666" points="146,-16.5 146,-16.5 166,-16.5 166,-16.5 146,-16.5"/>
<polygon fill="#666666" stroke="#666666" points="166,-16.5 166,-16.5 274,-16.5 274,-16.5 166,-16.5"/>
<polygon fill="none" stroke="#666666" points="146,0 146,-165 274,-165 274,0 146,0"/>
</a>
</g>
</g>
<!-- Node2 -->
<g id="Node000002" class="node">
<title>Node2</title>
<g id="a_Node000002"><a xlink:href="../../d7/d4f/structParentalControlManager_1_1TimeRestriction.html" target="_top" xlink:title=" ">
<polygon fill="white" stroke="transparent" points="128,-362 0,-362 0,-227 128,-227 128,-362"/>
<text text-anchor="start" x="5" y="-349.5" font-family="Helvetica,sans-Serif" font-size="10.00">ParentalControlManager</text>
<text text-anchor="start" x="22" y="-338.5" font-family="Helvetica,sans-Serif" font-size="10.00">::TimeRestriction</text>
<text text-anchor="start" x="6.5" y="-323.5" font-family="Helvetica,sans-Serif" font-size="10.00">+</text>
<text text-anchor="start" x="22" y="-323.5" font-family="Helvetica,sans-Serif" font-size="10.00">startTime</text>
<text text-anchor="start" x="6.5" y="-308.5" font-family="Helvetica,sans-Serif" font-size="10.00">+</text>
<text text-anchor="start" x="22" y="-308.5" font-family="Helvetica,sans-Serif" font-size="10.00">endTime</text>
<text text-anchor="start" x="6.5" y="-293.5" font-family="Helvetica,sans-Serif" font-size="10.00">+</text>
<text text-anchor="start" x="22" y="-293.5" font-family="Helvetica,sans-Serif" font-size="10.00">allowedDays</text>
<text text-anchor="start" x="6.5" y="-278.5" font-family="Helvetica,sans-Serif" font-size="10.00">+</text>
<text text-anchor="start" x="22" y="-278.5" font-family="Helvetica,sans-Serif" font-size="10.00">maxDailyMinutes</text>
<text text-anchor="start" x="6.5" y="-263.5" font-family="Helvetica,sans-Serif" font-size="10.00">+</text>
<text text-anchor="start" x="22" y="-263.5" font-family="Helvetica,sans-Serif" font-size="10.00">maxWeeklyMinutes</text>
<text text-anchor="start" x="6.5" y="-248.5" font-family="Helvetica,sans-Serif" font-size="10.00">+</text>
<text text-anchor="start" x="22" y="-248.5" font-family="Helvetica,sans-Serif" font-size="10.00">isActive</text>
<text text-anchor="start" x="62" y="-233.5" font-family="Helvetica,sans-Serif" font-size="10.00"> </text>
<polygon fill="#666666" stroke="#666666" points="0,-333.5 0,-333.5 128,-333.5 128,-333.5 0,-333.5"/>
<polygon fill="#666666" stroke="#666666" points="0,-243.5 0,-243.5 20,-243.5 20,-243.5 0,-243.5"/>
<polygon fill="#666666" stroke="#666666" points="20,-243.5 20,-243.5 128,-243.5 128,-243.5 20,-243.5"/>
<polygon fill="none" stroke="#666666" points="0,-227 0,-362 128,-362 128,-227 0,-227"/>
</a>
</g>
</g>
<!-- Node2&#45;&gt;Node1 -->
<g id="edge1_Node000001_Node000002" class="edge">
<title>Node2&#45;&gt;Node1</title>
<g id="a_edge1_Node000001_Node000002"><a xlink:title=" ">
<path fill="none" stroke="#63b8ff" d="M89.66,-226.94C96.64,-211.96 104.84,-196.5 114,-183 121,-172.69 129.1,-162.47 137.58,-152.73"/>
<polygon fill="none" stroke="#63b8ff" points="137.8,-152.49 138.82,-145.35 145.8,-143.54 144.78,-150.68 137.8,-152.49"/>
</a>
</g>
<text text-anchor="middle" x="160" y="-186" font-family="Helvetica,sans-Serif" font-size="10.00" fill="grey"> +timeRestrictions</text>
</g>
<!-- Node3 -->
<g id="Node000003" class="node">
<title>Node3</title>
<g id="a_Node000003"><a xlink:href="../../d3/d7a/structParentalControlManager_1_1ContentFilter.html" target="_top" xlink:title=" ">
<polygon fill="white" stroke="transparent" points="274,-377 146,-377 146,-212 274,-212 274,-377"/>
<text text-anchor="start" x="151" y="-364.5" font-family="Helvetica,sans-Serif" font-size="10.00">ParentalControlManager</text>
<text text-anchor="start" x="175" y="-353.5" font-family="Helvetica,sans-Serif" font-size="10.00">::ContentFilter</text>
<text text-anchor="start" x="150.5" y="-338.5" font-family="Helvetica,sans-Serif" font-size="10.00">+</text>
<text text-anchor="start" x="164" y="-338.5" font-family="Helvetica,sans-Serif" font-size="10.00">blockedKeywords</text>
<text text-anchor="start" x="150.5" y="-323.5" font-family="Helvetica,sans-Serif" font-size="10.00">+</text>
<text text-anchor="start" x="164" y="-323.5" font-family="Helvetica,sans-Serif" font-size="10.00">blockedGenres</text>
<text text-anchor="start" x="150.5" y="-308.5" font-family="Helvetica,sans-Serif" font-size="10.00">+</text>
<text text-anchor="start" x="164" y="-308.5" font-family="Helvetica,sans-Serif" font-size="10.00">allowedGenres</text>
<text text-anchor="start" x="150.5" y="-293.5" font-family="Helvetica,sans-Serif" font-size="10.00">+</text>
<text text-anchor="start" x="164" y="-293.5" font-family="Helvetica,sans-Serif" font-size="10.00">maxRating</text>
<text text-anchor="start" x="150.5" y="-278.5" font-family="Helvetica,sans-Serif" font-size="10.00">+</text>
<text text-anchor="start" x="164" y="-278.5" font-family="Helvetica,sans-Serif" font-size="10.00">blockUnratedContent</text>
<text text-anchor="start" x="150.5" y="-263.5" font-family="Helvetica,sans-Serif" font-size="10.00">+</text>
<text text-anchor="start" x="164" y="-263.5" font-family="Helvetica,sans-Serif" font-size="10.00">blockExplicitContent</text>
<text text-anchor="start" x="150.5" y="-248.5" font-family="Helvetica,sans-Serif" font-size="10.00">+</text>
<text text-anchor="start" x="164" y="-248.5" font-family="Helvetica,sans-Serif" font-size="10.00">trustedSources</text>
<text text-anchor="start" x="150.5" y="-233.5" font-family="Helvetica,sans-Serif" font-size="10.00">+</text>
<text text-anchor="start" x="164" y="-233.5" font-family="Helvetica,sans-Serif" font-size="10.00">blockedSources</text>
<text text-anchor="start" x="208" y="-218.5" font-family="Helvetica,sans-Serif" font-size="10.00"> </text>
<polygon fill="#666666" stroke="#666666" points="146,-348.5 146,-348.5 274,-348.5 274,-348.5 146,-348.5"/>
<polygon fill="#666666" stroke="#666666" points="146,-228.5 146,-228.5 162,-228.5 162,-228.5 146,-228.5"/>
<polygon fill="#666666" stroke="#666666" points="162,-228.5 162,-228.5 274,-228.5 274,-228.5 162,-228.5"/>
<polygon fill="none" stroke="#666666" points="146,-212 146,-377 274,-377 274,-212 146,-212"/>
</a>
</g>
</g>
<!-- Node3&#45;&gt;Node1 -->
<g id="edge2_Node000001_Node000003" class="edge">
<title>Node3&#45;&gt;Node1</title>
<g id="a_edge2_Node000001_Node000003"><a xlink:title=" ">
<path fill="none" stroke="#63b8ff" d="M210,-211.71C210,-200.46 210,-188.84 210,-177.39"/>
<polygon fill="none" stroke="#63b8ff" points="210,-177.07 206,-171.07 210,-165.07 214,-171.07 210,-177.07"/>
</a>
</g>
<text text-anchor="middle" x="249.5" y="-186" font-family="Helvetica,sans-Serif" font-size="10.00" fill="grey"> +contentFilters</text>
</g>
<!-- Node4 -->
<g id="Node000004" class="node">
<title>Node4</title>
<g id="a_Node000004"><a xlink:href="../../d8/d81/structParentalControlManager_1_1UsageStatistics.html" target="_top" xlink:title=" ">
<polygon fill="white" stroke="transparent" points="420,-377 292,-377 292,-212 420,-212 420,-377"/>
<text text-anchor="start" x="297" y="-364.5" font-family="Helvetica,sans-Serif" font-size="10.00">ParentalControlManager</text>
<text text-anchor="start" x="315" y="-353.5" font-family="Helvetica,sans-Serif" font-size="10.00">::UsageStatistics</text>
<text text-anchor="start" x="296.5" y="-338.5" font-family="Helvetica,sans-Serif" font-size="10.00">+</text>
<text text-anchor="start" x="310" y="-338.5" font-family="Helvetica,sans-Serif" font-size="10.00">sessionStart</text>
<text text-anchor="start" x="296.5" y="-323.5" font-family="Helvetica,sans-Serif" font-size="10.00">+</text>
<text text-anchor="start" x="310" y="-323.5" font-family="Helvetica,sans-Serif" font-size="10.00">dailyMinutesUsed</text>
<text text-anchor="start" x="296.5" y="-308.5" font-family="Helvetica,sans-Serif" font-size="10.00">+</text>
<text text-anchor="start" x="310" y="-308.5" font-family="Helvetica,sans-Serif" font-size="10.00">weeklyMinutesUsed</text>
<text text-anchor="start" x="296.5" y="-293.5" font-family="Helvetica,sans-Serif" font-size="10.00">+</text>
<text text-anchor="start" x="310" y="-293.5" font-family="Helvetica,sans-Serif" font-size="10.00">monthlyMinutesUsed</text>
<text text-anchor="start" x="296.5" y="-278.5" font-family="Helvetica,sans-Serif" font-size="10.00">+</text>
<text text-anchor="start" x="310" y="-278.5" font-family="Helvetica,sans-Serif" font-size="10.00">genreUsage</text>
<text text-anchor="start" x="296.5" y="-263.5" font-family="Helvetica,sans-Serif" font-size="10.00">+</text>
<text text-anchor="start" x="310" y="-263.5" font-family="Helvetica,sans-Serif" font-size="10.00">ratingUsage</text>
<text text-anchor="start" x="296.5" y="-248.5" font-family="Helvetica,sans-Serif" font-size="10.00">+</text>
<text text-anchor="start" x="310" y="-248.5" font-family="Helvetica,sans-Serif" font-size="10.00">recentlyWatched</text>
<text text-anchor="start" x="296.5" y="-233.5" font-family="Helvetica,sans-Serif" font-size="10.00">+</text>
<text text-anchor="start" x="310" y="-233.5" font-family="Helvetica,sans-Serif" font-size="10.00">blockedAttempts</text>
<text text-anchor="start" x="354" y="-218.5" font-family="Helvetica,sans-Serif" font-size="10.00"> </text>
<polygon fill="#666666" stroke="#666666" points="292,-348.5 292,-348.5 420,-348.5 420,-348.5 292,-348.5"/>
<polygon fill="#666666" stroke="#666666" points="292,-228.5 292,-228.5 308,-228.5 308,-228.5 292,-228.5"/>
<polygon fill="#666666" stroke="#666666" points="308,-228.5 308,-228.5 420,-228.5 420,-228.5 308,-228.5"/>
<polygon fill="none" stroke="#666666" points="292,-212 292,-377 420,-377 420,-212 292,-212"/>
</a>
</g>
</g>
<!-- Node4&#45;&gt;Node1 -->
<g id="edge3_Node000001_Node000004" class="edge">
<title>Node4&#45;&gt;Node1</title>
<g id="a_edge3_Node000001_Node000004"><a xlink:title=" ">
<path fill="none" stroke="#63b8ff" d="M311.68,-211.91C305.66,-202.01 299.36,-192.16 293,-183 289.31,-177.69 285.41,-172.31 281.38,-166.96"/>
<polygon fill="none" stroke="#63b8ff" points="281.32,-166.88 274.49,-164.55 274.01,-157.36 280.84,-159.68 281.32,-166.88"/>
</a>
</g>
<text text-anchor="middle" x="331" y="-186" font-family="Helvetica,sans-Serif" font-size="10.00" fill="grey"> +usageStats</text>
</g>
</g>
</svg>
</svg>

<style type='text/css'>
<![CDATA[
[data-mouse-over-selected='false'] { opacity: 0.7; }
[data-mouse-over-selected='true']  { opacity: 1.0; }
]]>
</style>
<script type="application/ecmascript"><![CDATA[
document.addEventListener('DOMContentLoaded', (event) => {
  highlightEdges();
  highlightAdjacentNodes();
});
]]></script>
</svg>
