<?xml version="1.0" encoding="UTF-8" standalone="no"?>
<!DOCTYPE svg PUBLIC "-//W3C//DTD SVG 1.1//EN"
 "http://www.w3.org/Graphics/SVG/1.1/DTD/svg11.dtd">
<!-- Generated by graphviz version 2.43.0 (0)
 -->
<!-- Title: EonPlay::AI::SubtitleTranslator::TranslationProgress Pages: 1 -->
<svg width="164pt" height="128pt"
 viewBox="0.00 0.00 164.00 128.00" xmlns="http://www.w3.org/2000/svg" xmlns:xlink="http://www.w3.org/1999/xlink">
<g id="graph0" class="graph" transform="scale(1 1) rotate(0) translate(4 124)">
<title>EonPlay::AI::SubtitleTranslator::TranslationProgress</title>
<!-- Node1 -->
<g id="Node000001" class="node">
<title>Node1</title>
<g id="a_Node000001"><a xlink:title=" ">
<polygon fill="#999999" stroke="transparent" points="156,-120 0,-120 0,0 156,0 156,-120"/>
<text text-anchor="start" x="5" y="-108" font-family="Helvetica,sans-Serif" font-size="10.00">EonPlay::AI::SubtitleTranslator</text>
<text text-anchor="start" x="27" y="-97" font-family="Helvetica,sans-Serif" font-size="10.00">::TranslationProgress</text>
<text text-anchor="start" x="18.5" y="-82" font-family="Helvetica,sans-Serif" font-size="10.00">+</text>
<text text-anchor="start" x="46" y="-82" font-family="Helvetica,sans-Serif" font-size="10.00">totalLines</text>
<text text-anchor="start" x="18.5" y="-67" font-family="Helvetica,sans-Serif" font-size="10.00">+</text>
<text text-anchor="start" x="46" y="-67" font-family="Helvetica,sans-Serif" font-size="10.00">translatedLines</text>
<text text-anchor="start" x="18.5" y="-52" font-family="Helvetica,sans-Serif" font-size="10.00">+</text>
<text text-anchor="start" x="46" y="-52" font-family="Helvetica,sans-Serif" font-size="10.00">failedLines</text>
<text text-anchor="start" x="18.5" y="-37" font-family="Helvetica,sans-Serif" font-size="10.00">+</text>
<text text-anchor="start" x="46" y="-37" font-family="Helvetica,sans-Serif" font-size="10.00">percentage</text>
<text text-anchor="start" x="18.5" y="-22" font-family="Helvetica,sans-Serif" font-size="10.00">+</text>
<text text-anchor="start" x="46" y="-22" font-family="Helvetica,sans-Serif" font-size="10.00">currentStatus</text>
<text text-anchor="start" x="76" y="-7" font-family="Helvetica,sans-Serif" font-size="10.00"> </text>
<polygon fill="#666666" stroke="#666666" points="0,-92 0,-92 156,-92 156,-92 0,-92"/>
<polygon fill="#666666" stroke="#666666" points="0,-17 0,-17 44,-17 44,-17 0,-17"/>
<polygon fill="#666666" stroke="#666666" points="44,-17 44,-17 156,-17 156,-17 44,-17"/>
<polygon fill="none" stroke="#666666" points="0,0 0,-120 156,-120 156,0 0,0"/>
</a>
</g>
</g>
</g>
</svg>
