<?xml version="1.0" encoding="UTF-8" standalone="no"?>
<!DOCTYPE svg PUBLIC "-//W3C//DTD SVG 1.1//EN"
 "http://www.w3.org/Graphics/SVG/1.1/DTD/svg11.dtd">
<!-- Generated by graphviz version 2.43.0 (0)
 -->
<!-- Title: MediaInfoWidget::MediaInfoWidget Pages: 1 -->
<svg width="754pt" height="38pt"
 viewBox="0.00 0.00 754.00 38.00" xmlns="http://www.w3.org/2000/svg" xmlns:xlink="http://www.w3.org/1999/xlink">
<g id="graph0" class="graph" transform="scale(1 1) rotate(0) translate(4 34)">
<title>MediaInfoWidget::MediaInfoWidget</title>
<!-- Node1 -->
<g id="Node000001" class="node">
<title>Node1</title>
<g id="a_Node000001"><a xlink:title=" ">
<polygon fill="#999999" stroke="#666666" points="155,-30 0,-30 0,0 155,0 155,-30"/>
<text text-anchor="start" x="8" y="-18" font-family="Helvetica,sans-Serif" font-size="10.00">MediaInfoWidget::MediaInfo</text>
<text text-anchor="middle" x="77.5" y="-7" font-family="Helvetica,sans-Serif" font-size="10.00">Widget</text>
</a>
</g>
</g>
<!-- Node2 -->
<g id="Node000002" class="node">
<title>Node2</title>
<g id="a_Node000002"><a xlink:href="../../dd/d6b/classMediaInfoWidget.html#a668f7244d98ab56e6ed123f4541a674d" target="_top" xlink:title="Refresh media information display.">
<polygon fill="white" stroke="#666666" points="331,-30 191,-30 191,0 331,0 331,-30"/>
<text text-anchor="start" x="199" y="-18" font-family="Helvetica,sans-Serif" font-size="10.00">MediaInfoWidget::refresh</text>
<text text-anchor="middle" x="261" y="-7" font-family="Helvetica,sans-Serif" font-size="10.00">MediaInfo</text>
</a>
</g>
</g>
<!-- Node1&#45;&gt;Node2 -->
<g id="edge1_Node000001_Node000002" class="edge">
<title>Node1&#45;&gt;Node2</title>
<g id="a_edge1_Node000001_Node000002"><a xlink:title=" ">
<path fill="none" stroke="#63b8ff" d="M155.21,-15C163.6,-15 172.16,-15 180.58,-15"/>
<polygon fill="#63b8ff" stroke="#63b8ff" points="180.77,-18.5 190.77,-15 180.77,-11.5 180.77,-18.5"/>
</a>
</g>
</g>
<!-- Node3 -->
<g id="Node000003" class="node">
<title>Node3</title>
<g id="a_Node000003"><a xlink:href="../../dd/d6b/classMediaInfoWidget.html#ac778134d63372863f981501302984405" target="_top" xlink:title="Update display with new media information.">
<polygon fill="white" stroke="#666666" points="555,-24.5 367,-24.5 367,-5.5 555,-5.5 555,-24.5"/>
<text text-anchor="middle" x="461" y="-12.5" font-family="Helvetica,sans-Serif" font-size="10.00">MediaInfoWidget::updateMediaInfo</text>
</a>
</g>
</g>
<!-- Node2&#45;&gt;Node3 -->
<g id="edge2_Node000002_Node000003" class="edge">
<title>Node2&#45;&gt;Node3</title>
<g id="a_edge2_Node000002_Node000003"><a xlink:title=" ">
<path fill="none" stroke="#63b8ff" d="M331.25,-15C339.51,-15 348.07,-15 356.67,-15"/>
<polygon fill="#63b8ff" stroke="#63b8ff" points="356.78,-18.5 366.78,-15 356.78,-11.5 356.78,-18.5"/>
</a>
</g>
</g>
<!-- Node4 -->
<g id="Node000004" class="node">
<title>Node4</title>
<g id="a_Node000004"><a xlink:href="../../dd/d6b/classMediaInfoWidget.html#ad9fcd58fdddc59739cecc76875fbd806" target="_top" xlink:title="Emitted when media info is updated.">
<polygon fill="white" stroke="#666666" points="746,-30 591,-30 591,0 746,0 746,-30"/>
<text text-anchor="start" x="599" y="-18" font-family="Helvetica,sans-Serif" font-size="10.00">MediaInfoWidget::mediaInfo</text>
<text text-anchor="middle" x="668.5" y="-7" font-family="Helvetica,sans-Serif" font-size="10.00">Updated</text>
</a>
</g>
</g>
<!-- Node3&#45;&gt;Node4 -->
<g id="edge3_Node000003_Node000004" class="edge">
<title>Node3&#45;&gt;Node4</title>
<g id="a_edge3_Node000003_Node000004"><a xlink:title=" ">
<path fill="none" stroke="#63b8ff" d="M555.13,-15C563.66,-15 572.28,-15 580.75,-15"/>
<polygon fill="#63b8ff" stroke="#63b8ff" points="581,-18.5 591,-15 581,-11.5 581,-18.5"/>
</a>
</g>
</g>
</g>
</svg>
