<?xml version="1.0" encoding="UTF-8" standalone="no"?>
<!DOCTYPE svg PUBLIC "-//W3C//DTD SVG 1.1//EN"
 "http://www.w3.org/Graphics/SVG/1.1/DTD/svg11.dtd">
<!-- Generated by graphviz version 2.43.0 (0)
 -->
<!-- Title: MediaInfoWidget::setFileUrlSupport Pages: 1 -->
<svg width="776pt" height="238pt"
 viewBox="0.00 0.00 776.00 237.50" xmlns="http://www.w3.org/2000/svg" xmlns:xlink="http://www.w3.org/1999/xlink">
<g id="graph0" class="graph" transform="scale(1 1) rotate(0) translate(4 233.5)">
<title>MediaInfoWidget::setFileUrlSupport</title>
<!-- Node1 -->
<g id="Node000001" class="node">
<title>Node1</title>
<g id="a_Node000001"><a xlink:title="Set the file URL support component.">
<polygon fill="#999999" stroke="#666666" points="138,-126 0,-126 0,-96 138,-96 138,-126"/>
<text text-anchor="start" x="8" y="-114" font-family="Helvetica,sans-Serif" font-size="10.00">MediaInfoWidget::setFile</text>
<text text-anchor="middle" x="69" y="-103" font-family="Helvetica,sans-Serif" font-size="10.00">UrlSupport</text>
</a>
</g>
</g>
<!-- Node2 -->
<g id="Node000002" class="node">
<title>Node2</title>
<g id="a_Node000002"><a xlink:href="../../dd/d6b/classMediaInfoWidget.html#a3c148eb8048514abf09aebf320d7863f" target="_top" xlink:title="Clear all displayed information.">
<polygon fill="white" stroke="#666666" points="353,-211.5 174,-211.5 174,-192.5 353,-192.5 353,-211.5"/>
<text text-anchor="middle" x="263.5" y="-199.5" font-family="Helvetica,sans-Serif" font-size="10.00">MediaInfoWidget::clearMediaInfo</text>
</a>
</g>
</g>
<!-- Node1&#45;&gt;Node2 -->
<g id="edge1_Node000001_Node000002" class="edge">
<title>Node1&#45;&gt;Node2</title>
<g id="a_edge1_Node000001_Node000002"><a xlink:title=" ">
<path fill="none" stroke="#63b8ff" d="M87.12,-126.07C106.75,-142.54 140.55,-168.52 174,-183 179.87,-185.54 186.11,-187.75 192.45,-189.68"/>
<polygon fill="#63b8ff" stroke="#63b8ff" points="191.89,-193.16 202.46,-192.47 193.77,-186.41 191.89,-193.16"/>
</a>
</g>
</g>
<!-- Node4 -->
<g id="Node000004" class="node">
<title>Node4</title>
<g id="a_Node000004"><a xlink:href="../../d8/d04/classFileUrlSupport.html#ad7738c4718eeaa38962f9602ddc8dd2d" target="_top" xlink:title="Emitted when media file is successfully loaded.">
<polygon fill="white" stroke="#666666" points="333.5,-174 193.5,-174 193.5,-144 333.5,-144 333.5,-174"/>
<text text-anchor="start" x="201.5" y="-162" font-family="Helvetica,sans-Serif" font-size="10.00">FileUrlSupport::mediaFile</text>
<text text-anchor="middle" x="263.5" y="-151" font-family="Helvetica,sans-Serif" font-size="10.00">Loaded</text>
</a>
</g>
</g>
<!-- Node1&#45;&gt;Node4 -->
<g id="edge4_Node000001_Node000004" class="edge">
<title>Node1&#45;&gt;Node4</title>
<g id="a_edge4_Node000001_Node000004"><a xlink:title=" ">
<path fill="none" stroke="#63b8ff" d="M130.38,-126.06C150.09,-130.97 172.14,-136.47 192.5,-141.54"/>
<polygon fill="#63b8ff" stroke="#63b8ff" points="191.78,-144.97 202.33,-144 193.48,-138.18 191.78,-144.97"/>
</a>
</g>
</g>
<!-- Node5 -->
<g id="Node000005" class="node">
<title>Node5</title>
<g id="a_Node000005"><a xlink:href="../../d8/d04/classFileUrlSupport.html#acfbeabc31481ea545f51901ac09ba91f" target="_top" xlink:title="Emitted when media information is extracted.">
<polygon fill="white" stroke="#666666" points="334,-126 193,-126 193,-96 334,-96 334,-126"/>
<text text-anchor="start" x="201" y="-114" font-family="Helvetica,sans-Serif" font-size="10.00">FileUrlSupport::mediaInfo</text>
<text text-anchor="middle" x="263.5" y="-103" font-family="Helvetica,sans-Serif" font-size="10.00">Extracted</text>
</a>
</g>
</g>
<!-- Node1&#45;&gt;Node5 -->
<g id="edge5_Node000001_Node000005" class="edge">
<title>Node1&#45;&gt;Node5</title>
<g id="a_edge5_Node000001_Node000005"><a xlink:title=" ">
<path fill="none" stroke="#63b8ff" d="M138.14,-111C152.55,-111 167.88,-111 182.68,-111"/>
<polygon fill="#63b8ff" stroke="#63b8ff" points="182.83,-114.5 192.83,-111 182.83,-107.5 182.83,-114.5"/>
</a>
</g>
</g>
<!-- Node6 -->
<g id="Node000006" class="node">
<title>Node6</title>
<g id="a_Node000006"><a xlink:href="../../d8/d04/classFileUrlSupport.html#a72c170b7e22a7be130a1e4f7c55015dc" target="_top" xlink:title="Emitted when media URL is successfully loaded.">
<polygon fill="white" stroke="#666666" points="332,-78 195,-78 195,-48 332,-48 332,-78"/>
<text text-anchor="start" x="203" y="-66" font-family="Helvetica,sans-Serif" font-size="10.00">FileUrlSupport::mediaUrl</text>
<text text-anchor="middle" x="263.5" y="-55" font-family="Helvetica,sans-Serif" font-size="10.00">Loaded</text>
</a>
</g>
</g>
<!-- Node1&#45;&gt;Node6 -->
<g id="edge6_Node000001_Node000006" class="edge">
<title>Node1&#45;&gt;Node6</title>
<g id="a_edge6_Node000001_Node000006"><a xlink:title=" ">
<path fill="none" stroke="#63b8ff" d="M130.38,-95.94C150.09,-91.03 172.14,-85.53 192.5,-80.46"/>
<polygon fill="#63b8ff" stroke="#63b8ff" points="193.48,-83.82 202.33,-78 191.78,-77.03 193.48,-83.82"/>
</a>
</g>
</g>
<!-- Node7 -->
<g id="Node000007" class="node">
<title>Node7</title>
<g id="a_Node000007"><a xlink:href="../../dd/d6b/classMediaInfoWidget.html#a668f7244d98ab56e6ed123f4541a674d" target="_top" xlink:title="Refresh media information display.">
<polygon fill="white" stroke="#666666" points="333.5,-30 193.5,-30 193.5,0 333.5,0 333.5,-30"/>
<text text-anchor="start" x="201.5" y="-18" font-family="Helvetica,sans-Serif" font-size="10.00">MediaInfoWidget::refresh</text>
<text text-anchor="middle" x="263.5" y="-7" font-family="Helvetica,sans-Serif" font-size="10.00">MediaInfo</text>
</a>
</g>
</g>
<!-- Node1&#45;&gt;Node7 -->
<g id="edge7_Node000001_Node000007" class="edge">
<title>Node1&#45;&gt;Node7</title>
<g id="a_edge7_Node000001_Node000007"><a xlink:title=" ">
<path fill="none" stroke="#63b8ff" d="M87.63,-95.97C107.44,-79.77 141.14,-54.28 174,-39 178.29,-37.01 182.77,-35.15 187.34,-33.44"/>
<polygon fill="#63b8ff" stroke="#63b8ff" points="188.56,-36.72 196.83,-30.09 186.24,-30.11 188.56,-36.72"/>
</a>
</g>
</g>
<!-- Node3 -->
<g id="Node000003" class="node">
<title>Node3</title>
<g id="a_Node000003"><a xlink:href="../../db/d09/structMediaInfo.html#a7defc543ad8eb09469ecc4d720f522ad" target="_top" xlink:title="Clear all media information.">
<polygon fill="white" stroke="#666666" points="530.5,-211.5 435.5,-211.5 435.5,-192.5 530.5,-192.5 530.5,-211.5"/>
<text text-anchor="middle" x="483" y="-199.5" font-family="Helvetica,sans-Serif" font-size="10.00">MediaInfo::clear</text>
</a>
</g>
</g>
<!-- Node2&#45;&gt;Node3 -->
<g id="edge2_Node000002_Node000003" class="edge">
<title>Node2&#45;&gt;Node3</title>
<g id="a_edge2_Node000002_Node000003"><a xlink:title=" ">
<path fill="none" stroke="#63b8ff" d="M353.28,-202C377.62,-202 403.33,-202 425.33,-202"/>
<polygon fill="#63b8ff" stroke="#63b8ff" points="425.48,-205.5 435.48,-202 425.48,-198.5 425.48,-205.5"/>
</a>
</g>
</g>
<!-- Node3&#45;&gt;Node3 -->
<g id="edge3_Node000003_Node000003" class="edge">
<title>Node3&#45;&gt;Node3</title>
<g id="a_edge3_Node000003_Node000003"><a xlink:title=" ">
<path fill="none" stroke="#63b8ff" d="M451.25,-211.58C435.8,-220.23 446.39,-229.5 483,-229.5 508.74,-229.5 521.62,-224.92 521.62,-219.19"/>
<polygon fill="#63b8ff" stroke="#63b8ff" points="524.05,-216.66 514.75,-211.58 518.86,-221.35 524.05,-216.66"/>
</a>
</g>
</g>
<!-- Node8 -->
<g id="Node000008" class="node">
<title>Node8</title>
<g id="a_Node000008"><a xlink:href="../../dd/d6b/classMediaInfoWidget.html#ac778134d63372863f981501302984405" target="_top" xlink:title="Update display with new media information.">
<polygon fill="white" stroke="#666666" points="577,-24.5 389,-24.5 389,-5.5 577,-5.5 577,-24.5"/>
<text text-anchor="middle" x="483" y="-12.5" font-family="Helvetica,sans-Serif" font-size="10.00">MediaInfoWidget::updateMediaInfo</text>
</a>
</g>
</g>
<!-- Node7&#45;&gt;Node8 -->
<g id="edge8_Node000007_Node000008" class="edge">
<title>Node7&#45;&gt;Node8</title>
<g id="a_edge8_Node000007_Node000008"><a xlink:title=" ">
<path fill="none" stroke="#63b8ff" d="M333.62,-15C348,-15 363.46,-15 378.78,-15"/>
<polygon fill="#63b8ff" stroke="#63b8ff" points="378.81,-18.5 388.81,-15 378.81,-11.5 378.81,-18.5"/>
</a>
</g>
</g>
<!-- Node9 -->
<g id="Node000009" class="node">
<title>Node9</title>
<g id="a_Node000009"><a xlink:href="../../dd/d6b/classMediaInfoWidget.html#ad9fcd58fdddc59739cecc76875fbd806" target="_top" xlink:title="Emitted when media info is updated.">
<polygon fill="white" stroke="#666666" points="768,-30 613,-30 613,0 768,0 768,-30"/>
<text text-anchor="start" x="621" y="-18" font-family="Helvetica,sans-Serif" font-size="10.00">MediaInfoWidget::mediaInfo</text>
<text text-anchor="middle" x="690.5" y="-7" font-family="Helvetica,sans-Serif" font-size="10.00">Updated</text>
</a>
</g>
</g>
<!-- Node8&#45;&gt;Node9 -->
<g id="edge9_Node000008_Node000009" class="edge">
<title>Node8&#45;&gt;Node9</title>
<g id="a_edge9_Node000008_Node000009"><a xlink:title=" ">
<path fill="none" stroke="#63b8ff" d="M577.13,-15C585.66,-15 594.28,-15 602.75,-15"/>
<polygon fill="#63b8ff" stroke="#63b8ff" points="603,-18.5 613,-15 603,-11.5 603,-18.5"/>
</a>
</g>
</g>
</g>
</svg>
