<?xml version="1.0" encoding="UTF-8" standalone="no"?>
<!DOCTYPE svg PUBLIC "-//W3C//DTD SVG 1.1//EN"
 "http://www.w3.org/Graphics/SVG/1.1/DTD/svg11.dtd">
<!-- Generated by graphviz version 2.43.0 (0)
 -->
<!-- Title: MediaInfoWidget::refreshMediaInfo Pages: 1 -->
<svg width="339pt" height="86pt"
 viewBox="0.00 0.00 339.00 86.00" xmlns="http://www.w3.org/2000/svg" xmlns:xlink="http://www.w3.org/1999/xlink">
<g id="graph0" class="graph" transform="scale(1 1) rotate(0) translate(4 82)">
<title>MediaInfoWidget::refreshMediaInfo</title>
<!-- Node1 -->
<g id="Node000001" class="node">
<title>Node1</title>
<g id="a_Node000001"><a xlink:title="Refresh media information display.">
<polygon fill="#999999" stroke="#666666" points="331,-54 191,-54 191,-24 331,-24 331,-54"/>
<text text-anchor="start" x="199" y="-42" font-family="Helvetica,sans-Serif" font-size="10.00">MediaInfoWidget::refresh</text>
<text text-anchor="middle" x="261" y="-31" font-family="Helvetica,sans-Serif" font-size="10.00">MediaInfo</text>
</a>
</g>
</g>
<!-- Node2 -->
<g id="Node000002" class="node">
<title>Node2</title>
<g id="a_Node000002"><a xlink:href="../../dd/d6b/classMediaInfoWidget.html#a1582b2892bb0721cd4265ca55e852979" target="_top" xlink:title=" ">
<polygon fill="white" stroke="#666666" points="155,-78 0,-78 0,-48 155,-48 155,-78"/>
<text text-anchor="start" x="8" y="-66" font-family="Helvetica,sans-Serif" font-size="10.00">MediaInfoWidget::MediaInfo</text>
<text text-anchor="middle" x="77.5" y="-55" font-family="Helvetica,sans-Serif" font-size="10.00">Widget</text>
</a>
</g>
</g>
<!-- Node1&#45;&gt;Node2 -->
<g id="edge1_Node000001_Node000002" class="edge">
<title>Node1&#45;&gt;Node2</title>
<g id="a_edge1_Node000001_Node000002"><a xlink:title=" ">
<path fill="none" stroke="#63b8ff" d="M180.87,-49.46C172.29,-50.6 163.57,-51.75 155.02,-52.88"/>
<polygon fill="#63b8ff" stroke="#63b8ff" points="181.41,-52.92 190.86,-48.14 180.49,-45.98 181.41,-52.92"/>
</a>
</g>
</g>
<!-- Node3 -->
<g id="Node000003" class="node">
<title>Node3</title>
<g id="a_Node000003"><a xlink:href="../../dd/d6b/classMediaInfoWidget.html#a750ae87503febe4e07f870243be01729" target="_top" xlink:title="Set the file URL support component.">
<polygon fill="white" stroke="#666666" points="146.5,-30 8.5,-30 8.5,0 146.5,0 146.5,-30"/>
<text text-anchor="start" x="16.5" y="-18" font-family="Helvetica,sans-Serif" font-size="10.00">MediaInfoWidget::setFile</text>
<text text-anchor="middle" x="77.5" y="-7" font-family="Helvetica,sans-Serif" font-size="10.00">UrlSupport</text>
</a>
</g>
</g>
<!-- Node1&#45;&gt;Node3 -->
<g id="edge2_Node000001_Node000003" class="edge">
<title>Node1&#45;&gt;Node3</title>
<g id="a_edge2_Node000001_Node000003"><a xlink:title=" ">
<path fill="none" stroke="#63b8ff" d="M180.89,-28.54C169.44,-27.03 157.75,-25.48 146.54,-24"/>
<polygon fill="#63b8ff" stroke="#63b8ff" points="180.49,-32.02 190.86,-29.86 181.41,-25.08 180.49,-32.02"/>
</a>
</g>
</g>
</g>
</svg>
