<?xml version="1.0" encoding="UTF-8" standalone="no"?>
<!DOCTYPE svg PUBLIC "-//W3C//DTD SVG 1.1//EN"
 "http://www.w3.org/Graphics/SVG/1.1/DTD/svg11.dtd">
<!-- Generated by graphviz version 2.43.0 (0)
 -->
<!-- Title: EonPlay::Data::MediaFile::fileExists Pages: 1 -->
<!--zoomable 156 -->

<svg id="main" version="1.1" xmlns="http://www.w3.org/2000/svg" xmlns:xlink="http://www.w3.org/1999/xlink" xml:space="preserve" onload="init(evt)">
<style type="text/css"><![CDATA[
.node, .edge {opacity: 0.7;}
.node.selected, .edge.selected {opacity: 1;}
.edge:hover path { stroke: red; }
.edge:hover polygon { stroke: red; fill: red; }
]]></style>

<defs>
  <circle id="rim" cx="0" cy="0" r="7"/>
  <circle id="rim2" cx="0" cy="0" r="3.5"/>
  <g id="zoomPlus">
    <use xlink:href="#rim" fill="#404040"><set attributeName="fill" to="#808080" begin="zoomplus.mouseover" end="zoomplus.mouseout"/></use>
    <path d="M-4,0h8M0,-4v8" fill="none" stroke="white" stroke-width="1.5" pointer-events="none"/>
  </g>
  <g id="zoomMin">
    <use xlink:href="#rim" fill="#404040"><set attributeName="fill" to="#808080" begin="zoomminus.mouseover" end="zoomminus.mouseout"/></use>
    <path d="M-4,0h8" fill="none" stroke="white" stroke-width="1.5" pointer-events="none"/>
  </g>
  <g id="arrowUp" transform="translate(30 24)">
    <use xlink:href="#rim"/>
    <path pointer-events="none" fill="none" stroke="white" stroke-width="1.5" d="M0,-3.0v7 M-2.5,-0.5L0,-3.0L2.5,-0.5"/>
  </g>
  <g id="arrowRight" transform="rotate(90) translate(36 -43)">
    <use xlink:href="#rim"/>
    <path pointer-events="none" fill="none" stroke="white" stroke-width="1.5" d="M0,-3.0v7 M-2.5,-0.5L0,-3.0L2.5,-0.5"/>
  </g>
  <g id="arrowDown" transform="rotate(180) translate(-30 -48)">
    <use xlink:href="#rim"/>
    <path pointer-events="none" fill="none" stroke="white" stroke-width="1.5" d="M0,-3.0v7 M-2.5,-0.5L0,-3.0L2.5,-0.5"/>
  </g>
  <g id="arrowLeft" transform="rotate(270) translate(-36 17)">
    <use xlink:href="#rim"/>
    <path pointer-events="none" fill="none" stroke="white" stroke-width="1.5" d="M0,-3.0v7 M-2.5,-0.5L0,-3.0L2.5,-0.5"/>
  </g>
  <g id="resetDef">
    <use xlink:href="#rim2" fill="#404040"><set attributeName="fill" to="#808080" begin="reset.mouseover" end="reset.mouseout"/></use>
  </g>
</defs>
<script type="application/ecmascript">
var viewWidth = 728;
var viewHeight = 156;
var sectionId = 'dynsection-14';
</script>
<script type="application/ecmascript" xlink:href="../../svg.min.js"/>
<svg id="graph" class="graph">
<g id="viewport">
<title>EonPlay::Data::MediaFile::fileExists</title>
<!-- Node1 -->
<g id="Node000001" class="node">
<title>Node1</title>
<g id="a_Node000001"><a xlink:title=" ">
<polygon fill="#999999" stroke="#666666" points="720,-100 583,-100 583,-70 720,-70 720,-100"/>
<text text-anchor="start" x="591" y="-88" font-family="Helvetica,sans-Serif" font-size="10.00">EonPlay::Data::MediaFile</text>
<text text-anchor="middle" x="651.5" y="-77" font-family="Helvetica,sans-Serif" font-size="10.00">::fileExists</text>
</a>
</g>
</g>
<!-- Node2 -->
<g id="Node000002" class="node">
<title>Node2</title>
<g id="a_Node000002"><a xlink:href="../../d0/d00/classEonPlay_1_1Data_1_1Playlist.html#a1740740e9bae79eeed815eb5c639720f" target="_top" xlink:title=" ">
<polygon fill="white" stroke="#666666" points="541.5,-136 415.5,-136 415.5,-106 541.5,-106 541.5,-136"/>
<text text-anchor="start" x="423.5" y="-124" font-family="Helvetica,sans-Serif" font-size="10.00">EonPlay::Data::Playlist</text>
<text text-anchor="middle" x="478.5" y="-113" font-family="Helvetica,sans-Serif" font-size="10.00">::exportToPLS</text>
</a>
</g>
</g>
<!-- Node1&#45;&gt;Node2 -->
<g id="edge1_Node000001_Node000002" class="edge">
<title>Node1&#45;&gt;Node2</title>
<g id="a_edge1_Node000001_Node000002"><a xlink:title=" ">
<path fill="none" stroke="#63b8ff" d="M572.92,-101.33C562.43,-103.54 551.77,-105.79 541.59,-107.93"/>
<polygon fill="#63b8ff" stroke="#63b8ff" points="573.85,-104.71 582.92,-99.23 572.41,-97.86 573.85,-104.71"/>
</a>
</g>
</g>
<!-- Node4 -->
<g id="Node000004" class="node">
<title>Node4</title>
<g id="a_Node000004"><a xlink:href="../../de/dc7/classEonPlay_1_1Data_1_1MediaFile.html#ac58b462f918e2599c573f99938b2f926" target="_top" xlink:title=" ">
<polygon fill="white" stroke="#666666" points="547,-76 410,-76 410,-46 547,-46 547,-76"/>
<text text-anchor="start" x="418" y="-64" font-family="Helvetica,sans-Serif" font-size="10.00">EonPlay::Data::MediaFile</text>
<text text-anchor="middle" x="478.5" y="-53" font-family="Helvetica,sans-Serif" font-size="10.00">::isValid</text>
</a>
</g>
</g>
<!-- Node1&#45;&gt;Node4 -->
<g id="edge3_Node000001_Node000004" class="edge">
<title>Node1&#45;&gt;Node4</title>
<g id="a_edge3_Node000001_Node000004"><a xlink:title=" ">
<path fill="none" stroke="#63b8ff" d="M572.9,-74.11C564.31,-72.9 555.61,-71.68 547.15,-70.5"/>
<polygon fill="#63b8ff" stroke="#63b8ff" points="572.53,-77.59 582.92,-75.51 573.5,-70.66 572.53,-77.59"/>
</a>
</g>
</g>
<!-- Node3 -->
<g id="Node000003" class="node">
<title>Node3</title>
<g id="a_Node000003"><a xlink:href="../../dd/d67/classEonPlay_1_1Data_1_1PlaylistManager.html#a30de69a7439311748453d1ac723484f9" target="_top" xlink:title=" ">
<polygon fill="white" stroke="#666666" points="374,-148 205,-148 205,-118 374,-118 374,-148"/>
<text text-anchor="start" x="213" y="-136" font-family="Helvetica,sans-Serif" font-size="10.00">EonPlay::Data::PlaylistManager</text>
<text text-anchor="middle" x="289.5" y="-125" font-family="Helvetica,sans-Serif" font-size="10.00">::exportPlaylist</text>
</a>
</g>
</g>
<!-- Node2&#45;&gt;Node3 -->
<g id="edge2_Node000002_Node000003" class="edge">
<title>Node2&#45;&gt;Node3</title>
<g id="a_edge2_Node000002_Node000003"><a xlink:title=" ">
<path fill="none" stroke="#63b8ff" d="M405.36,-125.63C395.1,-126.29 384.46,-126.97 374,-127.64"/>
<polygon fill="#63b8ff" stroke="#63b8ff" points="405.74,-129.11 415.49,-124.98 405.29,-122.13 405.74,-129.11"/>
</a>
</g>
</g>
<!-- Node5 -->
<g id="Node000005" class="node">
<title>Node5</title>
<g id="a_Node000005"><a xlink:href="../../dd/d67/classEonPlay_1_1Data_1_1PlaylistManager.html#a70606c1ae01535bd64fc16d99ef2b66c" target="_top" xlink:title=" ">
<polygon fill="white" stroke="#666666" points="374,-100 205,-100 205,-70 374,-70 374,-100"/>
<text text-anchor="start" x="213" y="-88" font-family="Helvetica,sans-Serif" font-size="10.00">EonPlay::Data::PlaylistManager</text>
<text text-anchor="middle" x="289.5" y="-77" font-family="Helvetica,sans-Serif" font-size="10.00">::addToPlaylist</text>
</a>
</g>
</g>
<!-- Node4&#45;&gt;Node5 -->
<g id="edge4_Node000004_Node000005" class="edge">
<title>Node4&#45;&gt;Node5</title>
<g id="a_edge4_Node000004_Node000005"><a xlink:title=" ">
<path fill="none" stroke="#63b8ff" d="M399.79,-70.97C391.34,-72.06 382.72,-73.16 374.21,-74.26"/>
<polygon fill="#63b8ff" stroke="#63b8ff" points="400.52,-74.41 409.99,-69.66 399.62,-67.47 400.52,-74.41"/>
</a>
</g>
</g>
<!-- Node6 -->
<g id="Node000006" class="node">
<title>Node6</title>
<g id="a_Node000006"><a xlink:href="../../dd/d67/classEonPlay_1_1Data_1_1PlaylistManager.html#aec45bb274b5d3933fb90e40cd3fb6c23" target="_top" xlink:title=" ">
<polygon fill="white" stroke="#666666" points="374,-52 205,-52 205,-22 374,-22 374,-52"/>
<text text-anchor="start" x="213" y="-40" font-family="Helvetica,sans-Serif" font-size="10.00">EonPlay::Data::PlaylistManager</text>
<text text-anchor="middle" x="289.5" y="-29" font-family="Helvetica,sans-Serif" font-size="10.00">::removeFromPlaylist</text>
</a>
</g>
</g>
<!-- Node4&#45;&gt;Node6 -->
<g id="edge5_Node000004_Node000006" class="edge">
<title>Node4&#45;&gt;Node6</title>
<g id="a_edge5_Node000004_Node000006"><a xlink:title=" ">
<path fill="none" stroke="#63b8ff" d="M399.79,-51.03C391.34,-49.94 382.72,-48.84 374.21,-47.74"/>
<polygon fill="#63b8ff" stroke="#63b8ff" points="399.62,-54.53 409.99,-52.34 400.52,-47.59 399.62,-54.53"/>
</a>
</g>
</g>
<!-- Node7 -->
<g id="Node000007" class="node">
<title>Node7</title>
<g id="a_Node000007"><a xlink:href="../../dd/d67/classEonPlay_1_1Data_1_1PlaylistManager.html#a686c0e80e2604d2410ee5a3f64a63a30" target="_top" xlink:title=" ">
<polygon fill="white" stroke="#666666" points="169,-30 0,-30 0,0 169,0 169,-30"/>
<text text-anchor="start" x="8" y="-18" font-family="Helvetica,sans-Serif" font-size="10.00">EonPlay::Data::PlaylistManager</text>
<text text-anchor="middle" x="84.5" y="-7" font-family="Helvetica,sans-Serif" font-size="10.00">::removeFromPlaylist</text>
</a>
</g>
</g>
<!-- Node4&#45;&gt;Node7 -->
<g id="edge7_Node000004_Node000007" class="edge">
<title>Node4&#45;&gt;Node7</title>
<g id="a_edge7_Node000004_Node000007"><a xlink:title=" ">
<path fill="none" stroke="#63b8ff" d="M444.21,-41.04C424.54,-30.42 398.71,-18.45 374,-13 306.26,1.94 227.37,0.13 169.23,-4.68"/>
<polygon fill="#63b8ff" stroke="#63b8ff" points="442.62,-44.16 453.06,-45.95 446.02,-38.04 442.62,-44.16"/>
</a>
</g>
</g>
<!-- Node6&#45;&gt;Node7 -->
<g id="edge6_Node000006_Node000007" class="edge">
<title>Node6&#45;&gt;Node7</title>
<g id="a_edge6_Node000006_Node000007"><a xlink:title=" ">
<path fill="none" stroke="#63b8ff" d="M194.74,-26.84C186.17,-25.91 177.52,-24.97 169.05,-24.05"/>
<polygon fill="#63b8ff" stroke="#63b8ff" points="194.44,-30.33 204.76,-27.92 195.2,-23.37 194.44,-30.33"/>
</a>
</g>
</g>
</g>
</svg>

<g id="navigator" transform="translate(0 0)" fill="#404254">
  <rect fill="#f2f5e9" fill-opacity="0.5" stroke="#606060" stroke-width=".5" x="0" y="0" width="60" height="60"/>
  <use id="zoomplus" xlink:href="#zoomPlus" x="17" y="9" onmousedown="handleZoom(evt,'in')"/>
  <use id="zoomminus" xlink:href="#zoomMin" x="42" y="9" onmousedown="handleZoom(evt,'out')"/>
  <use id="reset" xlink:href="#resetDef" x="30" y="36" onmousedown="handleReset()"/>
   <use id="arrowup" xlink:href="#arrowUp" x="0" y="0" onmousedown="handlePan(0,-1)"/>
  <use id="arrowright" xlink:href="#arrowRight" x="0" y="0" onmousedown="handlePan(1,0)"/>
  <use id="arrowdown" xlink:href="#arrowDown" x="0" y="0" onmousedown="handlePan(0,1)"/>
  <use id="arrowleft" xlink:href="#arrowLeft" x="0" y="0" onmousedown="handlePan(-1,0)"/>
</g>
<svg viewBox="0 0 15 15" width="100%" height="30px" preserveAspectRatio="xMaxYMin meet">
 <g id="arrow_out" transform="scale(0.3 0.3)">
  <a xlink:href="classEonPlay_1_1Data_1_1MediaFile_ad640ac7e92f75f102d2828dc0b092eb0_icgraph_org.svg" target="_base">
   <rect id="button" ry="5" rx="5" y="6" x="6" height="38" width="38"
        fill="#f2f5e9" fill-opacity="0.5" stroke="#606060" stroke-width="1.0"/>
   <path id="arrow"
     d="M 11.500037,31.436501 C 11.940474,20.09759 22.043105,11.32322 32.158766,21.979434 L 37.068811,17.246167 C 37.068811,17.246167 37.088388,32 37.088388,32 L 22.160133,31.978069 C 22.160133,31.978069 26.997745,27.140456 26.997745,27.140456 C 18.528582,18.264221 13.291696,25.230495 11.500037,31.436501 z"
     style="fill:#404040;"/>
  </a>
 </g>
</svg>

<style type='text/css'>
<![CDATA[
[data-mouse-over-selected='false'] { opacity: 0.7; }
[data-mouse-over-selected='true']  { opacity: 1.0; }
]]>
</style>
<script type="application/ecmascript"><![CDATA[
document.addEventListener('DOMContentLoaded', (event) => {
  highlightEdges();
  highlightAdjacentNodes();
});
]]></script>
</svg>
