<?xml version="1.0" encoding="UTF-8" standalone="no"?>
<!DOCTYPE svg PUBLIC "-//W3C//DTD SVG 1.1//EN"
 "http://www.w3.org/Graphics/SVG/1.1/DTD/svg11.dtd">
<!-- Generated by graphviz version 2.43.0 (0)
 -->
<!-- Title: EonPlay::Data::MediaFile::isSupportedFile Pages: 1 -->
<svg width="506pt" height="110pt"
 viewBox="0.00 0.00 506.00 110.00" xmlns="http://www.w3.org/2000/svg" xmlns:xlink="http://www.w3.org/1999/xlink">
<g id="graph0" class="graph" transform="scale(1 1) rotate(0) translate(4 106)">
<title>EonPlay::Data::MediaFile::isSupportedFile</title>
<!-- Node1 -->
<g id="Node000001" class="node">
<title>Node1</title>
<g id="a_Node000001"><a xlink:title=" ">
<polygon fill="#999999" stroke="#666666" points="137,-78 0,-78 0,-48 137,-48 137,-78"/>
<text text-anchor="start" x="8" y="-66" font-family="Helvetica,sans-Serif" font-size="10.00">EonPlay::Data::MediaFile</text>
<text text-anchor="middle" x="68.5" y="-55" font-family="Helvetica,sans-Serif" font-size="10.00">::isSupportedFile</text>
</a>
</g>
</g>
<!-- Node2 -->
<g id="Node000002" class="node">
<title>Node2</title>
<g id="a_Node000002"><a xlink:href="../../de/dc7/classEonPlay_1_1Data_1_1MediaFile.html#a7eb834a0663186a43f3eacb12d18ded7" target="_top" xlink:title=" ">
<polygon fill="white" stroke="#666666" points="310,-102 173,-102 173,-72 310,-72 310,-102"/>
<text text-anchor="start" x="181" y="-90" font-family="Helvetica,sans-Serif" font-size="10.00">EonPlay::Data::MediaFile</text>
<text text-anchor="middle" x="241.5" y="-79" font-family="Helvetica,sans-Serif" font-size="10.00">::filePath</text>
</a>
</g>
</g>
<!-- Node1&#45;&gt;Node2 -->
<g id="edge1_Node000001_Node000002" class="edge">
<title>Node1&#45;&gt;Node2</title>
<g id="a_edge1_Node000001_Node000002"><a xlink:title=" ">
<path fill="none" stroke="#63b8ff" d="M137.08,-72.49C145.54,-73.67 154.24,-74.89 162.83,-76.1"/>
<polygon fill="#63b8ff" stroke="#63b8ff" points="162.46,-79.58 172.85,-77.5 163.43,-72.65 162.46,-79.58"/>
</a>
</g>
</g>
<!-- Node3 -->
<g id="Node000003" class="node">
<title>Node3</title>
<g id="a_Node000003"><a xlink:href="../../de/dc7/classEonPlay_1_1Data_1_1MediaFile.html#ac59d48049a831acd9460f3e6c9b46d06" target="_top" xlink:title=" ">
<polygon fill="white" stroke="#666666" points="310,-54 173,-54 173,-24 310,-24 310,-54"/>
<text text-anchor="start" x="181" y="-42" font-family="Helvetica,sans-Serif" font-size="10.00">EonPlay::Data::MediaFile</text>
<text text-anchor="middle" x="241.5" y="-31" font-family="Helvetica,sans-Serif" font-size="10.00">::supportedExtensions</text>
</a>
</g>
</g>
<!-- Node1&#45;&gt;Node3 -->
<g id="edge2_Node000001_Node000003" class="edge">
<title>Node1&#45;&gt;Node3</title>
<g id="a_edge2_Node000001_Node000003"><a xlink:title=" ">
<path fill="none" stroke="#63b8ff" d="M137.08,-53.51C145.54,-52.33 154.24,-51.11 162.83,-49.9"/>
<polygon fill="#63b8ff" stroke="#63b8ff" points="163.43,-53.35 172.85,-48.5 162.46,-46.42 163.43,-53.35"/>
</a>
</g>
</g>
<!-- Node4 -->
<g id="Node000004" class="node">
<title>Node4</title>
<g id="a_Node000004"><a xlink:href="../../de/dc7/classEonPlay_1_1Data_1_1MediaFile.html#af01ce44c7e6bb9e44d740d941cd8bf99" target="_top" xlink:title=" ">
<polygon fill="white" stroke="#666666" points="498,-78 346,-78 346,-48 498,-48 498,-78"/>
<text text-anchor="start" x="354" y="-66" font-family="Helvetica,sans-Serif" font-size="10.00">EonPlay::Data::MediaFile</text>
<text text-anchor="middle" x="422" y="-55" font-family="Helvetica,sans-Serif" font-size="10.00">::supportedAudioExtensions</text>
</a>
</g>
</g>
<!-- Node3&#45;&gt;Node4 -->
<g id="edge3_Node000003_Node000004" class="edge">
<title>Node3&#45;&gt;Node4</title>
<g id="a_edge3_Node000003_Node000004"><a xlink:title=" ">
<path fill="none" stroke="#63b8ff" d="M310.24,-48.11C318.6,-49.23 327.24,-50.39 335.82,-51.55"/>
<polygon fill="#63b8ff" stroke="#63b8ff" points="335.47,-55.03 345.85,-52.9 336.41,-48.09 335.47,-55.03"/>
</a>
</g>
</g>
<!-- Node5 -->
<g id="Node000005" class="node">
<title>Node5</title>
<g id="a_Node000005"><a xlink:href="../../de/dc7/classEonPlay_1_1Data_1_1MediaFile.html#af4d4232b4731ff99cb583543601e1180" target="_top" xlink:title=" ">
<polygon fill="white" stroke="#666666" points="498,-30 346,-30 346,0 498,0 498,-30"/>
<text text-anchor="start" x="354" y="-18" font-family="Helvetica,sans-Serif" font-size="10.00">EonPlay::Data::MediaFile</text>
<text text-anchor="middle" x="422" y="-7" font-family="Helvetica,sans-Serif" font-size="10.00">::supportedVideoExtensions</text>
</a>
</g>
</g>
<!-- Node3&#45;&gt;Node5 -->
<g id="edge4_Node000003_Node000005" class="edge">
<title>Node3&#45;&gt;Node5</title>
<g id="a_edge4_Node000003_Node000005"><a xlink:title=" ">
<path fill="none" stroke="#63b8ff" d="M310.24,-29.89C318.6,-28.77 327.24,-27.61 335.82,-26.45"/>
<polygon fill="#63b8ff" stroke="#63b8ff" points="336.41,-29.91 345.85,-25.1 335.47,-22.97 336.41,-29.91"/>
</a>
</g>
</g>
</g>
</svg>
