<?xml version="1.0" encoding="UTF-8" standalone="no"?>
<!DOCTYPE svg PUBLIC "-//W3C//DTD SVG 1.1//EN"
 "http://www.w3.org/Graphics/SVG/1.1/DTD/svg11.dtd">
<!-- Generated by graphviz version 2.43.0 (0)
 -->
<!-- Title: EonPlay::Data::MediaFile::setFilePath Pages: 1 -->
<svg width="1170pt" height="470pt"
 viewBox="0.00 0.00 1170.00 470.00" xmlns="http://www.w3.org/2000/svg" xmlns:xlink="http://www.w3.org/1999/xlink">
<g id="graph0" class="graph" transform="scale(1 1) rotate(0) translate(4 466)">
<title>EonPlay::Data::MediaFile::setFilePath</title>
<!-- Node1 -->
<g id="Node000001" class="node">
<title>Node1</title>
<g id="a_Node000001"><a xlink:title=" ">
<polygon fill="#999999" stroke="#666666" points="1162,-246 1025,-246 1025,-216 1162,-216 1162,-246"/>
<text text-anchor="start" x="1033" y="-234" font-family="Helvetica,sans-Serif" font-size="10.00">EonPlay::Data::MediaFile</text>
<text text-anchor="middle" x="1093.5" y="-223" font-family="Helvetica,sans-Serif" font-size="10.00">::setFilePath</text>
</a>
</g>
</g>
<!-- Node2 -->
<g id="Node000002" class="node">
<title>Node2</title>
<g id="a_Node000002"><a xlink:href="../../de/dc7/classEonPlay_1_1Data_1_1MediaFile.html#a245456860a19ca20788fc5be3f1e9bb2" target="_top" xlink:title=" ">
<polygon fill="white" stroke="#666666" points="973,-462 836,-462 836,-432 973,-432 973,-462"/>
<text text-anchor="start" x="844" y="-450" font-family="Helvetica,sans-Serif" font-size="10.00">EonPlay::Data::MediaFile</text>
<text text-anchor="middle" x="904.5" y="-439" font-family="Helvetica,sans-Serif" font-size="10.00">::fromVariantMap</text>
</a>
</g>
</g>
<!-- Node1&#45;&gt;Node2 -->
<g id="edge1_Node000001_Node000002" class="edge">
<title>Node1&#45;&gt;Node2</title>
<g id="a_edge1_Node000001_Node000002"><a xlink:title=" ">
<path fill="none" stroke="#63b8ff" d="M1085.97,-255.81C1073.87,-296.83 1044.07,-378.64 989,-423 984.18,-426.88 978.77,-430.13 973.07,-432.86"/>
<polygon fill="#63b8ff" stroke="#63b8ff" points="1089.36,-256.66 1088.73,-246.08 1082.63,-254.75 1089.36,-256.66"/>
</a>
</g>
</g>
<!-- Node4 -->
<g id="Node000004" class="node">
<title>Node4</title>
<g id="a_Node000004"><a xlink:href="../../d9/d0d/classEonPlay_1_1Data_1_1LibraryManager.html#a800eef6cb39146e513270d134904456b" target="_top" xlink:title=" ">
<polygon fill="white" stroke="#666666" points="988,-414 821,-414 821,-384 988,-384 988,-414"/>
<text text-anchor="start" x="829" y="-402" font-family="Helvetica,sans-Serif" font-size="10.00">EonPlay::Data::LibraryManager</text>
<text text-anchor="middle" x="904.5" y="-391" font-family="Helvetica,sans-Serif" font-size="10.00">::getFilesByAlbum</text>
</a>
</g>
</g>
<!-- Node1&#45;&gt;Node4 -->
<g id="edge3_Node000001_Node000004" class="edge">
<title>Node1&#45;&gt;Node4</title>
<g id="a_edge3_Node000001_Node000004"><a xlink:title=" ">
<path fill="none" stroke="#63b8ff" d="M1081.42,-255.36C1065.54,-287.55 1033.25,-343.83 989,-375 984.07,-378.47 978.64,-381.45 972.99,-384"/>
<polygon fill="#63b8ff" stroke="#63b8ff" points="1084.65,-256.72 1085.82,-246.19 1078.34,-253.7 1084.65,-256.72"/>
</a>
</g>
</g>
<!-- Node5 -->
<g id="Node000005" class="node">
<title>Node5</title>
<g id="a_Node000005"><a xlink:href="../../d9/d0d/classEonPlay_1_1Data_1_1LibraryManager.html#a74fbc9d49b135279efd455eacae6eed3" target="_top" xlink:title=" ">
<polygon fill="white" stroke="#666666" points="988,-366 821,-366 821,-336 988,-336 988,-366"/>
<text text-anchor="start" x="829" y="-354" font-family="Helvetica,sans-Serif" font-size="10.00">EonPlay::Data::LibraryManager</text>
<text text-anchor="middle" x="904.5" y="-343" font-family="Helvetica,sans-Serif" font-size="10.00">::getFilesByArtist</text>
</a>
</g>
</g>
<!-- Node1&#45;&gt;Node5 -->
<g id="edge4_Node000001_Node000005" class="edge">
<title>Node1&#45;&gt;Node5</title>
<g id="a_edge4_Node000001_Node000005"><a xlink:title=" ">
<path fill="none" stroke="#63b8ff" d="M1073.38,-254.13C1054.18,-275.93 1022.69,-307.99 989,-327 982.96,-330.41 976.39,-333.37 969.68,-335.93"/>
<polygon fill="#63b8ff" stroke="#63b8ff" points="1076.22,-256.19 1080.11,-246.33 1070.93,-251.62 1076.22,-256.19"/>
</a>
</g>
</g>
<!-- Node6 -->
<g id="Node000006" class="node">
<title>Node6</title>
<g id="a_Node000006"><a xlink:href="../../d9/d0d/classEonPlay_1_1Data_1_1LibraryManager.html#acfd0f7edb3f9f6b69faa1868c614f072" target="_top" xlink:title=" ">
<polygon fill="white" stroke="#666666" points="988,-318 821,-318 821,-288 988,-288 988,-318"/>
<text text-anchor="start" x="829" y="-306" font-family="Helvetica,sans-Serif" font-size="10.00">EonPlay::Data::LibraryManager</text>
<text text-anchor="middle" x="904.5" y="-295" font-family="Helvetica,sans-Serif" font-size="10.00">::getFilesByGenre</text>
</a>
</g>
</g>
<!-- Node1&#45;&gt;Node6 -->
<g id="edge5_Node000001_Node000006" class="edge">
<title>Node1&#45;&gt;Node6</title>
<g id="a_edge5_Node000001_Node000006"><a xlink:title=" ">
<path fill="none" stroke="#63b8ff" d="M1054.08,-250.54C1034.84,-259.89 1011.01,-270.79 989,-279 980.52,-282.16 971.43,-285.16 962.48,-287.9"/>
<polygon fill="#63b8ff" stroke="#63b8ff" points="1055.69,-253.65 1063.13,-246.1 1052.61,-247.37 1055.69,-253.65"/>
</a>
</g>
</g>
<!-- Node7 -->
<g id="Node000007" class="node">
<title>Node7</title>
<g id="a_Node000007"><a xlink:href="../../d9/d0d/classEonPlay_1_1Data_1_1LibraryManager.html#a64b072d603eb70a9547959da10ac84f3" target="_top" xlink:title=" ">
<polygon fill="white" stroke="#666666" points="988,-270 821,-270 821,-240 988,-240 988,-270"/>
<text text-anchor="start" x="829" y="-258" font-family="Helvetica,sans-Serif" font-size="10.00">EonPlay::Data::LibraryManager</text>
<text text-anchor="middle" x="904.5" y="-247" font-family="Helvetica,sans-Serif" font-size="10.00">::getMostPlayedFiles</text>
</a>
</g>
</g>
<!-- Node1&#45;&gt;Node7 -->
<g id="edge6_Node000001_Node000007" class="edge">
<title>Node1&#45;&gt;Node7</title>
<g id="a_edge6_Node000001_Node000007"><a xlink:title=" ">
<path fill="none" stroke="#63b8ff" d="M1014.8,-240.97C1006.03,-242.1 997.07,-243.25 988.24,-244.38"/>
<polygon fill="#63b8ff" stroke="#63b8ff" points="1015.52,-244.41 1024.99,-239.66 1014.62,-237.47 1015.52,-244.41"/>
</a>
</g>
</g>
<!-- Node8 -->
<g id="Node000008" class="node">
<title>Node8</title>
<g id="a_Node000008"><a xlink:href="../../d9/d0d/classEonPlay_1_1Data_1_1LibraryManager.html#adbac5a35d7a88c2f3b3ca96988001daa" target="_top" xlink:title=" ">
<polygon fill="white" stroke="#666666" points="988,-222 821,-222 821,-192 988,-192 988,-222"/>
<text text-anchor="start" x="829" y="-210" font-family="Helvetica,sans-Serif" font-size="10.00">EonPlay::Data::LibraryManager</text>
<text text-anchor="middle" x="904.5" y="-199" font-family="Helvetica,sans-Serif" font-size="10.00">::getRecentFiles</text>
</a>
</g>
</g>
<!-- Node1&#45;&gt;Node8 -->
<g id="edge7_Node000001_Node000008" class="edge">
<title>Node1&#45;&gt;Node8</title>
<g id="a_edge7_Node000001_Node000008"><a xlink:title=" ">
<path fill="none" stroke="#63b8ff" d="M1014.8,-221.03C1006.03,-219.9 997.07,-218.75 988.24,-217.62"/>
<polygon fill="#63b8ff" stroke="#63b8ff" points="1014.62,-224.53 1024.99,-222.34 1015.52,-217.59 1014.62,-224.53"/>
</a>
</g>
</g>
<!-- Node9 -->
<g id="Node000009" class="node">
<title>Node9</title>
<g id="a_Node000009"><a xlink:href="../../d0/d00/classEonPlay_1_1Data_1_1Playlist.html#a0dcef6a77d0706afa09021481dcd473b" target="_top" xlink:title=" ">
<polygon fill="white" stroke="#666666" points="967.5,-174 841.5,-174 841.5,-144 967.5,-144 967.5,-174"/>
<text text-anchor="start" x="849.5" y="-162" font-family="Helvetica,sans-Serif" font-size="10.00">EonPlay::Data::Playlist</text>
<text text-anchor="middle" x="904.5" y="-151" font-family="Helvetica,sans-Serif" font-size="10.00">::load</text>
</a>
</g>
</g>
<!-- Node1&#45;&gt;Node9 -->
<g id="edge8_Node000001_Node000009" class="edge">
<title>Node1&#45;&gt;Node9</title>
<g id="a_edge8_Node000001_Node000009"><a xlink:title=" ">
<path fill="none" stroke="#63b8ff" d="M1054.08,-211.46C1034.84,-202.11 1011.01,-191.21 989,-183 980.52,-179.84 971.43,-176.84 962.48,-174.1"/>
<polygon fill="#63b8ff" stroke="#63b8ff" points="1052.61,-214.63 1063.13,-215.9 1055.69,-208.35 1052.61,-214.63"/>
</a>
</g>
</g>
<!-- Node24 -->
<g id="Node000024" class="node">
<title>Node24</title>
<g id="a_Node000024"><a xlink:href="../../de/dc7/classEonPlay_1_1Data_1_1MediaFile.html#a6c133390296a7c236661e3008bb6e7cc" target="_top" xlink:title=" ">
<polygon fill="white" stroke="#666666" points="973,-126 836,-126 836,-96 973,-96 973,-126"/>
<text text-anchor="start" x="844" y="-114" font-family="Helvetica,sans-Serif" font-size="10.00">EonPlay::Data::MediaFile</text>
<text text-anchor="middle" x="904.5" y="-103" font-family="Helvetica,sans-Serif" font-size="10.00">::MediaFile</text>
</a>
</g>
</g>
<!-- Node1&#45;&gt;Node24 -->
<g id="edge24_Node000001_Node000024" class="edge">
<title>Node1&#45;&gt;Node24</title>
<g id="a_edge24_Node000001_Node000024"><a xlink:title=" ">
<path fill="none" stroke="#63b8ff" d="M1073.38,-207.87C1054.18,-186.07 1022.69,-154.01 989,-135 982.96,-131.59 976.39,-128.63 969.68,-126.07"/>
<polygon fill="#63b8ff" stroke="#63b8ff" points="1070.93,-210.38 1080.11,-215.67 1076.22,-205.81 1070.93,-210.38"/>
</a>
</g>
</g>
<!-- Node25 -->
<g id="Node000025" class="node">
<title>Node25</title>
<g id="a_Node000025"><a xlink:href="../../dd/d67/classEonPlay_1_1Data_1_1PlaylistManager.html#a686c0e80e2604d2410ee5a3f64a63a30" target="_top" xlink:title=" ">
<polygon fill="white" stroke="#666666" points="989,-78 820,-78 820,-48 989,-48 989,-78"/>
<text text-anchor="start" x="828" y="-66" font-family="Helvetica,sans-Serif" font-size="10.00">EonPlay::Data::PlaylistManager</text>
<text text-anchor="middle" x="904.5" y="-55" font-family="Helvetica,sans-Serif" font-size="10.00">::removeFromPlaylist</text>
</a>
</g>
</g>
<!-- Node1&#45;&gt;Node25 -->
<g id="edge25_Node000001_Node000025" class="edge">
<title>Node1&#45;&gt;Node25</title>
<g id="a_edge25_Node000001_Node000025"><a xlink:title=" ">
<path fill="none" stroke="#63b8ff" d="M1081.42,-206.64C1065.54,-174.45 1033.25,-118.17 989,-87 984.07,-83.53 978.64,-80.55 972.99,-78"/>
<polygon fill="#63b8ff" stroke="#63b8ff" points="1078.34,-208.3 1085.82,-215.81 1084.65,-205.28 1078.34,-208.3"/>
</a>
</g>
</g>
<!-- Node26 -->
<g id="Node000026" class="node">
<title>Node26</title>
<g id="a_Node000026"><a xlink:href="../../d9/d0d/classEonPlay_1_1Data_1_1LibraryManager.html#aa3785df685057ef0113a17276b11abf6" target="_top" xlink:title=" ">
<polygon fill="white" stroke="#666666" points="988,-30 821,-30 821,0 988,0 988,-30"/>
<text text-anchor="start" x="829" y="-18" font-family="Helvetica,sans-Serif" font-size="10.00">EonPlay::Data::LibraryManager</text>
<text text-anchor="middle" x="904.5" y="-7" font-family="Helvetica,sans-Serif" font-size="10.00">::searchFiles</text>
</a>
</g>
</g>
<!-- Node1&#45;&gt;Node26 -->
<g id="edge26_Node000001_Node000026" class="edge">
<title>Node1&#45;&gt;Node26</title>
<g id="a_edge26_Node000001_Node000026"><a xlink:title=" ">
<path fill="none" stroke="#63b8ff" d="M1085.97,-206.19C1073.87,-165.17 1044.07,-83.36 989,-39 984.77,-35.59 980.08,-32.67 975.14,-30.16"/>
<polygon fill="#63b8ff" stroke="#63b8ff" points="1082.63,-207.25 1088.73,-215.92 1089.36,-205.34 1082.63,-207.25"/>
</a>
</g>
</g>
<!-- Node3 -->
<g id="Node000003" class="node">
<title>Node3</title>
<g id="a_Node000003"><a xlink:href="../../d0/d00/classEonPlay_1_1Data_1_1Playlist.html#afe6eb9e5938721d085505eeeedb2f800" target="_top" xlink:title=" ">
<polygon fill="white" stroke="#666666" points="762.5,-462 636.5,-462 636.5,-432 762.5,-432 762.5,-462"/>
<text text-anchor="start" x="644.5" y="-450" font-family="Helvetica,sans-Serif" font-size="10.00">EonPlay::Data::Playlist</text>
<text text-anchor="middle" x="699.5" y="-439" font-family="Helvetica,sans-Serif" font-size="10.00">::fromVariantMap</text>
</a>
</g>
</g>
<!-- Node2&#45;&gt;Node3 -->
<g id="edge2_Node000002_Node000003" class="edge">
<title>Node2&#45;&gt;Node3</title>
<g id="a_edge2_Node000002_Node000003"><a xlink:title=" ">
<path fill="none" stroke="#63b8ff" d="M825.78,-447C804.89,-447 782.58,-447 762.66,-447"/>
<polygon fill="#63b8ff" stroke="#63b8ff" points="825.9,-450.5 835.9,-447 825.9,-443.5 825.9,-450.5"/>
</a>
</g>
</g>
<!-- Node10 -->
<g id="Node000010" class="node">
<title>Node10</title>
<g id="a_Node000010"><a xlink:href="../../dd/d67/classEonPlay_1_1Data_1_1PlaylistManager.html#a318b67254c38b5dd781a07c041cc8981" target="_top" xlink:title=" ">
<polygon fill="white" stroke="#666666" points="784,-174 615,-174 615,-144 784,-144 784,-174"/>
<text text-anchor="start" x="623" y="-162" font-family="Helvetica,sans-Serif" font-size="10.00">EonPlay::Data::PlaylistManager</text>
<text text-anchor="middle" x="699.5" y="-151" font-family="Helvetica,sans-Serif" font-size="10.00">::getPlaylist</text>
</a>
</g>
</g>
<!-- Node9&#45;&gt;Node10 -->
<g id="edge9_Node000009_Node000010" class="edge">
<title>Node9&#45;&gt;Node10</title>
<g id="a_edge9_Node000009_Node000010"><a xlink:title=" ">
<path fill="none" stroke="#63b8ff" d="M831.13,-159C815.93,-159 799.77,-159 784.19,-159"/>
<polygon fill="#63b8ff" stroke="#63b8ff" points="831.49,-162.5 841.49,-159 831.49,-155.5 831.49,-162.5"/>
</a>
</g>
</g>
<!-- Node11 -->
<g id="Node000011" class="node">
<title>Node11</title>
<g id="a_Node000011"><a xlink:href="../../dd/d67/classEonPlay_1_1Data_1_1PlaylistManager.html#a392bcbcf74115b20a5c0fe5bda8ed1f1" target="_top" xlink:title=" ">
<polygon fill="white" stroke="#666666" points="579,-239 410,-239 410,-209 579,-209 579,-239"/>
<text text-anchor="start" x="418" y="-227" font-family="Helvetica,sans-Serif" font-size="10.00">EonPlay::Data::PlaylistManager</text>
<text text-anchor="middle" x="494.5" y="-216" font-family="Helvetica,sans-Serif" font-size="10.00">::deletePlaylist</text>
</a>
</g>
</g>
<!-- Node10&#45;&gt;Node11 -->
<g id="edge10_Node000010_Node000011" class="edge">
<title>Node10&#45;&gt;Node11</title>
<g id="a_edge10_Node000010_Node000011"><a xlink:title=" ">
<path fill="none" stroke="#63b8ff" d="M641.56,-177.23C610.37,-187.22 572.18,-199.45 542.68,-208.89"/>
<polygon fill="#63b8ff" stroke="#63b8ff" points="642.96,-180.46 651.42,-174.08 640.83,-173.79 642.96,-180.46"/>
</a>
</g>
</g>
<!-- Node19 -->
<g id="Node000019" class="node">
<title>Node19</title>
<g id="a_Node000019"><a xlink:href="../../dd/d67/classEonPlay_1_1Data_1_1PlaylistManager.html#ae9590c9a80460f5329ccc64f71501688" target="_top" xlink:title=" ">
<polygon fill="white" stroke="#666666" points="374,-197 205,-197 205,-167 374,-167 374,-197"/>
<text text-anchor="start" x="213" y="-185" font-family="Helvetica,sans-Serif" font-size="10.00">EonPlay::Data::PlaylistManager</text>
<text text-anchor="middle" x="289.5" y="-174" font-family="Helvetica,sans-Serif" font-size="10.00">::importPlaylist</text>
</a>
</g>
</g>
<!-- Node10&#45;&gt;Node19 -->
<g id="edge20_Node000010_Node000019" class="edge">
<title>Node10&#45;&gt;Node19</title>
<g id="a_edge20_Node000010_Node000019"><a xlink:title=" ">
<path fill="none" stroke="#63b8ff" d="M604.88,-164.28C535.35,-168.2 441.35,-173.5 374.29,-177.28"/>
<polygon fill="#63b8ff" stroke="#63b8ff" points="605.16,-167.77 614.95,-163.71 604.77,-160.78 605.16,-167.77"/>
</a>
</g>
</g>
<!-- Node20 -->
<g id="Node000020" class="node">
<title>Node20</title>
<g id="a_Node000020"><a xlink:href="../../dd/d67/classEonPlay_1_1Data_1_1PlaylistManager.html#a30de69a7439311748453d1ac723484f9" target="_top" xlink:title=" ">
<polygon fill="white" stroke="#666666" points="579,-153 410,-153 410,-123 579,-123 579,-153"/>
<text text-anchor="start" x="418" y="-141" font-family="Helvetica,sans-Serif" font-size="10.00">EonPlay::Data::PlaylistManager</text>
<text text-anchor="middle" x="494.5" y="-130" font-family="Helvetica,sans-Serif" font-size="10.00">::exportPlaylist</text>
</a>
</g>
</g>
<!-- Node10&#45;&gt;Node20 -->
<g id="edge19_Node000010_Node000020" class="edge">
<title>Node10&#45;&gt;Node20</title>
<g id="a_edge19_Node000010_Node000020"><a xlink:title=" ">
<path fill="none" stroke="#63b8ff" d="M604.74,-149.3C596.17,-148.41 587.52,-147.52 579.05,-146.64"/>
<polygon fill="#63b8ff" stroke="#63b8ff" points="604.45,-152.79 614.76,-150.34 605.17,-145.83 604.45,-152.79"/>
</a>
</g>
</g>
<!-- Node21 -->
<g id="Node000021" class="node">
<title>Node21</title>
<g id="a_Node000021"><a xlink:href="../../dd/d67/classEonPlay_1_1Data_1_1PlaylistManager.html#af1bfd5334d665a5f5e1fe86d8e98e517" target="_top" xlink:title=" ">
<polygon fill="white" stroke="#666666" points="579,-104 410,-104 410,-74 579,-74 579,-104"/>
<text text-anchor="start" x="418" y="-92" font-family="Helvetica,sans-Serif" font-size="10.00">EonPlay::Data::PlaylistManager</text>
<text text-anchor="middle" x="494.5" y="-81" font-family="Helvetica,sans-Serif" font-size="10.00">::refreshSmartPlaylist</text>
</a>
</g>
</g>
<!-- Node10&#45;&gt;Node21 -->
<g id="edge21_Node000010_Node000021" class="edge">
<title>Node10&#45;&gt;Node21</title>
<g id="a_edge21_Node000010_Node000021"><a xlink:title=" ">
<path fill="none" stroke="#63b8ff" d="M651.15,-140.31C629.31,-131.91 602.97,-122.09 579,-114 568.96,-110.61 558.17,-107.21 547.79,-104.05"/>
<polygon fill="#63b8ff" stroke="#63b8ff" points="649.94,-143.59 660.53,-143.93 652.47,-137.06 649.94,-143.59"/>
</a>
</g>
</g>
<!-- Node12 -->
<g id="Node000012" class="node">
<title>Node12</title>
<g id="a_Node000012"><a xlink:href="../../dd/d67/classEonPlay_1_1Data_1_1PlaylistManager.html#a3b6861f3d0977f2fd48f9e9da0215564" target="_top" xlink:title=" ">
<polygon fill="white" stroke="#666666" points="374,-245 205,-245 205,-215 374,-215 374,-245"/>
<text text-anchor="start" x="213" y="-233" font-family="Helvetica,sans-Serif" font-size="10.00">EonPlay::Data::PlaylistManager</text>
<text text-anchor="middle" x="289.5" y="-222" font-family="Helvetica,sans-Serif" font-size="10.00">::createSmartPlaylist</text>
</a>
</g>
</g>
<!-- Node11&#45;&gt;Node12 -->
<g id="edge11_Node000011_Node000012" class="edge">
<title>Node11&#45;&gt;Node12</title>
<g id="a_edge11_Node000011_Node000012"><a xlink:title=" ">
<path fill="none" stroke="#63b8ff" d="M399.74,-226.77C391.17,-227.02 382.52,-227.28 374.05,-227.53"/>
<polygon fill="#63b8ff" stroke="#63b8ff" points="399.87,-230.27 409.76,-226.48 399.66,-223.27 399.87,-230.27"/>
</a>
</g>
</g>
<!-- Node11&#45;&gt;Node19 -->
<g id="edge18_Node000011_Node000019" class="edge">
<title>Node11&#45;&gt;Node19</title>
<g id="a_edge18_Node000011_Node000019"><a xlink:title=" ">
<path fill="none" stroke="#63b8ff" d="M410.54,-206.84C394.8,-203.58 378.44,-200.19 363.05,-197.01"/>
<polygon fill="#63b8ff" stroke="#63b8ff" points="410.28,-210.36 420.79,-208.96 411.7,-203.5 410.28,-210.36"/>
</a>
</g>
</g>
<!-- Node13 -->
<g id="Node000013" class="node">
<title>Node13</title>
<g id="a_Node000013"><a xlink:href="../../dd/d67/classEonPlay_1_1Data_1_1PlaylistManager.html#a84790a4d6548c747ffdbe6b4958d920c" target="_top" xlink:title=" ">
<polygon fill="white" stroke="#666666" points="169,-389 0,-389 0,-359 169,-359 169,-389"/>
<text text-anchor="start" x="8" y="-377" font-family="Helvetica,sans-Serif" font-size="10.00">EonPlay::Data::PlaylistManager</text>
<text text-anchor="middle" x="84.5" y="-366" font-family="Helvetica,sans-Serif" font-size="10.00">::createArtistPlaylist</text>
</a>
</g>
</g>
<!-- Node12&#45;&gt;Node13 -->
<g id="edge12_Node000012_Node000013" class="edge">
<title>Node12&#45;&gt;Node13</title>
<g id="a_edge12_Node000012_Node000013"><a xlink:title=" ">
<path fill="none" stroke="#63b8ff" d="M271.2,-253.53C250.04,-280.66 211.71,-324.76 169,-350 163.29,-353.38 157.07,-356.3 150.69,-358.83"/>
<polygon fill="#63b8ff" stroke="#63b8ff" points="274.15,-255.43 277.45,-245.36 268.59,-251.17 274.15,-255.43"/>
</a>
</g>
</g>
<!-- Node14 -->
<g id="Node000014" class="node">
<title>Node14</title>
<g id="a_Node000014"><a xlink:href="../../dd/d67/classEonPlay_1_1Data_1_1PlaylistManager.html#a892aa3b6498c552fbe7c28cc22b9f652" target="_top" xlink:title=" ">
<polygon fill="white" stroke="#666666" points="169,-341 0,-341 0,-311 169,-311 169,-341"/>
<text text-anchor="start" x="8" y="-329" font-family="Helvetica,sans-Serif" font-size="10.00">EonPlay::Data::PlaylistManager</text>
<text text-anchor="middle" x="84.5" y="-318" font-family="Helvetica,sans-Serif" font-size="10.00">::createGenrePlaylist</text>
</a>
</g>
</g>
<!-- Node12&#45;&gt;Node14 -->
<g id="edge13_Node000012_Node000014" class="edge">
<title>Node12&#45;&gt;Node14</title>
<g id="a_edge13_Node000012_Node000014"><a xlink:title=" ">
<path fill="none" stroke="#63b8ff" d="M258.95,-250.82C235.45,-266.61 201.29,-287.93 169,-302 161.4,-305.31 153.2,-308.31 145.03,-310.98"/>
<polygon fill="#63b8ff" stroke="#63b8ff" points="261.1,-253.58 267.4,-245.06 257.16,-247.8 261.1,-253.58"/>
</a>
</g>
</g>
<!-- Node15 -->
<g id="Node000015" class="node">
<title>Node15</title>
<g id="a_Node000015"><a xlink:href="../../dd/d67/classEonPlay_1_1Data_1_1PlaylistManager.html#a5c1aa3437e772bf3dde512b1b3993a13" target="_top" xlink:title=" ">
<polygon fill="white" stroke="#666666" points="169,-293 0,-293 0,-263 169,-263 169,-293"/>
<text text-anchor="start" x="8" y="-281" font-family="Helvetica,sans-Serif" font-size="10.00">EonPlay::Data::PlaylistManager</text>
<text text-anchor="middle" x="84.5" y="-270" font-family="Helvetica,sans-Serif" font-size="10.00">::createMostPlayedPlaylist</text>
</a>
</g>
</g>
<!-- Node12&#45;&gt;Node15 -->
<g id="edge14_Node000012_Node000015" class="edge">
<title>Node12&#45;&gt;Node15</title>
<g id="a_edge14_Node000012_Node000015"><a xlink:title=" ">
<path fill="none" stroke="#63b8ff" d="M215.03,-247.37C193.39,-252.49 169.9,-258.04 148.95,-263"/>
<polygon fill="#63b8ff" stroke="#63b8ff" points="215.9,-250.76 224.83,-245.06 214.29,-243.95 215.9,-250.76"/>
</a>
</g>
</g>
<!-- Node16 -->
<g id="Node000016" class="node">
<title>Node16</title>
<g id="a_Node000016"><a xlink:href="../../dd/d67/classEonPlay_1_1Data_1_1PlaylistManager.html#a65f921bf2db44c90def328eb22c7ebb0" target="_top" xlink:title=" ">
<polygon fill="white" stroke="#666666" points="169,-245 0,-245 0,-215 169,-215 169,-245"/>
<text text-anchor="start" x="8" y="-233" font-family="Helvetica,sans-Serif" font-size="10.00">EonPlay::Data::PlaylistManager</text>
<text text-anchor="middle" x="84.5" y="-222" font-family="Helvetica,sans-Serif" font-size="10.00">::createNeverPlayedPlaylist</text>
</a>
</g>
</g>
<!-- Node12&#45;&gt;Node16 -->
<g id="edge15_Node000012_Node000016" class="edge">
<title>Node12&#45;&gt;Node16</title>
<g id="a_edge15_Node000012_Node000016"><a xlink:title=" ">
<path fill="none" stroke="#63b8ff" d="M194.74,-230C186.17,-230 177.52,-230 169.05,-230"/>
<polygon fill="#63b8ff" stroke="#63b8ff" points="194.76,-233.5 204.76,-230 194.76,-226.5 194.76,-233.5"/>
</a>
</g>
</g>
<!-- Node17 -->
<g id="Node000017" class="node">
<title>Node17</title>
<g id="a_Node000017"><a xlink:href="../../dd/d67/classEonPlay_1_1Data_1_1PlaylistManager.html#a681deb4cd09114a73608639d6ea7e2ca" target="_top" xlink:title=" ">
<polygon fill="white" stroke="#666666" points="169,-197 0,-197 0,-167 169,-167 169,-197"/>
<text text-anchor="start" x="8" y="-185" font-family="Helvetica,sans-Serif" font-size="10.00">EonPlay::Data::PlaylistManager</text>
<text text-anchor="middle" x="84.5" y="-174" font-family="Helvetica,sans-Serif" font-size="10.00">::createRecentlyAddedPlaylist</text>
</a>
</g>
</g>
<!-- Node12&#45;&gt;Node17 -->
<g id="edge16_Node000012_Node000017" class="edge">
<title>Node12&#45;&gt;Node17</title>
<g id="a_edge16_Node000012_Node000017"><a xlink:title=" ">
<path fill="none" stroke="#63b8ff" d="M215.03,-212.63C193.39,-207.51 169.9,-201.96 148.95,-197"/>
<polygon fill="#63b8ff" stroke="#63b8ff" points="214.29,-216.05 224.83,-214.94 215.9,-209.24 214.29,-216.05"/>
</a>
</g>
</g>
<!-- Node18 -->
<g id="Node000018" class="node">
<title>Node18</title>
<g id="a_Node000018"><a xlink:href="../../dd/d67/classEonPlay_1_1Data_1_1PlaylistManager.html#aa833f907ff44fd7a50e23a27a8b98e38" target="_top" xlink:title=" ">
<polygon fill="white" stroke="#666666" points="169,-149 0,-149 0,-119 169,-119 169,-149"/>
<text text-anchor="start" x="8" y="-137" font-family="Helvetica,sans-Serif" font-size="10.00">EonPlay::Data::PlaylistManager</text>
<text text-anchor="middle" x="84.5" y="-126" font-family="Helvetica,sans-Serif" font-size="10.00">::createRecentlyPlayedPlaylist</text>
</a>
</g>
</g>
<!-- Node12&#45;&gt;Node18 -->
<g id="edge17_Node000012_Node000018" class="edge">
<title>Node12&#45;&gt;Node18</title>
<g id="a_edge17_Node000012_Node000018"><a xlink:title=" ">
<path fill="none" stroke="#63b8ff" d="M212.03,-210.36C209.6,-209 207.25,-207.55 205,-206 183.05,-190.86 190.95,-173.14 169,-158 164.03,-154.58 158.58,-151.64 152.91,-149.11"/>
<polygon fill="#63b8ff" stroke="#63b8ff" points="210.58,-213.55 221.09,-214.89 213.71,-207.29 210.58,-213.55"/>
</a>
</g>
</g>
<!-- Node22 -->
<g id="Node000022" class="node">
<title>Node22</title>
<g id="a_Node000022"><a xlink:href="../../dd/d67/classEonPlay_1_1Data_1_1PlaylistManager.html#a00dc7bd69ea5fe23b3b3ccd23105730b" target="_top" xlink:title=" ">
<polygon fill="white" stroke="#666666" points="374,-102 205,-102 205,-72 374,-72 374,-102"/>
<text text-anchor="start" x="213" y="-90" font-family="Helvetica,sans-Serif" font-size="10.00">EonPlay::Data::PlaylistManager</text>
<text text-anchor="middle" x="289.5" y="-79" font-family="Helvetica,sans-Serif" font-size="10.00">::refreshAllSmartPlaylists</text>
</a>
</g>
</g>
<!-- Node21&#45;&gt;Node22 -->
<g id="edge22_Node000021_Node000022" class="edge">
<title>Node21&#45;&gt;Node22</title>
<g id="a_edge22_Node000021_Node000022"><a xlink:title=" ">
<path fill="none" stroke="#63b8ff" d="M399.74,-88.08C391.17,-87.99 382.52,-87.91 374.05,-87.82"/>
<polygon fill="#63b8ff" stroke="#63b8ff" points="399.73,-91.58 409.76,-88.17 399.8,-84.58 399.73,-91.58"/>
</a>
</g>
</g>
<!-- Node23 -->
<g id="Node000023" class="node">
<title>Node23</title>
<g id="a_Node000023"><a xlink:href="../../dd/d67/classEonPlay_1_1Data_1_1PlaylistManager.html#a361435356c3fb0331169f63610cad873" target="_top" xlink:title=" ">
<polygon fill="white" stroke="#666666" points="169,-101 0,-101 0,-71 169,-71 169,-101"/>
<text text-anchor="start" x="8" y="-89" font-family="Helvetica,sans-Serif" font-size="10.00">EonPlay::Data::PlaylistManager</text>
<text text-anchor="middle" x="84.5" y="-78" font-family="Helvetica,sans-Serif" font-size="10.00">::rebuildSmartPlaylists</text>
</a>
</g>
</g>
<!-- Node22&#45;&gt;Node23 -->
<g id="edge23_Node000022_Node000023" class="edge">
<title>Node22&#45;&gt;Node23</title>
<g id="a_edge23_Node000022_Node000023"><a xlink:title=" ">
<path fill="none" stroke="#63b8ff" d="M194.74,-86.54C186.17,-86.5 177.52,-86.45 169.05,-86.41"/>
<polygon fill="#63b8ff" stroke="#63b8ff" points="194.74,-90.04 204.76,-86.59 194.78,-83.04 194.74,-90.04"/>
</a>
</g>
</g>
</g>
</svg>
