<?xml version="1.0" encoding="UTF-8" standalone="no"?>
<!DOCTYPE svg PUBLIC "-//W3C//DTD SVG 1.1//EN"
 "http://www.w3.org/Graphics/SVG/1.1/DTD/svg11.dtd">
<!-- Generated by graphviz version 2.43.0 (0)
 -->
<!-- Title: EonPlay::Data::MediaFile::duration Pages: 1 -->
<!--zoomable 409 -->

<svg id="main" version="1.1" xmlns="http://www.w3.org/2000/svg" xmlns:xlink="http://www.w3.org/1999/xlink" xml:space="preserve" onload="init(evt)">
<style type="text/css"><![CDATA[
.node, .edge {opacity: 0.7;}
.node.selected, .edge.selected {opacity: 1;}
.edge:hover path { stroke: red; }
.edge:hover polygon { stroke: red; fill: red; }
]]></style>

<defs>
  <circle id="rim" cx="0" cy="0" r="7"/>
  <circle id="rim2" cx="0" cy="0" r="3.5"/>
  <g id="zoomPlus">
    <use xlink:href="#rim" fill="#404040"><set attributeName="fill" to="#808080" begin="zoomplus.mouseover" end="zoomplus.mouseout"/></use>
    <path d="M-4,0h8M0,-4v8" fill="none" stroke="white" stroke-width="1.5" pointer-events="none"/>
  </g>
  <g id="zoomMin">
    <use xlink:href="#rim" fill="#404040"><set attributeName="fill" to="#808080" begin="zoomminus.mouseover" end="zoomminus.mouseout"/></use>
    <path d="M-4,0h8" fill="none" stroke="white" stroke-width="1.5" pointer-events="none"/>
  </g>
  <g id="arrowUp" transform="translate(30 24)">
    <use xlink:href="#rim"/>
    <path pointer-events="none" fill="none" stroke="white" stroke-width="1.5" d="M0,-3.0v7 M-2.5,-0.5L0,-3.0L2.5,-0.5"/>
  </g>
  <g id="arrowRight" transform="rotate(90) translate(36 -43)">
    <use xlink:href="#rim"/>
    <path pointer-events="none" fill="none" stroke="white" stroke-width="1.5" d="M0,-3.0v7 M-2.5,-0.5L0,-3.0L2.5,-0.5"/>
  </g>
  <g id="arrowDown" transform="rotate(180) translate(-30 -48)">
    <use xlink:href="#rim"/>
    <path pointer-events="none" fill="none" stroke="white" stroke-width="1.5" d="M0,-3.0v7 M-2.5,-0.5L0,-3.0L2.5,-0.5"/>
  </g>
  <g id="arrowLeft" transform="rotate(270) translate(-36 17)">
    <use xlink:href="#rim"/>
    <path pointer-events="none" fill="none" stroke="white" stroke-width="1.5" d="M0,-3.0v7 M-2.5,-0.5L0,-3.0L2.5,-0.5"/>
  </g>
  <g id="resetDef">
    <use xlink:href="#rim2" fill="#404040"><set attributeName="fill" to="#808080" begin="reset.mouseover" end="reset.mouseout"/></use>
  </g>
</defs>
<script type="application/ecmascript">
var viewWidth = 1341;
var viewHeight = 409;
var sectionId = 'dynsection-11';
</script>
<script type="application/ecmascript" xlink:href="../../svg.min.js"/>
<svg id="graph" class="graph">
<g id="viewport">
<title>EonPlay::Data::MediaFile::duration</title>
<!-- Node1 -->
<g id="Node000001" class="node">
<title>Node1</title>
<g id="a_Node000001"><a xlink:title=" ">
<polygon fill="#999999" stroke="#666666" points="1333,-267 1196,-267 1196,-237 1333,-237 1333,-267"/>
<text text-anchor="start" x="1204" y="-255" font-family="Helvetica,sans-Serif" font-size="10.00">EonPlay::Data::MediaFile</text>
<text text-anchor="middle" x="1264.5" y="-244" font-family="Helvetica,sans-Serif" font-size="10.00">::duration</text>
</a>
</g>
</g>
<!-- Node2 -->
<g id="Node000002" class="node">
<title>Node2</title>
<g id="a_Node000002"><a xlink:href="../../d0/d00/classEonPlay_1_1Data_1_1Playlist.html#a1740740e9bae79eeed815eb5c639720f" target="_top" xlink:title=" ">
<polygon fill="white" stroke="#666666" points="762.5,-337 636.5,-337 636.5,-307 762.5,-307 762.5,-337"/>
<text text-anchor="start" x="644.5" y="-325" font-family="Helvetica,sans-Serif" font-size="10.00">EonPlay::Data::Playlist</text>
<text text-anchor="middle" x="699.5" y="-314" font-family="Helvetica,sans-Serif" font-size="10.00">::exportToPLS</text>
</a>
</g>
</g>
<!-- Node1&#45;&gt;Node2 -->
<g id="edge1_Node000001_Node000002" class="edge">
<title>Node1&#45;&gt;Node2</title>
<g id="a_edge1_Node000001_Node000002"><a xlink:title=" ">
<path fill="none" stroke="#63b8ff" d="M1212.08,-270.36C1157.19,-288.91 1067.23,-316.31 987,-327 913.43,-336.8 894.21,-328.55 820,-327 801.32,-326.61 781,-325.88 762.51,-325.09"/>
<polygon fill="#63b8ff" stroke="#63b8ff" points="1213.25,-273.66 1221.58,-267.12 1210.99,-267.03 1213.25,-273.66"/>
</a>
</g>
</g>
<!-- Node4 -->
<g id="Node000004" class="node">
<title>Node4</title>
<g id="a_Node000004"><a xlink:href="../../de/dc7/classEonPlay_1_1Data_1_1MediaFile.html#a8e21eb7ca2b0ea4dbc709f3e0f1b5740" target="_top" xlink:title=" ">
<polygon fill="white" stroke="#666666" points="1160,-198 1023,-198 1023,-168 1160,-168 1160,-198"/>
<text text-anchor="start" x="1031" y="-186" font-family="Helvetica,sans-Serif" font-size="10.00">EonPlay::Data::MediaFile</text>
<text text-anchor="middle" x="1091.5" y="-175" font-family="Helvetica,sans-Serif" font-size="10.00">::setDuration</text>
</a>
</g>
</g>
<!-- Node1&#45;&gt;Node4 -->
<g id="edge3_Node000001_Node000004" class="edge">
<title>Node1&#45;&gt;Node4</title>
<g id="a_edge3_Node000001_Node000004"><a xlink:title=" ">
<path fill="none" stroke="#63b8ff" d="M1216.63,-233.09C1189.35,-222.08 1155.42,-208.39 1129.94,-198.11"/>
<polygon fill="#63b8ff" stroke="#63b8ff" points="1215.39,-236.36 1225.97,-236.86 1218.01,-229.87 1215.39,-236.36"/>
</a>
</g>
</g>
<!-- Node3 -->
<g id="Node000003" class="node">
<title>Node3</title>
<g id="a_Node000003"><a xlink:href="../../dd/d67/classEonPlay_1_1Data_1_1PlaylistManager.html#a30de69a7439311748453d1ac723484f9" target="_top" xlink:title=" ">
<polygon fill="white" stroke="#666666" points="579,-313 410,-313 410,-283 579,-283 579,-313"/>
<text text-anchor="start" x="418" y="-301" font-family="Helvetica,sans-Serif" font-size="10.00">EonPlay::Data::PlaylistManager</text>
<text text-anchor="middle" x="494.5" y="-290" font-family="Helvetica,sans-Serif" font-size="10.00">::exportPlaylist</text>
</a>
</g>
</g>
<!-- Node2&#45;&gt;Node3 -->
<g id="edge2_Node000002_Node000003" class="edge">
<title>Node2&#45;&gt;Node3</title>
<g id="a_edge2_Node000002_Node000003"><a xlink:title=" ">
<path fill="none" stroke="#63b8ff" d="M626.13,-313.44C610.93,-311.65 594.77,-309.74 579.19,-307.89"/>
<polygon fill="#63b8ff" stroke="#63b8ff" points="626.15,-316.97 636.49,-314.67 626.97,-310.02 626.15,-316.97"/>
</a>
</g>
</g>
<!-- Node5 -->
<g id="Node000005" class="node">
<title>Node5</title>
<g id="a_Node000005"><a xlink:href="../../d9/d0d/classEonPlay_1_1Data_1_1LibraryManager.html#a800eef6cb39146e513270d134904456b" target="_top" xlink:title=" ">
<polygon fill="white" stroke="#666666" points="987,-318 820,-318 820,-288 987,-288 987,-318"/>
<text text-anchor="start" x="828" y="-306" font-family="Helvetica,sans-Serif" font-size="10.00">EonPlay::Data::LibraryManager</text>
<text text-anchor="middle" x="903.5" y="-295" font-family="Helvetica,sans-Serif" font-size="10.00">::getFilesByAlbum</text>
</a>
</g>
</g>
<!-- Node4&#45;&gt;Node5 -->
<g id="edge4_Node000004_Node000005" class="edge">
<title>Node4&#45;&gt;Node5</title>
<g id="a_edge4_Node000004_Node000005"><a xlink:title=" ">
<path fill="none" stroke="#63b8ff" d="M1071.36,-206.11C1052.15,-227.88 1020.66,-259.93 987,-279 981.03,-282.38 974.54,-285.32 967.91,-287.87"/>
<polygon fill="#63b8ff" stroke="#63b8ff" points="1074.21,-208.17 1078.1,-198.32 1068.91,-203.59 1074.21,-208.17"/>
</a>
</g>
</g>
<!-- Node6 -->
<g id="Node000006" class="node">
<title>Node6</title>
<g id="a_Node000006"><a xlink:href="../../d9/d0d/classEonPlay_1_1Data_1_1LibraryManager.html#a74fbc9d49b135279efd455eacae6eed3" target="_top" xlink:title=" ">
<polygon fill="white" stroke="#666666" points="987,-270 820,-270 820,-240 987,-240 987,-270"/>
<text text-anchor="start" x="828" y="-258" font-family="Helvetica,sans-Serif" font-size="10.00">EonPlay::Data::LibraryManager</text>
<text text-anchor="middle" x="903.5" y="-247" font-family="Helvetica,sans-Serif" font-size="10.00">::getFilesByArtist</text>
</a>
</g>
</g>
<!-- Node4&#45;&gt;Node6 -->
<g id="edge5_Node000004_Node000006" class="edge">
<title>Node4&#45;&gt;Node6</title>
<g id="a_edge5_Node000004_Node000006"><a xlink:title=" ">
<path fill="none" stroke="#63b8ff" d="M1052.07,-202.51C1032.82,-211.85 1009,-222.75 987,-231 978.48,-234.19 969.34,-237.23 960.35,-240"/>
<polygon fill="#63b8ff" stroke="#63b8ff" points="1053.68,-205.62 1061.12,-198.08 1050.6,-199.34 1053.68,-205.62"/>
</a>
</g>
</g>
<!-- Node7 -->
<g id="Node000007" class="node">
<title>Node7</title>
<g id="a_Node000007"><a xlink:href="../../d9/d0d/classEonPlay_1_1Data_1_1LibraryManager.html#acfd0f7edb3f9f6b69faa1868c614f072" target="_top" xlink:title=" ">
<polygon fill="white" stroke="#666666" points="987,-222 820,-222 820,-192 987,-192 987,-222"/>
<text text-anchor="start" x="828" y="-210" font-family="Helvetica,sans-Serif" font-size="10.00">EonPlay::Data::LibraryManager</text>
<text text-anchor="middle" x="903.5" y="-199" font-family="Helvetica,sans-Serif" font-size="10.00">::getFilesByGenre</text>
</a>
</g>
</g>
<!-- Node4&#45;&gt;Node7 -->
<g id="edge6_Node000004_Node000007" class="edge">
<title>Node4&#45;&gt;Node7</title>
<g id="a_edge6_Node000004_Node000007"><a xlink:title=" ">
<path fill="none" stroke="#63b8ff" d="M1012.89,-193.01C1004.34,-194.12 995.62,-195.24 987.01,-196.35"/>
<polygon fill="#63b8ff" stroke="#63b8ff" points="1013.35,-196.48 1022.82,-191.73 1012.46,-189.54 1013.35,-196.48"/>
</a>
</g>
</g>
<!-- Node8 -->
<g id="Node000008" class="node">
<title>Node8</title>
<g id="a_Node000008"><a xlink:href="../../d9/d0d/classEonPlay_1_1Data_1_1LibraryManager.html#a64b072d603eb70a9547959da10ac84f3" target="_top" xlink:title=" ">
<polygon fill="white" stroke="#666666" points="987,-174 820,-174 820,-144 987,-144 987,-174"/>
<text text-anchor="start" x="828" y="-162" font-family="Helvetica,sans-Serif" font-size="10.00">EonPlay::Data::LibraryManager</text>
<text text-anchor="middle" x="903.5" y="-151" font-family="Helvetica,sans-Serif" font-size="10.00">::getMostPlayedFiles</text>
</a>
</g>
</g>
<!-- Node4&#45;&gt;Node8 -->
<g id="edge7_Node000004_Node000008" class="edge">
<title>Node4&#45;&gt;Node8</title>
<g id="a_edge7_Node000004_Node000008"><a xlink:title=" ">
<path fill="none" stroke="#63b8ff" d="M1012.89,-172.99C1004.34,-171.88 995.62,-170.76 987.01,-169.65"/>
<polygon fill="#63b8ff" stroke="#63b8ff" points="1012.46,-176.46 1022.82,-174.27 1013.35,-169.52 1012.46,-176.46"/>
</a>
</g>
</g>
<!-- Node9 -->
<g id="Node000009" class="node">
<title>Node9</title>
<g id="a_Node000009"><a xlink:href="../../d9/d0d/classEonPlay_1_1Data_1_1LibraryManager.html#adbac5a35d7a88c2f3b3ca96988001daa" target="_top" xlink:title=" ">
<polygon fill="white" stroke="#666666" points="987,-126 820,-126 820,-96 987,-96 987,-126"/>
<text text-anchor="start" x="828" y="-114" font-family="Helvetica,sans-Serif" font-size="10.00">EonPlay::Data::LibraryManager</text>
<text text-anchor="middle" x="903.5" y="-103" font-family="Helvetica,sans-Serif" font-size="10.00">::getRecentFiles</text>
</a>
</g>
</g>
<!-- Node4&#45;&gt;Node9 -->
<g id="edge8_Node000004_Node000009" class="edge">
<title>Node4&#45;&gt;Node9</title>
<g id="a_edge8_Node000004_Node000009"><a xlink:title=" ">
<path fill="none" stroke="#63b8ff" d="M1052.07,-163.49C1032.82,-154.15 1009,-143.25 987,-135 978.48,-131.81 969.34,-128.77 960.35,-126"/>
<polygon fill="#63b8ff" stroke="#63b8ff" points="1050.6,-166.66 1061.12,-167.92 1053.68,-160.38 1050.6,-166.66"/>
</a>
</g>
</g>
<!-- Node10 -->
<g id="Node000010" class="node">
<title>Node10</title>
<g id="a_Node000010"><a xlink:href="../../d0/d00/classEonPlay_1_1Data_1_1Playlist.html#a0dcef6a77d0706afa09021481dcd473b" target="_top" xlink:title=" ">
<polygon fill="white" stroke="#666666" points="966.5,-78 840.5,-78 840.5,-48 966.5,-48 966.5,-78"/>
<text text-anchor="start" x="848.5" y="-66" font-family="Helvetica,sans-Serif" font-size="10.00">EonPlay::Data::Playlist</text>
<text text-anchor="middle" x="903.5" y="-55" font-family="Helvetica,sans-Serif" font-size="10.00">::load</text>
</a>
</g>
</g>
<!-- Node4&#45;&gt;Node10 -->
<g id="edge9_Node000004_Node000010" class="edge">
<title>Node4&#45;&gt;Node10</title>
<g id="a_edge9_Node000004_Node000010"><a xlink:title=" ">
<path fill="none" stroke="#63b8ff" d="M1071.36,-159.89C1052.15,-138.12 1020.66,-106.07 987,-87 980.64,-83.4 973.69,-80.29 966.62,-77.63"/>
<polygon fill="#63b8ff" stroke="#63b8ff" points="1068.91,-162.41 1078.1,-167.68 1074.21,-157.83 1068.91,-162.41"/>
</a>
</g>
</g>
<!-- Node24 -->
<g id="Node000024" class="node">
<title>Node24</title>
<g id="a_Node000024"><a xlink:href="../../d9/d0d/classEonPlay_1_1Data_1_1LibraryManager.html#aa3785df685057ef0113a17276b11abf6" target="_top" xlink:title=" ">
<polygon fill="white" stroke="#666666" points="987,-30 820,-30 820,0 987,0 987,-30"/>
<text text-anchor="start" x="828" y="-18" font-family="Helvetica,sans-Serif" font-size="10.00">EonPlay::Data::LibraryManager</text>
<text text-anchor="middle" x="903.5" y="-7" font-family="Helvetica,sans-Serif" font-size="10.00">::searchFiles</text>
</a>
</g>
</g>
<!-- Node4&#45;&gt;Node24 -->
<g id="edge25_Node000004_Node000024" class="edge">
<title>Node4&#45;&gt;Node24</title>
<g id="a_edge25_Node000004_Node000024"><a xlink:title=" ">
<path fill="none" stroke="#63b8ff" d="M1079.41,-158.66C1063.51,-126.49 1031.2,-70.25 987,-39 982.13,-35.56 976.76,-32.6 971.18,-30.07"/>
<polygon fill="#63b8ff" stroke="#63b8ff" points="1076.32,-160.32 1083.81,-167.82 1082.63,-157.29 1076.32,-160.32"/>
</a>
</g>
</g>
<!-- Node11 -->
<g id="Node000011" class="node">
<title>Node11</title>
<g id="a_Node000011"><a xlink:href="../../dd/d67/classEonPlay_1_1Data_1_1PlaylistManager.html#a318b67254c38b5dd781a07c041cc8981" target="_top" xlink:title=" ">
<polygon fill="white" stroke="#666666" points="784,-174 615,-174 615,-144 784,-144 784,-174"/>
<text text-anchor="start" x="623" y="-162" font-family="Helvetica,sans-Serif" font-size="10.00">EonPlay::Data::PlaylistManager</text>
<text text-anchor="middle" x="699.5" y="-151" font-family="Helvetica,sans-Serif" font-size="10.00">::getPlaylist</text>
</a>
</g>
</g>
<!-- Node10&#45;&gt;Node11 -->
<g id="edge10_Node000010_Node000011" class="edge">
<title>Node10&#45;&gt;Node11</title>
<g id="a_edge10_Node000010_Node000011"><a xlink:title=" ">
<path fill="none" stroke="#63b8ff" d="M833.87,-81.47C829.13,-83.2 824.46,-85.05 820,-87 783.61,-102.93 744.8,-128 721.61,-143.96"/>
<polygon fill="#63b8ff" stroke="#63b8ff" points="835.38,-84.65 843.69,-78.07 833.09,-78.03 835.38,-84.65"/>
</a>
</g>
</g>
<!-- Node11&#45;&gt;Node3 -->
<g id="edge20_Node000011_Node000003" class="edge">
<title>Node11&#45;&gt;Node3</title>
<g id="a_edge20_Node000011_Node000003"><a xlink:title=" ">
<path fill="none" stroke="#63b8ff" d="M668.08,-179.83C626.8,-208.09 554.02,-257.93 517.58,-282.88"/>
<polygon fill="#63b8ff" stroke="#63b8ff" points="670.12,-182.68 676.39,-174.14 666.16,-176.9 670.12,-182.68"/>
</a>
</g>
</g>
<!-- Node12 -->
<g id="Node000012" class="node">
<title>Node12</title>
<g id="a_Node000012"><a xlink:href="../../dd/d67/classEonPlay_1_1Data_1_1PlaylistManager.html#a392bcbcf74115b20a5c0fe5bda8ed1f1" target="_top" xlink:title=" ">
<polygon fill="white" stroke="#666666" points="579,-217 410,-217 410,-187 579,-187 579,-217"/>
<text text-anchor="start" x="418" y="-205" font-family="Helvetica,sans-Serif" font-size="10.00">EonPlay::Data::PlaylistManager</text>
<text text-anchor="middle" x="494.5" y="-194" font-family="Helvetica,sans-Serif" font-size="10.00">::deletePlaylist</text>
</a>
</g>
</g>
<!-- Node11&#45;&gt;Node12 -->
<g id="edge11_Node000011_Node000012" class="edge">
<title>Node11&#45;&gt;Node12</title>
<g id="a_edge11_Node000011_Node000012"><a xlink:title=" ">
<path fill="none" stroke="#63b8ff" d="M617.64,-176.13C600.72,-179.71 582.99,-183.47 566.46,-186.97"/>
<polygon fill="#63b8ff" stroke="#63b8ff" points="618.44,-179.54 627.5,-174.04 616.99,-172.69 618.44,-179.54"/>
</a>
</g>
</g>
<!-- Node20 -->
<g id="Node000020" class="node">
<title>Node20</title>
<g id="a_Node000020"><a xlink:href="../../dd/d67/classEonPlay_1_1Data_1_1PlaylistManager.html#ae9590c9a80460f5329ccc64f71501688" target="_top" xlink:title=" ">
<polygon fill="white" stroke="#666666" points="374,-196 205,-196 205,-166 374,-166 374,-196"/>
<text text-anchor="start" x="213" y="-184" font-family="Helvetica,sans-Serif" font-size="10.00">EonPlay::Data::PlaylistManager</text>
<text text-anchor="middle" x="289.5" y="-173" font-family="Helvetica,sans-Serif" font-size="10.00">::importPlaylist</text>
</a>
</g>
</g>
<!-- Node11&#45;&gt;Node20 -->
<g id="edge21_Node000011_Node000020" class="edge">
<title>Node11&#45;&gt;Node20</title>
<g id="a_edge21_Node000011_Node000020"><a xlink:title=" ">
<path fill="none" stroke="#63b8ff" d="M604.88,-164.05C535.35,-167.8 441.35,-172.87 374.29,-176.48"/>
<polygon fill="#63b8ff" stroke="#63b8ff" points="605.15,-167.54 614.95,-163.51 604.78,-160.55 605.15,-167.54"/>
</a>
</g>
</g>
<!-- Node21 -->
<g id="Node000021" class="node">
<title>Node21</title>
<g id="a_Node000021"><a xlink:href="../../dd/d67/classEonPlay_1_1Data_1_1PlaylistManager.html#af1bfd5334d665a5f5e1fe86d8e98e517" target="_top" xlink:title=" ">
<polygon fill="white" stroke="#666666" points="579,-125 410,-125 410,-95 579,-95 579,-125"/>
<text text-anchor="start" x="418" y="-113" font-family="Helvetica,sans-Serif" font-size="10.00">EonPlay::Data::PlaylistManager</text>
<text text-anchor="middle" x="494.5" y="-102" font-family="Helvetica,sans-Serif" font-size="10.00">::refreshSmartPlaylist</text>
</a>
</g>
</g>
<!-- Node11&#45;&gt;Node21 -->
<g id="edge22_Node000011_Node000021" class="edge">
<title>Node11&#45;&gt;Node21</title>
<g id="a_edge22_Node000011_Node000021"><a xlink:title=" ">
<path fill="none" stroke="#63b8ff" d="M626.4,-141.6C603.94,-136.18 579.38,-130.25 557.67,-125.01"/>
<polygon fill="#63b8ff" stroke="#63b8ff" points="625.67,-145.02 636.21,-143.97 627.31,-138.22 625.67,-145.02"/>
</a>
</g>
</g>
<!-- Node13 -->
<g id="Node000013" class="node">
<title>Node13</title>
<g id="a_Node000013"><a xlink:href="../../dd/d67/classEonPlay_1_1Data_1_1PlaylistManager.html#a3b6861f3d0977f2fd48f9e9da0215564" target="_top" xlink:title=" ">
<polygon fill="white" stroke="#666666" points="374,-257 205,-257 205,-227 374,-227 374,-257"/>
<text text-anchor="start" x="213" y="-245" font-family="Helvetica,sans-Serif" font-size="10.00">EonPlay::Data::PlaylistManager</text>
<text text-anchor="middle" x="289.5" y="-234" font-family="Helvetica,sans-Serif" font-size="10.00">::createSmartPlaylist</text>
</a>
</g>
</g>
<!-- Node12&#45;&gt;Node13 -->
<g id="edge12_Node000012_Node000013" class="edge">
<title>Node12&#45;&gt;Node13</title>
<g id="a_edge12_Node000012_Node000013"><a xlink:title=" ">
<path fill="none" stroke="#63b8ff" d="M407.15,-219.01C393.73,-221.66 379.94,-224.38 366.76,-226.97"/>
<polygon fill="#63b8ff" stroke="#63b8ff" points="408.2,-222.38 417.33,-217.01 406.84,-215.51 408.2,-222.38"/>
</a>
</g>
</g>
<!-- Node12&#45;&gt;Node20 -->
<g id="edge19_Node000012_Node000020" class="edge">
<title>Node12&#45;&gt;Node20</title>
<g id="a_edge19_Node000012_Node000020"><a xlink:title=" ">
<path fill="none" stroke="#63b8ff" d="M399.74,-192.3C391.17,-191.41 382.52,-190.52 374.05,-189.64"/>
<polygon fill="#63b8ff" stroke="#63b8ff" points="399.45,-195.79 409.76,-193.34 400.17,-188.83 399.45,-195.79"/>
</a>
</g>
</g>
<!-- Node14 -->
<g id="Node000014" class="node">
<title>Node14</title>
<g id="a_Node000014"><a xlink:href="../../dd/d67/classEonPlay_1_1Data_1_1PlaylistManager.html#a84790a4d6548c747ffdbe6b4958d920c" target="_top" xlink:title=" ">
<polygon fill="white" stroke="#666666" points="169,-401 0,-401 0,-371 169,-371 169,-401"/>
<text text-anchor="start" x="8" y="-389" font-family="Helvetica,sans-Serif" font-size="10.00">EonPlay::Data::PlaylistManager</text>
<text text-anchor="middle" x="84.5" y="-378" font-family="Helvetica,sans-Serif" font-size="10.00">::createArtistPlaylist</text>
</a>
</g>
</g>
<!-- Node13&#45;&gt;Node14 -->
<g id="edge13_Node000013_Node000014" class="edge">
<title>Node13&#45;&gt;Node14</title>
<g id="a_edge13_Node000013_Node000014"><a xlink:title=" ">
<path fill="none" stroke="#63b8ff" d="M271.2,-265.53C250.04,-292.66 211.71,-336.76 169,-362 163.29,-365.38 157.07,-368.3 150.69,-370.83"/>
<polygon fill="#63b8ff" stroke="#63b8ff" points="274.15,-267.43 277.45,-257.36 268.59,-263.17 274.15,-267.43"/>
</a>
</g>
</g>
<!-- Node15 -->
<g id="Node000015" class="node">
<title>Node15</title>
<g id="a_Node000015"><a xlink:href="../../dd/d67/classEonPlay_1_1Data_1_1PlaylistManager.html#a892aa3b6498c552fbe7c28cc22b9f652" target="_top" xlink:title=" ">
<polygon fill="white" stroke="#666666" points="169,-353 0,-353 0,-323 169,-323 169,-353"/>
<text text-anchor="start" x="8" y="-341" font-family="Helvetica,sans-Serif" font-size="10.00">EonPlay::Data::PlaylistManager</text>
<text text-anchor="middle" x="84.5" y="-330" font-family="Helvetica,sans-Serif" font-size="10.00">::createGenrePlaylist</text>
</a>
</g>
</g>
<!-- Node13&#45;&gt;Node15 -->
<g id="edge14_Node000013_Node000015" class="edge">
<title>Node13&#45;&gt;Node15</title>
<g id="a_edge14_Node000013_Node000015"><a xlink:title=" ">
<path fill="none" stroke="#63b8ff" d="M258.95,-262.82C235.45,-278.61 201.29,-299.93 169,-314 161.4,-317.31 153.2,-320.31 145.03,-322.98"/>
<polygon fill="#63b8ff" stroke="#63b8ff" points="261.1,-265.58 267.4,-257.06 257.16,-259.8 261.1,-265.58"/>
</a>
</g>
</g>
<!-- Node16 -->
<g id="Node000016" class="node">
<title>Node16</title>
<g id="a_Node000016"><a xlink:href="../../dd/d67/classEonPlay_1_1Data_1_1PlaylistManager.html#a5c1aa3437e772bf3dde512b1b3993a13" target="_top" xlink:title=" ">
<polygon fill="white" stroke="#666666" points="169,-305 0,-305 0,-275 169,-275 169,-305"/>
<text text-anchor="start" x="8" y="-293" font-family="Helvetica,sans-Serif" font-size="10.00">EonPlay::Data::PlaylistManager</text>
<text text-anchor="middle" x="84.5" y="-282" font-family="Helvetica,sans-Serif" font-size="10.00">::createMostPlayedPlaylist</text>
</a>
</g>
</g>
<!-- Node13&#45;&gt;Node16 -->
<g id="edge15_Node000013_Node000016" class="edge">
<title>Node13&#45;&gt;Node16</title>
<g id="a_edge15_Node000013_Node000016"><a xlink:title=" ">
<path fill="none" stroke="#63b8ff" d="M215.03,-259.37C193.39,-264.49 169.9,-270.04 148.95,-275"/>
<polygon fill="#63b8ff" stroke="#63b8ff" points="215.9,-262.76 224.83,-257.06 214.29,-255.95 215.9,-262.76"/>
</a>
</g>
</g>
<!-- Node17 -->
<g id="Node000017" class="node">
<title>Node17</title>
<g id="a_Node000017"><a xlink:href="../../dd/d67/classEonPlay_1_1Data_1_1PlaylistManager.html#a65f921bf2db44c90def328eb22c7ebb0" target="_top" xlink:title=" ">
<polygon fill="white" stroke="#666666" points="169,-257 0,-257 0,-227 169,-227 169,-257"/>
<text text-anchor="start" x="8" y="-245" font-family="Helvetica,sans-Serif" font-size="10.00">EonPlay::Data::PlaylistManager</text>
<text text-anchor="middle" x="84.5" y="-234" font-family="Helvetica,sans-Serif" font-size="10.00">::createNeverPlayedPlaylist</text>
</a>
</g>
</g>
<!-- Node13&#45;&gt;Node17 -->
<g id="edge16_Node000013_Node000017" class="edge">
<title>Node13&#45;&gt;Node17</title>
<g id="a_edge16_Node000013_Node000017"><a xlink:title=" ">
<path fill="none" stroke="#63b8ff" d="M194.74,-242C186.17,-242 177.52,-242 169.05,-242"/>
<polygon fill="#63b8ff" stroke="#63b8ff" points="194.76,-245.5 204.76,-242 194.76,-238.5 194.76,-245.5"/>
</a>
</g>
</g>
<!-- Node18 -->
<g id="Node000018" class="node">
<title>Node18</title>
<g id="a_Node000018"><a xlink:href="../../dd/d67/classEonPlay_1_1Data_1_1PlaylistManager.html#a681deb4cd09114a73608639d6ea7e2ca" target="_top" xlink:title=" ">
<polygon fill="white" stroke="#666666" points="169,-209 0,-209 0,-179 169,-179 169,-209"/>
<text text-anchor="start" x="8" y="-197" font-family="Helvetica,sans-Serif" font-size="10.00">EonPlay::Data::PlaylistManager</text>
<text text-anchor="middle" x="84.5" y="-186" font-family="Helvetica,sans-Serif" font-size="10.00">::createRecentlyAddedPlaylist</text>
</a>
</g>
</g>
<!-- Node13&#45;&gt;Node18 -->
<g id="edge17_Node000013_Node000018" class="edge">
<title>Node13&#45;&gt;Node18</title>
<g id="a_edge17_Node000013_Node000018"><a xlink:title=" ">
<path fill="none" stroke="#63b8ff" d="M215.03,-224.63C193.39,-219.51 169.9,-213.96 148.95,-209"/>
<polygon fill="#63b8ff" stroke="#63b8ff" points="214.29,-228.05 224.83,-226.94 215.9,-221.24 214.29,-228.05"/>
</a>
</g>
</g>
<!-- Node19 -->
<g id="Node000019" class="node">
<title>Node19</title>
<g id="a_Node000019"><a xlink:href="../../dd/d67/classEonPlay_1_1Data_1_1PlaylistManager.html#aa833f907ff44fd7a50e23a27a8b98e38" target="_top" xlink:title=" ">
<polygon fill="white" stroke="#666666" points="169,-161 0,-161 0,-131 169,-131 169,-161"/>
<text text-anchor="start" x="8" y="-149" font-family="Helvetica,sans-Serif" font-size="10.00">EonPlay::Data::PlaylistManager</text>
<text text-anchor="middle" x="84.5" y="-138" font-family="Helvetica,sans-Serif" font-size="10.00">::createRecentlyPlayedPlaylist</text>
</a>
</g>
</g>
<!-- Node13&#45;&gt;Node19 -->
<g id="edge18_Node000013_Node000019" class="edge">
<title>Node13&#45;&gt;Node19</title>
<g id="a_edge18_Node000013_Node000019"><a xlink:title=" ">
<path fill="none" stroke="#63b8ff" d="M237.42,-222.81C226.33,-217.71 214.96,-211.73 205,-205 186.51,-192.51 188.3,-181.2 169,-170 163.13,-166.59 156.74,-163.64 150.2,-161.1"/>
<polygon fill="#63b8ff" stroke="#63b8ff" points="236.07,-226.04 246.63,-226.88 238.89,-219.63 236.07,-226.04"/>
</a>
</g>
</g>
<!-- Node22 -->
<g id="Node000022" class="node">
<title>Node22</title>
<g id="a_Node000022"><a xlink:href="../../dd/d67/classEonPlay_1_1Data_1_1PlaylistManager.html#a00dc7bd69ea5fe23b3b3ccd23105730b" target="_top" xlink:title=" ">
<polygon fill="white" stroke="#666666" points="374,-118 205,-118 205,-88 374,-88 374,-118"/>
<text text-anchor="start" x="213" y="-106" font-family="Helvetica,sans-Serif" font-size="10.00">EonPlay::Data::PlaylistManager</text>
<text text-anchor="middle" x="289.5" y="-95" font-family="Helvetica,sans-Serif" font-size="10.00">::refreshAllSmartPlaylists</text>
</a>
</g>
</g>
<!-- Node21&#45;&gt;Node22 -->
<g id="edge23_Node000021_Node000022" class="edge">
<title>Node21&#45;&gt;Node22</title>
<g id="a_edge23_Node000021_Node000022"><a xlink:title=" ">
<path fill="none" stroke="#63b8ff" d="M399.74,-106.77C391.17,-106.47 382.52,-106.17 374.05,-105.88"/>
<polygon fill="#63b8ff" stroke="#63b8ff" points="399.65,-110.27 409.76,-107.11 399.89,-103.27 399.65,-110.27"/>
</a>
</g>
</g>
<!-- Node23 -->
<g id="Node000023" class="node">
<title>Node23</title>
<g id="a_Node000023"><a xlink:href="../../dd/d67/classEonPlay_1_1Data_1_1PlaylistManager.html#a361435356c3fb0331169f63610cad873" target="_top" xlink:title=" ">
<polygon fill="white" stroke="#666666" points="169,-113 0,-113 0,-83 169,-83 169,-113"/>
<text text-anchor="start" x="8" y="-101" font-family="Helvetica,sans-Serif" font-size="10.00">EonPlay::Data::PlaylistManager</text>
<text text-anchor="middle" x="84.5" y="-90" font-family="Helvetica,sans-Serif" font-size="10.00">::rebuildSmartPlaylists</text>
</a>
</g>
</g>
<!-- Node22&#45;&gt;Node23 -->
<g id="edge24_Node000022_Node000023" class="edge">
<title>Node22&#45;&gt;Node23</title>
<g id="a_edge24_Node000022_Node000023"><a xlink:title=" ">
<path fill="none" stroke="#63b8ff" d="M194.74,-100.69C186.17,-100.48 177.52,-100.27 169.05,-100.06"/>
<polygon fill="#63b8ff" stroke="#63b8ff" points="194.68,-104.19 204.76,-100.94 194.85,-97.19 194.68,-104.19"/>
</a>
</g>
</g>
</g>
</svg>

<g id="navigator" transform="translate(0 0)" fill="#404254">
  <rect fill="#f2f5e9" fill-opacity="0.5" stroke="#606060" stroke-width=".5" x="0" y="0" width="60" height="60"/>
  <use id="zoomplus" xlink:href="#zoomPlus" x="17" y="9" onmousedown="handleZoom(evt,'in')"/>
  <use id="zoomminus" xlink:href="#zoomMin" x="42" y="9" onmousedown="handleZoom(evt,'out')"/>
  <use id="reset" xlink:href="#resetDef" x="30" y="36" onmousedown="handleReset()"/>
   <use id="arrowup" xlink:href="#arrowUp" x="0" y="0" onmousedown="handlePan(0,-1)"/>
  <use id="arrowright" xlink:href="#arrowRight" x="0" y="0" onmousedown="handlePan(1,0)"/>
  <use id="arrowdown" xlink:href="#arrowDown" x="0" y="0" onmousedown="handlePan(0,1)"/>
  <use id="arrowleft" xlink:href="#arrowLeft" x="0" y="0" onmousedown="handlePan(-1,0)"/>
</g>
<svg viewBox="0 0 15 15" width="100%" height="30px" preserveAspectRatio="xMaxYMin meet">
 <g id="arrow_out" transform="scale(0.3 0.3)">
  <a xlink:href="classEonPlay_1_1Data_1_1MediaFile_a9f59cdb65f31f8506749bd6984339c0f_icgraph_org.svg" target="_base">
   <rect id="button" ry="5" rx="5" y="6" x="6" height="38" width="38"
        fill="#f2f5e9" fill-opacity="0.5" stroke="#606060" stroke-width="1.0"/>
   <path id="arrow"
     d="M 11.500037,31.436501 C 11.940474,20.09759 22.043105,11.32322 32.158766,21.979434 L 37.068811,17.246167 C 37.068811,17.246167 37.088388,32 37.088388,32 L 22.160133,31.978069 C 22.160133,31.978069 26.997745,27.140456 26.997745,27.140456 C 18.528582,18.264221 13.291696,25.230495 11.500037,31.436501 z"
     style="fill:#404040;"/>
  </a>
 </g>
</svg>

<style type='text/css'>
<![CDATA[
[data-mouse-over-selected='false'] { opacity: 0.7; }
[data-mouse-over-selected='true']  { opacity: 1.0; }
]]>
</style>
<script type="application/ecmascript"><![CDATA[
document.addEventListener('DOMContentLoaded', (event) => {
  highlightEdges();
  highlightAdjacentNodes();
});
]]></script>
</svg>
