<?xml version="1.0" encoding="UTF-8" standalone="no"?>
<!DOCTYPE svg PUBLIC "-//W3C//DTD SVG 1.1//EN"
 "http://www.w3.org/Graphics/SVG/1.1/DTD/svg11.dtd">
<!-- Generated by graphviz version 2.43.0 (0)
 -->
<!-- Title: VideoCastingManager::~VideoCastingManager Pages: 1 -->
<svg width="633pt" height="134pt"
 viewBox="0.00 0.00 633.00 134.00" xmlns="http://www.w3.org/2000/svg" xmlns:xlink="http://www.w3.org/1999/xlink">
<g id="graph0" class="graph" transform="scale(1 1) rotate(0) translate(4 130)">
<title>VideoCastingManager::~VideoCastingManager</title>
<!-- Node1 -->
<g id="Node000001" class="node">
<title>Node1</title>
<g id="a_Node000001"><a xlink:title=" ">
<polygon fill="#999999" stroke="#666666" points="138,-78 0,-78 0,-48 138,-48 138,-78"/>
<text text-anchor="start" x="8" y="-66" font-family="Helvetica,sans-Serif" font-size="10.00">VideoCastingManager</text>
<text text-anchor="middle" x="69" y="-55" font-family="Helvetica,sans-Serif" font-size="10.00">::~VideoCastingManager</text>
</a>
</g>
</g>
<!-- Node2 -->
<g id="Node000002" class="node">
<title>Node2</title>
<g id="a_Node000002"><a xlink:href="../../de/d2b/classVideoCastingManager.html#a02a9adb4959d3937a55b35a80481fa81" target="_top" xlink:title="Shutdown the casting manager.">
<polygon fill="white" stroke="#666666" points="298,-78 174,-78 174,-48 298,-48 298,-78"/>
<text text-anchor="start" x="182" y="-66" font-family="Helvetica,sans-Serif" font-size="10.00">VideoCastingManager</text>
<text text-anchor="middle" x="236" y="-55" font-family="Helvetica,sans-Serif" font-size="10.00">::shutdown</text>
</a>
</g>
</g>
<!-- Node1&#45;&gt;Node2 -->
<g id="edge1_Node000001_Node000002" class="edge">
<title>Node1&#45;&gt;Node2</title>
<g id="a_edge1_Node000001_Node000002"><a xlink:title=" ">
<path fill="none" stroke="#63b8ff" d="M138.06,-63C146.52,-63 155.19,-63 163.69,-63"/>
<polygon fill="#63b8ff" stroke="#63b8ff" points="163.96,-66.5 173.96,-63 163.96,-59.5 163.96,-66.5"/>
</a>
</g>
</g>
<!-- Node3 -->
<g id="Node000003" class="node">
<title>Node3</title>
<g id="a_Node000003"><a xlink:href="../../de/d2b/classVideoCastingManager.html#a6b3707035dde1ed74389e42bdc308d41" target="_top" xlink:title="Stop current casting session.">
<polygon fill="white" stroke="#666666" points="461.5,-126 337.5,-126 337.5,-96 461.5,-96 461.5,-126"/>
<text text-anchor="start" x="345.5" y="-114" font-family="Helvetica,sans-Serif" font-size="10.00">VideoCastingManager</text>
<text text-anchor="middle" x="399.5" y="-103" font-family="Helvetica,sans-Serif" font-size="10.00">::stopCasting</text>
</a>
</g>
</g>
<!-- Node2&#45;&gt;Node3 -->
<g id="edge2_Node000002_Node000003" class="edge">
<title>Node2&#45;&gt;Node3</title>
<g id="a_edge2_Node000002_Node000003"><a xlink:title=" ">
<path fill="none" stroke="#63b8ff" d="M287.66,-78.06C303.74,-82.84 321.68,-88.17 338.37,-93.13"/>
<polygon fill="#63b8ff" stroke="#63b8ff" points="337.44,-96.5 348.02,-96 339.43,-89.79 337.44,-96.5"/>
</a>
</g>
</g>
<!-- Node4 -->
<g id="Node000004" class="node">
<title>Node4</title>
<g id="a_Node000004"><a xlink:href="../../de/d2b/classVideoCastingManager.html#a02dc9a165f0479773de95ba24fa37e34" target="_top" xlink:title="Stop device discovery.">
<polygon fill="white" stroke="#666666" points="462.5,-78 336.5,-78 336.5,-48 462.5,-48 462.5,-78"/>
<text text-anchor="start" x="344.5" y="-66" font-family="Helvetica,sans-Serif" font-size="10.00">VideoCastingManager</text>
<text text-anchor="middle" x="399.5" y="-55" font-family="Helvetica,sans-Serif" font-size="10.00">::stopDeviceDiscovery</text>
</a>
</g>
</g>
<!-- Node2&#45;&gt;Node4 -->
<g id="edge3_Node000002_Node000004" class="edge">
<title>Node2&#45;&gt;Node4</title>
<g id="a_edge3_Node000002_Node000004"><a xlink:title=" ">
<path fill="none" stroke="#63b8ff" d="M298.06,-63C307.24,-63 316.79,-63 326.18,-63"/>
<polygon fill="#63b8ff" stroke="#63b8ff" points="326.28,-66.5 336.28,-63 326.28,-59.5 326.28,-66.5"/>
</a>
</g>
</g>
<!-- Node6 -->
<g id="Node000006" class="node">
<title>Node6</title>
<g id="a_Node000006"><a xlink:href="../../de/d2b/classVideoCastingManager.html#a8684354a08d98eaab11a9dbf6d8ca181" target="_top" xlink:title="Stop web control server.">
<polygon fill="white" stroke="#666666" points="465,-30 334,-30 334,0 465,0 465,-30"/>
<text text-anchor="start" x="342" y="-18" font-family="Helvetica,sans-Serif" font-size="10.00">VideoCastingManager</text>
<text text-anchor="middle" x="399.5" y="-7" font-family="Helvetica,sans-Serif" font-size="10.00">::stopWebControlServer</text>
</a>
</g>
</g>
<!-- Node2&#45;&gt;Node6 -->
<g id="edge5_Node000002_Node000006" class="edge">
<title>Node2&#45;&gt;Node6</title>
<g id="a_edge5_Node000002_Node000006"><a xlink:title=" ">
<path fill="none" stroke="#63b8ff" d="M287.66,-47.94C303.74,-43.16 321.68,-37.83 338.37,-32.87"/>
<polygon fill="#63b8ff" stroke="#63b8ff" points="339.43,-36.21 348.02,-30 337.44,-29.5 339.43,-36.21"/>
</a>
</g>
</g>
<!-- Node5 -->
<g id="Node000005" class="node">
<title>Node5</title>
<g id="a_Node000005"><a xlink:href="../../de/d2b/classVideoCastingManager.html#a0cca5053560ff30f71a4cb1454651ab0" target="_top" xlink:title="Emitted when device discovery stops.">
<polygon fill="white" stroke="#666666" points="625,-78 501,-78 501,-48 625,-48 625,-78"/>
<text text-anchor="start" x="509" y="-66" font-family="Helvetica,sans-Serif" font-size="10.00">VideoCastingManager</text>
<text text-anchor="middle" x="563" y="-55" font-family="Helvetica,sans-Serif" font-size="10.00">::discoveryStopped</text>
</a>
</g>
</g>
<!-- Node4&#45;&gt;Node5 -->
<g id="edge4_Node000004_Node000005" class="edge">
<title>Node4&#45;&gt;Node5</title>
<g id="a_edge4_Node000004_Node000005"><a xlink:title=" ">
<path fill="none" stroke="#63b8ff" d="M462.94,-63C471.97,-63 481.32,-63 490.51,-63"/>
<polygon fill="#63b8ff" stroke="#63b8ff" points="490.79,-66.5 500.79,-63 490.79,-59.5 490.79,-66.5"/>
</a>
</g>
</g>
</g>
</svg>
