<?xml version="1.0" encoding="UTF-8" standalone="no"?>
<!DOCTYPE svg PUBLIC "-//W3C//DTD SVG 1.1//EN"
 "http://www.w3.org/Graphics/SVG/1.1/DTD/svg11.dtd">
<!-- Generated by graphviz version 2.43.0 (0)
 -->
<!-- Title: VideoCastingManager::refreshDevices Pages: 1 -->
<svg width="456pt" height="86pt"
 viewBox="0.00 0.00 456.00 86.00" xmlns="http://www.w3.org/2000/svg" xmlns:xlink="http://www.w3.org/1999/xlink">
<g id="graph0" class="graph" transform="scale(1 1) rotate(0) translate(4 82)">
<title>VideoCastingManager::refreshDevices</title>
<!-- Node1 -->
<g id="Node000001" class="node">
<title>Node1</title>
<g id="a_Node000001"><a xlink:title="Refresh device list.">
<polygon fill="#999999" stroke="#666666" points="124,-54 0,-54 0,-24 124,-24 124,-54"/>
<text text-anchor="start" x="8" y="-42" font-family="Helvetica,sans-Serif" font-size="10.00">VideoCastingManager</text>
<text text-anchor="middle" x="62" y="-31" font-family="Helvetica,sans-Serif" font-size="10.00">::refreshDevices</text>
</a>
</g>
</g>
<!-- Node2 -->
<g id="Node000002" class="node">
<title>Node2</title>
<g id="a_Node000002"><a xlink:href="../../de/d2b/classVideoCastingManager.html#af1265c782ec26cc8886cdd0601a0d1bf" target="_top" xlink:title="Start device discovery.">
<polygon fill="white" stroke="#666666" points="288,-78 160,-78 160,-48 288,-48 288,-78"/>
<text text-anchor="start" x="168" y="-66" font-family="Helvetica,sans-Serif" font-size="10.00">VideoCastingManager</text>
<text text-anchor="middle" x="224" y="-55" font-family="Helvetica,sans-Serif" font-size="10.00">::startDeviceDiscovery</text>
</a>
</g>
</g>
<!-- Node1&#45;&gt;Node2 -->
<g id="edge1_Node000001_Node000002" class="edge">
<title>Node1&#45;&gt;Node2</title>
<g id="a_edge1_Node000001_Node000002"><a xlink:title=" ">
<path fill="none" stroke="#63b8ff" d="M124.4,-48.21C132.76,-49.46 141.41,-50.76 149.95,-52.04"/>
<polygon fill="#63b8ff" stroke="#63b8ff" points="149.5,-55.51 159.91,-53.54 150.54,-48.59 149.5,-55.51"/>
</a>
</g>
</g>
<!-- Node4 -->
<g id="Node000004" class="node">
<title>Node4</title>
<g id="a_Node000004"><a xlink:href="../../de/d2b/classVideoCastingManager.html#a02dc9a165f0479773de95ba24fa37e34" target="_top" xlink:title="Stop device discovery.">
<polygon fill="white" stroke="#666666" points="287,-30 161,-30 161,0 287,0 287,-30"/>
<text text-anchor="start" x="169" y="-18" font-family="Helvetica,sans-Serif" font-size="10.00">VideoCastingManager</text>
<text text-anchor="middle" x="224" y="-7" font-family="Helvetica,sans-Serif" font-size="10.00">::stopDeviceDiscovery</text>
</a>
</g>
</g>
<!-- Node1&#45;&gt;Node4 -->
<g id="edge3_Node000001_Node000004" class="edge">
<title>Node1&#45;&gt;Node4</title>
<g id="a_edge3_Node000001_Node000004"><a xlink:title=" ">
<path fill="none" stroke="#63b8ff" d="M124.4,-29.79C133.11,-28.48 142.13,-27.13 151.02,-25.8"/>
<polygon fill="#63b8ff" stroke="#63b8ff" points="151.6,-29.25 160.97,-24.3 150.56,-22.33 151.6,-29.25"/>
</a>
</g>
</g>
<!-- Node3 -->
<g id="Node000003" class="node">
<title>Node3</title>
<g id="a_Node000003"><a xlink:href="../../de/d2b/classVideoCastingManager.html#a10c8860dec966cabec221e95c9bee451" target="_top" xlink:title="Emitted when device discovery starts.">
<polygon fill="white" stroke="#666666" points="448,-78 324,-78 324,-48 448,-48 448,-78"/>
<text text-anchor="start" x="332" y="-66" font-family="Helvetica,sans-Serif" font-size="10.00">VideoCastingManager</text>
<text text-anchor="middle" x="386" y="-55" font-family="Helvetica,sans-Serif" font-size="10.00">::discoveryStarted</text>
</a>
</g>
</g>
<!-- Node2&#45;&gt;Node3 -->
<g id="edge2_Node000002_Node000003" class="edge">
<title>Node2&#45;&gt;Node3</title>
<g id="a_edge2_Node000002_Node000003"><a xlink:title=" ">
<path fill="none" stroke="#63b8ff" d="M288.24,-63C296.56,-63 305.13,-63 313.58,-63"/>
<polygon fill="#63b8ff" stroke="#63b8ff" points="313.79,-66.5 323.79,-63 313.79,-59.5 313.79,-66.5"/>
</a>
</g>
</g>
<!-- Node5 -->
<g id="Node000005" class="node">
<title>Node5</title>
<g id="a_Node000005"><a xlink:href="../../de/d2b/classVideoCastingManager.html#a0cca5053560ff30f71a4cb1454651ab0" target="_top" xlink:title="Emitted when device discovery stops.">
<polygon fill="white" stroke="#666666" points="448,-30 324,-30 324,0 448,0 448,-30"/>
<text text-anchor="start" x="332" y="-18" font-family="Helvetica,sans-Serif" font-size="10.00">VideoCastingManager</text>
<text text-anchor="middle" x="386" y="-7" font-family="Helvetica,sans-Serif" font-size="10.00">::discoveryStopped</text>
</a>
</g>
</g>
<!-- Node4&#45;&gt;Node5 -->
<g id="edge4_Node000004_Node000005" class="edge">
<title>Node4&#45;&gt;Node5</title>
<g id="a_edge4_Node000004_Node000005"><a xlink:title=" ">
<path fill="none" stroke="#63b8ff" d="M287.32,-15C295.96,-15 304.89,-15 313.68,-15"/>
<polygon fill="#63b8ff" stroke="#63b8ff" points="313.9,-18.5 323.9,-15 313.9,-11.5 313.9,-18.5"/>
</a>
</g>
</g>
</g>
</svg>
