<?xml version="1.0" encoding="UTF-8" standalone="no"?>
<!DOCTYPE svg PUBLIC "-//W3C//DTD SVG 1.1//EN"
 "http://www.w3.org/Graphics/SVG/1.1/DTD/svg11.dtd">
<!-- Generated by graphviz version 2.43.0 (0)
 -->
<!-- Title: VideoCastingManager::discoveryStopped Pages: 1 -->
<svg width="628pt" height="86pt"
 viewBox="0.00 0.00 628.00 86.00" xmlns="http://www.w3.org/2000/svg" xmlns:xlink="http://www.w3.org/1999/xlink">
<g id="graph0" class="graph" transform="scale(1 1) rotate(0) translate(4 82)">
<title>VideoCastingManager::discoveryStopped</title>
<!-- Node1 -->
<g id="Node000001" class="node">
<title>Node1</title>
<g id="a_Node000001"><a xlink:title="Emitted when device discovery stops.">
<polygon fill="#999999" stroke="#666666" points="620,-54 496,-54 496,-24 620,-24 620,-54"/>
<text text-anchor="start" x="504" y="-42" font-family="Helvetica,sans-Serif" font-size="10.00">VideoCastingManager</text>
<text text-anchor="middle" x="558" y="-31" font-family="Helvetica,sans-Serif" font-size="10.00">::discoveryStopped</text>
</a>
</g>
</g>
<!-- Node2 -->
<g id="Node000002" class="node">
<title>Node2</title>
<g id="a_Node000002"><a xlink:href="../../de/d2b/classVideoCastingManager.html#a02dc9a165f0479773de95ba24fa37e34" target="_top" xlink:title="Stop device discovery.">
<polygon fill="white" stroke="#666666" points="460,-54 334,-54 334,-24 460,-24 460,-54"/>
<text text-anchor="start" x="342" y="-42" font-family="Helvetica,sans-Serif" font-size="10.00">VideoCastingManager</text>
<text text-anchor="middle" x="397" y="-31" font-family="Helvetica,sans-Serif" font-size="10.00">::stopDeviceDiscovery</text>
</a>
</g>
</g>
<!-- Node1&#45;&gt;Node2 -->
<g id="edge1_Node000001_Node000002" class="edge">
<title>Node1&#45;&gt;Node2</title>
<g id="a_edge1_Node000001_Node000002"><a xlink:title=" ">
<path fill="none" stroke="#63b8ff" d="M485.97,-39C477.37,-39 468.63,-39 460.17,-39"/>
<polygon fill="#63b8ff" stroke="#63b8ff" points="485.98,-42.5 495.98,-39 485.98,-35.5 485.98,-42.5"/>
</a>
</g>
</g>
<!-- Node3 -->
<g id="Node000003" class="node">
<title>Node3</title>
<g id="a_Node000003"><a xlink:href="../../de/d2b/classVideoCastingManager.html#a332b025ee1adfe2bf19d61a3bfeaa3ef" target="_top" xlink:title="Refresh device list.">
<polygon fill="white" stroke="#666666" points="298,-78 174,-78 174,-48 298,-48 298,-78"/>
<text text-anchor="start" x="182" y="-66" font-family="Helvetica,sans-Serif" font-size="10.00">VideoCastingManager</text>
<text text-anchor="middle" x="236" y="-55" font-family="Helvetica,sans-Serif" font-size="10.00">::refreshDevices</text>
</a>
</g>
</g>
<!-- Node2&#45;&gt;Node3 -->
<g id="edge2_Node000002_Node000003" class="edge">
<title>Node2&#45;&gt;Node3</title>
<g id="a_edge2_Node000002_Node000003"><a xlink:title=" ">
<path fill="none" stroke="#63b8ff" d="M323.68,-49.92C315.15,-51.2 306.52,-52.51 298.16,-53.77"/>
<polygon fill="#63b8ff" stroke="#63b8ff" points="324.25,-53.37 333.62,-48.42 323.2,-46.45 324.25,-53.37"/>
</a>
</g>
</g>
<!-- Node4 -->
<g id="Node000004" class="node">
<title>Node4</title>
<g id="a_Node000004"><a xlink:href="../../de/d2b/classVideoCastingManager.html#a02a9adb4959d3937a55b35a80481fa81" target="_top" xlink:title="Shutdown the casting manager.">
<polygon fill="white" stroke="#666666" points="298,-30 174,-30 174,0 298,0 298,-30"/>
<text text-anchor="start" x="182" y="-18" font-family="Helvetica,sans-Serif" font-size="10.00">VideoCastingManager</text>
<text text-anchor="middle" x="236" y="-7" font-family="Helvetica,sans-Serif" font-size="10.00">::shutdown</text>
</a>
</g>
</g>
<!-- Node2&#45;&gt;Node4 -->
<g id="edge3_Node000002_Node000004" class="edge">
<title>Node2&#45;&gt;Node4</title>
<g id="a_edge3_Node000002_Node000004"><a xlink:title=" ">
<path fill="none" stroke="#63b8ff" d="M323.68,-28.08C315.15,-26.8 306.52,-25.49 298.16,-24.23"/>
<polygon fill="#63b8ff" stroke="#63b8ff" points="323.2,-31.55 333.62,-29.58 324.25,-24.63 323.2,-31.55"/>
</a>
</g>
</g>
<!-- Node5 -->
<g id="Node000005" class="node">
<title>Node5</title>
<g id="a_Node000005"><a xlink:href="../../de/d2b/classVideoCastingManager.html#aaf3f940361d49b946010277096a4f316" target="_top" xlink:title=" ">
<polygon fill="white" stroke="#666666" points="138,-30 0,-30 0,0 138,0 138,-30"/>
<text text-anchor="start" x="8" y="-18" font-family="Helvetica,sans-Serif" font-size="10.00">VideoCastingManager</text>
<text text-anchor="middle" x="69" y="-7" font-family="Helvetica,sans-Serif" font-size="10.00">::~VideoCastingManager</text>
</a>
</g>
</g>
<!-- Node4&#45;&gt;Node5 -->
<g id="edge4_Node000004_Node000005" class="edge">
<title>Node4&#45;&gt;Node5</title>
<g id="a_edge4_Node000004_Node000005"><a xlink:title=" ">
<path fill="none" stroke="#63b8ff" d="M163.42,-15C155.03,-15 146.49,-15 138.15,-15"/>
<polygon fill="#63b8ff" stroke="#63b8ff" points="163.56,-18.5 173.56,-15 163.56,-11.5 163.56,-18.5"/>
</a>
</g>
</g>
</g>
</svg>
