<?xml version="1.0" encoding="UTF-8" standalone="no"?>
<!DOCTYPE svg PUBLIC "-//W3C//DTD SVG 1.1//EN"
 "http://www.w3.org/Graphics/SVG/1.1/DTD/svg11.dtd">
<!-- Generated by graphviz version 2.43.0 (0)
 -->
<!-- Title: InstallerManager::createInstaller Pages: 1 -->
<svg width="325pt" height="134pt"
 viewBox="0.00 0.00 325.00 134.00" xmlns="http://www.w3.org/2000/svg" xmlns:xlink="http://www.w3.org/1999/xlink">
<g id="graph0" class="graph" transform="scale(1 1) rotate(0) translate(4 130)">
<title>InstallerManager::createInstaller</title>
<!-- Node1 -->
<g id="Node000001" class="node">
<title>Node1</title>
<g id="a_Node000001"><a xlink:title=" ">
<polygon fill="#999999" stroke="#666666" points="136,-78 0,-78 0,-48 136,-48 136,-78"/>
<text text-anchor="start" x="8" y="-66" font-family="Helvetica,sans-Serif" font-size="10.00">InstallerManager::create</text>
<text text-anchor="middle" x="68" y="-55" font-family="Helvetica,sans-Serif" font-size="10.00">Installer</text>
</a>
</g>
</g>
<!-- Node2 -->
<g id="Node000002" class="node">
<title>Node2</title>
<g id="a_Node000002"><a xlink:href="../../dd/d64/classInstallerManager.html#ae2024cd5e069fce9967183508efd2a67" target="_top" xlink:title=" ">
<polygon fill="white" stroke="#666666" points="317,-126 172,-126 172,-96 317,-96 317,-126"/>
<text text-anchor="start" x="180" y="-114" font-family="Helvetica,sans-Serif" font-size="10.00">InstallerManager::installer</text>
<text text-anchor="middle" x="244.5" y="-103" font-family="Helvetica,sans-Serif" font-size="10.00">CreationCompleted</text>
</a>
</g>
</g>
<!-- Node1&#45;&gt;Node2 -->
<g id="edge1_Node000001_Node000002" class="edge">
<title>Node1&#45;&gt;Node2</title>
<g id="a_edge1_Node000001_Node000002"><a xlink:title=" ">
<path fill="none" stroke="#63b8ff" d="M123.73,-78.06C141.36,-82.9 161.04,-88.32 179.29,-93.34"/>
<polygon fill="#63b8ff" stroke="#63b8ff" points="178.39,-96.72 188.96,-96 180.25,-89.97 178.39,-96.72"/>
</a>
</g>
</g>
<!-- Node3 -->
<g id="Node000003" class="node">
<title>Node3</title>
<g id="a_Node000003"><a xlink:href="../../dd/d64/classInstallerManager.html#ae1fb15dfb1f432ed8eed5815f4d868b4" target="_top" xlink:title=" ">
<polygon fill="white" stroke="#666666" points="317,-78 172,-78 172,-48 317,-48 317,-78"/>
<text text-anchor="start" x="180" y="-66" font-family="Helvetica,sans-Serif" font-size="10.00">InstallerManager::installer</text>
<text text-anchor="middle" x="244.5" y="-55" font-family="Helvetica,sans-Serif" font-size="10.00">CreationFailed</text>
</a>
</g>
</g>
<!-- Node1&#45;&gt;Node3 -->
<g id="edge2_Node000001_Node000003" class="edge">
<title>Node1&#45;&gt;Node3</title>
<g id="a_edge2_Node000001_Node000003"><a xlink:title=" ">
<path fill="none" stroke="#63b8ff" d="M136.47,-63C144.72,-63 153.22,-63 161.65,-63"/>
<polygon fill="#63b8ff" stroke="#63b8ff" points="161.88,-66.5 171.88,-63 161.88,-59.5 161.88,-66.5"/>
</a>
</g>
</g>
<!-- Node4 -->
<g id="Node000004" class="node">
<title>Node4</title>
<g id="a_Node000004"><a xlink:href="../../dd/d64/classInstallerManager.html#ade3b543a8ee93999be58f549ec9bf32c" target="_top" xlink:title=" ">
<polygon fill="white" stroke="#666666" points="317,-30 172,-30 172,0 317,0 317,-30"/>
<text text-anchor="start" x="180" y="-18" font-family="Helvetica,sans-Serif" font-size="10.00">InstallerManager::installer</text>
<text text-anchor="middle" x="244.5" y="-7" font-family="Helvetica,sans-Serif" font-size="10.00">CreationStarted</text>
</a>
</g>
</g>
<!-- Node1&#45;&gt;Node4 -->
<g id="edge3_Node000001_Node000004" class="edge">
<title>Node1&#45;&gt;Node4</title>
<g id="a_edge3_Node000001_Node000004"><a xlink:title=" ">
<path fill="none" stroke="#63b8ff" d="M123.73,-47.94C141.36,-43.1 161.04,-37.68 179.29,-32.66"/>
<polygon fill="#63b8ff" stroke="#63b8ff" points="180.25,-36.03 188.96,-30 178.39,-29.28 180.25,-36.03"/>
</a>
</g>
</g>
</g>
</svg>
