<?xml version="1.0" encoding="UTF-8" standalone="no"?>
<!DOCTYPE svg PUBLIC "-//W3C//DTD SVG 1.1//EN"
 "http://www.w3.org/Graphics/SVG/1.1/DTD/svg11.dtd">
<!-- Generated by graphviz version 2.43.0 (0)
 -->
<!-- Title: printApplicationInfo Pages: 1 -->
<svg width="267pt" height="86pt"
 viewBox="0.00 0.00 267.00 86.00" xmlns="http://www.w3.org/2000/svg" xmlns:xlink="http://www.w3.org/1999/xlink">
<g id="graph0" class="graph" transform="scale(1 1) rotate(0) translate(4 82)">
<title>printApplicationInfo</title>
<!-- Node1 -->
<g id="Node000001" class="node">
<title>Node1</title>
<g id="a_Node000001"><a xlink:title="Print application information.">
<polygon fill="#999999" stroke="#666666" points="113,-48.5 0,-48.5 0,-29.5 113,-29.5 113,-48.5"/>
<text text-anchor="middle" x="56.5" y="-36.5" font-family="Helvetica,sans-Serif" font-size="10.00">printApplicationInfo</text>
</a>
</g>
</g>
<!-- Node2 -->
<g id="Node000002" class="node">
<title>Node2</title>
<g id="a_Node000002"><a xlink:href="../../d2/d38/classEonPlayApplication.html#a81d254272626353bc0fa2750d54d4f7c" target="_top" xlink:title="Get the EonPlay application name.">
<polygon fill="white" stroke="#666666" points="259,-78 149,-78 149,-48 259,-48 259,-78"/>
<text text-anchor="start" x="157" y="-66" font-family="Helvetica,sans-Serif" font-size="10.00">EonPlayApplication</text>
<text text-anchor="middle" x="204" y="-55" font-family="Helvetica,sans-Serif" font-size="10.00">::applicationName</text>
</a>
</g>
</g>
<!-- Node1&#45;&gt;Node2 -->
<g id="edge1_Node000001_Node000002" class="edge">
<title>Node1&#45;&gt;Node2</title>
<g id="a_edge1_Node000001_Node000002"><a xlink:title=" ">
<path fill="none" stroke="#63b8ff" d="M113.34,-48.21C121.75,-49.6 130.48,-51.04 139.04,-52.45"/>
<polygon fill="#63b8ff" stroke="#63b8ff" points="138.55,-55.92 148.99,-54.09 139.69,-49.01 138.55,-55.92"/>
</a>
</g>
</g>
<!-- Node3 -->
<g id="Node000003" class="node">
<title>Node3</title>
<g id="a_Node000003"><a xlink:href="../../d2/d38/classEonPlayApplication.html#ac045d3b80ef93609f2dab738dd177026" target="_top" xlink:title="Get the EonPlay version.">
<polygon fill="white" stroke="#666666" points="259,-30 149,-30 149,0 259,0 259,-30"/>
<text text-anchor="start" x="157" y="-18" font-family="Helvetica,sans-Serif" font-size="10.00">EonPlayApplication</text>
<text text-anchor="middle" x="204" y="-7" font-family="Helvetica,sans-Serif" font-size="10.00">::version</text>
</a>
</g>
</g>
<!-- Node1&#45;&gt;Node3 -->
<g id="edge2_Node000001_Node000003" class="edge">
<title>Node1&#45;&gt;Node3</title>
<g id="a_edge2_Node000001_Node000003"><a xlink:title=" ">
<path fill="none" stroke="#63b8ff" d="M113.34,-29.79C121.75,-28.4 130.48,-26.96 139.04,-25.55"/>
<polygon fill="#63b8ff" stroke="#63b8ff" points="139.69,-28.99 148.99,-23.91 138.55,-22.08 139.69,-28.99"/>
</a>
</g>
</g>
</g>
</svg>
