<?xml version="1.0" encoding="UTF-8" standalone="no"?>
<!DOCTYPE svg PUBLIC "-//W3C//DTD SVG 1.1//EN"
 "http://www.w3.org/Graphics/SVG/1.1/DTD/svg11.dtd">
<!-- Generated by graphviz version 2.43.0 (0)
 -->
<!-- Title: EonPlay::Data::DatabaseManager::updatePlaylist Pages: 1 -->
<svg width="597pt" height="86pt"
 viewBox="0.00 0.00 597.00 86.00" xmlns="http://www.w3.org/2000/svg" xmlns:xlink="http://www.w3.org/1999/xlink">
<g id="graph0" class="graph" transform="scale(1 1) rotate(0) translate(4 82)">
<title>EonPlay::Data::DatabaseManager::updatePlaylist</title>
<!-- Node1 -->
<g id="Node000001" class="node">
<title>Node1</title>
<g id="a_Node000001"><a xlink:title=" ">
<polygon fill="#999999" stroke="#666666" points="589,-54 410,-54 410,-24 589,-24 589,-54"/>
<text text-anchor="start" x="418" y="-42" font-family="Helvetica,sans-Serif" font-size="10.00">EonPlay::Data::DatabaseManager</text>
<text text-anchor="middle" x="499.5" y="-31" font-family="Helvetica,sans-Serif" font-size="10.00">::updatePlaylist</text>
</a>
</g>
</g>
<!-- Node2 -->
<g id="Node000002" class="node">
<title>Node2</title>
<g id="a_Node000002"><a xlink:href="../../dd/d67/classEonPlay_1_1Data_1_1PlaylistManager.html#a3c147f8d77e3d348ce605932c10f18ad" target="_top" xlink:title=" ">
<polygon fill="white" stroke="#666666" points="374,-78 205,-78 205,-48 374,-48 374,-78"/>
<text text-anchor="start" x="213" y="-66" font-family="Helvetica,sans-Serif" font-size="10.00">EonPlay::Data::PlaylistManager</text>
<text text-anchor="middle" x="289.5" y="-55" font-family="Helvetica,sans-Serif" font-size="10.00">::renamePlaylist</text>
</a>
</g>
</g>
<!-- Node1&#45;&gt;Node2 -->
<g id="edge1_Node000001_Node000002" class="edge">
<title>Node1&#45;&gt;Node2</title>
<g id="a_edge1_Node000001_Node000002"><a xlink:title=" ">
<path fill="none" stroke="#63b8ff" d="M399.95,-50.37C391.38,-51.36 382.75,-52.36 374.3,-53.33"/>
<polygon fill="#63b8ff" stroke="#63b8ff" points="400.45,-53.84 409.99,-49.21 399.65,-46.88 400.45,-53.84"/>
</a>
</g>
</g>
<!-- Node3 -->
<g id="Node000003" class="node">
<title>Node3</title>
<g id="a_Node000003"><a xlink:href="../../d0/d00/classEonPlay_1_1Data_1_1Playlist.html#a058c80ece8232c3793d8d06fd7b26d2a" target="_top" xlink:title=" ">
<polygon fill="white" stroke="#666666" points="352.5,-30 226.5,-30 226.5,0 352.5,0 352.5,-30"/>
<text text-anchor="start" x="234.5" y="-18" font-family="Helvetica,sans-Serif" font-size="10.00">EonPlay::Data::Playlist</text>
<text text-anchor="middle" x="289.5" y="-7" font-family="Helvetica,sans-Serif" font-size="10.00">::save</text>
</a>
</g>
</g>
<!-- Node1&#45;&gt;Node3 -->
<g id="edge2_Node000001_Node000003" class="edge">
<title>Node1&#45;&gt;Node3</title>
<g id="a_edge2_Node000001_Node000003"><a xlink:title=" ">
<path fill="none" stroke="#63b8ff" d="M399.96,-27.63C383.79,-25.76 367.45,-23.88 352.5,-22.15"/>
<polygon fill="#63b8ff" stroke="#63b8ff" points="399.65,-31.12 409.99,-28.79 400.45,-24.16 399.65,-31.12"/>
</a>
</g>
</g>
<!-- Node4 -->
<g id="Node000004" class="node">
<title>Node4</title>
<g id="a_Node000004"><a xlink:href="../../dd/d67/classEonPlay_1_1Data_1_1PlaylistManager.html#ae9590c9a80460f5329ccc64f71501688" target="_top" xlink:title=" ">
<polygon fill="white" stroke="#666666" points="169,-30 0,-30 0,0 169,0 169,-30"/>
<text text-anchor="start" x="8" y="-18" font-family="Helvetica,sans-Serif" font-size="10.00">EonPlay::Data::PlaylistManager</text>
<text text-anchor="middle" x="84.5" y="-7" font-family="Helvetica,sans-Serif" font-size="10.00">::importPlaylist</text>
</a>
</g>
</g>
<!-- Node3&#45;&gt;Node4 -->
<g id="edge3_Node000003_Node000004" class="edge">
<title>Node3&#45;&gt;Node4</title>
<g id="a_edge3_Node000003_Node000004"><a xlink:title=" ">
<path fill="none" stroke="#63b8ff" d="M216.13,-15C200.93,-15 184.77,-15 169.19,-15"/>
<polygon fill="#63b8ff" stroke="#63b8ff" points="216.49,-18.5 226.49,-15 216.49,-11.5 216.49,-18.5"/>
</a>
</g>
</g>
</g>
</svg>
