<?xml version="1.0" encoding="UTF-8" standalone="no"?>
<!DOCTYPE svg PUBLIC "-//W3C//DTD SVG 1.1//EN"
 "http://www.w3.org/Graphics/SVG/1.1/DTD/svg11.dtd">
<!-- Generated by graphviz version 2.43.0 (0)
 -->
<!-- Title: EonPlay::Data::DatabaseManager::executeQuery Pages: 1 -->
<svg width="832pt" height="182pt"
 viewBox="0.00 0.00 832.00 182.00" xmlns="http://www.w3.org/2000/svg" xmlns:xlink="http://www.w3.org/1999/xlink">
<g id="graph0" class="graph" transform="scale(1 1) rotate(0) translate(4 178)">
<title>EonPlay::Data::DatabaseManager::executeQuery</title>
<!-- Node1 -->
<g id="Node000001" class="node">
<title>Node1</title>
<g id="a_Node000001"><a xlink:title=" ">
<polygon fill="#999999" stroke="#666666" points="824,-102 645,-102 645,-72 824,-72 824,-102"/>
<text text-anchor="start" x="653" y="-90" font-family="Helvetica,sans-Serif" font-size="10.00">EonPlay::Data::DatabaseManager</text>
<text text-anchor="middle" x="734.5" y="-79" font-family="Helvetica,sans-Serif" font-size="10.00">::executeQuery</text>
</a>
</g>
</g>
<!-- Node2 -->
<g id="Node000002" class="node">
<title>Node2</title>
<g id="a_Node000002"><a xlink:href="../../da/db6/classEonPlay_1_1Data_1_1DatabaseManager.html#a450994b77e514ca90b737c25b492e7e1" target="_top" xlink:title=" ">
<polygon fill="white" stroke="#666666" points="609,-174 430,-174 430,-144 609,-144 609,-174"/>
<text text-anchor="start" x="438" y="-162" font-family="Helvetica,sans-Serif" font-size="10.00">EonPlay::Data::DatabaseManager</text>
<text text-anchor="middle" x="519.5" y="-151" font-family="Helvetica,sans-Serif" font-size="10.00">::beginTransaction</text>
</a>
</g>
</g>
<!-- Node1&#45;&gt;Node2 -->
<g id="edge1_Node000001_Node000002" class="edge">
<title>Node1&#45;&gt;Node2</title>
<g id="a_edge1_Node000001_Node000002"><a xlink:title=" ">
<path fill="none" stroke="#63b8ff" d="M688.03,-105.83C664.62,-115.19 635.51,-126.32 609,-135 599.47,-138.12 589.27,-141.16 579.31,-143.97"/>
<polygon fill="#63b8ff" stroke="#63b8ff" points="689.39,-109.05 697.36,-102.07 686.77,-102.56 689.39,-109.05"/>
</a>
</g>
</g>
<!-- Node3 -->
<g id="Node000003" class="node">
<title>Node3</title>
<g id="a_Node000003"><a xlink:href="../../da/db6/classEonPlay_1_1Data_1_1DatabaseManager.html#a09db66bd055c501e288e915c743458be" target="_top" xlink:title=" ">
<polygon fill="white" stroke="#666666" points="609,-126 430,-126 430,-96 609,-96 609,-126"/>
<text text-anchor="start" x="438" y="-114" font-family="Helvetica,sans-Serif" font-size="10.00">EonPlay::Data::DatabaseManager</text>
<text text-anchor="middle" x="519.5" y="-103" font-family="Helvetica,sans-Serif" font-size="10.00">::movePlaylistItem</text>
</a>
</g>
</g>
<!-- Node1&#45;&gt;Node3 -->
<g id="edge2_Node000001_Node000003" class="edge">
<title>Node1&#45;&gt;Node3</title>
<g id="a_edge2_Node000001_Node000003"><a xlink:title=" ">
<path fill="none" stroke="#63b8ff" d="M634.73,-98.13C626.2,-99.09 617.59,-100.06 609.14,-101.01"/>
<polygon fill="#63b8ff" stroke="#63b8ff" points="635.17,-101.6 644.71,-97 634.38,-94.65 635.17,-101.6"/>
</a>
</g>
</g>
<!-- Node5 -->
<g id="Node000005" class="node">
<title>Node5</title>
<g id="a_Node000005"><a xlink:href="../../da/db6/classEonPlay_1_1Data_1_1DatabaseManager.html#a71c2ae02457173c5736e0f7a05d7f8af" target="_top" xlink:title=" ">
<polygon fill="white" stroke="#666666" points="609,-78 430,-78 430,-48 609,-48 609,-78"/>
<text text-anchor="start" x="438" y="-66" font-family="Helvetica,sans-Serif" font-size="10.00">EonPlay::Data::DatabaseManager</text>
<text text-anchor="middle" x="519.5" y="-55" font-family="Helvetica,sans-Serif" font-size="10.00">::removeFromPlaylist</text>
</a>
</g>
</g>
<!-- Node1&#45;&gt;Node5 -->
<g id="edge4_Node000001_Node000005" class="edge">
<title>Node1&#45;&gt;Node5</title>
<g id="a_edge4_Node000001_Node000005"><a xlink:title=" ">
<path fill="none" stroke="#63b8ff" d="M634.73,-75.87C626.2,-74.91 617.59,-73.94 609.14,-72.99"/>
<polygon fill="#63b8ff" stroke="#63b8ff" points="634.38,-79.35 644.71,-77 635.17,-72.4 634.38,-79.35"/>
</a>
</g>
</g>
<!-- Node8 -->
<g id="Node000008" class="node">
<title>Node8</title>
<g id="a_Node000008"><a xlink:href="../../da/db6/classEonPlay_1_1Data_1_1DatabaseManager.html#a45614a9a673ed3fd3259b5cbb9f34a80" target="_top" xlink:title=" ">
<polygon fill="white" stroke="#666666" points="609,-30 430,-30 430,0 609,0 609,-30"/>
<text text-anchor="start" x="438" y="-18" font-family="Helvetica,sans-Serif" font-size="10.00">EonPlay::Data::DatabaseManager</text>
<text text-anchor="middle" x="519.5" y="-7" font-family="Helvetica,sans-Serif" font-size="10.00">::setSchemaVersion</text>
</a>
</g>
</g>
<!-- Node1&#45;&gt;Node8 -->
<g id="edge7_Node000001_Node000008" class="edge">
<title>Node1&#45;&gt;Node8</title>
<g id="a_edge7_Node000001_Node000008"><a xlink:title=" ">
<path fill="none" stroke="#63b8ff" d="M688.03,-68.17C664.62,-58.81 635.51,-47.68 609,-39 599.47,-35.88 589.27,-32.84 579.31,-30.03"/>
<polygon fill="#63b8ff" stroke="#63b8ff" points="686.77,-71.44 697.36,-71.93 689.39,-64.95 686.77,-71.44"/>
</a>
</g>
</g>
<!-- Node4 -->
<g id="Node000004" class="node">
<title>Node4</title>
<g id="a_Node000004"><a xlink:href="../../dd/d67/classEonPlay_1_1Data_1_1PlaylistManager.html#a6c2c2da25005363d8579635d5450c127" target="_top" xlink:title=" ">
<polygon fill="white" stroke="#666666" points="389,-126 220,-126 220,-96 389,-96 389,-126"/>
<text text-anchor="start" x="228" y="-114" font-family="Helvetica,sans-Serif" font-size="10.00">EonPlay::Data::PlaylistManager</text>
<text text-anchor="middle" x="304.5" y="-103" font-family="Helvetica,sans-Serif" font-size="10.00">::moveInPlaylist</text>
</a>
</g>
</g>
<!-- Node3&#45;&gt;Node4 -->
<g id="edge3_Node000003_Node000004" class="edge">
<title>Node3&#45;&gt;Node4</title>
<g id="a_edge3_Node000003_Node000004"><a xlink:title=" ">
<path fill="none" stroke="#63b8ff" d="M419.55,-111C409.34,-111 399.04,-111 389.03,-111"/>
<polygon fill="#63b8ff" stroke="#63b8ff" points="419.71,-114.5 429.71,-111 419.71,-107.5 419.71,-114.5"/>
</a>
</g>
</g>
<!-- Node6 -->
<g id="Node000006" class="node">
<title>Node6</title>
<g id="a_Node000006"><a xlink:href="../../dd/d67/classEonPlay_1_1Data_1_1PlaylistManager.html#aec45bb274b5d3933fb90e40cd3fb6c23" target="_top" xlink:title=" ">
<polygon fill="white" stroke="#666666" points="389,-78 220,-78 220,-48 389,-48 389,-78"/>
<text text-anchor="start" x="228" y="-66" font-family="Helvetica,sans-Serif" font-size="10.00">EonPlay::Data::PlaylistManager</text>
<text text-anchor="middle" x="304.5" y="-55" font-family="Helvetica,sans-Serif" font-size="10.00">::removeFromPlaylist</text>
</a>
</g>
</g>
<!-- Node5&#45;&gt;Node6 -->
<g id="edge5_Node000005_Node000006" class="edge">
<title>Node5&#45;&gt;Node6</title>
<g id="a_edge5_Node000005_Node000006"><a xlink:title=" ">
<path fill="none" stroke="#63b8ff" d="M419.55,-63C409.34,-63 399.04,-63 389.03,-63"/>
<polygon fill="#63b8ff" stroke="#63b8ff" points="419.71,-66.5 429.71,-63 419.71,-59.5 419.71,-66.5"/>
</a>
</g>
</g>
<!-- Node7 -->
<g id="Node000007" class="node">
<title>Node7</title>
<g id="a_Node000007"><a xlink:href="../../dd/d67/classEonPlay_1_1Data_1_1PlaylistManager.html#a686c0e80e2604d2410ee5a3f64a63a30" target="_top" xlink:title=" ">
<polygon fill="white" stroke="#666666" points="174,-78 5,-78 5,-48 174,-48 174,-78"/>
<text text-anchor="start" x="13" y="-66" font-family="Helvetica,sans-Serif" font-size="10.00">EonPlay::Data::PlaylistManager</text>
<text text-anchor="middle" x="89.5" y="-55" font-family="Helvetica,sans-Serif" font-size="10.00">::removeFromPlaylist</text>
</a>
</g>
</g>
<!-- Node6&#45;&gt;Node7 -->
<g id="edge6_Node000006_Node000007" class="edge">
<title>Node6&#45;&gt;Node7</title>
<g id="a_edge6_Node000006_Node000007"><a xlink:title=" ">
<path fill="none" stroke="#63b8ff" d="M209.63,-63C197.82,-63 185.81,-63 174.18,-63"/>
<polygon fill="#63b8ff" stroke="#63b8ff" points="209.93,-66.5 219.93,-63 209.93,-59.5 209.93,-66.5"/>
</a>
</g>
</g>
<!-- Node9 -->
<g id="Node000009" class="node">
<title>Node9</title>
<g id="a_Node000009"><a xlink:href="../../da/db6/classEonPlay_1_1Data_1_1DatabaseManager.html#a5005dfda15ef6f690046fdc6e3bdf255" target="_top" xlink:title=" ">
<polygon fill="white" stroke="#666666" points="394,-30 215,-30 215,0 394,0 394,-30"/>
<text text-anchor="start" x="223" y="-18" font-family="Helvetica,sans-Serif" font-size="10.00">EonPlay::Data::DatabaseManager</text>
<text text-anchor="middle" x="304.5" y="-7" font-family="Helvetica,sans-Serif" font-size="10.00">::createSchema</text>
</a>
</g>
</g>
<!-- Node8&#45;&gt;Node9 -->
<g id="edge8_Node000008_Node000009" class="edge">
<title>Node8&#45;&gt;Node9</title>
<g id="a_edge8_Node000008_Node000009"><a xlink:title=" ">
<path fill="none" stroke="#63b8ff" d="M419.46,-15C411.01,-15 402.5,-15 394.14,-15"/>
<polygon fill="#63b8ff" stroke="#63b8ff" points="419.71,-18.5 429.71,-15 419.71,-11.5 419.71,-18.5"/>
</a>
</g>
</g>
<!-- Node10 -->
<g id="Node000010" class="node">
<title>Node10</title>
<g id="a_Node000010"><a xlink:href="../../da/db6/classEonPlay_1_1Data_1_1DatabaseManager.html#a703f8cd32bdac56561150436591b9a59" target="_top" xlink:title=" ">
<polygon fill="white" stroke="#666666" points="179,-30 0,-30 0,0 179,0 179,-30"/>
<text text-anchor="start" x="8" y="-18" font-family="Helvetica,sans-Serif" font-size="10.00">EonPlay::Data::DatabaseManager</text>
<text text-anchor="middle" x="89.5" y="-7" font-family="Helvetica,sans-Serif" font-size="10.00">::initialize</text>
</a>
</g>
</g>
<!-- Node9&#45;&gt;Node10 -->
<g id="edge9_Node000009_Node000010" class="edge">
<title>Node9&#45;&gt;Node10</title>
<g id="a_edge9_Node000009_Node000010"><a xlink:title=" ">
<path fill="none" stroke="#63b8ff" d="M204.46,-15C196.01,-15 187.5,-15 179.14,-15"/>
<polygon fill="#63b8ff" stroke="#63b8ff" points="204.71,-18.5 214.71,-15 204.71,-11.5 204.71,-18.5"/>
</a>
</g>
</g>
</g>
</svg>
