<?xml version="1.0" encoding="UTF-8" standalone="no"?>
<!DOCTYPE svg PUBLIC "-//W3C//DTD SVG 1.1//EN"
 "http://www.w3.org/Graphics/SVG/1.1/DTD/svg11.dtd">
<!-- Generated by graphviz version 2.43.0 (0)
 -->
<!-- Title: EonPlay::Data::DatabaseManager::createSchema Pages: 1 -->
<svg width="617pt" height="110pt"
 viewBox="0.00 0.00 617.00 110.00" xmlns="http://www.w3.org/2000/svg" xmlns:xlink="http://www.w3.org/1999/xlink">
<g id="graph0" class="graph" transform="scale(1 1) rotate(0) translate(4 106)">
<title>EonPlay::Data::DatabaseManager::createSchema</title>
<!-- Node1 -->
<g id="Node000001" class="node">
<title>Node1</title>
<g id="a_Node000001"><a xlink:title=" ">
<polygon fill="#999999" stroke="#666666" points="179,-54 0,-54 0,-24 179,-24 179,-54"/>
<text text-anchor="start" x="8" y="-42" font-family="Helvetica,sans-Serif" font-size="10.00">EonPlay::Data::DatabaseManager</text>
<text text-anchor="middle" x="89.5" y="-31" font-family="Helvetica,sans-Serif" font-size="10.00">::createSchema</text>
</a>
</g>
</g>
<!-- Node2 -->
<g id="Node000002" class="node">
<title>Node2</title>
<g id="a_Node000002"><a xlink:href="../../da/db6/classEonPlay_1_1Data_1_1DatabaseManager.html#a45614a9a673ed3fd3259b5cbb9f34a80" target="_top" xlink:title=" ">
<polygon fill="white" stroke="#666666" points="394,-78 215,-78 215,-48 394,-48 394,-78"/>
<text text-anchor="start" x="223" y="-66" font-family="Helvetica,sans-Serif" font-size="10.00">EonPlay::Data::DatabaseManager</text>
<text text-anchor="middle" x="304.5" y="-55" font-family="Helvetica,sans-Serif" font-size="10.00">::setSchemaVersion</text>
</a>
</g>
</g>
<!-- Node1&#45;&gt;Node2 -->
<g id="edge1_Node000001_Node000002" class="edge">
<title>Node1&#45;&gt;Node2</title>
<g id="a_edge1_Node000001_Node000002"><a xlink:title=" ">
<path fill="none" stroke="#63b8ff" d="M179.29,-49C187.74,-49.96 196.34,-50.93 204.88,-51.89"/>
<polygon fill="#63b8ff" stroke="#63b8ff" points="204.53,-55.37 214.86,-53.01 205.31,-48.41 204.53,-55.37"/>
</a>
</g>
</g>
<!-- Node5 -->
<g id="Node000005" class="node">
<title>Node5</title>
<g id="a_Node000005"><a xlink:href="../../da/db6/classEonPlay_1_1Data_1_1DatabaseManager.html#af14e1991e64c147a6f1f80fa63ab546e" target="_top" xlink:title=" ">
<polygon fill="white" stroke="#666666" points="394,-30 215,-30 215,0 394,0 394,-30"/>
<text text-anchor="start" x="223" y="-18" font-family="Helvetica,sans-Serif" font-size="10.00">EonPlay::Data::DatabaseManager</text>
<text text-anchor="middle" x="304.5" y="-7" font-family="Helvetica,sans-Serif" font-size="10.00">::tableExists</text>
</a>
</g>
</g>
<!-- Node1&#45;&gt;Node5 -->
<g id="edge4_Node000001_Node000005" class="edge">
<title>Node1&#45;&gt;Node5</title>
<g id="a_edge4_Node000001_Node000005"><a xlink:title=" ">
<path fill="none" stroke="#63b8ff" d="M179.29,-29C187.74,-28.04 196.34,-27.07 204.88,-26.11"/>
<polygon fill="#63b8ff" stroke="#63b8ff" points="205.31,-29.59 214.86,-24.99 204.53,-22.63 205.31,-29.59"/>
</a>
</g>
</g>
<!-- Node3 -->
<g id="Node000003" class="node">
<title>Node3</title>
<g id="a_Node000003"><a xlink:href="../../da/db6/classEonPlay_1_1Data_1_1DatabaseManager.html#ac0359ba6c6e98287b9f482f900baf24c" target="_top" xlink:title=" ">
<polygon fill="white" stroke="#666666" points="609,-102 430,-102 430,-72 609,-72 609,-102"/>
<text text-anchor="start" x="438" y="-90" font-family="Helvetica,sans-Serif" font-size="10.00">EonPlay::Data::DatabaseManager</text>
<text text-anchor="middle" x="519.5" y="-79" font-family="Helvetica,sans-Serif" font-size="10.00">::executeQuery</text>
</a>
</g>
</g>
<!-- Node2&#45;&gt;Node3 -->
<g id="edge2_Node000002_Node000003" class="edge">
<title>Node2&#45;&gt;Node3</title>
<g id="a_edge2_Node000002_Node000003"><a xlink:title=" ">
<path fill="none" stroke="#63b8ff" d="M394.29,-73C402.74,-73.96 411.34,-74.93 419.88,-75.89"/>
<polygon fill="#63b8ff" stroke="#63b8ff" points="419.53,-79.37 429.86,-77.01 420.31,-72.41 419.53,-79.37"/>
</a>
</g>
</g>
<!-- Node4 -->
<g id="Node000004" class="node">
<title>Node4</title>
<g id="a_Node000004"><a xlink:href="../../da/db6/classEonPlay_1_1Data_1_1DatabaseManager.html#a54a9da5e9edd64a97e3cf3bc00957a9c" target="_top" xlink:title=" ">
<polygon fill="white" stroke="#666666" points="609,-54 430,-54 430,-24 609,-24 609,-54"/>
<text text-anchor="start" x="438" y="-42" font-family="Helvetica,sans-Serif" font-size="10.00">EonPlay::Data::DatabaseManager</text>
<text text-anchor="middle" x="519.5" y="-31" font-family="Helvetica,sans-Serif" font-size="10.00">::lastSqlError</text>
</a>
</g>
</g>
<!-- Node2&#45;&gt;Node4 -->
<g id="edge3_Node000002_Node000004" class="edge">
<title>Node2&#45;&gt;Node4</title>
<g id="a_edge3_Node000002_Node000004"><a xlink:title=" ">
<path fill="none" stroke="#63b8ff" d="M394.29,-53C402.74,-52.04 411.34,-51.07 419.88,-50.11"/>
<polygon fill="#63b8ff" stroke="#63b8ff" points="420.31,-53.59 429.86,-48.99 419.53,-46.63 420.31,-53.59"/>
</a>
</g>
</g>
</g>
</svg>
