<?xml version="1.0" encoding="UTF-8" standalone="no"?>
<!DOCTYPE svg PUBLIC "-//W3C//DTD SVG 1.1//EN"
 "http://www.w3.org/Graphics/SVG/1.1/DTD/svg11.dtd">
<!-- Generated by graphviz version 2.43.0 (0)
 -->
<!-- Title: include/data/Playlist.h Pages: 1 -->
<!--zoomable 192 -->

<svg id="main" version="1.1" xmlns="http://www.w3.org/2000/svg" xmlns:xlink="http://www.w3.org/1999/xlink" xml:space="preserve" onload="init(evt)">
<style type="text/css"><![CDATA[
.node, .edge {opacity: 0.7;}
.node.selected, .edge.selected {opacity: 1;}
.edge:hover path { stroke: red; }
.edge:hover polygon { stroke: red; fill: red; }
]]></style>

<defs>
  <circle id="rim" cx="0" cy="0" r="7"/>
  <circle id="rim2" cx="0" cy="0" r="3.5"/>
  <g id="zoomPlus">
    <use xlink:href="#rim" fill="#404040"><set attributeName="fill" to="#808080" begin="zoomplus.mouseover" end="zoomplus.mouseout"/></use>
    <path d="M-4,0h8M0,-4v8" fill="none" stroke="white" stroke-width="1.5" pointer-events="none"/>
  </g>
  <g id="zoomMin">
    <use xlink:href="#rim" fill="#404040"><set attributeName="fill" to="#808080" begin="zoomminus.mouseover" end="zoomminus.mouseout"/></use>
    <path d="M-4,0h8" fill="none" stroke="white" stroke-width="1.5" pointer-events="none"/>
  </g>
  <g id="arrowUp" transform="translate(30 24)">
    <use xlink:href="#rim"/>
    <path pointer-events="none" fill="none" stroke="white" stroke-width="1.5" d="M0,-3.0v7 M-2.5,-0.5L0,-3.0L2.5,-0.5"/>
  </g>
  <g id="arrowRight" transform="rotate(90) translate(36 -43)">
    <use xlink:href="#rim"/>
    <path pointer-events="none" fill="none" stroke="white" stroke-width="1.5" d="M0,-3.0v7 M-2.5,-0.5L0,-3.0L2.5,-0.5"/>
  </g>
  <g id="arrowDown" transform="rotate(180) translate(-30 -48)">
    <use xlink:href="#rim"/>
    <path pointer-events="none" fill="none" stroke="white" stroke-width="1.5" d="M0,-3.0v7 M-2.5,-0.5L0,-3.0L2.5,-0.5"/>
  </g>
  <g id="arrowLeft" transform="rotate(270) translate(-36 17)">
    <use xlink:href="#rim"/>
    <path pointer-events="none" fill="none" stroke="white" stroke-width="1.5" d="M0,-3.0v7 M-2.5,-0.5L0,-3.0L2.5,-0.5"/>
  </g>
  <g id="resetDef">
    <use xlink:href="#rim2" fill="#404040"><set attributeName="fill" to="#808080" begin="reset.mouseover" end="reset.mouseout"/></use>
  </g>
</defs>
<script type="application/ecmascript">
var viewWidth = 754;
var viewHeight = 192;
var sectionId = 'dynsection-1';
</script>
<script type="application/ecmascript" xlink:href="../../svg.min.js"/>
<svg id="graph" class="graph">
<g id="viewport">
<title>include/data/Playlist.h</title>
<!-- Node1 -->
<g id="Node000001" class="node">
<title>Node1</title>
<g id="a_Node000001"><a xlink:title=" ">
<polygon fill="#999999" stroke="#666666" points="639.39,-184 514.39,-184 514.39,-165 639.39,-165 639.39,-184"/>
<text text-anchor="middle" x="576.89" y="-172" font-family="Helvetica,sans-Serif" font-size="10.00">include/data/Playlist.h</text>
</a>
</g>
</g>
<!-- Node2 -->
<g id="Node000002" class="node">
<title>Node2</title>
<g id="a_Node000002"><a xlink:href="../../d4/d51/PlaylistManager_8h.html" target="_top" xlink:title=" ">
<polygon fill="white" stroke="#666666" points="446.39,-129 279.39,-129 279.39,-110 446.39,-110 446.39,-129"/>
<text text-anchor="middle" x="362.89" y="-117" font-family="Helvetica,sans-Serif" font-size="10.00">include/data/PlaylistManager.h</text>
</a>
</g>
</g>
<!-- Node1&#45;&gt;Node2 -->
<g id="edge1_Node000001_Node000002" class="edge">
<title>Node1&#45;&gt;Node2</title>
<g id="a_edge1_Node000001_Node000002"><a xlink:title=" ">
<path fill="none" stroke="#63b8ff" d="M532.73,-162.56C492.65,-152.64 434.35,-138.2 397.54,-129.08"/>
<polygon fill="#63b8ff" stroke="#63b8ff" points="531.96,-165.98 542.51,-164.98 533.64,-159.18 531.96,-165.98"/>
</a>
</g>
</g>
<!-- Node6 -->
<g id="Node000006" class="node">
<title>Node6</title>
<g id="a_Node000006"><a xlink:href="../../d4/d80/PlaylistWidget_8h.html" target="_top" xlink:title=" ">
<polygon fill="white" stroke="#666666" points="574.89,-74 428.89,-74 428.89,-55 574.89,-55 574.89,-74"/>
<text text-anchor="middle" x="501.89" y="-62" font-family="Helvetica,sans-Serif" font-size="10.00">include/ui/PlaylistWidget.h</text>
</a>
</g>
</g>
<!-- Node1&#45;&gt;Node6 -->
<g id="edge12_Node000001_Node000006" class="edge">
<title>Node1&#45;&gt;Node6</title>
<g id="a_edge12_Node000001_Node000006"><a xlink:title=" ">
<path fill="none" stroke="#63b8ff" d="M565,-156.38C548.77,-133.01 520.27,-91.97 507.9,-74.16"/>
<polygon fill="#63b8ff" stroke="#63b8ff" points="562.17,-158.44 570.75,-164.66 567.92,-154.45 562.17,-158.44"/>
</a>
</g>
</g>
<!-- Node7 -->
<g id="Node000007" class="node">
<title>Node7</title>
<g id="a_Node000007"><a xlink:href="../../df/d3c/PlaylistWidget_8cpp.html" target="_top" xlink:title=" ">
<polygon fill="white" stroke="#666666" points="576.39,-19 439.39,-19 439.39,0 576.39,0 576.39,-19"/>
<text text-anchor="middle" x="507.89" y="-7" font-family="Helvetica,sans-Serif" font-size="10.00">src/ui/PlaylistWidget.cpp</text>
</a>
</g>
</g>
<!-- Node1&#45;&gt;Node7 -->
<g id="edge14_Node000001_Node000007" class="edge">
<title>Node1&#45;&gt;Node7</title>
<g id="a_edge14_Node000001_Node000007"><a xlink:title=" ">
<path fill="none" stroke="#63b8ff" d="M583.8,-155.22C591.86,-130.66 601.93,-86.46 583.89,-55 573.7,-37.23 553.35,-25.87 536.28,-19.08"/>
<polygon fill="#63b8ff" stroke="#63b8ff" points="580.48,-154.13 580.46,-164.73 587.08,-156.46 580.48,-154.13"/>
</a>
</g>
</g>
<!-- Node9 -->
<g id="Node000009" class="node">
<title>Node9</title>
<g id="a_Node000009"><a xlink:href="../../d9/d53/Playlist_8cpp.html" target="_top" xlink:title=" ">
<polygon fill="white" stroke="#666666" points="746.39,-129 631.39,-129 631.39,-110 746.39,-110 746.39,-129"/>
<text text-anchor="middle" x="688.89" y="-117" font-family="Helvetica,sans-Serif" font-size="10.00">src/data/Playlist.cpp</text>
</a>
</g>
</g>
<!-- Node1&#45;&gt;Node9 -->
<g id="edge13_Node000001_Node000009" class="edge">
<title>Node1&#45;&gt;Node9</title>
<g id="a_edge13_Node000001_Node000009"><a xlink:title=" ">
<path fill="none" stroke="#63b8ff" d="M604.08,-160.63C624.71,-150.87 652.51,-137.71 670.57,-129.17"/>
<polygon fill="#63b8ff" stroke="#63b8ff" points="602.43,-157.54 594.88,-164.98 605.42,-163.87 602.43,-157.54"/>
</a>
</g>
</g>
<!-- Node3 -->
<g id="Node000003" class="node">
<title>Node3</title>
<g id="a_Node000003"><a xlink:href="../../dc/dbc/LibraryWidget_8h.html" target="_top" xlink:title=" ">
<polygon fill="white" stroke="#666666" points="334.89,-74 190.89,-74 190.89,-55 334.89,-55 334.89,-74"/>
<text text-anchor="middle" x="262.89" y="-62" font-family="Helvetica,sans-Serif" font-size="10.00">include/ui/LibraryWidget.h</text>
</a>
</g>
</g>
<!-- Node2&#45;&gt;Node3 -->
<g id="edge2_Node000002_Node000003" class="edge">
<title>Node2&#45;&gt;Node3</title>
<g id="a_edge2_Node000002_Node000003"><a xlink:title=" ">
<path fill="none" stroke="#63b8ff" d="M337.86,-105.23C319.52,-95.51 295.15,-82.6 279.25,-74.17"/>
<polygon fill="#63b8ff" stroke="#63b8ff" points="336.35,-108.39 346.82,-109.98 339.63,-102.21 336.35,-108.39"/>
</a>
</g>
</g>
<!-- Node4 -->
<g id="Node000004" class="node">
<title>Node4</title>
<g id="a_Node000004"><a xlink:href="../../d9/de2/LibraryWidget_8cpp.html" target="_top" xlink:title=" ">
<polygon fill="white" stroke="#666666" points="167.89,-19 33.89,-19 33.89,0 167.89,0 167.89,-19"/>
<text text-anchor="middle" x="100.89" y="-7" font-family="Helvetica,sans-Serif" font-size="10.00">src/ui/LibraryWidget.cpp</text>
</a>
</g>
</g>
<!-- Node2&#45;&gt;Node4 -->
<g id="edge9_Node000002_Node000004" class="edge">
<title>Node2&#45;&gt;Node4</title>
<g id="a_edge9_Node000002_Node000004"><a xlink:title=" ">
<path fill="none" stroke="#63b8ff" d="M268.86,-113.14C168.99,-106.45 23.1,-93.49 5.89,-74 -16.11,-49.09 31.35,-29.59 66.79,-19.09"/>
<polygon fill="#63b8ff" stroke="#63b8ff" points="268.77,-116.64 278.98,-113.8 269.23,-109.65 268.77,-116.64"/>
</a>
</g>
</g>
<!-- Node5 -->
<g id="Node000005" class="node">
<title>Node5</title>
<g id="a_Node000005"><a xlink:href="../../d3/db7/MainWindow_8cpp.html" target="_top" xlink:title=" ">
<polygon fill="white" stroke="#666666" points="420.89,-19 292.89,-19 292.89,0 420.89,0 420.89,-19"/>
<text text-anchor="middle" x="356.89" y="-7" font-family="Helvetica,sans-Serif" font-size="10.00">src/ui/MainWindow.cpp</text>
</a>
</g>
</g>
<!-- Node2&#45;&gt;Node5 -->
<g id="edge10_Node000002_Node000005" class="edge">
<title>Node2&#45;&gt;Node5</title>
<g id="a_edge10_Node000002_Node000005"><a xlink:title=" ">
<path fill="none" stroke="#63b8ff" d="M361.83,-99.48C360.52,-75.84 358.33,-36.5 357.37,-19.16"/>
<polygon fill="#63b8ff" stroke="#63b8ff" points="358.35,-99.87 362.4,-109.66 365.34,-99.48 358.35,-99.87"/>
</a>
</g>
</g>
<!-- Node2&#45;&gt;Node6 -->
<g id="edge5_Node000002_Node000006" class="edge">
<title>Node2&#45;&gt;Node6</title>
<g id="a_edge5_Node000002_Node000006"><a xlink:title=" ">
<path fill="none" stroke="#63b8ff" d="M394.57,-106.42C420.36,-96.59 456.13,-82.95 479.15,-74.17"/>
<polygon fill="#63b8ff" stroke="#63b8ff" points="393.32,-103.15 385.22,-109.98 395.81,-109.69 393.32,-103.15"/>
</a>
</g>
</g>
<!-- Node2&#45;&gt;Node7 -->
<g id="edge11_Node000002_Node000007" class="edge">
<title>Node2&#45;&gt;Node7</title>
<g id="a_edge11_Node000002_Node000007"><a xlink:title=" ">
<path fill="none" stroke="#63b8ff" d="M375.19,-101.61C385.87,-87.81 402.33,-68.45 419.89,-55 440.28,-39.38 466.98,-26.79 485.61,-19.04"/>
<polygon fill="#63b8ff" stroke="#63b8ff" points="372.28,-99.67 369.06,-109.76 377.87,-103.87 372.28,-99.67"/>
</a>
</g>
</g>
<!-- Node8 -->
<g id="Node000008" class="node">
<title>Node8</title>
<g id="a_Node000008"><a xlink:href="../../da/d2f/PlaylistManager_8cpp.html" target="_top" xlink:title=" ">
<polygon fill="white" stroke="#666666" points="172.39,-74 15.39,-74 15.39,-55 172.39,-55 172.39,-74"/>
<text text-anchor="middle" x="93.89" y="-62" font-family="Helvetica,sans-Serif" font-size="10.00">src/data/PlaylistManager.cpp</text>
</a>
</g>
</g>
<!-- Node2&#45;&gt;Node8 -->
<g id="edge8_Node000002_Node000008" class="edge">
<title>Node2&#45;&gt;Node8</title>
<g id="a_edge8_Node000002_Node000008"><a xlink:title=" ">
<path fill="none" stroke="#63b8ff" d="M309.61,-108C259.19,-98.07 184.41,-83.33 137.45,-74.08"/>
<polygon fill="#63b8ff" stroke="#63b8ff" points="309.18,-111.49 319.67,-109.98 310.54,-104.62 309.18,-111.49"/>
</a>
</g>
</g>
<!-- Node3&#45;&gt;Node4 -->
<g id="edge3_Node000003_Node000004" class="edge">
<title>Node3&#45;&gt;Node4</title>
<g id="a_edge3_Node000003_Node000004"><a xlink:title=" ">
<path fill="none" stroke="#63b8ff" d="M227.12,-51.8C196.89,-41.91 154.28,-27.97 127.12,-19.08"/>
<polygon fill="#63b8ff" stroke="#63b8ff" points="226.27,-55.2 236.86,-54.98 228.45,-48.55 226.27,-55.2"/>
</a>
</g>
</g>
<!-- Node3&#45;&gt;Node5 -->
<g id="edge4_Node000003_Node000005" class="edge">
<title>Node3&#45;&gt;Node5</title>
<g id="a_edge4_Node000003_Node000005"><a xlink:title=" ">
<path fill="none" stroke="#63b8ff" d="M286.89,-49.97C304.08,-40.28 326.7,-27.52 341.51,-19.17"/>
<polygon fill="#63b8ff" stroke="#63b8ff" points="284.98,-47.02 277.99,-54.98 288.42,-53.12 284.98,-47.02"/>
</a>
</g>
</g>
<!-- Node6&#45;&gt;Node5 -->
<g id="edge6_Node000006_Node000005" class="edge">
<title>Node6&#45;&gt;Node5</title>
<g id="a_edge6_Node000006_Node000005"><a xlink:title=" ">
<path fill="none" stroke="#63b8ff" d="M469.2,-51.55C442.27,-41.71 404.73,-27.98 380.61,-19.17"/>
<polygon fill="#63b8ff" stroke="#63b8ff" points="468,-54.84 478.59,-54.98 470.4,-48.26 468,-54.84"/>
</a>
</g>
</g>
<!-- Node6&#45;&gt;Node7 -->
<g id="edge7_Node000006_Node000007" class="edge">
<title>Node6&#45;&gt;Node7</title>
<g id="a_edge7_Node000006_Node000007"><a xlink:title=" ">
<path fill="none" stroke="#63b8ff" d="M504.02,-44.66C505.01,-35.93 506.14,-25.99 506.92,-19.09"/>
<polygon fill="#63b8ff" stroke="#63b8ff" points="500.53,-44.42 502.88,-54.75 507.48,-45.21 500.53,-44.42"/>
</a>
</g>
</g>
</g>
</svg>

<g id="navigator" transform="translate(0 0)" fill="#404254">
  <rect fill="#f2f5e9" fill-opacity="0.5" stroke="#606060" stroke-width=".5" x="0" y="0" width="60" height="60"/>
  <use id="zoomplus" xlink:href="#zoomPlus" x="17" y="9" onmousedown="handleZoom(evt,'in')"/>
  <use id="zoomminus" xlink:href="#zoomMin" x="42" y="9" onmousedown="handleZoom(evt,'out')"/>
  <use id="reset" xlink:href="#resetDef" x="30" y="36" onmousedown="handleReset()"/>
   <use id="arrowup" xlink:href="#arrowUp" x="0" y="0" onmousedown="handlePan(0,-1)"/>
  <use id="arrowright" xlink:href="#arrowRight" x="0" y="0" onmousedown="handlePan(1,0)"/>
  <use id="arrowdown" xlink:href="#arrowDown" x="0" y="0" onmousedown="handlePan(0,1)"/>
  <use id="arrowleft" xlink:href="#arrowLeft" x="0" y="0" onmousedown="handlePan(-1,0)"/>
</g>
<svg viewBox="0 0 15 15" width="100%" height="30px" preserveAspectRatio="xMaxYMin meet">
 <g id="arrow_out" transform="scale(0.3 0.3)">
  <a xlink:href="Playlist_8h__dep__incl_org.svg" target="_base">
   <rect id="button" ry="5" rx="5" y="6" x="6" height="38" width="38"
        fill="#f2f5e9" fill-opacity="0.5" stroke="#606060" stroke-width="1.0"/>
   <path id="arrow"
     d="M 11.500037,31.436501 C 11.940474,20.09759 22.043105,11.32322 32.158766,21.979434 L 37.068811,17.246167 C 37.068811,17.246167 37.088388,32 37.088388,32 L 22.160133,31.978069 C 22.160133,31.978069 26.997745,27.140456 26.997745,27.140456 C 18.528582,18.264221 13.291696,25.230495 11.500037,31.436501 z"
     style="fill:#404040;"/>
  </a>
 </g>
</svg>

<style type='text/css'>
<![CDATA[
[data-mouse-over-selected='false'] { opacity: 0.7; }
[data-mouse-over-selected='true']  { opacity: 1.0; }
]]>
</style>
<script type="application/ecmascript"><![CDATA[
document.addEventListener('DOMContentLoaded', (event) => {
  highlightEdges();
  highlightAdjacentNodes();
});
]]></script>
</svg>
