<?xml version="1.0" encoding="UTF-8" standalone="no"?>
<!DOCTYPE svg PUBLIC "-//W3C//DTD SVG 1.1//EN"
 "http://www.w3.org/Graphics/SVG/1.1/DTD/svg11.dtd">
<!-- Generated by graphviz version 2.43.0 (0)
 -->
<!-- Title: EonPlay::Data::PlaylistManager::cleanupOrphanedEntries Pages: 1 -->
<svg width="607pt" height="108pt"
 viewBox="0.00 0.00 607.00 108.00" xmlns="http://www.w3.org/2000/svg" xmlns:xlink="http://www.w3.org/1999/xlink">
<g id="graph0" class="graph" transform="scale(1 1) rotate(0) translate(4 104)">
<title>EonPlay::Data::PlaylistManager::cleanupOrphanedEntries</title>
<!-- Node1 -->
<g id="Node000001" class="node">
<title>Node1</title>
<g id="a_Node000001"><a xlink:title=" ">
<polygon fill="#999999" stroke="#666666" points="169,-52 0,-52 0,-22 169,-22 169,-52"/>
<text text-anchor="start" x="8" y="-40" font-family="Helvetica,sans-Serif" font-size="10.00">EonPlay::Data::PlaylistManager</text>
<text text-anchor="middle" x="84.5" y="-29" font-family="Helvetica,sans-Serif" font-size="10.00">::cleanupOrphanedEntries</text>
</a>
</g>
</g>
<!-- Node2 -->
<g id="Node000002" class="node">
<title>Node2</title>
<g id="a_Node000002"><a xlink:href="../../da/db6/classEonPlay_1_1Data_1_1DatabaseManager.html#a018a99d723f088affc66970480e7c662" target="_top" xlink:title=" ">
<polygon fill="white" stroke="#666666" points="384,-100 205,-100 205,-70 384,-70 384,-100"/>
<text text-anchor="start" x="213" y="-88" font-family="Helvetica,sans-Serif" font-size="10.00">EonPlay::Data::DatabaseManager</text>
<text text-anchor="middle" x="294.5" y="-77" font-family="Helvetica,sans-Serif" font-size="10.00">::cleanupOrphanedRecords</text>
</a>
</g>
</g>
<!-- Node1&#45;&gt;Node2 -->
<g id="edge1_Node000001_Node000002" class="edge">
<title>Node1&#45;&gt;Node2</title>
<g id="a_edge1_Node000001_Node000002"><a xlink:title=" ">
<path fill="none" stroke="#63b8ff" d="M150.74,-52.06C172.23,-57.01 196.3,-62.57 218.46,-67.68"/>
<polygon fill="#63b8ff" stroke="#63b8ff" points="217.96,-71.16 228.49,-70 219.53,-64.34 217.96,-71.16"/>
</a>
</g>
</g>
<!-- Node3 -->
<g id="Node000003" class="node">
<title>Node3</title>
<g id="a_Node000003"><a xlink:href="../../dd/d67/classEonPlay_1_1Data_1_1PlaylistManager.html#a58562e43f127209d9c1e61829f8fdd3e" target="_top" xlink:title=" ">
<polygon fill="white" stroke="#666666" points="379,-52 210,-52 210,-22 379,-22 379,-52"/>
<text text-anchor="start" x="218" y="-40" font-family="Helvetica,sans-Serif" font-size="10.00">EonPlay::Data::PlaylistManager</text>
<text text-anchor="middle" x="294.5" y="-29" font-family="Helvetica,sans-Serif" font-size="10.00">::clearPlaybackHistoryBefore</text>
</a>
</g>
</g>
<!-- Node1&#45;&gt;Node3 -->
<g id="edge2_Node000001_Node000003" class="edge">
<title>Node1&#45;&gt;Node3</title>
<g id="a_edge2_Node000001_Node000003"><a xlink:title=" ">
<path fill="none" stroke="#63b8ff" d="M169.2,-37C179.28,-37 189.62,-37 199.82,-37"/>
<polygon fill="#63b8ff" stroke="#63b8ff" points="199.97,-40.5 209.97,-37 199.97,-33.5 199.97,-40.5"/>
</a>
</g>
</g>
<!-- Node4 -->
<g id="Node000004" class="node">
<title>Node4</title>
<g id="a_Node000004"><a xlink:href="../../da/db6/classEonPlay_1_1Data_1_1DatabaseManager.html#a17c3a9ed1ea5a58d450bd7311bddb41c" target="_top" xlink:title=" ">
<polygon fill="white" stroke="#666666" points="599,-30 420,-30 420,0 599,0 599,-30"/>
<text text-anchor="start" x="428" y="-18" font-family="Helvetica,sans-Serif" font-size="10.00">EonPlay::Data::DatabaseManager</text>
<text text-anchor="middle" x="509.5" y="-7" font-family="Helvetica,sans-Serif" font-size="10.00">::prepareQuery</text>
</a>
</g>
</g>
<!-- Node1&#45;&gt;Node4 -->
<g id="edge4_Node000001_Node000004" class="edge">
<title>Node1&#45;&gt;Node4</title>
<g id="a_edge4_Node000001_Node000004"><a xlink:title=" ">
<path fill="none" stroke="#63b8ff" d="M148.41,-21.94C166.56,-18.25 186.47,-14.84 205,-13 273.15,-6.22 350.34,-6.84 409.82,-9.1"/>
<polygon fill="#63b8ff" stroke="#63b8ff" points="409.82,-12.6 419.96,-9.5 410.1,-5.61 409.82,-12.6"/>
</a>
</g>
</g>
<!-- Node3&#45;&gt;Node4 -->
<g id="edge3_Node000003_Node000004" class="edge">
<title>Node3&#45;&gt;Node4</title>
<g id="a_edge3_Node000003_Node000004"><a xlink:title=" ">
<path fill="none" stroke="#63b8ff" d="M379.07,-28.37C389.12,-27.33 399.46,-26.26 409.71,-25.2"/>
<polygon fill="#63b8ff" stroke="#63b8ff" points="410.32,-28.66 419.9,-24.15 409.6,-21.7 410.32,-28.66"/>
</a>
</g>
</g>
</g>
</svg>
