<?xml version="1.0" encoding="UTF-8" standalone="no"?>
<!DOCTYPE svg PUBLIC "-//W3C//DTD SVG 1.1//EN"
 "http://www.w3.org/Graphics/SVG/1.1/DTD/svg11.dtd">
<!-- Generated by graphviz version 2.43.0 (0)
 -->
<!-- Title: EonPlay::Data::PlaylistManager::getMostUsedPlaylists Pages: 1 -->
<svg width="774pt" height="278pt"
 viewBox="0.00 0.00 774.00 278.00" xmlns="http://www.w3.org/2000/svg" xmlns:xlink="http://www.w3.org/1999/xlink">
<g id="graph0" class="graph" transform="scale(1 1) rotate(0) translate(4 274)">
<title>EonPlay::Data::PlaylistManager::getMostUsedPlaylists</title>
<!-- Node1 -->
<g id="Node000001" class="node">
<title>Node1</title>
<g id="a_Node000001"><a xlink:title=" ">
<polygon fill="#999999" stroke="#666666" points="169,-174 0,-174 0,-144 169,-144 169,-174"/>
<text text-anchor="start" x="8" y="-162" font-family="Helvetica,sans-Serif" font-size="10.00">EonPlay::Data::PlaylistManager</text>
<text text-anchor="middle" x="84.5" y="-151" font-family="Helvetica,sans-Serif" font-size="10.00">::getMostUsedPlaylists</text>
</a>
</g>
</g>
<!-- Node2 -->
<g id="Node000002" class="node">
<title>Node2</title>
<g id="a_Node000002"><a xlink:href="../../dd/d67/classEonPlay_1_1Data_1_1PlaylistManager.html#af9c4ed10cbfac3d5b99821f6e081227c" target="_top" xlink:title=" ">
<polygon fill="white" stroke="#666666" points="374,-174 205,-174 205,-144 374,-144 374,-174"/>
<text text-anchor="start" x="213" y="-162" font-family="Helvetica,sans-Serif" font-size="10.00">EonPlay::Data::PlaylistManager</text>
<text text-anchor="middle" x="289.5" y="-151" font-family="Helvetica,sans-Serif" font-size="10.00">::getAllPlaylists</text>
</a>
</g>
</g>
<!-- Node1&#45;&gt;Node2 -->
<g id="edge1_Node000001_Node000002" class="edge">
<title>Node1&#45;&gt;Node2</title>
<g id="a_edge1_Node000001_Node000002"><a xlink:title=" ">
<path fill="none" stroke="#63b8ff" d="M169.24,-159C177.72,-159 186.37,-159 194.94,-159"/>
<polygon fill="#63b8ff" stroke="#63b8ff" points="194.95,-162.5 204.95,-159 194.95,-155.5 194.95,-162.5"/>
</a>
</g>
</g>
<!-- Node3 -->
<g id="Node000003" class="node">
<title>Node3</title>
<g id="a_Node000003"><a xlink:href="../../da/db6/classEonPlay_1_1Data_1_1DatabaseManager.html#a19e76ae0679a670337426be5fa7ef0eb" target="_top" xlink:title=" ">
<polygon fill="white" stroke="#666666" points="589,-270 410,-270 410,-240 589,-240 589,-270"/>
<text text-anchor="start" x="418" y="-258" font-family="Helvetica,sans-Serif" font-size="10.00">EonPlay::Data::DatabaseManager</text>
<text text-anchor="middle" x="499.5" y="-247" font-family="Helvetica,sans-Serif" font-size="10.00">::getAllPlaylists</text>
</a>
</g>
</g>
<!-- Node2&#45;&gt;Node3 -->
<g id="edge2_Node000002_Node000003" class="edge">
<title>Node2&#45;&gt;Node3</title>
<g id="a_edge2_Node000002_Node000003"><a xlink:title=" ">
<path fill="none" stroke="#63b8ff" d="M311.55,-174.17C334.7,-190.24 373.47,-215.4 410,-231 414.73,-233.02 419.67,-234.91 424.7,-236.67"/>
<polygon fill="#63b8ff" stroke="#63b8ff" points="423.85,-240.08 434.45,-239.91 426.06,-233.44 423.85,-240.08"/>
</a>
</g>
</g>
<!-- Node4 -->
<g id="Node000004" class="node">
<title>Node4</title>
<g id="a_Node000004"><a xlink:href="../../d0/d00/classEonPlay_1_1Data_1_1Playlist.html#a5edbf188d21c2313025cea0c2156f427" target="_top" xlink:title=" ">
<polygon fill="white" stroke="#666666" points="562.5,-222 436.5,-222 436.5,-192 562.5,-192 562.5,-222"/>
<text text-anchor="start" x="444.5" y="-210" font-family="Helvetica,sans-Serif" font-size="10.00">EonPlay::Data::Playlist</text>
<text text-anchor="middle" x="499.5" y="-199" font-family="Helvetica,sans-Serif" font-size="10.00">::setCreatedDate</text>
</a>
</g>
</g>
<!-- Node2&#45;&gt;Node4 -->
<g id="edge3_Node000002_Node000004" class="edge">
<title>Node2&#45;&gt;Node4</title>
<g id="a_edge3_Node000002_Node000004"><a xlink:title=" ">
<path fill="none" stroke="#63b8ff" d="M355.74,-174.06C378.16,-179.23 403.38,-185.05 426.32,-190.34"/>
<polygon fill="#63b8ff" stroke="#63b8ff" points="425.8,-193.81 436.33,-192.65 427.37,-186.99 425.8,-193.81"/>
</a>
</g>
</g>
<!-- Node6 -->
<g id="Node000006" class="node">
<title>Node6</title>
<g id="a_Node000006"><a xlink:href="../../d0/d00/classEonPlay_1_1Data_1_1Playlist.html#aec66cac1a1318ff2c9a97aa39f6b6435" target="_top" xlink:title=" ">
<polygon fill="white" stroke="#666666" points="562.5,-174 436.5,-174 436.5,-144 562.5,-144 562.5,-174"/>
<text text-anchor="start" x="444.5" y="-162" font-family="Helvetica,sans-Serif" font-size="10.00">EonPlay::Data::Playlist</text>
<text text-anchor="middle" x="499.5" y="-151" font-family="Helvetica,sans-Serif" font-size="10.00">::setId</text>
</a>
</g>
</g>
<!-- Node2&#45;&gt;Node6 -->
<g id="edge5_Node000002_Node000006" class="edge">
<title>Node2&#45;&gt;Node6</title>
<g id="a_edge5_Node000002_Node000006"><a xlink:title=" ">
<path fill="none" stroke="#63b8ff" d="M374.2,-159C391.4,-159 409.38,-159 426.14,-159"/>
<polygon fill="#63b8ff" stroke="#63b8ff" points="426.4,-162.5 436.4,-159 426.4,-155.5 426.4,-162.5"/>
</a>
</g>
</g>
<!-- Node8 -->
<g id="Node000008" class="node">
<title>Node8</title>
<g id="a_Node000008"><a xlink:href="../../d0/d00/classEonPlay_1_1Data_1_1Playlist.html#ab68a9eced8c476574c74f635d882db4e" target="_top" xlink:title=" ">
<polygon fill="white" stroke="#666666" points="562.5,-126 436.5,-126 436.5,-96 562.5,-96 562.5,-126"/>
<text text-anchor="start" x="444.5" y="-114" font-family="Helvetica,sans-Serif" font-size="10.00">EonPlay::Data::Playlist</text>
<text text-anchor="middle" x="499.5" y="-103" font-family="Helvetica,sans-Serif" font-size="10.00">::setModifiedDate</text>
</a>
</g>
</g>
<!-- Node2&#45;&gt;Node8 -->
<g id="edge7_Node000002_Node000008" class="edge">
<title>Node2&#45;&gt;Node8</title>
<g id="a_edge7_Node000002_Node000008"><a xlink:title=" ">
<path fill="none" stroke="#63b8ff" d="M355.74,-143.94C378.16,-138.77 403.38,-132.95 426.32,-127.66"/>
<polygon fill="#63b8ff" stroke="#63b8ff" points="427.37,-131.01 436.33,-125.35 425.8,-124.19 427.37,-131.01"/>
</a>
</g>
</g>
<!-- Node10 -->
<g id="Node000010" class="node">
<title>Node10</title>
<g id="a_Node000010"><a xlink:href="../../d0/d00/classEonPlay_1_1Data_1_1Playlist.html#a76aa332e013b6b966c81429014fed11d" target="_top" xlink:title=" ">
<polygon fill="white" stroke="#666666" points="562.5,-78 436.5,-78 436.5,-48 562.5,-48 562.5,-78"/>
<text text-anchor="start" x="444.5" y="-66" font-family="Helvetica,sans-Serif" font-size="10.00">EonPlay::Data::Playlist</text>
<text text-anchor="middle" x="499.5" y="-55" font-family="Helvetica,sans-Serif" font-size="10.00">::setName</text>
</a>
</g>
</g>
<!-- Node2&#45;&gt;Node10 -->
<g id="edge9_Node000002_Node000010" class="edge">
<title>Node2&#45;&gt;Node10</title>
<g id="a_edge9_Node000002_Node000010"><a xlink:title=" ">
<path fill="none" stroke="#63b8ff" d="M311.55,-143.83C334.7,-127.76 373.47,-102.6 410,-87 415.35,-84.72 420.97,-82.6 426.68,-80.64"/>
<polygon fill="#63b8ff" stroke="#63b8ff" points="427.91,-83.92 436.34,-77.5 425.74,-77.26 427.91,-83.92"/>
</a>
</g>
</g>
<!-- Node5 -->
<g id="Node000005" class="node">
<title>Node5</title>
<g id="a_Node000005"><a xlink:href="../../d0/d00/classEonPlay_1_1Data_1_1Playlist.html#a7d52d928a0127129a984c30b7d8e49da" target="_top" xlink:title=" ">
<polygon fill="white" stroke="#666666" points="758.5,-222 632.5,-222 632.5,-192 758.5,-192 758.5,-222"/>
<text text-anchor="start" x="640.5" y="-210" font-family="Helvetica,sans-Serif" font-size="10.00">EonPlay::Data::Playlist</text>
<text text-anchor="middle" x="695.5" y="-199" font-family="Helvetica,sans-Serif" font-size="10.00">::createdDate</text>
</a>
</g>
</g>
<!-- Node4&#45;&gt;Node5 -->
<g id="edge4_Node000004_Node000005" class="edge">
<title>Node4&#45;&gt;Node5</title>
<g id="a_edge4_Node000004_Node000005"><a xlink:title=" ">
<path fill="none" stroke="#63b8ff" d="M562.68,-207C581.65,-207 602.67,-207 622.25,-207"/>
<polygon fill="#63b8ff" stroke="#63b8ff" points="622.34,-210.5 632.34,-207 622.34,-203.5 622.34,-210.5"/>
</a>
</g>
</g>
<!-- Node7 -->
<g id="Node000007" class="node">
<title>Node7</title>
<g id="a_Node000007"><a xlink:href="../../d0/d00/classEonPlay_1_1Data_1_1Playlist.html#af20a19bc6353cd76bf16b527eef43cd4" target="_top" xlink:title=" ">
<polygon fill="white" stroke="#666666" points="766,-168.5 625,-168.5 625,-149.5 766,-149.5 766,-168.5"/>
<text text-anchor="middle" x="695.5" y="-156.5" font-family="Helvetica,sans-Serif" font-size="10.00">EonPlay::Data::Playlist::id</text>
</a>
</g>
</g>
<!-- Node6&#45;&gt;Node7 -->
<g id="edge6_Node000006_Node000007" class="edge">
<title>Node6&#45;&gt;Node7</title>
<g id="a_edge6_Node000006_Node000007"><a xlink:title=" ">
<path fill="none" stroke="#63b8ff" d="M562.68,-159C579.27,-159 597.42,-159 614.8,-159"/>
<polygon fill="#63b8ff" stroke="#63b8ff" points="614.93,-162.5 624.93,-159 614.93,-155.5 614.93,-162.5"/>
</a>
</g>
</g>
<!-- Node9 -->
<g id="Node000009" class="node">
<title>Node9</title>
<g id="a_Node000009"><a xlink:href="../../d0/d00/classEonPlay_1_1Data_1_1Playlist.html#a2b74d3ac822324d572499f680b59dc09" target="_top" xlink:title=" ">
<polygon fill="white" stroke="#666666" points="758.5,-126 632.5,-126 632.5,-96 758.5,-96 758.5,-126"/>
<text text-anchor="start" x="640.5" y="-114" font-family="Helvetica,sans-Serif" font-size="10.00">EonPlay::Data::Playlist</text>
<text text-anchor="middle" x="695.5" y="-103" font-family="Helvetica,sans-Serif" font-size="10.00">::modifiedDate</text>
</a>
</g>
</g>
<!-- Node8&#45;&gt;Node9 -->
<g id="edge8_Node000008_Node000009" class="edge">
<title>Node8&#45;&gt;Node9</title>
<g id="a_edge8_Node000008_Node000009"><a xlink:title=" ">
<path fill="none" stroke="#63b8ff" d="M562.68,-111C581.65,-111 602.67,-111 622.25,-111"/>
<polygon fill="#63b8ff" stroke="#63b8ff" points="622.34,-114.5 632.34,-111 622.34,-107.5 622.34,-114.5"/>
</a>
</g>
</g>
<!-- Node11 -->
<g id="Node000011" class="node">
<title>Node11</title>
<g id="a_Node000011"><a xlink:href="../../d0/d00/classEonPlay_1_1Data_1_1Playlist.html#a3ec3853b1f913ad37d6f04e63ea2355b" target="_top" xlink:title=" ">
<polygon fill="white" stroke="#666666" points="758.5,-78 632.5,-78 632.5,-48 758.5,-48 758.5,-78"/>
<text text-anchor="start" x="640.5" y="-66" font-family="Helvetica,sans-Serif" font-size="10.00">EonPlay::Data::Playlist</text>
<text text-anchor="middle" x="695.5" y="-55" font-family="Helvetica,sans-Serif" font-size="10.00">::name</text>
</a>
</g>
</g>
<!-- Node10&#45;&gt;Node11 -->
<g id="edge10_Node000010_Node000011" class="edge">
<title>Node10&#45;&gt;Node11</title>
<g id="a_edge10_Node000010_Node000011"><a xlink:title=" ">
<path fill="none" stroke="#63b8ff" d="M562.68,-63C581.65,-63 602.67,-63 622.25,-63"/>
<polygon fill="#63b8ff" stroke="#63b8ff" points="622.34,-66.5 632.34,-63 622.34,-59.5 622.34,-66.5"/>
</a>
</g>
</g>
<!-- Node12 -->
<g id="Node000012" class="node">
<title>Node12</title>
<g id="a_Node000012"><a xlink:href="../../d0/d00/classEonPlay_1_1Data_1_1Playlist.html#aba2637fbf1f9943a80a9c72d7e9df447" target="_top" xlink:title=" ">
<polygon fill="white" stroke="#666666" points="758.5,-30 632.5,-30 632.5,0 758.5,0 758.5,-30"/>
<text text-anchor="start" x="640.5" y="-18" font-family="Helvetica,sans-Serif" font-size="10.00">EonPlay::Data::Playlist</text>
<text text-anchor="middle" x="695.5" y="-7" font-family="Helvetica,sans-Serif" font-size="10.00">::nameChanged</text>
</a>
</g>
</g>
<!-- Node10&#45;&gt;Node12 -->
<g id="edge11_Node000010_Node000012" class="edge">
<title>Node10&#45;&gt;Node12</title>
<g id="a_edge11_Node000010_Node000012"><a xlink:title=" ">
<path fill="none" stroke="#63b8ff" d="M561.35,-47.94C581.21,-43.03 603.44,-37.53 623.95,-32.46"/>
<polygon fill="#63b8ff" stroke="#63b8ff" points="625,-35.8 633.87,-30 623.32,-29.01 625,-35.8"/>
</a>
</g>
</g>
</g>
</svg>
