<?xml version="1.0" encoding="UTF-8" standalone="no"?>
<!DOCTYPE svg PUBLIC "-//W3C//DTD SVG 1.1//EN"
 "http://www.w3.org/Graphics/SVG/1.1/DTD/svg11.dtd">
<!-- Generated by graphviz version 2.43.0 (0)
 -->
<!-- Title: EonPlay::Data::PlaylistManager::createSmartPlaylist Pages: 1 -->
<svg width="1215pt" height="398pt"
 viewBox="0.00 0.00 1215.00 398.00" xmlns="http://www.w3.org/2000/svg" xmlns:xlink="http://www.w3.org/1999/xlink">
<g id="graph0" class="graph" transform="scale(1 1) rotate(0) translate(4 394)">
<title>EonPlay::Data::PlaylistManager::createSmartPlaylist</title>
<!-- Node1 -->
<g id="Node000001" class="node">
<title>Node1</title>
<g id="a_Node000001"><a xlink:title=" ">
<polygon fill="#999999" stroke="#666666" points="169,-126 0,-126 0,-96 169,-96 169,-126"/>
<text text-anchor="start" x="8" y="-114" font-family="Helvetica,sans-Serif" font-size="10.00">EonPlay::Data::PlaylistManager</text>
<text text-anchor="middle" x="84.5" y="-103" font-family="Helvetica,sans-Serif" font-size="10.00">::createSmartPlaylist</text>
</a>
</g>
</g>
<!-- Node2 -->
<g id="Node000002" class="node">
<title>Node2</title>
<g id="a_Node000002"><a xlink:href="../../dd/d67/classEonPlay_1_1Data_1_1PlaylistManager.html#a6ea316aa7cda0a3e50440cd387ac0611" target="_top" xlink:title=" ">
<polygon fill="white" stroke="#666666" points="374,-294 205,-294 205,-264 374,-264 374,-294"/>
<text text-anchor="start" x="213" y="-282" font-family="Helvetica,sans-Serif" font-size="10.00">EonPlay::Data::PlaylistManager</text>
<text text-anchor="middle" x="289.5" y="-271" font-family="Helvetica,sans-Serif" font-size="10.00">::createPlaylist</text>
</a>
</g>
</g>
<!-- Node1&#45;&gt;Node2 -->
<g id="edge1_Node000001_Node000002" class="edge">
<title>Node1&#45;&gt;Node2</title>
<g id="a_edge1_Node000001_Node000002"><a xlink:title=" ">
<path fill="none" stroke="#63b8ff" d="M103.87,-126.21C140.11,-156.19 220.86,-223.03 262.53,-257.51"/>
<polygon fill="#63b8ff" stroke="#63b8ff" points="260.38,-260.27 270.31,-263.95 264.84,-254.88 260.38,-260.27"/>
</a>
</g>
</g>
<!-- Node9 -->
<g id="Node000009" class="node">
<title>Node9</title>
<g id="a_Node000009"><a xlink:href="../../dd/d67/classEonPlay_1_1Data_1_1PlaylistManager.html#a392bcbcf74115b20a5c0fe5bda8ed1f1" target="_top" xlink:title=" ">
<polygon fill="white" stroke="#666666" points="374,-150 205,-150 205,-120 374,-120 374,-150"/>
<text text-anchor="start" x="213" y="-138" font-family="Helvetica,sans-Serif" font-size="10.00">EonPlay::Data::PlaylistManager</text>
<text text-anchor="middle" x="289.5" y="-127" font-family="Helvetica,sans-Serif" font-size="10.00">::deletePlaylist</text>
</a>
</g>
</g>
<!-- Node1&#45;&gt;Node9 -->
<g id="edge8_Node000001_Node000009" class="edge">
<title>Node1&#45;&gt;Node9</title>
<g id="a_edge8_Node000001_Node000009"><a xlink:title=" ">
<path fill="none" stroke="#63b8ff" d="M169.24,-120.9C177.72,-121.9 186.37,-122.93 194.94,-123.94"/>
<polygon fill="#63b8ff" stroke="#63b8ff" points="194.61,-127.42 204.95,-125.12 195.43,-120.47 194.61,-127.42"/>
</a>
</g>
</g>
<!-- Node29 -->
<g id="Node000029" class="node">
<title>Node29</title>
<g id="a_Node000029"><a xlink:href="../../dd/d67/classEonPlay_1_1Data_1_1PlaylistManager.html#ab6c41b8d197633476e003db7204a5040" target="_top" xlink:title=" ">
<polygon fill="white" stroke="#666666" points="374,-102 205,-102 205,-72 374,-72 374,-102"/>
<text text-anchor="start" x="213" y="-90" font-family="Helvetica,sans-Serif" font-size="10.00">EonPlay::Data::PlaylistManager</text>
<text text-anchor="middle" x="289.5" y="-79" font-family="Helvetica,sans-Serif" font-size="10.00">::smartPlaylistCreated</text>
</a>
</g>
</g>
<!-- Node1&#45;&gt;Node29 -->
<g id="edge28_Node000001_Node000029" class="edge">
<title>Node1&#45;&gt;Node29</title>
<g id="a_edge28_Node000001_Node000029"><a xlink:title=" ">
<path fill="none" stroke="#63b8ff" d="M169.24,-101.1C177.72,-100.1 186.37,-99.07 194.94,-98.06"/>
<polygon fill="#63b8ff" stroke="#63b8ff" points="195.43,-101.53 204.95,-96.88 194.61,-94.58 195.43,-101.53"/>
</a>
</g>
</g>
<!-- Node30 -->
<g id="Node000030" class="node">
<title>Node30</title>
<g id="a_Node000030"><a xlink:href="../../dd/d67/classEonPlay_1_1Data_1_1PlaylistManager.html#a6f019d4c42327e6ab08886889aa3c614" target="_top" xlink:title=" ">
<polygon fill="white" stroke="#666666" points="374,-54 205,-54 205,-24 374,-24 374,-54"/>
<text text-anchor="start" x="213" y="-42" font-family="Helvetica,sans-Serif" font-size="10.00">EonPlay::Data::PlaylistManager</text>
<text text-anchor="middle" x="289.5" y="-31" font-family="Helvetica,sans-Serif" font-size="10.00">::updateSmartPlaylist</text>
</a>
</g>
</g>
<!-- Node1&#45;&gt;Node30 -->
<g id="edge29_Node000001_Node000030" class="edge">
<title>Node1&#45;&gt;Node30</title>
<g id="a_edge29_Node000001_Node000030"><a xlink:title=" ">
<path fill="none" stroke="#63b8ff" d="M120.18,-95.98C143.84,-86 176.03,-72.95 205,-63 210.9,-60.97 217.07,-58.98 223.27,-57.05"/>
<polygon fill="#63b8ff" stroke="#63b8ff" points="224.46,-60.35 233.01,-54.09 222.42,-53.65 224.46,-60.35"/>
</a>
</g>
</g>
<!-- Node3 -->
<g id="Node000003" class="node">
<title>Node3</title>
<g id="a_Node000003"><a xlink:href="../../da/db6/classEonPlay_1_1Data_1_1DatabaseManager.html#adf772dde7757e0cbca6f48dd143d884c" target="_top" xlink:title=" ">
<polygon fill="white" stroke="#666666" points="589,-390 410,-390 410,-360 589,-360 589,-390"/>
<text text-anchor="start" x="418" y="-378" font-family="Helvetica,sans-Serif" font-size="10.00">EonPlay::Data::DatabaseManager</text>
<text text-anchor="middle" x="499.5" y="-367" font-family="Helvetica,sans-Serif" font-size="10.00">::createPlaylist</text>
</a>
</g>
</g>
<!-- Node2&#45;&gt;Node3 -->
<g id="edge2_Node000002_Node000003" class="edge">
<title>Node2&#45;&gt;Node3</title>
<g id="a_edge2_Node000002_Node000003"><a xlink:title=" ">
<path fill="none" stroke="#63b8ff" d="M311.55,-294.17C334.7,-310.24 373.47,-335.4 410,-351 414.73,-353.02 419.67,-354.91 424.7,-356.67"/>
<polygon fill="#63b8ff" stroke="#63b8ff" points="423.85,-360.08 434.45,-359.91 426.06,-353.44 423.85,-360.08"/>
</a>
</g>
</g>
<!-- Node4 -->
<g id="Node000004" class="node">
<title>Node4</title>
<g id="a_Node000004"><a xlink:href="../../dd/d67/classEonPlay_1_1Data_1_1PlaylistManager.html#af5135071e4e804103ffe19380d180b4c" target="_top" xlink:title=" ">
<polygon fill="white" stroke="#666666" points="584,-342 415,-342 415,-312 584,-312 584,-342"/>
<text text-anchor="start" x="423" y="-330" font-family="Helvetica,sans-Serif" font-size="10.00">EonPlay::Data::PlaylistManager</text>
<text text-anchor="middle" x="499.5" y="-319" font-family="Helvetica,sans-Serif" font-size="10.00">::playlistCreated</text>
</a>
</g>
</g>
<!-- Node2&#45;&gt;Node4 -->
<g id="edge3_Node000002_Node000004" class="edge">
<title>Node2&#45;&gt;Node4</title>
<g id="a_edge3_Node000002_Node000004"><a xlink:title=" ">
<path fill="none" stroke="#63b8ff" d="M355.74,-294.06C377.23,-299.01 401.3,-304.57 423.46,-309.68"/>
<polygon fill="#63b8ff" stroke="#63b8ff" points="422.96,-313.16 433.49,-312 424.53,-306.34 422.96,-313.16"/>
</a>
</g>
</g>
<!-- Node5 -->
<g id="Node000005" class="node">
<title>Node5</title>
<g id="a_Node000005"><a xlink:href="../../dd/d67/classEonPlay_1_1Data_1_1PlaylistManager.html#a32534c487aada559671318e478903d5d" target="_top" xlink:title=" ">
<polygon fill="white" stroke="#666666" points="584,-294 415,-294 415,-264 584,-264 584,-294"/>
<text text-anchor="start" x="423" y="-282" font-family="Helvetica,sans-Serif" font-size="10.00">EonPlay::Data::PlaylistManager</text>
<text text-anchor="middle" x="499.5" y="-271" font-family="Helvetica,sans-Serif" font-size="10.00">::playlistExists</text>
</a>
</g>
</g>
<!-- Node2&#45;&gt;Node5 -->
<g id="edge4_Node000002_Node000005" class="edge">
<title>Node2&#45;&gt;Node5</title>
<g id="a_edge4_Node000002_Node000005"><a xlink:title=" ">
<path fill="none" stroke="#63b8ff" d="M374.2,-279C384.28,-279 394.62,-279 404.82,-279"/>
<polygon fill="#63b8ff" stroke="#63b8ff" points="404.97,-282.5 414.97,-279 404.97,-275.5 404.97,-282.5"/>
</a>
</g>
</g>
<!-- Node7 -->
<g id="Node000007" class="node">
<title>Node7</title>
<g id="a_Node000007"><a xlink:href="../../dd/d67/classEonPlay_1_1Data_1_1PlaylistManager.html#a86024171013c57e0da6dc6c2462b2e95" target="_top" xlink:title=" ">
<polygon fill="white" stroke="#666666" points="584,-246 415,-246 415,-216 584,-216 584,-246"/>
<text text-anchor="start" x="423" y="-234" font-family="Helvetica,sans-Serif" font-size="10.00">EonPlay::Data::PlaylistManager</text>
<text text-anchor="middle" x="499.5" y="-223" font-family="Helvetica,sans-Serif" font-size="10.00">::updatePlaylistDescription</text>
</a>
</g>
</g>
<!-- Node2&#45;&gt;Node7 -->
<g id="edge6_Node000002_Node000007" class="edge">
<title>Node2&#45;&gt;Node7</title>
<g id="a_edge6_Node000002_Node000007"><a xlink:title=" ">
<path fill="none" stroke="#63b8ff" d="M355.74,-263.94C377.23,-258.99 401.3,-253.43 423.46,-248.32"/>
<polygon fill="#63b8ff" stroke="#63b8ff" points="424.53,-251.66 433.49,-246 422.96,-244.84 424.53,-251.66"/>
</a>
</g>
</g>
<!-- Node6 -->
<g id="Node000006" class="node">
<title>Node6</title>
<g id="a_Node000006"><a xlink:href="../../da/db6/classEonPlay_1_1Data_1_1DatabaseManager.html#a17c3a9ed1ea5a58d450bd7311bddb41c" target="_top" xlink:title=" ">
<polygon fill="white" stroke="#666666" points="804,-294 625,-294 625,-264 804,-264 804,-294"/>
<text text-anchor="start" x="633" y="-282" font-family="Helvetica,sans-Serif" font-size="10.00">EonPlay::Data::DatabaseManager</text>
<text text-anchor="middle" x="714.5" y="-271" font-family="Helvetica,sans-Serif" font-size="10.00">::prepareQuery</text>
</a>
</g>
</g>
<!-- Node5&#45;&gt;Node6 -->
<g id="edge5_Node000005_Node000006" class="edge">
<title>Node5&#45;&gt;Node6</title>
<g id="a_edge5_Node000005_Node000006"><a xlink:title=" ">
<path fill="none" stroke="#63b8ff" d="M584.07,-279C594.12,-279 604.46,-279 614.71,-279"/>
<polygon fill="#63b8ff" stroke="#63b8ff" points="614.9,-282.5 624.9,-279 614.9,-275.5 614.9,-282.5"/>
</a>
</g>
</g>
<!-- Node8 -->
<g id="Node000008" class="node">
<title>Node8</title>
<g id="a_Node000008"><a xlink:href="../../dd/d67/classEonPlay_1_1Data_1_1PlaylistManager.html#a2bc3ed8a7eac97e8a44bb5164b30574e" target="_top" xlink:title=" ">
<polygon fill="white" stroke="#666666" points="799,-246 630,-246 630,-216 799,-216 799,-246"/>
<text text-anchor="start" x="638" y="-234" font-family="Helvetica,sans-Serif" font-size="10.00">EonPlay::Data::PlaylistManager</text>
<text text-anchor="middle" x="714.5" y="-223" font-family="Helvetica,sans-Serif" font-size="10.00">::playlistUpdated</text>
</a>
</g>
</g>
<!-- Node7&#45;&gt;Node8 -->
<g id="edge7_Node000007_Node000008" class="edge">
<title>Node7&#45;&gt;Node8</title>
<g id="a_edge7_Node000007_Node000008"><a xlink:title=" ">
<path fill="none" stroke="#63b8ff" d="M584.07,-231C595.7,-231 607.71,-231 619.52,-231"/>
<polygon fill="#63b8ff" stroke="#63b8ff" points="619.82,-234.5 629.82,-231 619.82,-227.5 619.82,-234.5"/>
</a>
</g>
</g>
<!-- Node10 -->
<g id="Node000010" class="node">
<title>Node10</title>
<g id="a_Node000010"><a xlink:href="../../dd/d67/classEonPlay_1_1Data_1_1PlaylistManager.html#a318b67254c38b5dd781a07c041cc8981" target="_top" xlink:title=" ">
<polygon fill="white" stroke="#666666" points="584,-198 415,-198 415,-168 584,-168 584,-198"/>
<text text-anchor="start" x="423" y="-186" font-family="Helvetica,sans-Serif" font-size="10.00">EonPlay::Data::PlaylistManager</text>
<text text-anchor="middle" x="499.5" y="-175" font-family="Helvetica,sans-Serif" font-size="10.00">::getPlaylist</text>
</a>
</g>
</g>
<!-- Node9&#45;&gt;Node10 -->
<g id="edge9_Node000009_Node000010" class="edge">
<title>Node9&#45;&gt;Node10</title>
<g id="a_edge9_Node000009_Node000010"><a xlink:title=" ">
<path fill="none" stroke="#63b8ff" d="M355.74,-150.06C377.23,-155.01 401.3,-160.57 423.46,-165.68"/>
<polygon fill="#63b8ff" stroke="#63b8ff" points="422.96,-169.16 433.49,-168 424.53,-162.34 422.96,-169.16"/>
</a>
</g>
</g>
<!-- Node26 -->
<g id="Node000026" class="node">
<title>Node26</title>
<g id="a_Node000026"><a xlink:href="../../d0/d00/classEonPlay_1_1Data_1_1Playlist.html#a3ec3853b1f913ad37d6f04e63ea2355b" target="_top" xlink:title=" ">
<polygon fill="white" stroke="#666666" points="562.5,-150 436.5,-150 436.5,-120 562.5,-120 562.5,-150"/>
<text text-anchor="start" x="444.5" y="-138" font-family="Helvetica,sans-Serif" font-size="10.00">EonPlay::Data::Playlist</text>
<text text-anchor="middle" x="499.5" y="-127" font-family="Helvetica,sans-Serif" font-size="10.00">::name</text>
</a>
</g>
</g>
<!-- Node9&#45;&gt;Node26 -->
<g id="edge25_Node000009_Node000026" class="edge">
<title>Node9&#45;&gt;Node26</title>
<g id="a_edge25_Node000009_Node000026"><a xlink:title=" ">
<path fill="none" stroke="#63b8ff" d="M374.2,-135C391.4,-135 409.38,-135 426.14,-135"/>
<polygon fill="#63b8ff" stroke="#63b8ff" points="426.4,-138.5 436.4,-135 426.4,-131.5 426.4,-138.5"/>
</a>
</g>
</g>
<!-- Node27 -->
<g id="Node000027" class="node">
<title>Node27</title>
<g id="a_Node000027"><a xlink:href="../../dd/d67/classEonPlay_1_1Data_1_1PlaylistManager.html#ae9519094e8c43dc236badcb10226bc19" target="_top" xlink:title=" ">
<polygon fill="white" stroke="#666666" points="584,-102 415,-102 415,-72 584,-72 584,-102"/>
<text text-anchor="start" x="423" y="-90" font-family="Helvetica,sans-Serif" font-size="10.00">EonPlay::Data::PlaylistManager</text>
<text text-anchor="middle" x="499.5" y="-79" font-family="Helvetica,sans-Serif" font-size="10.00">::playlistDeleted</text>
</a>
</g>
</g>
<!-- Node9&#45;&gt;Node27 -->
<g id="edge26_Node000009_Node000027" class="edge">
<title>Node9&#45;&gt;Node27</title>
<g id="a_edge26_Node000009_Node000027"><a xlink:title=" ">
<path fill="none" stroke="#63b8ff" d="M355.74,-119.94C377.23,-114.99 401.3,-109.43 423.46,-104.32"/>
<polygon fill="#63b8ff" stroke="#63b8ff" points="424.53,-107.66 433.49,-102 422.96,-100.84 424.53,-107.66"/>
</a>
</g>
</g>
<!-- Node28 -->
<g id="Node000028" class="node">
<title>Node28</title>
<g id="a_Node000028"><a xlink:href="../../da/db6/classEonPlay_1_1Data_1_1DatabaseManager.html#a699b327fd19ff72227eba450c4ae17ce" target="_top" xlink:title=" ">
<polygon fill="white" stroke="#666666" points="589,-54 410,-54 410,-24 589,-24 589,-54"/>
<text text-anchor="start" x="418" y="-42" font-family="Helvetica,sans-Serif" font-size="10.00">EonPlay::Data::DatabaseManager</text>
<text text-anchor="middle" x="499.5" y="-31" font-family="Helvetica,sans-Serif" font-size="10.00">::removePlaylist</text>
</a>
</g>
</g>
<!-- Node9&#45;&gt;Node28 -->
<g id="edge27_Node000009_Node000028" class="edge">
<title>Node9&#45;&gt;Node28</title>
<g id="a_edge27_Node000009_Node000028"><a xlink:title=" ">
<path fill="none" stroke="#63b8ff" d="M357.91,-119.89C363.58,-117.36 369.03,-114.42 374,-111 395.95,-95.86 387.93,-77.97 410,-63 412.27,-61.46 414.63,-60.02 417.07,-58.67"/>
<polygon fill="#63b8ff" stroke="#63b8ff" points="418.74,-61.75 426.16,-54.18 415.65,-55.47 418.74,-61.75"/>
</a>
</g>
</g>
<!-- Node11 -->
<g id="Node000011" class="node">
<title>Node11</title>
<g id="a_Node000011"><a xlink:href="../../d0/d00/classEonPlay_1_1Data_1_1Playlist.html#a0dcef6a77d0706afa09021481dcd473b" target="_top" xlink:title=" ">
<polygon fill="white" stroke="#666666" points="777.5,-198 651.5,-198 651.5,-168 777.5,-168 777.5,-198"/>
<text text-anchor="start" x="659.5" y="-186" font-family="Helvetica,sans-Serif" font-size="10.00">EonPlay::Data::Playlist</text>
<text text-anchor="middle" x="714.5" y="-175" font-family="Helvetica,sans-Serif" font-size="10.00">::load</text>
</a>
</g>
</g>
<!-- Node10&#45;&gt;Node11 -->
<g id="edge10_Node000010_Node000011" class="edge">
<title>Node10&#45;&gt;Node11</title>
<g id="a_edge10_Node000010_Node000011"><a xlink:title=" ">
<path fill="none" stroke="#63b8ff" d="M584.07,-183C602.95,-183 622.84,-183 641.21,-183"/>
<polygon fill="#63b8ff" stroke="#63b8ff" points="641.25,-186.5 651.25,-183 641.25,-179.5 641.25,-186.5"/>
</a>
</g>
</g>
<!-- Node12 -->
<g id="Node000012" class="node">
<title>Node12</title>
<g id="a_Node000012"><a xlink:href="../../da/db6/classEonPlay_1_1Data_1_1DatabaseManager.html#a19da66df360ebe035942e0e0857a2533" target="_top" xlink:title=" ">
<polygon fill="white" stroke="#666666" points="1019,-366 840,-366 840,-336 1019,-336 1019,-366"/>
<text text-anchor="start" x="848" y="-354" font-family="Helvetica,sans-Serif" font-size="10.00">EonPlay::Data::DatabaseManager</text>
<text text-anchor="middle" x="929.5" y="-343" font-family="Helvetica,sans-Serif" font-size="10.00">::getPlaylist</text>
</a>
</g>
</g>
<!-- Node11&#45;&gt;Node12 -->
<g id="edge11_Node000011_Node000012" class="edge">
<title>Node11&#45;&gt;Node12</title>
<g id="a_edge11_Node000011_Node000012"><a xlink:title=" ">
<path fill="none" stroke="#63b8ff" d="M777.85,-191.26C787.52,-194.84 796.7,-199.89 804,-207 843.89,-245.84 800.11,-288.16 840,-327 841.1,-328.08 842.25,-329.1 843.44,-330.09"/>
<polygon fill="#63b8ff" stroke="#63b8ff" points="841.58,-333.06 851.77,-335.95 845.61,-327.33 841.58,-333.06"/>
</a>
</g>
</g>
<!-- Node13 -->
<g id="Node000013" class="node">
<title>Node13</title>
<g id="a_Node000013"><a xlink:href="../../da/db6/classEonPlay_1_1Data_1_1DatabaseManager.html#a1e98619f4bbbd1a752e22ee1465aa209" target="_top" xlink:title=" ">
<polygon fill="white" stroke="#666666" points="1019,-318 840,-318 840,-288 1019,-288 1019,-318"/>
<text text-anchor="start" x="848" y="-306" font-family="Helvetica,sans-Serif" font-size="10.00">EonPlay::Data::DatabaseManager</text>
<text text-anchor="middle" x="929.5" y="-295" font-family="Helvetica,sans-Serif" font-size="10.00">::getPlaylistItems</text>
</a>
</g>
</g>
<!-- Node11&#45;&gt;Node13 -->
<g id="edge12_Node000011_Node000013" class="edge">
<title>Node11&#45;&gt;Node13</title>
<g id="a_edge12_Node000011_Node000013"><a xlink:title=" ">
<path fill="none" stroke="#63b8ff" d="M777.78,-192.69C787.23,-196.12 796.36,-200.75 804,-207 831.68,-229.66 812.32,-256.34 840,-279 841.57,-280.29 843.2,-281.5 844.89,-282.66"/>
<polygon fill="#63b8ff" stroke="#63b8ff" points="843.33,-285.8 853.72,-287.89 846.9,-279.78 843.33,-285.8"/>
</a>
</g>
</g>
<!-- Node14 -->
<g id="Node000014" class="node">
<title>Node14</title>
<g id="a_Node000014"><a xlink:href="../../de/dc7/classEonPlay_1_1Data_1_1MediaFile.html#ac7b77dd4fd9235f729fe3000cf280e01" target="_top" xlink:title=" ">
<polygon fill="white" stroke="#666666" points="998,-270 861,-270 861,-240 998,-240 998,-270"/>
<text text-anchor="start" x="869" y="-258" font-family="Helvetica,sans-Serif" font-size="10.00">EonPlay::Data::MediaFile</text>
<text text-anchor="middle" x="929.5" y="-247" font-family="Helvetica,sans-Serif" font-size="10.00">::setAlbum</text>
</a>
</g>
</g>
<!-- Node11&#45;&gt;Node14 -->
<g id="edge13_Node000011_Node000014" class="edge">
<title>Node11&#45;&gt;Node14</title>
<g id="a_edge13_Node000011_Node000014"><a xlink:title=" ">
<path fill="none" stroke="#63b8ff" d="M777.81,-197.16C786.77,-199.98 795.74,-203.25 804,-207 821.51,-214.95 822.49,-223.05 840,-231 844.39,-232.99 848.98,-234.85 853.66,-236.58"/>
<polygon fill="#63b8ff" stroke="#63b8ff" points="852.76,-239.97 863.36,-239.94 855.05,-233.36 852.76,-239.97"/>
</a>
</g>
</g>
<!-- Node16 -->
<g id="Node000016" class="node">
<title>Node16</title>
<g id="a_Node000016"><a xlink:href="../../de/dc7/classEonPlay_1_1Data_1_1MediaFile.html#ad9940de5c551727f95a98ed16caad932" target="_top" xlink:title=" ">
<polygon fill="white" stroke="#666666" points="998,-222 861,-222 861,-192 998,-192 998,-222"/>
<text text-anchor="start" x="869" y="-210" font-family="Helvetica,sans-Serif" font-size="10.00">EonPlay::Data::MediaFile</text>
<text text-anchor="middle" x="929.5" y="-199" font-family="Helvetica,sans-Serif" font-size="10.00">::setArtist</text>
</a>
</g>
</g>
<!-- Node11&#45;&gt;Node16 -->
<g id="edge15_Node000011_Node000016" class="edge">
<title>Node11&#45;&gt;Node16</title>
<g id="a_edge15_Node000011_Node000016"><a xlink:title=" ">
<path fill="none" stroke="#63b8ff" d="M777.68,-190.01C800.46,-192.57 826.53,-195.51 850.52,-198.21"/>
<polygon fill="#63b8ff" stroke="#63b8ff" points="850.32,-201.71 860.65,-199.36 851.11,-194.76 850.32,-201.71"/>
</a>
</g>
</g>
<!-- Node18 -->
<g id="Node000018" class="node">
<title>Node18</title>
<g id="a_Node000018"><a xlink:href="../../de/dc7/classEonPlay_1_1Data_1_1MediaFile.html#a8e21eb7ca2b0ea4dbc709f3e0f1b5740" target="_top" xlink:title=" ">
<polygon fill="white" stroke="#666666" points="998,-174 861,-174 861,-144 998,-144 998,-174"/>
<text text-anchor="start" x="869" y="-162" font-family="Helvetica,sans-Serif" font-size="10.00">EonPlay::Data::MediaFile</text>
<text text-anchor="middle" x="929.5" y="-151" font-family="Helvetica,sans-Serif" font-size="10.00">::setDuration</text>
</a>
</g>
</g>
<!-- Node11&#45;&gt;Node18 -->
<g id="edge17_Node000011_Node000018" class="edge">
<title>Node11&#45;&gt;Node18</title>
<g id="a_edge17_Node000011_Node000018"><a xlink:title=" ">
<path fill="none" stroke="#63b8ff" d="M777.68,-175.99C800.46,-173.43 826.53,-170.49 850.52,-167.79"/>
<polygon fill="#63b8ff" stroke="#63b8ff" points="851.11,-171.24 860.65,-166.64 850.32,-164.29 851.11,-171.24"/>
</a>
</g>
</g>
<!-- Node20 -->
<g id="Node000020" class="node">
<title>Node20</title>
<g id="a_Node000020"><a xlink:href="../../de/dc7/classEonPlay_1_1Data_1_1MediaFile.html#a2803406d0a659719a22162057febdc28" target="_top" xlink:title=" ">
<polygon fill="white" stroke="#666666" points="998,-126 861,-126 861,-96 998,-96 998,-126"/>
<text text-anchor="start" x="869" y="-114" font-family="Helvetica,sans-Serif" font-size="10.00">EonPlay::Data::MediaFile</text>
<text text-anchor="middle" x="929.5" y="-103" font-family="Helvetica,sans-Serif" font-size="10.00">::setFilePath</text>
</a>
</g>
</g>
<!-- Node11&#45;&gt;Node20 -->
<g id="edge19_Node000011_Node000020" class="edge">
<title>Node11&#45;&gt;Node20</title>
<g id="a_edge19_Node000011_Node000020"><a xlink:title=" ">
<path fill="none" stroke="#63b8ff" d="M751.64,-167.93C776.3,-157.93 809.84,-144.87 840,-135 846.4,-132.9 853.11,-130.84 859.84,-128.87"/>
<polygon fill="#63b8ff" stroke="#63b8ff" points="861.05,-132.16 869.69,-126.03 859.12,-125.43 861.05,-132.16"/>
</a>
</g>
</g>
<!-- Node22 -->
<g id="Node000022" class="node">
<title>Node22</title>
<g id="a_Node000022"><a xlink:href="../../de/dc7/classEonPlay_1_1Data_1_1MediaFile.html#a7598825cbdac94beb499b01f69be7d32" target="_top" xlink:title=" ">
<polygon fill="white" stroke="#666666" points="998,-78 861,-78 861,-48 998,-48 998,-78"/>
<text text-anchor="start" x="869" y="-66" font-family="Helvetica,sans-Serif" font-size="10.00">EonPlay::Data::MediaFile</text>
<text text-anchor="middle" x="929.5" y="-55" font-family="Helvetica,sans-Serif" font-size="10.00">::setId</text>
</a>
</g>
</g>
<!-- Node11&#45;&gt;Node22 -->
<g id="edge21_Node000011_Node000022" class="edge">
<title>Node11&#45;&gt;Node22</title>
<g id="a_edge21_Node000011_Node000022"><a xlink:title=" ">
<path fill="none" stroke="#63b8ff" d="M731.01,-167.71C753.29,-146.58 796.48,-108.61 840,-87 843.96,-85.04 848.1,-83.21 852.33,-81.53"/>
<polygon fill="#63b8ff" stroke="#63b8ff" points="853.56,-84.81 861.72,-78.06 851.13,-78.24 853.56,-84.81"/>
</a>
</g>
</g>
<!-- Node24 -->
<g id="Node000024" class="node">
<title>Node24</title>
<g id="a_Node000024"><a xlink:href="../../de/dc7/classEonPlay_1_1Data_1_1MediaFile.html#ab5c607a255318448ec724daec9ad0cf4" target="_top" xlink:title=" ">
<polygon fill="white" stroke="#666666" points="998,-30 861,-30 861,0 998,0 998,-30"/>
<text text-anchor="start" x="869" y="-18" font-family="Helvetica,sans-Serif" font-size="10.00">EonPlay::Data::MediaFile</text>
<text text-anchor="middle" x="929.5" y="-7" font-family="Helvetica,sans-Serif" font-size="10.00">::setTitle</text>
</a>
</g>
</g>
<!-- Node11&#45;&gt;Node24 -->
<g id="edge23_Node000011_Node000024" class="edge">
<title>Node11&#45;&gt;Node24</title>
<g id="a_edge23_Node000011_Node000024"><a xlink:title=" ">
<path fill="none" stroke="#63b8ff" d="M724.32,-167.76C742.21,-138.23 785.73,-73.13 840,-39 843.64,-36.71 847.49,-34.64 851.48,-32.76"/>
<polygon fill="#63b8ff" stroke="#63b8ff" points="853.14,-35.86 860.98,-28.73 850.41,-29.42 853.14,-35.86"/>
</a>
</g>
</g>
<!-- Node15 -->
<g id="Node000015" class="node">
<title>Node15</title>
<g id="a_Node000015"><a xlink:href="../../de/dc7/classEonPlay_1_1Data_1_1MediaFile.html#a09f8ad403a921430628d18e76dd90023" target="_top" xlink:title=" ">
<polygon fill="white" stroke="#666666" points="1199.5,-270 1062.5,-270 1062.5,-240 1199.5,-240 1199.5,-270"/>
<text text-anchor="start" x="1070.5" y="-258" font-family="Helvetica,sans-Serif" font-size="10.00">EonPlay::Data::MediaFile</text>
<text text-anchor="middle" x="1131" y="-247" font-family="Helvetica,sans-Serif" font-size="10.00">::album</text>
</a>
</g>
</g>
<!-- Node14&#45;&gt;Node15 -->
<g id="edge14_Node000014_Node000015" class="edge">
<title>Node14&#45;&gt;Node15</title>
<g id="a_edge14_Node000014_Node000015"><a xlink:title=" ">
<path fill="none" stroke="#63b8ff" d="M998.04,-255C1015.33,-255 1034.07,-255 1051.85,-255"/>
<polygon fill="#63b8ff" stroke="#63b8ff" points="1052.19,-258.5 1062.19,-255 1052.19,-251.5 1052.19,-258.5"/>
</a>
</g>
</g>
<!-- Node17 -->
<g id="Node000017" class="node">
<title>Node17</title>
<g id="a_Node000017"><a xlink:href="../../de/dc7/classEonPlay_1_1Data_1_1MediaFile.html#a75c0e956449eb91ad71bb2644110c83e" target="_top" xlink:title=" ">
<polygon fill="white" stroke="#666666" points="1199.5,-222 1062.5,-222 1062.5,-192 1199.5,-192 1199.5,-222"/>
<text text-anchor="start" x="1070.5" y="-210" font-family="Helvetica,sans-Serif" font-size="10.00">EonPlay::Data::MediaFile</text>
<text text-anchor="middle" x="1131" y="-199" font-family="Helvetica,sans-Serif" font-size="10.00">::artist</text>
</a>
</g>
</g>
<!-- Node16&#45;&gt;Node17 -->
<g id="edge16_Node000016_Node000017" class="edge">
<title>Node16&#45;&gt;Node17</title>
<g id="a_edge16_Node000016_Node000017"><a xlink:title=" ">
<path fill="none" stroke="#63b8ff" d="M998.04,-207C1015.33,-207 1034.07,-207 1051.85,-207"/>
<polygon fill="#63b8ff" stroke="#63b8ff" points="1052.19,-210.5 1062.19,-207 1052.19,-203.5 1052.19,-210.5"/>
</a>
</g>
</g>
<!-- Node19 -->
<g id="Node000019" class="node">
<title>Node19</title>
<g id="a_Node000019"><a xlink:href="../../de/dc7/classEonPlay_1_1Data_1_1MediaFile.html#a9f59cdb65f31f8506749bd6984339c0f" target="_top" xlink:title=" ">
<polygon fill="white" stroke="#666666" points="1199.5,-174 1062.5,-174 1062.5,-144 1199.5,-144 1199.5,-174"/>
<text text-anchor="start" x="1070.5" y="-162" font-family="Helvetica,sans-Serif" font-size="10.00">EonPlay::Data::MediaFile</text>
<text text-anchor="middle" x="1131" y="-151" font-family="Helvetica,sans-Serif" font-size="10.00">::duration</text>
</a>
</g>
</g>
<!-- Node18&#45;&gt;Node19 -->
<g id="edge18_Node000018_Node000019" class="edge">
<title>Node18&#45;&gt;Node19</title>
<g id="a_edge18_Node000018_Node000019"><a xlink:title=" ">
<path fill="none" stroke="#63b8ff" d="M998.04,-159C1015.33,-159 1034.07,-159 1051.85,-159"/>
<polygon fill="#63b8ff" stroke="#63b8ff" points="1052.19,-162.5 1062.19,-159 1052.19,-155.5 1052.19,-162.5"/>
</a>
</g>
</g>
<!-- Node21 -->
<g id="Node000021" class="node">
<title>Node21</title>
<g id="a_Node000021"><a xlink:href="../../de/dc7/classEonPlay_1_1Data_1_1MediaFile.html#a7eb834a0663186a43f3eacb12d18ded7" target="_top" xlink:title=" ">
<polygon fill="white" stroke="#666666" points="1199.5,-126 1062.5,-126 1062.5,-96 1199.5,-96 1199.5,-126"/>
<text text-anchor="start" x="1070.5" y="-114" font-family="Helvetica,sans-Serif" font-size="10.00">EonPlay::Data::MediaFile</text>
<text text-anchor="middle" x="1131" y="-103" font-family="Helvetica,sans-Serif" font-size="10.00">::filePath</text>
</a>
</g>
</g>
<!-- Node20&#45;&gt;Node21 -->
<g id="edge20_Node000020_Node000021" class="edge">
<title>Node20&#45;&gt;Node21</title>
<g id="a_edge20_Node000020_Node000021"><a xlink:title=" ">
<path fill="none" stroke="#63b8ff" d="M998.04,-111C1015.33,-111 1034.07,-111 1051.85,-111"/>
<polygon fill="#63b8ff" stroke="#63b8ff" points="1052.19,-114.5 1062.19,-111 1052.19,-107.5 1052.19,-114.5"/>
</a>
</g>
</g>
<!-- Node23 -->
<g id="Node000023" class="node">
<title>Node23</title>
<g id="a_Node000023"><a xlink:href="../../de/dc7/classEonPlay_1_1Data_1_1MediaFile.html#aeb83eaa447b5b8ee7ffd807ba13f91de" target="_top" xlink:title=" ">
<polygon fill="white" stroke="#666666" points="1207,-72.5 1055,-72.5 1055,-53.5 1207,-53.5 1207,-72.5"/>
<text text-anchor="middle" x="1131" y="-60.5" font-family="Helvetica,sans-Serif" font-size="10.00">EonPlay::Data::MediaFile::id</text>
</a>
</g>
</g>
<!-- Node22&#45;&gt;Node23 -->
<g id="edge22_Node000022_Node000023" class="edge">
<title>Node22&#45;&gt;Node23</title>
<g id="a_edge22_Node000022_Node000023"><a xlink:title=" ">
<path fill="none" stroke="#63b8ff" d="M998.04,-63C1013.06,-63 1029.18,-63 1044.8,-63"/>
<polygon fill="#63b8ff" stroke="#63b8ff" points="1044.99,-66.5 1054.99,-63 1044.99,-59.5 1044.99,-66.5"/>
</a>
</g>
</g>
<!-- Node25 -->
<g id="Node000025" class="node">
<title>Node25</title>
<g id="a_Node000025"><a xlink:href="../../de/dc7/classEonPlay_1_1Data_1_1MediaFile.html#ad6daf8d51553ea2d923d87f4e6b84e01" target="_top" xlink:title=" ">
<polygon fill="white" stroke="#666666" points="1199.5,-30 1062.5,-30 1062.5,0 1199.5,0 1199.5,-30"/>
<text text-anchor="start" x="1070.5" y="-18" font-family="Helvetica,sans-Serif" font-size="10.00">EonPlay::Data::MediaFile</text>
<text text-anchor="middle" x="1131" y="-7" font-family="Helvetica,sans-Serif" font-size="10.00">::title</text>
</a>
</g>
</g>
<!-- Node24&#45;&gt;Node25 -->
<g id="edge24_Node000024_Node000025" class="edge">
<title>Node24&#45;&gt;Node25</title>
<g id="a_edge24_Node000024_Node000025"><a xlink:title=" ">
<path fill="none" stroke="#63b8ff" d="M998.04,-15C1015.33,-15 1034.07,-15 1051.85,-15"/>
<polygon fill="#63b8ff" stroke="#63b8ff" points="1052.19,-18.5 1062.19,-15 1052.19,-11.5 1052.19,-18.5"/>
</a>
</g>
</g>
</g>
</svg>
