<?xml version="1.0" encoding="UTF-8" standalone="no"?>
<!DOCTYPE svg PUBLIC "-//W3C//DTD SVG 1.1//EN"
 "http://www.w3.org/Graphics/SVG/1.1/DTD/svg11.dtd">
<!-- Generated by graphviz version 2.43.0 (0)
 -->
<!-- Title: EonPlay::Data::PlaylistManager::smartPlaylistCreated Pages: 1 -->
<svg width="587pt" height="278pt"
 viewBox="0.00 0.00 587.00 278.00" xmlns="http://www.w3.org/2000/svg" xmlns:xlink="http://www.w3.org/1999/xlink">
<g id="graph0" class="graph" transform="scale(1 1) rotate(0) translate(4 274)">
<title>EonPlay::Data::PlaylistManager::smartPlaylistCreated</title>
<!-- Node1 -->
<g id="Node000001" class="node">
<title>Node1</title>
<g id="a_Node000001"><a xlink:title=" ">
<polygon fill="#999999" stroke="#666666" points="579,-150 410,-150 410,-120 579,-120 579,-150"/>
<text text-anchor="start" x="418" y="-138" font-family="Helvetica,sans-Serif" font-size="10.00">EonPlay::Data::PlaylistManager</text>
<text text-anchor="middle" x="494.5" y="-127" font-family="Helvetica,sans-Serif" font-size="10.00">::smartPlaylistCreated</text>
</a>
</g>
</g>
<!-- Node2 -->
<g id="Node000002" class="node">
<title>Node2</title>
<g id="a_Node000002"><a xlink:href="../../dd/d67/classEonPlay_1_1Data_1_1PlaylistManager.html#a3b6861f3d0977f2fd48f9e9da0215564" target="_top" xlink:title=" ">
<polygon fill="white" stroke="#666666" points="374,-150 205,-150 205,-120 374,-120 374,-150"/>
<text text-anchor="start" x="213" y="-138" font-family="Helvetica,sans-Serif" font-size="10.00">EonPlay::Data::PlaylistManager</text>
<text text-anchor="middle" x="289.5" y="-127" font-family="Helvetica,sans-Serif" font-size="10.00">::createSmartPlaylist</text>
</a>
</g>
</g>
<!-- Node1&#45;&gt;Node2 -->
<g id="edge1_Node000001_Node000002" class="edge">
<title>Node1&#45;&gt;Node2</title>
<g id="a_edge1_Node000001_Node000002"><a xlink:title=" ">
<path fill="none" stroke="#63b8ff" d="M399.74,-135C391.17,-135 382.52,-135 374.05,-135"/>
<polygon fill="#63b8ff" stroke="#63b8ff" points="399.76,-138.5 409.76,-135 399.76,-131.5 399.76,-138.5"/>
</a>
</g>
</g>
<!-- Node3 -->
<g id="Node000003" class="node">
<title>Node3</title>
<g id="a_Node000003"><a xlink:href="../../dd/d67/classEonPlay_1_1Data_1_1PlaylistManager.html#a84790a4d6548c747ffdbe6b4958d920c" target="_top" xlink:title=" ">
<polygon fill="white" stroke="#666666" points="169,-270 0,-270 0,-240 169,-240 169,-270"/>
<text text-anchor="start" x="8" y="-258" font-family="Helvetica,sans-Serif" font-size="10.00">EonPlay::Data::PlaylistManager</text>
<text text-anchor="middle" x="84.5" y="-247" font-family="Helvetica,sans-Serif" font-size="10.00">::createArtistPlaylist</text>
</a>
</g>
</g>
<!-- Node2&#45;&gt;Node3 -->
<g id="edge2_Node000002_Node000003" class="edge">
<title>Node2&#45;&gt;Node3</title>
<g id="a_edge2_Node000002_Node000003"><a xlink:title=" ">
<path fill="none" stroke="#63b8ff" d="M266.31,-157.42C243.67,-179.12 206.62,-211.5 169,-231 162.44,-234.4 155.33,-237.38 148.12,-239.97"/>
<polygon fill="#63b8ff" stroke="#63b8ff" points="268.97,-159.72 273.69,-150.23 264.08,-154.7 268.97,-159.72"/>
</a>
</g>
</g>
<!-- Node4 -->
<g id="Node000004" class="node">
<title>Node4</title>
<g id="a_Node000004"><a xlink:href="../../dd/d67/classEonPlay_1_1Data_1_1PlaylistManager.html#a892aa3b6498c552fbe7c28cc22b9f652" target="_top" xlink:title=" ">
<polygon fill="white" stroke="#666666" points="169,-222 0,-222 0,-192 169,-192 169,-222"/>
<text text-anchor="start" x="8" y="-210" font-family="Helvetica,sans-Serif" font-size="10.00">EonPlay::Data::PlaylistManager</text>
<text text-anchor="middle" x="84.5" y="-199" font-family="Helvetica,sans-Serif" font-size="10.00">::createGenrePlaylist</text>
</a>
</g>
</g>
<!-- Node2&#45;&gt;Node4 -->
<g id="edge3_Node000002_Node000004" class="edge">
<title>Node2&#45;&gt;Node4</title>
<g id="a_edge3_Node000002_Node000004"><a xlink:title=" ">
<path fill="none" stroke="#63b8ff" d="M244.57,-153.9C222.16,-163.21 194.35,-174.29 169,-183 160.01,-186.09 150.39,-189.11 140.99,-191.91"/>
<polygon fill="#63b8ff" stroke="#63b8ff" points="245.95,-157.11 253.82,-150.02 243.24,-150.66 245.95,-157.11"/>
</a>
</g>
</g>
<!-- Node5 -->
<g id="Node000005" class="node">
<title>Node5</title>
<g id="a_Node000005"><a xlink:href="../../dd/d67/classEonPlay_1_1Data_1_1PlaylistManager.html#a5c1aa3437e772bf3dde512b1b3993a13" target="_top" xlink:title=" ">
<polygon fill="white" stroke="#666666" points="169,-174 0,-174 0,-144 169,-144 169,-174"/>
<text text-anchor="start" x="8" y="-162" font-family="Helvetica,sans-Serif" font-size="10.00">EonPlay::Data::PlaylistManager</text>
<text text-anchor="middle" x="84.5" y="-151" font-family="Helvetica,sans-Serif" font-size="10.00">::createMostPlayedPlaylist</text>
</a>
</g>
</g>
<!-- Node2&#45;&gt;Node5 -->
<g id="edge4_Node000002_Node000005" class="edge">
<title>Node2&#45;&gt;Node5</title>
<g id="a_edge4_Node000002_Node000005"><a xlink:title=" ">
<path fill="none" stroke="#63b8ff" d="M194.74,-146.08C186.17,-147.1 177.52,-148.12 169.05,-149.12"/>
<polygon fill="#63b8ff" stroke="#63b8ff" points="195.24,-149.55 204.76,-144.9 194.42,-142.6 195.24,-149.55"/>
</a>
</g>
</g>
<!-- Node6 -->
<g id="Node000006" class="node">
<title>Node6</title>
<g id="a_Node000006"><a xlink:href="../../dd/d67/classEonPlay_1_1Data_1_1PlaylistManager.html#a65f921bf2db44c90def328eb22c7ebb0" target="_top" xlink:title=" ">
<polygon fill="white" stroke="#666666" points="169,-126 0,-126 0,-96 169,-96 169,-126"/>
<text text-anchor="start" x="8" y="-114" font-family="Helvetica,sans-Serif" font-size="10.00">EonPlay::Data::PlaylistManager</text>
<text text-anchor="middle" x="84.5" y="-103" font-family="Helvetica,sans-Serif" font-size="10.00">::createNeverPlayedPlaylist</text>
</a>
</g>
</g>
<!-- Node2&#45;&gt;Node6 -->
<g id="edge5_Node000002_Node000006" class="edge">
<title>Node2&#45;&gt;Node6</title>
<g id="a_edge5_Node000002_Node000006"><a xlink:title=" ">
<path fill="none" stroke="#63b8ff" d="M194.74,-123.92C186.17,-122.9 177.52,-121.88 169.05,-120.88"/>
<polygon fill="#63b8ff" stroke="#63b8ff" points="194.42,-127.4 204.76,-125.1 195.24,-120.45 194.42,-127.4"/>
</a>
</g>
</g>
<!-- Node7 -->
<g id="Node000007" class="node">
<title>Node7</title>
<g id="a_Node000007"><a xlink:href="../../dd/d67/classEonPlay_1_1Data_1_1PlaylistManager.html#a681deb4cd09114a73608639d6ea7e2ca" target="_top" xlink:title=" ">
<polygon fill="white" stroke="#666666" points="169,-78 0,-78 0,-48 169,-48 169,-78"/>
<text text-anchor="start" x="8" y="-66" font-family="Helvetica,sans-Serif" font-size="10.00">EonPlay::Data::PlaylistManager</text>
<text text-anchor="middle" x="84.5" y="-55" font-family="Helvetica,sans-Serif" font-size="10.00">::createRecentlyAddedPlaylist</text>
</a>
</g>
</g>
<!-- Node2&#45;&gt;Node7 -->
<g id="edge6_Node000002_Node000007" class="edge">
<title>Node2&#45;&gt;Node7</title>
<g id="a_edge6_Node000002_Node000007"><a xlink:title=" ">
<path fill="none" stroke="#63b8ff" d="M244.57,-116.1C222.16,-106.79 194.35,-95.71 169,-87 160.01,-83.91 150.39,-80.89 140.99,-78.09"/>
<polygon fill="#63b8ff" stroke="#63b8ff" points="243.24,-119.34 253.82,-119.98 245.95,-112.89 243.24,-119.34"/>
</a>
</g>
</g>
<!-- Node8 -->
<g id="Node000008" class="node">
<title>Node8</title>
<g id="a_Node000008"><a xlink:href="../../dd/d67/classEonPlay_1_1Data_1_1PlaylistManager.html#aa833f907ff44fd7a50e23a27a8b98e38" target="_top" xlink:title=" ">
<polygon fill="white" stroke="#666666" points="169,-30 0,-30 0,0 169,0 169,-30"/>
<text text-anchor="start" x="8" y="-18" font-family="Helvetica,sans-Serif" font-size="10.00">EonPlay::Data::PlaylistManager</text>
<text text-anchor="middle" x="84.5" y="-7" font-family="Helvetica,sans-Serif" font-size="10.00">::createRecentlyPlayedPlaylist</text>
</a>
</g>
</g>
<!-- Node2&#45;&gt;Node8 -->
<g id="edge7_Node000002_Node000008" class="edge">
<title>Node2&#45;&gt;Node8</title>
<g id="a_edge7_Node000002_Node000008"><a xlink:title=" ">
<path fill="none" stroke="#63b8ff" d="M266.31,-112.58C243.67,-90.88 206.62,-58.5 169,-39 162.44,-35.6 155.33,-32.62 148.12,-30.03"/>
<polygon fill="#63b8ff" stroke="#63b8ff" points="264.08,-115.3 273.69,-119.77 268.97,-110.28 264.08,-115.3"/>
</a>
</g>
</g>
</g>
</svg>
