<?xml version="1.0" encoding="UTF-8" standalone="no"?>
<!DOCTYPE svg PUBLIC "-//W3C//DTD SVG 1.1//EN"
 "http://www.w3.org/Graphics/SVG/1.1/DTD/svg11.dtd">
<!-- Generated by graphviz version 2.43.0 (0)
 -->
<!-- Title: EonPlay::Data::PlaylistManager::refreshAllSmartPlaylists Pages: 1 -->
<svg width="1152pt" height="374pt"
 viewBox="0.00 0.00 1152.00 374.00" xmlns="http://www.w3.org/2000/svg" xmlns:xlink="http://www.w3.org/1999/xlink">
<g id="graph0" class="graph" transform="scale(1 1) rotate(0) translate(4 370)">
<title>EonPlay::Data::PlaylistManager::refreshAllSmartPlaylists</title>
<!-- Node1 -->
<g id="Node000001" class="node">
<title>Node1</title>
<g id="a_Node000001"><a xlink:title=" ">
<polygon fill="#999999" stroke="#666666" points="169,-150 0,-150 0,-120 169,-120 169,-150"/>
<text text-anchor="start" x="8" y="-138" font-family="Helvetica,sans-Serif" font-size="10.00">EonPlay::Data::PlaylistManager</text>
<text text-anchor="middle" x="84.5" y="-127" font-family="Helvetica,sans-Serif" font-size="10.00">::refreshAllSmartPlaylists</text>
</a>
</g>
</g>
<!-- Node2 -->
<g id="Node000002" class="node">
<title>Node2</title>
<g id="a_Node000002"><a xlink:href="../../dd/d67/classEonPlay_1_1Data_1_1PlaylistManager.html#af1bfd5334d665a5f5e1fe86d8e98e517" target="_top" xlink:title=" ">
<polygon fill="white" stroke="#666666" points="374,-150 205,-150 205,-120 374,-120 374,-150"/>
<text text-anchor="start" x="213" y="-138" font-family="Helvetica,sans-Serif" font-size="10.00">EonPlay::Data::PlaylistManager</text>
<text text-anchor="middle" x="289.5" y="-127" font-family="Helvetica,sans-Serif" font-size="10.00">::refreshSmartPlaylist</text>
</a>
</g>
</g>
<!-- Node1&#45;&gt;Node2 -->
<g id="edge1_Node000001_Node000002" class="edge">
<title>Node1&#45;&gt;Node2</title>
<g id="a_edge1_Node000001_Node000002"><a xlink:title=" ">
<path fill="none" stroke="#63b8ff" d="M169.24,-135C177.72,-135 186.37,-135 194.94,-135"/>
<polygon fill="#63b8ff" stroke="#63b8ff" points="194.95,-138.5 204.95,-135 194.95,-131.5 194.95,-138.5"/>
</a>
</g>
</g>
<!-- Node3 -->
<g id="Node000003" class="node">
<title>Node3</title>
<g id="a_Node000003"><a xlink:href="../../dd/d67/classEonPlay_1_1Data_1_1PlaylistManager.html#a318b67254c38b5dd781a07c041cc8981" target="_top" xlink:title=" ">
<polygon fill="white" stroke="#666666" points="579,-198 410,-198 410,-168 579,-168 579,-198"/>
<text text-anchor="start" x="418" y="-186" font-family="Helvetica,sans-Serif" font-size="10.00">EonPlay::Data::PlaylistManager</text>
<text text-anchor="middle" x="494.5" y="-175" font-family="Helvetica,sans-Serif" font-size="10.00">::getPlaylist</text>
</a>
</g>
</g>
<!-- Node2&#45;&gt;Node3 -->
<g id="edge2_Node000002_Node000003" class="edge">
<title>Node2&#45;&gt;Node3</title>
<g id="a_edge2_Node000002_Node000003"><a xlink:title=" ">
<path fill="none" stroke="#63b8ff" d="M354.17,-150.06C375.15,-155.01 398.63,-160.57 420.26,-165.68"/>
<polygon fill="#63b8ff" stroke="#63b8ff" points="419.52,-169.1 430.05,-168 421.13,-162.29 419.52,-169.1"/>
</a>
</g>
</g>
<!-- Node19 -->
<g id="Node000019" class="node">
<title>Node19</title>
<g id="a_Node000019"><a xlink:href="../../dd/d67/classEonPlay_1_1Data_1_1PlaylistManager.html#a30dc9fc89e317451d35569ed0365d658" target="_top" xlink:title=" ">
<polygon fill="white" stroke="#666666" points="579,-150 410,-150 410,-120 579,-120 579,-150"/>
<text text-anchor="start" x="418" y="-138" font-family="Helvetica,sans-Serif" font-size="10.00">EonPlay::Data::PlaylistManager</text>
<text text-anchor="middle" x="494.5" y="-127" font-family="Helvetica,sans-Serif" font-size="10.00">::smartPlaylistRefreshed</text>
</a>
</g>
</g>
<!-- Node2&#45;&gt;Node19 -->
<g id="edge18_Node000002_Node000019" class="edge">
<title>Node2&#45;&gt;Node19</title>
<g id="a_edge18_Node000002_Node000019"><a xlink:title=" ">
<path fill="none" stroke="#63b8ff" d="M374.24,-135C382.72,-135 391.37,-135 399.94,-135"/>
<polygon fill="#63b8ff" stroke="#63b8ff" points="399.95,-138.5 409.95,-135 399.95,-131.5 399.95,-138.5"/>
</a>
</g>
</g>
<!-- Node20 -->
<g id="Node000020" class="node">
<title>Node20</title>
<g id="a_Node000020"><a xlink:href="../../dd/d67/classEonPlay_1_1Data_1_1PlaylistManager.html#a6f019d4c42327e6ab08886889aa3c614" target="_top" xlink:title=" ">
<polygon fill="white" stroke="#666666" points="579,-102 410,-102 410,-72 579,-72 579,-102"/>
<text text-anchor="start" x="418" y="-90" font-family="Helvetica,sans-Serif" font-size="10.00">EonPlay::Data::PlaylistManager</text>
<text text-anchor="middle" x="494.5" y="-79" font-family="Helvetica,sans-Serif" font-size="10.00">::updateSmartPlaylist</text>
</a>
</g>
</g>
<!-- Node2&#45;&gt;Node20 -->
<g id="edge19_Node000002_Node000020" class="edge">
<title>Node2&#45;&gt;Node20</title>
<g id="a_edge19_Node000002_Node000020"><a xlink:title=" ">
<path fill="none" stroke="#63b8ff" d="M354.17,-119.94C375.15,-114.99 398.63,-109.43 420.26,-104.32"/>
<polygon fill="#63b8ff" stroke="#63b8ff" points="421.13,-107.71 430.05,-102 419.52,-100.9 421.13,-107.71"/>
</a>
</g>
</g>
<!-- Node4 -->
<g id="Node000004" class="node">
<title>Node4</title>
<g id="a_Node000004"><a xlink:href="../../d0/d00/classEonPlay_1_1Data_1_1Playlist.html#a0dcef6a77d0706afa09021481dcd473b" target="_top" xlink:title=" ">
<polygon fill="white" stroke="#666666" points="741,-198 615,-198 615,-168 741,-168 741,-198"/>
<text text-anchor="start" x="623" y="-186" font-family="Helvetica,sans-Serif" font-size="10.00">EonPlay::Data::Playlist</text>
<text text-anchor="middle" x="678" y="-175" font-family="Helvetica,sans-Serif" font-size="10.00">::load</text>
</a>
</g>
</g>
<!-- Node3&#45;&gt;Node4 -->
<g id="edge3_Node000003_Node000004" class="edge">
<title>Node3&#45;&gt;Node4</title>
<g id="a_edge3_Node000003_Node000004"><a xlink:title=" ">
<path fill="none" stroke="#63b8ff" d="M579.08,-183C587.61,-183 596.23,-183 604.63,-183"/>
<polygon fill="#63b8ff" stroke="#63b8ff" points="604.74,-186.5 614.74,-183 604.74,-179.5 604.74,-186.5"/>
</a>
</g>
</g>
<!-- Node5 -->
<g id="Node000005" class="node">
<title>Node5</title>
<g id="a_Node000005"><a xlink:href="../../da/db6/classEonPlay_1_1Data_1_1DatabaseManager.html#a19da66df360ebe035942e0e0857a2533" target="_top" xlink:title=" ">
<polygon fill="white" stroke="#666666" points="956,-366 777,-366 777,-336 956,-336 956,-366"/>
<text text-anchor="start" x="785" y="-354" font-family="Helvetica,sans-Serif" font-size="10.00">EonPlay::Data::DatabaseManager</text>
<text text-anchor="middle" x="866.5" y="-343" font-family="Helvetica,sans-Serif" font-size="10.00">::getPlaylist</text>
</a>
</g>
</g>
<!-- Node4&#45;&gt;Node5 -->
<g id="edge4_Node000004_Node000005" class="edge">
<title>Node4&#45;&gt;Node5</title>
<g id="a_edge4_Node000004_Node000005"><a xlink:title=" ">
<path fill="none" stroke="#63b8ff" d="M685.05,-198.26C697.58,-227.82 729.22,-292.96 777,-327 779.1,-328.5 781.29,-329.9 783.54,-331.21"/>
<polygon fill="#63b8ff" stroke="#63b8ff" points="782.05,-334.38 792.54,-335.86 785.27,-328.16 782.05,-334.38"/>
</a>
</g>
</g>
<!-- Node6 -->
<g id="Node000006" class="node">
<title>Node6</title>
<g id="a_Node000006"><a xlink:href="../../da/db6/classEonPlay_1_1Data_1_1DatabaseManager.html#a1e98619f4bbbd1a752e22ee1465aa209" target="_top" xlink:title=" ">
<polygon fill="white" stroke="#666666" points="956,-318 777,-318 777,-288 956,-288 956,-318"/>
<text text-anchor="start" x="785" y="-306" font-family="Helvetica,sans-Serif" font-size="10.00">EonPlay::Data::DatabaseManager</text>
<text text-anchor="middle" x="866.5" y="-295" font-family="Helvetica,sans-Serif" font-size="10.00">::getPlaylistItems</text>
</a>
</g>
</g>
<!-- Node4&#45;&gt;Node6 -->
<g id="edge5_Node000004_Node000006" class="edge">
<title>Node4&#45;&gt;Node6</title>
<g id="a_edge5_Node000004_Node000006"><a xlink:title=" ">
<path fill="none" stroke="#63b8ff" d="M690.22,-198.08C706.83,-219.32 740,-257.82 777,-279 780.06,-280.75 783.26,-282.38 786.54,-283.9"/>
<polygon fill="#63b8ff" stroke="#63b8ff" points="785.41,-287.22 795.99,-287.87 788.13,-280.77 785.41,-287.22"/>
</a>
</g>
</g>
<!-- Node7 -->
<g id="Node000007" class="node">
<title>Node7</title>
<g id="a_Node000007"><a xlink:href="../../de/dc7/classEonPlay_1_1Data_1_1MediaFile.html#ac7b77dd4fd9235f729fe3000cf280e01" target="_top" xlink:title=" ">
<polygon fill="white" stroke="#666666" points="935,-270 798,-270 798,-240 935,-240 935,-270"/>
<text text-anchor="start" x="806" y="-258" font-family="Helvetica,sans-Serif" font-size="10.00">EonPlay::Data::MediaFile</text>
<text text-anchor="middle" x="866.5" y="-247" font-family="Helvetica,sans-Serif" font-size="10.00">::setAlbum</text>
</a>
</g>
</g>
<!-- Node4&#45;&gt;Node7 -->
<g id="edge6_Node000004_Node000007" class="edge">
<title>Node4&#45;&gt;Node7</title>
<g id="a_edge6_Node000004_Node000007"><a xlink:title=" ">
<path fill="none" stroke="#63b8ff" d="M706.26,-198.1C725.58,-208.37 752.36,-221.72 777,-231 782.54,-233.08 788.33,-235.07 794.19,-236.94"/>
<polygon fill="#63b8ff" stroke="#63b8ff" points="793.49,-240.39 804.08,-239.98 795.55,-233.7 793.49,-240.39"/>
</a>
</g>
</g>
<!-- Node9 -->
<g id="Node000009" class="node">
<title>Node9</title>
<g id="a_Node000009"><a xlink:href="../../de/dc7/classEonPlay_1_1Data_1_1MediaFile.html#ad9940de5c551727f95a98ed16caad932" target="_top" xlink:title=" ">
<polygon fill="white" stroke="#666666" points="935,-222 798,-222 798,-192 935,-192 935,-222"/>
<text text-anchor="start" x="806" y="-210" font-family="Helvetica,sans-Serif" font-size="10.00">EonPlay::Data::MediaFile</text>
<text text-anchor="middle" x="866.5" y="-199" font-family="Helvetica,sans-Serif" font-size="10.00">::setArtist</text>
</a>
</g>
</g>
<!-- Node4&#45;&gt;Node9 -->
<g id="edge8_Node000004_Node000009" class="edge">
<title>Node4&#45;&gt;Node9</title>
<g id="a_edge8_Node000004_Node000009"><a xlink:title=" ">
<path fill="none" stroke="#63b8ff" d="M741.1,-190.99C756.05,-192.92 772.21,-194.99 787.77,-197"/>
<polygon fill="#63b8ff" stroke="#63b8ff" points="787.53,-200.5 797.9,-198.3 788.43,-193.55 787.53,-200.5"/>
</a>
</g>
</g>
<!-- Node11 -->
<g id="Node000011" class="node">
<title>Node11</title>
<g id="a_Node000011"><a xlink:href="../../de/dc7/classEonPlay_1_1Data_1_1MediaFile.html#a8e21eb7ca2b0ea4dbc709f3e0f1b5740" target="_top" xlink:title=" ">
<polygon fill="white" stroke="#666666" points="935,-174 798,-174 798,-144 935,-144 935,-174"/>
<text text-anchor="start" x="806" y="-162" font-family="Helvetica,sans-Serif" font-size="10.00">EonPlay::Data::MediaFile</text>
<text text-anchor="middle" x="866.5" y="-151" font-family="Helvetica,sans-Serif" font-size="10.00">::setDuration</text>
</a>
</g>
</g>
<!-- Node4&#45;&gt;Node11 -->
<g id="edge10_Node000004_Node000011" class="edge">
<title>Node4&#45;&gt;Node11</title>
<g id="a_edge10_Node000004_Node000011"><a xlink:title=" ">
<path fill="none" stroke="#63b8ff" d="M741.1,-175.01C756.05,-173.08 772.21,-171.01 787.77,-169"/>
<polygon fill="#63b8ff" stroke="#63b8ff" points="788.43,-172.45 797.9,-167.7 787.53,-165.5 788.43,-172.45"/>
</a>
</g>
</g>
<!-- Node13 -->
<g id="Node000013" class="node">
<title>Node13</title>
<g id="a_Node000013"><a xlink:href="../../de/dc7/classEonPlay_1_1Data_1_1MediaFile.html#a2803406d0a659719a22162057febdc28" target="_top" xlink:title=" ">
<polygon fill="white" stroke="#666666" points="935,-126 798,-126 798,-96 935,-96 935,-126"/>
<text text-anchor="start" x="806" y="-114" font-family="Helvetica,sans-Serif" font-size="10.00">EonPlay::Data::MediaFile</text>
<text text-anchor="middle" x="866.5" y="-103" font-family="Helvetica,sans-Serif" font-size="10.00">::setFilePath</text>
</a>
</g>
</g>
<!-- Node4&#45;&gt;Node13 -->
<g id="edge12_Node000004_Node000013" class="edge">
<title>Node4&#45;&gt;Node13</title>
<g id="a_edge12_Node000004_Node000013"><a xlink:title=" ">
<path fill="none" stroke="#63b8ff" d="M706.26,-167.9C725.58,-157.63 752.36,-144.28 777,-135 782.54,-132.92 788.33,-130.93 794.19,-129.06"/>
<polygon fill="#63b8ff" stroke="#63b8ff" points="795.55,-132.3 804.08,-126.02 793.49,-125.61 795.55,-132.3"/>
</a>
</g>
</g>
<!-- Node15 -->
<g id="Node000015" class="node">
<title>Node15</title>
<g id="a_Node000015"><a xlink:href="../../de/dc7/classEonPlay_1_1Data_1_1MediaFile.html#a7598825cbdac94beb499b01f69be7d32" target="_top" xlink:title=" ">
<polygon fill="white" stroke="#666666" points="935,-78 798,-78 798,-48 935,-48 935,-78"/>
<text text-anchor="start" x="806" y="-66" font-family="Helvetica,sans-Serif" font-size="10.00">EonPlay::Data::MediaFile</text>
<text text-anchor="middle" x="866.5" y="-55" font-family="Helvetica,sans-Serif" font-size="10.00">::setId</text>
</a>
</g>
</g>
<!-- Node4&#45;&gt;Node15 -->
<g id="edge14_Node000004_Node000015" class="edge">
<title>Node4&#45;&gt;Node15</title>
<g id="a_edge14_Node000004_Node000015"><a xlink:title=" ">
<path fill="none" stroke="#63b8ff" d="M690.22,-167.92C706.83,-146.68 740,-108.18 777,-87 780.65,-84.91 784.49,-82.99 788.45,-81.24"/>
<polygon fill="#63b8ff" stroke="#63b8ff" points="789.88,-84.44 797.84,-77.44 787.26,-77.95 789.88,-84.44"/>
</a>
</g>
</g>
<!-- Node17 -->
<g id="Node000017" class="node">
<title>Node17</title>
<g id="a_Node000017"><a xlink:href="../../de/dc7/classEonPlay_1_1Data_1_1MediaFile.html#ab5c607a255318448ec724daec9ad0cf4" target="_top" xlink:title=" ">
<polygon fill="white" stroke="#666666" points="935,-30 798,-30 798,0 935,0 935,-30"/>
<text text-anchor="start" x="806" y="-18" font-family="Helvetica,sans-Serif" font-size="10.00">EonPlay::Data::MediaFile</text>
<text text-anchor="middle" x="866.5" y="-7" font-family="Helvetica,sans-Serif" font-size="10.00">::setTitle</text>
</a>
</g>
</g>
<!-- Node4&#45;&gt;Node17 -->
<g id="edge16_Node000004_Node000017" class="edge">
<title>Node4&#45;&gt;Node17</title>
<g id="a_edge16_Node000004_Node000017"><a xlink:title=" ">
<path fill="none" stroke="#63b8ff" d="M685.05,-167.74C697.58,-138.18 729.22,-73.04 777,-39 780.67,-36.38 784.62,-34.05 788.73,-31.97"/>
<polygon fill="#63b8ff" stroke="#63b8ff" points="790.27,-35.12 797.95,-27.82 787.39,-28.74 790.27,-35.12"/>
</a>
</g>
</g>
<!-- Node8 -->
<g id="Node000008" class="node">
<title>Node8</title>
<g id="a_Node000008"><a xlink:href="../../de/dc7/classEonPlay_1_1Data_1_1MediaFile.html#a09f8ad403a921430628d18e76dd90023" target="_top" xlink:title=" ">
<polygon fill="white" stroke="#666666" points="1136.5,-270 999.5,-270 999.5,-240 1136.5,-240 1136.5,-270"/>
<text text-anchor="start" x="1007.5" y="-258" font-family="Helvetica,sans-Serif" font-size="10.00">EonPlay::Data::MediaFile</text>
<text text-anchor="middle" x="1068" y="-247" font-family="Helvetica,sans-Serif" font-size="10.00">::album</text>
</a>
</g>
</g>
<!-- Node7&#45;&gt;Node8 -->
<g id="edge7_Node000007_Node000008" class="edge">
<title>Node7&#45;&gt;Node8</title>
<g id="a_edge7_Node000007_Node000008"><a xlink:title=" ">
<path fill="none" stroke="#63b8ff" d="M935.04,-255C952.33,-255 971.07,-255 988.85,-255"/>
<polygon fill="#63b8ff" stroke="#63b8ff" points="989.19,-258.5 999.19,-255 989.19,-251.5 989.19,-258.5"/>
</a>
</g>
</g>
<!-- Node10 -->
<g id="Node000010" class="node">
<title>Node10</title>
<g id="a_Node000010"><a xlink:href="../../de/dc7/classEonPlay_1_1Data_1_1MediaFile.html#a75c0e956449eb91ad71bb2644110c83e" target="_top" xlink:title=" ">
<polygon fill="white" stroke="#666666" points="1136.5,-222 999.5,-222 999.5,-192 1136.5,-192 1136.5,-222"/>
<text text-anchor="start" x="1007.5" y="-210" font-family="Helvetica,sans-Serif" font-size="10.00">EonPlay::Data::MediaFile</text>
<text text-anchor="middle" x="1068" y="-199" font-family="Helvetica,sans-Serif" font-size="10.00">::artist</text>
</a>
</g>
</g>
<!-- Node9&#45;&gt;Node10 -->
<g id="edge9_Node000009_Node000010" class="edge">
<title>Node9&#45;&gt;Node10</title>
<g id="a_edge9_Node000009_Node000010"><a xlink:title=" ">
<path fill="none" stroke="#63b8ff" d="M935.04,-207C952.33,-207 971.07,-207 988.85,-207"/>
<polygon fill="#63b8ff" stroke="#63b8ff" points="989.19,-210.5 999.19,-207 989.19,-203.5 989.19,-210.5"/>
</a>
</g>
</g>
<!-- Node12 -->
<g id="Node000012" class="node">
<title>Node12</title>
<g id="a_Node000012"><a xlink:href="../../de/dc7/classEonPlay_1_1Data_1_1MediaFile.html#a9f59cdb65f31f8506749bd6984339c0f" target="_top" xlink:title=" ">
<polygon fill="white" stroke="#666666" points="1136.5,-174 999.5,-174 999.5,-144 1136.5,-144 1136.5,-174"/>
<text text-anchor="start" x="1007.5" y="-162" font-family="Helvetica,sans-Serif" font-size="10.00">EonPlay::Data::MediaFile</text>
<text text-anchor="middle" x="1068" y="-151" font-family="Helvetica,sans-Serif" font-size="10.00">::duration</text>
</a>
</g>
</g>
<!-- Node11&#45;&gt;Node12 -->
<g id="edge11_Node000011_Node000012" class="edge">
<title>Node11&#45;&gt;Node12</title>
<g id="a_edge11_Node000011_Node000012"><a xlink:title=" ">
<path fill="none" stroke="#63b8ff" d="M935.04,-159C952.33,-159 971.07,-159 988.85,-159"/>
<polygon fill="#63b8ff" stroke="#63b8ff" points="989.19,-162.5 999.19,-159 989.19,-155.5 989.19,-162.5"/>
</a>
</g>
</g>
<!-- Node14 -->
<g id="Node000014" class="node">
<title>Node14</title>
<g id="a_Node000014"><a xlink:href="../../de/dc7/classEonPlay_1_1Data_1_1MediaFile.html#a7eb834a0663186a43f3eacb12d18ded7" target="_top" xlink:title=" ">
<polygon fill="white" stroke="#666666" points="1136.5,-126 999.5,-126 999.5,-96 1136.5,-96 1136.5,-126"/>
<text text-anchor="start" x="1007.5" y="-114" font-family="Helvetica,sans-Serif" font-size="10.00">EonPlay::Data::MediaFile</text>
<text text-anchor="middle" x="1068" y="-103" font-family="Helvetica,sans-Serif" font-size="10.00">::filePath</text>
</a>
</g>
</g>
<!-- Node13&#45;&gt;Node14 -->
<g id="edge13_Node000013_Node000014" class="edge">
<title>Node13&#45;&gt;Node14</title>
<g id="a_edge13_Node000013_Node000014"><a xlink:title=" ">
<path fill="none" stroke="#63b8ff" d="M935.04,-111C952.33,-111 971.07,-111 988.85,-111"/>
<polygon fill="#63b8ff" stroke="#63b8ff" points="989.19,-114.5 999.19,-111 989.19,-107.5 989.19,-114.5"/>
</a>
</g>
</g>
<!-- Node16 -->
<g id="Node000016" class="node">
<title>Node16</title>
<g id="a_Node000016"><a xlink:href="../../de/dc7/classEonPlay_1_1Data_1_1MediaFile.html#aeb83eaa447b5b8ee7ffd807ba13f91de" target="_top" xlink:title=" ">
<polygon fill="white" stroke="#666666" points="1144,-72.5 992,-72.5 992,-53.5 1144,-53.5 1144,-72.5"/>
<text text-anchor="middle" x="1068" y="-60.5" font-family="Helvetica,sans-Serif" font-size="10.00">EonPlay::Data::MediaFile::id</text>
</a>
</g>
</g>
<!-- Node15&#45;&gt;Node16 -->
<g id="edge15_Node000015_Node000016" class="edge">
<title>Node15&#45;&gt;Node16</title>
<g id="a_edge15_Node000015_Node000016"><a xlink:title=" ">
<path fill="none" stroke="#63b8ff" d="M935.04,-63C950.06,-63 966.18,-63 981.8,-63"/>
<polygon fill="#63b8ff" stroke="#63b8ff" points="981.99,-66.5 991.99,-63 981.99,-59.5 981.99,-66.5"/>
</a>
</g>
</g>
<!-- Node18 -->
<g id="Node000018" class="node">
<title>Node18</title>
<g id="a_Node000018"><a xlink:href="../../de/dc7/classEonPlay_1_1Data_1_1MediaFile.html#ad6daf8d51553ea2d923d87f4e6b84e01" target="_top" xlink:title=" ">
<polygon fill="white" stroke="#666666" points="1136.5,-30 999.5,-30 999.5,0 1136.5,0 1136.5,-30"/>
<text text-anchor="start" x="1007.5" y="-18" font-family="Helvetica,sans-Serif" font-size="10.00">EonPlay::Data::MediaFile</text>
<text text-anchor="middle" x="1068" y="-7" font-family="Helvetica,sans-Serif" font-size="10.00">::title</text>
</a>
</g>
</g>
<!-- Node17&#45;&gt;Node18 -->
<g id="edge17_Node000017_Node000018" class="edge">
<title>Node17&#45;&gt;Node18</title>
<g id="a_edge17_Node000017_Node000018"><a xlink:title=" ">
<path fill="none" stroke="#63b8ff" d="M935.04,-15C952.33,-15 971.07,-15 988.85,-15"/>
<polygon fill="#63b8ff" stroke="#63b8ff" points="989.19,-18.5 999.19,-15 989.19,-11.5 989.19,-18.5"/>
</a>
</g>
</g>
</g>
</svg>
