<?xml version="1.0" encoding="UTF-8" standalone="no"?>
<!DOCTYPE svg PUBLIC "-//W3C//DTD SVG 1.1//EN"
 "http://www.w3.org/Graphics/SVG/1.1/DTD/svg11.dtd">
<!-- Generated by graphviz version 2.43.0 (0)
 -->
<!-- Title: EonPlay::Data::PlaylistManager::importPlaylist Pages: 1 -->
<!--zoomable 727 -->

<svg id="main" version="1.1" xmlns="http://www.w3.org/2000/svg" xmlns:xlink="http://www.w3.org/1999/xlink" xml:space="preserve" onload="init(evt)">
<style type="text/css"><![CDATA[
.node, .edge {opacity: 0.7;}
.node.selected, .edge.selected {opacity: 1;}
.edge:hover path { stroke: red; }
.edge:hover polygon { stroke: red; fill: red; }
]]></style>

<defs>
  <circle id="rim" cx="0" cy="0" r="7"/>
  <circle id="rim2" cx="0" cy="0" r="3.5"/>
  <g id="zoomPlus">
    <use xlink:href="#rim" fill="#404040"><set attributeName="fill" to="#808080" begin="zoomplus.mouseover" end="zoomplus.mouseout"/></use>
    <path d="M-4,0h8M0,-4v8" fill="none" stroke="white" stroke-width="1.5" pointer-events="none"/>
  </g>
  <g id="zoomMin">
    <use xlink:href="#rim" fill="#404040"><set attributeName="fill" to="#808080" begin="zoomminus.mouseover" end="zoomminus.mouseout"/></use>
    <path d="M-4,0h8" fill="none" stroke="white" stroke-width="1.5" pointer-events="none"/>
  </g>
  <g id="arrowUp" transform="translate(30 24)">
    <use xlink:href="#rim"/>
    <path pointer-events="none" fill="none" stroke="white" stroke-width="1.5" d="M0,-3.0v7 M-2.5,-0.5L0,-3.0L2.5,-0.5"/>
  </g>
  <g id="arrowRight" transform="rotate(90) translate(36 -43)">
    <use xlink:href="#rim"/>
    <path pointer-events="none" fill="none" stroke="white" stroke-width="1.5" d="M0,-3.0v7 M-2.5,-0.5L0,-3.0L2.5,-0.5"/>
  </g>
  <g id="arrowDown" transform="rotate(180) translate(-30 -48)">
    <use xlink:href="#rim"/>
    <path pointer-events="none" fill="none" stroke="white" stroke-width="1.5" d="M0,-3.0v7 M-2.5,-0.5L0,-3.0L2.5,-0.5"/>
  </g>
  <g id="arrowLeft" transform="rotate(270) translate(-36 17)">
    <use xlink:href="#rim"/>
    <path pointer-events="none" fill="none" stroke="white" stroke-width="1.5" d="M0,-3.0v7 M-2.5,-0.5L0,-3.0L2.5,-0.5"/>
  </g>
  <g id="resetDef">
    <use xlink:href="#rim2" fill="#404040"><set attributeName="fill" to="#808080" begin="reset.mouseover" end="reset.mouseout"/></use>
  </g>
</defs>
<script type="application/ecmascript">
var viewWidth = 1215;
var viewHeight = 727;
var sectionId = 'dynsection-46';
</script>
<script type="application/ecmascript" xlink:href="../../svg.min.js"/>
<svg id="graph" class="graph">
<g id="viewport">
<title>EonPlay::Data::PlaylistManager::importPlaylist</title>
<!-- Node1 -->
<g id="Node000001" class="node">
<title>Node1</title>
<g id="a_Node000001"><a xlink:title=" ">
<polygon fill="#999999" stroke="#666666" points="169,-260 0,-260 0,-230 169,-230 169,-260"/>
<text text-anchor="start" x="8" y="-248" font-family="Helvetica,sans-Serif" font-size="10.00">EonPlay::Data::PlaylistManager</text>
<text text-anchor="middle" x="84.5" y="-237" font-family="Helvetica,sans-Serif" font-size="10.00">::importPlaylist</text>
</a>
</g>
</g>
<!-- Node2 -->
<g id="Node000002" class="node">
<title>Node2</title>
<g id="a_Node000002"><a xlink:href="../../dd/d67/classEonPlay_1_1Data_1_1PlaylistManager.html#a6ea316aa7cda0a3e50440cd387ac0611" target="_top" xlink:title=" ">
<polygon fill="white" stroke="#666666" points="374,-394 205,-394 205,-364 374,-364 374,-394"/>
<text text-anchor="start" x="213" y="-382" font-family="Helvetica,sans-Serif" font-size="10.00">EonPlay::Data::PlaylistManager</text>
<text text-anchor="middle" x="289.5" y="-371" font-family="Helvetica,sans-Serif" font-size="10.00">::createPlaylist</text>
</a>
</g>
</g>
<!-- Node1&#45;&gt;Node2 -->
<g id="edge1_Node000001_Node000002" class="edge">
<title>Node1&#45;&gt;Node2</title>
<g id="a_edge1_Node000001_Node000002"><a xlink:title=" ">
<path fill="none" stroke="#63b8ff" d="M108.39,-260.11C144.81,-284.15 216.02,-331.16 257.15,-358.31"/>
<polygon fill="#63b8ff" stroke="#63b8ff" points="255.42,-361.36 265.69,-363.94 259.27,-355.51 255.42,-361.36"/>
</a>
</g>
</g>
<!-- Node8 -->
<g id="Node000008" class="node">
<title>Node8</title>
<g id="a_Node000008"><a xlink:href="../../dd/d67/classEonPlay_1_1Data_1_1PlaylistManager.html#a2bc3ed8a7eac97e8a44bb5164b30574e" target="_top" xlink:title=" ">
<polygon fill="white" stroke="#666666" points="799,-336 630,-336 630,-306 799,-306 799,-336"/>
<text text-anchor="start" x="638" y="-324" font-family="Helvetica,sans-Serif" font-size="10.00">EonPlay::Data::PlaylistManager</text>
<text text-anchor="middle" x="714.5" y="-313" font-family="Helvetica,sans-Serif" font-size="10.00">::playlistUpdated</text>
</a>
</g>
</g>
<!-- Node1&#45;&gt;Node8 -->
<g id="edge33_Node000001_Node000008" class="edge">
<title>Node1&#45;&gt;Node8</title>
<g id="a_edge33_Node000001_Node000008"><a xlink:title=" ">
<path fill="none" stroke="#63b8ff" d="M169.22,-255.13C286.15,-269.28 497.71,-294.89 619.78,-309.66"/>
<polygon fill="#63b8ff" stroke="#63b8ff" points="619.51,-313.15 629.86,-310.88 620.35,-306.2 619.51,-313.15"/>
</a>
</g>
</g>
<!-- Node9 -->
<g id="Node000009" class="node">
<title>Node9</title>
<g id="a_Node000009"><a xlink:href="../../dd/d67/classEonPlay_1_1Data_1_1PlaylistManager.html#a392bcbcf74115b20a5c0fe5bda8ed1f1" target="_top" xlink:title=" ">
<polygon fill="white" stroke="#666666" points="374,-212 205,-212 205,-182 374,-182 374,-212"/>
<text text-anchor="start" x="213" y="-200" font-family="Helvetica,sans-Serif" font-size="10.00">EonPlay::Data::PlaylistManager</text>
<text text-anchor="middle" x="289.5" y="-189" font-family="Helvetica,sans-Serif" font-size="10.00">::deletePlaylist</text>
</a>
</g>
</g>
<!-- Node1&#45;&gt;Node9 -->
<g id="edge8_Node000001_Node000009" class="edge">
<title>Node1&#45;&gt;Node9</title>
<g id="a_edge8_Node000001_Node000009"><a xlink:title=" ">
<path fill="none" stroke="#63b8ff" d="M149.17,-229.94C170.15,-224.99 193.63,-219.43 215.26,-214.32"/>
<polygon fill="#63b8ff" stroke="#63b8ff" points="216.13,-217.71 225.05,-212 214.52,-210.9 216.13,-217.71"/>
</a>
</g>
</g>
<!-- Node10 -->
<g id="Node000010" class="node">
<title>Node10</title>
<g id="a_Node000010"><a xlink:href="../../dd/d67/classEonPlay_1_1Data_1_1PlaylistManager.html#a318b67254c38b5dd781a07c041cc8981" target="_top" xlink:title=" ">
<polygon fill="white" stroke="#666666" points="584,-260 415,-260 415,-230 584,-230 584,-260"/>
<text text-anchor="start" x="423" y="-248" font-family="Helvetica,sans-Serif" font-size="10.00">EonPlay::Data::PlaylistManager</text>
<text text-anchor="middle" x="499.5" y="-237" font-family="Helvetica,sans-Serif" font-size="10.00">::getPlaylist</text>
</a>
</g>
</g>
<!-- Node1&#45;&gt;Node10 -->
<g id="edge28_Node000001_Node000010" class="edge">
<title>Node1&#45;&gt;Node10</title>
<g id="a_edge28_Node000001_Node000010"><a xlink:title=" ">
<path fill="none" stroke="#63b8ff" d="M169.08,-245C237.26,-245 333.55,-245 404.43,-245"/>
<polygon fill="#63b8ff" stroke="#63b8ff" points="404.69,-248.5 414.69,-245 404.69,-241.5 404.69,-248.5"/>
</a>
</g>
</g>
<!-- Node29 -->
<g id="Node000029" class="node">
<title>Node29</title>
<g id="a_Node000029"><a xlink:href="../../d0/d00/classEonPlay_1_1Data_1_1Playlist.html#abfd6e3a029bd36f4e7c2919109481757" target="_top" xlink:title=" ">
<polygon fill="white" stroke="#666666" points="777.5,-73 651.5,-73 651.5,-43 777.5,-43 777.5,-73"/>
<text text-anchor="start" x="659.5" y="-61" font-family="Helvetica,sans-Serif" font-size="10.00">EonPlay::Data::Playlist</text>
<text text-anchor="middle" x="714.5" y="-50" font-family="Helvetica,sans-Serif" font-size="10.00">::importFromM3U</text>
</a>
</g>
</g>
<!-- Node1&#45;&gt;Node29 -->
<g id="edge29_Node000001_Node000029" class="edge">
<title>Node1&#45;&gt;Node29</title>
<g id="a_edge29_Node000001_Node000029"><a xlink:title=" ">
<path fill="none" stroke="#63b8ff" d="M108.89,-229.91C132.68,-214.81 170.81,-191.24 205,-173 293.76,-125.64 312.53,-101.91 410,-77 487.28,-57.25 579.06,-54.19 641.3,-55.01"/>
<polygon fill="#63b8ff" stroke="#63b8ff" points="641.36,-58.51 651.41,-55.17 641.47,-51.51 641.36,-58.51"/>
</a>
</g>
</g>
<!-- Node30 -->
<g id="Node000030" class="node">
<title>Node30</title>
<g id="a_Node000030"><a xlink:href="../../d0/d00/classEonPlay_1_1Data_1_1Playlist.html#a5d33cc106bd6f7cf8db91f9011dd50fc" target="_top" xlink:title=" ">
<polygon fill="white" stroke="#666666" points="352.5,-30 226.5,-30 226.5,0 352.5,0 352.5,-30"/>
<text text-anchor="start" x="234.5" y="-18" font-family="Helvetica,sans-Serif" font-size="10.00">EonPlay::Data::Playlist</text>
<text text-anchor="middle" x="289.5" y="-7" font-family="Helvetica,sans-Serif" font-size="10.00">::importFromPLS</text>
</a>
</g>
</g>
<!-- Node1&#45;&gt;Node30 -->
<g id="edge31_Node000001_Node000030" class="edge">
<title>Node1&#45;&gt;Node30</title>
<g id="a_edge31_Node000001_Node000030"><a xlink:title=" ">
<path fill="none" stroke="#63b8ff" d="M90.35,-229.97C103.05,-192.91 140.83,-96.35 205,-44 209.31,-40.48 214.07,-37.38 219.08,-34.65"/>
<polygon fill="#63b8ff" stroke="#63b8ff" points="220.87,-37.67 228.29,-30.11 217.77,-31.39 220.87,-37.67"/>
</a>
</g>
</g>
<!-- Node31 -->
<g id="Node000031" class="node">
<title>Node31</title>
<g id="a_Node000031"><a xlink:href="../../d0/d00/classEonPlay_1_1Data_1_1Playlist.html#a058c80ece8232c3793d8d06fd7b26d2a" target="_top" xlink:title=" ">
<polygon fill="white" stroke="#666666" points="352.5,-581 226.5,-581 226.5,-551 352.5,-551 352.5,-581"/>
<text text-anchor="start" x="234.5" y="-569" font-family="Helvetica,sans-Serif" font-size="10.00">EonPlay::Data::Playlist</text>
<text text-anchor="middle" x="289.5" y="-558" font-family="Helvetica,sans-Serif" font-size="10.00">::save</text>
</a>
</g>
</g>
<!-- Node1&#45;&gt;Node31 -->
<g id="edge34_Node000001_Node000031" class="edge">
<title>Node1&#45;&gt;Node31</title>
<g id="a_edge34_Node000001_Node000031"><a xlink:title=" ">
<path fill="none" stroke="#63b8ff" d="M95.02,-260.05C127.45,-311.34 233.82,-479.54 273.45,-542.2"/>
<polygon fill="#63b8ff" stroke="#63b8ff" points="270.7,-544.4 279,-550.98 276.61,-540.66 270.7,-544.4"/>
</a>
</g>
</g>
<!-- Node3 -->
<g id="Node000003" class="node">
<title>Node3</title>
<g id="a_Node000003"><a xlink:href="../../da/db6/classEonPlay_1_1Data_1_1DatabaseManager.html#adf772dde7757e0cbca6f48dd143d884c" target="_top" xlink:title=" ">
<polygon fill="white" stroke="#666666" points="589,-490 410,-490 410,-460 589,-460 589,-490"/>
<text text-anchor="start" x="418" y="-478" font-family="Helvetica,sans-Serif" font-size="10.00">EonPlay::Data::DatabaseManager</text>
<text text-anchor="middle" x="499.5" y="-467" font-family="Helvetica,sans-Serif" font-size="10.00">::createPlaylist</text>
</a>
</g>
</g>
<!-- Node2&#45;&gt;Node3 -->
<g id="edge2_Node000002_Node000003" class="edge">
<title>Node2&#45;&gt;Node3</title>
<g id="a_edge2_Node000002_Node000003"><a xlink:title=" ">
<path fill="none" stroke="#63b8ff" d="M311.55,-394.17C334.7,-410.24 373.47,-435.4 410,-451 414.73,-453.02 419.67,-454.91 424.7,-456.67"/>
<polygon fill="#63b8ff" stroke="#63b8ff" points="423.85,-460.08 434.45,-459.91 426.06,-453.44 423.85,-460.08"/>
</a>
</g>
</g>
<!-- Node4 -->
<g id="Node000004" class="node">
<title>Node4</title>
<g id="a_Node000004"><a xlink:href="../../dd/d67/classEonPlay_1_1Data_1_1PlaylistManager.html#af5135071e4e804103ffe19380d180b4c" target="_top" xlink:title=" ">
<polygon fill="white" stroke="#666666" points="584,-394 415,-394 415,-364 584,-364 584,-394"/>
<text text-anchor="start" x="423" y="-382" font-family="Helvetica,sans-Serif" font-size="10.00">EonPlay::Data::PlaylistManager</text>
<text text-anchor="middle" x="499.5" y="-371" font-family="Helvetica,sans-Serif" font-size="10.00">::playlistCreated</text>
</a>
</g>
</g>
<!-- Node2&#45;&gt;Node4 -->
<g id="edge3_Node000002_Node000004" class="edge">
<title>Node2&#45;&gt;Node4</title>
<g id="a_edge3_Node000002_Node000004"><a xlink:title=" ">
<path fill="none" stroke="#63b8ff" d="M374.2,-379C384.28,-379 394.62,-379 404.82,-379"/>
<polygon fill="#63b8ff" stroke="#63b8ff" points="404.97,-382.5 414.97,-379 404.97,-375.5 404.97,-382.5"/>
</a>
</g>
</g>
<!-- Node5 -->
<g id="Node000005" class="node">
<title>Node5</title>
<g id="a_Node000005"><a xlink:href="../../dd/d67/classEonPlay_1_1Data_1_1PlaylistManager.html#a32534c487aada559671318e478903d5d" target="_top" xlink:title=" ">
<polygon fill="white" stroke="#666666" points="584,-442 415,-442 415,-412 584,-412 584,-442"/>
<text text-anchor="start" x="423" y="-430" font-family="Helvetica,sans-Serif" font-size="10.00">EonPlay::Data::PlaylistManager</text>
<text text-anchor="middle" x="499.5" y="-419" font-family="Helvetica,sans-Serif" font-size="10.00">::playlistExists</text>
</a>
</g>
</g>
<!-- Node2&#45;&gt;Node5 -->
<g id="edge4_Node000002_Node000005" class="edge">
<title>Node2&#45;&gt;Node5</title>
<g id="a_edge4_Node000002_Node000005"><a xlink:title=" ">
<path fill="none" stroke="#63b8ff" d="M355.74,-394.06C377.23,-399.01 401.3,-404.57 423.46,-409.68"/>
<polygon fill="#63b8ff" stroke="#63b8ff" points="422.96,-413.16 433.49,-412 424.53,-406.34 422.96,-413.16"/>
</a>
</g>
</g>
<!-- Node7 -->
<g id="Node000007" class="node">
<title>Node7</title>
<g id="a_Node000007"><a xlink:href="../../dd/d67/classEonPlay_1_1Data_1_1PlaylistManager.html#a86024171013c57e0da6dc6c2462b2e95" target="_top" xlink:title=" ">
<polygon fill="white" stroke="#666666" points="584,-346 415,-346 415,-316 584,-316 584,-346"/>
<text text-anchor="start" x="423" y="-334" font-family="Helvetica,sans-Serif" font-size="10.00">EonPlay::Data::PlaylistManager</text>
<text text-anchor="middle" x="499.5" y="-323" font-family="Helvetica,sans-Serif" font-size="10.00">::updatePlaylistDescription</text>
</a>
</g>
</g>
<!-- Node2&#45;&gt;Node7 -->
<g id="edge6_Node000002_Node000007" class="edge">
<title>Node2&#45;&gt;Node7</title>
<g id="a_edge6_Node000002_Node000007"><a xlink:title=" ">
<path fill="none" stroke="#63b8ff" d="M355.74,-363.94C377.23,-358.99 401.3,-353.43 423.46,-348.32"/>
<polygon fill="#63b8ff" stroke="#63b8ff" points="424.53,-351.66 433.49,-346 422.96,-344.84 424.53,-351.66"/>
</a>
</g>
</g>
<!-- Node6 -->
<g id="Node000006" class="node">
<title>Node6</title>
<g id="a_Node000006"><a xlink:href="../../da/db6/classEonPlay_1_1Data_1_1DatabaseManager.html#a17c3a9ed1ea5a58d450bd7311bddb41c" target="_top" xlink:title=" ">
<polygon fill="white" stroke="#666666" points="804,-490 625,-490 625,-460 804,-460 804,-490"/>
<text text-anchor="start" x="633" y="-478" font-family="Helvetica,sans-Serif" font-size="10.00">EonPlay::Data::DatabaseManager</text>
<text text-anchor="middle" x="714.5" y="-467" font-family="Helvetica,sans-Serif" font-size="10.00">::prepareQuery</text>
</a>
</g>
</g>
<!-- Node5&#45;&gt;Node6 -->
<g id="edge5_Node000005_Node000006" class="edge">
<title>Node5&#45;&gt;Node6</title>
<g id="a_edge5_Node000005_Node000006"><a xlink:title=" ">
<path fill="none" stroke="#63b8ff" d="M567.31,-442.06C589.42,-447.04 614.18,-452.62 636.96,-457.75"/>
<polygon fill="#63b8ff" stroke="#63b8ff" points="636.4,-461.21 646.93,-460 637.94,-454.38 636.4,-461.21"/>
</a>
</g>
</g>
<!-- Node7&#45;&gt;Node8 -->
<g id="edge7_Node000007_Node000008" class="edge">
<title>Node7&#45;&gt;Node8</title>
<g id="a_edge7_Node000007_Node000008"><a xlink:title=" ">
<path fill="none" stroke="#63b8ff" d="M584.07,-327.08C595.7,-326.53 607.71,-325.97 619.52,-325.41"/>
<polygon fill="#63b8ff" stroke="#63b8ff" points="619.99,-328.89 629.82,-324.93 619.67,-321.9 619.99,-328.89"/>
</a>
</g>
</g>
<!-- Node9&#45;&gt;Node10 -->
<g id="edge9_Node000009_Node000010" class="edge">
<title>Node9&#45;&gt;Node10</title>
<g id="a_edge9_Node000009_Node000010"><a xlink:title=" ">
<path fill="none" stroke="#63b8ff" d="M355.74,-212.06C377.23,-217.01 401.3,-222.57 423.46,-227.68"/>
<polygon fill="#63b8ff" stroke="#63b8ff" points="422.96,-231.16 433.49,-230 424.53,-224.34 422.96,-231.16"/>
</a>
</g>
</g>
<!-- Node26 -->
<g id="Node000026" class="node">
<title>Node26</title>
<g id="a_Node000026"><a xlink:href="../../d0/d00/classEonPlay_1_1Data_1_1Playlist.html#a3ec3853b1f913ad37d6f04e63ea2355b" target="_top" xlink:title=" ">
<polygon fill="white" stroke="#666666" points="562.5,-164 436.5,-164 436.5,-134 562.5,-134 562.5,-164"/>
<text text-anchor="start" x="444.5" y="-152" font-family="Helvetica,sans-Serif" font-size="10.00">EonPlay::Data::Playlist</text>
<text text-anchor="middle" x="499.5" y="-141" font-family="Helvetica,sans-Serif" font-size="10.00">::name</text>
</a>
</g>
</g>
<!-- Node9&#45;&gt;Node26 -->
<g id="edge25_Node000009_Node000026" class="edge">
<title>Node9&#45;&gt;Node26</title>
<g id="a_edge25_Node000009_Node000026"><a xlink:title=" ">
<path fill="none" stroke="#63b8ff" d="M355.74,-181.94C378.16,-176.77 403.38,-170.95 426.32,-165.66"/>
<polygon fill="#63b8ff" stroke="#63b8ff" points="427.37,-169.01 436.33,-163.35 425.8,-162.19 427.37,-169.01"/>
</a>
</g>
</g>
<!-- Node27 -->
<g id="Node000027" class="node">
<title>Node27</title>
<g id="a_Node000027"><a xlink:href="../../dd/d67/classEonPlay_1_1Data_1_1PlaylistManager.html#ae9519094e8c43dc236badcb10226bc19" target="_top" xlink:title=" ">
<polygon fill="white" stroke="#666666" points="584,-212 415,-212 415,-182 584,-182 584,-212"/>
<text text-anchor="start" x="423" y="-200" font-family="Helvetica,sans-Serif" font-size="10.00">EonPlay::Data::PlaylistManager</text>
<text text-anchor="middle" x="499.5" y="-189" font-family="Helvetica,sans-Serif" font-size="10.00">::playlistDeleted</text>
</a>
</g>
</g>
<!-- Node9&#45;&gt;Node27 -->
<g id="edge26_Node000009_Node000027" class="edge">
<title>Node9&#45;&gt;Node27</title>
<g id="a_edge26_Node000009_Node000027"><a xlink:title=" ">
<path fill="none" stroke="#63b8ff" d="M374.2,-197C384.28,-197 394.62,-197 404.82,-197"/>
<polygon fill="#63b8ff" stroke="#63b8ff" points="404.97,-200.5 414.97,-197 404.97,-193.5 404.97,-200.5"/>
</a>
</g>
</g>
<!-- Node28 -->
<g id="Node000028" class="node">
<title>Node28</title>
<g id="a_Node000028"><a xlink:href="../../da/db6/classEonPlay_1_1Data_1_1DatabaseManager.html#a699b327fd19ff72227eba450c4ae17ce" target="_top" xlink:title=" ">
<polygon fill="white" stroke="#666666" points="589,-116 410,-116 410,-86 589,-86 589,-116"/>
<text text-anchor="start" x="418" y="-104" font-family="Helvetica,sans-Serif" font-size="10.00">EonPlay::Data::DatabaseManager</text>
<text text-anchor="middle" x="499.5" y="-93" font-family="Helvetica,sans-Serif" font-size="10.00">::removePlaylist</text>
</a>
</g>
</g>
<!-- Node9&#45;&gt;Node28 -->
<g id="edge27_Node000009_Node000028" class="edge">
<title>Node9&#45;&gt;Node28</title>
<g id="a_edge27_Node000009_Node000028"><a xlink:title=" ">
<path fill="none" stroke="#63b8ff" d="M311.55,-181.83C334.7,-165.76 373.47,-140.6 410,-125 414.73,-122.98 419.67,-121.09 424.7,-119.33"/>
<polygon fill="#63b8ff" stroke="#63b8ff" points="426.06,-122.56 434.45,-116.09 423.85,-115.92 426.06,-122.56"/>
</a>
</g>
</g>
<!-- Node11 -->
<g id="Node000011" class="node">
<title>Node11</title>
<g id="a_Node000011"><a xlink:href="../../d0/d00/classEonPlay_1_1Data_1_1Playlist.html#a0dcef6a77d0706afa09021481dcd473b" target="_top" xlink:title=" ">
<polygon fill="white" stroke="#666666" points="777.5,-269 651.5,-269 651.5,-239 777.5,-239 777.5,-269"/>
<text text-anchor="start" x="659.5" y="-257" font-family="Helvetica,sans-Serif" font-size="10.00">EonPlay::Data::Playlist</text>
<text text-anchor="middle" x="714.5" y="-246" font-family="Helvetica,sans-Serif" font-size="10.00">::load</text>
</a>
</g>
</g>
<!-- Node10&#45;&gt;Node11 -->
<g id="edge10_Node000010_Node000011" class="edge">
<title>Node10&#45;&gt;Node11</title>
<g id="a_edge10_Node000010_Node000011"><a xlink:title=" ">
<path fill="none" stroke="#63b8ff" d="M584.07,-248.53C602.95,-249.33 622.84,-250.17 641.21,-250.95"/>
<polygon fill="#63b8ff" stroke="#63b8ff" points="641.11,-254.44 651.25,-251.37 641.4,-247.45 641.11,-254.44"/>
</a>
</g>
</g>
<!-- Node12 -->
<g id="Node000012" class="node">
<title>Node12</title>
<g id="a_Node000012"><a xlink:href="../../da/db6/classEonPlay_1_1Data_1_1DatabaseManager.html#a19da66df360ebe035942e0e0857a2533" target="_top" xlink:title=" ">
<polygon fill="white" stroke="#666666" points="1019,-413 840,-413 840,-383 1019,-383 1019,-413"/>
<text text-anchor="start" x="848" y="-401" font-family="Helvetica,sans-Serif" font-size="10.00">EonPlay::Data::DatabaseManager</text>
<text text-anchor="middle" x="929.5" y="-390" font-family="Helvetica,sans-Serif" font-size="10.00">::getPlaylist</text>
</a>
</g>
</g>
<!-- Node11&#45;&gt;Node12 -->
<g id="edge11_Node000011_Node000012" class="edge">
<title>Node11&#45;&gt;Node12</title>
<g id="a_edge11_Node000011_Node000012"><a xlink:title=" ">
<path fill="none" stroke="#63b8ff" d="M761.14,-269.09C776.21,-275.79 792.13,-284.95 804,-297 830.51,-323.91 811.08,-349.69 840,-374 841.38,-375.16 842.82,-376.27 844.29,-377.32"/>
<polygon fill="#63b8ff" stroke="#63b8ff" points="842.83,-380.53 853.19,-382.79 846.5,-374.57 842.83,-380.53"/>
</a>
</g>
</g>
<!-- Node13 -->
<g id="Node000013" class="node">
<title>Node13</title>
<g id="a_Node000013"><a xlink:href="../../da/db6/classEonPlay_1_1Data_1_1DatabaseManager.html#a1e98619f4bbbd1a752e22ee1465aa209" target="_top" xlink:title=" ">
<polygon fill="white" stroke="#666666" points="1019,-365 840,-365 840,-335 1019,-335 1019,-365"/>
<text text-anchor="start" x="848" y="-353" font-family="Helvetica,sans-Serif" font-size="10.00">EonPlay::Data::DatabaseManager</text>
<text text-anchor="middle" x="929.5" y="-342" font-family="Helvetica,sans-Serif" font-size="10.00">::getPlaylistItems</text>
</a>
</g>
</g>
<!-- Node11&#45;&gt;Node13 -->
<g id="edge12_Node000011_Node000013" class="edge">
<title>Node11&#45;&gt;Node13</title>
<g id="a_edge12_Node000011_Node000013"><a xlink:title=" ">
<path fill="none" stroke="#63b8ff" d="M751.37,-269.19C767.87,-276.73 787.41,-286.48 804,-297 821.35,-308 821.7,-316.67 840,-326 843.75,-327.91 847.67,-329.68 851.68,-331.33"/>
<polygon fill="#63b8ff" stroke="#63b8ff" points="850.59,-334.66 861.18,-334.93 853.07,-328.11 850.59,-334.66"/>
</a>
</g>
</g>
<!-- Node14 -->
<g id="Node000014" class="node">
<title>Node14</title>
<g id="a_Node000014"><a xlink:href="../../de/dc7/classEonPlay_1_1Data_1_1MediaFile.html#ac7b77dd4fd9235f729fe3000cf280e01" target="_top" xlink:title=" ">
<polygon fill="white" stroke="#666666" points="998,-269 861,-269 861,-239 998,-239 998,-269"/>
<text text-anchor="start" x="869" y="-257" font-family="Helvetica,sans-Serif" font-size="10.00">EonPlay::Data::MediaFile</text>
<text text-anchor="middle" x="929.5" y="-246" font-family="Helvetica,sans-Serif" font-size="10.00">::setAlbum</text>
</a>
</g>
</g>
<!-- Node11&#45;&gt;Node14 -->
<g id="edge13_Node000011_Node000014" class="edge">
<title>Node11&#45;&gt;Node14</title>
<g id="a_edge13_Node000011_Node000014"><a xlink:title=" ">
<path fill="none" stroke="#63b8ff" d="M777.68,-254C800.46,-254 826.53,-254 850.52,-254"/>
<polygon fill="#63b8ff" stroke="#63b8ff" points="850.65,-257.5 860.65,-254 850.65,-250.5 850.65,-257.5"/>
</a>
</g>
</g>
<!-- Node16 -->
<g id="Node000016" class="node">
<title>Node16</title>
<g id="a_Node000016"><a xlink:href="../../de/dc7/classEonPlay_1_1Data_1_1MediaFile.html#ad9940de5c551727f95a98ed16caad932" target="_top" xlink:title=" ">
<polygon fill="white" stroke="#666666" points="998,-221 861,-221 861,-191 998,-191 998,-221"/>
<text text-anchor="start" x="869" y="-209" font-family="Helvetica,sans-Serif" font-size="10.00">EonPlay::Data::MediaFile</text>
<text text-anchor="middle" x="929.5" y="-198" font-family="Helvetica,sans-Serif" font-size="10.00">::setArtist</text>
</a>
</g>
</g>
<!-- Node11&#45;&gt;Node16 -->
<g id="edge15_Node000011_Node000016" class="edge">
<title>Node11&#45;&gt;Node16</title>
<g id="a_edge15_Node000011_Node000016"><a xlink:title=" ">
<path fill="none" stroke="#63b8ff" d="M777.68,-239.99C800.88,-234.76 827.5,-228.76 851.86,-223.27"/>
<polygon fill="#63b8ff" stroke="#63b8ff" points="852.79,-226.65 861.78,-221.04 851.26,-219.82 852.79,-226.65"/>
</a>
</g>
</g>
<!-- Node18 -->
<g id="Node000018" class="node">
<title>Node18</title>
<g id="a_Node000018"><a xlink:href="../../de/dc7/classEonPlay_1_1Data_1_1MediaFile.html#a8e21eb7ca2b0ea4dbc709f3e0f1b5740" target="_top" xlink:title=" ">
<polygon fill="white" stroke="#666666" points="998,-173 861,-173 861,-143 998,-143 998,-173"/>
<text text-anchor="start" x="869" y="-161" font-family="Helvetica,sans-Serif" font-size="10.00">EonPlay::Data::MediaFile</text>
<text text-anchor="middle" x="929.5" y="-150" font-family="Helvetica,sans-Serif" font-size="10.00">::setDuration</text>
</a>
</g>
</g>
<!-- Node11&#45;&gt;Node18 -->
<g id="edge17_Node000011_Node000018" class="edge">
<title>Node11&#45;&gt;Node18</title>
<g id="a_edge17_Node000011_Node000018"><a xlink:title=" ">
<path fill="none" stroke="#63b8ff" d="M737.53,-238.89C761.73,-222.86 802.2,-197.74 840,-182 844.96,-179.93 850.15,-178 855.42,-176.19"/>
<polygon fill="#63b8ff" stroke="#63b8ff" points="856.55,-179.5 864.98,-173.07 854.38,-172.85 856.55,-179.5"/>
</a>
</g>
</g>
<!-- Node20 -->
<g id="Node000020" class="node">
<title>Node20</title>
<g id="a_Node000020"><a xlink:href="../../de/dc7/classEonPlay_1_1Data_1_1MediaFile.html#a2803406d0a659719a22162057febdc28" target="_top" xlink:title=" ">
<polygon fill="white" stroke="#666666" points="998,-504 861,-504 861,-474 998,-474 998,-504"/>
<text text-anchor="start" x="869" y="-492" font-family="Helvetica,sans-Serif" font-size="10.00">EonPlay::Data::MediaFile</text>
<text text-anchor="middle" x="929.5" y="-481" font-family="Helvetica,sans-Serif" font-size="10.00">::setFilePath</text>
</a>
</g>
</g>
<!-- Node11&#45;&gt;Node20 -->
<g id="edge19_Node000011_Node000020" class="edge">
<title>Node11&#45;&gt;Node20</title>
<g id="a_edge19_Node000011_Node000020"><a xlink:title=" ">
<path fill="none" stroke="#63b8ff" d="M764.55,-269.1C778.98,-275.65 793.66,-284.71 804,-297 841.22,-341.24 807.28,-374.34 840,-422 853.12,-441.11 873.46,-457.06 891.33,-468.6"/>
<polygon fill="#63b8ff" stroke="#63b8ff" points="889.52,-471.59 899.86,-473.9 893.21,-465.65 889.52,-471.59"/>
</a>
</g>
</g>
<!-- Node22 -->
<g id="Node000022" class="node">
<title>Node22</title>
<g id="a_Node000022"><a xlink:href="../../de/dc7/classEonPlay_1_1Data_1_1MediaFile.html#a7598825cbdac94beb499b01f69be7d32" target="_top" xlink:title=" ">
<polygon fill="white" stroke="#666666" points="998,-317 861,-317 861,-287 998,-287 998,-317"/>
<text text-anchor="start" x="869" y="-305" font-family="Helvetica,sans-Serif" font-size="10.00">EonPlay::Data::MediaFile</text>
<text text-anchor="middle" x="929.5" y="-294" font-family="Helvetica,sans-Serif" font-size="10.00">::setId</text>
</a>
</g>
</g>
<!-- Node11&#45;&gt;Node22 -->
<g id="edge21_Node000011_Node000022" class="edge">
<title>Node11&#45;&gt;Node22</title>
<g id="a_edge21_Node000011_Node000022"><a xlink:title=" ">
<path fill="none" stroke="#63b8ff" d="M777.68,-268.01C800.88,-273.24 827.5,-279.24 851.86,-284.73"/>
<polygon fill="#63b8ff" stroke="#63b8ff" points="851.26,-288.18 861.78,-286.96 852.79,-281.35 851.26,-288.18"/>
</a>
</g>
</g>
<!-- Node24 -->
<g id="Node000024" class="node">
<title>Node24</title>
<g id="a_Node000024"><a xlink:href="../../de/dc7/classEonPlay_1_1Data_1_1MediaFile.html#ab5c607a255318448ec724daec9ad0cf4" target="_top" xlink:title=" ">
<polygon fill="white" stroke="#666666" points="998,-73 861,-73 861,-43 998,-43 998,-73"/>
<text text-anchor="start" x="869" y="-61" font-family="Helvetica,sans-Serif" font-size="10.00">EonPlay::Data::MediaFile</text>
<text text-anchor="middle" x="929.5" y="-50" font-family="Helvetica,sans-Serif" font-size="10.00">::setTitle</text>
</a>
</g>
</g>
<!-- Node11&#45;&gt;Node24 -->
<g id="edge23_Node000011_Node000024" class="edge">
<title>Node11&#45;&gt;Node24</title>
<g id="a_edge23_Node000011_Node000024"><a xlink:title=" ">
<path fill="none" stroke="#63b8ff" d="M730.56,-238.93C753.71,-215.91 799.59,-170.77 840,-134 860.65,-115.21 884.73,-94.61 902.56,-79.61"/>
<polygon fill="#63b8ff" stroke="#63b8ff" points="904.86,-82.24 910.27,-73.13 900.36,-76.88 904.86,-82.24"/>
</a>
</g>
</g>
<!-- Node15 -->
<g id="Node000015" class="node">
<title>Node15</title>
<g id="a_Node000015"><a xlink:href="../../de/dc7/classEonPlay_1_1Data_1_1MediaFile.html#a09f8ad403a921430628d18e76dd90023" target="_top" xlink:title=" ">
<polygon fill="white" stroke="#666666" points="1199.5,-269 1062.5,-269 1062.5,-239 1199.5,-239 1199.5,-269"/>
<text text-anchor="start" x="1070.5" y="-257" font-family="Helvetica,sans-Serif" font-size="10.00">EonPlay::Data::MediaFile</text>
<text text-anchor="middle" x="1131" y="-246" font-family="Helvetica,sans-Serif" font-size="10.00">::album</text>
</a>
</g>
</g>
<!-- Node14&#45;&gt;Node15 -->
<g id="edge14_Node000014_Node000015" class="edge">
<title>Node14&#45;&gt;Node15</title>
<g id="a_edge14_Node000014_Node000015"><a xlink:title=" ">
<path fill="none" stroke="#63b8ff" d="M998.04,-254C1015.33,-254 1034.07,-254 1051.85,-254"/>
<polygon fill="#63b8ff" stroke="#63b8ff" points="1052.19,-257.5 1062.19,-254 1052.19,-250.5 1052.19,-257.5"/>
</a>
</g>
</g>
<!-- Node17 -->
<g id="Node000017" class="node">
<title>Node17</title>
<g id="a_Node000017"><a xlink:href="../../de/dc7/classEonPlay_1_1Data_1_1MediaFile.html#a75c0e956449eb91ad71bb2644110c83e" target="_top" xlink:title=" ">
<polygon fill="white" stroke="#666666" points="1199.5,-221 1062.5,-221 1062.5,-191 1199.5,-191 1199.5,-221"/>
<text text-anchor="start" x="1070.5" y="-209" font-family="Helvetica,sans-Serif" font-size="10.00">EonPlay::Data::MediaFile</text>
<text text-anchor="middle" x="1131" y="-198" font-family="Helvetica,sans-Serif" font-size="10.00">::artist</text>
</a>
</g>
</g>
<!-- Node16&#45;&gt;Node17 -->
<g id="edge16_Node000016_Node000017" class="edge">
<title>Node16&#45;&gt;Node17</title>
<g id="a_edge16_Node000016_Node000017"><a xlink:title=" ">
<path fill="none" stroke="#63b8ff" d="M998.04,-206C1015.33,-206 1034.07,-206 1051.85,-206"/>
<polygon fill="#63b8ff" stroke="#63b8ff" points="1052.19,-209.5 1062.19,-206 1052.19,-202.5 1052.19,-209.5"/>
</a>
</g>
</g>
<!-- Node19 -->
<g id="Node000019" class="node">
<title>Node19</title>
<g id="a_Node000019"><a xlink:href="../../de/dc7/classEonPlay_1_1Data_1_1MediaFile.html#a9f59cdb65f31f8506749bd6984339c0f" target="_top" xlink:title=" ">
<polygon fill="white" stroke="#666666" points="1199.5,-173 1062.5,-173 1062.5,-143 1199.5,-143 1199.5,-173"/>
<text text-anchor="start" x="1070.5" y="-161" font-family="Helvetica,sans-Serif" font-size="10.00">EonPlay::Data::MediaFile</text>
<text text-anchor="middle" x="1131" y="-150" font-family="Helvetica,sans-Serif" font-size="10.00">::duration</text>
</a>
</g>
</g>
<!-- Node18&#45;&gt;Node19 -->
<g id="edge18_Node000018_Node000019" class="edge">
<title>Node18&#45;&gt;Node19</title>
<g id="a_edge18_Node000018_Node000019"><a xlink:title=" ">
<path fill="none" stroke="#63b8ff" d="M998.04,-158C1015.33,-158 1034.07,-158 1051.85,-158"/>
<polygon fill="#63b8ff" stroke="#63b8ff" points="1052.19,-161.5 1062.19,-158 1052.19,-154.5 1052.19,-161.5"/>
</a>
</g>
</g>
<!-- Node21 -->
<g id="Node000021" class="node">
<title>Node21</title>
<g id="a_Node000021"><a xlink:href="../../de/dc7/classEonPlay_1_1Data_1_1MediaFile.html#a7eb834a0663186a43f3eacb12d18ded7" target="_top" xlink:title=" ">
<polygon fill="white" stroke="#666666" points="1199.5,-614 1062.5,-614 1062.5,-584 1199.5,-584 1199.5,-614"/>
<text text-anchor="start" x="1070.5" y="-602" font-family="Helvetica,sans-Serif" font-size="10.00">EonPlay::Data::MediaFile</text>
<text text-anchor="middle" x="1131" y="-591" font-family="Helvetica,sans-Serif" font-size="10.00">::filePath</text>
</a>
</g>
</g>
<!-- Node20&#45;&gt;Node21 -->
<g id="edge20_Node000020_Node000021" class="edge">
<title>Node20&#45;&gt;Node21</title>
<g id="a_edge20_Node000020_Node000021"><a xlink:title=" ">
<path fill="none" stroke="#63b8ff" d="M957.82,-504.06C993.09,-523.51 1054.57,-557.41 1093.73,-579"/>
<polygon fill="#63b8ff" stroke="#63b8ff" points="1092.24,-582.18 1102.69,-583.94 1095.62,-576.05 1092.24,-582.18"/>
</a>
</g>
</g>
<!-- Node23 -->
<g id="Node000023" class="node">
<title>Node23</title>
<g id="a_Node000023"><a xlink:href="../../de/dc7/classEonPlay_1_1Data_1_1MediaFile.html#aeb83eaa447b5b8ee7ffd807ba13f91de" target="_top" xlink:title=" ">
<polygon fill="white" stroke="#666666" points="1207,-438.5 1055,-438.5 1055,-419.5 1207,-419.5 1207,-438.5"/>
<text text-anchor="middle" x="1131" y="-426.5" font-family="Helvetica,sans-Serif" font-size="10.00">EonPlay::Data::MediaFile::id</text>
</a>
</g>
</g>
<!-- Node22&#45;&gt;Node23 -->
<g id="edge22_Node000022_Node000023" class="edge">
<title>Node22&#45;&gt;Node23</title>
<g id="a_edge22_Node000022_Node000023"><a xlink:title=" ">
<path fill="none" stroke="#63b8ff" d="M998.06,-316.61C1005.33,-319.27 1012.46,-322.37 1019,-326 1059.36,-348.39 1096.57,-388.51 1115.97,-411.52"/>
<polygon fill="#63b8ff" stroke="#63b8ff" points="1113.43,-413.94 1122.5,-419.42 1118.83,-409.48 1113.43,-413.94"/>
</a>
</g>
</g>
<!-- Node25 -->
<g id="Node000025" class="node">
<title>Node25</title>
<g id="a_Node000025"><a xlink:href="../../de/dc7/classEonPlay_1_1Data_1_1MediaFile.html#ad6daf8d51553ea2d923d87f4e6b84e01" target="_top" xlink:title=" ">
<polygon fill="white" stroke="#666666" points="1199.5,-73 1062.5,-73 1062.5,-43 1199.5,-43 1199.5,-73"/>
<text text-anchor="start" x="1070.5" y="-61" font-family="Helvetica,sans-Serif" font-size="10.00">EonPlay::Data::MediaFile</text>
<text text-anchor="middle" x="1131" y="-50" font-family="Helvetica,sans-Serif" font-size="10.00">::title</text>
</a>
</g>
</g>
<!-- Node24&#45;&gt;Node25 -->
<g id="edge24_Node000024_Node000025" class="edge">
<title>Node24&#45;&gt;Node25</title>
<g id="a_edge24_Node000024_Node000025"><a xlink:title=" ">
<path fill="none" stroke="#63b8ff" d="M998.04,-58C1015.33,-58 1034.07,-58 1051.85,-58"/>
<polygon fill="#63b8ff" stroke="#63b8ff" points="1052.19,-61.5 1062.19,-58 1052.19,-54.5 1052.19,-61.5"/>
</a>
</g>
</g>
<!-- Node29&#45;&gt;Node24 -->
<g id="edge30_Node000029_Node000024" class="edge">
<title>Node29&#45;&gt;Node24</title>
<g id="a_edge30_Node000029_Node000024"><a xlink:title=" ">
<path fill="none" stroke="#63b8ff" d="M777.68,-58C800.46,-58 826.53,-58 850.52,-58"/>
<polygon fill="#63b8ff" stroke="#63b8ff" points="850.65,-61.5 860.65,-58 850.65,-54.5 850.65,-61.5"/>
</a>
</g>
</g>
<!-- Node30&#45;&gt;Node24 -->
<g id="edge32_Node000030_Node000024" class="edge">
<title>Node30&#45;&gt;Node24</title>
<g id="a_edge32_Node000030_Node000024"><a xlink:title=" ">
<path fill="none" stroke="#63b8ff" d="M352.78,-14.23C449.62,-13.73 642.02,-15.5 804,-34 819.25,-35.74 835.43,-38.31 850.9,-41.14"/>
<polygon fill="#63b8ff" stroke="#63b8ff" points="850.47,-44.62 860.95,-43.02 851.76,-37.74 850.47,-44.62"/>
</a>
</g>
</g>
<!-- Node31&#45;&gt;Node3 -->
<g id="edge37_Node000031_Node000003" class="edge">
<title>Node31&#45;&gt;Node3</title>
<g id="a_edge37_Node000031_Node000003"><a xlink:title=" ">
<path fill="none" stroke="#63b8ff" d="M313.45,-550.87C336.9,-535.97 374.77,-513.39 410,-499 415.07,-496.93 420.37,-494.98 425.75,-493.16"/>
<polygon fill="#63b8ff" stroke="#63b8ff" points="427.04,-496.42 435.49,-490.03 424.9,-489.76 427.04,-496.42"/>
</a>
</g>
</g>
<!-- Node31&#45;&gt;Node21 -->
<g id="edge38_Node000031_Node000021" class="edge">
<title>Node31&#45;&gt;Node21</title>
<g id="a_edge38_Node000031_Node000021"><a xlink:title=" ">
<path fill="none" stroke="#63b8ff" d="M300.4,-581.33C318.45,-607.67 359.53,-660.66 410,-681 650.66,-777.99 970.86,-665.49 1086.24,-618.08"/>
<polygon fill="#63b8ff" stroke="#63b8ff" points="1087.91,-621.18 1095.8,-614.11 1085.22,-614.72 1087.91,-621.18"/>
</a>
</g>
</g>
<!-- Node31&#45;&gt;Node23 -->
<g id="edge39_Node000031_Node000023" class="edge">
<title>Node31&#45;&gt;Node23</title>
<g id="a_edge39_Node000031_Node000023"><a xlink:title=" ">
<path fill="none" stroke="#63b8ff" d="M352.52,-573.09C481.52,-585.39 786.09,-601.56 1019,-513 1057.49,-498.37 1093.91,-466 1113.97,-445.99"/>
<polygon fill="#63b8ff" stroke="#63b8ff" points="1116.57,-448.34 1121.06,-438.75 1111.57,-443.45 1116.57,-448.34"/>
</a>
</g>
</g>
<!-- Node32 -->
<g id="Node000032" class="node">
<title>Node32</title>
<g id="a_Node000032"><a xlink:href="../../da/db6/classEonPlay_1_1Data_1_1DatabaseManager.html#aca1d848bb9b4f1a489f0bd42dbb3a423" target="_top" xlink:title=" ">
<polygon fill="white" stroke="#666666" points="589,-624 410,-624 410,-594 589,-594 589,-624"/>
<text text-anchor="start" x="418" y="-612" font-family="Helvetica,sans-Serif" font-size="10.00">EonPlay::Data::DatabaseManager</text>
<text text-anchor="middle" x="499.5" y="-601" font-family="Helvetica,sans-Serif" font-size="10.00">::addToPlaylist</text>
</a>
</g>
</g>
<!-- Node31&#45;&gt;Node32 -->
<g id="edge35_Node000031_Node000032" class="edge">
<title>Node31&#45;&gt;Node32</title>
<g id="a_edge35_Node000031_Node000032"><a xlink:title=" ">
<path fill="none" stroke="#63b8ff" d="M352.63,-578.84C372.47,-582.95 394.75,-587.55 415.81,-591.91"/>
<polygon fill="#63b8ff" stroke="#63b8ff" points="415.21,-595.36 425.72,-593.95 416.63,-588.5 415.21,-595.36"/>
</a>
</g>
</g>
<!-- Node33 -->
<g id="Node000033" class="node">
<title>Node33</title>
<g id="a_Node000033"><a xlink:href="../../da/db6/classEonPlay_1_1Data_1_1DatabaseManager.html#a16184bd944b8c3a9ec5309c9b23f97dc" target="_top" xlink:title=" ">
<polygon fill="white" stroke="#666666" points="589,-672 410,-672 410,-642 589,-642 589,-672"/>
<text text-anchor="start" x="418" y="-660" font-family="Helvetica,sans-Serif" font-size="10.00">EonPlay::Data::DatabaseManager</text>
<text text-anchor="middle" x="499.5" y="-649" font-family="Helvetica,sans-Serif" font-size="10.00">::clearPlaylist</text>
</a>
</g>
</g>
<!-- Node31&#45;&gt;Node33 -->
<g id="edge36_Node000031_Node000033" class="edge">
<title>Node31&#45;&gt;Node33</title>
<g id="a_edge36_Node000031_Node000033"><a xlink:title=" ">
<path fill="none" stroke="#63b8ff" d="M313.45,-581.13C336.9,-596.03 374.77,-618.61 410,-633 415.07,-635.07 420.37,-637.02 425.75,-638.84"/>
<polygon fill="#63b8ff" stroke="#63b8ff" points="424.9,-642.24 435.49,-641.97 427.04,-635.58 424.9,-642.24"/>
</a>
</g>
</g>
<!-- Node34 -->
<g id="Node000034" class="node">
<title>Node34</title>
<g id="a_Node000034"><a xlink:href="../../da/db6/classEonPlay_1_1Data_1_1DatabaseManager.html#a8d7f20255de6ed1c6492804aeb6e3d30" target="_top" xlink:title=" ">
<polygon fill="white" stroke="#666666" points="589,-538 410,-538 410,-508 589,-508 589,-538"/>
<text text-anchor="start" x="418" y="-526" font-family="Helvetica,sans-Serif" font-size="10.00">EonPlay::Data::DatabaseManager</text>
<text text-anchor="middle" x="499.5" y="-515" font-family="Helvetica,sans-Serif" font-size="10.00">::updatePlaylist</text>
</a>
</g>
</g>
<!-- Node31&#45;&gt;Node34 -->
<g id="edge40_Node000031_Node000034" class="edge">
<title>Node31&#45;&gt;Node34</title>
<g id="a_edge40_Node000031_Node000034"><a xlink:title=" ">
<path fill="none" stroke="#63b8ff" d="M352.63,-553.16C372.47,-549.05 394.75,-544.45 415.81,-540.09"/>
<polygon fill="#63b8ff" stroke="#63b8ff" points="416.63,-543.5 425.72,-538.05 415.21,-536.64 416.63,-543.5"/>
</a>
</g>
</g>
<!-- Node34&#45;&gt;Node6 -->
<g id="edge41_Node000034_Node000006" class="edge">
<title>Node34&#45;&gt;Node6</title>
<g id="a_edge41_Node000034_Node000006"><a xlink:title=" ">
<path fill="none" stroke="#63b8ff" d="M567.31,-507.94C589.42,-502.96 614.18,-497.38 636.96,-492.25"/>
<polygon fill="#63b8ff" stroke="#63b8ff" points="637.94,-495.62 646.93,-490 636.4,-488.79 637.94,-495.62"/>
</a>
</g>
</g>
</g>
</svg>

<g id="navigator" transform="translate(0 0)" fill="#404254">
  <rect fill="#f2f5e9" fill-opacity="0.5" stroke="#606060" stroke-width=".5" x="0" y="0" width="60" height="60"/>
  <use id="zoomplus" xlink:href="#zoomPlus" x="17" y="9" onmousedown="handleZoom(evt,'in')"/>
  <use id="zoomminus" xlink:href="#zoomMin" x="42" y="9" onmousedown="handleZoom(evt,'out')"/>
  <use id="reset" xlink:href="#resetDef" x="30" y="36" onmousedown="handleReset()"/>
   <use id="arrowup" xlink:href="#arrowUp" x="0" y="0" onmousedown="handlePan(0,-1)"/>
  <use id="arrowright" xlink:href="#arrowRight" x="0" y="0" onmousedown="handlePan(1,0)"/>
  <use id="arrowdown" xlink:href="#arrowDown" x="0" y="0" onmousedown="handlePan(0,1)"/>
  <use id="arrowleft" xlink:href="#arrowLeft" x="0" y="0" onmousedown="handlePan(-1,0)"/>
</g>
<svg viewBox="0 0 15 15" width="100%" height="30px" preserveAspectRatio="xMaxYMin meet">
 <g id="arrow_out" transform="scale(0.3 0.3)">
  <a xlink:href="classEonPlay_1_1Data_1_1PlaylistManager_ae9590c9a80460f5329ccc64f71501688_cgraph_org.svg" target="_base">
   <rect id="button" ry="5" rx="5" y="6" x="6" height="38" width="38"
        fill="#f2f5e9" fill-opacity="0.5" stroke="#606060" stroke-width="1.0"/>
   <path id="arrow"
     d="M 11.500037,31.436501 C 11.940474,20.09759 22.043105,11.32322 32.158766,21.979434 L 37.068811,17.246167 C 37.068811,17.246167 37.088388,32 37.088388,32 L 22.160133,31.978069 C 22.160133,31.978069 26.997745,27.140456 26.997745,27.140456 C 18.528582,18.264221 13.291696,25.230495 11.500037,31.436501 z"
     style="fill:#404040;"/>
  </a>
 </g>
</svg>

<style type='text/css'>
<![CDATA[
[data-mouse-over-selected='false'] { opacity: 0.7; }
[data-mouse-over-selected='true']  { opacity: 1.0; }
]]>
</style>
<script type="application/ecmascript"><![CDATA[
document.addEventListener('DOMContentLoaded', (event) => {
  highlightEdges();
  highlightAdjacentNodes();
});
]]></script>
</svg>
