<?xml version="1.0" encoding="UTF-8" standalone="no"?>
<!DOCTYPE svg PUBLIC "-//W3C//DTD SVG 1.1//EN"
 "http://www.w3.org/Graphics/SVG/1.1/DTD/svg11.dtd">
<!-- Generated by graphviz version 2.43.0 (0)
 -->
<!-- Title: EonPlay::Data::PlaylistManager::removeFromPlaylist Pages: 1 -->
<!--zoomable 359 -->

<svg id="main" version="1.1" xmlns="http://www.w3.org/2000/svg" xmlns:xlink="http://www.w3.org/1999/xlink" xml:space="preserve" onload="init(evt)">
<style type="text/css"><![CDATA[
.node, .edge {opacity: 0.7;}
.node.selected, .edge.selected {opacity: 1;}
.edge:hover path { stroke: red; }
.edge:hover polygon { stroke: red; fill: red; }
]]></style>

<defs>
  <circle id="rim" cx="0" cy="0" r="7"/>
  <circle id="rim2" cx="0" cy="0" r="3.5"/>
  <g id="zoomPlus">
    <use xlink:href="#rim" fill="#404040"><set attributeName="fill" to="#808080" begin="zoomplus.mouseover" end="zoomplus.mouseout"/></use>
    <path d="M-4,0h8M0,-4v8" fill="none" stroke="white" stroke-width="1.5" pointer-events="none"/>
  </g>
  <g id="zoomMin">
    <use xlink:href="#rim" fill="#404040"><set attributeName="fill" to="#808080" begin="zoomminus.mouseover" end="zoomminus.mouseout"/></use>
    <path d="M-4,0h8" fill="none" stroke="white" stroke-width="1.5" pointer-events="none"/>
  </g>
  <g id="arrowUp" transform="translate(30 24)">
    <use xlink:href="#rim"/>
    <path pointer-events="none" fill="none" stroke="white" stroke-width="1.5" d="M0,-3.0v7 M-2.5,-0.5L0,-3.0L2.5,-0.5"/>
  </g>
  <g id="arrowRight" transform="rotate(90) translate(36 -43)">
    <use xlink:href="#rim"/>
    <path pointer-events="none" fill="none" stroke="white" stroke-width="1.5" d="M0,-3.0v7 M-2.5,-0.5L0,-3.0L2.5,-0.5"/>
  </g>
  <g id="arrowDown" transform="rotate(180) translate(-30 -48)">
    <use xlink:href="#rim"/>
    <path pointer-events="none" fill="none" stroke="white" stroke-width="1.5" d="M0,-3.0v7 M-2.5,-0.5L0,-3.0L2.5,-0.5"/>
  </g>
  <g id="arrowLeft" transform="rotate(270) translate(-36 17)">
    <use xlink:href="#rim"/>
    <path pointer-events="none" fill="none" stroke="white" stroke-width="1.5" d="M0,-3.0v7 M-2.5,-0.5L0,-3.0L2.5,-0.5"/>
  </g>
  <g id="resetDef">
    <use xlink:href="#rim2" fill="#404040"><set attributeName="fill" to="#808080" begin="reset.mouseover" end="reset.mouseout"/></use>
  </g>
</defs>
<script type="application/ecmascript">
var viewWidth = 995;
var viewHeight = 359;
var sectionId = 'dynsection-70';
</script>
<script type="application/ecmascript" xlink:href="../../svg.min.js"/>
<svg id="graph" class="graph">
<g id="viewport">
<title>EonPlay::Data::PlaylistManager::removeFromPlaylist</title>
<!-- Node1 -->
<g id="Node000001" class="node">
<title>Node1</title>
<g id="a_Node000001"><a xlink:title=" ">
<polygon fill="#999999" stroke="#666666" points="169,-241 0,-241 0,-211 169,-211 169,-241"/>
<text text-anchor="start" x="8" y="-229" font-family="Helvetica,sans-Serif" font-size="10.00">EonPlay::Data::PlaylistManager</text>
<text text-anchor="middle" x="84.5" y="-218" font-family="Helvetica,sans-Serif" font-size="10.00">::removeFromPlaylist</text>
</a>
</g>
</g>
<!-- Node2 -->
<g id="Node000002" class="node">
<title>Node2</title>
<g id="a_Node000002"><a xlink:href="../../da/db6/classEonPlay_1_1Data_1_1DatabaseManager.html#a1e98619f4bbbd1a752e22ee1465aa209" target="_top" xlink:title=" ">
<polygon fill="white" stroke="#666666" points="384,-351 205,-351 205,-321 384,-321 384,-351"/>
<text text-anchor="start" x="213" y="-339" font-family="Helvetica,sans-Serif" font-size="10.00">EonPlay::Data::DatabaseManager</text>
<text text-anchor="middle" x="294.5" y="-328" font-family="Helvetica,sans-Serif" font-size="10.00">::getPlaylistItems</text>
</a>
</g>
</g>
<!-- Node1&#45;&gt;Node2 -->
<g id="edge1_Node000001_Node000002" class="edge">
<title>Node1&#45;&gt;Node2</title>
<g id="a_edge1_Node000001_Node000002"><a xlink:title=" ">
<path fill="none" stroke="#63b8ff" d="M104.35,-241.24C127.08,-259.02 166.97,-288.34 205,-307 212.8,-310.83 221.23,-314.33 229.68,-317.47"/>
<polygon fill="#63b8ff" stroke="#63b8ff" points="228.6,-320.8 239.2,-320.86 230.95,-314.21 228.6,-320.8"/>
</a>
</g>
</g>
<!-- Node3 -->
<g id="Node000003" class="node">
<title>Node3</title>
<g id="a_Node000003"><a xlink:href="../../de/dc7/classEonPlay_1_1Data_1_1MediaFile.html#ac58b462f918e2599c573f99938b2f926" target="_top" xlink:title=" ">
<polygon fill="white" stroke="#666666" points="578,-308 441,-308 441,-278 578,-278 578,-308"/>
<text text-anchor="start" x="449" y="-296" font-family="Helvetica,sans-Serif" font-size="10.00">EonPlay::Data::MediaFile</text>
<text text-anchor="middle" x="509.5" y="-285" font-family="Helvetica,sans-Serif" font-size="10.00">::isValid</text>
</a>
</g>
</g>
<!-- Node1&#45;&gt;Node3 -->
<g id="edge2_Node000001_Node000003" class="edge">
<title>Node1&#45;&gt;Node3</title>
<g id="a_edge2_Node000001_Node000003"><a xlink:title=" ">
<path fill="none" stroke="#63b8ff" d="M115.58,-241.22C139.24,-252.4 173.38,-266.85 205,-274 280.37,-291.03 368.75,-294.8 430.64,-294.9"/>
<polygon fill="#63b8ff" stroke="#63b8ff" points="430.73,-298.4 440.72,-294.89 430.72,-291.4 430.73,-298.4"/>
</a>
</g>
</g>
<!-- Node6 -->
<g id="Node000006" class="node">
<title>Node6</title>
<g id="a_Node000006"><a xlink:href="../../dd/d67/classEonPlay_1_1Data_1_1PlaylistManager.html#aec45bb274b5d3933fb90e40cd3fb6c23" target="_top" xlink:title=" ">
<polygon fill="white" stroke="#666666" points="379,-217 210,-217 210,-187 379,-187 379,-217"/>
<text text-anchor="start" x="218" y="-205" font-family="Helvetica,sans-Serif" font-size="10.00">EonPlay::Data::PlaylistManager</text>
<text text-anchor="middle" x="294.5" y="-194" font-family="Helvetica,sans-Serif" font-size="10.00">::removeFromPlaylist</text>
</a>
</g>
</g>
<!-- Node1&#45;&gt;Node6 -->
<g id="edge5_Node000001_Node000006" class="edge">
<title>Node1&#45;&gt;Node6</title>
<g id="a_edge5_Node000001_Node000006"><a xlink:title=" ">
<path fill="none" stroke="#63b8ff" d="M169.2,-216.34C179.28,-215.18 189.62,-213.99 199.82,-212.81"/>
<polygon fill="#63b8ff" stroke="#63b8ff" points="200.44,-216.26 209.97,-211.64 199.63,-209.31 200.44,-216.26"/>
</a>
</g>
</g>
<!-- Node14 -->
<g id="Node000014" class="node">
<title>Node14</title>
<g id="a_Node000014"><a xlink:href="../../de/dc7/classEonPlay_1_1Data_1_1MediaFile.html#a2803406d0a659719a22162057febdc28" target="_top" xlink:title=" ">
<polygon fill="white" stroke="#666666" points="363,-146 226,-146 226,-116 363,-116 363,-146"/>
<text text-anchor="start" x="234" y="-134" font-family="Helvetica,sans-Serif" font-size="10.00">EonPlay::Data::MediaFile</text>
<text text-anchor="middle" x="294.5" y="-123" font-family="Helvetica,sans-Serif" font-size="10.00">::setFilePath</text>
</a>
</g>
</g>
<!-- Node1&#45;&gt;Node14 -->
<g id="edge14_Node000001_Node000014" class="edge">
<title>Node1&#45;&gt;Node14</title>
<g id="a_edge14_Node000001_Node000014"><a xlink:title=" ">
<path fill="none" stroke="#63b8ff" d="M118.46,-210.95C154.26,-194.6 211.57,-168.42 250.79,-150.51"/>
<polygon fill="#63b8ff" stroke="#63b8ff" points="252.71,-153.48 260.35,-146.14 249.8,-147.11 252.71,-153.48"/>
</a>
</g>
</g>
<!-- Node16 -->
<g id="Node000016" class="node">
<title>Node16</title>
<g id="a_Node000016"><a xlink:href="../../de/dc7/classEonPlay_1_1Data_1_1MediaFile.html#a7598825cbdac94beb499b01f69be7d32" target="_top" xlink:title=" ">
<polygon fill="white" stroke="#666666" points="363,-265 226,-265 226,-235 363,-235 363,-265"/>
<text text-anchor="start" x="234" y="-253" font-family="Helvetica,sans-Serif" font-size="10.00">EonPlay::Data::MediaFile</text>
<text text-anchor="middle" x="294.5" y="-242" font-family="Helvetica,sans-Serif" font-size="10.00">::setId</text>
</a>
</g>
</g>
<!-- Node1&#45;&gt;Node16 -->
<g id="edge16_Node000001_Node000016" class="edge">
<title>Node1&#45;&gt;Node16</title>
<g id="a_edge16_Node000001_Node000016"><a xlink:title=" ">
<path fill="none" stroke="#63b8ff" d="M169.2,-235.66C184.52,-237.43 200.45,-239.26 215.59,-241.01"/>
<polygon fill="#63b8ff" stroke="#63b8ff" points="215.59,-244.53 225.93,-242.2 216.39,-237.58 215.59,-244.53"/>
</a>
</g>
</g>
<!-- Node17 -->
<g id="Node000017" class="node">
<title>Node17</title>
<g id="a_Node000017"><a xlink:href="../../de/dc7/classEonPlay_1_1Data_1_1MediaFile.html#ab5c607a255318448ec724daec9ad0cf4" target="_top" xlink:title=" ">
<polygon fill="white" stroke="#666666" points="363,-53 226,-53 226,-23 363,-23 363,-53"/>
<text text-anchor="start" x="234" y="-41" font-family="Helvetica,sans-Serif" font-size="10.00">EonPlay::Data::MediaFile</text>
<text text-anchor="middle" x="294.5" y="-30" font-family="Helvetica,sans-Serif" font-size="10.00">::setTitle</text>
</a>
</g>
</g>
<!-- Node1&#45;&gt;Node17 -->
<g id="edge18_Node000001_Node000017" class="edge">
<title>Node1&#45;&gt;Node17</title>
<g id="a_edge18_Node000001_Node000017"><a xlink:title=" ">
<path fill="none" stroke="#63b8ff" d="M99.66,-210.75C121.5,-187.52 165.04,-142.25 205,-107 224.09,-90.17 246.74,-72.55 264.34,-59.33"/>
<polygon fill="#63b8ff" stroke="#63b8ff" points="266.62,-62 272.55,-53.21 262.44,-56.38 266.62,-62"/>
</a>
</g>
</g>
<!-- Node4 -->
<g id="Node000004" class="node">
<title>Node4</title>
<g id="a_Node000004"><a xlink:href="../../de/dc7/classEonPlay_1_1Data_1_1MediaFile.html#ad640ac7e92f75f102d2828dc0b092eb0" target="_top" xlink:title=" ">
<polygon fill="white" stroke="#666666" points="793,-308 656,-308 656,-278 793,-278 793,-308"/>
<text text-anchor="start" x="664" y="-296" font-family="Helvetica,sans-Serif" font-size="10.00">EonPlay::Data::MediaFile</text>
<text text-anchor="middle" x="724.5" y="-285" font-family="Helvetica,sans-Serif" font-size="10.00">::fileExists</text>
</a>
</g>
</g>
<!-- Node3&#45;&gt;Node4 -->
<g id="edge3_Node000003_Node000004" class="edge">
<title>Node3&#45;&gt;Node4</title>
<g id="a_edge3_Node000003_Node000004"><a xlink:title=" ">
<path fill="none" stroke="#63b8ff" d="M578.19,-293C599.74,-293 623.74,-293 645.94,-293"/>
<polygon fill="#63b8ff" stroke="#63b8ff" points="645.99,-296.5 655.99,-293 645.99,-289.5 645.99,-296.5"/>
</a>
</g>
</g>
<!-- Node5 -->
<g id="Node000005" class="node">
<title>Node5</title>
<g id="a_Node000005"><a xlink:href="../../de/dc7/classEonPlay_1_1Data_1_1MediaFile.html#ad3d64b0f06c4b50e4be23cba4b668680" target="_top" xlink:title=" ">
<polygon fill="white" stroke="#666666" points="987,-308 850,-308 850,-278 987,-278 987,-308"/>
<text text-anchor="start" x="858" y="-296" font-family="Helvetica,sans-Serif" font-size="10.00">EonPlay::Data::MediaFile</text>
<text text-anchor="middle" x="918.5" y="-285" font-family="Helvetica,sans-Serif" font-size="10.00">::fileInfo</text>
</a>
</g>
</g>
<!-- Node4&#45;&gt;Node5 -->
<g id="edge4_Node000004_Node000005" class="edge">
<title>Node4&#45;&gt;Node5</title>
<g id="a_edge4_Node000004_Node000005"><a xlink:title=" ">
<path fill="none" stroke="#63b8ff" d="M793.19,-293C808.25,-293 824.32,-293 839.75,-293"/>
<polygon fill="#63b8ff" stroke="#63b8ff" points="839.77,-296.5 849.77,-293 839.77,-289.5 839.77,-296.5"/>
</a>
</g>
</g>
<!-- Node6&#45;&gt;Node3 -->
<g id="edge7_Node000006_Node000003" class="edge">
<title>Node6&#45;&gt;Node3</title>
<g id="a_edge7_Node000006_Node000003"><a xlink:title=" ">
<path fill="none" stroke="#63b8ff" d="M366.74,-217.09C372.79,-219.62 378.64,-222.57 384,-226 404.99,-239.44 399.01,-255.56 420,-269 423.62,-271.32 427.46,-273.41 431.44,-275.31"/>
<polygon fill="#63b8ff" stroke="#63b8ff" points="430.34,-278.65 440.91,-279.37 433.1,-272.21 430.34,-278.65"/>
</a>
</g>
</g>
<!-- Node7 -->
<g id="Node000007" class="node">
<title>Node7</title>
<g id="a_Node000007"><a xlink:href="../../de/dc7/classEonPlay_1_1Data_1_1MediaFile.html#aeb83eaa447b5b8ee7ffd807ba13f91de" target="_top" xlink:title=" ">
<polygon fill="white" stroke="#666666" points="585.5,-259.5 433.5,-259.5 433.5,-240.5 585.5,-240.5 585.5,-259.5"/>
<text text-anchor="middle" x="509.5" y="-247.5" font-family="Helvetica,sans-Serif" font-size="10.00">EonPlay::Data::MediaFile::id</text>
</a>
</g>
</g>
<!-- Node6&#45;&gt;Node7 -->
<g id="edge6_Node000006_Node000007" class="edge">
<title>Node6&#45;&gt;Node7</title>
<g id="a_edge6_Node000006_Node000007"><a xlink:title=" ">
<path fill="none" stroke="#63b8ff" d="M359.11,-217.04C378.63,-221.6 400.18,-226.57 420,-231 430.8,-233.42 442.36,-235.94 453.44,-238.33"/>
<polygon fill="#63b8ff" stroke="#63b8ff" points="452.93,-241.8 463.44,-240.49 454.4,-234.96 452.93,-241.8"/>
</a>
</g>
</g>
<!-- Node8 -->
<g id="Node000008" class="node">
<title>Node8</title>
<g id="a_Node000008"><a xlink:href="../../dd/d67/classEonPlay_1_1Data_1_1PlaylistManager.html#a4634b60157eef13589941b0c636901b4" target="_top" xlink:title=" ">
<polygon fill="white" stroke="#666666" points="594,-222 425,-222 425,-192 594,-192 594,-222"/>
<text text-anchor="start" x="433" y="-210" font-family="Helvetica,sans-Serif" font-size="10.00">EonPlay::Data::PlaylistManager</text>
<text text-anchor="middle" x="509.5" y="-199" font-family="Helvetica,sans-Serif" font-size="10.00">::itemRemovedFromPlaylist</text>
</a>
</g>
</g>
<!-- Node6&#45;&gt;Node8 -->
<g id="edge8_Node000006_Node000008" class="edge">
<title>Node6&#45;&gt;Node8</title>
<g id="a_edge8_Node000006_Node000008"><a xlink:title=" ">
<path fill="none" stroke="#63b8ff" d="M379.07,-203.96C390.7,-204.23 402.71,-204.52 414.52,-204.79"/>
<polygon fill="#63b8ff" stroke="#63b8ff" points="414.74,-208.3 424.82,-205.04 414.9,-201.3 414.74,-208.3"/>
</a>
</g>
</g>
<!-- Node9 -->
<g id="Node000009" class="node">
<title>Node9</title>
<g id="a_Node000009"><a xlink:href="../../dd/d67/classEonPlay_1_1Data_1_1PlaylistManager.html#a2bc3ed8a7eac97e8a44bb5164b30574e" target="_top" xlink:title=" ">
<polygon fill="white" stroke="#666666" points="594,-174 425,-174 425,-144 594,-144 594,-174"/>
<text text-anchor="start" x="433" y="-162" font-family="Helvetica,sans-Serif" font-size="10.00">EonPlay::Data::PlaylistManager</text>
<text text-anchor="middle" x="509.5" y="-151" font-family="Helvetica,sans-Serif" font-size="10.00">::playlistUpdated</text>
</a>
</g>
</g>
<!-- Node6&#45;&gt;Node9 -->
<g id="edge9_Node000006_Node000009" class="edge">
<title>Node6&#45;&gt;Node9</title>
<g id="a_edge9_Node000006_Node000009"><a xlink:title=" ">
<path fill="none" stroke="#63b8ff" d="M370,-186.96C387.51,-183.43 406.29,-179.63 424.2,-176.02"/>
<polygon fill="#63b8ff" stroke="#63b8ff" points="424.94,-179.44 434.05,-174.03 423.55,-172.58 424.94,-179.44"/>
</a>
</g>
</g>
<!-- Node10 -->
<g id="Node000010" class="node">
<title>Node10</title>
<g id="a_Node000010"><a xlink:href="../../da/db6/classEonPlay_1_1Data_1_1DatabaseManager.html#a71c2ae02457173c5736e0f7a05d7f8af" target="_top" xlink:title=" ">
<polygon fill="white" stroke="#666666" points="599,-126 420,-126 420,-96 599,-96 599,-126"/>
<text text-anchor="start" x="428" y="-114" font-family="Helvetica,sans-Serif" font-size="10.00">EonPlay::Data::DatabaseManager</text>
<text text-anchor="middle" x="509.5" y="-103" font-family="Helvetica,sans-Serif" font-size="10.00">::removeFromPlaylist</text>
</a>
</g>
</g>
<!-- Node6&#45;&gt;Node10 -->
<g id="edge10_Node000006_Node000010" class="edge">
<title>Node6&#45;&gt;Node10</title>
<g id="a_edge10_Node000006_Node000010"><a xlink:title=" ">
<path fill="none" stroke="#63b8ff" d="M324.27,-186.9C341.62,-177.75 364.13,-165.8 384,-155 400.08,-146.26 403.04,-141.89 420,-135 425.07,-132.94 430.37,-131 435.76,-129.19"/>
<polygon fill="#63b8ff" stroke="#63b8ff" points="437.05,-132.45 445.5,-126.06 434.91,-125.78 437.05,-132.45"/>
</a>
</g>
</g>
<!-- Node11 -->
<g id="Node000011" class="node">
<title>Node11</title>
<g id="a_Node000011"><a xlink:href="../../da/db6/classEonPlay_1_1Data_1_1DatabaseManager.html#ac0359ba6c6e98287b9f482f900baf24c" target="_top" xlink:title=" ">
<polygon fill="white" stroke="#666666" points="814,-174 635,-174 635,-144 814,-144 814,-174"/>
<text text-anchor="start" x="643" y="-162" font-family="Helvetica,sans-Serif" font-size="10.00">EonPlay::Data::DatabaseManager</text>
<text text-anchor="middle" x="724.5" y="-151" font-family="Helvetica,sans-Serif" font-size="10.00">::executeQuery</text>
</a>
</g>
</g>
<!-- Node10&#45;&gt;Node11 -->
<g id="edge11_Node000010_Node000011" class="edge">
<title>Node10&#45;&gt;Node11</title>
<g id="a_edge11_Node000010_Node000011"><a xlink:title=" ">
<path fill="none" stroke="#63b8ff" d="M577.31,-126.06C599.42,-131.04 624.18,-136.62 646.96,-141.75"/>
<polygon fill="#63b8ff" stroke="#63b8ff" points="646.4,-145.21 656.93,-144 647.94,-138.38 646.4,-145.21"/>
</a>
</g>
</g>
<!-- Node12 -->
<g id="Node000012" class="node">
<title>Node12</title>
<g id="a_Node000012"><a xlink:href="../../da/db6/classEonPlay_1_1Data_1_1DatabaseManager.html#a4deaf9b67323a597542eec31e8e47f14" target="_top" xlink:title=" ">
<polygon fill="white" stroke="#666666" points="814,-126 635,-126 635,-96 814,-96 814,-126"/>
<text text-anchor="start" x="643" y="-114" font-family="Helvetica,sans-Serif" font-size="10.00">EonPlay::Data::DatabaseManager</text>
<text text-anchor="middle" x="724.5" y="-103" font-family="Helvetica,sans-Serif" font-size="10.00">::playlistCreated</text>
</a>
</g>
</g>
<!-- Node10&#45;&gt;Node12 -->
<g id="edge12_Node000010_Node000012" class="edge">
<title>Node10&#45;&gt;Node12</title>
<g id="a_edge12_Node000010_Node000012"><a xlink:title=" ">
<path fill="none" stroke="#63b8ff" d="M599.29,-111C607.65,-111 616.16,-111 624.6,-111"/>
<polygon fill="#63b8ff" stroke="#63b8ff" points="624.86,-114.5 634.86,-111 624.85,-107.5 624.86,-114.5"/>
</a>
</g>
</g>
<!-- Node13 -->
<g id="Node000013" class="node">
<title>Node13</title>
<g id="a_Node000013"><a xlink:href="../../da/db6/classEonPlay_1_1Data_1_1DatabaseManager.html#a17c3a9ed1ea5a58d450bd7311bddb41c" target="_top" xlink:title=" ">
<polygon fill="white" stroke="#666666" points="814,-78 635,-78 635,-48 814,-48 814,-78"/>
<text text-anchor="start" x="643" y="-66" font-family="Helvetica,sans-Serif" font-size="10.00">EonPlay::Data::DatabaseManager</text>
<text text-anchor="middle" x="724.5" y="-55" font-family="Helvetica,sans-Serif" font-size="10.00">::prepareQuery</text>
</a>
</g>
</g>
<!-- Node10&#45;&gt;Node13 -->
<g id="edge13_Node000010_Node000013" class="edge">
<title>Node10&#45;&gt;Node13</title>
<g id="a_edge13_Node000010_Node000013"><a xlink:title=" ">
<path fill="none" stroke="#63b8ff" d="M577.31,-95.94C599.42,-90.96 624.18,-85.38 646.96,-80.25"/>
<polygon fill="#63b8ff" stroke="#63b8ff" points="647.94,-83.62 656.93,-78 646.4,-76.79 647.94,-83.62"/>
</a>
</g>
</g>
<!-- Node15 -->
<g id="Node000015" class="node">
<title>Node15</title>
<g id="a_Node000015"><a xlink:href="../../de/dc7/classEonPlay_1_1Data_1_1MediaFile.html#a7eb834a0663186a43f3eacb12d18ded7" target="_top" xlink:title=" ">
<polygon fill="white" stroke="#666666" points="578,-78 441,-78 441,-48 578,-48 578,-78"/>
<text text-anchor="start" x="449" y="-66" font-family="Helvetica,sans-Serif" font-size="10.00">EonPlay::Data::MediaFile</text>
<text text-anchor="middle" x="509.5" y="-55" font-family="Helvetica,sans-Serif" font-size="10.00">::filePath</text>
</a>
</g>
</g>
<!-- Node14&#45;&gt;Node15 -->
<g id="edge15_Node000014_Node000015" class="edge">
<title>Node14&#45;&gt;Node15</title>
<g id="a_edge15_Node000014_Node000015"><a xlink:title=" ">
<path fill="none" stroke="#63b8ff" d="M335.61,-115.96C359.89,-107.08 391.55,-95.87 420,-87 426.54,-84.96 433.37,-82.93 440.22,-80.96"/>
<polygon fill="#63b8ff" stroke="#63b8ff" points="441.57,-84.22 450.24,-78.13 439.67,-77.48 441.57,-84.22"/>
</a>
</g>
</g>
<!-- Node16&#45;&gt;Node7 -->
<g id="edge17_Node000016_Node000007" class="edge">
<title>Node16&#45;&gt;Node7</title>
<g id="a_edge17_Node000016_Node000007"><a xlink:title=" ">
<path fill="none" stroke="#63b8ff" d="M363.19,-250C382.26,-250 403.25,-250 423.21,-250"/>
<polygon fill="#63b8ff" stroke="#63b8ff" points="423.22,-253.5 433.22,-250 423.22,-246.5 423.22,-253.5"/>
</a>
</g>
</g>
<!-- Node18 -->
<g id="Node000018" class="node">
<title>Node18</title>
<g id="a_Node000018"><a xlink:href="../../de/dc7/classEonPlay_1_1Data_1_1MediaFile.html#ad6daf8d51553ea2d923d87f4e6b84e01" target="_top" xlink:title=" ">
<polygon fill="white" stroke="#666666" points="578,-30 441,-30 441,0 578,0 578,-30"/>
<text text-anchor="start" x="449" y="-18" font-family="Helvetica,sans-Serif" font-size="10.00">EonPlay::Data::MediaFile</text>
<text text-anchor="middle" x="509.5" y="-7" font-family="Helvetica,sans-Serif" font-size="10.00">::title</text>
</a>
</g>
</g>
<!-- Node17&#45;&gt;Node18 -->
<g id="edge19_Node000017_Node000018" class="edge">
<title>Node17&#45;&gt;Node18</title>
<g id="a_edge19_Node000017_Node000018"><a xlink:title=" ">
<path fill="none" stroke="#63b8ff" d="M363.19,-30.69C384.74,-28.36 408.74,-25.77 430.94,-23.38"/>
<polygon fill="#63b8ff" stroke="#63b8ff" points="431.42,-26.84 440.99,-22.29 430.67,-19.88 431.42,-26.84"/>
</a>
</g>
</g>
</g>
</svg>

<g id="navigator" transform="translate(0 0)" fill="#404254">
  <rect fill="#f2f5e9" fill-opacity="0.5" stroke="#606060" stroke-width=".5" x="0" y="0" width="60" height="60"/>
  <use id="zoomplus" xlink:href="#zoomPlus" x="17" y="9" onmousedown="handleZoom(evt,'in')"/>
  <use id="zoomminus" xlink:href="#zoomMin" x="42" y="9" onmousedown="handleZoom(evt,'out')"/>
  <use id="reset" xlink:href="#resetDef" x="30" y="36" onmousedown="handleReset()"/>
   <use id="arrowup" xlink:href="#arrowUp" x="0" y="0" onmousedown="handlePan(0,-1)"/>
  <use id="arrowright" xlink:href="#arrowRight" x="0" y="0" onmousedown="handlePan(1,0)"/>
  <use id="arrowdown" xlink:href="#arrowDown" x="0" y="0" onmousedown="handlePan(0,1)"/>
  <use id="arrowleft" xlink:href="#arrowLeft" x="0" y="0" onmousedown="handlePan(-1,0)"/>
</g>
<svg viewBox="0 0 15 15" width="100%" height="30px" preserveAspectRatio="xMaxYMin meet">
 <g id="arrow_out" transform="scale(0.3 0.3)">
  <a xlink:href="classEonPlay_1_1Data_1_1PlaylistManager_a686c0e80e2604d2410ee5a3f64a63a30_cgraph_org.svg" target="_base">
   <rect id="button" ry="5" rx="5" y="6" x="6" height="38" width="38"
        fill="#f2f5e9" fill-opacity="0.5" stroke="#606060" stroke-width="1.0"/>
   <path id="arrow"
     d="M 11.500037,31.436501 C 11.940474,20.09759 22.043105,11.32322 32.158766,21.979434 L 37.068811,17.246167 C 37.068811,17.246167 37.088388,32 37.088388,32 L 22.160133,31.978069 C 22.160133,31.978069 26.997745,27.140456 26.997745,27.140456 C 18.528582,18.264221 13.291696,25.230495 11.500037,31.436501 z"
     style="fill:#404040;"/>
  </a>
 </g>
</svg>

<style type='text/css'>
<![CDATA[
[data-mouse-over-selected='false'] { opacity: 0.7; }
[data-mouse-over-selected='true']  { opacity: 1.0; }
]]>
</style>
<script type="application/ecmascript"><![CDATA[
document.addEventListener('DOMContentLoaded', (event) => {
  highlightEdges();
  highlightAdjacentNodes();
});
]]></script>
</svg>
