<?xml version="1.0" encoding="UTF-8" standalone="no"?>
<!DOCTYPE svg PUBLIC "-//W3C//DTD SVG 1.1//EN"
 "http://www.w3.org/Graphics/SVG/1.1/DTD/svg11.dtd">
<!-- Generated by graphviz version 2.43.0 (0)
 -->
<!-- Title: EonPlay::Data::PlaylistManager::deletePlaylist Pages: 1 -->
<svg width="957pt" height="374pt"
 viewBox="0.00 0.00 957.00 374.00" xmlns="http://www.w3.org/2000/svg" xmlns:xlink="http://www.w3.org/1999/xlink">
<g id="graph0" class="graph" transform="scale(1 1) rotate(0) translate(4 370)">
<title>EonPlay::Data::PlaylistManager::deletePlaylist</title>
<!-- Node1 -->
<g id="Node000001" class="node">
<title>Node1</title>
<g id="a_Node000001"><a xlink:title=" ">
<polygon fill="#999999" stroke="#666666" points="169,-126 0,-126 0,-96 169,-96 169,-126"/>
<text text-anchor="start" x="8" y="-114" font-family="Helvetica,sans-Serif" font-size="10.00">EonPlay::Data::PlaylistManager</text>
<text text-anchor="middle" x="84.5" y="-103" font-family="Helvetica,sans-Serif" font-size="10.00">::deletePlaylist</text>
</a>
</g>
</g>
<!-- Node2 -->
<g id="Node000002" class="node">
<title>Node2</title>
<g id="a_Node000002"><a xlink:href="../../dd/d67/classEonPlay_1_1Data_1_1PlaylistManager.html#a318b67254c38b5dd781a07c041cc8981" target="_top" xlink:title=" ">
<polygon fill="white" stroke="#666666" points="379,-198 210,-198 210,-168 379,-168 379,-198"/>
<text text-anchor="start" x="218" y="-186" font-family="Helvetica,sans-Serif" font-size="10.00">EonPlay::Data::PlaylistManager</text>
<text text-anchor="middle" x="294.5" y="-175" font-family="Helvetica,sans-Serif" font-size="10.00">::getPlaylist</text>
</a>
</g>
</g>
<!-- Node1&#45;&gt;Node2 -->
<g id="edge1_Node000001_Node000002" class="edge">
<title>Node1&#45;&gt;Node2</title>
<g id="a_edge1_Node000001_Node000002"><a xlink:title=" ">
<path fill="none" stroke="#63b8ff" d="M119.87,-126.05C143.54,-136.11 175.85,-149.23 205,-159 211.29,-161.11 217.87,-163.16 224.49,-165.13"/>
<polygon fill="#63b8ff" stroke="#63b8ff" points="223.6,-168.52 234.18,-167.94 225.55,-161.8 223.6,-168.52"/>
</a>
</g>
</g>
<!-- Node18 -->
<g id="Node000018" class="node">
<title>Node18</title>
<g id="a_Node000018"><a xlink:href="../../d0/d00/classEonPlay_1_1Data_1_1Playlist.html#a3ec3853b1f913ad37d6f04e63ea2355b" target="_top" xlink:title=" ">
<polygon fill="white" stroke="#666666" points="357.5,-150 231.5,-150 231.5,-120 357.5,-120 357.5,-150"/>
<text text-anchor="start" x="239.5" y="-138" font-family="Helvetica,sans-Serif" font-size="10.00">EonPlay::Data::Playlist</text>
<text text-anchor="middle" x="294.5" y="-127" font-family="Helvetica,sans-Serif" font-size="10.00">::name</text>
</a>
</g>
</g>
<!-- Node1&#45;&gt;Node18 -->
<g id="edge17_Node000001_Node000018" class="edge">
<title>Node1&#45;&gt;Node18</title>
<g id="a_edge17_Node000001_Node000018"><a xlink:title=" ">
<path fill="none" stroke="#63b8ff" d="M169.2,-120.66C186.4,-122.64 204.38,-124.72 221.14,-126.65"/>
<polygon fill="#63b8ff" stroke="#63b8ff" points="221.06,-130.16 231.4,-127.83 221.86,-123.21 221.06,-130.16"/>
</a>
</g>
</g>
<!-- Node19 -->
<g id="Node000019" class="node">
<title>Node19</title>
<g id="a_Node000019"><a xlink:href="../../dd/d67/classEonPlay_1_1Data_1_1PlaylistManager.html#ae9519094e8c43dc236badcb10226bc19" target="_top" xlink:title=" ">
<polygon fill="white" stroke="#666666" points="379,-102 210,-102 210,-72 379,-72 379,-102"/>
<text text-anchor="start" x="218" y="-90" font-family="Helvetica,sans-Serif" font-size="10.00">EonPlay::Data::PlaylistManager</text>
<text text-anchor="middle" x="294.5" y="-79" font-family="Helvetica,sans-Serif" font-size="10.00">::playlistDeleted</text>
</a>
</g>
</g>
<!-- Node1&#45;&gt;Node19 -->
<g id="edge18_Node000001_Node000019" class="edge">
<title>Node1&#45;&gt;Node19</title>
<g id="a_edge18_Node000001_Node000019"><a xlink:title=" ">
<path fill="none" stroke="#63b8ff" d="M169.2,-101.34C179.28,-100.18 189.62,-98.99 199.82,-97.81"/>
<polygon fill="#63b8ff" stroke="#63b8ff" points="200.44,-101.26 209.97,-96.64 199.63,-94.31 200.44,-101.26"/>
</a>
</g>
</g>
<!-- Node20 -->
<g id="Node000020" class="node">
<title>Node20</title>
<g id="a_Node000020"><a xlink:href="../../da/db6/classEonPlay_1_1Data_1_1DatabaseManager.html#a699b327fd19ff72227eba450c4ae17ce" target="_top" xlink:title=" ">
<polygon fill="white" stroke="#666666" points="384,-54 205,-54 205,-24 384,-24 384,-54"/>
<text text-anchor="start" x="213" y="-42" font-family="Helvetica,sans-Serif" font-size="10.00">EonPlay::Data::DatabaseManager</text>
<text text-anchor="middle" x="294.5" y="-31" font-family="Helvetica,sans-Serif" font-size="10.00">::removePlaylist</text>
</a>
</g>
</g>
<!-- Node1&#45;&gt;Node20 -->
<g id="edge19_Node000001_Node000020" class="edge">
<title>Node1&#45;&gt;Node20</title>
<g id="a_edge19_Node000001_Node000020"><a xlink:title=" ">
<path fill="none" stroke="#63b8ff" d="M119.87,-95.95C143.54,-85.89 175.85,-72.77 205,-63 211.29,-60.89 217.87,-58.84 224.49,-56.87"/>
<polygon fill="#63b8ff" stroke="#63b8ff" points="225.55,-60.2 234.18,-54.06 223.6,-53.48 225.55,-60.2"/>
</a>
</g>
</g>
<!-- Node3 -->
<g id="Node000003" class="node">
<title>Node3</title>
<g id="a_Node000003"><a xlink:href="../../d0/d00/classEonPlay_1_1Data_1_1Playlist.html#a0dcef6a77d0706afa09021481dcd473b" target="_top" xlink:title=" ">
<polygon fill="white" stroke="#666666" points="546,-198 420,-198 420,-168 546,-168 546,-198"/>
<text text-anchor="start" x="428" y="-186" font-family="Helvetica,sans-Serif" font-size="10.00">EonPlay::Data::Playlist</text>
<text text-anchor="middle" x="483" y="-175" font-family="Helvetica,sans-Serif" font-size="10.00">::load</text>
</a>
</g>
</g>
<!-- Node2&#45;&gt;Node3 -->
<g id="edge2_Node000002_Node000003" class="edge">
<title>Node2&#45;&gt;Node3</title>
<g id="a_edge2_Node000002_Node000003"><a xlink:title=" ">
<path fill="none" stroke="#63b8ff" d="M379.2,-183C389.34,-183 399.62,-183 409.57,-183"/>
<polygon fill="#63b8ff" stroke="#63b8ff" points="409.8,-186.5 419.8,-183 409.8,-179.5 409.8,-186.5"/>
</a>
</g>
</g>
<!-- Node4 -->
<g id="Node000004" class="node">
<title>Node4</title>
<g id="a_Node000004"><a xlink:href="../../da/db6/classEonPlay_1_1Data_1_1DatabaseManager.html#a19da66df360ebe035942e0e0857a2533" target="_top" xlink:title=" ">
<polygon fill="white" stroke="#666666" points="761,-366 582,-366 582,-336 761,-336 761,-366"/>
<text text-anchor="start" x="590" y="-354" font-family="Helvetica,sans-Serif" font-size="10.00">EonPlay::Data::DatabaseManager</text>
<text text-anchor="middle" x="671.5" y="-343" font-family="Helvetica,sans-Serif" font-size="10.00">::getPlaylist</text>
</a>
</g>
</g>
<!-- Node3&#45;&gt;Node4 -->
<g id="edge3_Node000003_Node000004" class="edge">
<title>Node3&#45;&gt;Node4</title>
<g id="a_edge3_Node000003_Node000004"><a xlink:title=" ">
<path fill="none" stroke="#63b8ff" d="M490.05,-198.26C502.58,-227.82 534.22,-292.96 582,-327 584.1,-328.5 586.29,-329.9 588.54,-331.21"/>
<polygon fill="#63b8ff" stroke="#63b8ff" points="587.05,-334.38 597.54,-335.86 590.27,-328.16 587.05,-334.38"/>
</a>
</g>
</g>
<!-- Node5 -->
<g id="Node000005" class="node">
<title>Node5</title>
<g id="a_Node000005"><a xlink:href="../../da/db6/classEonPlay_1_1Data_1_1DatabaseManager.html#a1e98619f4bbbd1a752e22ee1465aa209" target="_top" xlink:title=" ">
<polygon fill="white" stroke="#666666" points="761,-318 582,-318 582,-288 761,-288 761,-318"/>
<text text-anchor="start" x="590" y="-306" font-family="Helvetica,sans-Serif" font-size="10.00">EonPlay::Data::DatabaseManager</text>
<text text-anchor="middle" x="671.5" y="-295" font-family="Helvetica,sans-Serif" font-size="10.00">::getPlaylistItems</text>
</a>
</g>
</g>
<!-- Node3&#45;&gt;Node5 -->
<g id="edge4_Node000003_Node000005" class="edge">
<title>Node3&#45;&gt;Node5</title>
<g id="a_edge4_Node000003_Node000005"><a xlink:title=" ">
<path fill="none" stroke="#63b8ff" d="M495.22,-198.08C511.83,-219.32 545,-257.82 582,-279 585.06,-280.75 588.26,-282.38 591.54,-283.9"/>
<polygon fill="#63b8ff" stroke="#63b8ff" points="590.41,-287.22 600.99,-287.87 593.13,-280.77 590.41,-287.22"/>
</a>
</g>
</g>
<!-- Node6 -->
<g id="Node000006" class="node">
<title>Node6</title>
<g id="a_Node000006"><a xlink:href="../../de/dc7/classEonPlay_1_1Data_1_1MediaFile.html#ac7b77dd4fd9235f729fe3000cf280e01" target="_top" xlink:title=" ">
<polygon fill="white" stroke="#666666" points="740,-270 603,-270 603,-240 740,-240 740,-270"/>
<text text-anchor="start" x="611" y="-258" font-family="Helvetica,sans-Serif" font-size="10.00">EonPlay::Data::MediaFile</text>
<text text-anchor="middle" x="671.5" y="-247" font-family="Helvetica,sans-Serif" font-size="10.00">::setAlbum</text>
</a>
</g>
</g>
<!-- Node3&#45;&gt;Node6 -->
<g id="edge5_Node000003_Node000006" class="edge">
<title>Node3&#45;&gt;Node6</title>
<g id="a_edge5_Node000003_Node000006"><a xlink:title=" ">
<path fill="none" stroke="#63b8ff" d="M511.26,-198.1C530.58,-208.37 557.36,-221.72 582,-231 587.54,-233.08 593.33,-235.07 599.19,-236.94"/>
<polygon fill="#63b8ff" stroke="#63b8ff" points="598.49,-240.39 609.08,-239.98 600.55,-233.7 598.49,-240.39"/>
</a>
</g>
</g>
<!-- Node8 -->
<g id="Node000008" class="node">
<title>Node8</title>
<g id="a_Node000008"><a xlink:href="../../de/dc7/classEonPlay_1_1Data_1_1MediaFile.html#ad9940de5c551727f95a98ed16caad932" target="_top" xlink:title=" ">
<polygon fill="white" stroke="#666666" points="740,-222 603,-222 603,-192 740,-192 740,-222"/>
<text text-anchor="start" x="611" y="-210" font-family="Helvetica,sans-Serif" font-size="10.00">EonPlay::Data::MediaFile</text>
<text text-anchor="middle" x="671.5" y="-199" font-family="Helvetica,sans-Serif" font-size="10.00">::setArtist</text>
</a>
</g>
</g>
<!-- Node3&#45;&gt;Node8 -->
<g id="edge7_Node000003_Node000008" class="edge">
<title>Node3&#45;&gt;Node8</title>
<g id="a_edge7_Node000003_Node000008"><a xlink:title=" ">
<path fill="none" stroke="#63b8ff" d="M546.1,-190.99C561.05,-192.92 577.21,-194.99 592.77,-197"/>
<polygon fill="#63b8ff" stroke="#63b8ff" points="592.53,-200.5 602.9,-198.3 593.43,-193.55 592.53,-200.5"/>
</a>
</g>
</g>
<!-- Node10 -->
<g id="Node000010" class="node">
<title>Node10</title>
<g id="a_Node000010"><a xlink:href="../../de/dc7/classEonPlay_1_1Data_1_1MediaFile.html#a8e21eb7ca2b0ea4dbc709f3e0f1b5740" target="_top" xlink:title=" ">
<polygon fill="white" stroke="#666666" points="740,-174 603,-174 603,-144 740,-144 740,-174"/>
<text text-anchor="start" x="611" y="-162" font-family="Helvetica,sans-Serif" font-size="10.00">EonPlay::Data::MediaFile</text>
<text text-anchor="middle" x="671.5" y="-151" font-family="Helvetica,sans-Serif" font-size="10.00">::setDuration</text>
</a>
</g>
</g>
<!-- Node3&#45;&gt;Node10 -->
<g id="edge9_Node000003_Node000010" class="edge">
<title>Node3&#45;&gt;Node10</title>
<g id="a_edge9_Node000003_Node000010"><a xlink:title=" ">
<path fill="none" stroke="#63b8ff" d="M546.1,-175.01C561.05,-173.08 577.21,-171.01 592.77,-169"/>
<polygon fill="#63b8ff" stroke="#63b8ff" points="593.43,-172.45 602.9,-167.7 592.53,-165.5 593.43,-172.45"/>
</a>
</g>
</g>
<!-- Node12 -->
<g id="Node000012" class="node">
<title>Node12</title>
<g id="a_Node000012"><a xlink:href="../../de/dc7/classEonPlay_1_1Data_1_1MediaFile.html#a2803406d0a659719a22162057febdc28" target="_top" xlink:title=" ">
<polygon fill="white" stroke="#666666" points="740,-126 603,-126 603,-96 740,-96 740,-126"/>
<text text-anchor="start" x="611" y="-114" font-family="Helvetica,sans-Serif" font-size="10.00">EonPlay::Data::MediaFile</text>
<text text-anchor="middle" x="671.5" y="-103" font-family="Helvetica,sans-Serif" font-size="10.00">::setFilePath</text>
</a>
</g>
</g>
<!-- Node3&#45;&gt;Node12 -->
<g id="edge11_Node000003_Node000012" class="edge">
<title>Node3&#45;&gt;Node12</title>
<g id="a_edge11_Node000003_Node000012"><a xlink:title=" ">
<path fill="none" stroke="#63b8ff" d="M511.26,-167.9C530.58,-157.63 557.36,-144.28 582,-135 587.54,-132.92 593.33,-130.93 599.19,-129.06"/>
<polygon fill="#63b8ff" stroke="#63b8ff" points="600.55,-132.3 609.08,-126.02 598.49,-125.61 600.55,-132.3"/>
</a>
</g>
</g>
<!-- Node14 -->
<g id="Node000014" class="node">
<title>Node14</title>
<g id="a_Node000014"><a xlink:href="../../de/dc7/classEonPlay_1_1Data_1_1MediaFile.html#a7598825cbdac94beb499b01f69be7d32" target="_top" xlink:title=" ">
<polygon fill="white" stroke="#666666" points="740,-78 603,-78 603,-48 740,-48 740,-78"/>
<text text-anchor="start" x="611" y="-66" font-family="Helvetica,sans-Serif" font-size="10.00">EonPlay::Data::MediaFile</text>
<text text-anchor="middle" x="671.5" y="-55" font-family="Helvetica,sans-Serif" font-size="10.00">::setId</text>
</a>
</g>
</g>
<!-- Node3&#45;&gt;Node14 -->
<g id="edge13_Node000003_Node000014" class="edge">
<title>Node3&#45;&gt;Node14</title>
<g id="a_edge13_Node000003_Node000014"><a xlink:title=" ">
<path fill="none" stroke="#63b8ff" d="M495.22,-167.92C511.83,-146.68 545,-108.18 582,-87 585.65,-84.91 589.49,-82.99 593.45,-81.24"/>
<polygon fill="#63b8ff" stroke="#63b8ff" points="594.88,-84.44 602.84,-77.44 592.26,-77.95 594.88,-84.44"/>
</a>
</g>
</g>
<!-- Node16 -->
<g id="Node000016" class="node">
<title>Node16</title>
<g id="a_Node000016"><a xlink:href="../../de/dc7/classEonPlay_1_1Data_1_1MediaFile.html#ab5c607a255318448ec724daec9ad0cf4" target="_top" xlink:title=" ">
<polygon fill="white" stroke="#666666" points="740,-30 603,-30 603,0 740,0 740,-30"/>
<text text-anchor="start" x="611" y="-18" font-family="Helvetica,sans-Serif" font-size="10.00">EonPlay::Data::MediaFile</text>
<text text-anchor="middle" x="671.5" y="-7" font-family="Helvetica,sans-Serif" font-size="10.00">::setTitle</text>
</a>
</g>
</g>
<!-- Node3&#45;&gt;Node16 -->
<g id="edge15_Node000003_Node000016" class="edge">
<title>Node3&#45;&gt;Node16</title>
<g id="a_edge15_Node000003_Node000016"><a xlink:title=" ">
<path fill="none" stroke="#63b8ff" d="M490.05,-167.74C502.58,-138.18 534.22,-73.04 582,-39 585.67,-36.38 589.62,-34.05 593.73,-31.97"/>
<polygon fill="#63b8ff" stroke="#63b8ff" points="595.27,-35.12 602.95,-27.82 592.39,-28.74 595.27,-35.12"/>
</a>
</g>
</g>
<!-- Node7 -->
<g id="Node000007" class="node">
<title>Node7</title>
<g id="a_Node000007"><a xlink:href="../../de/dc7/classEonPlay_1_1Data_1_1MediaFile.html#a09f8ad403a921430628d18e76dd90023" target="_top" xlink:title=" ">
<polygon fill="white" stroke="#666666" points="941.5,-270 804.5,-270 804.5,-240 941.5,-240 941.5,-270"/>
<text text-anchor="start" x="812.5" y="-258" font-family="Helvetica,sans-Serif" font-size="10.00">EonPlay::Data::MediaFile</text>
<text text-anchor="middle" x="873" y="-247" font-family="Helvetica,sans-Serif" font-size="10.00">::album</text>
</a>
</g>
</g>
<!-- Node6&#45;&gt;Node7 -->
<g id="edge6_Node000006_Node000007" class="edge">
<title>Node6&#45;&gt;Node7</title>
<g id="a_edge6_Node000006_Node000007"><a xlink:title=" ">
<path fill="none" stroke="#63b8ff" d="M740.04,-255C757.33,-255 776.07,-255 793.85,-255"/>
<polygon fill="#63b8ff" stroke="#63b8ff" points="794.19,-258.5 804.19,-255 794.19,-251.5 794.19,-258.5"/>
</a>
</g>
</g>
<!-- Node9 -->
<g id="Node000009" class="node">
<title>Node9</title>
<g id="a_Node000009"><a xlink:href="../../de/dc7/classEonPlay_1_1Data_1_1MediaFile.html#a75c0e956449eb91ad71bb2644110c83e" target="_top" xlink:title=" ">
<polygon fill="white" stroke="#666666" points="941.5,-222 804.5,-222 804.5,-192 941.5,-192 941.5,-222"/>
<text text-anchor="start" x="812.5" y="-210" font-family="Helvetica,sans-Serif" font-size="10.00">EonPlay::Data::MediaFile</text>
<text text-anchor="middle" x="873" y="-199" font-family="Helvetica,sans-Serif" font-size="10.00">::artist</text>
</a>
</g>
</g>
<!-- Node8&#45;&gt;Node9 -->
<g id="edge8_Node000008_Node000009" class="edge">
<title>Node8&#45;&gt;Node9</title>
<g id="a_edge8_Node000008_Node000009"><a xlink:title=" ">
<path fill="none" stroke="#63b8ff" d="M740.04,-207C757.33,-207 776.07,-207 793.85,-207"/>
<polygon fill="#63b8ff" stroke="#63b8ff" points="794.19,-210.5 804.19,-207 794.19,-203.5 794.19,-210.5"/>
</a>
</g>
</g>
<!-- Node11 -->
<g id="Node000011" class="node">
<title>Node11</title>
<g id="a_Node000011"><a xlink:href="../../de/dc7/classEonPlay_1_1Data_1_1MediaFile.html#a9f59cdb65f31f8506749bd6984339c0f" target="_top" xlink:title=" ">
<polygon fill="white" stroke="#666666" points="941.5,-174 804.5,-174 804.5,-144 941.5,-144 941.5,-174"/>
<text text-anchor="start" x="812.5" y="-162" font-family="Helvetica,sans-Serif" font-size="10.00">EonPlay::Data::MediaFile</text>
<text text-anchor="middle" x="873" y="-151" font-family="Helvetica,sans-Serif" font-size="10.00">::duration</text>
</a>
</g>
</g>
<!-- Node10&#45;&gt;Node11 -->
<g id="edge10_Node000010_Node000011" class="edge">
<title>Node10&#45;&gt;Node11</title>
<g id="a_edge10_Node000010_Node000011"><a xlink:title=" ">
<path fill="none" stroke="#63b8ff" d="M740.04,-159C757.33,-159 776.07,-159 793.85,-159"/>
<polygon fill="#63b8ff" stroke="#63b8ff" points="794.19,-162.5 804.19,-159 794.19,-155.5 794.19,-162.5"/>
</a>
</g>
</g>
<!-- Node13 -->
<g id="Node000013" class="node">
<title>Node13</title>
<g id="a_Node000013"><a xlink:href="../../de/dc7/classEonPlay_1_1Data_1_1MediaFile.html#a7eb834a0663186a43f3eacb12d18ded7" target="_top" xlink:title=" ">
<polygon fill="white" stroke="#666666" points="941.5,-126 804.5,-126 804.5,-96 941.5,-96 941.5,-126"/>
<text text-anchor="start" x="812.5" y="-114" font-family="Helvetica,sans-Serif" font-size="10.00">EonPlay::Data::MediaFile</text>
<text text-anchor="middle" x="873" y="-103" font-family="Helvetica,sans-Serif" font-size="10.00">::filePath</text>
</a>
</g>
</g>
<!-- Node12&#45;&gt;Node13 -->
<g id="edge12_Node000012_Node000013" class="edge">
<title>Node12&#45;&gt;Node13</title>
<g id="a_edge12_Node000012_Node000013"><a xlink:title=" ">
<path fill="none" stroke="#63b8ff" d="M740.04,-111C757.33,-111 776.07,-111 793.85,-111"/>
<polygon fill="#63b8ff" stroke="#63b8ff" points="794.19,-114.5 804.19,-111 794.19,-107.5 794.19,-114.5"/>
</a>
</g>
</g>
<!-- Node15 -->
<g id="Node000015" class="node">
<title>Node15</title>
<g id="a_Node000015"><a xlink:href="../../de/dc7/classEonPlay_1_1Data_1_1MediaFile.html#aeb83eaa447b5b8ee7ffd807ba13f91de" target="_top" xlink:title=" ">
<polygon fill="white" stroke="#666666" points="949,-72.5 797,-72.5 797,-53.5 949,-53.5 949,-72.5"/>
<text text-anchor="middle" x="873" y="-60.5" font-family="Helvetica,sans-Serif" font-size="10.00">EonPlay::Data::MediaFile::id</text>
</a>
</g>
</g>
<!-- Node14&#45;&gt;Node15 -->
<g id="edge14_Node000014_Node000015" class="edge">
<title>Node14&#45;&gt;Node15</title>
<g id="a_edge14_Node000014_Node000015"><a xlink:title=" ">
<path fill="none" stroke="#63b8ff" d="M740.04,-63C755.06,-63 771.18,-63 786.8,-63"/>
<polygon fill="#63b8ff" stroke="#63b8ff" points="786.99,-66.5 796.99,-63 786.99,-59.5 786.99,-66.5"/>
</a>
</g>
</g>
<!-- Node17 -->
<g id="Node000017" class="node">
<title>Node17</title>
<g id="a_Node000017"><a xlink:href="../../de/dc7/classEonPlay_1_1Data_1_1MediaFile.html#ad6daf8d51553ea2d923d87f4e6b84e01" target="_top" xlink:title=" ">
<polygon fill="white" stroke="#666666" points="941.5,-30 804.5,-30 804.5,0 941.5,0 941.5,-30"/>
<text text-anchor="start" x="812.5" y="-18" font-family="Helvetica,sans-Serif" font-size="10.00">EonPlay::Data::MediaFile</text>
<text text-anchor="middle" x="873" y="-7" font-family="Helvetica,sans-Serif" font-size="10.00">::title</text>
</a>
</g>
</g>
<!-- Node16&#45;&gt;Node17 -->
<g id="edge16_Node000016_Node000017" class="edge">
<title>Node16&#45;&gt;Node17</title>
<g id="a_edge16_Node000016_Node000017"><a xlink:title=" ">
<path fill="none" stroke="#63b8ff" d="M740.04,-15C757.33,-15 776.07,-15 793.85,-15"/>
<polygon fill="#63b8ff" stroke="#63b8ff" points="794.19,-18.5 804.19,-15 794.19,-11.5 794.19,-18.5"/>
</a>
</g>
</g>
</g>
</svg>
