<?xml version="1.0" encoding="UTF-8" standalone="no"?>
<!DOCTYPE svg PUBLIC "-//W3C//DTD SVG 1.1//EN"
 "http://www.w3.org/Graphics/SVG/1.1/DTD/svg11.dtd">
<!-- Generated by graphviz version 2.43.0 (0)
 -->
<!-- Title: EonPlay::Data::PlaylistManager::playlistDeleted Pages: 1 -->
<svg width="792pt" height="278pt"
 viewBox="0.00 0.00 792.00 278.00" xmlns="http://www.w3.org/2000/svg" xmlns:xlink="http://www.w3.org/1999/xlink">
<g id="graph0" class="graph" transform="scale(1 1) rotate(0) translate(4 274)">
<title>EonPlay::Data::PlaylistManager::playlistDeleted</title>
<!-- Node1 -->
<g id="Node000001" class="node">
<title>Node1</title>
<g id="a_Node000001"><a xlink:title=" ">
<polygon fill="#999999" stroke="#666666" points="784,-126 615,-126 615,-96 784,-96 784,-126"/>
<text text-anchor="start" x="623" y="-114" font-family="Helvetica,sans-Serif" font-size="10.00">EonPlay::Data::PlaylistManager</text>
<text text-anchor="middle" x="699.5" y="-103" font-family="Helvetica,sans-Serif" font-size="10.00">::playlistDeleted</text>
</a>
</g>
</g>
<!-- Node2 -->
<g id="Node000002" class="node">
<title>Node2</title>
<g id="a_Node000002"><a xlink:href="../../dd/d67/classEonPlay_1_1Data_1_1PlaylistManager.html#a392bcbcf74115b20a5c0fe5bda8ed1f1" target="_top" xlink:title=" ">
<polygon fill="white" stroke="#666666" points="579,-126 410,-126 410,-96 579,-96 579,-126"/>
<text text-anchor="start" x="418" y="-114" font-family="Helvetica,sans-Serif" font-size="10.00">EonPlay::Data::PlaylistManager</text>
<text text-anchor="middle" x="494.5" y="-103" font-family="Helvetica,sans-Serif" font-size="10.00">::deletePlaylist</text>
</a>
</g>
</g>
<!-- Node1&#45;&gt;Node2 -->
<g id="edge1_Node000001_Node000002" class="edge">
<title>Node1&#45;&gt;Node2</title>
<g id="a_edge1_Node000001_Node000002"><a xlink:title=" ">
<path fill="none" stroke="#63b8ff" d="M604.74,-111C596.17,-111 587.52,-111 579.05,-111"/>
<polygon fill="#63b8ff" stroke="#63b8ff" points="604.76,-114.5 614.76,-111 604.76,-107.5 604.76,-114.5"/>
</a>
</g>
</g>
<!-- Node3 -->
<g id="Node000003" class="node">
<title>Node3</title>
<g id="a_Node000003"><a xlink:href="../../dd/d67/classEonPlay_1_1Data_1_1PlaylistManager.html#a3b6861f3d0977f2fd48f9e9da0215564" target="_top" xlink:title=" ">
<polygon fill="white" stroke="#666666" points="374,-150 205,-150 205,-120 374,-120 374,-150"/>
<text text-anchor="start" x="213" y="-138" font-family="Helvetica,sans-Serif" font-size="10.00">EonPlay::Data::PlaylistManager</text>
<text text-anchor="middle" x="289.5" y="-127" font-family="Helvetica,sans-Serif" font-size="10.00">::createSmartPlaylist</text>
</a>
</g>
</g>
<!-- Node2&#45;&gt;Node3 -->
<g id="edge2_Node000002_Node000003" class="edge">
<title>Node2&#45;&gt;Node3</title>
<g id="a_edge2_Node000002_Node000003"><a xlink:title=" ">
<path fill="none" stroke="#63b8ff" d="M399.74,-122.08C391.17,-123.1 382.52,-124.12 374.05,-125.12"/>
<polygon fill="#63b8ff" stroke="#63b8ff" points="400.24,-125.55 409.76,-120.9 399.42,-118.6 400.24,-125.55"/>
</a>
</g>
</g>
<!-- Node10 -->
<g id="Node000010" class="node">
<title>Node10</title>
<g id="a_Node000010"><a xlink:href="../../dd/d67/classEonPlay_1_1Data_1_1PlaylistManager.html#ae9590c9a80460f5329ccc64f71501688" target="_top" xlink:title=" ">
<polygon fill="white" stroke="#666666" points="374,-102 205,-102 205,-72 374,-72 374,-102"/>
<text text-anchor="start" x="213" y="-90" font-family="Helvetica,sans-Serif" font-size="10.00">EonPlay::Data::PlaylistManager</text>
<text text-anchor="middle" x="289.5" y="-79" font-family="Helvetica,sans-Serif" font-size="10.00">::importPlaylist</text>
</a>
</g>
</g>
<!-- Node2&#45;&gt;Node10 -->
<g id="edge9_Node000002_Node000010" class="edge">
<title>Node2&#45;&gt;Node10</title>
<g id="a_edge9_Node000002_Node000010"><a xlink:title=" ">
<path fill="none" stroke="#63b8ff" d="M399.74,-99.92C391.17,-98.9 382.52,-97.88 374.05,-96.88"/>
<polygon fill="#63b8ff" stroke="#63b8ff" points="399.42,-103.4 409.76,-101.1 400.24,-96.45 399.42,-103.4"/>
</a>
</g>
</g>
<!-- Node4 -->
<g id="Node000004" class="node">
<title>Node4</title>
<g id="a_Node000004"><a xlink:href="../../dd/d67/classEonPlay_1_1Data_1_1PlaylistManager.html#a84790a4d6548c747ffdbe6b4958d920c" target="_top" xlink:title=" ">
<polygon fill="white" stroke="#666666" points="169,-270 0,-270 0,-240 169,-240 169,-270"/>
<text text-anchor="start" x="8" y="-258" font-family="Helvetica,sans-Serif" font-size="10.00">EonPlay::Data::PlaylistManager</text>
<text text-anchor="middle" x="84.5" y="-247" font-family="Helvetica,sans-Serif" font-size="10.00">::createArtistPlaylist</text>
</a>
</g>
</g>
<!-- Node3&#45;&gt;Node4 -->
<g id="edge3_Node000003_Node000004" class="edge">
<title>Node3&#45;&gt;Node4</title>
<g id="a_edge3_Node000003_Node000004"><a xlink:title=" ">
<path fill="none" stroke="#63b8ff" d="M266.31,-157.42C243.67,-179.12 206.62,-211.5 169,-231 162.44,-234.4 155.33,-237.38 148.12,-239.97"/>
<polygon fill="#63b8ff" stroke="#63b8ff" points="268.97,-159.72 273.69,-150.23 264.08,-154.7 268.97,-159.72"/>
</a>
</g>
</g>
<!-- Node5 -->
<g id="Node000005" class="node">
<title>Node5</title>
<g id="a_Node000005"><a xlink:href="../../dd/d67/classEonPlay_1_1Data_1_1PlaylistManager.html#a892aa3b6498c552fbe7c28cc22b9f652" target="_top" xlink:title=" ">
<polygon fill="white" stroke="#666666" points="169,-222 0,-222 0,-192 169,-192 169,-222"/>
<text text-anchor="start" x="8" y="-210" font-family="Helvetica,sans-Serif" font-size="10.00">EonPlay::Data::PlaylistManager</text>
<text text-anchor="middle" x="84.5" y="-199" font-family="Helvetica,sans-Serif" font-size="10.00">::createGenrePlaylist</text>
</a>
</g>
</g>
<!-- Node3&#45;&gt;Node5 -->
<g id="edge4_Node000003_Node000005" class="edge">
<title>Node3&#45;&gt;Node5</title>
<g id="a_edge4_Node000003_Node000005"><a xlink:title=" ">
<path fill="none" stroke="#63b8ff" d="M244.57,-153.9C222.16,-163.21 194.35,-174.29 169,-183 160.01,-186.09 150.39,-189.11 140.99,-191.91"/>
<polygon fill="#63b8ff" stroke="#63b8ff" points="245.95,-157.11 253.82,-150.02 243.24,-150.66 245.95,-157.11"/>
</a>
</g>
</g>
<!-- Node6 -->
<g id="Node000006" class="node">
<title>Node6</title>
<g id="a_Node000006"><a xlink:href="../../dd/d67/classEonPlay_1_1Data_1_1PlaylistManager.html#a5c1aa3437e772bf3dde512b1b3993a13" target="_top" xlink:title=" ">
<polygon fill="white" stroke="#666666" points="169,-174 0,-174 0,-144 169,-144 169,-174"/>
<text text-anchor="start" x="8" y="-162" font-family="Helvetica,sans-Serif" font-size="10.00">EonPlay::Data::PlaylistManager</text>
<text text-anchor="middle" x="84.5" y="-151" font-family="Helvetica,sans-Serif" font-size="10.00">::createMostPlayedPlaylist</text>
</a>
</g>
</g>
<!-- Node3&#45;&gt;Node6 -->
<g id="edge5_Node000003_Node000006" class="edge">
<title>Node3&#45;&gt;Node6</title>
<g id="a_edge5_Node000003_Node000006"><a xlink:title=" ">
<path fill="none" stroke="#63b8ff" d="M194.74,-146.08C186.17,-147.1 177.52,-148.12 169.05,-149.12"/>
<polygon fill="#63b8ff" stroke="#63b8ff" points="195.24,-149.55 204.76,-144.9 194.42,-142.6 195.24,-149.55"/>
</a>
</g>
</g>
<!-- Node7 -->
<g id="Node000007" class="node">
<title>Node7</title>
<g id="a_Node000007"><a xlink:href="../../dd/d67/classEonPlay_1_1Data_1_1PlaylistManager.html#a65f921bf2db44c90def328eb22c7ebb0" target="_top" xlink:title=" ">
<polygon fill="white" stroke="#666666" points="169,-126 0,-126 0,-96 169,-96 169,-126"/>
<text text-anchor="start" x="8" y="-114" font-family="Helvetica,sans-Serif" font-size="10.00">EonPlay::Data::PlaylistManager</text>
<text text-anchor="middle" x="84.5" y="-103" font-family="Helvetica,sans-Serif" font-size="10.00">::createNeverPlayedPlaylist</text>
</a>
</g>
</g>
<!-- Node3&#45;&gt;Node7 -->
<g id="edge6_Node000003_Node000007" class="edge">
<title>Node3&#45;&gt;Node7</title>
<g id="a_edge6_Node000003_Node000007"><a xlink:title=" ">
<path fill="none" stroke="#63b8ff" d="M194.74,-123.92C186.17,-122.9 177.52,-121.88 169.05,-120.88"/>
<polygon fill="#63b8ff" stroke="#63b8ff" points="194.42,-127.4 204.76,-125.1 195.24,-120.45 194.42,-127.4"/>
</a>
</g>
</g>
<!-- Node8 -->
<g id="Node000008" class="node">
<title>Node8</title>
<g id="a_Node000008"><a xlink:href="../../dd/d67/classEonPlay_1_1Data_1_1PlaylistManager.html#a681deb4cd09114a73608639d6ea7e2ca" target="_top" xlink:title=" ">
<polygon fill="white" stroke="#666666" points="169,-78 0,-78 0,-48 169,-48 169,-78"/>
<text text-anchor="start" x="8" y="-66" font-family="Helvetica,sans-Serif" font-size="10.00">EonPlay::Data::PlaylistManager</text>
<text text-anchor="middle" x="84.5" y="-55" font-family="Helvetica,sans-Serif" font-size="10.00">::createRecentlyAddedPlaylist</text>
</a>
</g>
</g>
<!-- Node3&#45;&gt;Node8 -->
<g id="edge7_Node000003_Node000008" class="edge">
<title>Node3&#45;&gt;Node8</title>
<g id="a_edge7_Node000003_Node000008"><a xlink:title=" ">
<path fill="none" stroke="#63b8ff" d="M217.8,-116.37C213.41,-114.7 209.11,-112.91 205,-111 187.55,-102.91 186.45,-95.09 169,-87 161.88,-83.7 154.21,-80.75 146.51,-78.15"/>
<polygon fill="#63b8ff" stroke="#63b8ff" points="216.9,-119.77 227.49,-119.85 219.26,-113.18 216.9,-119.77"/>
</a>
</g>
</g>
<!-- Node9 -->
<g id="Node000009" class="node">
<title>Node9</title>
<g id="a_Node000009"><a xlink:href="../../dd/d67/classEonPlay_1_1Data_1_1PlaylistManager.html#aa833f907ff44fd7a50e23a27a8b98e38" target="_top" xlink:title=" ">
<polygon fill="white" stroke="#666666" points="169,-30 0,-30 0,0 169,0 169,-30"/>
<text text-anchor="start" x="8" y="-18" font-family="Helvetica,sans-Serif" font-size="10.00">EonPlay::Data::PlaylistManager</text>
<text text-anchor="middle" x="84.5" y="-7" font-family="Helvetica,sans-Serif" font-size="10.00">::createRecentlyPlayedPlaylist</text>
</a>
</g>
</g>
<!-- Node3&#45;&gt;Node9 -->
<g id="edge8_Node000003_Node000009" class="edge">
<title>Node3&#45;&gt;Node9</title>
<g id="a_edge8_Node000003_Node000009"><a xlink:title=" ">
<path fill="none" stroke="#63b8ff" d="M209.89,-114.7C208.2,-113.53 206.57,-112.3 205,-111 177.49,-88.13 196.51,-61.87 169,-39 164.82,-35.53 160.17,-32.56 155.26,-30.02"/>
<polygon fill="#63b8ff" stroke="#63b8ff" points="208.36,-117.86 218.74,-119.98 211.95,-111.85 208.36,-117.86"/>
</a>
</g>
</g>
</g>
</svg>
