<?xml version="1.0" encoding="UTF-8" standalone="no"?>
<!DOCTYPE svg PUBLIC "-//W3C//DTD SVG 1.1//EN"
 "http://www.w3.org/Graphics/SVG/1.1/DTD/svg11.dtd">
<!-- Generated by graphviz version 2.43.0 (0)
 -->
<!-- Title: EonPlay::Data::PlaylistManager::removeFromPlaylist Pages: 1 -->
<svg width="780pt" height="268pt"
 viewBox="0.00 0.00 780.00 267.50" xmlns="http://www.w3.org/2000/svg" xmlns:xlink="http://www.w3.org/1999/xlink">
<g id="graph0" class="graph" transform="scale(1 1) rotate(0) translate(4 263.5)">
<title>EonPlay::Data::PlaylistManager::removeFromPlaylist</title>
<!-- Node1 -->
<g id="Node000001" class="node">
<title>Node1</title>
<g id="a_Node000001"><a xlink:title=" ">
<polygon fill="#999999" stroke="#666666" points="169,-174 0,-174 0,-144 169,-144 169,-174"/>
<text text-anchor="start" x="8" y="-162" font-family="Helvetica,sans-Serif" font-size="10.00">EonPlay::Data::PlaylistManager</text>
<text text-anchor="middle" x="84.5" y="-151" font-family="Helvetica,sans-Serif" font-size="10.00">::removeFromPlaylist</text>
</a>
</g>
</g>
<!-- Node2 -->
<g id="Node000002" class="node">
<title>Node2</title>
<g id="a_Node000002"><a xlink:href="../../de/dc7/classEonPlay_1_1Data_1_1MediaFile.html#aeb83eaa447b5b8ee7ffd807ba13f91de" target="_top" xlink:title=" ">
<polygon fill="white" stroke="#666666" points="370.5,-259.5 218.5,-259.5 218.5,-240.5 370.5,-240.5 370.5,-259.5"/>
<text text-anchor="middle" x="294.5" y="-247.5" font-family="Helvetica,sans-Serif" font-size="10.00">EonPlay::Data::MediaFile::id</text>
</a>
</g>
</g>
<!-- Node1&#45;&gt;Node2 -->
<g id="edge1_Node000001_Node000002" class="edge">
<title>Node1&#45;&gt;Node2</title>
<g id="a_edge1_Node000001_Node000002"><a xlink:title=" ">
<path fill="none" stroke="#63b8ff" d="M105.98,-174.25C128.94,-190.63 167.84,-216.29 205,-231 211.63,-233.62 218.69,-235.91 225.82,-237.91"/>
<polygon fill="#63b8ff" stroke="#63b8ff" points="224.99,-241.31 235.55,-240.45 226.76,-234.54 224.99,-241.31"/>
</a>
</g>
</g>
<!-- Node3 -->
<g id="Node000003" class="node">
<title>Node3</title>
<g id="a_Node000003"><a xlink:href="../../de/dc7/classEonPlay_1_1Data_1_1MediaFile.html#ac58b462f918e2599c573f99938b2f926" target="_top" xlink:title=" ">
<polygon fill="white" stroke="#666666" points="363,-222 226,-222 226,-192 363,-192 363,-222"/>
<text text-anchor="start" x="234" y="-210" font-family="Helvetica,sans-Serif" font-size="10.00">EonPlay::Data::MediaFile</text>
<text text-anchor="middle" x="294.5" y="-199" font-family="Helvetica,sans-Serif" font-size="10.00">::isValid</text>
</a>
</g>
</g>
<!-- Node1&#45;&gt;Node3 -->
<g id="edge2_Node000001_Node000003" class="edge">
<title>Node1&#45;&gt;Node3</title>
<g id="a_edge2_Node000001_Node000003"><a xlink:title=" ">
<path fill="none" stroke="#63b8ff" d="M150.74,-174.06C172.23,-179.01 196.3,-184.57 218.46,-189.68"/>
<polygon fill="#63b8ff" stroke="#63b8ff" points="217.96,-193.16 228.49,-192 219.53,-186.34 217.96,-193.16"/>
</a>
</g>
</g>
<!-- Node6 -->
<g id="Node000006" class="node">
<title>Node6</title>
<g id="a_Node000006"><a xlink:href="../../dd/d67/classEonPlay_1_1Data_1_1PlaylistManager.html#a4634b60157eef13589941b0c636901b4" target="_top" xlink:title=" ">
<polygon fill="white" stroke="#666666" points="379,-174 210,-174 210,-144 379,-144 379,-174"/>
<text text-anchor="start" x="218" y="-162" font-family="Helvetica,sans-Serif" font-size="10.00">EonPlay::Data::PlaylistManager</text>
<text text-anchor="middle" x="294.5" y="-151" font-family="Helvetica,sans-Serif" font-size="10.00">::itemRemovedFromPlaylist</text>
</a>
</g>
</g>
<!-- Node1&#45;&gt;Node6 -->
<g id="edge5_Node000001_Node000006" class="edge">
<title>Node1&#45;&gt;Node6</title>
<g id="a_edge5_Node000001_Node000006"><a xlink:title=" ">
<path fill="none" stroke="#63b8ff" d="M169.2,-159C179.28,-159 189.62,-159 199.82,-159"/>
<polygon fill="#63b8ff" stroke="#63b8ff" points="199.97,-162.5 209.97,-159 199.97,-155.5 199.97,-162.5"/>
</a>
</g>
</g>
<!-- Node7 -->
<g id="Node000007" class="node">
<title>Node7</title>
<g id="a_Node000007"><a xlink:href="../../dd/d67/classEonPlay_1_1Data_1_1PlaylistManager.html#a2bc3ed8a7eac97e8a44bb5164b30574e" target="_top" xlink:title=" ">
<polygon fill="white" stroke="#666666" points="379,-126 210,-126 210,-96 379,-96 379,-126"/>
<text text-anchor="start" x="218" y="-114" font-family="Helvetica,sans-Serif" font-size="10.00">EonPlay::Data::PlaylistManager</text>
<text text-anchor="middle" x="294.5" y="-103" font-family="Helvetica,sans-Serif" font-size="10.00">::playlistUpdated</text>
</a>
</g>
</g>
<!-- Node1&#45;&gt;Node7 -->
<g id="edge6_Node000001_Node000007" class="edge">
<title>Node1&#45;&gt;Node7</title>
<g id="a_edge6_Node000001_Node000007"><a xlink:title=" ">
<path fill="none" stroke="#63b8ff" d="M150.74,-143.94C172.23,-138.99 196.3,-133.43 218.46,-128.32"/>
<polygon fill="#63b8ff" stroke="#63b8ff" points="219.53,-131.66 228.49,-126 217.96,-124.84 219.53,-131.66"/>
</a>
</g>
</g>
<!-- Node8 -->
<g id="Node000008" class="node">
<title>Node8</title>
<g id="a_Node000008"><a xlink:href="../../da/db6/classEonPlay_1_1Data_1_1DatabaseManager.html#a71c2ae02457173c5736e0f7a05d7f8af" target="_top" xlink:title=" ">
<polygon fill="white" stroke="#666666" points="384,-78 205,-78 205,-48 384,-48 384,-78"/>
<text text-anchor="start" x="213" y="-66" font-family="Helvetica,sans-Serif" font-size="10.00">EonPlay::Data::DatabaseManager</text>
<text text-anchor="middle" x="294.5" y="-55" font-family="Helvetica,sans-Serif" font-size="10.00">::removeFromPlaylist</text>
</a>
</g>
</g>
<!-- Node1&#45;&gt;Node8 -->
<g id="edge7_Node000001_Node000008" class="edge">
<title>Node1&#45;&gt;Node8</title>
<g id="a_edge7_Node000001_Node000008"><a xlink:title=" ">
<path fill="none" stroke="#63b8ff" d="M106.55,-143.83C129.7,-127.76 168.47,-102.6 205,-87 209.73,-84.98 214.67,-83.09 219.7,-81.33"/>
<polygon fill="#63b8ff" stroke="#63b8ff" points="221.06,-84.56 229.45,-78.09 218.85,-77.92 221.06,-84.56"/>
</a>
</g>
</g>
<!-- Node4 -->
<g id="Node000004" class="node">
<title>Node4</title>
<g id="a_Node000004"><a xlink:href="../../de/dc7/classEonPlay_1_1Data_1_1MediaFile.html#ad640ac7e92f75f102d2828dc0b092eb0" target="_top" xlink:title=" ">
<polygon fill="white" stroke="#666666" points="578,-222 441,-222 441,-192 578,-192 578,-222"/>
<text text-anchor="start" x="449" y="-210" font-family="Helvetica,sans-Serif" font-size="10.00">EonPlay::Data::MediaFile</text>
<text text-anchor="middle" x="509.5" y="-199" font-family="Helvetica,sans-Serif" font-size="10.00">::fileExists</text>
</a>
</g>
</g>
<!-- Node3&#45;&gt;Node4 -->
<g id="edge3_Node000003_Node000004" class="edge">
<title>Node3&#45;&gt;Node4</title>
<g id="a_edge3_Node000003_Node000004"><a xlink:title=" ">
<path fill="none" stroke="#63b8ff" d="M363.19,-207C384.74,-207 408.74,-207 430.94,-207"/>
<polygon fill="#63b8ff" stroke="#63b8ff" points="430.99,-210.5 440.99,-207 430.99,-203.5 430.99,-210.5"/>
</a>
</g>
</g>
<!-- Node5 -->
<g id="Node000005" class="node">
<title>Node5</title>
<g id="a_Node000005"><a xlink:href="../../de/dc7/classEonPlay_1_1Data_1_1MediaFile.html#ad3d64b0f06c4b50e4be23cba4b668680" target="_top" xlink:title=" ">
<polygon fill="white" stroke="#666666" points="772,-222 635,-222 635,-192 772,-192 772,-222"/>
<text text-anchor="start" x="643" y="-210" font-family="Helvetica,sans-Serif" font-size="10.00">EonPlay::Data::MediaFile</text>
<text text-anchor="middle" x="703.5" y="-199" font-family="Helvetica,sans-Serif" font-size="10.00">::fileInfo</text>
</a>
</g>
</g>
<!-- Node4&#45;&gt;Node5 -->
<g id="edge4_Node000004_Node000005" class="edge">
<title>Node4&#45;&gt;Node5</title>
<g id="a_edge4_Node000004_Node000005"><a xlink:title=" ">
<path fill="none" stroke="#63b8ff" d="M578.19,-207C593.25,-207 609.32,-207 624.75,-207"/>
<polygon fill="#63b8ff" stroke="#63b8ff" points="624.77,-210.5 634.77,-207 624.77,-203.5 624.77,-210.5"/>
</a>
</g>
</g>
<!-- Node9 -->
<g id="Node000009" class="node">
<title>Node9</title>
<g id="a_Node000009"><a xlink:href="../../da/db6/classEonPlay_1_1Data_1_1DatabaseManager.html#ac0359ba6c6e98287b9f482f900baf24c" target="_top" xlink:title=" ">
<polygon fill="white" stroke="#666666" points="599,-126 420,-126 420,-96 599,-96 599,-126"/>
<text text-anchor="start" x="428" y="-114" font-family="Helvetica,sans-Serif" font-size="10.00">EonPlay::Data::DatabaseManager</text>
<text text-anchor="middle" x="509.5" y="-103" font-family="Helvetica,sans-Serif" font-size="10.00">::executeQuery</text>
</a>
</g>
</g>
<!-- Node8&#45;&gt;Node9 -->
<g id="edge8_Node000008_Node000009" class="edge">
<title>Node8&#45;&gt;Node9</title>
<g id="a_edge8_Node000008_Node000009"><a xlink:title=" ">
<path fill="none" stroke="#63b8ff" d="M362.31,-78.06C384.42,-83.04 409.18,-88.62 431.96,-93.75"/>
<polygon fill="#63b8ff" stroke="#63b8ff" points="431.4,-97.21 441.93,-96 432.94,-90.38 431.4,-97.21"/>
</a>
</g>
</g>
<!-- Node10 -->
<g id="Node000010" class="node">
<title>Node10</title>
<g id="a_Node000010"><a xlink:href="../../da/db6/classEonPlay_1_1Data_1_1DatabaseManager.html#a4deaf9b67323a597542eec31e8e47f14" target="_top" xlink:title=" ">
<polygon fill="white" stroke="#666666" points="599,-78 420,-78 420,-48 599,-48 599,-78"/>
<text text-anchor="start" x="428" y="-66" font-family="Helvetica,sans-Serif" font-size="10.00">EonPlay::Data::DatabaseManager</text>
<text text-anchor="middle" x="509.5" y="-55" font-family="Helvetica,sans-Serif" font-size="10.00">::playlistCreated</text>
</a>
</g>
</g>
<!-- Node8&#45;&gt;Node10 -->
<g id="edge9_Node000008_Node000010" class="edge">
<title>Node8&#45;&gt;Node10</title>
<g id="a_edge9_Node000008_Node000010"><a xlink:title=" ">
<path fill="none" stroke="#63b8ff" d="M384.29,-63C392.65,-63 401.16,-63 409.6,-63"/>
<polygon fill="#63b8ff" stroke="#63b8ff" points="409.86,-66.5 419.86,-63 409.85,-59.5 409.86,-66.5"/>
</a>
</g>
</g>
<!-- Node11 -->
<g id="Node000011" class="node">
<title>Node11</title>
<g id="a_Node000011"><a xlink:href="../../da/db6/classEonPlay_1_1Data_1_1DatabaseManager.html#a17c3a9ed1ea5a58d450bd7311bddb41c" target="_top" xlink:title=" ">
<polygon fill="white" stroke="#666666" points="599,-30 420,-30 420,0 599,0 599,-30"/>
<text text-anchor="start" x="428" y="-18" font-family="Helvetica,sans-Serif" font-size="10.00">EonPlay::Data::DatabaseManager</text>
<text text-anchor="middle" x="509.5" y="-7" font-family="Helvetica,sans-Serif" font-size="10.00">::prepareQuery</text>
</a>
</g>
</g>
<!-- Node8&#45;&gt;Node11 -->
<g id="edge10_Node000008_Node000011" class="edge">
<title>Node8&#45;&gt;Node11</title>
<g id="a_edge10_Node000008_Node000011"><a xlink:title=" ">
<path fill="none" stroke="#63b8ff" d="M362.31,-47.94C384.42,-42.96 409.18,-37.38 431.96,-32.25"/>
<polygon fill="#63b8ff" stroke="#63b8ff" points="432.94,-35.62 441.93,-30 431.4,-28.79 432.94,-35.62"/>
</a>
</g>
</g>
</g>
</svg>
