<?xml version="1.0" encoding="UTF-8" standalone="no"?>
<!DOCTYPE svg PUBLIC "-//W3C//DTD SVG 1.1//EN"
 "http://www.w3.org/Graphics/SVG/1.1/DTD/svg11.dtd">
<!-- Generated by graphviz version 2.43.0 (0)
 -->
<!-- Title: EonPlay::Data::PlaylistManager::getAllPlaylists Pages: 1 -->
<svg width="569pt" height="278pt"
 viewBox="0.00 0.00 569.00 278.00" xmlns="http://www.w3.org/2000/svg" xmlns:xlink="http://www.w3.org/1999/xlink">
<g id="graph0" class="graph" transform="scale(1 1) rotate(0) translate(4 274)">
<title>EonPlay::Data::PlaylistManager::getAllPlaylists</title>
<!-- Node1 -->
<g id="Node000001" class="node">
<title>Node1</title>
<g id="a_Node000001"><a xlink:title=" ">
<polygon fill="#999999" stroke="#666666" points="169,-174 0,-174 0,-144 169,-144 169,-174"/>
<text text-anchor="start" x="8" y="-162" font-family="Helvetica,sans-Serif" font-size="10.00">EonPlay::Data::PlaylistManager</text>
<text text-anchor="middle" x="84.5" y="-151" font-family="Helvetica,sans-Serif" font-size="10.00">::getAllPlaylists</text>
</a>
</g>
</g>
<!-- Node2 -->
<g id="Node000002" class="node">
<title>Node2</title>
<g id="a_Node000002"><a xlink:href="../../da/db6/classEonPlay_1_1Data_1_1DatabaseManager.html#a19e76ae0679a670337426be5fa7ef0eb" target="_top" xlink:title=" ">
<polygon fill="white" stroke="#666666" points="384,-270 205,-270 205,-240 384,-240 384,-270"/>
<text text-anchor="start" x="213" y="-258" font-family="Helvetica,sans-Serif" font-size="10.00">EonPlay::Data::DatabaseManager</text>
<text text-anchor="middle" x="294.5" y="-247" font-family="Helvetica,sans-Serif" font-size="10.00">::getAllPlaylists</text>
</a>
</g>
</g>
<!-- Node1&#45;&gt;Node2 -->
<g id="edge1_Node000001_Node000002" class="edge">
<title>Node1&#45;&gt;Node2</title>
<g id="a_edge1_Node000001_Node000002"><a xlink:title=" ">
<path fill="none" stroke="#63b8ff" d="M106.55,-174.17C129.7,-190.24 168.47,-215.4 205,-231 209.73,-233.02 214.67,-234.91 219.7,-236.67"/>
<polygon fill="#63b8ff" stroke="#63b8ff" points="218.85,-240.08 229.45,-239.91 221.06,-233.44 218.85,-240.08"/>
</a>
</g>
</g>
<!-- Node3 -->
<g id="Node000003" class="node">
<title>Node3</title>
<g id="a_Node000003"><a xlink:href="../../d0/d00/classEonPlay_1_1Data_1_1Playlist.html#a5edbf188d21c2313025cea0c2156f427" target="_top" xlink:title=" ">
<polygon fill="white" stroke="#666666" points="357.5,-222 231.5,-222 231.5,-192 357.5,-192 357.5,-222"/>
<text text-anchor="start" x="239.5" y="-210" font-family="Helvetica,sans-Serif" font-size="10.00">EonPlay::Data::Playlist</text>
<text text-anchor="middle" x="294.5" y="-199" font-family="Helvetica,sans-Serif" font-size="10.00">::setCreatedDate</text>
</a>
</g>
</g>
<!-- Node1&#45;&gt;Node3 -->
<g id="edge2_Node000001_Node000003" class="edge">
<title>Node1&#45;&gt;Node3</title>
<g id="a_edge2_Node000001_Node000003"><a xlink:title=" ">
<path fill="none" stroke="#63b8ff" d="M150.74,-174.06C173.16,-179.23 198.38,-185.05 221.32,-190.34"/>
<polygon fill="#63b8ff" stroke="#63b8ff" points="220.8,-193.81 231.33,-192.65 222.37,-186.99 220.8,-193.81"/>
</a>
</g>
</g>
<!-- Node5 -->
<g id="Node000005" class="node">
<title>Node5</title>
<g id="a_Node000005"><a xlink:href="../../d0/d00/classEonPlay_1_1Data_1_1Playlist.html#aec66cac1a1318ff2c9a97aa39f6b6435" target="_top" xlink:title=" ">
<polygon fill="white" stroke="#666666" points="357.5,-174 231.5,-174 231.5,-144 357.5,-144 357.5,-174"/>
<text text-anchor="start" x="239.5" y="-162" font-family="Helvetica,sans-Serif" font-size="10.00">EonPlay::Data::Playlist</text>
<text text-anchor="middle" x="294.5" y="-151" font-family="Helvetica,sans-Serif" font-size="10.00">::setId</text>
</a>
</g>
</g>
<!-- Node1&#45;&gt;Node5 -->
<g id="edge4_Node000001_Node000005" class="edge">
<title>Node1&#45;&gt;Node5</title>
<g id="a_edge4_Node000001_Node000005"><a xlink:title=" ">
<path fill="none" stroke="#63b8ff" d="M169.2,-159C186.4,-159 204.38,-159 221.14,-159"/>
<polygon fill="#63b8ff" stroke="#63b8ff" points="221.4,-162.5 231.4,-159 221.4,-155.5 221.4,-162.5"/>
</a>
</g>
</g>
<!-- Node7 -->
<g id="Node000007" class="node">
<title>Node7</title>
<g id="a_Node000007"><a xlink:href="../../d0/d00/classEonPlay_1_1Data_1_1Playlist.html#ab68a9eced8c476574c74f635d882db4e" target="_top" xlink:title=" ">
<polygon fill="white" stroke="#666666" points="357.5,-126 231.5,-126 231.5,-96 357.5,-96 357.5,-126"/>
<text text-anchor="start" x="239.5" y="-114" font-family="Helvetica,sans-Serif" font-size="10.00">EonPlay::Data::Playlist</text>
<text text-anchor="middle" x="294.5" y="-103" font-family="Helvetica,sans-Serif" font-size="10.00">::setModifiedDate</text>
</a>
</g>
</g>
<!-- Node1&#45;&gt;Node7 -->
<g id="edge6_Node000001_Node000007" class="edge">
<title>Node1&#45;&gt;Node7</title>
<g id="a_edge6_Node000001_Node000007"><a xlink:title=" ">
<path fill="none" stroke="#63b8ff" d="M150.74,-143.94C173.16,-138.77 198.38,-132.95 221.32,-127.66"/>
<polygon fill="#63b8ff" stroke="#63b8ff" points="222.37,-131.01 231.33,-125.35 220.8,-124.19 222.37,-131.01"/>
</a>
</g>
</g>
<!-- Node9 -->
<g id="Node000009" class="node">
<title>Node9</title>
<g id="a_Node000009"><a xlink:href="../../d0/d00/classEonPlay_1_1Data_1_1Playlist.html#a76aa332e013b6b966c81429014fed11d" target="_top" xlink:title=" ">
<polygon fill="white" stroke="#666666" points="357.5,-78 231.5,-78 231.5,-48 357.5,-48 357.5,-78"/>
<text text-anchor="start" x="239.5" y="-66" font-family="Helvetica,sans-Serif" font-size="10.00">EonPlay::Data::Playlist</text>
<text text-anchor="middle" x="294.5" y="-55" font-family="Helvetica,sans-Serif" font-size="10.00">::setName</text>
</a>
</g>
</g>
<!-- Node1&#45;&gt;Node9 -->
<g id="edge8_Node000001_Node000009" class="edge">
<title>Node1&#45;&gt;Node9</title>
<g id="a_edge8_Node000001_Node000009"><a xlink:title=" ">
<path fill="none" stroke="#63b8ff" d="M106.55,-143.83C129.7,-127.76 168.47,-102.6 205,-87 210.35,-84.72 215.97,-82.6 221.68,-80.64"/>
<polygon fill="#63b8ff" stroke="#63b8ff" points="222.91,-83.92 231.34,-77.5 220.74,-77.26 222.91,-83.92"/>
</a>
</g>
</g>
<!-- Node4 -->
<g id="Node000004" class="node">
<title>Node4</title>
<g id="a_Node000004"><a xlink:href="../../d0/d00/classEonPlay_1_1Data_1_1Playlist.html#a7d52d928a0127129a984c30b7d8e49da" target="_top" xlink:title=" ">
<polygon fill="white" stroke="#666666" points="553.5,-222 427.5,-222 427.5,-192 553.5,-192 553.5,-222"/>
<text text-anchor="start" x="435.5" y="-210" font-family="Helvetica,sans-Serif" font-size="10.00">EonPlay::Data::Playlist</text>
<text text-anchor="middle" x="490.5" y="-199" font-family="Helvetica,sans-Serif" font-size="10.00">::createdDate</text>
</a>
</g>
</g>
<!-- Node3&#45;&gt;Node4 -->
<g id="edge3_Node000003_Node000004" class="edge">
<title>Node3&#45;&gt;Node4</title>
<g id="a_edge3_Node000003_Node000004"><a xlink:title=" ">
<path fill="none" stroke="#63b8ff" d="M357.68,-207C376.65,-207 397.67,-207 417.25,-207"/>
<polygon fill="#63b8ff" stroke="#63b8ff" points="417.34,-210.5 427.34,-207 417.34,-203.5 417.34,-210.5"/>
</a>
</g>
</g>
<!-- Node6 -->
<g id="Node000006" class="node">
<title>Node6</title>
<g id="a_Node000006"><a xlink:href="../../d0/d00/classEonPlay_1_1Data_1_1Playlist.html#af20a19bc6353cd76bf16b527eef43cd4" target="_top" xlink:title=" ">
<polygon fill="white" stroke="#666666" points="561,-168.5 420,-168.5 420,-149.5 561,-149.5 561,-168.5"/>
<text text-anchor="middle" x="490.5" y="-156.5" font-family="Helvetica,sans-Serif" font-size="10.00">EonPlay::Data::Playlist::id</text>
</a>
</g>
</g>
<!-- Node5&#45;&gt;Node6 -->
<g id="edge5_Node000005_Node000006" class="edge">
<title>Node5&#45;&gt;Node6</title>
<g id="a_edge5_Node000005_Node000006"><a xlink:title=" ">
<path fill="none" stroke="#63b8ff" d="M357.68,-159C374.27,-159 392.42,-159 409.8,-159"/>
<polygon fill="#63b8ff" stroke="#63b8ff" points="409.93,-162.5 419.93,-159 409.93,-155.5 409.93,-162.5"/>
</a>
</g>
</g>
<!-- Node8 -->
<g id="Node000008" class="node">
<title>Node8</title>
<g id="a_Node000008"><a xlink:href="../../d0/d00/classEonPlay_1_1Data_1_1Playlist.html#a2b74d3ac822324d572499f680b59dc09" target="_top" xlink:title=" ">
<polygon fill="white" stroke="#666666" points="553.5,-126 427.5,-126 427.5,-96 553.5,-96 553.5,-126"/>
<text text-anchor="start" x="435.5" y="-114" font-family="Helvetica,sans-Serif" font-size="10.00">EonPlay::Data::Playlist</text>
<text text-anchor="middle" x="490.5" y="-103" font-family="Helvetica,sans-Serif" font-size="10.00">::modifiedDate</text>
</a>
</g>
</g>
<!-- Node7&#45;&gt;Node8 -->
<g id="edge7_Node000007_Node000008" class="edge">
<title>Node7&#45;&gt;Node8</title>
<g id="a_edge7_Node000007_Node000008"><a xlink:title=" ">
<path fill="none" stroke="#63b8ff" d="M357.68,-111C376.65,-111 397.67,-111 417.25,-111"/>
<polygon fill="#63b8ff" stroke="#63b8ff" points="417.34,-114.5 427.34,-111 417.34,-107.5 417.34,-114.5"/>
</a>
</g>
</g>
<!-- Node10 -->
<g id="Node000010" class="node">
<title>Node10</title>
<g id="a_Node000010"><a xlink:href="../../d0/d00/classEonPlay_1_1Data_1_1Playlist.html#a3ec3853b1f913ad37d6f04e63ea2355b" target="_top" xlink:title=" ">
<polygon fill="white" stroke="#666666" points="553.5,-78 427.5,-78 427.5,-48 553.5,-48 553.5,-78"/>
<text text-anchor="start" x="435.5" y="-66" font-family="Helvetica,sans-Serif" font-size="10.00">EonPlay::Data::Playlist</text>
<text text-anchor="middle" x="490.5" y="-55" font-family="Helvetica,sans-Serif" font-size="10.00">::name</text>
</a>
</g>
</g>
<!-- Node9&#45;&gt;Node10 -->
<g id="edge9_Node000009_Node000010" class="edge">
<title>Node9&#45;&gt;Node10</title>
<g id="a_edge9_Node000009_Node000010"><a xlink:title=" ">
<path fill="none" stroke="#63b8ff" d="M357.68,-63C376.65,-63 397.67,-63 417.25,-63"/>
<polygon fill="#63b8ff" stroke="#63b8ff" points="417.34,-66.5 427.34,-63 417.34,-59.5 417.34,-66.5"/>
</a>
</g>
</g>
<!-- Node11 -->
<g id="Node000011" class="node">
<title>Node11</title>
<g id="a_Node000011"><a xlink:href="../../d0/d00/classEonPlay_1_1Data_1_1Playlist.html#aba2637fbf1f9943a80a9c72d7e9df447" target="_top" xlink:title=" ">
<polygon fill="white" stroke="#666666" points="553.5,-30 427.5,-30 427.5,0 553.5,0 553.5,-30"/>
<text text-anchor="start" x="435.5" y="-18" font-family="Helvetica,sans-Serif" font-size="10.00">EonPlay::Data::Playlist</text>
<text text-anchor="middle" x="490.5" y="-7" font-family="Helvetica,sans-Serif" font-size="10.00">::nameChanged</text>
</a>
</g>
</g>
<!-- Node9&#45;&gt;Node11 -->
<g id="edge10_Node000009_Node000011" class="edge">
<title>Node9&#45;&gt;Node11</title>
<g id="a_edge10_Node000009_Node000011"><a xlink:title=" ">
<path fill="none" stroke="#63b8ff" d="M356.35,-47.94C376.21,-43.03 398.44,-37.53 418.95,-32.46"/>
<polygon fill="#63b8ff" stroke="#63b8ff" points="420,-35.8 428.87,-30 418.32,-29.01 420,-35.8"/>
</a>
</g>
</g>
</g>
</svg>
