<?xml version="1.0" encoding="UTF-8" standalone="no"?>
<!DOCTYPE svg PUBLIC "-//W3C//DTD SVG 1.1//EN"
 "http://www.w3.org/Graphics/SVG/1.1/DTD/svg11.dtd">
<!-- Generated by graphviz version 2.43.0 (0)
 -->
<!-- Title: EonPlay::AI::SubtitleLanguageDetector::detectLanguageFromMultipleFiles Pages: 1 -->
<svg width="480pt" height="182pt"
 viewBox="0.00 0.00 480.00 182.00" xmlns="http://www.w3.org/2000/svg" xmlns:xlink="http://www.w3.org/1999/xlink">

<svg id="main" version="1.1" xmlns="http://www.w3.org/2000/svg" xmlns:xlink="http://www.w3.org/1999/xlink" xml:space="preserve" onload="init(evt)">
<style type="text/css"><![CDATA[
.node, .edge {opacity: 0.7;}
.node.selected, .edge.selected {opacity: 1;}
.edge:hover path { stroke: red; }
.edge:hover polygon { stroke: red; fill: red; }
]]></style>
<script type="application/ecmascript" xlink:href="../../svg.min.js"/>
<svg id="graph" class="graph">
<g id="graph0" class="graph" transform="scale(1 1) rotate(0) translate(4 178)">
<title>EonPlay::AI::SubtitleLanguageDetector::detectLanguageFromMultipleFiles</title>
<!-- Node1 -->
<g id="Node000001" class="node">
<title>Node1</title>
<g id="a_Node000001"><a xlink:title=" ">
<polygon fill="#999999" stroke="#666666" points="230,-102 0,-102 0,-72 230,-72 230,-102"/>
<text text-anchor="start" x="8" y="-90" font-family="Helvetica,sans-Serif" font-size="10.00">EonPlay::AI::SubtitleLanguage</text>
<text text-anchor="middle" x="115" y="-79" font-family="Helvetica,sans-Serif" font-size="10.00">Detector::detectLanguageFromMultipleFiles</text>
</a>
</g>
</g>
<!-- Node2 -->
<g id="Node000002" class="node">
<title>Node2</title>
<g id="a_Node000002"><a xlink:href="../../d7/d93/classEonPlay_1_1AI_1_1SubtitleLanguageDetector.html#a77532d34586530a358e04a74443639ba" target="_top" xlink:title=" ">
<polygon fill="white" stroke="#666666" points="452,-174 286,-174 286,-144 452,-144 452,-174"/>
<text text-anchor="start" x="294" y="-162" font-family="Helvetica,sans-Serif" font-size="10.00">EonPlay::AI::SubtitleLanguage</text>
<text text-anchor="middle" x="369" y="-151" font-family="Helvetica,sans-Serif" font-size="10.00">Detector::detectLanguageSync</text>
</a>
</g>
</g>
<!-- Node1&#45;&gt;Node2 -->
<g id="edge1_Node000001_Node000002" class="edge">
<title>Node1&#45;&gt;Node2</title>
<g id="a_edge1_Node000001_Node000002"><a xlink:title=" ">
<path fill="none" stroke="#63b8ff" d="M160.03,-102.1C189.78,-112.05 230.03,-125.03 266,-135 274.06,-137.24 282.52,-139.44 290.98,-141.56"/>
<polygon fill="#63b8ff" stroke="#63b8ff" points="290.32,-145 300.87,-144 292,-138.21 290.32,-145"/>
</a>
</g>
</g>
<!-- Node3 -->
<g id="Node000003" class="node">
<title>Node3</title>
<g id="a_Node000003"><a xlink:href="../../d7/d93/classEonPlay_1_1AI_1_1SubtitleLanguageDetector.html#a9ad064f8b33fd9568058a19593e98e63" target="_top" xlink:title=" ">
<polygon fill="white" stroke="#666666" points="468.5,-126 269.5,-126 269.5,-96 468.5,-96 468.5,-126"/>
<text text-anchor="start" x="277.5" y="-114" font-family="Helvetica,sans-Serif" font-size="10.00">EonPlay::AI::SubtitleLanguage</text>
<text text-anchor="middle" x="369" y="-103" font-family="Helvetica,sans-Serif" font-size="10.00">Detector::extractTextFromSubtitleFile</text>
</a>
</g>
</g>
<!-- Node1&#45;&gt;Node3 -->
<g id="edge2_Node000001_Node000003" class="edge">
<title>Node1&#45;&gt;Node3</title>
<g id="a_edge2_Node000001_Node000003"><a xlink:title=" ">
<path fill="none" stroke="#63b8ff" d="M230.2,-97.88C239.87,-98.8 249.63,-99.73 259.25,-100.64"/>
<polygon fill="#63b8ff" stroke="#63b8ff" points="258.93,-104.13 269.22,-101.59 259.59,-97.16 258.93,-104.13"/>
</a>
</g>
</g>
<!-- Node4 -->
<g id="Node000004" class="node">
<title>Node4</title>
<g id="a_Node000004"><a xlink:href="../../d7/d93/classEonPlay_1_1AI_1_1SubtitleLanguageDetector.html#a1aafbdb7a19f877011e8083e7d7e7687" target="_top" xlink:title=" ">
<polygon fill="white" stroke="#666666" points="457.5,-78 280.5,-78 280.5,-48 457.5,-48 457.5,-78"/>
<text text-anchor="start" x="288.5" y="-66" font-family="Helvetica,sans-Serif" font-size="10.00">EonPlay::AI::SubtitleLanguage</text>
<text text-anchor="middle" x="369" y="-55" font-family="Helvetica,sans-Serif" font-size="10.00">Detector::isSupportedSubtitleFile</text>
</a>
</g>
</g>
<!-- Node1&#45;&gt;Node4 -->
<g id="edge3_Node000001_Node000004" class="edge">
<title>Node1&#45;&gt;Node4</title>
<g id="a_edge3_Node000001_Node000004"><a xlink:title=" ">
<path fill="none" stroke="#63b8ff" d="M230.2,-76.12C243.46,-74.86 256.89,-73.58 269.9,-72.34"/>
<polygon fill="#63b8ff" stroke="#63b8ff" points="270.62,-75.79 280.24,-71.36 269.95,-68.82 270.62,-75.79"/>
</a>
</g>
</g>
<!-- Node5 -->
<g id="Node000005" class="node">
<title>Node5</title>
<g id="a_Node000005"><a xlink:href="../../d7/d93/classEonPlay_1_1AI_1_1SubtitleLanguageDetector.html#a3dc9b3255592d2bc0f2769b450fb81b0" target="_top" xlink:title=" ">
<polygon fill="white" stroke="#666666" points="472,-30 266,-30 266,0 472,0 472,-30"/>
<text text-anchor="start" x="274" y="-18" font-family="Helvetica,sans-Serif" font-size="10.00">EonPlay::AI::SubtitleLanguage</text>
<text text-anchor="middle" x="369" y="-7" font-family="Helvetica,sans-Serif" font-size="10.00">Detector::multipleDetectionCompleted</text>
</a>
</g>
</g>
<!-- Node1&#45;&gt;Node5 -->
<g id="edge4_Node000001_Node000005" class="edge">
<title>Node1&#45;&gt;Node5</title>
<g id="a_edge4_Node000001_Node000005"><a xlink:title=" ">
<path fill="none" stroke="#63b8ff" d="M160.03,-71.9C189.78,-61.95 230.03,-48.97 266,-39 274.06,-36.76 282.52,-34.56 290.98,-32.44"/>
<polygon fill="#63b8ff" stroke="#63b8ff" points="292,-35.79 300.87,-30 290.32,-29 292,-35.79"/>
</a>
</g>
</g>
</g>
</svg>
</svg>

<style type='text/css'>
<![CDATA[
[data-mouse-over-selected='false'] { opacity: 0.7; }
[data-mouse-over-selected='true']  { opacity: 1.0; }
]]>
</style>
<script type="application/ecmascript"><![CDATA[
document.addEventListener('DOMContentLoaded', (event) => {
  highlightEdges();
  highlightAdjacentNodes();
});
]]></script>
</svg>
