<?xml version="1.0" encoding="UTF-8" standalone="no"?>
<!DOCTYPE svg PUBLIC "-//W3C//DTD SVG 1.1//EN"
 "http://www.w3.org/Graphics/SVG/1.1/DTD/svg11.dtd">
<!-- Generated by graphviz version 2.43.0 (0)
 -->
<!-- Title: EonPlay::AI::SubtitleLanguageDetector::detectionFailed Pages: 1 -->
<svg width="614pt" height="59pt"
 viewBox="0.00 0.00 614.00 59.00" xmlns="http://www.w3.org/2000/svg" xmlns:xlink="http://www.w3.org/1999/xlink">
<g id="graph0" class="graph" transform="scale(1 1) rotate(0) translate(4 55)">
<title>EonPlay::AI::SubtitleLanguageDetector::detectionFailed</title>
<!-- Node1 -->
<g id="Node000001" class="node">
<title>Node1</title>
<g id="a_Node000001"><a xlink:title=" ">
<polygon fill="#999999" stroke="#666666" points="606,-51 445,-51 445,-21 606,-21 606,-51"/>
<text text-anchor="start" x="453" y="-39" font-family="Helvetica,sans-Serif" font-size="10.00">EonPlay::AI::SubtitleLanguage</text>
<text text-anchor="middle" x="525.5" y="-28" font-family="Helvetica,sans-Serif" font-size="10.00">Detector::detectionFailed</text>
</a>
</g>
</g>
<!-- Node2 -->
<g id="Node000002" class="node">
<title>Node2</title>
<g id="a_Node000002"><a xlink:href="../../d7/d93/classEonPlay_1_1AI_1_1SubtitleLanguageDetector.html#af3949998fd4737f2e947bb2ef0c2a944" target="_top" xlink:title=" ">
<polygon fill="white" stroke="#666666" points="185,-51 0,-51 0,-21 185,-21 185,-51"/>
<text text-anchor="start" x="8" y="-39" font-family="Helvetica,sans-Serif" font-size="10.00">EonPlay::AI::SubtitleLanguage</text>
<text text-anchor="middle" x="92.5" y="-28" font-family="Helvetica,sans-Serif" font-size="10.00">Detector::detectLanguageFromFile</text>
</a>
</g>
</g>
<!-- Node1&#45;&gt;Node2 -->
<g id="edge1_Node000001_Node000002" class="edge">
<title>Node1&#45;&gt;Node2</title>
<g id="a_edge1_Node000001_Node000002"><a xlink:title=" ">
<path fill="none" stroke="#63b8ff" d="M434.77,-38.56C426.06,-38.74 417.36,-38.89 409,-39 325.45,-40.08 304.55,-39.98 221,-39 209.38,-38.86 197.16,-38.66 185.08,-38.41"/>
<polygon fill="#63b8ff" stroke="#63b8ff" points="435.06,-42.05 444.98,-38.34 434.9,-35.06 435.06,-42.05"/>
</a>
</g>
</g>
<!-- Node3 -->
<g id="Node000003" class="node">
<title>Node3</title>
<g id="a_Node000003"><a xlink:href="../../d7/d93/classEonPlay_1_1AI_1_1SubtitleLanguageDetector.html#a2bc0a7cee3798f9e3d1f6f54e0889259" target="_top" xlink:title=" ">
<polygon fill="white" stroke="#666666" points="409,-30 221,-30 221,0 409,0 409,-30"/>
<text text-anchor="start" x="229" y="-18" font-family="Helvetica,sans-Serif" font-size="10.00">EonPlay::AI::SubtitleLanguage</text>
<text text-anchor="middle" x="315" y="-7" font-family="Helvetica,sans-Serif" font-size="10.00">Detector::detectLanguageFromText</text>
</a>
</g>
</g>
<!-- Node1&#45;&gt;Node3 -->
<g id="edge2_Node000001_Node000003" class="edge">
<title>Node1&#45;&gt;Node3</title>
<g id="a_edge2_Node000001_Node000003"><a xlink:title=" ">
<path fill="none" stroke="#63b8ff" d="M434.62,-26.95C426.23,-26.1 417.7,-25.24 409.28,-24.4"/>
<polygon fill="#63b8ff" stroke="#63b8ff" points="434.48,-30.45 444.78,-27.97 435.18,-23.49 434.48,-30.45"/>
</a>
</g>
</g>
<!-- Node3&#45;&gt;Node2 -->
<g id="edge3_Node000003_Node000002" class="edge">
<title>Node3&#45;&gt;Node2</title>
<g id="a_edge3_Node000003_Node000002"><a xlink:title=" ">
<path fill="none" stroke="#63b8ff" d="M210.84,-24.82C202.32,-25.64 193.74,-26.45 185.3,-27.26"/>
<polygon fill="#63b8ff" stroke="#63b8ff" points="211.18,-28.31 220.81,-23.88 210.52,-21.34 211.18,-28.31"/>
</a>
</g>
</g>
</g>
</svg>
