<?xml version="1.0" encoding="UTF-8" standalone="no"?>
<!DOCTYPE svg PUBLIC "-//W3C//DTD SVG 1.1//EN"
 "http://www.w3.org/Graphics/SVG/1.1/DTD/svg11.dtd">
<!-- Generated by graphviz version 2.43.0 (0)
 -->
<!-- Title: EonPlay::AI::SubtitleLanguageDetector::detectLanguageFromText Pages: 1 -->
<svg width="393pt" height="86pt"
 viewBox="0.00 0.00 393.00 86.00" xmlns="http://www.w3.org/2000/svg" xmlns:xlink="http://www.w3.org/1999/xlink">
<g id="graph0" class="graph" transform="scale(1 1) rotate(0) translate(4 82)">
<title>EonPlay::AI::SubtitleLanguageDetector::detectLanguageFromText</title>
<!-- Node1 -->
<g id="Node000001" class="node">
<title>Node1</title>
<g id="a_Node000001"><a xlink:title=" ">
<polygon fill="#999999" stroke="#666666" points="188,-54 0,-54 0,-24 188,-24 188,-54"/>
<text text-anchor="start" x="8" y="-42" font-family="Helvetica,sans-Serif" font-size="10.00">EonPlay::AI::SubtitleLanguage</text>
<text text-anchor="middle" x="94" y="-31" font-family="Helvetica,sans-Serif" font-size="10.00">Detector::detectLanguageFromText</text>
</a>
</g>
</g>
<!-- Node2 -->
<g id="Node000002" class="node">
<title>Node2</title>
<g id="a_Node000002"><a xlink:href="../../d7/d93/classEonPlay_1_1AI_1_1SubtitleLanguageDetector.html#a509683bc7509f930296a492384c3e51e" target="_top" xlink:title=" ">
<polygon fill="white" stroke="#666666" points="385,-78 224,-78 224,-48 385,-48 385,-78"/>
<text text-anchor="start" x="232" y="-66" font-family="Helvetica,sans-Serif" font-size="10.00">EonPlay::AI::SubtitleLanguage</text>
<text text-anchor="middle" x="304.5" y="-55" font-family="Helvetica,sans-Serif" font-size="10.00">Detector::detectionFailed</text>
</a>
</g>
</g>
<!-- Node1&#45;&gt;Node2 -->
<g id="edge1_Node000001_Node000002" class="edge">
<title>Node1&#45;&gt;Node2</title>
<g id="a_edge1_Node000001_Node000002"><a xlink:title=" ">
<path fill="none" stroke="#63b8ff" d="M188.27,-49.74C196.68,-50.7 205.17,-51.68 213.55,-52.65"/>
<polygon fill="#63b8ff" stroke="#63b8ff" points="213.35,-56.15 223.68,-53.81 214.15,-49.19 213.35,-56.15"/>
</a>
</g>
</g>
<!-- Node3 -->
<g id="Node000003" class="node">
<title>Node3</title>
<g id="a_Node000003"><a xlink:href="../../d7/d93/classEonPlay_1_1AI_1_1SubtitleLanguageDetector.html#a9d421f0bccbc2f8f10f841399896e8d8" target="_top" xlink:title=" ">
<polygon fill="white" stroke="#666666" points="385,-30 224,-30 224,0 385,0 385,-30"/>
<text text-anchor="start" x="232" y="-18" font-family="Helvetica,sans-Serif" font-size="10.00">EonPlay::AI::SubtitleLanguage</text>
<text text-anchor="middle" x="304.5" y="-7" font-family="Helvetica,sans-Serif" font-size="10.00">Detector::languageDetected</text>
</a>
</g>
</g>
<!-- Node1&#45;&gt;Node3 -->
<g id="edge2_Node000001_Node000003" class="edge">
<title>Node1&#45;&gt;Node3</title>
<g id="a_edge2_Node000001_Node000003"><a xlink:title=" ">
<path fill="none" stroke="#63b8ff" d="M188.27,-28.26C196.68,-27.3 205.17,-26.32 213.55,-25.35"/>
<polygon fill="#63b8ff" stroke="#63b8ff" points="214.15,-28.81 223.68,-24.19 213.35,-21.85 214.15,-28.81"/>
</a>
</g>
</g>
</g>
</svg>
