<?xml version="1.0" encoding="UTF-8" standalone="no"?>
<!DOCTYPE svg PUBLIC "-//W3C//DTD SVG 1.1//EN"
 "http://www.w3.org/Graphics/SVG/1.1/DTD/svg11.dtd">
<!-- Generated by graphviz version 2.43.0 (0)
 -->
<!-- Title: SettingsManager::preferencesChanged Pages: 1 -->
<svg width="568pt" height="76pt"
 viewBox="0.00 0.00 568.00 75.50" xmlns="http://www.w3.org/2000/svg" xmlns:xlink="http://www.w3.org/1999/xlink">
<g id="graph0" class="graph" transform="scale(1 1) rotate(0) translate(4 71.5)">
<title>SettingsManager::preferencesChanged</title>
<!-- Node1 -->
<g id="Node000001" class="node">
<title>Node1</title>
<g id="a_Node000001"><a xlink:title="Emitted when preferences are changed.">
<polygon fill="#999999" stroke="#666666" points="560,-45.5 397,-45.5 397,-15.5 560,-15.5 560,-45.5"/>
<text text-anchor="start" x="405" y="-33.5" font-family="Helvetica,sans-Serif" font-size="10.00">SettingsManager::preferences</text>
<text text-anchor="middle" x="478.5" y="-22.5" font-family="Helvetica,sans-Serif" font-size="10.00">Changed</text>
</a>
</g>
</g>
<!-- Node2 -->
<g id="Node000002" class="node">
<title>Node2</title>
<g id="a_Node000002"><a xlink:href="../../d1/dea/classSettingsManager.html#a1566b3c0ec17dcbf59685739d9eb6ec2" target="_top" xlink:title="Reset all settings to defaults.">
<polygon fill="white" stroke="#666666" points="342,-67.5 202,-67.5 202,-37.5 342,-37.5 342,-67.5"/>
<text text-anchor="start" x="210" y="-55.5" font-family="Helvetica,sans-Serif" font-size="10.00">SettingsManager::resetTo</text>
<text text-anchor="middle" x="272" y="-44.5" font-family="Helvetica,sans-Serif" font-size="10.00">Defaults</text>
</a>
</g>
</g>
<!-- Node1&#45;&gt;Node2 -->
<g id="edge1_Node000001_Node000002" class="edge">
<title>Node1&#45;&gt;Node2</title>
<g id="a_edge1_Node000001_Node000002"><a xlink:title=" ">
<path fill="none" stroke="#63b8ff" d="M386.7,-40.27C371.77,-41.87 356.5,-43.52 342.21,-45.05"/>
<polygon fill="#63b8ff" stroke="#63b8ff" points="387.4,-43.71 396.97,-39.16 386.65,-36.75 387.4,-43.71"/>
</a>
</g>
</g>
<!-- Node4 -->
<g id="Node000004" class="node">
<title>Node4</title>
<g id="a_Node000004"><a xlink:href="../../d1/dea/classSettingsManager.html#a48a4c2acf17efe8e272479aee734fe48" target="_top" xlink:title="Update user preferences.">
<polygon fill="white" stroke="#666666" points="361,-19 183,-19 183,0 361,0 361,-19"/>
<text text-anchor="middle" x="272" y="-7" font-family="Helvetica,sans-Serif" font-size="10.00">SettingsManager::setPreferences</text>
</a>
</g>
</g>
<!-- Node1&#45;&gt;Node4 -->
<g id="edge3_Node000001_Node000004" class="edge">
<title>Node1&#45;&gt;Node4</title>
<g id="a_edge3_Node000001_Node000004"><a xlink:title=" ">
<path fill="none" stroke="#63b8ff" d="M386.99,-21.21C378.43,-20.33 369.76,-19.44 361.22,-18.56"/>
<polygon fill="#63b8ff" stroke="#63b8ff" points="386.66,-24.69 396.97,-22.23 387.38,-17.73 386.66,-24.69"/>
</a>
</g>
</g>
<!-- Node3 -->
<g id="Node000003" class="node">
<title>Node3</title>
<g id="a_Node000003"><a xlink:href="../../d1/dea/classSettingsManager.html#a388a44b8f1843f317823b690748ebdd5" target="_top" xlink:title="Initialize the component.">
<polygon fill="white" stroke="#666666" points="147,-62 0,-62 0,-43 147,-43 147,-62"/>
<text text-anchor="middle" x="73.5" y="-50" font-family="Helvetica,sans-Serif" font-size="10.00">SettingsManager::initialize</text>
</a>
</g>
</g>
<!-- Node2&#45;&gt;Node3 -->
<g id="edge2_Node000002_Node000003" class="edge">
<title>Node2&#45;&gt;Node3</title>
<g id="a_edge2_Node000002_Node000003"><a xlink:title=" ">
<path fill="none" stroke="#63b8ff" d="M191.85,-52.5C177.03,-52.5 161.61,-52.5 147,-52.5"/>
<polygon fill="#63b8ff" stroke="#63b8ff" points="192,-56 202,-52.5 192,-49 192,-56"/>
</a>
</g>
</g>
</g>
</svg>
