<?xml version="1.0" encoding="UTF-8" standalone="no"?>
<!DOCTYPE svg PUBLIC "-//W3C//DTD SVG 1.1//EN"
 "http://www.w3.org/Graphics/SVG/1.1/DTD/svg11.dtd">
<!-- Generated by graphviz version 2.43.0 (0)
 -->
<!-- Title: SettingsManager::~SettingsManager Pages: 1 -->
<svg width="750pt" height="86pt"
 viewBox="0.00 0.00 750.00 86.00" xmlns="http://www.w3.org/2000/svg" xmlns:xlink="http://www.w3.org/1999/xlink">
<g id="graph0" class="graph" transform="scale(1 1) rotate(0) translate(4 82)">
<title>SettingsManager::~SettingsManager</title>
<!-- Node1 -->
<g id="Node000001" class="node">
<title>Node1</title>
<g id="a_Node000001"><a xlink:title=" ">
<polygon fill="#999999" stroke="#666666" points="153,-54 0,-54 0,-24 153,-24 153,-54"/>
<text text-anchor="start" x="8" y="-42" font-family="Helvetica,sans-Serif" font-size="10.00">SettingsManager::~Settings</text>
<text text-anchor="middle" x="76.5" y="-31" font-family="Helvetica,sans-Serif" font-size="10.00">Manager</text>
</a>
</g>
</g>
<!-- Node2 -->
<g id="Node000002" class="node">
<title>Node2</title>
<g id="a_Node000002"><a xlink:href="../../d1/dea/classSettingsManager.html#a313154223a271c6a4207538469e7e016" target="_top" xlink:title="Shutdown the component and cleanup resources.">
<polygon fill="white" stroke="#666666" points="341,-48.5 189,-48.5 189,-29.5 341,-29.5 341,-48.5"/>
<text text-anchor="middle" x="265" y="-36.5" font-family="Helvetica,sans-Serif" font-size="10.00">SettingsManager::shutdown</text>
</a>
</g>
</g>
<!-- Node1&#45;&gt;Node2 -->
<g id="edge1_Node000001_Node000002" class="edge">
<title>Node1&#45;&gt;Node2</title>
<g id="a_edge1_Node000001_Node000002"><a xlink:title=" ">
<path fill="none" stroke="#63b8ff" d="M153.09,-39C161.58,-39 170.27,-39 178.87,-39"/>
<polygon fill="#63b8ff" stroke="#63b8ff" points="178.91,-42.5 188.91,-39 178.91,-35.5 178.91,-42.5"/>
</a>
</g>
</g>
<!-- Node3 -->
<g id="Node000003" class="node">
<title>Node3</title>
<g id="a_Node000003"><a xlink:href="../../d1/dea/classSettingsManager.html#ab58d13c6d172b64182706bc353b58ec7" target="_top" xlink:title="Save settings immediately.">
<polygon fill="white" stroke="#666666" points="545,-48.5 377,-48.5 377,-29.5 545,-29.5 545,-48.5"/>
<text text-anchor="middle" x="461" y="-36.5" font-family="Helvetica,sans-Serif" font-size="10.00">SettingsManager::saveSettings</text>
</a>
</g>
</g>
<!-- Node2&#45;&gt;Node3 -->
<g id="edge2_Node000002_Node000003" class="edge">
<title>Node2&#45;&gt;Node3</title>
<g id="a_edge2_Node000002_Node000003"><a xlink:title=" ">
<path fill="none" stroke="#63b8ff" d="M341.01,-39C349.44,-39 358.1,-39 366.72,-39"/>
<polygon fill="#63b8ff" stroke="#63b8ff" points="366.81,-42.5 376.81,-39 366.81,-35.5 366.81,-42.5"/>
</a>
</g>
</g>
<!-- Node4 -->
<g id="Node000004" class="node">
<title>Node4</title>
<g id="a_Node000004"><a xlink:href="../../d1/dea/classSettingsManager.html#ab272cfaf088e474319378d94c2b55577" target="_top" xlink:title="Get settings file path.">
<polygon fill="white" stroke="#666666" points="742,-78 581,-78 581,-48 742,-48 742,-78"/>
<text text-anchor="start" x="589" y="-66" font-family="Helvetica,sans-Serif" font-size="10.00">SettingsManager::getSettings</text>
<text text-anchor="middle" x="661.5" y="-55" font-family="Helvetica,sans-Serif" font-size="10.00">FilePath</text>
</a>
</g>
</g>
<!-- Node3&#45;&gt;Node4 -->
<g id="edge3_Node000003_Node000004" class="edge">
<title>Node3&#45;&gt;Node4</title>
<g id="a_edge3_Node000003_Node000004"><a xlink:title=" ">
<path fill="none" stroke="#63b8ff" d="M540.74,-48.52C550.64,-49.72 560.83,-50.95 570.89,-52.17"/>
<polygon fill="#63b8ff" stroke="#63b8ff" points="570.53,-55.65 580.88,-53.37 571.38,-48.7 570.53,-55.65"/>
</a>
</g>
</g>
<!-- Node5 -->
<g id="Node000005" class="node">
<title>Node5</title>
<g id="a_Node000005"><a xlink:href="../../d1/dea/classSettingsManager.html#aef7ec0bb37318673516b2aeaa332026e" target="_top" xlink:title="Emitted when settings are saved.">
<polygon fill="white" stroke="#666666" points="733.5,-30 589.5,-30 589.5,0 733.5,0 733.5,-30"/>
<text text-anchor="start" x="597.5" y="-18" font-family="Helvetica,sans-Serif" font-size="10.00">SettingsManager::settings</text>
<text text-anchor="middle" x="661.5" y="-7" font-family="Helvetica,sans-Serif" font-size="10.00">Saved</text>
</a>
</g>
</g>
<!-- Node3&#45;&gt;Node5 -->
<g id="edge4_Node000003_Node000005" class="edge">
<title>Node3&#45;&gt;Node5</title>
<g id="a_edge4_Node000003_Node000005"><a xlink:title=" ">
<path fill="none" stroke="#63b8ff" d="M540.74,-29.48C553.38,-27.95 566.48,-26.37 579.18,-24.83"/>
<polygon fill="#63b8ff" stroke="#63b8ff" points="579.76,-28.29 589.26,-23.61 578.92,-21.34 579.76,-28.29"/>
</a>
</g>
</g>
</g>
</svg>
