<?xml version="1.0" encoding="UTF-8" standalone="no"?>
<!DOCTYPE svg PUBLIC "-//W3C//DTD SVG 1.1//EN"
 "http://www.w3.org/Graphics/SVG/1.1/DTD/svg11.dtd">
<!-- Generated by graphviz version 2.43.0 (0)
 -->
<!-- Title: SettingsManager::saveSettings Pages: 1 -->
<svg width="553pt" height="97pt"
 viewBox="0.00 0.00 553.00 96.50" xmlns="http://www.w3.org/2000/svg" xmlns:xlink="http://www.w3.org/1999/xlink">
<g id="graph0" class="graph" transform="scale(1 1) rotate(0) translate(4 92.5)">
<title>SettingsManager::saveSettings</title>
<!-- Node1 -->
<g id="Node000001" class="node">
<title>Node1</title>
<g id="a_Node000001"><a xlink:title="Save settings immediately.">
<polygon fill="#999999" stroke="#666666" points="545,-67.5 377,-67.5 377,-48.5 545,-48.5 545,-67.5"/>
<text text-anchor="middle" x="461" y="-55.5" font-family="Helvetica,sans-Serif" font-size="10.00">SettingsManager::saveSettings</text>
</a>
</g>
</g>
<!-- Node2 -->
<g id="Node000002" class="node">
<title>Node2</title>
<g id="a_Node000002"><a xlink:href="../../d1/dea/classSettingsManager.html#a388a44b8f1843f317823b690748ebdd5" target="_top" xlink:title="Initialize the component.">
<polygon fill="white" stroke="#666666" points="150,-88.5 3,-88.5 3,-69.5 150,-69.5 150,-88.5"/>
<text text-anchor="middle" x="76.5" y="-76.5" font-family="Helvetica,sans-Serif" font-size="10.00">SettingsManager::initialize</text>
</a>
</g>
</g>
<!-- Node1&#45;&gt;Node2 -->
<g id="edge1_Node000001_Node000002" class="edge">
<title>Node1&#45;&gt;Node2</title>
<g id="a_edge1_Node000001_Node000002"><a xlink:title=" ">
<path fill="none" stroke="#63b8ff" d="M412.57,-69.82C390.9,-74.63 364.81,-79.62 341,-82 276.7,-88.42 203.14,-86.84 150.11,-84.14"/>
<polygon fill="#63b8ff" stroke="#63b8ff" points="413.53,-73.19 422.51,-67.55 411.98,-66.36 413.53,-73.19"/>
</a>
</g>
</g>
<!-- Node3 -->
<g id="Node000003" class="node">
<title>Node3</title>
<g id="a_Node000003"><a xlink:href="../../d1/dea/classSettingsManager.html#a1566b3c0ec17dcbf59685739d9eb6ec2" target="_top" xlink:title="Reset all settings to defaults.">
<polygon fill="white" stroke="#666666" points="335,-73 195,-73 195,-43 335,-43 335,-73"/>
<text text-anchor="start" x="203" y="-61" font-family="Helvetica,sans-Serif" font-size="10.00">SettingsManager::resetTo</text>
<text text-anchor="middle" x="265" y="-50" font-family="Helvetica,sans-Serif" font-size="10.00">Defaults</text>
</a>
</g>
</g>
<!-- Node1&#45;&gt;Node3 -->
<g id="edge2_Node000001_Node000003" class="edge">
<title>Node1&#45;&gt;Node3</title>
<g id="a_edge2_Node000001_Node000003"><a xlink:title=" ">
<path fill="none" stroke="#63b8ff" d="M366.74,-58C356.13,-58 345.46,-58 335.24,-58"/>
<polygon fill="#63b8ff" stroke="#63b8ff" points="366.88,-61.5 376.88,-58 366.88,-54.5 366.88,-61.5"/>
</a>
</g>
</g>
<!-- Node4 -->
<g id="Node000004" class="node">
<title>Node4</title>
<g id="a_Node000004"><a xlink:href="../../d1/dea/classSettingsManager.html#a313154223a271c6a4207538469e7e016" target="_top" xlink:title="Shutdown the component and cleanup resources.">
<polygon fill="white" stroke="#666666" points="341,-24.5 189,-24.5 189,-5.5 341,-5.5 341,-24.5"/>
<text text-anchor="middle" x="265" y="-12.5" font-family="Helvetica,sans-Serif" font-size="10.00">SettingsManager::shutdown</text>
</a>
</g>
</g>
<!-- Node1&#45;&gt;Node4 -->
<g id="edge4_Node000001_Node000004" class="edge">
<title>Node1&#45;&gt;Node4</title>
<g id="a_edge4_Node000001_Node000004"><a xlink:title=" ">
<path fill="none" stroke="#63b8ff" d="M406.82,-46.21C376.03,-39.39 337.79,-30.91 308.93,-24.52"/>
<polygon fill="#63b8ff" stroke="#63b8ff" points="406.42,-49.71 416.95,-48.46 407.94,-42.88 406.42,-49.71"/>
</a>
</g>
</g>
<!-- Node3&#45;&gt;Node2 -->
<g id="edge3_Node000003_Node000002" class="edge">
<title>Node3&#45;&gt;Node2</title>
<g id="a_edge3_Node000003_Node000002"><a xlink:title=" ">
<path fill="none" stroke="#63b8ff" d="M184.77,-66.92C173.23,-68.22 161.4,-69.55 150,-70.84"/>
<polygon fill="#63b8ff" stroke="#63b8ff" points="185.27,-70.39 194.82,-65.79 184.49,-63.43 185.27,-70.39"/>
</a>
</g>
</g>
<!-- Node5 -->
<g id="Node000005" class="node">
<title>Node5</title>
<g id="a_Node000005"><a xlink:href="../../d1/dea/classSettingsManager.html#a00f848310bc1f31a896580d1ea4c2e1c" target="_top" xlink:title=" ">
<polygon fill="white" stroke="#666666" points="153,-30 0,-30 0,0 153,0 153,-30"/>
<text text-anchor="start" x="8" y="-18" font-family="Helvetica,sans-Serif" font-size="10.00">SettingsManager::~Settings</text>
<text text-anchor="middle" x="76.5" y="-7" font-family="Helvetica,sans-Serif" font-size="10.00">Manager</text>
</a>
</g>
</g>
<!-- Node4&#45;&gt;Node5 -->
<g id="edge5_Node000004_Node000005" class="edge">
<title>Node4&#45;&gt;Node5</title>
<g id="a_edge5_Node000004_Node000005"><a xlink:title=" ">
<path fill="none" stroke="#63b8ff" d="M178.88,-15C170.25,-15 161.52,-15 153,-15"/>
<polygon fill="#63b8ff" stroke="#63b8ff" points="178.95,-18.5 188.95,-15 178.95,-11.5 178.95,-18.5"/>
</a>
</g>
</g>
</g>
</svg>
