<?xml version="1.0" encoding="UTF-8" standalone="no"?>
<!DOCTYPE svg PUBLIC "-//W3C//DTD SVG 1.1//EN"
 "http://www.w3.org/Graphics/SVG/1.1/DTD/svg11.dtd">
<!-- Generated by graphviz version 2.43.0 (0)
 -->
<!-- Title: SettingsManager::setEncryptedValue Pages: 1 -->
<svg width="535pt" height="38pt"
 viewBox="0.00 0.00 535.00 38.00" xmlns="http://www.w3.org/2000/svg" xmlns:xlink="http://www.w3.org/1999/xlink">
<g id="graph0" class="graph" transform="scale(1 1) rotate(0) translate(4 34)">
<title>SettingsManager::setEncryptedValue</title>
<!-- Node1 -->
<g id="Node000001" class="node">
<title>Node1</title>
<g id="a_Node000001"><a xlink:title="Set encrypted setting value.">
<polygon fill="#999999" stroke="#666666" points="169,-30 0,-30 0,0 169,0 169,-30"/>
<text text-anchor="start" x="8" y="-18" font-family="Helvetica,sans-Serif" font-size="10.00">SettingsManager::setEncrypted</text>
<text text-anchor="middle" x="84.5" y="-7" font-family="Helvetica,sans-Serif" font-size="10.00">Value</text>
</a>
</g>
</g>
<!-- Node2 -->
<g id="Node000002" class="node">
<title>Node2</title>
<g id="a_Node000002"><a xlink:href="../../d1/dea/classSettingsManager.html#a8c2f223afeca2a17621eb906ebceee29" target="_top" xlink:title="Set a specific setting value.">
<polygon fill="white" stroke="#666666" points="352,-24.5 205,-24.5 205,-5.5 352,-5.5 352,-24.5"/>
<text text-anchor="middle" x="278.5" y="-12.5" font-family="Helvetica,sans-Serif" font-size="10.00">SettingsManager::setValue</text>
</a>
</g>
</g>
<!-- Node1&#45;&gt;Node2 -->
<g id="edge1_Node000001_Node000002" class="edge">
<title>Node1&#45;&gt;Node2</title>
<g id="a_edge1_Node000001_Node000002"><a xlink:title=" ">
<path fill="none" stroke="#63b8ff" d="M169.16,-15C177.63,-15 186.24,-15 194.71,-15"/>
<polygon fill="#63b8ff" stroke="#63b8ff" points="194.95,-18.5 204.95,-15 194.95,-11.5 194.95,-18.5"/>
</a>
</g>
</g>
<!-- Node3 -->
<g id="Node000003" class="node">
<title>Node3</title>
<g id="a_Node000003"><a xlink:href="../../d1/dea/classSettingsManager.html#a2bc4bde942fa578970ad951547b46f0e" target="_top" xlink:title="Emitted when a specific setting is changed.">
<polygon fill="white" stroke="#666666" points="527,-30 388,-30 388,0 527,0 527,-30"/>
<text text-anchor="start" x="396" y="-18" font-family="Helvetica,sans-Serif" font-size="10.00">SettingsManager::setting</text>
<text text-anchor="middle" x="457.5" y="-7" font-family="Helvetica,sans-Serif" font-size="10.00">Changed</text>
</a>
</g>
</g>
<!-- Node2&#45;&gt;Node3 -->
<g id="edge2_Node000002_Node000003" class="edge">
<title>Node2&#45;&gt;Node3</title>
<g id="a_edge2_Node000002_Node000003"><a xlink:title=" ">
<path fill="none" stroke="#63b8ff" d="M352,-15C360.51,-15 369.23,-15 377.81,-15"/>
<polygon fill="#63b8ff" stroke="#63b8ff" points="377.82,-18.5 387.82,-15 377.82,-11.5 377.82,-18.5"/>
</a>
</g>
</g>
</g>
</svg>
