<?xml version="1.0" encoding="UTF-8" standalone="no"?>
<!DOCTYPE svg PUBLIC "-//W3C//DTD SVG 1.1//EN"
 "http://www.w3.org/Graphics/SVG/1.1/DTD/svg11.dtd">
<!-- Generated by graphviz version 2.43.0 (0)
 -->
<!-- Title: SettingsManager::getSettingsFilePath Pages: 1 -->
<svg width="750pt" height="145pt"
 viewBox="0.00 0.00 750.00 144.50" xmlns="http://www.w3.org/2000/svg" xmlns:xlink="http://www.w3.org/1999/xlink">
<g id="graph0" class="graph" transform="scale(1 1) rotate(0) translate(4 140.5)">
<title>SettingsManager::getSettingsFilePath</title>
<!-- Node1 -->
<g id="Node000001" class="node">
<title>Node1</title>
<g id="a_Node000001"><a xlink:title="Get settings file path.">
<polygon fill="#999999" stroke="#666666" points="742,-112 581,-112 581,-82 742,-82 742,-112"/>
<text text-anchor="start" x="589" y="-100" font-family="Helvetica,sans-Serif" font-size="10.00">SettingsManager::getSettings</text>
<text text-anchor="middle" x="661.5" y="-89" font-family="Helvetica,sans-Serif" font-size="10.00">FilePath</text>
</a>
</g>
</g>
<!-- Node2 -->
<g id="Node000002" class="node">
<title>Node2</title>
<g id="a_Node000002"><a xlink:href="../../d1/dea/classSettingsManager.html#ac666cd35e1136facad31de99a6c44bd3" target="_top" xlink:title="Load settings from storage.">
<polygon fill="white" stroke="#666666" points="544,-136.5 378,-136.5 378,-117.5 544,-117.5 544,-136.5"/>
<text text-anchor="middle" x="461" y="-124.5" font-family="Helvetica,sans-Serif" font-size="10.00">SettingsManager::loadSettings</text>
</a>
</g>
</g>
<!-- Node1&#45;&gt;Node2 -->
<g id="edge1_Node000001_Node000002" class="edge">
<title>Node1&#45;&gt;Node2</title>
<g id="a_edge1_Node000001_Node000002"><a xlink:title=" ">
<path fill="none" stroke="#63b8ff" d="M570.83,-110.55C555.4,-112.88 539.66,-115.26 525.12,-117.46"/>
<polygon fill="#63b8ff" stroke="#63b8ff" points="571.54,-113.98 580.91,-109.03 570.5,-107.06 571.54,-113.98"/>
</a>
</g>
</g>
<!-- Node4 -->
<g id="Node000004" class="node">
<title>Node4</title>
<g id="a_Node000004"><a xlink:href="../../d1/dea/classSettingsManager.html#ab58d13c6d172b64182706bc353b58ec7" target="_top" xlink:title="Save settings immediately.">
<polygon fill="white" stroke="#666666" points="545,-88.5 377,-88.5 377,-69.5 545,-69.5 545,-88.5"/>
<text text-anchor="middle" x="461" y="-76.5" font-family="Helvetica,sans-Serif" font-size="10.00">SettingsManager::saveSettings</text>
</a>
</g>
</g>
<!-- Node1&#45;&gt;Node4 -->
<g id="edge3_Node000001_Node000004" class="edge">
<title>Node1&#45;&gt;Node4</title>
<g id="a_edge3_Node000001_Node000004"><a xlink:title=" ">
<path fill="none" stroke="#63b8ff" d="M570.91,-88.88C562.35,-88.1 553.68,-87.31 545.18,-86.54"/>
<polygon fill="#63b8ff" stroke="#63b8ff" points="570.63,-92.36 580.91,-89.78 571.26,-85.39 570.63,-92.36"/>
</a>
</g>
</g>
<!-- Node3 -->
<g id="Node000003" class="node">
<title>Node3</title>
<g id="a_Node000003"><a xlink:href="../../d1/dea/classSettingsManager.html#a388a44b8f1843f317823b690748ebdd5" target="_top" xlink:title="Initialize the component.">
<polygon fill="white" stroke="#666666" points="150,-110.5 3,-110.5 3,-91.5 150,-91.5 150,-110.5"/>
<text text-anchor="middle" x="76.5" y="-98.5" font-family="Helvetica,sans-Serif" font-size="10.00">SettingsManager::initialize</text>
</a>
</g>
</g>
<!-- Node2&#45;&gt;Node3 -->
<g id="edge2_Node000002_Node000003" class="edge">
<title>Node2&#45;&gt;Node3</title>
<g id="a_edge2_Node000002_Node000003"><a xlink:title=" ">
<path fill="none" stroke="#63b8ff" d="M367.83,-120.74C301,-116.19 211.86,-110.13 150.06,-105.93"/>
<polygon fill="#63b8ff" stroke="#63b8ff" points="367.73,-124.24 377.94,-121.42 368.2,-117.25 367.73,-124.24"/>
</a>
</g>
</g>
<!-- Node4&#45;&gt;Node3 -->
<g id="edge4_Node000004_Node000003" class="edge">
<title>Node4&#45;&gt;Node3</title>
<g id="a_edge4_Node000004_Node000003"><a xlink:title=" ">
<path fill="none" stroke="#63b8ff" d="M366.45,-84.38C299.8,-88.21 211.52,-93.29 150.16,-96.82"/>
<polygon fill="#63b8ff" stroke="#63b8ff" points="366.75,-87.87 376.53,-83.8 366.35,-80.88 366.75,-87.87"/>
</a>
</g>
</g>
<!-- Node5 -->
<g id="Node000005" class="node">
<title>Node5</title>
<g id="a_Node000005"><a xlink:href="../../d1/dea/classSettingsManager.html#a1566b3c0ec17dcbf59685739d9eb6ec2" target="_top" xlink:title="Reset all settings to defaults.">
<polygon fill="white" stroke="#666666" points="335,-73 195,-73 195,-43 335,-43 335,-73"/>
<text text-anchor="start" x="203" y="-61" font-family="Helvetica,sans-Serif" font-size="10.00">SettingsManager::resetTo</text>
<text text-anchor="middle" x="265" y="-50" font-family="Helvetica,sans-Serif" font-size="10.00">Defaults</text>
</a>
</g>
</g>
<!-- Node4&#45;&gt;Node5 -->
<g id="edge5_Node000004_Node000005" class="edge">
<title>Node4&#45;&gt;Node5</title>
<g id="a_edge5_Node000004_Node000005"><a xlink:title=" ">
<path fill="none" stroke="#63b8ff" d="M366.74,-68.91C356.13,-67.76 345.46,-66.6 335.24,-65.49"/>
<polygon fill="#63b8ff" stroke="#63b8ff" points="366.56,-72.41 376.88,-70 367.32,-65.45 366.56,-72.41"/>
</a>
</g>
</g>
<!-- Node6 -->
<g id="Node000006" class="node">
<title>Node6</title>
<g id="a_Node000006"><a xlink:href="../../d1/dea/classSettingsManager.html#a313154223a271c6a4207538469e7e016" target="_top" xlink:title="Shutdown the component and cleanup resources.">
<polygon fill="white" stroke="#666666" points="341,-24.5 189,-24.5 189,-5.5 341,-5.5 341,-24.5"/>
<text text-anchor="middle" x="265" y="-12.5" font-family="Helvetica,sans-Serif" font-size="10.00">SettingsManager::shutdown</text>
</a>
</g>
</g>
<!-- Node4&#45;&gt;Node6 -->
<g id="edge7_Node000004_Node000006" class="edge">
<title>Node4&#45;&gt;Node6</title>
<g id="a_edge7_Node000004_Node000006"><a xlink:title=" ">
<path fill="none" stroke="#63b8ff" d="M427.45,-65.55C403.73,-56.03 370.68,-43.34 341,-34 330.11,-30.57 318.18,-27.33 307.11,-24.52"/>
<polygon fill="#63b8ff" stroke="#63b8ff" points="426.43,-68.91 437.01,-69.42 429.06,-62.42 426.43,-68.91"/>
</a>
</g>
</g>
<!-- Node5&#45;&gt;Node3 -->
<g id="edge6_Node000005_Node000003" class="edge">
<title>Node5&#45;&gt;Node3</title>
<g id="a_edge6_Node000005_Node000003"><a xlink:title=" ">
<path fill="none" stroke="#63b8ff" d="M188.99,-75.3C165.04,-80.82 139.43,-86.72 118.8,-91.48"/>
<polygon fill="#63b8ff" stroke="#63b8ff" points="189.81,-78.7 198.77,-73.04 188.24,-71.88 189.81,-78.7"/>
</a>
</g>
</g>
<!-- Node7 -->
<g id="Node000007" class="node">
<title>Node7</title>
<g id="a_Node000007"><a xlink:href="../../d1/dea/classSettingsManager.html#a00f848310bc1f31a896580d1ea4c2e1c" target="_top" xlink:title=" ">
<polygon fill="white" stroke="#666666" points="153,-30 0,-30 0,0 153,0 153,-30"/>
<text text-anchor="start" x="8" y="-18" font-family="Helvetica,sans-Serif" font-size="10.00">SettingsManager::~Settings</text>
<text text-anchor="middle" x="76.5" y="-7" font-family="Helvetica,sans-Serif" font-size="10.00">Manager</text>
</a>
</g>
</g>
<!-- Node6&#45;&gt;Node7 -->
<g id="edge8_Node000006_Node000007" class="edge">
<title>Node6&#45;&gt;Node7</title>
<g id="a_edge8_Node000006_Node000007"><a xlink:title=" ">
<path fill="none" stroke="#63b8ff" d="M178.88,-15C170.25,-15 161.52,-15 153,-15"/>
<polygon fill="#63b8ff" stroke="#63b8ff" points="178.95,-18.5 188.95,-15 178.95,-11.5 178.95,-18.5"/>
</a>
</g>
</g>
</g>
</svg>
