<?xml version="1.0" encoding="UTF-8" standalone="no"?>
<!DOCTYPE svg PUBLIC "-//W3C//DTD SVG 1.1//EN"
 "http://www.w3.org/Graphics/SVG/1.1/DTD/svg11.dtd">
<!-- Generated by graphviz version 2.43.0 (0)
 -->
<!-- Title: SettingsManager::resetToDefaults Pages: 1 -->
<svg width="549pt" height="153pt"
 viewBox="0.00 0.00 549.00 153.00" xmlns="http://www.w3.org/2000/svg" xmlns:xlink="http://www.w3.org/1999/xlink">
<g id="graph0" class="graph" transform="scale(1 1) rotate(0) translate(4 149)">
<title>SettingsManager::resetToDefaults</title>
<!-- Node1 -->
<g id="Node000001" class="node">
<title>Node1</title>
<g id="a_Node000001"><a xlink:title="Reset all settings to defaults.">
<polygon fill="#999999" stroke="#666666" points="140,-97 0,-97 0,-67 140,-67 140,-97"/>
<text text-anchor="start" x="8" y="-85" font-family="Helvetica,sans-Serif" font-size="10.00">SettingsManager::resetTo</text>
<text text-anchor="middle" x="70" y="-74" font-family="Helvetica,sans-Serif" font-size="10.00">Defaults</text>
</a>
</g>
</g>
<!-- Node2 -->
<g id="Node000002" class="node">
<title>Node2</title>
<g id="a_Node000002"><a xlink:href="../../d1/dea/classSettingsManager.html#ac33df025a767e4e09ef8c99ad5154da2" target="_top" xlink:title="Emitted when preferences are changed.">
<polygon fill="white" stroke="#666666" points="341.5,-145 178.5,-145 178.5,-115 341.5,-115 341.5,-145"/>
<text text-anchor="start" x="186.5" y="-133" font-family="Helvetica,sans-Serif" font-size="10.00">SettingsManager::preferences</text>
<text text-anchor="middle" x="260" y="-122" font-family="Helvetica,sans-Serif" font-size="10.00">Changed</text>
</a>
</g>
</g>
<!-- Node1&#45;&gt;Node2 -->
<g id="edge1_Node000001_Node000002" class="edge">
<title>Node1&#45;&gt;Node2</title>
<g id="a_edge1_Node000001_Node000002"><a xlink:title=" ">
<path fill="none" stroke="#63b8ff" d="M129.97,-97.06C149.13,-101.95 170.56,-107.42 190.36,-112.48"/>
<polygon fill="#63b8ff" stroke="#63b8ff" points="189.69,-115.91 200.24,-115 191.42,-109.13 189.69,-115.91"/>
</a>
</g>
</g>
<!-- Node3 -->
<g id="Node000003" class="node">
<title>Node3</title>
<g id="a_Node000003"><a xlink:href="../../db/d11/structUserPreferences.html#aae616f231072326f071332ab880054af" target="_top" xlink:title="Reset all settings to default values.">
<polygon fill="white" stroke="#666666" points="329,-97 191,-97 191,-67 329,-67 329,-97"/>
<text text-anchor="start" x="199" y="-85" font-family="Helvetica,sans-Serif" font-size="10.00">UserPreferences::resetTo</text>
<text text-anchor="middle" x="260" y="-74" font-family="Helvetica,sans-Serif" font-size="10.00">Defaults</text>
</a>
</g>
</g>
<!-- Node1&#45;&gt;Node3 -->
<g id="edge2_Node000001_Node000003" class="edge">
<title>Node1&#45;&gt;Node3</title>
<g id="a_edge2_Node000001_Node000003"><a xlink:title=" ">
<path fill="none" stroke="#63b8ff" d="M140.2,-82C153.39,-82 167.27,-82 180.71,-82"/>
<polygon fill="#63b8ff" stroke="#63b8ff" points="180.88,-85.5 190.88,-82 180.88,-78.5 180.88,-85.5"/>
</a>
</g>
</g>
<!-- Node4 -->
<g id="Node000004" class="node">
<title>Node4</title>
<g id="a_Node000004"><a xlink:href="../../d1/dea/classSettingsManager.html#ab58d13c6d172b64182706bc353b58ec7" target="_top" xlink:title="Save settings immediately.">
<polygon fill="white" stroke="#666666" points="344,-48.5 176,-48.5 176,-29.5 344,-29.5 344,-48.5"/>
<text text-anchor="middle" x="260" y="-36.5" font-family="Helvetica,sans-Serif" font-size="10.00">SettingsManager::saveSettings</text>
</a>
</g>
</g>
<!-- Node1&#45;&gt;Node4 -->
<g id="edge3_Node000001_Node000004" class="edge">
<title>Node1&#45;&gt;Node4</title>
<g id="a_edge3_Node000001_Node000004"><a xlink:title=" ">
<path fill="none" stroke="#63b8ff" d="M136.75,-66.96C159.98,-61.65 185.75,-55.75 207.62,-50.75"/>
<polygon fill="#63b8ff" stroke="#63b8ff" points="208.4,-54.16 217.37,-48.52 206.84,-47.34 208.4,-54.16"/>
</a>
</g>
</g>
<!-- Node5 -->
<g id="Node000005" class="node">
<title>Node5</title>
<g id="a_Node000005"><a xlink:href="../../d1/dea/classSettingsManager.html#ab272cfaf088e474319378d94c2b55577" target="_top" xlink:title="Get settings file path.">
<polygon fill="white" stroke="#666666" points="541,-78 380,-78 380,-48 541,-48 541,-78"/>
<text text-anchor="start" x="388" y="-66" font-family="Helvetica,sans-Serif" font-size="10.00">SettingsManager::getSettings</text>
<text text-anchor="middle" x="460.5" y="-55" font-family="Helvetica,sans-Serif" font-size="10.00">FilePath</text>
</a>
</g>
</g>
<!-- Node4&#45;&gt;Node5 -->
<g id="edge4_Node000004_Node000005" class="edge">
<title>Node4&#45;&gt;Node5</title>
<g id="a_edge4_Node000004_Node000005"><a xlink:title=" ">
<path fill="none" stroke="#63b8ff" d="M339.74,-48.52C349.64,-49.72 359.83,-50.95 369.89,-52.17"/>
<polygon fill="#63b8ff" stroke="#63b8ff" points="369.53,-55.65 379.88,-53.37 370.38,-48.7 369.53,-55.65"/>
</a>
</g>
</g>
<!-- Node6 -->
<g id="Node000006" class="node">
<title>Node6</title>
<g id="a_Node000006"><a xlink:href="../../d1/dea/classSettingsManager.html#aef7ec0bb37318673516b2aeaa332026e" target="_top" xlink:title="Emitted when settings are saved.">
<polygon fill="white" stroke="#666666" points="532.5,-30 388.5,-30 388.5,0 532.5,0 532.5,-30"/>
<text text-anchor="start" x="396.5" y="-18" font-family="Helvetica,sans-Serif" font-size="10.00">SettingsManager::settings</text>
<text text-anchor="middle" x="460.5" y="-7" font-family="Helvetica,sans-Serif" font-size="10.00">Saved</text>
</a>
</g>
</g>
<!-- Node4&#45;&gt;Node6 -->
<g id="edge5_Node000004_Node000006" class="edge">
<title>Node4&#45;&gt;Node6</title>
<g id="a_edge5_Node000004_Node000006"><a xlink:title=" ">
<path fill="none" stroke="#63b8ff" d="M339.74,-29.48C352.38,-27.95 365.48,-26.37 378.18,-24.83"/>
<polygon fill="#63b8ff" stroke="#63b8ff" points="378.76,-28.29 388.26,-23.61 377.92,-21.34 378.76,-28.29"/>
</a>
</g>
</g>
</g>
</svg>
