<?xml version="1.0" encoding="UTF-8" standalone="no"?>
<!DOCTYPE svg PUBLIC "-//W3C//DTD SVG 1.1//EN"
 "http://www.w3.org/Graphics/SVG/1.1/DTD/svg11.dtd">
<!-- Generated by graphviz version 2.43.0 (0)
 -->
<!-- Title: SettingsManager::shutdown Pages: 1 -->
<svg width="561pt" height="86pt"
 viewBox="0.00 0.00 561.00 86.00" xmlns="http://www.w3.org/2000/svg" xmlns:xlink="http://www.w3.org/1999/xlink">
<g id="graph0" class="graph" transform="scale(1 1) rotate(0) translate(4 82)">
<title>SettingsManager::shutdown</title>
<!-- Node1 -->
<g id="Node000001" class="node">
<title>Node1</title>
<g id="a_Node000001"><a xlink:title="Shutdown the component and cleanup resources.">
<polygon fill="#999999" stroke="#666666" points="152,-48.5 0,-48.5 0,-29.5 152,-29.5 152,-48.5"/>
<text text-anchor="middle" x="76" y="-36.5" font-family="Helvetica,sans-Serif" font-size="10.00">SettingsManager::shutdown</text>
</a>
</g>
</g>
<!-- Node2 -->
<g id="Node000002" class="node">
<title>Node2</title>
<g id="a_Node000002"><a xlink:href="../../d1/dea/classSettingsManager.html#ab58d13c6d172b64182706bc353b58ec7" target="_top" xlink:title="Save settings immediately.">
<polygon fill="white" stroke="#666666" points="356,-48.5 188,-48.5 188,-29.5 356,-29.5 356,-48.5"/>
<text text-anchor="middle" x="272" y="-36.5" font-family="Helvetica,sans-Serif" font-size="10.00">SettingsManager::saveSettings</text>
</a>
</g>
</g>
<!-- Node1&#45;&gt;Node2 -->
<g id="edge1_Node000001_Node000002" class="edge">
<title>Node1&#45;&gt;Node2</title>
<g id="a_edge1_Node000001_Node000002"><a xlink:title=" ">
<path fill="none" stroke="#63b8ff" d="M152.01,-39C160.44,-39 169.1,-39 177.72,-39"/>
<polygon fill="#63b8ff" stroke="#63b8ff" points="177.81,-42.5 187.81,-39 177.81,-35.5 177.81,-42.5"/>
</a>
</g>
</g>
<!-- Node3 -->
<g id="Node000003" class="node">
<title>Node3</title>
<g id="a_Node000003"><a xlink:href="../../d1/dea/classSettingsManager.html#ab272cfaf088e474319378d94c2b55577" target="_top" xlink:title="Get settings file path.">
<polygon fill="white" stroke="#666666" points="553,-78 392,-78 392,-48 553,-48 553,-78"/>
<text text-anchor="start" x="400" y="-66" font-family="Helvetica,sans-Serif" font-size="10.00">SettingsManager::getSettings</text>
<text text-anchor="middle" x="472.5" y="-55" font-family="Helvetica,sans-Serif" font-size="10.00">FilePath</text>
</a>
</g>
</g>
<!-- Node2&#45;&gt;Node3 -->
<g id="edge2_Node000002_Node000003" class="edge">
<title>Node2&#45;&gt;Node3</title>
<g id="a_edge2_Node000002_Node000003"><a xlink:title=" ">
<path fill="none" stroke="#63b8ff" d="M351.74,-48.52C361.64,-49.72 371.83,-50.95 381.89,-52.17"/>
<polygon fill="#63b8ff" stroke="#63b8ff" points="381.53,-55.65 391.88,-53.37 382.38,-48.7 381.53,-55.65"/>
</a>
</g>
</g>
<!-- Node4 -->
<g id="Node000004" class="node">
<title>Node4</title>
<g id="a_Node000004"><a xlink:href="../../d1/dea/classSettingsManager.html#aef7ec0bb37318673516b2aeaa332026e" target="_top" xlink:title="Emitted when settings are saved.">
<polygon fill="white" stroke="#666666" points="544.5,-30 400.5,-30 400.5,0 544.5,0 544.5,-30"/>
<text text-anchor="start" x="408.5" y="-18" font-family="Helvetica,sans-Serif" font-size="10.00">SettingsManager::settings</text>
<text text-anchor="middle" x="472.5" y="-7" font-family="Helvetica,sans-Serif" font-size="10.00">Saved</text>
</a>
</g>
</g>
<!-- Node2&#45;&gt;Node4 -->
<g id="edge3_Node000002_Node000004" class="edge">
<title>Node2&#45;&gt;Node4</title>
<g id="a_edge3_Node000002_Node000004"><a xlink:title=" ">
<path fill="none" stroke="#63b8ff" d="M351.74,-29.48C364.38,-27.95 377.48,-26.37 390.18,-24.83"/>
<polygon fill="#63b8ff" stroke="#63b8ff" points="390.76,-28.29 400.26,-23.61 389.92,-21.34 390.76,-28.29"/>
</a>
</g>
</g>
</g>
</svg>
