<?xml version="1.0" encoding="UTF-8" standalone="no"?>
<!DOCTYPE svg PUBLIC "-//W3C//DTD SVG 1.1//EN"
 "http://www.w3.org/Graphics/SVG/1.1/DTD/svg11.dtd">
<!-- Generated by graphviz version 2.43.0 (0)
 -->
<!-- Title: SubtitleEntry::plainText Pages: 1 -->
<svg width="355pt" height="64pt"
 viewBox="0.00 0.00 355.00 64.00" xmlns="http://www.w3.org/2000/svg" xmlns:xlink="http://www.w3.org/1999/xlink">
<g id="graph0" class="graph" transform="scale(1 1) rotate(0) translate(4 60)">
<title>SubtitleEntry::plainText</title>
<!-- Node1 -->
<g id="Node000001" class="node">
<title>Node1</title>
<g id="a_Node000001"><a xlink:title=" ">
<polygon fill="#999999" stroke="#666666" points="347,-37 218,-37 218,-18 347,-18 347,-37"/>
<text text-anchor="middle" x="282.5" y="-25" font-family="Helvetica,sans-Serif" font-size="10.00">SubtitleEntry::plainText</text>
</a>
</g>
</g>
<!-- Node2 -->
<g id="Node000002" class="node">
<title>Node2</title>
<g id="a_Node000002"><a xlink:href="../../db/d1c/classSubtitleEntry.html#a399052a8c1b507b27c41d9d5181ed2ab" target="_top" xlink:title="Parse HTML&#45;like tags in subtitle text.">
<polygon fill="white" stroke="#666666" points="182,-56 0,-56 0,-37 182,-37 182,-56"/>
<text text-anchor="middle" x="91" y="-44" font-family="Helvetica,sans-Serif" font-size="10.00">SubtitleEntry::parseFormattedText</text>
</a>
</g>
</g>
<!-- Node1&#45;&gt;Node2 -->
<g id="edge1_Node000001_Node000002" class="edge">
<title>Node1&#45;&gt;Node2</title>
<g id="a_edge1_Node000001_Node000002"><a xlink:title=" ">
<path fill="none" stroke="#63b8ff" d="M207.74,-34.9C199.33,-35.74 190.68,-36.61 182.08,-37.47"/>
<polygon fill="#63b8ff" stroke="#63b8ff" points="208.27,-38.36 217.87,-33.88 207.57,-31.39 208.27,-38.36"/>
</a>
</g>
</g>
<!-- Node3 -->
<g id="Node000003" class="node">
<title>Node3</title>
<g id="a_Node000003"><a xlink:href="../../db/d1c/classSubtitleEntry.html#ab4cee984d3ea6064d5e52dcf4f197a30" target="_top" xlink:title="Get subtitle text with timing information.">
<polygon fill="white" stroke="#666666" points="152.5,-19 29.5,-19 29.5,0 152.5,0 152.5,-19"/>
<text text-anchor="middle" x="91" y="-7" font-family="Helvetica,sans-Serif" font-size="10.00">SubtitleEntry::toString</text>
</a>
</g>
</g>
<!-- Node1&#45;&gt;Node3 -->
<g id="edge2_Node000001_Node000003" class="edge">
<title>Node1&#45;&gt;Node3</title>
<g id="a_edge2_Node000001_Node000003"><a xlink:title=" ">
<path fill="none" stroke="#63b8ff" d="M207.84,-20.5C189.55,-18.77 170.16,-16.92 152.57,-15.25"/>
<polygon fill="#63b8ff" stroke="#63b8ff" points="207.59,-23.99 217.87,-21.46 208.25,-17.03 207.59,-23.99"/>
</a>
</g>
</g>
</g>
</svg>
