<?xml version="1.0" encoding="UTF-8" standalone="no"?>
<!DOCTYPE svg PUBLIC "-//W3C//DTD SVG 1.1//EN"
 "http://www.w3.org/Graphics/SVG/1.1/DTD/svg11.dtd">
<!-- Generated by graphviz version 2.43.0 (0)
 -->
<!-- Title: include/subtitles/SubtitleRenderer.h Pages: 1 -->
<svg width="854pt" height="148pt"
 viewBox="0.00 0.00 854.00 148.00" xmlns="http://www.w3.org/2000/svg" xmlns:xlink="http://www.w3.org/1999/xlink">
<g id="graph0" class="graph" transform="scale(1 1) rotate(0) translate(4 144)">
<title>include/subtitles/SubtitleRenderer.h</title>
<!-- Node1 -->
<g id="Node000001" class="node">
<title>Node1</title>
<g id="a_Node000001"><a xlink:title=" ">
<polygon fill="#999999" stroke="#666666" points="452.5,-140 315.5,-140 315.5,-110 452.5,-110 452.5,-140"/>
<text text-anchor="start" x="323.5" y="-128" font-family="Helvetica,sans-Serif" font-size="10.00">include/subtitles/Subtitle</text>
<text text-anchor="middle" x="384" y="-117" font-family="Helvetica,sans-Serif" font-size="10.00">Renderer.h</text>
</a>
</g>
</g>
<!-- Node2 -->
<g id="Node000002" class="node">
<title>Node2</title>
<g id="a_Node000002"><a xlink:href="../../d6/d6f/SubtitleEntry_8h.html" target="_top" xlink:title=" ">
<polygon fill="white" stroke="#666666" points="259.5,-74 172.5,-74 172.5,-55 259.5,-55 259.5,-74"/>
<text text-anchor="middle" x="216" y="-62" font-family="Helvetica,sans-Serif" font-size="10.00">SubtitleEntry.h</text>
</a>
</g>
</g>
<!-- Node1&#45;&gt;Node2 -->
<g id="edge1_Node000001_Node000002" class="edge">
<title>Node1&#45;&gt;Node2</title>
<g id="a_edge1_Node000001_Node000002"><a xlink:title=" ">
<path fill="none" stroke="#63b8ff" d="M343.76,-109.99C315.23,-100.05 277.35,-86.86 250.27,-77.43"/>
<polygon fill="#63b8ff" stroke="#63b8ff" points="251.4,-74.12 240.81,-74.14 249.1,-80.73 251.4,-74.12"/>
</a>
</g>
</g>
<!-- Node5 -->
<g id="Node000005" class="node">
<title>Node5</title>
<g id="a_Node000005"><a xlink:title=" ">
<polygon fill="#e0e0e0" stroke="#999999" points="50,-19 0,-19 0,0 50,0 50,-19"/>
<text text-anchor="middle" x="25" y="-7" font-family="Helvetica,sans-Serif" font-size="10.00">QColor</text>
</a>
</g>
</g>
<!-- Node1&#45;&gt;Node5 -->
<g id="edge14_Node000001_Node000005" class="edge">
<title>Node1&#45;&gt;Node5</title>
<g id="a_edge14_Node000001_Node000005"><a xlink:title=" ">
<path fill="none" stroke="#63b8ff" d="M315.28,-112.29C271.13,-103.83 212.92,-90.93 163,-74 122.07,-60.12 76.99,-37.99 49.85,-23.86"/>
<polygon fill="#63b8ff" stroke="#63b8ff" points="51.18,-20.61 40.7,-19.05 47.92,-26.8 51.18,-20.61"/>
</a>
</g>
</g>
<!-- Node6 -->
<g id="Node000006" class="node">
<title>Node6</title>
<g id="a_Node000006"><a xlink:title=" ">
<polygon fill="#e0e0e0" stroke="#999999" points="310.5,-19 265.5,-19 265.5,0 310.5,0 310.5,-19"/>
<text text-anchor="middle" x="288" y="-7" font-family="Helvetica,sans-Serif" font-size="10.00">QFont</text>
</a>
</g>
</g>
<!-- Node1&#45;&gt;Node6 -->
<g id="edge13_Node000001_Node000006" class="edge">
<title>Node1&#45;&gt;Node6</title>
<g id="a_edge13_Node000001_Node000006"><a xlink:title=" ">
<path fill="none" stroke="#63b8ff" d="M370.79,-109.75C361.7,-99.85 349.44,-86.28 339,-74 325.75,-58.42 311.2,-40.18 301.04,-27.25"/>
<polygon fill="#63b8ff" stroke="#63b8ff" points="303.7,-24.97 294.78,-19.25 298.18,-29.29 303.7,-24.97"/>
</a>
</g>
</g>
<!-- Node7 -->
<g id="Node000007" class="node">
<title>Node7</title>
<g id="a_Node000007"><a xlink:title=" ">
<polygon fill="#e0e0e0" stroke="#999999" points="375,-19 329,-19 329,0 375,0 375,-19"/>
<text text-anchor="middle" x="352" y="-7" font-family="Helvetica,sans-Serif" font-size="10.00">QRect</text>
</a>
</g>
</g>
<!-- Node1&#45;&gt;Node7 -->
<g id="edge15_Node000001_Node000007" class="edge">
<title>Node1&#45;&gt;Node7</title>
<g id="a_edge15_Node000001_Node000007"><a xlink:title=" ">
<path fill="none" stroke="#63b8ff" d="M369.12,-109.77C360.55,-100.51 350.59,-87.64 346,-74 341.13,-59.55 343.24,-42.28 346.22,-29.4"/>
<polygon fill="#63b8ff" stroke="#63b8ff" points="349.69,-29.96 348.92,-19.39 342.94,-28.14 349.69,-29.96"/>
</a>
</g>
</g>
<!-- Node9 -->
<g id="Node000009" class="node">
<title>Node9</title>
<g id="a_Node000009"><a xlink:title=" ">
<polygon fill="#e0e0e0" stroke="#999999" points="413.5,-74 354.5,-74 354.5,-55 413.5,-55 413.5,-74"/>
<text text-anchor="middle" x="384" y="-62" font-family="Helvetica,sans-Serif" font-size="10.00">QWidget</text>
</a>
</g>
</g>
<!-- Node1&#45;&gt;Node9 -->
<g id="edge8_Node000001_Node000009" class="edge">
<title>Node1&#45;&gt;Node9</title>
<g id="a_edge8_Node000001_Node000009"><a xlink:title=" ">
<path fill="none" stroke="#63b8ff" d="M384,-109.84C384,-102.21 384,-92.7 384,-84.45"/>
<polygon fill="#63b8ff" stroke="#63b8ff" points="387.5,-84.27 384,-74.27 380.5,-84.27 387.5,-84.27"/>
</a>
</g>
</g>
<!-- Node10 -->
<g id="Node000010" class="node">
<title>Node10</title>
<g id="a_Node000010"><a xlink:title=" ">
<polygon fill="#e0e0e0" stroke="#999999" points="490,-74 432,-74 432,-55 490,-55 490,-74"/>
<text text-anchor="middle" x="461" y="-62" font-family="Helvetica,sans-Serif" font-size="10.00">QPainter</text>
</a>
</g>
</g>
<!-- Node1&#45;&gt;Node10 -->
<g id="edge9_Node000001_Node000010" class="edge">
<title>Node1&#45;&gt;Node10</title>
<g id="a_edge9_Node000001_Node000010"><a xlink:title=" ">
<path fill="none" stroke="#63b8ff" d="M402.64,-109.84C414.39,-100.91 429.53,-89.41 441.45,-80.35"/>
<polygon fill="#63b8ff" stroke="#63b8ff" points="443.62,-83.1 449.46,-74.27 439.38,-77.53 443.62,-83.1"/>
</a>
</g>
</g>
<!-- Node11 -->
<g id="Node000011" class="node">
<title>Node11</title>
<g id="a_Node000011"><a xlink:title=" ">
<polygon fill="#e0e0e0" stroke="#999999" points="561.5,-74 508.5,-74 508.5,-55 561.5,-55 561.5,-74"/>
<text text-anchor="middle" x="535" y="-62" font-family="Helvetica,sans-Serif" font-size="10.00">QTimer</text>
</a>
</g>
</g>
<!-- Node1&#45;&gt;Node11 -->
<g id="edge10_Node000001_Node000011" class="edge">
<title>Node1&#45;&gt;Node11</title>
<g id="a_edge10_Node000001_Node000011"><a xlink:title=" ">
<path fill="none" stroke="#63b8ff" d="M420.17,-109.99C445.47,-100.18 478.96,-87.21 503.24,-77.81"/>
<polygon fill="#63b8ff" stroke="#63b8ff" points="504.64,-81.02 512.7,-74.14 502.11,-74.49 504.64,-81.02"/>
</a>
</g>
</g>
<!-- Node12 -->
<g id="Node000012" class="node">
<title>Node12</title>
<g id="a_Node000012"><a xlink:title=" ">
<polygon fill="#e0e0e0" stroke="#999999" points="696,-74 580,-74 580,-55 696,-55 696,-74"/>
<text text-anchor="middle" x="638" y="-62" font-family="Helvetica,sans-Serif" font-size="10.00">QPropertyAnimation</text>
</a>
</g>
</g>
<!-- Node1&#45;&gt;Node12 -->
<g id="edge11_Node000001_Node000012" class="edge">
<title>Node1&#45;&gt;Node12</title>
<g id="a_edge11_Node000001_Node000012"><a xlink:title=" ">
<path fill="none" stroke="#63b8ff" d="M444.84,-109.99C489.72,-99.65 549.89,-85.79 591.08,-76.31"/>
<polygon fill="#63b8ff" stroke="#63b8ff" points="591.9,-79.71 600.86,-74.05 590.33,-72.89 591.9,-79.71"/>
</a>
</g>
</g>
<!-- Node13 -->
<g id="Node000013" class="node">
<title>Node13</title>
<g id="a_Node000013"><a xlink:title=" ">
<polygon fill="#e0e0e0" stroke="#999999" points="846,-74 714,-74 714,-55 846,-55 846,-74"/>
<text text-anchor="middle" x="780" y="-62" font-family="Helvetica,sans-Serif" font-size="10.00">QGraphicsOpacityEffect</text>
</a>
</g>
</g>
<!-- Node1&#45;&gt;Node13 -->
<g id="edge12_Node000001_Node000013" class="edge">
<title>Node1&#45;&gt;Node13</title>
<g id="a_edge12_Node000001_Node000013"><a xlink:title=" ">
<path fill="none" stroke="#63b8ff" d="M452.53,-113.88C525.36,-103.12 639.82,-86.21 712.33,-75.5"/>
<polygon fill="#63b8ff" stroke="#63b8ff" points="712.89,-78.95 722.27,-74.03 711.87,-72.03 712.89,-78.95"/>
</a>
</g>
</g>
<!-- Node3 -->
<g id="Node000003" class="node">
<title>Node3</title>
<g id="a_Node000003"><a xlink:title=" ">
<polygon fill="#e0e0e0" stroke="#999999" points="121.5,-19 68.5,-19 68.5,0 121.5,0 121.5,-19"/>
<text text-anchor="middle" x="95" y="-7" font-family="Helvetica,sans-Serif" font-size="10.00">QString</text>
</a>
</g>
</g>
<!-- Node2&#45;&gt;Node3 -->
<g id="edge2_Node000002_Node000003" class="edge">
<title>Node2&#45;&gt;Node3</title>
<g id="a_edge2_Node000002_Node000003"><a xlink:title=" ">
<path fill="none" stroke="#63b8ff" d="M196.56,-54.98C177.01,-46.42 146.62,-33.11 124.18,-23.28"/>
<polygon fill="#63b8ff" stroke="#63b8ff" points="125.36,-19.98 114.79,-19.17 122.55,-26.39 125.36,-19.98"/>
</a>
</g>
</g>
<!-- Node4 -->
<g id="Node000004" class="node">
<title>Node4</title>
<g id="a_Node000004"><a xlink:title=" ">
<polygon fill="#e0e0e0" stroke="#999999" points="188.5,-19 139.5,-19 139.5,0 188.5,0 188.5,-19"/>
<text text-anchor="middle" x="164" y="-7" font-family="Helvetica,sans-Serif" font-size="10.00">QTime</text>
</a>
</g>
</g>
<!-- Node2&#45;&gt;Node4 -->
<g id="edge3_Node000002_Node000004" class="edge">
<title>Node2&#45;&gt;Node4</title>
<g id="a_edge3_Node000002_Node000004"><a xlink:title=" ">
<path fill="none" stroke="#63b8ff" d="M207.41,-54.75C199.84,-47.03 188.62,-35.6 179.49,-26.28"/>
<polygon fill="#63b8ff" stroke="#63b8ff" points="181.93,-23.78 172.43,-19.09 176.93,-28.68 181.93,-23.78"/>
</a>
</g>
</g>
<!-- Node2&#45;&gt;Node5 -->
<g id="edge4_Node000002_Node000005" class="edge">
<title>Node2&#45;&gt;Node5</title>
<g id="a_edge4_Node000002_Node000005"><a xlink:title=" ">
<path fill="none" stroke="#63b8ff" d="M185.31,-54.98C151.14,-45.5 96.02,-30.21 60.15,-20.25"/>
<polygon fill="#63b8ff" stroke="#63b8ff" points="60.7,-16.77 50.12,-17.47 58.82,-23.52 60.7,-16.77"/>
</a>
</g>
</g>
<!-- Node2&#45;&gt;Node6 -->
<g id="edge5_Node000002_Node000006" class="edge">
<title>Node2&#45;&gt;Node6</title>
<g id="a_edge5_Node000002_Node000006"><a xlink:title=" ">
<path fill="none" stroke="#63b8ff" d="M227.57,-54.98C238.42,-47 254.88,-34.88 267.88,-25.31"/>
<polygon fill="#63b8ff" stroke="#63b8ff" points="270.24,-27.92 276.22,-19.17 266.09,-22.28 270.24,-27.92"/>
</a>
</g>
</g>
<!-- Node2&#45;&gt;Node7 -->
<g id="edge6_Node000002_Node000007" class="edge">
<title>Node2&#45;&gt;Node7</title>
<g id="a_edge6_Node000002_Node000007"><a xlink:title=" ">
<path fill="none" stroke="#63b8ff" d="M237.85,-54.98C260.12,-46.3 294.9,-32.75 320.22,-22.88"/>
<polygon fill="#63b8ff" stroke="#63b8ff" points="321.71,-26.06 329.75,-19.17 319.16,-19.54 321.71,-26.06"/>
</a>
</g>
</g>
<!-- Node8 -->
<g id="Node000008" class="node">
<title>Node8</title>
<g id="a_Node000008"><a xlink:title=" ">
<polygon fill="#e0e0e0" stroke="#999999" points="247.5,-19 206.5,-19 206.5,0 247.5,0 247.5,-19"/>
<text text-anchor="middle" x="227" y="-7" font-family="Helvetica,sans-Serif" font-size="10.00">QList</text>
</a>
</g>
</g>
<!-- Node2&#45;&gt;Node8 -->
<g id="edge7_Node000002_Node000008" class="edge">
<title>Node2&#45;&gt;Node8</title>
<g id="a_edge7_Node000002_Node000008"><a xlink:title=" ">
<path fill="none" stroke="#63b8ff" d="M217.82,-54.75C219.26,-47.8 221.32,-37.85 223.13,-29.13"/>
<polygon fill="#63b8ff" stroke="#63b8ff" points="226.61,-29.59 225.22,-19.09 219.76,-28.17 226.61,-29.59"/>
</a>
</g>
</g>
</g>
</svg>
