<?xml version="1.0" encoding="UTF-8" standalone="no"?>
<!DOCTYPE svg PUBLIC "-//W3C//DTD SVG 1.1//EN"
 "http://www.w3.org/Graphics/SVG/1.1/DTD/svg11.dtd">
<!-- Generated by graphviz version 2.43.0 (0)
 -->
<!-- Title: SubtitleTrack::addEntry Pages: 1 -->
<svg width="460pt" height="27pt"
 viewBox="0.00 0.00 460.00 27.00" xmlns="http://www.w3.org/2000/svg" xmlns:xlink="http://www.w3.org/1999/xlink">
<g id="graph0" class="graph" transform="scale(1 1) rotate(0) translate(4 23)">
<title>SubtitleTrack::addEntry</title>
<!-- Node1 -->
<g id="Node000001" class="node">
<title>Node1</title>
<g id="a_Node000001"><a xlink:title=" ">
<polygon fill="#999999" stroke="#666666" points="452,-19 323,-19 323,0 452,0 452,-19"/>
<text text-anchor="middle" x="387.5" y="-7" font-family="Helvetica,sans-Serif" font-size="10.00">SubtitleTrack::addEntry</text>
</a>
</g>
</g>
<!-- Node2 -->
<g id="Node000002" class="node">
<title>Node2</title>
<g id="a_Node000002"><a xlink:href="../../dc/db9/classSRTParser.html#a1f7cc9e6aaf5755d85f12e8c45c3fd43" target="_top" xlink:title="Parse subtitle content and return subtitle track.">
<polygon fill="white" stroke="#666666" points="287,-19 151,-19 151,0 287,0 287,-19"/>
<text text-anchor="middle" x="219" y="-7" font-family="Helvetica,sans-Serif" font-size="10.00">SRTParser::parseContent</text>
</a>
</g>
</g>
<!-- Node1&#45;&gt;Node2 -->
<g id="edge1_Node000001_Node000002" class="edge">
<title>Node1&#45;&gt;Node2</title>
<g id="a_edge1_Node000001_Node000002"><a xlink:title=" ">
<path fill="none" stroke="#63b8ff" d="M312.39,-9.5C303.95,-9.5 295.38,-9.5 287.04,-9.5"/>
<polygon fill="#63b8ff" stroke="#63b8ff" points="312.6,-13 322.6,-9.5 312.6,-6 312.6,-13"/>
</a>
</g>
</g>
<!-- Node3 -->
<g id="Node000003" class="node">
<title>Node3</title>
<g id="a_Node000003"><a xlink:href="../../dc/db9/classSRTParser.html#aeef7c45b58862be36745cd1f39abe5a5" target="_top" xlink:title="Parse subtitle file and return subtitle track.">
<polygon fill="white" stroke="#666666" points="115,-19 0,-19 0,0 115,0 115,-19"/>
<text text-anchor="middle" x="57.5" y="-7" font-family="Helvetica,sans-Serif" font-size="10.00">SRTParser::parseFile</text>
</a>
</g>
</g>
<!-- Node2&#45;&gt;Node3 -->
<g id="edge2_Node000002_Node000003" class="edge">
<title>Node2&#45;&gt;Node3</title>
<g id="a_edge2_Node000002_Node000003"><a xlink:title=" ">
<path fill="none" stroke="#63b8ff" d="M140.7,-9.5C132.04,-9.5 123.34,-9.5 115.01,-9.5"/>
<polygon fill="#63b8ff" stroke="#63b8ff" points="140.82,-13 150.82,-9.5 140.82,-6 140.82,-13"/>
</a>
</g>
</g>
</g>
</svg>
