<?xml version="1.0" encoding="UTF-8" standalone="no"?>
<!DOCTYPE svg PUBLIC "-//W3C//DTD SVG 1.1//EN"
 "http://www.w3.org/Graphics/SVG/1.1/DTD/svg11.dtd">
<!-- Generated by graphviz version 2.43.0 (0)
 -->
<!-- Title: SubtitleTrack::title Pages: 1 -->
<svg width="667pt" height="81pt"
 viewBox="0.00 0.00 667.00 81.00" xmlns="http://www.w3.org/2000/svg" xmlns:xlink="http://www.w3.org/1999/xlink">
<g id="graph0" class="graph" transform="scale(1 1) rotate(0) translate(4 77)">
<title>SubtitleTrack::title</title>
<!-- Node1 -->
<g id="Node000001" class="node">
<title>Node1</title>
<g id="a_Node000001"><a xlink:title=" ">
<polygon fill="#999999" stroke="#666666" points="659,-48.5 554,-48.5 554,-29.5 659,-29.5 659,-48.5"/>
<text text-anchor="middle" x="606.5" y="-36.5" font-family="Helvetica,sans-Serif" font-size="10.00">SubtitleTrack::title</text>
</a>
</g>
</g>
<!-- Node2 -->
<g id="Node000002" class="node">
<title>Node2</title>
<g id="a_Node000002"><a xlink:href="../../dd/d8b/classSubtitleManager.html#a8b6d9ea90c799260111c17b60b4d4e2c" target="_top" xlink:title="Load subtitle file.">
<polygon fill="white" stroke="#666666" points="360,-67.5 181,-67.5 181,-48.5 360,-48.5 360,-67.5"/>
<text text-anchor="middle" x="270.5" y="-55.5" font-family="Helvetica,sans-Serif" font-size="10.00">SubtitleManager::loadSubtitleFile</text>
</a>
</g>
</g>
<!-- Node1&#45;&gt;Node2 -->
<g id="edge1_Node000001_Node000002" class="edge">
<title>Node1&#45;&gt;Node2</title>
<g id="a_edge1_Node000001_Node000002"><a xlink:title=" ">
<path fill="none" stroke="#63b8ff" d="M543.68,-42.52C492.15,-45.45 418.08,-49.66 360.22,-52.95"/>
<polygon fill="#63b8ff" stroke="#63b8ff" points="543.89,-46.01 553.68,-41.95 543.5,-39.02 543.89,-46.01"/>
</a>
</g>
</g>
<!-- Node4 -->
<g id="Node000004" class="node">
<title>Node4</title>
<g id="a_Node000004"><a xlink:href="../../d1/de3/classSubtitleTrack.html#ae75b560fd9d03ac98f727af466a939c1" target="_top" xlink:title=" ">
<polygon fill="white" stroke="#666666" points="518,-29.5 396,-29.5 396,-10.5 518,-10.5 518,-29.5"/>
<text text-anchor="middle" x="457" y="-17.5" font-family="Helvetica,sans-Serif" font-size="10.00">SubtitleTrack::setTitle</text>
</a>
</g>
</g>
<!-- Node1&#45;&gt;Node4 -->
<g id="edge3_Node000001_Node000004" class="edge">
<title>Node1&#45;&gt;Node4</title>
<g id="a_edge3_Node000001_Node000004"><a xlink:title=" ">
<path fill="none" stroke="#63b8ff" d="M543.73,-31.04C535.27,-29.95 526.59,-28.84 518.16,-27.75"/>
<polygon fill="#63b8ff" stroke="#63b8ff" points="543.55,-34.55 553.91,-32.35 544.44,-27.61 543.55,-34.55"/>
</a>
</g>
</g>
<!-- Node3 -->
<g id="Node000003" class="node">
<title>Node3</title>
<g id="a_Node000003"><a xlink:href="../../dd/d8b/classSubtitleManager.html#a09a785b7bd91cada546078cbe9337eda" target="_top" xlink:title="Handle media loaded.">
<polygon fill="white" stroke="#666666" points="145,-73 0,-73 0,-43 145,-43 145,-73"/>
<text text-anchor="start" x="8" y="-61" font-family="Helvetica,sans-Serif" font-size="10.00">SubtitleManager::onMedia</text>
<text text-anchor="middle" x="72.5" y="-50" font-family="Helvetica,sans-Serif" font-size="10.00">Loaded</text>
</a>
</g>
</g>
<!-- Node2&#45;&gt;Node3 -->
<g id="edge2_Node000002_Node000003" class="edge">
<title>Node2&#45;&gt;Node3</title>
<g id="a_edge2_Node000002_Node000003"><a xlink:title=" ">
<path fill="none" stroke="#63b8ff" d="M170.83,-58C162.19,-58 153.56,-58 145.2,-58"/>
<polygon fill="#63b8ff" stroke="#63b8ff" points="170.96,-61.5 180.96,-58 170.96,-54.5 170.96,-61.5"/>
</a>
</g>
</g>
<!-- Node4&#45;&gt;Node2 -->
<g id="edge5_Node000004_Node000002" class="edge">
<title>Node4&#45;&gt;Node2</title>
<g id="a_edge5_Node000004_Node000002"><a xlink:title=" ">
<path fill="none" stroke="#63b8ff" d="M399.63,-31.61C373.39,-37.01 342.56,-43.36 317.72,-48.48"/>
<polygon fill="#63b8ff" stroke="#63b8ff" points="400.35,-35.03 409.44,-29.59 398.94,-28.18 400.35,-35.03"/>
</a>
</g>
</g>
<!-- Node5 -->
<g id="Node000005" class="node">
<title>Node5</title>
<g id="a_Node000005"><a xlink:href="../../dd/d8b/classSubtitleManager.html#a608442cfbbc105168de564e34f98d13c" target="_top" xlink:title="Load subtitle from content.">
<polygon fill="white" stroke="#666666" points="351,-30 190,-30 190,0 351,0 351,-30"/>
<text text-anchor="start" x="198" y="-18" font-family="Helvetica,sans-Serif" font-size="10.00">SubtitleManager::loadSubtitle</text>
<text text-anchor="middle" x="270.5" y="-7" font-family="Helvetica,sans-Serif" font-size="10.00">Content</text>
</a>
</g>
</g>
<!-- Node4&#45;&gt;Node5 -->
<g id="edge4_Node000004_Node000005" class="edge">
<title>Node4&#45;&gt;Node5</title>
<g id="a_edge4_Node000004_Node000005"><a xlink:title=" ">
<path fill="none" stroke="#63b8ff" d="M385.61,-18.09C374.31,-17.79 362.54,-17.47 351.05,-17.16"/>
<polygon fill="#63b8ff" stroke="#63b8ff" points="385.75,-21.6 395.84,-18.37 385.94,-14.6 385.75,-21.6"/>
</a>
</g>
</g>
</g>
</svg>
