<?xml version="1.0" encoding="UTF-8" standalone="no"?>
<!DOCTYPE svg PUBLIC "-//W3C//DTD SVG 1.1//EN"
 "http://www.w3.org/Graphics/SVG/1.1/DTD/svg11.dtd">
<!-- Generated by graphviz version 2.43.0 (0)
 -->
<!-- Title: SubtitleTrack::validateEntries Pages: 1 -->
<svg width="492pt" height="64pt"
 viewBox="0.00 0.00 492.00 64.00" xmlns="http://www.w3.org/2000/svg" xmlns:xlink="http://www.w3.org/1999/xlink">

<svg id="main" version="1.1" xmlns="http://www.w3.org/2000/svg" xmlns:xlink="http://www.w3.org/1999/xlink" xml:space="preserve" onload="init(evt)">
<style type="text/css"><![CDATA[
.node, .edge {opacity: 0.7;}
.node.selected, .edge.selected {opacity: 1;}
.edge:hover path { stroke: red; }
.edge:hover polygon { stroke: red; fill: red; }
]]></style>
<script type="application/ecmascript" xlink:href="../../svg.min.js"/>
<svg id="graph" class="graph">
<g id="graph0" class="graph" transform="scale(1 1) rotate(0) translate(4 60)">
<title>SubtitleTrack::validateEntries</title>
<!-- Node1 -->
<g id="Node000001" class="node">
<title>Node1</title>
<g id="a_Node000001"><a xlink:title="Validate all entries and remove invalid ones.">
<polygon fill="#999999" stroke="#666666" points="484,-37 325,-37 325,-18 484,-18 484,-37"/>
<text text-anchor="middle" x="404.5" y="-25" font-family="Helvetica,sans-Serif" font-size="10.00">SubtitleTrack::validateEntries</text>
</a>
</g>
</g>
<!-- Node2 -->
<g id="Node000002" class="node">
<title>Node2</title>
<g id="a_Node000002"><a xlink:href="../../db/dc3/classASSParser.html#a176ba7444de20be9855bf85ec96a2968" target="_top" xlink:title="Parse subtitle content and return subtitle track.">
<polygon fill="white" stroke="#666666" points="289,-56 152,-56 152,-37 289,-37 289,-56"/>
<text text-anchor="middle" x="220.5" y="-44" font-family="Helvetica,sans-Serif" font-size="10.00">ASSParser::parseContent</text>
</a>
</g>
</g>
<!-- Node1&#45;&gt;Node2 -->
<g id="edge1_Node000001_Node000002" class="edge">
<title>Node1&#45;&gt;Node2</title>
<g id="a_edge1_Node000001_Node000002"><a xlink:title=" ">
<path fill="none" stroke="#63b8ff" d="M314.88,-36.75C306.23,-37.65 297.56,-38.56 289.17,-39.44"/>
<polygon fill="#63b8ff" stroke="#63b8ff" points="315.41,-40.22 325,-35.7 314.69,-33.25 315.41,-40.22"/>
</a>
</g>
</g>
<!-- Node4 -->
<g id="Node000004" class="node">
<title>Node4</title>
<g id="a_Node000004"><a xlink:href="../../dc/db9/classSRTParser.html#a1f7cc9e6aaf5755d85f12e8c45c3fd43" target="_top" xlink:title="Parse subtitle content and return subtitle track.">
<polygon fill="white" stroke="#666666" points="288.5,-19 152.5,-19 152.5,0 288.5,0 288.5,-19"/>
<text text-anchor="middle" x="220.5" y="-7" font-family="Helvetica,sans-Serif" font-size="10.00">SRTParser::parseContent</text>
</a>
</g>
</g>
<!-- Node1&#45;&gt;Node4 -->
<g id="edge3_Node000001_Node000004" class="edge">
<title>Node1&#45;&gt;Node4</title>
<g id="a_edge3_Node000001_Node000004"><a xlink:title=" ">
<path fill="none" stroke="#63b8ff" d="M315,-18.75C306.12,-17.87 297.21,-16.99 288.61,-16.14"/>
<polygon fill="#63b8ff" stroke="#63b8ff" points="314.7,-22.23 325,-19.74 315.39,-15.27 314.7,-22.23"/>
</a>
</g>
</g>
<!-- Node3 -->
<g id="Node000003" class="node">
<title>Node3</title>
<g id="a_Node000003"><a xlink:href="../../db/dc3/classASSParser.html#ab8109b9fd9345830b366a40a0c386945" target="_top" xlink:title="Parse subtitle file and return subtitle track.">
<polygon fill="white" stroke="#666666" points="116,-56 0,-56 0,-37 116,-37 116,-56"/>
<text text-anchor="middle" x="58" y="-44" font-family="Helvetica,sans-Serif" font-size="10.00">ASSParser::parseFile</text>
</a>
</g>
</g>
<!-- Node2&#45;&gt;Node3 -->
<g id="edge2_Node000002_Node000003" class="edge">
<title>Node2&#45;&gt;Node3</title>
<g id="a_edge2_Node000002_Node000003"><a xlink:title=" ">
<path fill="none" stroke="#63b8ff" d="M141.78,-46.5C133.13,-46.5 124.44,-46.5 116.12,-46.5"/>
<polygon fill="#63b8ff" stroke="#63b8ff" points="141.9,-50 151.9,-46.5 141.9,-43 141.9,-50"/>
</a>
</g>
</g>
<!-- Node5 -->
<g id="Node000005" class="node">
<title>Node5</title>
<g id="a_Node000005"><a xlink:href="../../dc/db9/classSRTParser.html#aeef7c45b58862be36745cd1f39abe5a5" target="_top" xlink:title="Parse subtitle file and return subtitle track.">
<polygon fill="white" stroke="#666666" points="115.5,-19 0.5,-19 0.5,0 115.5,0 115.5,-19"/>
<text text-anchor="middle" x="58" y="-7" font-family="Helvetica,sans-Serif" font-size="10.00">SRTParser::parseFile</text>
</a>
</g>
</g>
<!-- Node4&#45;&gt;Node5 -->
<g id="edge4_Node000004_Node000005" class="edge">
<title>Node4&#45;&gt;Node5</title>
<g id="a_edge4_Node000004_Node000005"><a xlink:title=" ">
<path fill="none" stroke="#63b8ff" d="M142.29,-9.5C133.32,-9.5 124.31,-9.5 115.69,-9.5"/>
<polygon fill="#63b8ff" stroke="#63b8ff" points="142.36,-13 152.36,-9.5 142.36,-6 142.36,-13"/>
</a>
</g>
</g>
</g>
</svg>
</svg>

<style type='text/css'>
<![CDATA[
[data-mouse-over-selected='false'] { opacity: 0.7; }
[data-mouse-over-selected='true']  { opacity: 1.0; }
]]>
</style>
<script type="application/ecmascript"><![CDATA[
document.addEventListener('DOMContentLoaded', (event) => {
  highlightEdges();
  highlightAdjacentNodes();
});
]]></script>
</svg>
