<?xml version="1.0" encoding="UTF-8" standalone="no"?>
<!DOCTYPE svg PUBLIC "-//W3C//DTD SVG 1.1//EN"
 "http://www.w3.org/Graphics/SVG/1.1/DTD/svg11.dtd">
<!-- Generated by graphviz version 2.43.0 (0)
 -->
<!-- Title: HotkeyManager::checkConflict Pages: 1 -->
<svg width="590pt" height="52pt"
 viewBox="0.00 0.00 590.00 51.50" xmlns="http://www.w3.org/2000/svg" xmlns:xlink="http://www.w3.org/1999/xlink">
<g id="graph0" class="graph" transform="scale(1 1) rotate(0) translate(4 47.5)">
<title>HotkeyManager::checkConflict</title>
<!-- Node1 -->
<g id="Node000001" class="node">
<title>Node1</title>
<g id="a_Node000001"><a xlink:title="Check if key sequence conflicts with existing hotkeys.">
<polygon fill="#999999" stroke="#666666" points="582,-24.5 417,-24.5 417,-5.5 582,-5.5 582,-24.5"/>
<text text-anchor="middle" x="499.5" y="-12.5" font-family="Helvetica,sans-Serif" font-size="10.00">HotkeyManager::checkConflict</text>
</a>
</g>
</g>
<!-- Node2 -->
<g id="Node000002" class="node">
<title>Node2</title>
<g id="a_Node000002"><a xlink:href="../../d2/d66/classHotkeyManager.html#a370e812ad2887b649fe7861717e6facd" target="_top" xlink:title="Set hotkey for an action.">
<polygon fill="white" stroke="#666666" points="381,-43.5 232,-43.5 232,-24.5 381,-24.5 381,-43.5"/>
<text text-anchor="middle" x="306.5" y="-31.5" font-family="Helvetica,sans-Serif" font-size="10.00">HotkeyManager::setHotkey</text>
</a>
</g>
</g>
<!-- Node1&#45;&gt;Node2 -->
<g id="edge1_Node000001_Node000002" class="edge">
<title>Node1&#45;&gt;Node2</title>
<g id="a_edge1_Node000001_Node000002"><a xlink:title=" ">
<path fill="none" stroke="#63b8ff" d="M406.88,-24.11C398.28,-24.97 389.64,-25.83 381.23,-26.67"/>
<polygon fill="#63b8ff" stroke="#63b8ff" points="407.34,-27.59 416.94,-23.11 406.65,-20.62 407.34,-27.59"/>
</a>
</g>
</g>
<!-- Node3 -->
<g id="Node000003" class="node">
<title>Node3</title>
<g id="a_Node000003"><a xlink:href="../../d2/d66/classHotkeyManager.html#aaeacc013d47b8d38c9444b4bf6e302ea" target="_top" xlink:title="Show hotkey customization dialog.">
<polygon fill="white" stroke="#666666" points="196,-30 0,-30 0,0 196,0 196,-30"/>
<text text-anchor="start" x="8" y="-18" font-family="Helvetica,sans-Serif" font-size="10.00">HotkeyManager::showCustomization</text>
<text text-anchor="middle" x="98" y="-7" font-family="Helvetica,sans-Serif" font-size="10.00">Dialog</text>
</a>
</g>
</g>
<!-- Node1&#45;&gt;Node3 -->
<g id="edge3_Node000001_Node000003" class="edge">
<title>Node1&#45;&gt;Node3</title>
<g id="a_edge3_Node000001_Node000003"><a xlink:title=" ">
<path fill="none" stroke="#63b8ff" d="M406.38,-15C343.44,-15 260.19,-15 196.2,-15"/>
<polygon fill="#63b8ff" stroke="#63b8ff" points="406.69,-18.5 416.69,-15 406.69,-11.5 406.69,-18.5"/>
</a>
</g>
</g>
<!-- Node2&#45;&gt;Node3 -->
<g id="edge2_Node000002_Node000003" class="edge">
<title>Node2&#45;&gt;Node3</title>
<g id="a_edge2_Node000002_Node000003"><a xlink:title=" ">
<path fill="none" stroke="#63b8ff" d="M221.66,-26.29C213.24,-25.51 204.64,-24.72 196.1,-23.93"/>
<polygon fill="#63b8ff" stroke="#63b8ff" points="221.54,-29.79 231.82,-27.22 222.19,-22.82 221.54,-29.79"/>
</a>
</g>
</g>
</g>
</svg>
