<?xml version="1.0" encoding="UTF-8" standalone="no"?>
<!DOCTYPE svg PUBLIC "-//W3C//DTD SVG 1.1//EN"
 "http://www.w3.org/Graphics/SVG/1.1/DTD/svg11.dtd">
<!-- Generated by graphviz version 2.43.0 (0)
 -->
<!-- Title: HotkeyManager::showCustomizationDialog Pages: 1 -->
<svg width="601pt" height="64pt"
 viewBox="0.00 0.00 601.00 64.00" xmlns="http://www.w3.org/2000/svg" xmlns:xlink="http://www.w3.org/1999/xlink">
<g id="graph0" class="graph" transform="scale(1 1) rotate(0) translate(4 60)">
<title>HotkeyManager::showCustomizationDialog</title>
<!-- Node1 -->
<g id="Node000001" class="node">
<title>Node1</title>
<g id="a_Node000001"><a xlink:title="Show hotkey customization dialog.">
<polygon fill="#999999" stroke="#666666" points="196,-43.5 0,-43.5 0,-13.5 196,-13.5 196,-43.5"/>
<text text-anchor="start" x="8" y="-31.5" font-family="Helvetica,sans-Serif" font-size="10.00">HotkeyManager::showCustomization</text>
<text text-anchor="middle" x="98" y="-20.5" font-family="Helvetica,sans-Serif" font-size="10.00">Dialog</text>
</a>
</g>
</g>
<!-- Node2 -->
<g id="Node000002" class="node">
<title>Node2</title>
<g id="a_Node000002"><a xlink:href="../../d2/d66/classHotkeyManager.html#a650e859f82e65f43e80477b095250eef" target="_top" xlink:title="Check if key sequence conflicts with existing hotkeys.">
<polygon fill="white" stroke="#666666" points="587.5,-56 422.5,-56 422.5,-37 587.5,-37 587.5,-56"/>
<text text-anchor="middle" x="505" y="-44" font-family="Helvetica,sans-Serif" font-size="10.00">HotkeyManager::checkConflict</text>
</a>
</g>
</g>
<!-- Node1&#45;&gt;Node2 -->
<g id="edge1_Node000001_Node000002" class="edge">
<title>Node1&#45;&gt;Node2</title>
<g id="a_edge1_Node000001_Node000002"><a xlink:title=" ">
<path fill="none" stroke="#63b8ff" d="M196.01,-32.81C261.65,-35.73 347.8,-39.56 412.3,-42.42"/>
<polygon fill="#63b8ff" stroke="#63b8ff" points="412.31,-45.93 422.46,-42.88 412.62,-38.94 412.31,-45.93"/>
</a>
</g>
</g>
<!-- Node3 -->
<g id="Node000003" class="node">
<title>Node3</title>
<g id="a_Node000003"><a xlink:href="../../d2/d66/classHotkeyManager.html#a370e812ad2887b649fe7861717e6facd" target="_top" xlink:title="Set hotkey for an action.">
<polygon fill="white" stroke="#666666" points="381,-19 232,-19 232,0 381,0 381,-19"/>
<text text-anchor="middle" x="306.5" y="-7" font-family="Helvetica,sans-Serif" font-size="10.00">HotkeyManager::setHotkey</text>
</a>
</g>
</g>
<!-- Node1&#45;&gt;Node3 -->
<g id="edge2_Node000001_Node000003" class="edge">
<title>Node1&#45;&gt;Node3</title>
<g id="a_edge2_Node000001_Node000003"><a xlink:title=" ">
<path fill="none" stroke="#63b8ff" d="M196.2,-19.56C204.76,-18.77 213.36,-17.98 221.79,-17.2"/>
<polygon fill="#63b8ff" stroke="#63b8ff" points="222.33,-20.67 231.97,-16.27 221.69,-13.7 222.33,-20.67"/>
</a>
</g>
</g>
<!-- Node3&#45;&gt;Node2 -->
<g id="edge3_Node000003_Node000002" class="edge">
<title>Node3&#45;&gt;Node2</title>
<g id="a_edge3_Node000003_Node000002"><a xlink:title=" ">
<path fill="none" stroke="#63b8ff" d="M358.1,-19.03C384.13,-23.93 416.05,-29.94 443.38,-35.09"/>
<polygon fill="#63b8ff" stroke="#63b8ff" points="442.75,-38.53 453.23,-36.94 444.05,-31.65 442.75,-38.53"/>
</a>
</g>
</g>
<!-- Node4 -->
<g id="Node000004" class="node">
<title>Node4</title>
<g id="a_Node000004"><a xlink:href="../../d2/d66/classHotkeyManager.html#a28aff79a1e510ff4fe892e4541a31643" target="_top" xlink:title="Emitted when hotkey settings change.">
<polygon fill="white" stroke="#666666" points="593,-19 417,-19 417,0 593,0 593,-19"/>
<text text-anchor="middle" x="505" y="-7" font-family="Helvetica,sans-Serif" font-size="10.00">HotkeyManager::hotkeyChanged</text>
</a>
</g>
</g>
<!-- Node3&#45;&gt;Node4 -->
<g id="edge4_Node000003_Node000004" class="edge">
<title>Node3&#45;&gt;Node4</title>
<g id="a_edge4_Node000003_Node000004"><a xlink:title=" ">
<path fill="none" stroke="#63b8ff" d="M381.23,-9.5C389.6,-9.5 398.23,-9.5 406.85,-9.5"/>
<polygon fill="#63b8ff" stroke="#63b8ff" points="406.95,-13 416.95,-9.5 406.95,-6 406.95,-13"/>
</a>
</g>
</g>
</g>
</svg>
