<?xml version="1.0" encoding="UTF-8" standalone="no"?>
<!DOCTYPE svg PUBLIC "-//W3C//DTD SVG 1.1//EN"
 "http://www.w3.org/Graphics/SVG/1.1/DTD/svg11.dtd">
<!-- Generated by graphviz version 2.43.0 (0)
 -->
<!-- Title: HardwareAcceleration::initialize Pages: 1 -->
<svg width="335pt" height="182pt"
 viewBox="0.00 0.00 335.00 182.00" xmlns="http://www.w3.org/2000/svg" xmlns:xlink="http://www.w3.org/1999/xlink">

<svg id="main" version="1.1" xmlns="http://www.w3.org/2000/svg" xmlns:xlink="http://www.w3.org/1999/xlink" xml:space="preserve" onload="init(evt)">
<style type="text/css"><![CDATA[
.node, .edge {opacity: 0.7;}
.node.selected, .edge.selected {opacity: 1;}
.edge:hover path { stroke: red; }
.edge:hover polygon { stroke: red; fill: red; }
]]></style>
<script type="application/ecmascript" xlink:href="../../svg.min.js"/>
<svg id="graph" class="graph">
<g id="graph0" class="graph" transform="scale(1 1) rotate(0) translate(4 178)">
<title>HardwareAcceleration::initialize</title>
<!-- Node1 -->
<g id="Node000001" class="node">
<title>Node1</title>
<g id="a_Node000001"><a xlink:title="Initialize hardware acceleration detection.">
<polygon fill="#999999" stroke="#666666" points="125,-102 0,-102 0,-72 125,-72 125,-102"/>
<text text-anchor="start" x="8" y="-90" font-family="Helvetica,sans-Serif" font-size="10.00">HardwareAcceleration</text>
<text text-anchor="middle" x="62.5" y="-79" font-family="Helvetica,sans-Serif" font-size="10.00">::initialize</text>
</a>
</g>
</g>
<!-- Node2 -->
<g id="Node000002" class="node">
<title>Node2</title>
<g id="a_Node000002"><a xlink:href="../../de/dd0/classHardwareAcceleration.html#a6cd739eee409b526c7befc6d81886cc6" target="_top" xlink:title="Detect available hardware acceleration methods.">
<polygon fill="white" stroke="#666666" points="323.5,-174 164.5,-174 164.5,-144 323.5,-144 323.5,-174"/>
<text text-anchor="start" x="172.5" y="-162" font-family="Helvetica,sans-Serif" font-size="10.00">HardwareAcceleration</text>
<text text-anchor="middle" x="244" y="-151" font-family="Helvetica,sans-Serif" font-size="10.00">::detectAvailableAcceleration</text>
</a>
</g>
</g>
<!-- Node1&#45;&gt;Node2 -->
<g id="edge1_Node000001_Node000002" class="edge">
<title>Node1&#45;&gt;Node2</title>
<g id="a_edge1_Node000001_Node000002"><a xlink:title=" ">
<path fill="none" stroke="#63b8ff" d="M91.08,-102.17C110.3,-112.35 136.74,-125.56 161,-135 166.1,-136.98 171.43,-138.89 176.82,-140.71"/>
<polygon fill="#63b8ff" stroke="#63b8ff" points="175.96,-144.11 186.55,-143.87 178.12,-137.45 175.96,-144.11"/>
</a>
</g>
</g>
<!-- Node3 -->
<g id="Node000003" class="node">
<title>Node3</title>
<g id="a_Node000003"><a xlink:href="../../de/dd0/classHardwareAcceleration.html#a5bf84a3466dfdd5fa1cbbcf181a23b95" target="_top" xlink:title="Get platform&#45;specific acceleration type name.">
<polygon fill="white" stroke="#666666" points="319.5,-126 168.5,-126 168.5,-96 319.5,-96 319.5,-126"/>
<text text-anchor="start" x="176.5" y="-114" font-family="Helvetica,sans-Serif" font-size="10.00">HardwareAcceleration</text>
<text text-anchor="middle" x="244" y="-103" font-family="Helvetica,sans-Serif" font-size="10.00">::getAccelerationTypeName</text>
</a>
</g>
</g>
<!-- Node1&#45;&gt;Node3 -->
<g id="edge2_Node000001_Node000003" class="edge">
<title>Node1&#45;&gt;Node3</title>
<g id="a_edge2_Node000001_Node000003"><a xlink:title=" ">
<path fill="none" stroke="#63b8ff" d="M125.02,-95.23C135.67,-96.65 146.9,-98.15 158.04,-99.64"/>
<polygon fill="#63b8ff" stroke="#63b8ff" points="157.84,-103.15 168.22,-101 158.77,-96.21 157.84,-103.15"/>
</a>
</g>
</g>
<!-- Node4 -->
<g id="Node000004" class="node">
<title>Node4</title>
<g id="a_Node000004"><a xlink:href="../../de/dd0/classHardwareAcceleration.html#a674048f48d5889721dd91b8db4475863" target="_top" xlink:title="Get the best available hardware acceleration method.">
<polygon fill="white" stroke="#666666" points="327,-78 161,-78 161,-48 327,-48 327,-78"/>
<text text-anchor="start" x="169" y="-66" font-family="Helvetica,sans-Serif" font-size="10.00">HardwareAcceleration</text>
<text text-anchor="middle" x="244" y="-55" font-family="Helvetica,sans-Serif" font-size="10.00">::getBestAvailableAcceleration</text>
</a>
</g>
</g>
<!-- Node1&#45;&gt;Node4 -->
<g id="edge3_Node000001_Node000004" class="edge">
<title>Node1&#45;&gt;Node4</title>
<g id="a_edge3_Node000001_Node000004"><a xlink:title=" ">
<path fill="none" stroke="#63b8ff" d="M125.02,-78.77C133.43,-77.65 142.2,-76.48 151.01,-75.3"/>
<polygon fill="#63b8ff" stroke="#63b8ff" points="151.49,-78.77 160.94,-73.97 150.56,-71.83 151.49,-78.77"/>
</a>
</g>
</g>
<!-- Node5 -->
<g id="Node000005" class="node">
<title>Node5</title>
<g id="a_Node000005"><a xlink:href="../../de/dd0/classHardwareAcceleration.html#a53caaec6d9c3f063b5f2a5d22731a2c7" target="_top" xlink:title="Check if the current platform supports hardware acceleration.">
<polygon fill="white" stroke="#666666" points="306.5,-30 181.5,-30 181.5,0 306.5,0 306.5,-30"/>
<text text-anchor="start" x="189.5" y="-18" font-family="Helvetica,sans-Serif" font-size="10.00">HardwareAcceleration</text>
<text text-anchor="middle" x="244" y="-7" font-family="Helvetica,sans-Serif" font-size="10.00">::isPlatformSupported</text>
</a>
</g>
</g>
<!-- Node1&#45;&gt;Node5 -->
<g id="edge4_Node000001_Node000005" class="edge">
<title>Node1&#45;&gt;Node5</title>
<g id="a_edge4_Node000001_Node000005"><a xlink:title=" ">
<path fill="none" stroke="#63b8ff" d="M91.08,-71.83C110.3,-61.65 136.74,-48.44 161,-39 166.1,-37.02 171.43,-35.11 176.82,-33.29"/>
<polygon fill="#63b8ff" stroke="#63b8ff" points="178.12,-36.55 186.55,-30.13 175.96,-29.89 178.12,-36.55"/>
</a>
</g>
</g>
</g>
</svg>
</svg>

<style type='text/css'>
<![CDATA[
[data-mouse-over-selected='false'] { opacity: 0.7; }
[data-mouse-over-selected='true']  { opacity: 1.0; }
]]>
</style>
<script type="application/ecmascript"><![CDATA[
document.addEventListener('DOMContentLoaded', (event) => {
  highlightEdges();
  highlightAdjacentNodes();
});
]]></script>
</svg>
