<?xml version="1.0" encoding="UTF-8" standalone="no"?>
<!DOCTYPE svg PUBLIC "-//W3C//DTD SVG 1.1//EN"
 "http://www.w3.org/Graphics/SVG/1.1/DTD/svg11.dtd">
<!-- Generated by graphviz version 2.43.0 (0)
 -->
<!-- Title: HardwareAcceleration::getAccelerationTypeName Pages: 1 -->
<!--zoomable 172 -->

<svg id="main" version="1.1" xmlns="http://www.w3.org/2000/svg" xmlns:xlink="http://www.w3.org/1999/xlink" xml:space="preserve" onload="init(evt)">
<style type="text/css"><![CDATA[
.node, .edge {opacity: 0.7;}
.node.selected, .edge.selected {opacity: 1;}
.edge:hover path { stroke: red; }
.edge:hover polygon { stroke: red; fill: red; }
]]></style>

<defs>
  <circle id="rim" cx="0" cy="0" r="7"/>
  <circle id="rim2" cx="0" cy="0" r="3.5"/>
  <g id="zoomPlus">
    <use xlink:href="#rim" fill="#404040"><set attributeName="fill" to="#808080" begin="zoomplus.mouseover" end="zoomplus.mouseout"/></use>
    <path d="M-4,0h8M0,-4v8" fill="none" stroke="white" stroke-width="1.5" pointer-events="none"/>
  </g>
  <g id="zoomMin">
    <use xlink:href="#rim" fill="#404040"><set attributeName="fill" to="#808080" begin="zoomminus.mouseover" end="zoomminus.mouseout"/></use>
    <path d="M-4,0h8" fill="none" stroke="white" stroke-width="1.5" pointer-events="none"/>
  </g>
  <g id="arrowUp" transform="translate(30 24)">
    <use xlink:href="#rim"/>
    <path pointer-events="none" fill="none" stroke="white" stroke-width="1.5" d="M0,-3.0v7 M-2.5,-0.5L0,-3.0L2.5,-0.5"/>
  </g>
  <g id="arrowRight" transform="rotate(90) translate(36 -43)">
    <use xlink:href="#rim"/>
    <path pointer-events="none" fill="none" stroke="white" stroke-width="1.5" d="M0,-3.0v7 M-2.5,-0.5L0,-3.0L2.5,-0.5"/>
  </g>
  <g id="arrowDown" transform="rotate(180) translate(-30 -48)">
    <use xlink:href="#rim"/>
    <path pointer-events="none" fill="none" stroke="white" stroke-width="1.5" d="M0,-3.0v7 M-2.5,-0.5L0,-3.0L2.5,-0.5"/>
  </g>
  <g id="arrowLeft" transform="rotate(270) translate(-36 17)">
    <use xlink:href="#rim"/>
    <path pointer-events="none" fill="none" stroke="white" stroke-width="1.5" d="M0,-3.0v7 M-2.5,-0.5L0,-3.0L2.5,-0.5"/>
  </g>
  <g id="resetDef">
    <use xlink:href="#rim2" fill="#404040"><set attributeName="fill" to="#808080" begin="reset.mouseover" end="reset.mouseout"/></use>
  </g>
</defs>
<script type="application/ecmascript">
var viewWidth = 538;
var viewHeight = 172;
var sectionId = 'dynsection-4';
</script>
<script type="application/ecmascript" xlink:href="../../svg.min.js"/>
<svg id="graph" class="graph">
<g id="viewport">
<title>HardwareAcceleration::getAccelerationTypeName</title>
<!-- Node1 -->
<g id="Node000001" class="node">
<title>Node1</title>
<g id="a_Node000001"><a xlink:title="Get platform&#45;specific acceleration type name.">
<polygon fill="#999999" stroke="#666666" points="530,-99 379,-99 379,-69 530,-69 530,-99"/>
<text text-anchor="start" x="387" y="-87" font-family="Helvetica,sans-Serif" font-size="10.00">HardwareAcceleration</text>
<text text-anchor="middle" x="454.5" y="-76" font-family="Helvetica,sans-Serif" font-size="10.00">::getAccelerationTypeName</text>
</a>
</g>
</g>
<!-- Node2 -->
<g id="Node000002" class="node">
<title>Node2</title>
<g id="a_Node000002"><a xlink:href="../../de/dd0/classHardwareAcceleration.html#ad848b406b7ce8ed8a38d4fdc239f7859" target="_top" xlink:title="Initialize hardware acceleration detection.">
<polygon fill="white" stroke="#666666" points="334,-164 209,-164 209,-134 334,-134 334,-164"/>
<text text-anchor="start" x="217" y="-152" font-family="Helvetica,sans-Serif" font-size="10.00">HardwareAcceleration</text>
<text text-anchor="middle" x="271.5" y="-141" font-family="Helvetica,sans-Serif" font-size="10.00">::initialize</text>
</a>
</g>
</g>
<!-- Node1&#45;&gt;Node2 -->
<g id="edge1_Node000001_Node000002" class="edge">
<title>Node1&#45;&gt;Node2</title>
<g id="a_edge1_Node000001_Node000002"><a xlink:title=" ">
<path fill="none" stroke="#63b8ff" d="M404.3,-102.58C385.2,-109.71 363.12,-117.84 343,-125 334.72,-127.95 325.86,-131.02 317.32,-133.95"/>
<polygon fill="#63b8ff" stroke="#63b8ff" points="405.56,-105.85 413.7,-99.06 403.11,-99.29 405.56,-105.85"/>
</a>
</g>
</g>
<!-- Node3 -->
<g id="Node000003" class="node">
<title>Node3</title>
<g id="a_Node000003"><a xlink:href="../../d6/d6e/classVLCBackend.html#a8a1bd64995f58b3f902d1be6c3645e4c" target="_top" xlink:title="Initialize the component.">
<polygon fill="white" stroke="#666666" points="334,-115.5 209,-115.5 209,-96.5 334,-96.5 334,-115.5"/>
<text text-anchor="middle" x="271.5" y="-103.5" font-family="Helvetica,sans-Serif" font-size="10.00">VLCBackend::initialize</text>
</a>
</g>
</g>
<!-- Node1&#45;&gt;Node3 -->
<g id="edge2_Node000001_Node000003" class="edge">
<title>Node1&#45;&gt;Node3</title>
<g id="a_edge2_Node000001_Node000003"><a xlink:title=" ">
<path fill="none" stroke="#63b8ff" d="M368.64,-94.31C356.97,-95.73 345.18,-97.17 334.05,-98.52"/>
<polygon fill="#63b8ff" stroke="#63b8ff" points="369.33,-97.76 378.84,-93.08 368.49,-90.81 369.33,-97.76"/>
</a>
</g>
</g>
<!-- Node4 -->
<g id="Node000004" class="node">
<title>Node4</title>
<g id="a_Node000004"><a xlink:href="../../de/dd0/classHardwareAcceleration.html#a0a04cb2f4447fc8b703d3073863761f3" target="_top" xlink:title="Set the preferred acceleration method.">
<polygon fill="white" stroke="#666666" points="343,-78 200,-78 200,-48 343,-48 343,-78"/>
<text text-anchor="start" x="208" y="-66" font-family="Helvetica,sans-Serif" font-size="10.00">HardwareAcceleration</text>
<text text-anchor="middle" x="271.5" y="-55" font-family="Helvetica,sans-Serif" font-size="10.00">::setPreferredAcceleration</text>
</a>
</g>
</g>
<!-- Node1&#45;&gt;Node4 -->
<g id="edge3_Node000001_Node000004" class="edge">
<title>Node1&#45;&gt;Node4</title>
<g id="a_edge3_Node000001_Node000004"><a xlink:title=" ">
<path fill="none" stroke="#63b8ff" d="M368.82,-74.18C360.25,-73.18 351.61,-72.18 343.21,-71.2"/>
<polygon fill="#63b8ff" stroke="#63b8ff" points="368.5,-77.66 378.84,-75.34 369.31,-70.71 368.5,-77.66"/>
</a>
</g>
</g>
<!-- Node5 -->
<g id="Node000005" class="node">
<title>Node5</title>
<g id="a_Node000005"><a xlink:href="../../d6/d6e/classVLCBackend.html#ac324fcd2c2413b5753bfcf3064df5157" target="_top" xlink:title="Set preferred hardware acceleration type.">
<polygon fill="white" stroke="#666666" points="343,-30 200,-30 200,0 343,0 343,-30"/>
<text text-anchor="start" x="208" y="-18" font-family="Helvetica,sans-Serif" font-size="10.00">VLCBackend::setPreferred</text>
<text text-anchor="middle" x="271.5" y="-7" font-family="Helvetica,sans-Serif" font-size="10.00">AccelerationType</text>
</a>
</g>
</g>
<!-- Node1&#45;&gt;Node5 -->
<g id="edge4_Node000001_Node000005" class="edge">
<title>Node1&#45;&gt;Node5</title>
<g id="a_edge4_Node000001_Node000005"><a xlink:title=" ">
<path fill="none" stroke="#63b8ff" d="M408.42,-64.95C388.48,-56.7 364.68,-47.1 343,-39 335.01,-36.01 326.45,-32.97 318.15,-30.1"/>
<polygon fill="#63b8ff" stroke="#63b8ff" points="407.3,-68.27 417.88,-68.87 409.99,-61.8 407.3,-68.27"/>
</a>
</g>
</g>
<!-- Node6 -->
<g id="Node000006" class="node">
<title>Node6</title>
<g id="a_Node000006"><a xlink:href="../../d6/d6e/classVLCBackend.html#a66f2d955ba041562dfccaa3cf8163394" target="_top" xlink:title="Update hardware acceleration from user preferences.">
<polygon fill="white" stroke="#666666" points="164,-30 0,-30 0,0 164,0 164,-30"/>
<text text-anchor="start" x="8" y="-18" font-family="Helvetica,sans-Serif" font-size="10.00">VLCBackend::updateHardware</text>
<text text-anchor="middle" x="82" y="-7" font-family="Helvetica,sans-Serif" font-size="10.00">AccelerationFromPreferences</text>
</a>
</g>
</g>
<!-- Node5&#45;&gt;Node6 -->
<g id="edge5_Node000005_Node000006" class="edge">
<title>Node5&#45;&gt;Node6</title>
<g id="a_edge5_Node000005_Node000006"><a xlink:title=" ">
<path fill="none" stroke="#63b8ff" d="M189.69,-15C181.26,-15 172.69,-15 164.26,-15"/>
<polygon fill="#63b8ff" stroke="#63b8ff" points="189.88,-18.5 199.88,-15 189.88,-11.5 189.88,-18.5"/>
</a>
</g>
</g>
</g>
</svg>

<g id="navigator" transform="translate(0 0)" fill="#404254">
  <rect fill="#f2f5e9" fill-opacity="0.5" stroke="#606060" stroke-width=".5" x="0" y="0" width="60" height="60"/>
  <use id="zoomplus" xlink:href="#zoomPlus" x="17" y="9" onmousedown="handleZoom(evt,'in')"/>
  <use id="zoomminus" xlink:href="#zoomMin" x="42" y="9" onmousedown="handleZoom(evt,'out')"/>
  <use id="reset" xlink:href="#resetDef" x="30" y="36" onmousedown="handleReset()"/>
   <use id="arrowup" xlink:href="#arrowUp" x="0" y="0" onmousedown="handlePan(0,-1)"/>
  <use id="arrowright" xlink:href="#arrowRight" x="0" y="0" onmousedown="handlePan(1,0)"/>
  <use id="arrowdown" xlink:href="#arrowDown" x="0" y="0" onmousedown="handlePan(0,1)"/>
  <use id="arrowleft" xlink:href="#arrowLeft" x="0" y="0" onmousedown="handlePan(-1,0)"/>
</g>
<svg viewBox="0 0 15 15" width="100%" height="30px" preserveAspectRatio="xMaxYMin meet">
 <g id="arrow_out" transform="scale(0.3 0.3)">
  <a xlink:href="classHardwareAcceleration_a5bf84a3466dfdd5fa1cbbcf181a23b95_icgraph_org.svg" target="_base">
   <rect id="button" ry="5" rx="5" y="6" x="6" height="38" width="38"
        fill="#f2f5e9" fill-opacity="0.5" stroke="#606060" stroke-width="1.0"/>
   <path id="arrow"
     d="M 11.500037,31.436501 C 11.940474,20.09759 22.043105,11.32322 32.158766,21.979434 L 37.068811,17.246167 C 37.068811,17.246167 37.088388,32 37.088388,32 L 22.160133,31.978069 C 22.160133,31.978069 26.997745,27.140456 26.997745,27.140456 C 18.528582,18.264221 13.291696,25.230495 11.500037,31.436501 z"
     style="fill:#404040;"/>
  </a>
 </g>
</svg>

<style type='text/css'>
<![CDATA[
[data-mouse-over-selected='false'] { opacity: 0.7; }
[data-mouse-over-selected='true']  { opacity: 1.0; }
]]>
</style>
<script type="application/ecmascript"><![CDATA[
document.addEventListener('DOMContentLoaded', (event) => {
  highlightEdges();
  highlightAdjacentNodes();
});
]]></script>
</svg>
