<?xml version="1.0" encoding="UTF-8" standalone="no"?>
<!DOCTYPE svg PUBLIC "-//W3C//DTD SVG 1.1//EN"
 "http://www.w3.org/Graphics/SVG/1.1/DTD/svg11.dtd">
<!-- Generated by graphviz version 2.43.0 (0)
 -->
<!-- Title: HardwareAcceleration::getBestAvailableAcceleration Pages: 1 -->
<svg width="520pt" height="86pt"
 viewBox="0.00 0.00 520.00 86.00" xmlns="http://www.w3.org/2000/svg" xmlns:xlink="http://www.w3.org/1999/xlink">
<g id="graph0" class="graph" transform="scale(1 1) rotate(0) translate(4 82)">
<title>HardwareAcceleration::getBestAvailableAcceleration</title>
<!-- Node1 -->
<g id="Node000001" class="node">
<title>Node1</title>
<g id="a_Node000001"><a xlink:title="Get the best available hardware acceleration method.">
<polygon fill="#999999" stroke="#666666" points="512,-54 346,-54 346,-24 512,-24 512,-54"/>
<text text-anchor="start" x="354" y="-42" font-family="Helvetica,sans-Serif" font-size="10.00">HardwareAcceleration</text>
<text text-anchor="middle" x="429" y="-31" font-family="Helvetica,sans-Serif" font-size="10.00">::getBestAvailableAcceleration</text>
</a>
</g>
</g>
<!-- Node2 -->
<g id="Node000002" class="node">
<title>Node2</title>
<g id="a_Node000002"><a xlink:href="../../de/dd0/classHardwareAcceleration.html#adf1ce4109c4c725fbb382b25c5a5e962" target="_top" xlink:title="Get libVLC arguments for the current acceleration configuration.">
<polygon fill="white" stroke="#666666" points="310,-78 185,-78 185,-48 310,-48 310,-78"/>
<text text-anchor="start" x="193" y="-66" font-family="Helvetica,sans-Serif" font-size="10.00">HardwareAcceleration</text>
<text text-anchor="middle" x="247.5" y="-55" font-family="Helvetica,sans-Serif" font-size="10.00">::getVLCArguments</text>
</a>
</g>
</g>
<!-- Node1&#45;&gt;Node2 -->
<g id="edge1_Node000001_Node000002" class="edge">
<title>Node1&#45;&gt;Node2</title>
<g id="a_edge1_Node000001_Node000002"><a xlink:title=" ">
<path fill="none" stroke="#63b8ff" d="M335.72,-51.34C327.07,-52.5 318.45,-53.65 310.18,-54.75"/>
<polygon fill="#63b8ff" stroke="#63b8ff" points="336.42,-54.78 345.87,-49.98 335.49,-47.84 336.42,-54.78"/>
</a>
</g>
</g>
<!-- Node4 -->
<g id="Node000004" class="node">
<title>Node4</title>
<g id="a_Node000004"><a xlink:href="../../de/dd0/classHardwareAcceleration.html#ad848b406b7ce8ed8a38d4fdc239f7859" target="_top" xlink:title="Initialize hardware acceleration detection.">
<polygon fill="white" stroke="#666666" points="310,-30 185,-30 185,0 310,0 310,-30"/>
<text text-anchor="start" x="193" y="-18" font-family="Helvetica,sans-Serif" font-size="10.00">HardwareAcceleration</text>
<text text-anchor="middle" x="247.5" y="-7" font-family="Helvetica,sans-Serif" font-size="10.00">::initialize</text>
</a>
</g>
</g>
<!-- Node1&#45;&gt;Node4 -->
<g id="edge3_Node000001_Node000004" class="edge">
<title>Node1&#45;&gt;Node4</title>
<g id="a_edge3_Node000001_Node000004"><a xlink:title=" ">
<path fill="none" stroke="#63b8ff" d="M335.72,-26.66C327.07,-25.5 318.45,-24.35 310.18,-23.25"/>
<polygon fill="#63b8ff" stroke="#63b8ff" points="335.49,-30.16 345.87,-28.02 336.42,-23.22 335.49,-30.16"/>
</a>
</g>
</g>
<!-- Node3 -->
<g id="Node000003" class="node">
<title>Node3</title>
<g id="a_Node000003"><a xlink:href="../../de/dd0/classHardwareAcceleration.html#aa8dc865943b1146e9a077adc84e1387e" target="_top" xlink:title="Test if hardware acceleration is working with a sample video.">
<polygon fill="white" stroke="#666666" points="149,-78 0,-78 0,-48 149,-48 149,-78"/>
<text text-anchor="start" x="8" y="-66" font-family="Helvetica,sans-Serif" font-size="10.00">HardwareAcceleration</text>
<text text-anchor="middle" x="74.5" y="-55" font-family="Helvetica,sans-Serif" font-size="10.00">::testHardwareAcceleration</text>
</a>
</g>
</g>
<!-- Node2&#45;&gt;Node3 -->
<g id="edge2_Node000002_Node000003" class="edge">
<title>Node2&#45;&gt;Node3</title>
<g id="a_edge2_Node000002_Node000003"><a xlink:title=" ">
<path fill="none" stroke="#63b8ff" d="M174.59,-63C166.16,-63 157.54,-63 149.09,-63"/>
<polygon fill="#63b8ff" stroke="#63b8ff" points="174.77,-66.5 184.77,-63 174.77,-59.5 174.77,-66.5"/>
</a>
</g>
</g>
</g>
</svg>
