<?xml version="1.0" encoding="UTF-8" standalone="no"?>
<!DOCTYPE svg PUBLIC "-//W3C//DTD SVG 1.1//EN"
 "http://www.w3.org/Graphics/SVG/1.1/DTD/svg11.dtd">
<!-- Generated by graphviz version 2.43.0 (0)
 -->
<!-- Title: src/ui/MediaInfoWidget.cpp Pages: 1 -->
<!--zoomable 247 -->

<svg id="main" version="1.1" xmlns="http://www.w3.org/2000/svg" xmlns:xlink="http://www.w3.org/1999/xlink" xml:space="preserve" onload="init(evt)">
<style type="text/css"><![CDATA[
.node, .edge {opacity: 0.7;}
.node.selected, .edge.selected {opacity: 1;}
.edge:hover path { stroke: red; }
.edge:hover polygon { stroke: red; fill: red; }
]]></style>

<defs>
  <circle id="rim" cx="0" cy="0" r="7"/>
  <circle id="rim2" cx="0" cy="0" r="3.5"/>
  <g id="zoomPlus">
    <use xlink:href="#rim" fill="#404040"><set attributeName="fill" to="#808080" begin="zoomplus.mouseover" end="zoomplus.mouseout"/></use>
    <path d="M-4,0h8M0,-4v8" fill="none" stroke="white" stroke-width="1.5" pointer-events="none"/>
  </g>
  <g id="zoomMin">
    <use xlink:href="#rim" fill="#404040"><set attributeName="fill" to="#808080" begin="zoomminus.mouseover" end="zoomminus.mouseout"/></use>
    <path d="M-4,0h8" fill="none" stroke="white" stroke-width="1.5" pointer-events="none"/>
  </g>
  <g id="arrowUp" transform="translate(30 24)">
    <use xlink:href="#rim"/>
    <path pointer-events="none" fill="none" stroke="white" stroke-width="1.5" d="M0,-3.0v7 M-2.5,-0.5L0,-3.0L2.5,-0.5"/>
  </g>
  <g id="arrowRight" transform="rotate(90) translate(36 -43)">
    <use xlink:href="#rim"/>
    <path pointer-events="none" fill="none" stroke="white" stroke-width="1.5" d="M0,-3.0v7 M-2.5,-0.5L0,-3.0L2.5,-0.5"/>
  </g>
  <g id="arrowDown" transform="rotate(180) translate(-30 -48)">
    <use xlink:href="#rim"/>
    <path pointer-events="none" fill="none" stroke="white" stroke-width="1.5" d="M0,-3.0v7 M-2.5,-0.5L0,-3.0L2.5,-0.5"/>
  </g>
  <g id="arrowLeft" transform="rotate(270) translate(-36 17)">
    <use xlink:href="#rim"/>
    <path pointer-events="none" fill="none" stroke="white" stroke-width="1.5" d="M0,-3.0v7 M-2.5,-0.5L0,-3.0L2.5,-0.5"/>
  </g>
  <g id="resetDef">
    <use xlink:href="#rim2" fill="#404040"><set attributeName="fill" to="#808080" begin="reset.mouseover" end="reset.mouseout"/></use>
  </g>
</defs>
<script type="application/ecmascript">
var viewWidth = 1504;
var viewHeight = 247;
var sectionId = 'dynsection-0';
</script>
<script type="application/ecmascript" xlink:href="../../svg.min.js"/>
<svg id="graph" class="graph">
<g id="viewport">
<title>src/ui/MediaInfoWidget.cpp</title>
<!-- Node1 -->
<g id="Node000001" class="node">
<title>Node1</title>
<g id="a_Node000001"><a xlink:title=" ">
<polygon fill="#999999" stroke="#666666" points="1170.5,-239 1021.5,-239 1021.5,-220 1170.5,-220 1170.5,-239"/>
<text text-anchor="middle" x="1096" y="-227" font-family="Helvetica,sans-Serif" font-size="10.00">src/ui/MediaInfoWidget.cpp</text>
</a>
</g>
</g>
<!-- Node2 -->
<g id="Node000002" class="node">
<title>Node2</title>
<g id="a_Node000002"><a xlink:href="../../d8/d12/MediaInfoWidget_8h.html" target="_top" xlink:title=" ">
<polygon fill="white" stroke="#666666" points="416.5,-184 295.5,-184 295.5,-165 416.5,-165 416.5,-184"/>
<text text-anchor="middle" x="356" y="-172" font-family="Helvetica,sans-Serif" font-size="10.00">ui/MediaInfoWidget.h</text>
</a>
</g>
</g>
<!-- Node1&#45;&gt;Node2 -->
<g id="edge1_Node000001_Node000002" class="edge">
<title>Node1&#45;&gt;Node2</title>
<g id="a_edge1_Node000001_Node000002"><a xlink:title=" ">
<path fill="none" stroke="#63b8ff" d="M1021.32,-223.15C878.11,-212.89 566.71,-190.59 426.69,-180.56"/>
<polygon fill="#63b8ff" stroke="#63b8ff" points="426.73,-177.06 416.51,-179.83 426.23,-184.04 426.73,-177.06"/>
</a>
</g>
</g>
<!-- Node12 -->
<g id="Node000012" class="node">
<title>Node12</title>
<g id="a_Node000012"><a xlink:href="../../d7/d62/FileUrlSupport_8h.html" target="_top" xlink:title=" ">
<polygon fill="white" stroke="#666666" points="830,-129 702,-129 702,-110 830,-110 830,-129"/>
<text text-anchor="middle" x="766" y="-117" font-family="Helvetica,sans-Serif" font-size="10.00">media/FileUrlSupport.h</text>
</a>
</g>
</g>
<!-- Node1&#45;&gt;Node12 -->
<g id="edge23_Node000001_Node000012" class="edge">
<title>Node1&#45;&gt;Node12</title>
<g id="a_edge23_Node000001_Node000012"><a xlink:title=" ">
<path fill="none" stroke="#63b8ff" d="M1021.39,-225.21C969.62,-220.6 900.16,-209.69 844,-184 819.08,-172.6 795.4,-151.31 780.81,-136.55"/>
<polygon fill="#63b8ff" stroke="#63b8ff" points="783.13,-133.91 773.68,-129.12 778.08,-138.76 783.13,-133.91"/>
</a>
</g>
</g>
<!-- Node17 -->
<g id="Node000017" class="node">
<title>Node17</title>
<g id="a_Node000017"><a xlink:title=" ">
<polygon fill="#e0e0e0" stroke="#999999" points="989,-74 951,-74 951,-55 989,-55 989,-74"/>
<text text-anchor="middle" x="970" y="-62" font-family="Helvetica,sans-Serif" font-size="10.00">QUrl</text>
</a>
</g>
</g>
<!-- Node1&#45;&gt;Node17 -->
<g id="edge31_Node000001_Node000017" class="edge">
<title>Node1&#45;&gt;Node17</title>
<g id="a_edge31_Node000001_Node000017"><a xlink:title=" ">
<path fill="none" stroke="#63b8ff" d="M1021.42,-223.19C965.64,-217.48 896.02,-206.07 878,-184 847.55,-146.71 909.03,-101.49 945.57,-79.24"/>
<polygon fill="#63b8ff" stroke="#63b8ff" points="947.43,-82.2 954.25,-74.09 943.86,-76.18 947.43,-82.2"/>
</a>
</g>
</g>
<!-- Node21 -->
<g id="Node000021" class="node">
<title>Node21</title>
<g id="a_Node000021"><a xlink:title=" ">
<polygon fill="#e0e0e0" stroke="#999999" points="993.5,-184 886.5,-184 886.5,-165 993.5,-165 993.5,-184"/>
<text text-anchor="middle" x="940" y="-172" font-family="Helvetica,sans-Serif" font-size="10.00">QLoggingCategory</text>
</a>
</g>
</g>
<!-- Node1&#45;&gt;Node21 -->
<g id="edge24_Node000001_Node000021" class="edge">
<title>Node1&#45;&gt;Node21</title>
<g id="a_edge24_Node000001_Node000021"><a xlink:title=" ">
<path fill="none" stroke="#63b8ff" d="M1070.94,-219.98C1044.97,-211.16 1004.19,-197.31 975.04,-187.41"/>
<polygon fill="#63b8ff" stroke="#63b8ff" points="975.85,-183.99 965.26,-184.08 973.6,-190.61 975.85,-183.99"/>
</a>
</g>
</g>
<!-- Node22 -->
<g id="Node000022" class="node">
<title>Node22</title>
<g id="a_Node000022"><a xlink:title=" ">
<polygon fill="#e0e0e0" stroke="#999999" points="1092,-184 1012,-184 1012,-165 1092,-165 1092,-184"/>
<text text-anchor="middle" x="1052" y="-172" font-family="Helvetica,sans-Serif" font-size="10.00">QPushButton</text>
</a>
</g>
</g>
<!-- Node1&#45;&gt;Node22 -->
<g id="edge25_Node000001_Node000022" class="edge">
<title>Node1&#45;&gt;Node22</title>
<g id="a_edge25_Node000001_Node000022"><a xlink:title=" ">
<path fill="none" stroke="#63b8ff" d="M1088.73,-219.75C1082.46,-212.18 1073.21,-201.05 1065.57,-191.84"/>
<polygon fill="#63b8ff" stroke="#63b8ff" points="1068.21,-189.55 1059.13,-184.09 1062.83,-194.02 1068.21,-189.55"/>
</a>
</g>
</g>
<!-- Node23 -->
<g id="Node000023" class="node">
<title>Node23</title>
<g id="a_Node000023"><a xlink:title=" ">
<polygon fill="#e0e0e0" stroke="#999999" points="1169.5,-184 1110.5,-184 1110.5,-165 1169.5,-165 1169.5,-184"/>
<text text-anchor="middle" x="1140" y="-172" font-family="Helvetica,sans-Serif" font-size="10.00">QSplitter</text>
</a>
</g>
</g>
<!-- Node1&#45;&gt;Node23 -->
<g id="edge26_Node000001_Node000023" class="edge">
<title>Node1&#45;&gt;Node23</title>
<g id="a_edge26_Node000001_Node000023"><a xlink:title=" ">
<path fill="none" stroke="#63b8ff" d="M1103.27,-219.75C1109.54,-212.18 1118.79,-201.05 1126.43,-191.84"/>
<polygon fill="#63b8ff" stroke="#63b8ff" points="1129.17,-194.02 1132.87,-184.09 1123.79,-189.55 1129.17,-194.02"/>
</a>
</g>
</g>
<!-- Node24 -->
<g id="Node000024" class="node">
<title>Node24</title>
<g id="a_Node000024"><a xlink:title=" ">
<polygon fill="#e0e0e0" stroke="#999999" points="1266.5,-184 1187.5,-184 1187.5,-165 1266.5,-165 1266.5,-184"/>
<text text-anchor="middle" x="1227" y="-172" font-family="Helvetica,sans-Serif" font-size="10.00">QApplication</text>
</a>
</g>
</g>
<!-- Node1&#45;&gt;Node24 -->
<g id="edge27_Node000001_Node000024" class="edge">
<title>Node1&#45;&gt;Node24</title>
<g id="a_edge27_Node000001_Node000024"><a xlink:title=" ">
<path fill="none" stroke="#63b8ff" d="M1117.05,-219.98C1138.41,-211.34 1171.7,-197.87 1196.06,-188.02"/>
<polygon fill="#63b8ff" stroke="#63b8ff" points="1197.61,-191.17 1205.57,-184.17 1194.99,-184.68 1197.61,-191.17"/>
</a>
</g>
</g>
<!-- Node25 -->
<g id="Node000025" class="node">
<title>Node25</title>
<g id="a_Node000025"><a xlink:title=" ">
<polygon fill="#e0e0e0" stroke="#999999" points="1333.5,-184 1284.5,-184 1284.5,-165 1333.5,-165 1333.5,-184"/>
<text text-anchor="middle" x="1309" y="-172" font-family="Helvetica,sans-Serif" font-size="10.00">QStyle</text>
</a>
</g>
</g>
<!-- Node1&#45;&gt;Node25 -->
<g id="edge28_Node000001_Node000025" class="edge">
<title>Node1&#45;&gt;Node25</title>
<g id="a_edge28_Node000001_Node000025"><a xlink:title=" ">
<path fill="none" stroke="#63b8ff" d="M1130.87,-219.99C1165.09,-211.61 1219.04,-198.33 1274.5,-184.36"/>
<polygon fill="#63b8ff" stroke="#63b8ff" points="1275.66,-187.68 1284.5,-181.84 1273.95,-180.89 1275.66,-187.68"/>
</a>
</g>
</g>
<!-- Node26 -->
<g id="Node000026" class="node">
<title>Node26</title>
<g id="a_Node000026"><a xlink:title=" ">
<polygon fill="#e0e0e0" stroke="#999999" points="1396.5,-184 1351.5,-184 1351.5,-165 1396.5,-165 1396.5,-184"/>
<text text-anchor="middle" x="1374" y="-172" font-family="Helvetica,sans-Serif" font-size="10.00">QFont</text>
</a>
</g>
</g>
<!-- Node1&#45;&gt;Node26 -->
<g id="edge29_Node000001_Node000026" class="edge">
<title>Node1&#45;&gt;Node26</title>
<g id="a_edge29_Node000001_Node000026"><a xlink:title=" ">
<path fill="none" stroke="#63b8ff" d="M1151.71,-219.92C1199.7,-212.2 1271.01,-199.95 1341.44,-184.2"/>
<polygon fill="#63b8ff" stroke="#63b8ff" points="1342.39,-187.57 1351.37,-181.96 1340.85,-180.75 1342.39,-187.57"/>
</a>
</g>
</g>
<!-- Node27 -->
<g id="Node000027" class="node">
<title>Node27</title>
<g id="a_Node000027"><a xlink:title=" ">
<polygon fill="#e0e0e0" stroke="#999999" points="1495.5,-184 1414.5,-184 1414.5,-165 1495.5,-165 1495.5,-184"/>
<text text-anchor="middle" x="1455" y="-172" font-family="Helvetica,sans-Serif" font-size="10.00">QFontMetrics</text>
</a>
</g>
</g>
<!-- Node1&#45;&gt;Node27 -->
<g id="edge30_Node000001_Node000027" class="edge">
<title>Node1&#45;&gt;Node27</title>
<g id="a_edge30_Node000001_Node000027"><a xlink:title=" ">
<path fill="none" stroke="#63b8ff" d="M1159.31,-219.96C1219.82,-211.68 1313.85,-198.48 1404.48,-184.21"/>
<polygon fill="#63b8ff" stroke="#63b8ff" points="1405.04,-187.66 1414.37,-182.64 1403.95,-180.75 1405.04,-187.66"/>
</a>
</g>
</g>
<!-- Node3 -->
<g id="Node000003" class="node">
<title>Node3</title>
<g id="a_Node000003"><a xlink:title=" ">
<polygon fill="#e0e0e0" stroke="#999999" points="227.5,-129 168.5,-129 168.5,-110 227.5,-110 227.5,-129"/>
<text text-anchor="middle" x="198" y="-117" font-family="Helvetica,sans-Serif" font-size="10.00">QWidget</text>
</a>
</g>
</g>
<!-- Node2&#45;&gt;Node3 -->
<g id="edge2_Node000002_Node000003" class="edge">
<title>Node2&#45;&gt;Node3</title>
<g id="a_edge2_Node000002_Node000003"><a xlink:title=" ">
<path fill="none" stroke="#63b8ff" d="M330.61,-164.98C304.2,-156.13 262.65,-142.19 233.11,-132.28"/>
<polygon fill="#63b8ff" stroke="#63b8ff" points="234.18,-128.94 223.58,-129.08 231.95,-135.58 234.18,-128.94"/>
</a>
</g>
</g>
<!-- Node4 -->
<g id="Node000004" class="node">
<title>Node4</title>
<g id="a_Node000004"><a xlink:title=" ">
<polygon fill="#e0e0e0" stroke="#999999" points="296,-129 246,-129 246,-110 296,-110 296,-129"/>
<text text-anchor="middle" x="271" y="-117" font-family="Helvetica,sans-Serif" font-size="10.00">QLabel</text>
</a>
</g>
</g>
<!-- Node2&#45;&gt;Node4 -->
<g id="edge3_Node000002_Node000004" class="edge">
<title>Node2&#45;&gt;Node4</title>
<g id="a_edge3_Node000002_Node000004"><a xlink:title=" ">
<path fill="none" stroke="#63b8ff" d="M342.34,-164.98C329.16,-156.77 308.97,-144.18 293.43,-134.49"/>
<polygon fill="#63b8ff" stroke="#63b8ff" points="295.24,-131.49 284.91,-129.17 291.54,-137.43 295.24,-131.49"/>
</a>
</g>
</g>
<!-- Node5 -->
<g id="Node000005" class="node">
<title>Node5</title>
<g id="a_Node000005"><a xlink:title=" ">
<polygon fill="#e0e0e0" stroke="#999999" points="397.5,-129 314.5,-129 314.5,-110 397.5,-110 397.5,-129"/>
<text text-anchor="middle" x="356" y="-117" font-family="Helvetica,sans-Serif" font-size="10.00">QVBoxLayout</text>
</a>
</g>
</g>
<!-- Node2&#45;&gt;Node5 -->
<g id="edge4_Node000002_Node000005" class="edge">
<title>Node2&#45;&gt;Node5</title>
<g id="a_edge4_Node000002_Node000005"><a xlink:title=" ">
<path fill="none" stroke="#63b8ff" d="M356,-164.75C356,-157.8 356,-147.85 356,-139.13"/>
<polygon fill="#63b8ff" stroke="#63b8ff" points="359.5,-139.09 356,-129.09 352.5,-139.09 359.5,-139.09"/>
</a>
</g>
</g>
<!-- Node6 -->
<g id="Node000006" class="node">
<title>Node6</title>
<g id="a_Node000006"><a xlink:title=" ">
<polygon fill="#e0e0e0" stroke="#999999" points="498.5,-129 415.5,-129 415.5,-110 498.5,-110 498.5,-129"/>
<text text-anchor="middle" x="457" y="-117" font-family="Helvetica,sans-Serif" font-size="10.00">QHBoxLayout</text>
</a>
</g>
</g>
<!-- Node2&#45;&gt;Node6 -->
<g id="edge5_Node000002_Node000006" class="edge">
<title>Node2&#45;&gt;Node6</title>
<g id="a_edge5_Node000002_Node000006"><a xlink:title=" ">
<path fill="none" stroke="#63b8ff" d="M372.23,-164.98C388.18,-156.61 412.78,-143.7 431.38,-133.95"/>
<polygon fill="#63b8ff" stroke="#63b8ff" points="433.25,-136.92 440.48,-129.17 430,-130.72 433.25,-136.92"/>
</a>
</g>
</g>
<!-- Node7 -->
<g id="Node000007" class="node">
<title>Node7</title>
<g id="a_Node000007"><a xlink:title=" ">
<polygon fill="#e0e0e0" stroke="#999999" points="593.5,-129 516.5,-129 516.5,-110 593.5,-110 593.5,-129"/>
<text text-anchor="middle" x="555" y="-117" font-family="Helvetica,sans-Serif" font-size="10.00">QGridLayout</text>
</a>
</g>
</g>
<!-- Node2&#45;&gt;Node7 -->
<g id="edge6_Node000002_Node000007" class="edge">
<title>Node2&#45;&gt;Node7</title>
<g id="a_edge6_Node000002_Node000007"><a xlink:title=" ">
<path fill="none" stroke="#63b8ff" d="M387.97,-164.98C421.82,-155.97 475.4,-141.7 512.71,-131.76"/>
<polygon fill="#63b8ff" stroke="#63b8ff" points="514.01,-135.04 522.78,-129.08 512.21,-128.27 514.01,-135.04"/>
</a>
</g>
</g>
<!-- Node8 -->
<g id="Node000008" class="node">
<title>Node8</title>
<g id="a_Node000008"><a xlink:title=" ">
<polygon fill="#e0e0e0" stroke="#999999" points="684,-129 612,-129 612,-110 684,-110 684,-129"/>
<text text-anchor="middle" x="648" y="-117" font-family="Helvetica,sans-Serif" font-size="10.00">QGroupBox</text>
</a>
</g>
</g>
<!-- Node2&#45;&gt;Node8 -->
<g id="edge7_Node000002_Node000008" class="edge">
<title>Node2&#45;&gt;Node8</title>
<g id="a_edge7_Node000002_Node000008"><a xlink:title=" ">
<path fill="none" stroke="#63b8ff" d="M403.63,-164.94C453.19,-156.02 533.05,-141.61 602,-129 602.1,-128.98 602.2,-128.96 602.3,-128.95"/>
<polygon fill="#63b8ff" stroke="#63b8ff" points="602.64,-132.44 611.84,-127.19 601.38,-125.56 602.64,-132.44"/>
</a>
</g>
</g>
<!-- Node9 -->
<g id="Node000009" class="node">
<title>Node9</title>
<g id="a_Node000009"><a xlink:title=" ">
<polygon fill="#e0e0e0" stroke="#999999" points="74,-129 0,-129 0,-110 74,-110 74,-129"/>
<text text-anchor="middle" x="37" y="-117" font-family="Helvetica,sans-Serif" font-size="10.00">QScrollArea</text>
</a>
</g>
</g>
<!-- Node2&#45;&gt;Node9 -->
<g id="edge8_Node000002_Node000009" class="edge">
<title>Node2&#45;&gt;Node9</title>
<g id="a_edge8_Node000002_Node000009"><a xlink:title=" ">
<path fill="none" stroke="#63b8ff" d="M304.62,-164.98C250.67,-156.03 163.37,-141.54 88,-129 86.73,-128.79 85.44,-128.57 84.14,-128.36"/>
<polygon fill="#63b8ff" stroke="#63b8ff" points="84.49,-124.87 74.05,-126.68 83.34,-131.77 84.49,-124.87"/>
</a>
</g>
</g>
<!-- Node10 -->
<g id="Node000010" class="node">
<title>Node10</title>
<g id="a_Node000010"><a xlink:title=" ">
<polygon fill="#e0e0e0" stroke="#999999" points="175.5,-74 122.5,-74 122.5,-55 175.5,-55 175.5,-74"/>
<text text-anchor="middle" x="149" y="-62" font-family="Helvetica,sans-Serif" font-size="10.00">QTimer</text>
</a>
</g>
</g>
<!-- Node2&#45;&gt;Node10 -->
<g id="edge9_Node000002_Node000010" class="edge">
<title>Node2&#45;&gt;Node10</title>
<g id="a_edge9_Node000002_Node000010"><a xlink:title=" ">
<path fill="none" stroke="#63b8ff" d="M295.47,-168.78C241.12,-163.13 167.16,-151.48 149,-129 139.05,-116.68 140.26,-98.2 143.25,-84.35"/>
<polygon fill="#63b8ff" stroke="#63b8ff" points="146.7,-85 145.84,-74.44 139.92,-83.23 146.7,-85"/>
</a>
</g>
</g>
<!-- Node11 -->
<g id="Node000011" class="node">
<title>Node11</title>
<g id="a_Node000011"><a xlink:title=" ">
<polygon fill="#e0e0e0" stroke="#999999" points="344,-74 286,-74 286,-55 344,-55 344,-74"/>
<text text-anchor="middle" x="315" y="-62" font-family="Helvetica,sans-Serif" font-size="10.00">memory</text>
</a>
</g>
</g>
<!-- Node2&#45;&gt;Node11 -->
<g id="edge10_Node000002_Node000011" class="edge">
<title>Node2&#45;&gt;Node11</title>
<g id="a_edge10_Node000002_Node000011"><a xlink:title=" ">
<path fill="none" stroke="#63b8ff" d="M295.13,-167.98C243.72,-161.91 175.86,-150.09 159,-129 125.66,-87.28 219.28,-72.77 275.69,-67.88"/>
<polygon fill="#63b8ff" stroke="#63b8ff" points="276.06,-71.36 285.75,-67.07 275.5,-64.38 276.06,-71.36"/>
</a>
</g>
</g>
<!-- Node2&#45;&gt;Node12 -->
<g id="edge11_Node000002_Node000012" class="edge">
<title>Node2&#45;&gt;Node12</title>
<g id="a_edge11_Node000002_Node000012"><a xlink:title=" ">
<path fill="none" stroke="#63b8ff" d="M416.94,-165.62C490.06,-156.17 612.62,-140.33 691.35,-130.15"/>
<polygon fill="#63b8ff" stroke="#63b8ff" points="692.21,-133.57 701.68,-128.81 691.32,-126.63 692.21,-133.57"/>
</a>
</g>
</g>
<!-- Node12&#45;&gt;Node10 -->
<g id="edge20_Node000012_Node000010" class="edge">
<title>Node12&#45;&gt;Node10</title>
<g id="a_edge20_Node000012_Node000010"><a xlink:title=" ">
<path fill="none" stroke="#63b8ff" d="M701.92,-110.91C698.91,-110.6 695.92,-110.29 693,-110 502.26,-91.1 273.31,-74.28 185.62,-68.06"/>
<polygon fill="#63b8ff" stroke="#63b8ff" points="185.86,-64.57 175.63,-67.35 185.36,-71.55 185.86,-64.57"/>
</a>
</g>
</g>
<!-- Node12&#45;&gt;Node11 -->
<g id="edge22_Node000012_Node000011" class="edge">
<title>Node12&#45;&gt;Node11</title>
<g id="a_edge22_Node000012_Node000011"><a xlink:title=" ">
<path fill="none" stroke="#63b8ff" d="M701.86,-110.96C607.1,-99.83 432.49,-79.31 354.47,-70.14"/>
<polygon fill="#63b8ff" stroke="#63b8ff" points="354.46,-66.61 344.12,-68.92 353.64,-73.57 354.46,-66.61"/>
</a>
</g>
</g>
<!-- Node13 -->
<g id="Node000013" class="node">
<title>Node13</title>
<g id="a_Node000013"><a xlink:href="../../df/d56/IComponent_8h.html" target="_top" xlink:title=" ">
<polygon fill="white" stroke="#666666" points="932.5,-74 847.5,-74 847.5,-55 932.5,-55 932.5,-74"/>
<text text-anchor="middle" x="890" y="-62" font-family="Helvetica,sans-Serif" font-size="10.00">IComponent.h</text>
</a>
</g>
</g>
<!-- Node12&#45;&gt;Node13 -->
<g id="edge12_Node000012_Node000013" class="edge">
<title>Node12&#45;&gt;Node13</title>
<g id="a_edge12_Node000012_Node000013"><a xlink:title=" ">
<path fill="none" stroke="#63b8ff" d="M785.92,-109.98C806.05,-101.38 837.38,-87.99 860.41,-78.15"/>
<polygon fill="#63b8ff" stroke="#63b8ff" points="861.9,-81.32 869.71,-74.17 859.14,-74.88 861.9,-81.32"/>
</a>
</g>
</g>
<!-- Node14 -->
<g id="Node000014" class="node">
<title>Node14</title>
<g id="a_Node000014"><a xlink:title=" ">
<polygon fill="#e0e0e0" stroke="#999999" points="880.5,-19 827.5,-19 827.5,0 880.5,0 880.5,-19"/>
<text text-anchor="middle" x="854" y="-7" font-family="Helvetica,sans-Serif" font-size="10.00">QString</text>
</a>
</g>
</g>
<!-- Node12&#45;&gt;Node14 -->
<g id="edge15_Node000012_Node000014" class="edge">
<title>Node12&#45;&gt;Node14</title>
<g id="a_edge15_Node000012_Node000014"><a xlink:title=" ">
<path fill="none" stroke="#63b8ff" d="M773.2,-109.66C787.91,-91.61 821.59,-50.28 840.49,-27.08"/>
<polygon fill="#63b8ff" stroke="#63b8ff" points="843.34,-29.12 846.95,-19.16 837.91,-24.7 843.34,-29.12"/>
</a>
</g>
</g>
<!-- Node15 -->
<g id="Node000015" class="node">
<title>Node15</title>
<g id="a_Node000015"><a xlink:title=" ">
<polygon fill="#e0e0e0" stroke="#999999" points="464,-74 408,-74 408,-55 464,-55 464,-74"/>
<text text-anchor="middle" x="436" y="-62" font-family="Helvetica,sans-Serif" font-size="10.00">QObject</text>
</a>
</g>
</g>
<!-- Node12&#45;&gt;Node15 -->
<g id="edge14_Node000012_Node000015" class="edge">
<title>Node12&#45;&gt;Node15</title>
<g id="a_edge14_Node000012_Node000015"><a xlink:title=" ">
<path fill="none" stroke="#63b8ff" d="M701.75,-110.16C644.49,-102.4 558.22,-89.92 474.2,-74.11"/>
<polygon fill="#63b8ff" stroke="#63b8ff" points="474.71,-70.64 464.24,-72.22 473.41,-77.52 474.71,-70.64"/>
</a>
</g>
</g>
<!-- Node16 -->
<g id="Node000016" class="node">
<title>Node16</title>
<g id="a_Node000016"><a xlink:title=" ">
<polygon fill="#e0e0e0" stroke="#999999" points="552,-74 482,-74 482,-55 552,-55 552,-74"/>
<text text-anchor="middle" x="517" y="-62" font-family="Helvetica,sans-Serif" font-size="10.00">QStringList</text>
</a>
</g>
</g>
<!-- Node12&#45;&gt;Node16 -->
<g id="edge16_Node000012_Node000016" class="edge">
<title>Node12&#45;&gt;Node16</title>
<g id="a_edge16_Node000012_Node000016"><a xlink:title=" ">
<path fill="none" stroke="#63b8ff" d="M725.99,-109.98C681.17,-100.44 608.67,-85.01 561.93,-75.06"/>
<polygon fill="#63b8ff" stroke="#63b8ff" points="562.59,-71.62 552.08,-72.97 561.13,-78.47 562.59,-71.62"/>
</a>
</g>
</g>
<!-- Node12&#45;&gt;Node17 -->
<g id="edge17_Node000012_Node000017" class="edge">
<title>Node12&#45;&gt;Node17</title>
<g id="a_edge17_Node000012_Node000017"><a xlink:title=" ">
<path fill="none" stroke="#63b8ff" d="M801.86,-109.96C835.5,-101.83 887.42,-88.98 941.08,-74.16"/>
<polygon fill="#63b8ff" stroke="#63b8ff" points="942.06,-77.52 950.76,-71.47 940.18,-70.78 942.06,-77.52"/>
</a>
</g>
</g>
<!-- Node18 -->
<g id="Node000018" class="node">
<title>Node18</title>
<g id="a_Node000018"><a xlink:title=" ">
<polygon fill="#e0e0e0" stroke="#999999" points="645.5,-74 570.5,-74 570.5,-55 645.5,-55 645.5,-74"/>
<text text-anchor="middle" x="608" y="-62" font-family="Helvetica,sans-Serif" font-size="10.00">QMimeData</text>
</a>
</g>
</g>
<!-- Node12&#45;&gt;Node18 -->
<g id="edge18_Node000012_Node000018" class="edge">
<title>Node12&#45;&gt;Node18</title>
<g id="a_edge18_Node000012_Node000018"><a xlink:title=" ">
<path fill="none" stroke="#63b8ff" d="M740.61,-109.98C714.2,-101.13 672.65,-87.19 643.11,-77.28"/>
<polygon fill="#63b8ff" stroke="#63b8ff" points="644.18,-73.94 633.58,-74.08 641.95,-80.58 644.18,-73.94"/>
</a>
</g>
</g>
<!-- Node19 -->
<g id="Node000019" class="node">
<title>Node19</title>
<g id="a_Node000019"><a xlink:title=" ">
<polygon fill="#e0e0e0" stroke="#999999" points="723,-74 663,-74 663,-55 723,-55 723,-74"/>
<text text-anchor="middle" x="693" y="-62" font-family="Helvetica,sans-Serif" font-size="10.00">QFileInfo</text>
</a>
</g>
</g>
<!-- Node12&#45;&gt;Node19 -->
<g id="edge19_Node000012_Node000019" class="edge">
<title>Node12&#45;&gt;Node19</title>
<g id="a_edge19_Node000012_Node000019"><a xlink:title=" ">
<path fill="none" stroke="#63b8ff" d="M754.27,-109.98C743.27,-102 726.58,-89.88 713.4,-80.31"/>
<polygon fill="#63b8ff" stroke="#63b8ff" points="715.09,-77.21 704.94,-74.17 710.98,-82.88 715.09,-77.21"/>
</a>
</g>
</g>
<!-- Node20 -->
<g id="Node000020" class="node">
<title>Node20</title>
<g id="a_Node000020"><a xlink:title=" ">
<polygon fill="#e0e0e0" stroke="#999999" points="790.5,-74 741.5,-74 741.5,-55 790.5,-55 790.5,-74"/>
<text text-anchor="middle" x="766" y="-62" font-family="Helvetica,sans-Serif" font-size="10.00">QHash</text>
</a>
</g>
</g>
<!-- Node12&#45;&gt;Node20 -->
<g id="edge21_Node000012_Node000020" class="edge">
<title>Node12&#45;&gt;Node20</title>
<g id="a_edge21_Node000012_Node000020"><a xlink:title=" ">
<path fill="none" stroke="#63b8ff" d="M766,-109.75C766,-102.8 766,-92.85 766,-84.13"/>
<polygon fill="#63b8ff" stroke="#63b8ff" points="769.5,-84.09 766,-74.09 762.5,-84.09 769.5,-84.09"/>
</a>
</g>
</g>
<!-- Node13&#45;&gt;Node14 -->
<g id="edge13_Node000013_Node000014" class="edge">
<title>Node13&#45;&gt;Node14</title>
<g id="a_edge13_Node000013_Node000014"><a xlink:title=" ">
<path fill="none" stroke="#63b8ff" d="M884.06,-54.75C879.02,-47.34 871.66,-36.5 865.49,-27.41"/>
<polygon fill="#63b8ff" stroke="#63b8ff" points="868.35,-25.39 859.83,-19.09 862.56,-29.33 868.35,-25.39"/>
</a>
</g>
</g>
</g>
</svg>

<g id="navigator" transform="translate(0 0)" fill="#404254">
  <rect fill="#f2f5e9" fill-opacity="0.5" stroke="#606060" stroke-width=".5" x="0" y="0" width="60" height="60"/>
  <use id="zoomplus" xlink:href="#zoomPlus" x="17" y="9" onmousedown="handleZoom(evt,'in')"/>
  <use id="zoomminus" xlink:href="#zoomMin" x="42" y="9" onmousedown="handleZoom(evt,'out')"/>
  <use id="reset" xlink:href="#resetDef" x="30" y="36" onmousedown="handleReset()"/>
   <use id="arrowup" xlink:href="#arrowUp" x="0" y="0" onmousedown="handlePan(0,-1)"/>
  <use id="arrowright" xlink:href="#arrowRight" x="0" y="0" onmousedown="handlePan(1,0)"/>
  <use id="arrowdown" xlink:href="#arrowDown" x="0" y="0" onmousedown="handlePan(0,1)"/>
  <use id="arrowleft" xlink:href="#arrowLeft" x="0" y="0" onmousedown="handlePan(-1,0)"/>
</g>
<svg viewBox="0 0 15 15" width="100%" height="30px" preserveAspectRatio="xMaxYMin meet">
 <g id="arrow_out" transform="scale(0.3 0.3)">
  <a xlink:href="MediaInfoWidget_8cpp__incl_org.svg" target="_base">
   <rect id="button" ry="5" rx="5" y="6" x="6" height="38" width="38"
        fill="#f2f5e9" fill-opacity="0.5" stroke="#606060" stroke-width="1.0"/>
   <path id="arrow"
     d="M 11.500037,31.436501 C 11.940474,20.09759 22.043105,11.32322 32.158766,21.979434 L 37.068811,17.246167 C 37.068811,17.246167 37.088388,32 37.088388,32 L 22.160133,31.978069 C 22.160133,31.978069 26.997745,27.140456 26.997745,27.140456 C 18.528582,18.264221 13.291696,25.230495 11.500037,31.436501 z"
     style="fill:#404040;"/>
  </a>
 </g>
</svg>

<style type='text/css'>
<![CDATA[
[data-mouse-over-selected='false'] { opacity: 0.7; }
[data-mouse-over-selected='true']  { opacity: 1.0; }
]]>
</style>
<script type="application/ecmascript"><![CDATA[
document.addEventListener('DOMContentLoaded', (event) => {
  highlightEdges();
  highlightAdjacentNodes();
});
]]></script>
</svg>
