<?xml version="1.0" encoding="UTF-8" standalone="no"?>
<!DOCTYPE svg PUBLIC "-//W3C//DTD SVG 1.1//EN"
 "http://www.w3.org/Graphics/SVG/1.1/DTD/svg11.dtd">
<!-- Generated by graphviz version 2.43.0 (0)
 -->
<!-- Title: SRTParser::parseContent Pages: 1 -->
<svg width="494pt" height="284pt"
 viewBox="0.00 0.00 494.00 284.00" xmlns="http://www.w3.org/2000/svg" xmlns:xlink="http://www.w3.org/1999/xlink">
<g id="graph0" class="graph" transform="scale(1 1) rotate(0) translate(4 280)">
<title>SRTParser::parseContent</title>
<!-- Node1 -->
<g id="Node000001" class="node">
<title>Node1</title>
<g id="a_Node000001"><a xlink:title="Parse subtitle content and return subtitle track.">
<polygon fill="#999999" stroke="#666666" points="136,-153 0,-153 0,-134 136,-134 136,-153"/>
<text text-anchor="middle" x="68" y="-141" font-family="Helvetica,sans-Serif" font-size="10.00">SRTParser::parseContent</text>
</a>
</g>
</g>
<!-- Node2 -->
<g id="Node000002" class="node">
<title>Node2</title>
<g id="a_Node000002"><a xlink:href="../../d1/de3/classSubtitleTrack.html#a22a6718c776a6e6e2857469f8ca05d0a" target="_top" xlink:title=" ">
<polygon fill="white" stroke="#666666" points="316,-276 187,-276 187,-257 316,-257 316,-276"/>
<text text-anchor="middle" x="251.5" y="-264" font-family="Helvetica,sans-Serif" font-size="10.00">SubtitleTrack::addEntry</text>
</a>
</g>
</g>
<!-- Node1&#45;&gt;Node2 -->
<g id="edge1_Node000001_Node000002" class="edge">
<title>Node1&#45;&gt;Node2</title>
<g id="a_edge1_Node000001_Node000002"><a xlink:title=" ">
<path fill="none" stroke="#63b8ff" d="M75.72,-153.29C90.53,-174.08 128.18,-222.77 172,-247.5 175.95,-249.73 180.16,-251.7 184.5,-253.44"/>
<polygon fill="#63b8ff" stroke="#63b8ff" points="183.55,-256.82 194.15,-256.9 185.91,-250.23 183.55,-256.82"/>
</a>
</g>
</g>
<!-- Node4 -->
<g id="Node000004" class="node">
<title>Node4</title>
<g id="a_Node000004"><a xlink:href="../../d0/dcf/classBaseSubtitleParser.html#a5a5d04bf48b74bc7b6397ee97f56b272" target="_top" xlink:title="Get maximum allowed number of subtitle entries.">
<polygon fill="white" stroke="#666666" points="305.5,-238.5 197.5,-238.5 197.5,-208.5 305.5,-208.5 305.5,-238.5"/>
<text text-anchor="start" x="205.5" y="-226.5" font-family="Helvetica,sans-Serif" font-size="10.00">BaseSubtitleParser</text>
<text text-anchor="middle" x="251.5" y="-215.5" font-family="Helvetica,sans-Serif" font-size="10.00">::maxEntries</text>
</a>
</g>
</g>
<!-- Node1&#45;&gt;Node4 -->
<g id="edge3_Node000001_Node000004" class="edge">
<title>Node1&#45;&gt;Node4</title>
<g id="a_edge3_Node000001_Node000004"><a xlink:title=" ">
<path fill="none" stroke="#63b8ff" d="M84.96,-153.21C104.84,-165.01 140.06,-185.02 172,-198.5 177.4,-200.78 183.09,-202.97 188.83,-205.04"/>
<polygon fill="#63b8ff" stroke="#63b8ff" points="187.9,-208.43 198.5,-208.41 190.21,-201.82 187.9,-208.43"/>
</a>
</g>
</g>
<!-- Node5 -->
<g id="Node000005" class="node">
<title>Node5</title>
<g id="a_Node000005"><a xlink:href="../../d1/de3/classSubtitleTrack.html#a14288829f2168d06300faf875a2498f3" target="_top" xlink:title=" ">
<polygon fill="white" stroke="#666666" points="319,-190 184,-190 184,-171 319,-171 319,-190"/>
<text text-anchor="middle" x="251.5" y="-178" font-family="Helvetica,sans-Serif" font-size="10.00">SubtitleTrack::setFormat</text>
</a>
</g>
</g>
<!-- Node1&#45;&gt;Node5 -->
<g id="edge4_Node000001_Node000005" class="edge">
<title>Node1&#45;&gt;Node5</title>
<g id="a_edge4_Node000001_Node000005"><a xlink:title=" ">
<path fill="none" stroke="#63b8ff" d="M115.74,-153.03C139.47,-157.86 168.49,-163.78 193.51,-168.88"/>
<polygon fill="#63b8ff" stroke="#63b8ff" points="193.1,-172.37 203.6,-170.94 194.5,-165.51 193.1,-172.37"/>
</a>
</g>
</g>
<!-- Node7 -->
<g id="Node000007" class="node">
<title>Node7</title>
<g id="a_Node000007"><a xlink:href="../../d1/de3/classSubtitleTrack.html#a6f59ca6817dc11a4f2ac0b30aeb8b97c" target="_top" xlink:title="Sort entries by start time.">
<polygon fill="white" stroke="#666666" points="322.5,-153 180.5,-153 180.5,-134 322.5,-134 322.5,-153"/>
<text text-anchor="middle" x="251.5" y="-141" font-family="Helvetica,sans-Serif" font-size="10.00">SubtitleTrack::sortByTime</text>
</a>
</g>
</g>
<!-- Node1&#45;&gt;Node7 -->
<g id="edge6_Node000001_Node000007" class="edge">
<title>Node1&#45;&gt;Node7</title>
<g id="a_edge6_Node000001_Node000007"><a xlink:title=" ">
<path fill="none" stroke="#63b8ff" d="M136.07,-143.5C147.12,-143.5 158.68,-143.5 170.03,-143.5"/>
<polygon fill="#63b8ff" stroke="#63b8ff" points="170.36,-147 180.36,-143.5 170.36,-140 170.36,-147"/>
</a>
</g>
</g>
<!-- Node8 -->
<g id="Node000008" class="node">
<title>Node8</title>
<g id="a_Node000008"><a xlink:href="../../dd/d74/structSubtitleParseResult.html#a615d239f4b9cc79cf5f16e38b3cbb584" target="_top" xlink:title="Get human&#45;readable result summary.">
<polygon fill="white" stroke="#666666" points="307,-115.5 196,-115.5 196,-85.5 307,-85.5 307,-115.5"/>
<text text-anchor="start" x="204" y="-103.5" font-family="Helvetica,sans-Serif" font-size="10.00">SubtitleParseResult</text>
<text text-anchor="middle" x="251.5" y="-92.5" font-family="Helvetica,sans-Serif" font-size="10.00">::summary</text>
</a>
</g>
</g>
<!-- Node1&#45;&gt;Node8 -->
<g id="edge7_Node000001_Node000008" class="edge">
<title>Node1&#45;&gt;Node8</title>
<g id="a_edge7_Node000001_Node000008"><a xlink:title=" ">
<path fill="none" stroke="#63b8ff" d="M109.28,-133.96C131.78,-128.63 160.34,-121.86 185.88,-115.81"/>
<polygon fill="#63b8ff" stroke="#63b8ff" points="186.95,-119.15 195.87,-113.44 185.34,-112.34 186.95,-119.15"/>
</a>
</g>
</g>
<!-- Node9 -->
<g id="Node000009" class="node">
<title>Node9</title>
<g id="a_Node000009"><a xlink:href="../../d0/dcf/classBaseSubtitleParser.html#a62679a3e71c2e13e63515fccb82f25e2" target="_top" xlink:title="Validate subtitle content for security issues.">
<polygon fill="white" stroke="#666666" points="305.5,-67.5 197.5,-67.5 197.5,-37.5 305.5,-37.5 305.5,-67.5"/>
<text text-anchor="start" x="205.5" y="-55.5" font-family="Helvetica,sans-Serif" font-size="10.00">BaseSubtitleParser</text>
<text text-anchor="middle" x="251.5" y="-44.5" font-family="Helvetica,sans-Serif" font-size="10.00">::validateContent</text>
</a>
</g>
</g>
<!-- Node1&#45;&gt;Node9 -->
<g id="edge8_Node000001_Node000009" class="edge">
<title>Node1&#45;&gt;Node9</title>
<g id="a_edge8_Node000001_Node000009"><a xlink:title=" ">
<path fill="none" stroke="#63b8ff" d="M81.33,-133.82C100.01,-119.56 137.01,-92.83 172,-76.5 177,-74.16 182.29,-71.99 187.66,-69.97"/>
<polygon fill="#63b8ff" stroke="#63b8ff" points="189.12,-73.17 197.38,-66.52 186.78,-66.57 189.12,-73.17"/>
</a>
</g>
</g>
<!-- Node10 -->
<g id="Node000010" class="node">
<title>Node10</title>
<g id="a_Node000010"><a xlink:href="../../d1/de3/classSubtitleTrack.html#a2ef28446d8fc6e666d86a00b698d1241" target="_top" xlink:title="Validate all entries and remove invalid ones.">
<polygon fill="white" stroke="#666666" points="331,-19 172,-19 172,0 331,0 331,-19"/>
<text text-anchor="middle" x="251.5" y="-7" font-family="Helvetica,sans-Serif" font-size="10.00">SubtitleTrack::validateEntries</text>
</a>
</g>
</g>
<!-- Node1&#45;&gt;Node10 -->
<g id="edge9_Node000001_Node000010" class="edge">
<title>Node1&#45;&gt;Node10</title>
<g id="a_edge9_Node000001_Node000010"><a xlink:title=" ">
<path fill="none" stroke="#63b8ff" d="M74.82,-133.68C88.64,-111.27 125.76,-56.15 172,-28.5 175.66,-26.31 179.55,-24.38 183.57,-22.67"/>
<polygon fill="#63b8ff" stroke="#63b8ff" points="185.02,-25.86 193.14,-19.06 182.55,-19.31 185.02,-25.86"/>
</a>
</g>
</g>
<!-- Node3 -->
<g id="Node000003" class="node">
<title>Node3</title>
<g id="a_Node000003"><a xlink:href="../../db/d1c/classSubtitleEntry.html#a6d0372d674809ba152efc98aec7c9b59" target="_top" xlink:title="Check if subtitle entry is valid.">
<polygon fill="white" stroke="#666666" points="485,-276 368,-276 368,-257 485,-257 485,-276"/>
<text text-anchor="middle" x="426.5" y="-264" font-family="Helvetica,sans-Serif" font-size="10.00">SubtitleEntry::isValid</text>
</a>
</g>
</g>
<!-- Node2&#45;&gt;Node3 -->
<g id="edge2_Node000002_Node000003" class="edge">
<title>Node2&#45;&gt;Node3</title>
<g id="a_edge2_Node000002_Node000003"><a xlink:title=" ">
<path fill="none" stroke="#63b8ff" d="M316.43,-266.5C329.85,-266.5 344.05,-266.5 357.61,-266.5"/>
<polygon fill="#63b8ff" stroke="#63b8ff" points="357.84,-270 367.84,-266.5 357.84,-263 357.84,-270"/>
</a>
</g>
</g>
<!-- Node6 -->
<g id="Node000006" class="node">
<title>Node6</title>
<g id="a_Node000006"><a xlink:href="../../d1/de3/classSubtitleTrack.html#ae429993e8ef2f02d263d784cb8fab249" target="_top" xlink:title=" ">
<polygon fill="white" stroke="#666666" points="486,-190 367,-190 367,-171 486,-171 486,-190"/>
<text text-anchor="middle" x="426.5" y="-178" font-family="Helvetica,sans-Serif" font-size="10.00">SubtitleTrack::format</text>
</a>
</g>
</g>
<!-- Node5&#45;&gt;Node6 -->
<g id="edge5_Node000005_Node000006" class="edge">
<title>Node5&#45;&gt;Node6</title>
<g id="a_edge5_Node000005_Node000006"><a xlink:title=" ">
<path fill="none" stroke="#63b8ff" d="M319.39,-180.5C331.64,-180.5 344.45,-180.5 356.76,-180.5"/>
<polygon fill="#63b8ff" stroke="#63b8ff" points="356.96,-184 366.96,-180.5 356.96,-177 356.96,-184"/>
</a>
</g>
</g>
</g>
</svg>
