<?xml version="1.0" encoding="UTF-8" standalone="no"?>
<!DOCTYPE svg PUBLIC "-//W3C//DTD SVG 1.1//EN"
 "http://www.w3.org/Graphics/SVG/1.1/DTD/svg11.dtd">
<!-- Generated by graphviz version 2.43.0 (0)
 -->
<!-- Title: SRTParser::parseFile Pages: 1 -->
<!--zoomable 381 -->

<svg id="main" version="1.1" xmlns="http://www.w3.org/2000/svg" xmlns:xlink="http://www.w3.org/1999/xlink" xml:space="preserve" onload="init(evt)">
<style type="text/css"><![CDATA[
.node, .edge {opacity: 0.7;}
.node.selected, .edge.selected {opacity: 1;}
.edge:hover path { stroke: red; }
.edge:hover polygon { stroke: red; fill: red; }
]]></style>

<defs>
  <circle id="rim" cx="0" cy="0" r="7"/>
  <circle id="rim2" cx="0" cy="0" r="3.5"/>
  <g id="zoomPlus">
    <use xlink:href="#rim" fill="#404040"><set attributeName="fill" to="#808080" begin="zoomplus.mouseover" end="zoomplus.mouseout"/></use>
    <path d="M-4,0h8M0,-4v8" fill="none" stroke="white" stroke-width="1.5" pointer-events="none"/>
  </g>
  <g id="zoomMin">
    <use xlink:href="#rim" fill="#404040"><set attributeName="fill" to="#808080" begin="zoomminus.mouseover" end="zoomminus.mouseout"/></use>
    <path d="M-4,0h8" fill="none" stroke="white" stroke-width="1.5" pointer-events="none"/>
  </g>
  <g id="arrowUp" transform="translate(30 24)">
    <use xlink:href="#rim"/>
    <path pointer-events="none" fill="none" stroke="white" stroke-width="1.5" d="M0,-3.0v7 M-2.5,-0.5L0,-3.0L2.5,-0.5"/>
  </g>
  <g id="arrowRight" transform="rotate(90) translate(36 -43)">
    <use xlink:href="#rim"/>
    <path pointer-events="none" fill="none" stroke="white" stroke-width="1.5" d="M0,-3.0v7 M-2.5,-0.5L0,-3.0L2.5,-0.5"/>
  </g>
  <g id="arrowDown" transform="rotate(180) translate(-30 -48)">
    <use xlink:href="#rim"/>
    <path pointer-events="none" fill="none" stroke="white" stroke-width="1.5" d="M0,-3.0v7 M-2.5,-0.5L0,-3.0L2.5,-0.5"/>
  </g>
  <g id="arrowLeft" transform="rotate(270) translate(-36 17)">
    <use xlink:href="#rim"/>
    <path pointer-events="none" fill="none" stroke="white" stroke-width="1.5" d="M0,-3.0v7 M-2.5,-0.5L0,-3.0L2.5,-0.5"/>
  </g>
  <g id="resetDef">
    <use xlink:href="#rim2" fill="#404040"><set attributeName="fill" to="#808080" begin="reset.mouseover" end="reset.mouseout"/></use>
  </g>
</defs>
<script type="application/ecmascript">
var viewWidth = 645;
var viewHeight = 381;
var sectionId = 'dynsection-6';
</script>
<script type="application/ecmascript" xlink:href="../../svg.min.js"/>
<svg id="graph" class="graph">
<g id="viewport">
<title>SRTParser::parseFile</title>
<!-- Node1 -->
<g id="Node000001" class="node">
<title>Node1</title>
<g id="a_Node000001"><a xlink:title="Parse subtitle file and return subtitle track.">
<polygon fill="#999999" stroke="#666666" points="115,-72.5 0,-72.5 0,-53.5 115,-53.5 115,-72.5"/>
<text text-anchor="middle" x="57.5" y="-60.5" font-family="Helvetica,sans-Serif" font-size="10.00">SRTParser::parseFile</text>
</a>
</g>
</g>
<!-- Node2 -->
<g id="Node000002" class="node">
<title>Node2</title>
<g id="a_Node000002"><a xlink:href="../../dc/db9/classSRTParser.html#a1f7cc9e6aaf5755d85f12e8c45c3fd43" target="_top" xlink:title="Parse subtitle content and return subtitle track.">
<polygon fill="white" stroke="#666666" points="287,-227.5 151,-227.5 151,-208.5 287,-208.5 287,-227.5"/>
<text text-anchor="middle" x="219" y="-215.5" font-family="Helvetica,sans-Serif" font-size="10.00">SRTParser::parseContent</text>
</a>
</g>
</g>
<!-- Node1&#45;&gt;Node2 -->
<g id="edge1_Node000001_Node000002" class="edge">
<title>Node1&#45;&gt;Node2</title>
<g id="a_edge1_Node000001_Node000002"><a xlink:title=" ">
<path fill="none" stroke="#63b8ff" d="M68.48,-72.7C95,-98.47 167.47,-168.9 200.81,-201.29"/>
<polygon fill="#63b8ff" stroke="#63b8ff" points="198.42,-203.85 208.03,-208.31 203.29,-198.83 198.42,-203.85"/>
</a>
</g>
</g>
<!-- Node12 -->
<g id="Node000012" class="node">
<title>Node12</title>
<g id="a_Node000012"><a xlink:href="../../d0/dcf/classBaseSubtitleParser.html#ada1817afe5f75918a5dbbb33b4046243" target="_top" xlink:title="Read file content with encoding detection.">
<polygon fill="white" stroke="#666666" points="456.5,-30 348.5,-30 348.5,0 456.5,0 456.5,-30"/>
<text text-anchor="start" x="356.5" y="-18" font-family="Helvetica,sans-Serif" font-size="10.00">BaseSubtitleParser</text>
<text text-anchor="middle" x="402.5" y="-7" font-family="Helvetica,sans-Serif" font-size="10.00">::readFileContent</text>
</a>
</g>
</g>
<!-- Node1&#45;&gt;Node12 -->
<g id="edge11_Node000001_Node000012" class="edge">
<title>Node1&#45;&gt;Node12</title>
<g id="a_edge11_Node000001_Node000012"><a xlink:title=" ">
<path fill="none" stroke="#63b8ff" d="M90.33,-53.41C108.04,-48.41 130.58,-42.6 151,-39 214.19,-27.85 287.34,-21.59 338.21,-18.29"/>
<polygon fill="#63b8ff" stroke="#63b8ff" points="338.63,-21.77 348.39,-17.64 338.19,-14.78 338.63,-21.77"/>
</a>
</g>
</g>
<!-- Node14 -->
<g id="Node000014" class="node">
<title>Node14</title>
<g id="a_Node000014"><a xlink:href="../../d0/dcf/classBaseSubtitleParser.html#a447bd858af80cd7c94e3ace71faca2bf" target="_top" xlink:title="Validate subtitle file for security issues.">
<polygon fill="white" stroke="#666666" points="273,-78 165,-78 165,-48 273,-48 273,-78"/>
<text text-anchor="start" x="173" y="-66" font-family="Helvetica,sans-Serif" font-size="10.00">BaseSubtitleParser</text>
<text text-anchor="middle" x="219" y="-55" font-family="Helvetica,sans-Serif" font-size="10.00">::validateFile</text>
</a>
</g>
</g>
<!-- Node1&#45;&gt;Node14 -->
<g id="edge13_Node000001_Node000014" class="edge">
<title>Node1&#45;&gt;Node14</title>
<g id="a_edge13_Node000001_Node000014"><a xlink:title=" ">
<path fill="none" stroke="#63b8ff" d="M115.18,-63C127.97,-63 141.63,-63 154.67,-63"/>
<polygon fill="#63b8ff" stroke="#63b8ff" points="154.97,-66.5 164.97,-63 154.97,-59.5 154.97,-66.5"/>
</a>
</g>
</g>
<!-- Node3 -->
<g id="Node000003" class="node">
<title>Node3</title>
<g id="a_Node000003"><a xlink:href="../../d1/de3/classSubtitleTrack.html#a22a6718c776a6e6e2857469f8ca05d0a" target="_top" xlink:title=" ">
<polygon fill="white" stroke="#666666" points="467,-249.5 338,-249.5 338,-230.5 467,-230.5 467,-249.5"/>
<text text-anchor="middle" x="402.5" y="-237.5" font-family="Helvetica,sans-Serif" font-size="10.00">SubtitleTrack::addEntry</text>
</a>
</g>
</g>
<!-- Node2&#45;&gt;Node3 -->
<g id="edge2_Node000002_Node000003" class="edge">
<title>Node2&#45;&gt;Node3</title>
<g id="a_edge2_Node000002_Node000003"><a xlink:title=" ">
<path fill="none" stroke="#63b8ff" d="M287.07,-226.13C300.27,-227.73 314.18,-229.42 327.59,-231.04"/>
<polygon fill="#63b8ff" stroke="#63b8ff" points="327.37,-234.54 337.72,-232.27 328.22,-227.59 327.37,-234.54"/>
</a>
</g>
</g>
<!-- Node5 -->
<g id="Node000005" class="node">
<title>Node5</title>
<g id="a_Node000005"><a xlink:href="../../d0/dcf/classBaseSubtitleParser.html#a5a5d04bf48b74bc7b6397ee97f56b272" target="_top" xlink:title="Get maximum allowed number of subtitle entries.">
<polygon fill="white" stroke="#666666" points="456.5,-212 348.5,-212 348.5,-182 456.5,-182 456.5,-212"/>
<text text-anchor="start" x="356.5" y="-200" font-family="Helvetica,sans-Serif" font-size="10.00">BaseSubtitleParser</text>
<text text-anchor="middle" x="402.5" y="-189" font-family="Helvetica,sans-Serif" font-size="10.00">::maxEntries</text>
</a>
</g>
</g>
<!-- Node2&#45;&gt;Node5 -->
<g id="edge4_Node000002_Node000005" class="edge">
<title>Node2&#45;&gt;Node5</title>
<g id="a_edge4_Node000002_Node000005"><a xlink:title=" ">
<path fill="none" stroke="#63b8ff" d="M287.07,-210.24C303.79,-208.3 321.67,-206.24 338.21,-204.32"/>
<polygon fill="#63b8ff" stroke="#63b8ff" points="338.78,-207.78 348.31,-203.15 337.97,-200.83 338.78,-207.78"/>
</a>
</g>
</g>
<!-- Node6 -->
<g id="Node000006" class="node">
<title>Node6</title>
<g id="a_Node000006"><a xlink:href="../../d1/de3/classSubtitleTrack.html#a14288829f2168d06300faf875a2498f3" target="_top" xlink:title=" ">
<polygon fill="white" stroke="#666666" points="470,-163.5 335,-163.5 335,-144.5 470,-144.5 470,-163.5"/>
<text text-anchor="middle" x="402.5" y="-151.5" font-family="Helvetica,sans-Serif" font-size="10.00">SubtitleTrack::setFormat</text>
</a>
</g>
</g>
<!-- Node2&#45;&gt;Node6 -->
<g id="edge5_Node000002_Node000006" class="edge">
<title>Node2&#45;&gt;Node6</title>
<g id="a_edge5_Node000002_Node000006"><a xlink:title=" ">
<path fill="none" stroke="#63b8ff" d="M239.34,-208.33C259.75,-198.43 293.04,-183.08 323,-173 330.48,-170.48 338.46,-168.16 346.36,-166.06"/>
<polygon fill="#63b8ff" stroke="#63b8ff" points="347.46,-169.39 356.28,-163.52 345.73,-162.6 347.46,-169.39"/>
</a>
</g>
</g>
<!-- Node8 -->
<g id="Node000008" class="node">
<title>Node8</title>
<g id="a_Node000008"><a xlink:href="../../d1/de3/classSubtitleTrack.html#a6f59ca6817dc11a4f2ac0b30aeb8b97c" target="_top" xlink:title="Sort entries by start time.">
<polygon fill="white" stroke="#666666" points="473.5,-372.5 331.5,-372.5 331.5,-353.5 473.5,-353.5 473.5,-372.5"/>
<text text-anchor="middle" x="402.5" y="-360.5" font-family="Helvetica,sans-Serif" font-size="10.00">SubtitleTrack::sortByTime</text>
</a>
</g>
</g>
<!-- Node2&#45;&gt;Node8 -->
<g id="edge7_Node000002_Node000008" class="edge">
<title>Node2&#45;&gt;Node8</title>
<g id="a_edge7_Node000002_Node000008"><a xlink:title=" ">
<path fill="none" stroke="#63b8ff" d="M224.98,-227.69C237.77,-251.52 274.21,-313.31 323,-344 326.38,-346.12 329.97,-348.01 333.69,-349.68"/>
<polygon fill="#63b8ff" stroke="#63b8ff" points="332.57,-353.01 343.16,-353.43 335.15,-346.5 332.57,-353.01"/>
</a>
</g>
</g>
<!-- Node9 -->
<g id="Node000009" class="node">
<title>Node9</title>
<g id="a_Node000009"><a xlink:href="../../dd/d74/structSubtitleParseResult.html#a615d239f4b9cc79cf5f16e38b3cbb584" target="_top" xlink:title="Get human&#45;readable result summary.">
<polygon fill="white" stroke="#666666" points="458,-335 347,-335 347,-305 458,-305 458,-335"/>
<text text-anchor="start" x="355" y="-323" font-family="Helvetica,sans-Serif" font-size="10.00">SubtitleParseResult</text>
<text text-anchor="middle" x="402.5" y="-312" font-family="Helvetica,sans-Serif" font-size="10.00">::summary</text>
</a>
</g>
</g>
<!-- Node2&#45;&gt;Node9 -->
<g id="edge8_Node000002_Node000009" class="edge">
<title>Node2&#45;&gt;Node9</title>
<g id="a_edge8_Node000002_Node000009"><a xlink:title=" ">
<path fill="none" stroke="#63b8ff" d="M229.99,-227.52C247.5,-243.74 285.45,-276.81 323,-296 327.56,-298.33 332.39,-300.48 337.32,-302.46"/>
<polygon fill="#63b8ff" stroke="#63b8ff" points="336.3,-305.81 346.89,-306.03 338.75,-299.25 336.3,-305.81"/>
</a>
</g>
</g>
<!-- Node10 -->
<g id="Node000010" class="node">
<title>Node10</title>
<g id="a_Node000010"><a xlink:href="../../d0/dcf/classBaseSubtitleParser.html#a62679a3e71c2e13e63515fccb82f25e2" target="_top" xlink:title="Validate subtitle content for security issues.">
<polygon fill="white" stroke="#666666" points="456.5,-126 348.5,-126 348.5,-96 456.5,-96 456.5,-126"/>
<text text-anchor="start" x="356.5" y="-114" font-family="Helvetica,sans-Serif" font-size="10.00">BaseSubtitleParser</text>
<text text-anchor="middle" x="402.5" y="-103" font-family="Helvetica,sans-Serif" font-size="10.00">::validateContent</text>
</a>
</g>
</g>
<!-- Node2&#45;&gt;Node10 -->
<g id="edge9_Node000002_Node000010" class="edge">
<title>Node2&#45;&gt;Node10</title>
<g id="a_edge9_Node000002_Node000010"><a xlink:title=" ">
<path fill="none" stroke="#63b8ff" d="M229.64,-208.27C246.91,-191.34 284.89,-156.34 323,-136 328.09,-133.28 333.53,-130.8 339.08,-128.55"/>
<polygon fill="#63b8ff" stroke="#63b8ff" points="340.38,-131.8 348.48,-124.97 337.89,-125.25 340.38,-131.8"/>
</a>
</g>
</g>
<!-- Node11 -->
<g id="Node000011" class="node">
<title>Node11</title>
<g id="a_Node000011"><a xlink:href="../../d1/de3/classSubtitleTrack.html#a2ef28446d8fc6e666d86a00b698d1241" target="_top" xlink:title="Validate all entries and remove invalid ones.">
<polygon fill="white" stroke="#666666" points="482,-286.5 323,-286.5 323,-267.5 482,-267.5 482,-286.5"/>
<text text-anchor="middle" x="402.5" y="-274.5" font-family="Helvetica,sans-Serif" font-size="10.00">SubtitleTrack::validateEntries</text>
</a>
</g>
</g>
<!-- Node2&#45;&gt;Node11 -->
<g id="edge10_Node000002_Node000011" class="edge">
<title>Node2&#45;&gt;Node11</title>
<g id="a_edge10_Node000002_Node000011"><a xlink:title=" ">
<path fill="none" stroke="#63b8ff" d="M241.35,-227.62C261.95,-236.63 294.15,-250.01 323,-259 329.88,-261.15 337.18,-263.16 344.44,-265"/>
<polygon fill="#63b8ff" stroke="#63b8ff" points="343.73,-268.43 354.28,-267.41 345.4,-261.63 343.73,-268.43"/>
</a>
</g>
</g>
<!-- Node4 -->
<g id="Node000004" class="node">
<title>Node4</title>
<g id="a_Node000004"><a xlink:href="../../db/d1c/classSubtitleEntry.html#a6d0372d674809ba152efc98aec7c9b59" target="_top" xlink:title="Check if subtitle entry is valid.">
<polygon fill="white" stroke="#666666" points="636,-249.5 519,-249.5 519,-230.5 636,-230.5 636,-249.5"/>
<text text-anchor="middle" x="577.5" y="-237.5" font-family="Helvetica,sans-Serif" font-size="10.00">SubtitleEntry::isValid</text>
</a>
</g>
</g>
<!-- Node3&#45;&gt;Node4 -->
<g id="edge3_Node000003_Node000004" class="edge">
<title>Node3&#45;&gt;Node4</title>
<g id="a_edge3_Node000003_Node000004"><a xlink:title=" ">
<path fill="none" stroke="#63b8ff" d="M467.43,-240C480.85,-240 495.05,-240 508.61,-240"/>
<polygon fill="#63b8ff" stroke="#63b8ff" points="508.84,-243.5 518.84,-240 508.84,-236.5 508.84,-243.5"/>
</a>
</g>
</g>
<!-- Node7 -->
<g id="Node000007" class="node">
<title>Node7</title>
<g id="a_Node000007"><a xlink:href="../../d1/de3/classSubtitleTrack.html#ae429993e8ef2f02d263d784cb8fab249" target="_top" xlink:title=" ">
<polygon fill="white" stroke="#666666" points="637,-163.5 518,-163.5 518,-144.5 637,-144.5 637,-163.5"/>
<text text-anchor="middle" x="577.5" y="-151.5" font-family="Helvetica,sans-Serif" font-size="10.00">SubtitleTrack::format</text>
</a>
</g>
</g>
<!-- Node6&#45;&gt;Node7 -->
<g id="edge6_Node000006_Node000007" class="edge">
<title>Node6&#45;&gt;Node7</title>
<g id="a_edge6_Node000006_Node000007"><a xlink:title=" ">
<path fill="none" stroke="#63b8ff" d="M470.39,-154C482.64,-154 495.45,-154 507.76,-154"/>
<polygon fill="#63b8ff" stroke="#63b8ff" points="507.96,-157.5 517.96,-154 507.96,-150.5 507.96,-157.5"/>
</a>
</g>
</g>
<!-- Node13 -->
<g id="Node000013" class="node">
<title>Node13</title>
<g id="a_Node000013"><a xlink:href="../../d0/dcf/classBaseSubtitleParser.html#a4495a629d13d37b8357c620faeb992fd" target="_top" xlink:title="Detect text encoding of subtitle file.">
<polygon fill="white" stroke="#666666" points="631.5,-30 523.5,-30 523.5,0 631.5,0 631.5,-30"/>
<text text-anchor="start" x="531.5" y="-18" font-family="Helvetica,sans-Serif" font-size="10.00">BaseSubtitleParser</text>
<text text-anchor="middle" x="577.5" y="-7" font-family="Helvetica,sans-Serif" font-size="10.00">::detectEncoding</text>
</a>
</g>
</g>
<!-- Node12&#45;&gt;Node13 -->
<g id="edge12_Node000012_Node000013" class="edge">
<title>Node12&#45;&gt;Node13</title>
<g id="a_edge12_Node000012_Node000013"><a xlink:title=" ">
<path fill="none" stroke="#63b8ff" d="M456.82,-15C474.66,-15 494.72,-15 513.25,-15"/>
<polygon fill="#63b8ff" stroke="#63b8ff" points="513.36,-18.5 523.36,-15 513.36,-11.5 513.36,-18.5"/>
</a>
</g>
</g>
<!-- Node14&#45;&gt;Node10 -->
<g id="edge16_Node000014_Node000010" class="edge">
<title>Node14&#45;&gt;Node10</title>
<g id="a_edge16_Node000014_Node000010"><a xlink:title=" ">
<path fill="none" stroke="#63b8ff" d="M273.47,-77.14C293.88,-82.54 317.32,-88.74 338.52,-94.34"/>
<polygon fill="#63b8ff" stroke="#63b8ff" points="337.85,-97.79 348.41,-96.96 339.64,-91.02 337.85,-97.79"/>
</a>
</g>
</g>
<!-- Node14&#45;&gt;Node12 -->
<g id="edge14_Node000014_Node000012" class="edge">
<title>Node14&#45;&gt;Node12</title>
<g id="a_edge14_Node000014_Node000012"><a xlink:title=" ">
<path fill="none" stroke="#63b8ff" d="M273.47,-48.86C293.88,-43.46 317.32,-37.26 338.52,-31.66"/>
<polygon fill="#63b8ff" stroke="#63b8ff" points="339.64,-34.98 348.41,-29.04 337.85,-28.21 339.64,-34.98"/>
</a>
</g>
</g>
<!-- Node15 -->
<g id="Node000015" class="node">
<title>Node15</title>
<g id="a_Node000015"><a xlink:href="../../d3/dc3/classISubtitleParser.html#a16b65bcc13bbabef68819861e611b5f9" target="_top" xlink:title="Get supported file extensions.">
<polygon fill="white" stroke="#666666" points="473.5,-78 331.5,-78 331.5,-48 473.5,-48 473.5,-78"/>
<text text-anchor="start" x="339.5" y="-66" font-family="Helvetica,sans-Serif" font-size="10.00">ISubtitleParser::supported</text>
<text text-anchor="middle" x="402.5" y="-55" font-family="Helvetica,sans-Serif" font-size="10.00">Extensions</text>
</a>
</g>
</g>
<!-- Node14&#45;&gt;Node15 -->
<g id="edge15_Node000014_Node000015" class="edge">
<title>Node14&#45;&gt;Node15</title>
<g id="a_edge15_Node000014_Node000015"><a xlink:title=" ">
<path fill="none" stroke="#63b8ff" d="M273.47,-63C288.31,-63 304.76,-63 320.79,-63"/>
<polygon fill="#63b8ff" stroke="#63b8ff" points="321.24,-66.5 331.24,-63 321.24,-59.5 321.24,-66.5"/>
</a>
</g>
</g>
</g>
</svg>

<g id="navigator" transform="translate(0 0)" fill="#404254">
  <rect fill="#f2f5e9" fill-opacity="0.5" stroke="#606060" stroke-width=".5" x="0" y="0" width="60" height="60"/>
  <use id="zoomplus" xlink:href="#zoomPlus" x="17" y="9" onmousedown="handleZoom(evt,'in')"/>
  <use id="zoomminus" xlink:href="#zoomMin" x="42" y="9" onmousedown="handleZoom(evt,'out')"/>
  <use id="reset" xlink:href="#resetDef" x="30" y="36" onmousedown="handleReset()"/>
   <use id="arrowup" xlink:href="#arrowUp" x="0" y="0" onmousedown="handlePan(0,-1)"/>
  <use id="arrowright" xlink:href="#arrowRight" x="0" y="0" onmousedown="handlePan(1,0)"/>
  <use id="arrowdown" xlink:href="#arrowDown" x="0" y="0" onmousedown="handlePan(0,1)"/>
  <use id="arrowleft" xlink:href="#arrowLeft" x="0" y="0" onmousedown="handlePan(-1,0)"/>
</g>
<svg viewBox="0 0 15 15" width="100%" height="30px" preserveAspectRatio="xMaxYMin meet">
 <g id="arrow_out" transform="scale(0.3 0.3)">
  <a xlink:href="classSRTParser_aeef7c45b58862be36745cd1f39abe5a5_cgraph_org.svg" target="_base">
   <rect id="button" ry="5" rx="5" y="6" x="6" height="38" width="38"
        fill="#f2f5e9" fill-opacity="0.5" stroke="#606060" stroke-width="1.0"/>
   <path id="arrow"
     d="M 11.500037,31.436501 C 11.940474,20.09759 22.043105,11.32322 32.158766,21.979434 L 37.068811,17.246167 C 37.068811,17.246167 37.088388,32 37.088388,32 L 22.160133,31.978069 C 22.160133,31.978069 26.997745,27.140456 26.997745,27.140456 C 18.528582,18.264221 13.291696,25.230495 11.500037,31.436501 z"
     style="fill:#404040;"/>
  </a>
 </g>
</svg>

<style type='text/css'>
<![CDATA[
[data-mouse-over-selected='false'] { opacity: 0.7; }
[data-mouse-over-selected='true']  { opacity: 1.0; }
]]>
</style>
<script type="application/ecmascript"><![CDATA[
document.addEventListener('DOMContentLoaded', (event) => {
  highlightEdges();
  highlightAdjacentNodes();
});
]]></script>
</svg>
