<?xml version="1.0" encoding="UTF-8" standalone="no"?>
<!DOCTYPE svg PUBLIC "-//W3C//DTD SVG 1.1//EN"
 "http://www.w3.org/Graphics/SVG/1.1/DTD/svg11.dtd">
<!-- Generated by graphviz version 2.43.0 (0)
 -->
<!-- Title: EonPlay::Data::MetadataExtractor::extractMetadataForFiles Pages: 1 -->
<svg width="840pt" height="182pt"
 viewBox="0.00 0.00 840.00 182.00" xmlns="http://www.w3.org/2000/svg" xmlns:xlink="http://www.w3.org/1999/xlink">
<g id="graph0" class="graph" transform="scale(1 1) rotate(0) translate(4 178)">
<title>EonPlay::Data::MetadataExtractor::extractMetadataForFiles</title>
<!-- Node1 -->
<g id="Node000001" class="node">
<title>Node1</title>
<g id="a_Node000001"><a xlink:title=" ">
<polygon fill="#999999" stroke="#666666" points="181,-102 0,-102 0,-72 181,-72 181,-102"/>
<text text-anchor="start" x="8" y="-90" font-family="Helvetica,sans-Serif" font-size="10.00">EonPlay::Data::MetadataExtractor</text>
<text text-anchor="middle" x="90.5" y="-79" font-family="Helvetica,sans-Serif" font-size="10.00">::extractMetadataForFiles</text>
</a>
</g>
</g>
<!-- Node2 -->
<g id="Node000002" class="node">
<title>Node2</title>
<g id="a_Node000002"><a xlink:href="../../d9/dad/classEonPlay_1_1Data_1_1MetadataExtractor.html#addd2291deb953e44f7473aa957751aac" target="_top" xlink:title=" ">
<polygon fill="white" stroke="#666666" points="398,-102 217,-102 217,-72 398,-72 398,-102"/>
<text text-anchor="start" x="225" y="-90" font-family="Helvetica,sans-Serif" font-size="10.00">EonPlay::Data::MetadataExtractor</text>
<text text-anchor="middle" x="307.5" y="-79" font-family="Helvetica,sans-Serif" font-size="10.00">::extractMetadata</text>
</a>
</g>
</g>
<!-- Node1&#45;&gt;Node2 -->
<g id="edge1_Node000001_Node000002" class="edge">
<title>Node1&#45;&gt;Node2</title>
<g id="a_edge1_Node000001_Node000002"><a xlink:title=" ">
<path fill="none" stroke="#63b8ff" d="M181.12,-87C189.48,-87 197.98,-87 206.42,-87"/>
<polygon fill="#63b8ff" stroke="#63b8ff" points="206.68,-90.5 216.68,-87 206.68,-83.5 206.68,-90.5"/>
</a>
</g>
</g>
<!-- Node3 -->
<g id="Node000003" class="node">
<title>Node3</title>
<g id="a_Node000003"><a xlink:href="../../d9/dad/classEonPlay_1_1Data_1_1MetadataExtractor.html#a1a5bc782c9c182db44137edf51a90d46" target="_top" xlink:title=" ">
<polygon fill="white" stroke="#666666" points="615,-174 434,-174 434,-144 615,-144 615,-174"/>
<text text-anchor="start" x="442" y="-162" font-family="Helvetica,sans-Serif" font-size="10.00">EonPlay::Data::MetadataExtractor</text>
<text text-anchor="middle" x="524.5" y="-151" font-family="Helvetica,sans-Serif" font-size="10.00">::enhanceMetadataFromWeb</text>
</a>
</g>
</g>
<!-- Node2&#45;&gt;Node3 -->
<g id="edge2_Node000002_Node000003" class="edge">
<title>Node2&#45;&gt;Node3</title>
<g id="a_edge2_Node000002_Node000003"><a xlink:title=" ">
<path fill="none" stroke="#63b8ff" d="M344.94,-102.08C369.8,-112.09 403.6,-125.14 434,-135 440.48,-137.1 447.26,-139.16 454.07,-141.14"/>
<polygon fill="#63b8ff" stroke="#63b8ff" points="453.46,-144.61 464.03,-143.98 455.37,-137.87 453.46,-144.61"/>
</a>
</g>
</g>
<!-- Node4 -->
<g id="Node000004" class="node">
<title>Node4</title>
<g id="a_Node000004"><a xlink:href="../../d9/dad/classEonPlay_1_1Data_1_1MetadataExtractor.html#a41bace79f4aa2bfcf0a6b0992a587c74" target="_top" xlink:title=" ">
<polygon fill="white" stroke="#666666" points="615,-126 434,-126 434,-96 615,-96 615,-126"/>
<text text-anchor="start" x="442" y="-114" font-family="Helvetica,sans-Serif" font-size="10.00">EonPlay::Data::MetadataExtractor</text>
<text text-anchor="middle" x="524.5" y="-103" font-family="Helvetica,sans-Serif" font-size="10.00">::isFormatSupported</text>
</a>
</g>
</g>
<!-- Node2&#45;&gt;Node4 -->
<g id="edge3_Node000002_Node000004" class="edge">
<title>Node2&#45;&gt;Node4</title>
<g id="a_edge3_Node000002_Node000004"><a xlink:title=" ">
<path fill="none" stroke="#63b8ff" d="M398.12,-97C406.57,-97.95 415.17,-98.91 423.7,-99.86"/>
<polygon fill="#63b8ff" stroke="#63b8ff" points="423.35,-103.34 433.68,-100.97 424.13,-96.39 423.35,-103.34"/>
</a>
</g>
</g>
<!-- Node7 -->
<g id="Node000007" class="node">
<title>Node7</title>
<g id="a_Node000007"><a xlink:href="../../d9/dad/classEonPlay_1_1Data_1_1MetadataExtractor.html#a99408145896e865a32cb5ca8d7038faf" target="_top" xlink:title=" ">
<polygon fill="white" stroke="#666666" points="615,-78 434,-78 434,-48 615,-48 615,-78"/>
<text text-anchor="start" x="442" y="-66" font-family="Helvetica,sans-Serif" font-size="10.00">EonPlay::Data::MetadataExtractor</text>
<text text-anchor="middle" x="524.5" y="-55" font-family="Helvetica,sans-Serif" font-size="10.00">::metadataExtracted</text>
</a>
</g>
</g>
<!-- Node2&#45;&gt;Node7 -->
<g id="edge6_Node000002_Node000007" class="edge">
<title>Node2&#45;&gt;Node7</title>
<g id="a_edge6_Node000002_Node000007"><a xlink:title=" ">
<path fill="none" stroke="#63b8ff" d="M398.12,-77C406.57,-76.05 415.17,-75.09 423.7,-74.14"/>
<polygon fill="#63b8ff" stroke="#63b8ff" points="424.13,-77.61 433.68,-73.03 423.35,-70.66 424.13,-77.61"/>
</a>
</g>
</g>
<!-- Node8 -->
<g id="Node000008" class="node">
<title>Node8</title>
<g id="a_Node000008"><a xlink:href="../../d9/dad/classEonPlay_1_1Data_1_1MetadataExtractor.html#aa0f55bf461d2227bcbf8a17b6632781b" target="_top" xlink:title=" ">
<polygon fill="white" stroke="#666666" points="615,-30 434,-30 434,0 615,0 615,-30"/>
<text text-anchor="start" x="442" y="-18" font-family="Helvetica,sans-Serif" font-size="10.00">EonPlay::Data::MetadataExtractor</text>
<text text-anchor="middle" x="524.5" y="-7" font-family="Helvetica,sans-Serif" font-size="10.00">::metadataExtractionFailed</text>
</a>
</g>
</g>
<!-- Node2&#45;&gt;Node8 -->
<g id="edge7_Node000002_Node000008" class="edge">
<title>Node2&#45;&gt;Node8</title>
<g id="a_edge7_Node000002_Node000008"><a xlink:title=" ">
<path fill="none" stroke="#63b8ff" d="M344.94,-71.92C369.8,-61.91 403.6,-48.86 434,-39 440.48,-36.9 447.26,-34.84 454.07,-32.86"/>
<polygon fill="#63b8ff" stroke="#63b8ff" points="455.37,-36.13 464.03,-30.02 453.46,-29.39 455.37,-36.13"/>
</a>
</g>
</g>
<!-- Node5 -->
<g id="Node000005" class="node">
<title>Node5</title>
<g id="a_Node000005"><a xlink:href="../../d9/dad/classEonPlay_1_1Data_1_1MetadataExtractor.html#a84dc14928f2d0eb0085aa2a9aeac7618" target="_top" xlink:title=" ">
<polygon fill="white" stroke="#666666" points="832,-150 651,-150 651,-120 832,-120 832,-150"/>
<text text-anchor="start" x="659" y="-138" font-family="Helvetica,sans-Serif" font-size="10.00">EonPlay::Data::MetadataExtractor</text>
<text text-anchor="middle" x="741.5" y="-127" font-family="Helvetica,sans-Serif" font-size="10.00">::supportedAudioFormats</text>
</a>
</g>
</g>
<!-- Node4&#45;&gt;Node5 -->
<g id="edge4_Node000004_Node000005" class="edge">
<title>Node4&#45;&gt;Node5</title>
<g id="a_edge4_Node000004_Node000005"><a xlink:title=" ">
<path fill="none" stroke="#63b8ff" d="M615.12,-121C623.57,-121.95 632.17,-122.91 640.7,-123.86"/>
<polygon fill="#63b8ff" stroke="#63b8ff" points="640.35,-127.34 650.68,-124.97 641.13,-120.39 640.35,-127.34"/>
</a>
</g>
</g>
<!-- Node6 -->
<g id="Node000006" class="node">
<title>Node6</title>
<g id="a_Node000006"><a xlink:href="../../d9/dad/classEonPlay_1_1Data_1_1MetadataExtractor.html#a699a1bbb03101ea089b4fab5903690dd" target="_top" xlink:title=" ">
<polygon fill="white" stroke="#666666" points="832,-102 651,-102 651,-72 832,-72 832,-102"/>
<text text-anchor="start" x="659" y="-90" font-family="Helvetica,sans-Serif" font-size="10.00">EonPlay::Data::MetadataExtractor</text>
<text text-anchor="middle" x="741.5" y="-79" font-family="Helvetica,sans-Serif" font-size="10.00">::supportedVideoFormats</text>
</a>
</g>
</g>
<!-- Node4&#45;&gt;Node6 -->
<g id="edge5_Node000004_Node000006" class="edge">
<title>Node4&#45;&gt;Node6</title>
<g id="a_edge5_Node000004_Node000006"><a xlink:title=" ">
<path fill="none" stroke="#63b8ff" d="M615.12,-101C623.57,-100.05 632.17,-99.09 640.7,-98.14"/>
<polygon fill="#63b8ff" stroke="#63b8ff" points="641.13,-101.61 650.68,-97.03 640.35,-94.66 641.13,-101.61"/>
</a>
</g>
</g>
</g>
</svg>
