<?xml version="1.0" encoding="UTF-8" standalone="no"?>
<!DOCTYPE svg PUBLIC "-//W3C//DTD SVG 1.1//EN"
 "http://www.w3.org/Graphics/SVG/1.1/DTD/svg11.dtd">
<!-- Generated by graphviz version 2.43.0 (0)
 -->
<!-- Title: EonPlay::Data::MetadataExtractor::extractMetadataForFiles Pages: 1 -->
<!--zoomable 182 -->

<svg id="main" version="1.1" xmlns="http://www.w3.org/2000/svg" xmlns:xlink="http://www.w3.org/1999/xlink" xml:space="preserve" onload="init(evt)">
<style type="text/css"><![CDATA[
.node, .edge {opacity: 0.7;}
.node.selected, .edge.selected {opacity: 1;}
.edge:hover path { stroke: red; }
.edge:hover polygon { stroke: red; fill: red; }
]]></style>

<defs>
  <circle id="rim" cx="0" cy="0" r="7"/>
  <circle id="rim2" cx="0" cy="0" r="3.5"/>
  <g id="zoomPlus">
    <use xlink:href="#rim" fill="#404040"><set attributeName="fill" to="#808080" begin="zoomplus.mouseover" end="zoomplus.mouseout"/></use>
    <path d="M-4,0h8M0,-4v8" fill="none" stroke="white" stroke-width="1.5" pointer-events="none"/>
  </g>
  <g id="zoomMin">
    <use xlink:href="#rim" fill="#404040"><set attributeName="fill" to="#808080" begin="zoomminus.mouseover" end="zoomminus.mouseout"/></use>
    <path d="M-4,0h8" fill="none" stroke="white" stroke-width="1.5" pointer-events="none"/>
  </g>
  <g id="arrowUp" transform="translate(30 24)">
    <use xlink:href="#rim"/>
    <path pointer-events="none" fill="none" stroke="white" stroke-width="1.5" d="M0,-3.0v7 M-2.5,-0.5L0,-3.0L2.5,-0.5"/>
  </g>
  <g id="arrowRight" transform="rotate(90) translate(36 -43)">
    <use xlink:href="#rim"/>
    <path pointer-events="none" fill="none" stroke="white" stroke-width="1.5" d="M0,-3.0v7 M-2.5,-0.5L0,-3.0L2.5,-0.5"/>
  </g>
  <g id="arrowDown" transform="rotate(180) translate(-30 -48)">
    <use xlink:href="#rim"/>
    <path pointer-events="none" fill="none" stroke="white" stroke-width="1.5" d="M0,-3.0v7 M-2.5,-0.5L0,-3.0L2.5,-0.5"/>
  </g>
  <g id="arrowLeft" transform="rotate(270) translate(-36 17)">
    <use xlink:href="#rim"/>
    <path pointer-events="none" fill="none" stroke="white" stroke-width="1.5" d="M0,-3.0v7 M-2.5,-0.5L0,-3.0L2.5,-0.5"/>
  </g>
  <g id="resetDef">
    <use xlink:href="#rim2" fill="#404040"><set attributeName="fill" to="#808080" begin="reset.mouseover" end="reset.mouseout"/></use>
  </g>
</defs>
<script type="application/ecmascript">
var viewWidth = 840;
var viewHeight = 182;
var sectionId = 'dynsection-9';
</script>
<script type="application/ecmascript" xlink:href="../../svg.min.js"/>
<svg id="graph" class="graph">
<g id="viewport">
<title>EonPlay::Data::MetadataExtractor::extractMetadataForFiles</title>
<!-- Node1 -->
<g id="Node000001" class="node">
<title>Node1</title>
<g id="a_Node000001"><a xlink:title=" ">
<polygon fill="#999999" stroke="#666666" points="181,-102 0,-102 0,-72 181,-72 181,-102"/>
<text text-anchor="start" x="8" y="-90" font-family="Helvetica,sans-Serif" font-size="10.00">EonPlay::Data::MetadataExtractor</text>
<text text-anchor="middle" x="90.5" y="-79" font-family="Helvetica,sans-Serif" font-size="10.00">::extractMetadataForFiles</text>
</a>
</g>
</g>
<!-- Node2 -->
<g id="Node000002" class="node">
<title>Node2</title>
<g id="a_Node000002"><a xlink:href="../../d9/dad/classEonPlay_1_1Data_1_1MetadataExtractor.html#addd2291deb953e44f7473aa957751aac" target="_top" xlink:title=" ">
<polygon fill="white" stroke="#666666" points="398,-102 217,-102 217,-72 398,-72 398,-102"/>
<text text-anchor="start" x="225" y="-90" font-family="Helvetica,sans-Serif" font-size="10.00">EonPlay::Data::MetadataExtractor</text>
<text text-anchor="middle" x="307.5" y="-79" font-family="Helvetica,sans-Serif" font-size="10.00">::extractMetadata</text>
</a>
</g>
</g>
<!-- Node1&#45;&gt;Node2 -->
<g id="edge1_Node000001_Node000002" class="edge">
<title>Node1&#45;&gt;Node2</title>
<g id="a_edge1_Node000001_Node000002"><a xlink:title=" ">
<path fill="none" stroke="#63b8ff" d="M181.12,-87C189.48,-87 197.98,-87 206.42,-87"/>
<polygon fill="#63b8ff" stroke="#63b8ff" points="206.68,-90.5 216.68,-87 206.68,-83.5 206.68,-90.5"/>
</a>
</g>
</g>
<!-- Node3 -->
<g id="Node000003" class="node">
<title>Node3</title>
<g id="a_Node000003"><a xlink:href="../../d9/dad/classEonPlay_1_1Data_1_1MetadataExtractor.html#a1a5bc782c9c182db44137edf51a90d46" target="_top" xlink:title=" ">
<polygon fill="white" stroke="#666666" points="615,-174 434,-174 434,-144 615,-144 615,-174"/>
<text text-anchor="start" x="442" y="-162" font-family="Helvetica,sans-Serif" font-size="10.00">EonPlay::Data::MetadataExtractor</text>
<text text-anchor="middle" x="524.5" y="-151" font-family="Helvetica,sans-Serif" font-size="10.00">::enhanceMetadataFromWeb</text>
</a>
</g>
</g>
<!-- Node2&#45;&gt;Node3 -->
<g id="edge2_Node000002_Node000003" class="edge">
<title>Node2&#45;&gt;Node3</title>
<g id="a_edge2_Node000002_Node000003"><a xlink:title=" ">
<path fill="none" stroke="#63b8ff" d="M344.94,-102.08C369.8,-112.09 403.6,-125.14 434,-135 440.48,-137.1 447.26,-139.16 454.07,-141.14"/>
<polygon fill="#63b8ff" stroke="#63b8ff" points="453.46,-144.61 464.03,-143.98 455.37,-137.87 453.46,-144.61"/>
</a>
</g>
</g>
<!-- Node4 -->
<g id="Node000004" class="node">
<title>Node4</title>
<g id="a_Node000004"><a xlink:href="../../d9/dad/classEonPlay_1_1Data_1_1MetadataExtractor.html#a41bace79f4aa2bfcf0a6b0992a587c74" target="_top" xlink:title=" ">
<polygon fill="white" stroke="#666666" points="615,-126 434,-126 434,-96 615,-96 615,-126"/>
<text text-anchor="start" x="442" y="-114" font-family="Helvetica,sans-Serif" font-size="10.00">EonPlay::Data::MetadataExtractor</text>
<text text-anchor="middle" x="524.5" y="-103" font-family="Helvetica,sans-Serif" font-size="10.00">::isFormatSupported</text>
</a>
</g>
</g>
<!-- Node2&#45;&gt;Node4 -->
<g id="edge3_Node000002_Node000004" class="edge">
<title>Node2&#45;&gt;Node4</title>
<g id="a_edge3_Node000002_Node000004"><a xlink:title=" ">
<path fill="none" stroke="#63b8ff" d="M398.12,-97C406.57,-97.95 415.17,-98.91 423.7,-99.86"/>
<polygon fill="#63b8ff" stroke="#63b8ff" points="423.35,-103.34 433.68,-100.97 424.13,-96.39 423.35,-103.34"/>
</a>
</g>
</g>
<!-- Node7 -->
<g id="Node000007" class="node">
<title>Node7</title>
<g id="a_Node000007"><a xlink:href="../../d9/dad/classEonPlay_1_1Data_1_1MetadataExtractor.html#a99408145896e865a32cb5ca8d7038faf" target="_top" xlink:title=" ">
<polygon fill="white" stroke="#666666" points="615,-78 434,-78 434,-48 615,-48 615,-78"/>
<text text-anchor="start" x="442" y="-66" font-family="Helvetica,sans-Serif" font-size="10.00">EonPlay::Data::MetadataExtractor</text>
<text text-anchor="middle" x="524.5" y="-55" font-family="Helvetica,sans-Serif" font-size="10.00">::metadataExtracted</text>
</a>
</g>
</g>
<!-- Node2&#45;&gt;Node7 -->
<g id="edge6_Node000002_Node000007" class="edge">
<title>Node2&#45;&gt;Node7</title>
<g id="a_edge6_Node000002_Node000007"><a xlink:title=" ">
<path fill="none" stroke="#63b8ff" d="M398.12,-77C406.57,-76.05 415.17,-75.09 423.7,-74.14"/>
<polygon fill="#63b8ff" stroke="#63b8ff" points="424.13,-77.61 433.68,-73.03 423.35,-70.66 424.13,-77.61"/>
</a>
</g>
</g>
<!-- Node8 -->
<g id="Node000008" class="node">
<title>Node8</title>
<g id="a_Node000008"><a xlink:href="../../d9/dad/classEonPlay_1_1Data_1_1MetadataExtractor.html#aa0f55bf461d2227bcbf8a17b6632781b" target="_top" xlink:title=" ">
<polygon fill="white" stroke="#666666" points="615,-30 434,-30 434,0 615,0 615,-30"/>
<text text-anchor="start" x="442" y="-18" font-family="Helvetica,sans-Serif" font-size="10.00">EonPlay::Data::MetadataExtractor</text>
<text text-anchor="middle" x="524.5" y="-7" font-family="Helvetica,sans-Serif" font-size="10.00">::metadataExtractionFailed</text>
</a>
</g>
</g>
<!-- Node2&#45;&gt;Node8 -->
<g id="edge7_Node000002_Node000008" class="edge">
<title>Node2&#45;&gt;Node8</title>
<g id="a_edge7_Node000002_Node000008"><a xlink:title=" ">
<path fill="none" stroke="#63b8ff" d="M344.94,-71.92C369.8,-61.91 403.6,-48.86 434,-39 440.48,-36.9 447.26,-34.84 454.07,-32.86"/>
<polygon fill="#63b8ff" stroke="#63b8ff" points="455.37,-36.13 464.03,-30.02 453.46,-29.39 455.37,-36.13"/>
</a>
</g>
</g>
<!-- Node5 -->
<g id="Node000005" class="node">
<title>Node5</title>
<g id="a_Node000005"><a xlink:href="../../d9/dad/classEonPlay_1_1Data_1_1MetadataExtractor.html#a84dc14928f2d0eb0085aa2a9aeac7618" target="_top" xlink:title=" ">
<polygon fill="white" stroke="#666666" points="832,-150 651,-150 651,-120 832,-120 832,-150"/>
<text text-anchor="start" x="659" y="-138" font-family="Helvetica,sans-Serif" font-size="10.00">EonPlay::Data::MetadataExtractor</text>
<text text-anchor="middle" x="741.5" y="-127" font-family="Helvetica,sans-Serif" font-size="10.00">::supportedAudioFormats</text>
</a>
</g>
</g>
<!-- Node4&#45;&gt;Node5 -->
<g id="edge4_Node000004_Node000005" class="edge">
<title>Node4&#45;&gt;Node5</title>
<g id="a_edge4_Node000004_Node000005"><a xlink:title=" ">
<path fill="none" stroke="#63b8ff" d="M615.12,-121C623.57,-121.95 632.17,-122.91 640.7,-123.86"/>
<polygon fill="#63b8ff" stroke="#63b8ff" points="640.35,-127.34 650.68,-124.97 641.13,-120.39 640.35,-127.34"/>
</a>
</g>
</g>
<!-- Node6 -->
<g id="Node000006" class="node">
<title>Node6</title>
<g id="a_Node000006"><a xlink:href="../../d9/dad/classEonPlay_1_1Data_1_1MetadataExtractor.html#a699a1bbb03101ea089b4fab5903690dd" target="_top" xlink:title=" ">
<polygon fill="white" stroke="#666666" points="832,-102 651,-102 651,-72 832,-72 832,-102"/>
<text text-anchor="start" x="659" y="-90" font-family="Helvetica,sans-Serif" font-size="10.00">EonPlay::Data::MetadataExtractor</text>
<text text-anchor="middle" x="741.5" y="-79" font-family="Helvetica,sans-Serif" font-size="10.00">::supportedVideoFormats</text>
</a>
</g>
</g>
<!-- Node4&#45;&gt;Node6 -->
<g id="edge5_Node000004_Node000006" class="edge">
<title>Node4&#45;&gt;Node6</title>
<g id="a_edge5_Node000004_Node000006"><a xlink:title=" ">
<path fill="none" stroke="#63b8ff" d="M615.12,-101C623.57,-100.05 632.17,-99.09 640.7,-98.14"/>
<polygon fill="#63b8ff" stroke="#63b8ff" points="641.13,-101.61 650.68,-97.03 640.35,-94.66 641.13,-101.61"/>
</a>
</g>
</g>
</g>
</svg>

<g id="navigator" transform="translate(0 0)" fill="#404254">
  <rect fill="#f2f5e9" fill-opacity="0.5" stroke="#606060" stroke-width=".5" x="0" y="0" width="60" height="60"/>
  <use id="zoomplus" xlink:href="#zoomPlus" x="17" y="9" onmousedown="handleZoom(evt,'in')"/>
  <use id="zoomminus" xlink:href="#zoomMin" x="42" y="9" onmousedown="handleZoom(evt,'out')"/>
  <use id="reset" xlink:href="#resetDef" x="30" y="36" onmousedown="handleReset()"/>
   <use id="arrowup" xlink:href="#arrowUp" x="0" y="0" onmousedown="handlePan(0,-1)"/>
  <use id="arrowright" xlink:href="#arrowRight" x="0" y="0" onmousedown="handlePan(1,0)"/>
  <use id="arrowdown" xlink:href="#arrowDown" x="0" y="0" onmousedown="handlePan(0,1)"/>
  <use id="arrowleft" xlink:href="#arrowLeft" x="0" y="0" onmousedown="handlePan(-1,0)"/>
</g>
<svg viewBox="0 0 15 15" width="100%" height="30px" preserveAspectRatio="xMaxYMin meet">
 <g id="arrow_out" transform="scale(0.3 0.3)">
  <a xlink:href="classEonPlay_1_1Data_1_1MetadataExtractor_a66f555380eb93b41469f69c4a8a7c537_cgraph_org.svg" target="_base">
   <rect id="button" ry="5" rx="5" y="6" x="6" height="38" width="38"
        fill="#f2f5e9" fill-opacity="0.5" stroke="#606060" stroke-width="1.0"/>
   <path id="arrow"
     d="M 11.500037,31.436501 C 11.940474,20.09759 22.043105,11.32322 32.158766,21.979434 L 37.068811,17.246167 C 37.068811,17.246167 37.088388,32 37.088388,32 L 22.160133,31.978069 C 22.160133,31.978069 26.997745,27.140456 26.997745,27.140456 C 18.528582,18.264221 13.291696,25.230495 11.500037,31.436501 z"
     style="fill:#404040;"/>
  </a>
 </g>
</svg>

<style type='text/css'>
<![CDATA[
[data-mouse-over-selected='false'] { opacity: 0.7; }
[data-mouse-over-selected='true']  { opacity: 1.0; }
]]>
</style>
<script type="application/ecmascript"><![CDATA[
document.addEventListener('DOMContentLoaded', (event) => {
  highlightEdges();
  highlightAdjacentNodes();
});
]]></script>
</svg>
