<?xml version="1.0" encoding="UTF-8" standalone="no"?>
<!DOCTYPE svg PUBLIC "-//W3C//DTD SVG 1.1//EN"
 "http://www.w3.org/Graphics/SVG/1.1/DTD/svg11.dtd">
<!-- Generated by graphviz version 2.43.0 (0)
 -->
<!-- Title: BaseSubtitleParser Pages: 1 -->
<svg width="139pt" height="472pt"
 viewBox="0.00 0.00 139.00 472.00" xmlns="http://www.w3.org/2000/svg" xmlns:xlink="http://www.w3.org/1999/xlink">
<g id="graph0" class="graph" transform="scale(1 1) rotate(0) translate(4 468)">
<title>BaseSubtitleParser</title>
<!-- Node1 -->
<g id="Node000001" class="node">
<title>Node1</title>
<g id="a_Node000001"><a xlink:title="Base implementation of ISubtitleParser with common functionality.">
<polygon fill="#999999" stroke="transparent" points="130,-214 1,-214 1,0 130,0 130,-214"/>
<text text-anchor="start" x="20" y="-202" font-family="Helvetica,sans-Serif" font-size="10.00">BaseSubtitleParser</text>
<text text-anchor="start" x="64" y="-187" font-family="Helvetica,sans-Serif" font-size="10.00"> </text>
<text text-anchor="start" x="5.5" y="-172" font-family="Helvetica,sans-Serif" font-size="10.00">+</text>
<text text-anchor="start" x="18.5" y="-172" font-family="Helvetica,sans-Serif" font-size="10.00">BaseSubtitleParser()</text>
<text text-anchor="start" x="5.5" y="-157" font-family="Helvetica,sans-Serif" font-size="10.00">+</text>
<text text-anchor="start" x="18.5" y="-157" font-family="Helvetica,sans-Serif" font-size="10.00">~BaseSubtitleParser()</text>
<text text-anchor="start" x="5.5" y="-142" font-family="Helvetica,sans-Serif" font-size="10.00">+</text>
<text text-anchor="start" x="18.5" y="-142" font-family="Helvetica,sans-Serif" font-size="10.00">validateFile()</text>
<text text-anchor="start" x="5.5" y="-127" font-family="Helvetica,sans-Serif" font-size="10.00">+</text>
<text text-anchor="start" x="18.5" y="-127" font-family="Helvetica,sans-Serif" font-size="10.00">validateContent()</text>
<text text-anchor="start" x="5.5" y="-112" font-family="Helvetica,sans-Serif" font-size="10.00">+</text>
<text text-anchor="start" x="18.5" y="-112" font-family="Helvetica,sans-Serif" font-size="10.00">maxFileSize()</text>
<text text-anchor="start" x="5.5" y="-97" font-family="Helvetica,sans-Serif" font-size="10.00">+</text>
<text text-anchor="start" x="18.5" y="-97" font-family="Helvetica,sans-Serif" font-size="10.00">maxEntries()</text>
<text text-anchor="start" x="5.5" y="-82" font-family="Helvetica,sans-Serif" font-size="10.00">+</text>
<text text-anchor="start" x="18.5" y="-82" font-family="Helvetica,sans-Serif" font-size="10.00">detectEncoding()</text>
<text text-anchor="start" x="5.5" y="-67" font-family="Helvetica,sans-Serif" font-size="10.00">#</text>
<text text-anchor="start" x="18.5" y="-67" font-family="Helvetica,sans-Serif" font-size="10.00">readFileContent()</text>
<text text-anchor="start" x="5.5" y="-52" font-family="Helvetica,sans-Serif" font-size="10.00">#</text>
<text text-anchor="start" x="18.5" y="-52" font-family="Helvetica,sans-Serif" font-size="10.00">sanitizeText()</text>
<text text-anchor="start" x="5.5" y="-37" font-family="Helvetica,sans-Serif" font-size="10.00">#</text>
<text text-anchor="start" x="18.5" y="-37" font-family="Helvetica,sans-Serif" font-size="10.00">isSafeText()</text>
<text text-anchor="start" x="5.5" y="-22" font-family="Helvetica,sans-Serif" font-size="10.00">#</text>
<text text-anchor="start" x="18.5" y="-22" font-family="Helvetica,sans-Serif" font-size="10.00">parseGenericTime()</text>
<text text-anchor="start" x="5.5" y="-7" font-family="Helvetica,sans-Serif" font-size="10.00">#</text>
<text text-anchor="start" x="18.5" y="-7" font-family="Helvetica,sans-Serif" font-size="10.00">cleanupText()</text>
<polygon fill="#666666" stroke="#666666" points="1.5,-197 1.5,-197 130.5,-197 130.5,-197 1.5,-197"/>
<polygon fill="#666666" stroke="#666666" points="1.5,-182 1.5,-182 130.5,-182 130.5,-182 1.5,-182"/>
<polygon fill="none" stroke="#666666" points="1,0 1,-214 130,-214 130,0 1,0"/>
</a>
</g>
</g>
<!-- Node2 -->
<g id="Node000002" class="node">
<title>Node2</title>
<g id="a_Node000002"><a xlink:href="../../d3/dc3/classISubtitleParser.html" target="_top" xlink:title="Abstract interface for subtitle format parsers.">
<polygon fill="white" stroke="transparent" points="131,-464 0,-464 0,-250 131,-250 131,-464"/>
<text text-anchor="start" x="30.5" y="-452" font-family="Helvetica,sans-Serif" font-size="10.00">ISubtitleParser</text>
<text text-anchor="start" x="64" y="-437" font-family="Helvetica,sans-Serif" font-size="10.00"> </text>
<text text-anchor="start" x="4.5" y="-422" font-family="Helvetica,sans-Serif" font-size="10.00">+</text>
<text text-anchor="start" x="17.5" y="-422" font-family="Helvetica,sans-Serif" font-size="10.00">~ISubtitleParser()</text>
<text text-anchor="start" x="4.5" y="-407" font-family="Helvetica,sans-Serif" font-size="10.00">+</text>
<text text-anchor="start" x="17.5" y="-407" font-family="Helvetica,sans-Serif" font-size="10.00">parserName()</text>
<text text-anchor="start" x="4.5" y="-392" font-family="Helvetica,sans-Serif" font-size="10.00">+</text>
<text text-anchor="start" x="17.5" y="-392" font-family="Helvetica,sans-Serif" font-size="10.00">supportedExtensions()</text>
<text text-anchor="start" x="4.5" y="-377" font-family="Helvetica,sans-Serif" font-size="10.00">+</text>
<text text-anchor="start" x="17.5" y="-377" font-family="Helvetica,sans-Serif" font-size="10.00">canParse()</text>
<text text-anchor="start" x="4.5" y="-362" font-family="Helvetica,sans-Serif" font-size="10.00">+</text>
<text text-anchor="start" x="17.5" y="-362" font-family="Helvetica,sans-Serif" font-size="10.00">canParseContent()</text>
<text text-anchor="start" x="4.5" y="-347" font-family="Helvetica,sans-Serif" font-size="10.00">+</text>
<text text-anchor="start" x="17.5" y="-347" font-family="Helvetica,sans-Serif" font-size="10.00">parseFile()</text>
<text text-anchor="start" x="4.5" y="-332" font-family="Helvetica,sans-Serif" font-size="10.00">+</text>
<text text-anchor="start" x="17.5" y="-332" font-family="Helvetica,sans-Serif" font-size="10.00">parseContent()</text>
<text text-anchor="start" x="4.5" y="-317" font-family="Helvetica,sans-Serif" font-size="10.00">+</text>
<text text-anchor="start" x="17.5" y="-317" font-family="Helvetica,sans-Serif" font-size="10.00">validateFile()</text>
<text text-anchor="start" x="4.5" y="-302" font-family="Helvetica,sans-Serif" font-size="10.00">+</text>
<text text-anchor="start" x="17.5" y="-302" font-family="Helvetica,sans-Serif" font-size="10.00">validateContent()</text>
<text text-anchor="start" x="4.5" y="-287" font-family="Helvetica,sans-Serif" font-size="10.00">+</text>
<text text-anchor="start" x="17.5" y="-287" font-family="Helvetica,sans-Serif" font-size="10.00">maxFileSize()</text>
<text text-anchor="start" x="4.5" y="-272" font-family="Helvetica,sans-Serif" font-size="10.00">+</text>
<text text-anchor="start" x="17.5" y="-272" font-family="Helvetica,sans-Serif" font-size="10.00">maxEntries()</text>
<text text-anchor="start" x="4.5" y="-257" font-family="Helvetica,sans-Serif" font-size="10.00">+</text>
<text text-anchor="start" x="17.5" y="-257" font-family="Helvetica,sans-Serif" font-size="10.00">detectEncoding()</text>
<polygon fill="#666666" stroke="#666666" points="0.5,-447 0.5,-447 131.5,-447 131.5,-447 0.5,-447"/>
<polygon fill="#666666" stroke="#666666" points="0.5,-432 0.5,-432 131.5,-432 131.5,-432 0.5,-432"/>
<polygon fill="none" stroke="#666666" points="0,-250 0,-464 131,-464 131,-250 0,-250"/>
</a>
</g>
</g>
<!-- Node2&#45;&gt;Node1 -->
<g id="edge1_Node000001_Node000002" class="edge">
<title>Node2&#45;&gt;Node1</title>
<g id="a_edge1_Node000001_Node000002"><a xlink:title=" ">
<path fill="none" stroke="#63b8ff" d="M65.5,-239.72C65.5,-231.15 65.5,-222.54 65.5,-214.03"/>
<polygon fill="none" stroke="#63b8ff" points="62,-239.75 65.5,-249.75 69,-239.75 62,-239.75"/>
</a>
</g>
</g>
</g>
</svg>
