<?xml version="1.0" encoding="UTF-8" standalone="no"?>
<!DOCTYPE svg PUBLIC "-//W3C//DTD SVG 1.1//EN"
 "http://www.w3.org/Graphics/SVG/1.1/DTD/svg11.dtd">
<!-- Generated by graphviz version 2.43.0 (0)
 -->
<!-- Title: SecurityManager::securityMonitoringStateChanged Pages: 1 -->
<svg width="551pt" height="86pt"
 viewBox="0.00 0.00 551.00 86.00" xmlns="http://www.w3.org/2000/svg" xmlns:xlink="http://www.w3.org/1999/xlink">
<g id="graph0" class="graph" transform="scale(1 1) rotate(0) translate(4 82)">
<title>SecurityManager::securityMonitoringStateChanged</title>
<!-- Node1 -->
<g id="Node000001" class="node">
<title>Node1</title>
<g id="a_Node000001"><a xlink:title=" ">
<polygon fill="#999999" stroke="#666666" points="543,-54 399,-54 399,-24 543,-24 543,-54"/>
<text text-anchor="start" x="407" y="-42" font-family="Helvetica,sans-Serif" font-size="10.00">SecurityManager::security</text>
<text text-anchor="middle" x="471" y="-31" font-family="Helvetica,sans-Serif" font-size="10.00">MonitoringStateChanged</text>
</a>
</g>
</g>
<!-- Node2 -->
<g id="Node000002" class="node">
<title>Node2</title>
<g id="a_Node000002"><a xlink:href="../../d0/d59/classSecurityManager.html#acf355a7762ac78ad43728ac68edb8fbe" target="_top" xlink:title=" ">
<polygon fill="white" stroke="#666666" points="363,-78 196,-78 196,-48 363,-48 363,-78"/>
<text text-anchor="start" x="204" y="-66" font-family="Helvetica,sans-Serif" font-size="10.00">SecurityManager::startSecurity</text>
<text text-anchor="middle" x="279.5" y="-55" font-family="Helvetica,sans-Serif" font-size="10.00">Monitoring</text>
</a>
</g>
</g>
<!-- Node1&#45;&gt;Node2 -->
<g id="edge1_Node000001_Node000002" class="edge">
<title>Node1&#45;&gt;Node2</title>
<g id="a_edge1_Node000001_Node000002"><a xlink:title=" ">
<path fill="none" stroke="#63b8ff" d="M388.96,-49.26C380.42,-50.35 371.72,-51.45 363.16,-52.53"/>
<polygon fill="#63b8ff" stroke="#63b8ff" points="389.42,-52.73 398.9,-48 388.54,-45.79 389.42,-52.73"/>
</a>
</g>
</g>
<!-- Node4 -->
<g id="Node000004" class="node">
<title>Node4</title>
<g id="a_Node000004"><a xlink:href="../../d0/d59/classSecurityManager.html#a0820217e1d698d7767a5138bc8908539" target="_top" xlink:title=" ">
<polygon fill="white" stroke="#666666" points="362.5,-30 196.5,-30 196.5,0 362.5,0 362.5,-30"/>
<text text-anchor="start" x="204.5" y="-18" font-family="Helvetica,sans-Serif" font-size="10.00">SecurityManager::stopSecurity</text>
<text text-anchor="middle" x="279.5" y="-7" font-family="Helvetica,sans-Serif" font-size="10.00">Monitoring</text>
</a>
</g>
</g>
<!-- Node1&#45;&gt;Node4 -->
<g id="edge3_Node000001_Node000004" class="edge">
<title>Node1&#45;&gt;Node4</title>
<g id="a_edge3_Node000001_Node000004"><a xlink:title=" ">
<path fill="none" stroke="#63b8ff" d="M388.78,-28.71C380.08,-27.61 371.23,-26.49 362.52,-25.39"/>
<polygon fill="#63b8ff" stroke="#63b8ff" points="388.54,-32.21 398.9,-30 389.42,-25.27 388.54,-32.21"/>
</a>
</g>
</g>
<!-- Node3 -->
<g id="Node000003" class="node">
<title>Node3</title>
<g id="a_Node000003"><a xlink:href="../../d0/d59/classSecurityManager.html#a4416e4653b2a367bf7fb0ec632bfa84e" target="_top" xlink:title=" ">
<polygon fill="white" stroke="#666666" points="160,-78 0,-78 0,-48 160,-48 160,-78"/>
<text text-anchor="start" x="8" y="-66" font-family="Helvetica,sans-Serif" font-size="10.00">SecurityManager::setSecurity</text>
<text text-anchor="middle" x="80" y="-55" font-family="Helvetica,sans-Serif" font-size="10.00">Level</text>
</a>
</g>
</g>
<!-- Node2&#45;&gt;Node3 -->
<g id="edge2_Node000002_Node000003" class="edge">
<title>Node2&#45;&gt;Node3</title>
<g id="a_edge2_Node000002_Node000003"><a xlink:title=" ">
<path fill="none" stroke="#63b8ff" d="M185.84,-63C177.24,-63 168.58,-63 160.12,-63"/>
<polygon fill="#63b8ff" stroke="#63b8ff" points="185.89,-66.5 195.89,-63 185.89,-59.5 185.89,-66.5"/>
</a>
</g>
</g>
<!-- Node4&#45;&gt;Node3 -->
<g id="edge4_Node000004_Node000003" class="edge">
<title>Node4&#45;&gt;Node3</title>
<g id="a_edge4_Node000004_Node000003"><a xlink:title=" ">
<path fill="none" stroke="#63b8ff" d="M206.73,-32.44C185.76,-37.54 163.02,-43.07 142.73,-48"/>
<polygon fill="#63b8ff" stroke="#63b8ff" points="207.66,-35.82 216.55,-30.06 206.01,-29.02 207.66,-35.82"/>
</a>
</g>
</g>
<!-- Node5 -->
<g id="Node000005" class="node">
<title>Node5</title>
<g id="a_Node000005"><a xlink:href="../../d0/d59/classSecurityManager.html#a98af63400f7f0dd68039bbcaca7e4a91" target="_top" xlink:title=" ">
<polygon fill="white" stroke="#666666" points="156.5,-30 3.5,-30 3.5,0 156.5,0 156.5,-30"/>
<text text-anchor="start" x="11.5" y="-18" font-family="Helvetica,sans-Serif" font-size="10.00">SecurityManager::~Security</text>
<text text-anchor="middle" x="80" y="-7" font-family="Helvetica,sans-Serif" font-size="10.00">Manager</text>
</a>
</g>
</g>
<!-- Node4&#45;&gt;Node5 -->
<g id="edge5_Node000004_Node000005" class="edge">
<title>Node4&#45;&gt;Node5</title>
<g id="a_edge5_Node000004_Node000005"><a xlink:title=" ">
<path fill="none" stroke="#63b8ff" d="M186.23,-15C176.37,-15 166.42,-15 156.78,-15"/>
<polygon fill="#63b8ff" stroke="#63b8ff" points="186.46,-18.5 196.46,-15 186.46,-11.5 186.46,-18.5"/>
</a>
</g>
</g>
</g>
</svg>
