<?xml version="1.0" encoding="UTF-8" standalone="no"?>
<!DOCTYPE svg PUBLIC "-//W3C//DTD SVG 1.1//EN"
 "http://www.w3.org/Graphics/SVG/1.1/DTD/svg11.dtd">
<!-- Generated by graphviz version 2.43.0 (0)
 -->
<!-- Title: SecurityManager::validateMediaFile Pages: 1 -->
<!--zoomable 210 -->

<svg id="main" version="1.1" xmlns="http://www.w3.org/2000/svg" xmlns:xlink="http://www.w3.org/1999/xlink" xml:space="preserve" onload="init(evt)">
<style type="text/css"><![CDATA[
.node, .edge {opacity: 0.7;}
.node.selected, .edge.selected {opacity: 1;}
.edge:hover path { stroke: red; }
.edge:hover polygon { stroke: red; fill: red; }
]]></style>

<defs>
  <circle id="rim" cx="0" cy="0" r="7"/>
  <circle id="rim2" cx="0" cy="0" r="3.5"/>
  <g id="zoomPlus">
    <use xlink:href="#rim" fill="#404040"><set attributeName="fill" to="#808080" begin="zoomplus.mouseover" end="zoomplus.mouseout"/></use>
    <path d="M-4,0h8M0,-4v8" fill="none" stroke="white" stroke-width="1.5" pointer-events="none"/>
  </g>
  <g id="zoomMin">
    <use xlink:href="#rim" fill="#404040"><set attributeName="fill" to="#808080" begin="zoomminus.mouseover" end="zoomminus.mouseout"/></use>
    <path d="M-4,0h8" fill="none" stroke="white" stroke-width="1.5" pointer-events="none"/>
  </g>
  <g id="arrowUp" transform="translate(30 24)">
    <use xlink:href="#rim"/>
    <path pointer-events="none" fill="none" stroke="white" stroke-width="1.5" d="M0,-3.0v7 M-2.5,-0.5L0,-3.0L2.5,-0.5"/>
  </g>
  <g id="arrowRight" transform="rotate(90) translate(36 -43)">
    <use xlink:href="#rim"/>
    <path pointer-events="none" fill="none" stroke="white" stroke-width="1.5" d="M0,-3.0v7 M-2.5,-0.5L0,-3.0L2.5,-0.5"/>
  </g>
  <g id="arrowDown" transform="rotate(180) translate(-30 -48)">
    <use xlink:href="#rim"/>
    <path pointer-events="none" fill="none" stroke="white" stroke-width="1.5" d="M0,-3.0v7 M-2.5,-0.5L0,-3.0L2.5,-0.5"/>
  </g>
  <g id="arrowLeft" transform="rotate(270) translate(-36 17)">
    <use xlink:href="#rim"/>
    <path pointer-events="none" fill="none" stroke="white" stroke-width="1.5" d="M0,-3.0v7 M-2.5,-0.5L0,-3.0L2.5,-0.5"/>
  </g>
  <g id="resetDef">
    <use xlink:href="#rim2" fill="#404040"><set attributeName="fill" to="#808080" begin="reset.mouseover" end="reset.mouseout"/></use>
  </g>
</defs>
<script type="application/ecmascript">
var viewWidth = 779;
var viewHeight = 210;
var sectionId = 'dynsection-29';
</script>
<script type="application/ecmascript" xlink:href="../../svg.min.js"/>
<svg id="graph" class="graph">
<g id="viewport">
<title>SecurityManager::validateMediaFile</title>
<!-- Node1 -->
<g id="Node000001" class="node">
<title>Node1</title>
<g id="a_Node000001"><a xlink:title=" ">
<polygon fill="#999999" stroke="#666666" points="145,-116 0,-116 0,-86 145,-86 145,-116"/>
<text text-anchor="start" x="8" y="-104" font-family="Helvetica,sans-Serif" font-size="10.00">SecurityManager::validate</text>
<text text-anchor="middle" x="72.5" y="-93" font-family="Helvetica,sans-Serif" font-size="10.00">MediaFile</text>
</a>
</g>
</g>
<!-- Node2 -->
<g id="Node000002" class="node">
<title>Node2</title>
<g id="a_Node000002"><a xlink:href="../../d0/d59/classSecurityManager.html#a6c3bdbbe1b7300c9ccaa4650e0320ce3" target="_top" xlink:title=" ">
<polygon fill="white" stroke="#666666" points="342,-202 193,-202 193,-172 342,-172 342,-202"/>
<text text-anchor="start" x="201" y="-190" font-family="Helvetica,sans-Serif" font-size="10.00">SecurityManager::calculate</text>
<text text-anchor="middle" x="267.5" y="-179" font-family="Helvetica,sans-Serif" font-size="10.00">FileHash</text>
</a>
</g>
</g>
<!-- Node1&#45;&gt;Node2 -->
<g id="edge1_Node000001_Node000002" class="edge">
<title>Node1&#45;&gt;Node2</title>
<g id="a_edge1_Node000001_Node000002"><a xlink:title=" ">
<path fill="none" stroke="#63b8ff" d="M95.71,-116.02C116.88,-129.79 150.02,-149.96 181,-163 185.76,-165 190.74,-166.9 195.8,-168.67"/>
<polygon fill="#63b8ff" stroke="#63b8ff" points="195,-172.09 205.6,-171.93 197.22,-165.45 195,-172.09"/>
</a>
</g>
</g>
<!-- Node3 -->
<g id="Node000003" class="node">
<title>Node3</title>
<g id="a_Node000003"><a xlink:href="../../d0/d59/classSecurityManager.html#aaef34ebaf26845ba3135a1e848eb5851" target="_top" xlink:title=" ">
<polygon fill="white" stroke="#666666" points="351,-153.5 184,-153.5 184,-134.5 351,-134.5 351,-153.5"/>
<text text-anchor="middle" x="267.5" y="-141.5" font-family="Helvetica,sans-Serif" font-size="10.00">SecurityManager::detectThreat</text>
</a>
</g>
</g>
<!-- Node1&#45;&gt;Node3 -->
<g id="edge2_Node000001_Node000003" class="edge">
<title>Node1&#45;&gt;Node3</title>
<g id="a_edge2_Node000001_Node000003"><a xlink:title=" ">
<path fill="none" stroke="#63b8ff" d="M140.88,-116.05C154.18,-119.02 168.03,-122.11 181,-125 191.46,-127.33 202.64,-129.82 213.35,-132.2"/>
<polygon fill="#63b8ff" stroke="#63b8ff" points="212.92,-135.69 223.44,-134.44 214.44,-128.85 212.92,-135.69"/>
</a>
</g>
</g>
<!-- Node7 -->
<g id="Node000007" class="node">
<title>Node7</title>
<g id="a_Node000007"><a xlink:href="../../d0/d59/classSecurityManager.html#a9664e0e3734f8e79704205911b9bbe3c" target="_top" xlink:title=" ">
<polygon fill="white" stroke="#666666" points="352,-116 183,-116 183,-86 352,-86 352,-116"/>
<text text-anchor="start" x="191" y="-104" font-family="Helvetica,sans-Serif" font-size="10.00">SecurityManager::fileValidation</text>
<text text-anchor="middle" x="267.5" y="-93" font-family="Helvetica,sans-Serif" font-size="10.00">Completed</text>
</a>
</g>
</g>
<!-- Node1&#45;&gt;Node7 -->
<g id="edge6_Node000001_Node000007" class="edge">
<title>Node1&#45;&gt;Node7</title>
<g id="a_edge6_Node000001_Node000007"><a xlink:title=" ">
<path fill="none" stroke="#63b8ff" d="M145.09,-101C154.15,-101 163.53,-101 172.86,-101"/>
<polygon fill="#63b8ff" stroke="#63b8ff" points="172.97,-104.5 182.97,-101 172.97,-97.5 172.97,-104.5"/>
</a>
</g>
</g>
<!-- Node8 -->
<g id="Node000008" class="node">
<title>Node8</title>
<g id="a_Node000008"><a xlink:href="../../d0/d59/classSecurityManager.html#a2f6ae24144e016a768062a5e42d6a14e" target="_top" xlink:title=" ">
<polygon fill="white" stroke="#666666" points="354,-67.5 181,-67.5 181,-48.5 354,-48.5 354,-67.5"/>
<text text-anchor="middle" x="267.5" y="-55.5" font-family="Helvetica,sans-Serif" font-size="10.00">SecurityManager::isFilePathSafe</text>
</a>
</g>
</g>
<!-- Node1&#45;&gt;Node8 -->
<g id="edge7_Node000001_Node000008" class="edge">
<title>Node1&#45;&gt;Node8</title>
<g id="a_edge7_Node000001_Node000008"><a xlink:title=" ">
<path fill="none" stroke="#63b8ff" d="M140.88,-85.95C154.18,-82.98 168.03,-79.89 181,-77 191.46,-74.67 202.64,-72.18 213.35,-69.8"/>
<polygon fill="#63b8ff" stroke="#63b8ff" points="214.44,-73.15 223.44,-67.56 212.92,-66.31 214.44,-73.15"/>
</a>
</g>
</g>
<!-- Node9 -->
<g id="Node000009" class="node">
<title>Node9</title>
<g id="a_Node000009"><a xlink:href="../../d0/d59/classSecurityManager.html#a81b244e5eccae0f81aea2304d742a8a3" target="_top" xlink:title=" ">
<polygon fill="white" stroke="#666666" points="340,-30 195,-30 195,0 340,0 340,-30"/>
<text text-anchor="start" x="203" y="-18" font-family="Helvetica,sans-Serif" font-size="10.00">SecurityManager::validate</text>
<text text-anchor="middle" x="267.5" y="-7" font-family="Helvetica,sans-Serif" font-size="10.00">FileHeaders</text>
</a>
</g>
</g>
<!-- Node1&#45;&gt;Node9 -->
<g id="edge8_Node000001_Node000009" class="edge">
<title>Node1&#45;&gt;Node9</title>
<g id="a_edge8_Node000001_Node000009"><a xlink:title=" ">
<path fill="none" stroke="#63b8ff" d="M96.6,-85.8C117.85,-72.34 150.57,-52.88 181,-40 186.7,-37.59 192.71,-35.32 198.79,-33.21"/>
<polygon fill="#63b8ff" stroke="#63b8ff" points="199.99,-36.5 208.37,-30.02 197.78,-29.85 199.99,-36.5"/>
</a>
</g>
</g>
<!-- Node4 -->
<g id="Node000004" class="node">
<title>Node4</title>
<g id="a_Node000004"><a xlink:href="../../d0/d59/classSecurityManager.html#aff7a609161d297df43c181e75ab7f557" target="_top" xlink:title=" ">
<polygon fill="white" stroke="#666666" points="556,-153.5 390,-153.5 390,-134.5 556,-134.5 556,-153.5"/>
<text text-anchor="middle" x="473" y="-141.5" font-family="Helvetica,sans-Serif" font-size="10.00">SecurityManager::reportThreat</text>
</a>
</g>
</g>
<!-- Node3&#45;&gt;Node4 -->
<g id="edge3_Node000003_Node000004" class="edge">
<title>Node3&#45;&gt;Node4</title>
<g id="a_edge3_Node000003_Node000004"><a xlink:title=" ">
<path fill="none" stroke="#63b8ff" d="M351.27,-144C360.65,-144 370.24,-144 379.73,-144"/>
<polygon fill="#63b8ff" stroke="#63b8ff" points="379.96,-147.5 389.96,-144 379.96,-140.5 379.96,-147.5"/>
</a>
</g>
</g>
<!-- Node5 -->
<g id="Node000005" class="node">
<title>Node5</title>
<g id="a_Node000005"><a xlink:href="../../d0/d59/classSecurityManager.html#a49e1020b62e60790214a2782cf5c6aff" target="_top" xlink:title=" ">
<polygon fill="white" stroke="#666666" points="768,-172.5 595,-172.5 595,-153.5 768,-153.5 768,-172.5"/>
<text text-anchor="middle" x="681.5" y="-160.5" font-family="Helvetica,sans-Serif" font-size="10.00">SecurityManager::threatBlocked</text>
</a>
</g>
</g>
<!-- Node4&#45;&gt;Node5 -->
<g id="edge4_Node000004_Node000005" class="edge">
<title>Node4&#45;&gt;Node5</title>
<g id="a_edge4_Node000004_Node000005"><a xlink:title=" ">
<path fill="none" stroke="#63b8ff" d="M556.21,-151.56C565.54,-152.42 575.11,-153.3 584.6,-154.18"/>
<polygon fill="#63b8ff" stroke="#63b8ff" points="584.57,-157.69 594.85,-155.12 585.22,-150.72 584.57,-157.69"/>
</a>
</g>
</g>
<!-- Node6 -->
<g id="Node000006" class="node">
<title>Node6</title>
<g id="a_Node000006"><a xlink:href="../../d0/d59/classSecurityManager.html#ae455fbfee3cf9a7894edbd2205c25bce" target="_top" xlink:title=" ">
<polygon fill="white" stroke="#666666" points="771,-135.5 592,-135.5 592,-116.5 771,-116.5 771,-135.5"/>
<text text-anchor="middle" x="681.5" y="-123.5" font-family="Helvetica,sans-Serif" font-size="10.00">SecurityManager::threatDetected</text>
</a>
</g>
</g>
<!-- Node4&#45;&gt;Node6 -->
<g id="edge5_Node000004_Node000006" class="edge">
<title>Node4&#45;&gt;Node6</title>
<g id="a_edge5_Node000004_Node000006"><a xlink:title=" ">
<path fill="none" stroke="#63b8ff" d="M556.21,-136.83C564.61,-136.1 573.22,-135.35 581.78,-134.61"/>
<polygon fill="#63b8ff" stroke="#63b8ff" points="582.13,-138.09 591.79,-133.73 581.53,-131.11 582.13,-138.09"/>
</a>
</g>
</g>
</g>
</svg>

<g id="navigator" transform="translate(0 0)" fill="#404254">
  <rect fill="#f2f5e9" fill-opacity="0.5" stroke="#606060" stroke-width=".5" x="0" y="0" width="60" height="60"/>
  <use id="zoomplus" xlink:href="#zoomPlus" x="17" y="9" onmousedown="handleZoom(evt,'in')"/>
  <use id="zoomminus" xlink:href="#zoomMin" x="42" y="9" onmousedown="handleZoom(evt,'out')"/>
  <use id="reset" xlink:href="#resetDef" x="30" y="36" onmousedown="handleReset()"/>
   <use id="arrowup" xlink:href="#arrowUp" x="0" y="0" onmousedown="handlePan(0,-1)"/>
  <use id="arrowright" xlink:href="#arrowRight" x="0" y="0" onmousedown="handlePan(1,0)"/>
  <use id="arrowdown" xlink:href="#arrowDown" x="0" y="0" onmousedown="handlePan(0,1)"/>
  <use id="arrowleft" xlink:href="#arrowLeft" x="0" y="0" onmousedown="handlePan(-1,0)"/>
</g>
<svg viewBox="0 0 15 15" width="100%" height="30px" preserveAspectRatio="xMaxYMin meet">
 <g id="arrow_out" transform="scale(0.3 0.3)">
  <a xlink:href="classSecurityManager_aa356c14622cd2f1a0ccc0bd0f5e4bebe_cgraph_org.svg" target="_base">
   <rect id="button" ry="5" rx="5" y="6" x="6" height="38" width="38"
        fill="#f2f5e9" fill-opacity="0.5" stroke="#606060" stroke-width="1.0"/>
   <path id="arrow"
     d="M 11.500037,31.436501 C 11.940474,20.09759 22.043105,11.32322 32.158766,21.979434 L 37.068811,17.246167 C 37.068811,17.246167 37.088388,32 37.088388,32 L 22.160133,31.978069 C 22.160133,31.978069 26.997745,27.140456 26.997745,27.140456 C 18.528582,18.264221 13.291696,25.230495 11.500037,31.436501 z"
     style="fill:#404040;"/>
  </a>
 </g>
</svg>

<style type='text/css'>
<![CDATA[
[data-mouse-over-selected='false'] { opacity: 0.7; }
[data-mouse-over-selected='true']  { opacity: 1.0; }
]]>
</style>
<script type="application/ecmascript"><![CDATA[
document.addEventListener('DOMContentLoaded', (event) => {
  highlightEdges();
  highlightAdjacentNodes();
});
]]></script>
</svg>
