<?xml version="1.0" encoding="UTF-8" standalone="no"?>
<!DOCTYPE svg PUBLIC "-//W3C//DTD SVG 1.1//EN"
 "http://www.w3.org/Graphics/SVG/1.1/DTD/svg11.dtd">
<!-- Generated by graphviz version 2.43.0 (0)
 -->
<!-- Title: SecurityManager::getPluginSignature Pages: 1 -->
<svg width="358pt" height="86pt"
 viewBox="0.00 0.00 358.00 86.00" xmlns="http://www.w3.org/2000/svg" xmlns:xlink="http://www.w3.org/1999/xlink">
<g id="graph0" class="graph" transform="scale(1 1) rotate(0) translate(4 82)">
<title>SecurityManager::getPluginSignature</title>
<!-- Node1 -->
<g id="Node000001" class="node">
<title>Node1</title>
<g id="a_Node000001"><a xlink:title=" ">
<polygon fill="#999999" stroke="#666666" points="350,-54 199,-54 199,-24 350,-24 350,-54"/>
<text text-anchor="start" x="207" y="-42" font-family="Helvetica,sans-Serif" font-size="10.00">SecurityManager::getPlugin</text>
<text text-anchor="middle" x="274.5" y="-31" font-family="Helvetica,sans-Serif" font-size="10.00">Signature</text>
</a>
</g>
</g>
<!-- Node2 -->
<g id="Node000002" class="node">
<title>Node2</title>
<g id="a_Node000002"><a xlink:href="../../d0/d59/classSecurityManager.html#a70aa007e97219feed281bdf52baa61b1" target="_top" xlink:title=" ">
<polygon fill="white" stroke="#666666" points="160.5,-78 2.5,-78 2.5,-48 160.5,-48 160.5,-78"/>
<text text-anchor="start" x="10.5" y="-66" font-family="Helvetica,sans-Serif" font-size="10.00">SecurityManager::addTrusted</text>
<text text-anchor="middle" x="81.5" y="-55" font-family="Helvetica,sans-Serif" font-size="10.00">Plugin</text>
</a>
</g>
</g>
<!-- Node1&#45;&gt;Node2 -->
<g id="edge1_Node000001_Node000002" class="edge">
<title>Node1&#45;&gt;Node2</title>
<g id="a_edge1_Node000001_Node000002"><a xlink:title=" ">
<path fill="none" stroke="#63b8ff" d="M188.74,-49.65C179.37,-50.83 169.86,-52.02 160.58,-53.19"/>
<polygon fill="#63b8ff" stroke="#63b8ff" points="189.35,-53.1 198.83,-48.38 188.48,-46.16 189.35,-53.1"/>
</a>
</g>
</g>
<!-- Node3 -->
<g id="Node000003" class="node">
<title>Node3</title>
<g id="a_Node000003"><a xlink:href="../../d0/d59/classSecurityManager.html#aeccedebce4a2470254e3e87eeb255032" target="_top" xlink:title=" ">
<polygon fill="white" stroke="#666666" points="163,-30 0,-30 0,0 163,0 163,-30"/>
<text text-anchor="start" x="8" y="-18" font-family="Helvetica,sans-Serif" font-size="10.00">SecurityManager::verifyPlugin</text>
<text text-anchor="middle" x="81.5" y="-7" font-family="Helvetica,sans-Serif" font-size="10.00">Signature</text>
</a>
</g>
</g>
<!-- Node1&#45;&gt;Node3 -->
<g id="edge2_Node000001_Node000003" class="edge">
<title>Node1&#45;&gt;Node3</title>
<g id="a_edge2_Node000001_Node000003"><a xlink:title=" ">
<path fill="none" stroke="#63b8ff" d="M188.86,-28.36C180.3,-27.29 171.63,-26.2 163.11,-25.13"/>
<polygon fill="#63b8ff" stroke="#63b8ff" points="188.48,-31.84 198.83,-29.62 189.35,-24.9 188.48,-31.84"/>
</a>
</g>
</g>
</g>
</svg>
