<?xml version="1.0" encoding="UTF-8" standalone="no"?>
<!DOCTYPE svg PUBLIC "-//W3C//DTD SVG 1.1//EN"
 "http://www.w3.org/Graphics/SVG/1.1/DTD/svg11.dtd">
<!-- Generated by graphviz version 2.43.0 (0)
 -->
<!-- Title: SecurityManager::setSecurityLevel Pages: 1 -->
<svg width="551pt" height="134pt"
 viewBox="0.00 0.00 551.00 134.00" xmlns="http://www.w3.org/2000/svg" xmlns:xlink="http://www.w3.org/1999/xlink">
<g id="graph0" class="graph" transform="scale(1 1) rotate(0) translate(4 130)">
<title>SecurityManager::setSecurityLevel</title>
<!-- Node1 -->
<g id="Node000001" class="node">
<title>Node1</title>
<g id="a_Node000001"><a xlink:title=" ">
<polygon fill="#999999" stroke="#666666" points="160,-78 0,-78 0,-48 160,-48 160,-78"/>
<text text-anchor="start" x="8" y="-66" font-family="Helvetica,sans-Serif" font-size="10.00">SecurityManager::setSecurity</text>
<text text-anchor="middle" x="80" y="-55" font-family="Helvetica,sans-Serif" font-size="10.00">Level</text>
</a>
</g>
</g>
<!-- Node2 -->
<g id="Node000002" class="node">
<title>Node2</title>
<g id="a_Node000002"><a xlink:href="../../d0/d59/classSecurityManager.html#a6584e5b69e8575ce5b5f1a7c28df4509" target="_top" xlink:title=" ">
<polygon fill="white" stroke="#666666" points="351.5,-126 207.5,-126 207.5,-96 351.5,-96 351.5,-126"/>
<text text-anchor="start" x="215.5" y="-114" font-family="Helvetica,sans-Serif" font-size="10.00">SecurityManager::security</text>
<text text-anchor="middle" x="279.5" y="-103" font-family="Helvetica,sans-Serif" font-size="10.00">LevelChanged</text>
</a>
</g>
</g>
<!-- Node1&#45;&gt;Node2 -->
<g id="edge1_Node000001_Node000002" class="edge">
<title>Node1&#45;&gt;Node2</title>
<g id="a_edge1_Node000001_Node000002"><a xlink:title=" ">
<path fill="none" stroke="#63b8ff" d="M142.95,-78.06C163.26,-82.99 186,-88.52 206.96,-93.61"/>
<polygon fill="#63b8ff" stroke="#63b8ff" points="206.23,-97.04 216.77,-96 207.88,-90.23 206.23,-97.04"/>
</a>
</g>
</g>
<!-- Node3 -->
<g id="Node000003" class="node">
<title>Node3</title>
<g id="a_Node000003"><a xlink:href="../../d0/d59/classSecurityManager.html#acf355a7762ac78ad43728ac68edb8fbe" target="_top" xlink:title=" ">
<polygon fill="white" stroke="#666666" points="363,-78 196,-78 196,-48 363,-48 363,-78"/>
<text text-anchor="start" x="204" y="-66" font-family="Helvetica,sans-Serif" font-size="10.00">SecurityManager::startSecurity</text>
<text text-anchor="middle" x="279.5" y="-55" font-family="Helvetica,sans-Serif" font-size="10.00">Monitoring</text>
</a>
</g>
</g>
<!-- Node1&#45;&gt;Node3 -->
<g id="edge2_Node000001_Node000003" class="edge">
<title>Node1&#45;&gt;Node3</title>
<g id="a_edge2_Node000001_Node000003"><a xlink:title=" ">
<path fill="none" stroke="#63b8ff" d="M160.19,-63C168.51,-63 177.02,-63 185.47,-63"/>
<polygon fill="#63b8ff" stroke="#63b8ff" points="185.74,-66.5 195.74,-63 185.74,-59.5 185.74,-66.5"/>
</a>
</g>
</g>
<!-- Node5 -->
<g id="Node000005" class="node">
<title>Node5</title>
<g id="a_Node000005"><a xlink:href="../../d0/d59/classSecurityManager.html#a0820217e1d698d7767a5138bc8908539" target="_top" xlink:title=" ">
<polygon fill="white" stroke="#666666" points="362.5,-30 196.5,-30 196.5,0 362.5,0 362.5,-30"/>
<text text-anchor="start" x="204.5" y="-18" font-family="Helvetica,sans-Serif" font-size="10.00">SecurityManager::stopSecurity</text>
<text text-anchor="middle" x="279.5" y="-7" font-family="Helvetica,sans-Serif" font-size="10.00">Monitoring</text>
</a>
</g>
</g>
<!-- Node1&#45;&gt;Node5 -->
<g id="edge4_Node000001_Node000005" class="edge">
<title>Node1&#45;&gt;Node5</title>
<g id="a_edge4_Node000001_Node000005"><a xlink:title=" ">
<path fill="none" stroke="#63b8ff" d="M142.95,-47.94C163.26,-43.01 186,-37.48 206.96,-32.39"/>
<polygon fill="#63b8ff" stroke="#63b8ff" points="207.88,-35.77 216.77,-30 206.23,-28.96 207.88,-35.77"/>
</a>
</g>
</g>
<!-- Node4 -->
<g id="Node000004" class="node">
<title>Node4</title>
<g id="a_Node000004"><a xlink:href="../../d0/d59/classSecurityManager.html#a3b526f0d1ad61cf2301dedd18251d4fb" target="_top" xlink:title=" ">
<polygon fill="white" stroke="#666666" points="543,-54 399,-54 399,-24 543,-24 543,-54"/>
<text text-anchor="start" x="407" y="-42" font-family="Helvetica,sans-Serif" font-size="10.00">SecurityManager::security</text>
<text text-anchor="middle" x="471" y="-31" font-family="Helvetica,sans-Serif" font-size="10.00">MonitoringStateChanged</text>
</a>
</g>
</g>
<!-- Node3&#45;&gt;Node4 -->
<g id="edge3_Node000003_Node000004" class="edge">
<title>Node3&#45;&gt;Node4</title>
<g id="a_edge3_Node000003_Node000004"><a xlink:title=" ">
<path fill="none" stroke="#63b8ff" d="M363.07,-52.54C371.67,-51.45 380.41,-50.35 388.99,-49.26"/>
<polygon fill="#63b8ff" stroke="#63b8ff" points="389.5,-52.72 398.98,-47.99 388.62,-45.78 389.5,-52.72"/>
</a>
</g>
</g>
<!-- Node5&#45;&gt;Node4 -->
<g id="edge5_Node000005_Node000004" class="edge">
<title>Node5&#45;&gt;Node4</title>
<g id="a_edge5_Node000005_Node000004"><a xlink:title=" ">
<path fill="none" stroke="#63b8ff" d="M362.52,-25.39C371.21,-26.49 380.06,-27.61 388.75,-28.71"/>
<polygon fill="#63b8ff" stroke="#63b8ff" points="388.5,-32.21 398.86,-29.99 389.38,-25.26 388.5,-32.21"/>
</a>
</g>
</g>
</g>
</svg>
