<?xml version="1.0" encoding="UTF-8" standalone="no"?>
<!DOCTYPE svg PUBLIC "-//W3C//DTD SVG 1.1//EN"
 "http://www.w3.org/Graphics/SVG/1.1/DTD/svg11.dtd">
<!-- Generated by graphviz version 2.43.0 (0)
 -->
<!-- Title: SecurityManager::~SecurityManager Pages: 1 -->
<svg width="543pt" height="86pt"
 viewBox="0.00 0.00 543.00 86.00" xmlns="http://www.w3.org/2000/svg" xmlns:xlink="http://www.w3.org/1999/xlink">
<g id="graph0" class="graph" transform="scale(1 1) rotate(0) translate(4 82)">
<title>SecurityManager::~SecurityManager</title>
<!-- Node1 -->
<g id="Node000001" class="node">
<title>Node1</title>
<g id="a_Node000001"><a xlink:title=" ">
<polygon fill="#999999" stroke="#666666" points="153,-54 0,-54 0,-24 153,-24 153,-54"/>
<text text-anchor="start" x="8" y="-42" font-family="Helvetica,sans-Serif" font-size="10.00">SecurityManager::~Security</text>
<text text-anchor="middle" x="76.5" y="-31" font-family="Helvetica,sans-Serif" font-size="10.00">Manager</text>
</a>
</g>
</g>
<!-- Node2 -->
<g id="Node000002" class="node">
<title>Node2</title>
<g id="a_Node000002"><a xlink:href="../../d0/d59/classSecurityManager.html#a0820217e1d698d7767a5138bc8908539" target="_top" xlink:title=" ">
<polygon fill="white" stroke="#666666" points="355,-78 189,-78 189,-48 355,-48 355,-78"/>
<text text-anchor="start" x="197" y="-66" font-family="Helvetica,sans-Serif" font-size="10.00">SecurityManager::stopSecurity</text>
<text text-anchor="middle" x="272" y="-55" font-family="Helvetica,sans-Serif" font-size="10.00">Monitoring</text>
</a>
</g>
</g>
<!-- Node1&#45;&gt;Node2 -->
<g id="edge1_Node000001_Node000002" class="edge">
<title>Node1&#45;&gt;Node2</title>
<g id="a_edge1_Node000001_Node000002"><a xlink:title=" ">
<path fill="none" stroke="#63b8ff" d="M153.14,-48.38C161.52,-49.42 170.13,-50.49 178.68,-51.55"/>
<polygon fill="#63b8ff" stroke="#63b8ff" points="178.33,-55.03 188.69,-52.79 179.2,-48.09 178.33,-55.03"/>
</a>
</g>
</g>
<!-- Node4 -->
<g id="Node000004" class="node">
<title>Node4</title>
<g id="a_Node000004"><a xlink:href="../../d0/d59/classSecurityManager.html#ac4e80f86e69f82b093de06903283e099" target="_top" xlink:title=" ">
<polygon fill="white" stroke="#666666" points="348.5,-30 195.5,-30 195.5,0 348.5,0 348.5,-30"/>
<text text-anchor="start" x="203.5" y="-18" font-family="Helvetica,sans-Serif" font-size="10.00">SecurityManager::terminate</text>
<text text-anchor="middle" x="272" y="-7" font-family="Helvetica,sans-Serif" font-size="10.00">SandboxedProcesses</text>
</a>
</g>
</g>
<!-- Node1&#45;&gt;Node4 -->
<g id="edge3_Node000001_Node000004" class="edge">
<title>Node1&#45;&gt;Node4</title>
<g id="a_edge3_Node000001_Node000004"><a xlink:title=" ">
<path fill="none" stroke="#63b8ff" d="M153.14,-29.62C163.67,-28.31 174.54,-26.96 185.23,-25.64"/>
<polygon fill="#63b8ff" stroke="#63b8ff" points="185.92,-29.08 195.41,-24.38 185.05,-22.13 185.92,-29.08"/>
</a>
</g>
</g>
<!-- Node3 -->
<g id="Node000003" class="node">
<title>Node3</title>
<g id="a_Node000003"><a xlink:href="../../d0/d59/classSecurityManager.html#a3b526f0d1ad61cf2301dedd18251d4fb" target="_top" xlink:title=" ">
<polygon fill="white" stroke="#666666" points="535,-78 391,-78 391,-48 535,-48 535,-78"/>
<text text-anchor="start" x="399" y="-66" font-family="Helvetica,sans-Serif" font-size="10.00">SecurityManager::security</text>
<text text-anchor="middle" x="463" y="-55" font-family="Helvetica,sans-Serif" font-size="10.00">MonitoringStateChanged</text>
</a>
</g>
</g>
<!-- Node2&#45;&gt;Node3 -->
<g id="edge2_Node000002_Node000003" class="edge">
<title>Node2&#45;&gt;Node3</title>
<g id="a_edge2_Node000002_Node000003"><a xlink:title=" ">
<path fill="none" stroke="#63b8ff" d="M355.07,-63C363.57,-63 372.21,-63 380.7,-63"/>
<polygon fill="#63b8ff" stroke="#63b8ff" points="380.96,-66.5 390.96,-63 380.96,-59.5 380.96,-66.5"/>
</a>
</g>
</g>
</g>
</svg>
