<?xml version="1.0" encoding="UTF-8" standalone="no"?>
<!DOCTYPE svg PUBLIC "-//W3C//DTD SVG 1.1//EN"
 "http://www.w3.org/Graphics/SVG/1.1/DTD/svg11.dtd">
<!-- Generated by graphviz version 2.43.0 (0)
 -->
<!-- Title: SecurityManager::reportThreat Pages: 1 -->
<svg width="389pt" height="64pt"
 viewBox="0.00 0.00 389.00 64.00" xmlns="http://www.w3.org/2000/svg" xmlns:xlink="http://www.w3.org/1999/xlink">
<g id="graph0" class="graph" transform="scale(1 1) rotate(0) translate(4 60)">
<title>SecurityManager::reportThreat</title>
<!-- Node1 -->
<g id="Node000001" class="node">
<title>Node1</title>
<g id="a_Node000001"><a xlink:title=" ">
<polygon fill="#999999" stroke="#666666" points="166,-37 0,-37 0,-18 166,-18 166,-37"/>
<text text-anchor="middle" x="83" y="-25" font-family="Helvetica,sans-Serif" font-size="10.00">SecurityManager::reportThreat</text>
</a>
</g>
</g>
<!-- Node2 -->
<g id="Node000002" class="node">
<title>Node2</title>
<g id="a_Node000002"><a xlink:href="../../d0/d59/classSecurityManager.html#a49e1020b62e60790214a2782cf5c6aff" target="_top" xlink:title=" ">
<polygon fill="white" stroke="#666666" points="378,-56 205,-56 205,-37 378,-37 378,-56"/>
<text text-anchor="middle" x="291.5" y="-44" font-family="Helvetica,sans-Serif" font-size="10.00">SecurityManager::threatBlocked</text>
</a>
</g>
</g>
<!-- Node1&#45;&gt;Node2 -->
<g id="edge1_Node000001_Node000002" class="edge">
<title>Node1&#45;&gt;Node2</title>
<g id="a_edge1_Node000001_Node000002"><a xlink:title=" ">
<path fill="none" stroke="#63b8ff" d="M166.21,-35.06C175.54,-35.92 185.11,-36.8 194.6,-37.68"/>
<polygon fill="#63b8ff" stroke="#63b8ff" points="194.57,-41.19 204.85,-38.62 195.22,-34.22 194.57,-41.19"/>
</a>
</g>
</g>
<!-- Node3 -->
<g id="Node000003" class="node">
<title>Node3</title>
<g id="a_Node000003"><a xlink:href="../../d0/d59/classSecurityManager.html#ae455fbfee3cf9a7894edbd2205c25bce" target="_top" xlink:title=" ">
<polygon fill="white" stroke="#666666" points="381,-19 202,-19 202,0 381,0 381,-19"/>
<text text-anchor="middle" x="291.5" y="-7" font-family="Helvetica,sans-Serif" font-size="10.00">SecurityManager::threatDetected</text>
</a>
</g>
</g>
<!-- Node1&#45;&gt;Node3 -->
<g id="edge2_Node000001_Node000003" class="edge">
<title>Node1&#45;&gt;Node3</title>
<g id="a_edge2_Node000001_Node000003"><a xlink:title=" ">
<path fill="none" stroke="#63b8ff" d="M166.21,-20.33C174.61,-19.6 183.22,-18.85 191.78,-18.11"/>
<polygon fill="#63b8ff" stroke="#63b8ff" points="192.13,-21.59 201.79,-17.23 191.53,-14.61 192.13,-21.59"/>
</a>
</g>
</g>
</g>
</svg>
