<?xml version="1.0" encoding="UTF-8" standalone="no"?>
<!DOCTYPE svg PUBLIC "-//W3C//DTD SVG 1.1//EN"
 "http://www.w3.org/Graphics/SVG/1.1/DTD/svg11.dtd">
<!-- Generated by graphviz version 2.43.0 (0)
 -->
<!-- Title: SecurityManager::calculateFileHash Pages: 1 -->
<svg width="343pt" height="86pt"
 viewBox="0.00 0.00 343.00 86.00" xmlns="http://www.w3.org/2000/svg" xmlns:xlink="http://www.w3.org/1999/xlink">
<g id="graph0" class="graph" transform="scale(1 1) rotate(0) translate(4 82)">
<title>SecurityManager::calculateFileHash</title>
<!-- Node1 -->
<g id="Node000001" class="node">
<title>Node1</title>
<g id="a_Node000001"><a xlink:title=" ">
<polygon fill="#999999" stroke="#666666" points="335,-54 186,-54 186,-24 335,-24 335,-54"/>
<text text-anchor="start" x="194" y="-42" font-family="Helvetica,sans-Serif" font-size="10.00">SecurityManager::calculate</text>
<text text-anchor="middle" x="260.5" y="-31" font-family="Helvetica,sans-Serif" font-size="10.00">FileHash</text>
</a>
</g>
</g>
<!-- Node2 -->
<g id="Node000002" class="node">
<title>Node2</title>
<g id="a_Node000002"><a xlink:href="../../d0/d59/classSecurityManager.html#aa356c14622cd2f1a0ccc0bd0f5e4bebe" target="_top" xlink:title=" ">
<polygon fill="white" stroke="#666666" points="147.5,-78 2.5,-78 2.5,-48 147.5,-48 147.5,-78"/>
<text text-anchor="start" x="10.5" y="-66" font-family="Helvetica,sans-Serif" font-size="10.00">SecurityManager::validate</text>
<text text-anchor="middle" x="75" y="-55" font-family="Helvetica,sans-Serif" font-size="10.00">MediaFile</text>
</a>
</g>
</g>
<!-- Node1&#45;&gt;Node2 -->
<g id="edge1_Node000001_Node000002" class="edge">
<title>Node1&#45;&gt;Node2</title>
<g id="a_edge1_Node000001_Node000002"><a xlink:title=" ">
<path fill="none" stroke="#63b8ff" d="M175.75,-49.95C166.31,-51.19 156.76,-52.44 147.51,-53.65"/>
<polygon fill="#63b8ff" stroke="#63b8ff" points="176.46,-53.39 185.92,-48.62 175.55,-46.45 176.46,-53.39"/>
</a>
</g>
</g>
<!-- Node3 -->
<g id="Node000003" class="node">
<title>Node3</title>
<g id="a_Node000003"><a xlink:href="../../d0/d59/classSecurityManager.html#a7dfd838659a814b1a369430841cede89" target="_top" xlink:title=" ">
<polygon fill="white" stroke="#666666" points="150,-30 0,-30 0,0 150,0 150,-30"/>
<text text-anchor="start" x="8" y="-18" font-family="Helvetica,sans-Serif" font-size="10.00">SecurityManager::verifyFile</text>
<text text-anchor="middle" x="75" y="-7" font-family="Helvetica,sans-Serif" font-size="10.00">Integrity</text>
</a>
</g>
</g>
<!-- Node1&#45;&gt;Node3 -->
<g id="edge2_Node000001_Node000003" class="edge">
<title>Node1&#45;&gt;Node3</title>
<g id="a_edge2_Node000001_Node000003"><a xlink:title=" ">
<path fill="none" stroke="#63b8ff" d="M175.91,-28.07C167.34,-26.95 158.66,-25.81 150.19,-24.7"/>
<polygon fill="#63b8ff" stroke="#63b8ff" points="175.55,-31.55 185.92,-29.38 176.46,-24.61 175.55,-31.55"/>
</a>
</g>
</g>
</g>
</svg>
