<?xml version="1.0" encoding="UTF-8" standalone="no"?>
<!DOCTYPE svg PUBLIC "-//W3C//DTD SVG 1.1//EN"
 "http://www.w3.org/Graphics/SVG/1.1/DTD/svg11.dtd">
<!-- Generated by graphviz version 2.43.0 (0)
 -->
<!-- Title: include/ComponentManager.h Pages: 1 -->
<svg width="1048pt" height="82pt"
 viewBox="0.00 0.00 1048.00 82.00" xmlns="http://www.w3.org/2000/svg" xmlns:xlink="http://www.w3.org/1999/xlink">
<g id="graph0" class="graph" transform="scale(1 1) rotate(0) translate(4 78)">
<title>include/ComponentManager.h</title>
<!-- Node1 -->
<g id="Node000001" class="node">
<title>Node1</title>
<g id="a_Node000001"><a xlink:title=" ">
<polygon fill="#999999" stroke="#666666" points="651,-74 489,-74 489,-55 651,-55 651,-74"/>
<text text-anchor="middle" x="570" y="-62" font-family="Helvetica,sans-Serif" font-size="10.00">include/ComponentManager.h</text>
</a>
</g>
</g>
<!-- Node2 -->
<g id="Node000002" class="node">
<title>Node2</title>
<g id="a_Node000002"><a xlink:href="../../dd/dc9/ComponentManager_8cpp.html" target="_top" xlink:title=" ">
<polygon fill="white" stroke="#666666" points="176,-19 0,-19 0,0 176,0 176,-19"/>
<text text-anchor="middle" x="88" y="-7" font-family="Helvetica,sans-Serif" font-size="10.00">src/core/ComponentManager.cpp</text>
</a>
</g>
</g>
<!-- Node1&#45;&gt;Node2 -->
<g id="edge1_Node000001_Node000002" class="edge">
<title>Node1&#45;&gt;Node2</title>
<g id="a_edge1_Node000001_Node000002"><a xlink:title=" ">
<path fill="none" stroke="#63b8ff" d="M482.6,-53.89C392.18,-43.95 252.3,-28.57 165.65,-19.04"/>
<polygon fill="#63b8ff" stroke="#63b8ff" points="482.24,-57.37 492.56,-54.98 483,-50.41 482.24,-57.37"/>
</a>
</g>
</g>
<!-- Node3 -->
<g id="Node000003" class="node">
<title>Node3</title>
<g id="a_Node000003"><a xlink:href="../../d8/db4/EonPlayApplication_8cpp.html" target="_top" xlink:title=" ">
<polygon fill="white" stroke="#666666" points="366,-19 194,-19 194,0 366,0 366,-19"/>
<text text-anchor="middle" x="280" y="-7" font-family="Helvetica,sans-Serif" font-size="10.00">src/core/EonPlayApplication.cpp</text>
</a>
</g>
</g>
<!-- Node1&#45;&gt;Node3 -->
<g id="edge2_Node000001_Node000003" class="edge">
<title>Node1&#45;&gt;Node3</title>
<g id="a_edge2_Node000001_Node000003"><a xlink:title=" ">
<path fill="none" stroke="#63b8ff" d="M513.24,-53.13C458.87,-43.19 377.79,-28.37 326.96,-19.08"/>
<polygon fill="#63b8ff" stroke="#63b8ff" points="512.94,-56.63 523.41,-54.98 514.2,-49.74 512.94,-56.63"/>
</a>
</g>
</g>
<!-- Node4 -->
<g id="Node000004" class="node">
<title>Node4</title>
<g id="a_Node000004"><a xlink:href="../../da/d59/MediaPlayerApplication_8cpp.html" target="_top" xlink:title=" ">
<polygon fill="white" stroke="#666666" points="578,-19 384,-19 384,0 578,0 578,-19"/>
<text text-anchor="middle" x="481" y="-7" font-family="Helvetica,sans-Serif" font-size="10.00">src/core/MediaPlayerApplication.cpp</text>
</a>
</g>
</g>
<!-- Node1&#45;&gt;Node4 -->
<g id="edge3_Node000001_Node000004" class="edge">
<title>Node1&#45;&gt;Node4</title>
<g id="a_edge3_Node000001_Node000004"><a xlink:title=" ">
<path fill="none" stroke="#63b8ff" d="M546.82,-49.7C530.61,-40.04 509.45,-27.44 495.56,-19.17"/>
<polygon fill="#63b8ff" stroke="#63b8ff" points="545.32,-52.88 555.7,-54.98 548.9,-46.86 545.32,-52.88"/>
</a>
</g>
</g>
<!-- Node5 -->
<g id="Node000005" class="node">
<title>Node5</title>
<g id="a_Node000005"><a xlink:href="../../d3/db7/MainWindow_8cpp.html" target="_top" xlink:title=" ">
<polygon fill="white" stroke="#666666" points="724,-19 596,-19 596,0 724,0 724,-19"/>
<text text-anchor="middle" x="660" y="-7" font-family="Helvetica,sans-Serif" font-size="10.00">src/ui/MainWindow.cpp</text>
</a>
</g>
</g>
<!-- Node1&#45;&gt;Node5 -->
<g id="edge4_Node000001_Node000005" class="edge">
<title>Node1&#45;&gt;Node5</title>
<g id="a_edge4_Node000001_Node000005"><a xlink:title=" ">
<path fill="none" stroke="#63b8ff" d="M593.44,-49.7C609.84,-40.04 631.23,-27.44 645.28,-19.17"/>
<polygon fill="#63b8ff" stroke="#63b8ff" points="591.3,-46.89 584.46,-54.98 594.85,-52.93 591.3,-46.89"/>
</a>
</g>
</g>
<!-- Node6 -->
<g id="Node000006" class="node">
<title>Node6</title>
<g id="a_Node000006"><a xlink:href="../../d3/d6e/PlaybackControls_8cpp.html" target="_top" xlink:title=" ">
<polygon fill="white" stroke="#666666" points="893.5,-19 742.5,-19 742.5,0 893.5,0 893.5,-19"/>
<text text-anchor="middle" x="818" y="-7" font-family="Helvetica,sans-Serif" font-size="10.00">src/ui/PlaybackControls.cpp</text>
</a>
</g>
</g>
<!-- Node1&#45;&gt;Node6 -->
<g id="edge5_Node000001_Node000006" class="edge">
<title>Node1&#45;&gt;Node6</title>
<g id="a_edge5_Node000001_Node000006"><a xlink:title=" ">
<path fill="none" stroke="#63b8ff" d="M619.7,-52.88C666.18,-42.94 734.73,-28.3 777.84,-19.08"/>
<polygon fill="#63b8ff" stroke="#63b8ff" points="618.89,-49.47 609.85,-54.98 620.36,-56.32 618.89,-49.47"/>
</a>
</g>
</g>
<!-- Node7 -->
<g id="Node000007" class="node">
<title>Node7</title>
<g id="a_Node000007"><a xlink:href="../../df/db1/VideoWidget_8cpp.html" target="_top" xlink:title=" ">
<polygon fill="white" stroke="#666666" points="1040,-19 912,-19 912,0 1040,0 1040,-19"/>
<text text-anchor="middle" x="976" y="-7" font-family="Helvetica,sans-Serif" font-size="10.00">src/ui/VideoWidget.cpp</text>
</a>
</g>
</g>
<!-- Node1&#45;&gt;Node7 -->
<g id="edge6_Node000001_Node000007" class="edge">
<title>Node1&#45;&gt;Node7</title>
<g id="a_edge6_Node000001_Node000007"><a xlink:title=" ">
<path fill="none" stroke="#63b8ff" d="M645.3,-53.67C721.98,-43.66 839.59,-28.31 911.94,-18.86"/>
<polygon fill="#63b8ff" stroke="#63b8ff" points="644.69,-50.22 635.23,-54.98 645.6,-57.16 644.69,-50.22"/>
</a>
</g>
</g>
</g>
</svg>
