<?xml version="1.0" encoding="UTF-8" standalone="no"?>
<!DOCTYPE svg PUBLIC "-//W3C//DTD SVG 1.1//EN"
 "http://www.w3.org/Graphics/SVG/1.1/DTD/svg11.dtd">
<!-- Generated by graphviz version 2.43.0 (0)
 -->
<!-- Title: AdvancedAudioProcessor::AudioTrackInfo Pages: 1 -->
<svg width="142pt" height="173pt"
 viewBox="0.00 0.00 142.00 173.00" xmlns="http://www.w3.org/2000/svg" xmlns:xlink="http://www.w3.org/1999/xlink">
<g id="graph0" class="graph" transform="scale(1 1) rotate(0) translate(4 169)">
<title>AdvancedAudioProcessor::AudioTrackInfo</title>
<!-- Node1 -->
<g id="Node000001" class="node">
<title>Node1</title>
<g id="a_Node000001"><a xlink:title="Audio track information.">
<polygon fill="#999999" stroke="transparent" points="134,-165 0,-165 0,0 134,0 134,-165"/>
<text text-anchor="start" x="5" y="-152.5" font-family="Helvetica,sans-Serif" font-size="10.00">AdvancedAudioProcessor</text>
<text text-anchor="start" x="27.5" y="-141.5" font-family="Helvetica,sans-Serif" font-size="10.00">::AudioTrackInfo</text>
<text text-anchor="start" x="12" y="-126.5" font-family="Helvetica,sans-Serif" font-size="10.00">+</text>
<text text-anchor="start" x="33" y="-126.5" font-family="Helvetica,sans-Serif" font-size="10.00">trackId</text>
<text text-anchor="start" x="12" y="-111.5" font-family="Helvetica,sans-Serif" font-size="10.00">+</text>
<text text-anchor="start" x="33" y="-111.5" font-family="Helvetica,sans-Serif" font-size="10.00">name</text>
<text text-anchor="start" x="12" y="-96.5" font-family="Helvetica,sans-Serif" font-size="10.00">+</text>
<text text-anchor="start" x="33" y="-96.5" font-family="Helvetica,sans-Serif" font-size="10.00">language</text>
<text text-anchor="start" x="12" y="-81.5" font-family="Helvetica,sans-Serif" font-size="10.00">+</text>
<text text-anchor="start" x="33" y="-81.5" font-family="Helvetica,sans-Serif" font-size="10.00">codec</text>
<text text-anchor="start" x="12" y="-66.5" font-family="Helvetica,sans-Serif" font-size="10.00">+</text>
<text text-anchor="start" x="33" y="-66.5" font-family="Helvetica,sans-Serif" font-size="10.00">channels</text>
<text text-anchor="start" x="12" y="-51.5" font-family="Helvetica,sans-Serif" font-size="10.00">+</text>
<text text-anchor="start" x="33" y="-51.5" font-family="Helvetica,sans-Serif" font-size="10.00">sampleRate</text>
<text text-anchor="start" x="12" y="-36.5" font-family="Helvetica,sans-Serif" font-size="10.00">+</text>
<text text-anchor="start" x="33" y="-36.5" font-family="Helvetica,sans-Serif" font-size="10.00">bitrate</text>
<text text-anchor="start" x="12" y="-21.5" font-family="Helvetica,sans-Serif" font-size="10.00">+</text>
<text text-anchor="start" x="33" y="-21.5" font-family="Helvetica,sans-Serif" font-size="10.00">isDefault</text>
<text text-anchor="start" x="12" y="-6.5" font-family="Helvetica,sans-Serif" font-size="10.00">+</text>
<text text-anchor="start" x="33" y="-6.5" font-family="Helvetica,sans-Serif" font-size="10.00">AudioTrackInfo()</text>
<polygon fill="#666666" stroke="#666666" points="0,-136.5 0,-136.5 134,-136.5 134,-136.5 0,-136.5"/>
<polygon fill="#666666" stroke="#666666" points="0,-16.5 0,-16.5 31,-16.5 31,-16.5 0,-16.5"/>
<polygon fill="#666666" stroke="#666666" points="31,-16.5 31,-16.5 134,-16.5 134,-16.5 31,-16.5"/>
<polygon fill="none" stroke="#666666" points="0,0 0,-165 134,-165 134,0 0,0"/>
</a>
</g>
</g>
</g>
</svg>
