<?xml version="1.0" encoding="UTF-8" standalone="no"?>
<!DOCTYPE svg PUBLIC "-//W3C//DTD SVG 1.1//EN"
 "http://www.w3.org/Graphics/SVG/1.1/DTD/svg11.dtd">
<!-- Generated by graphviz version 2.43.0 (0)
 -->
<!-- Title: CrashReporter::safeModeTriggered Pages: 1 -->
<svg width="614pt" height="86pt"
 viewBox="0.00 0.00 614.00 86.00" xmlns="http://www.w3.org/2000/svg" xmlns:xlink="http://www.w3.org/1999/xlink">
<g id="graph0" class="graph" transform="scale(1 1) rotate(0) translate(4 82)">
<title>CrashReporter::safeModeTriggered</title>
<!-- Node1 -->
<g id="Node000001" class="node">
<title>Node1</title>
<g id="a_Node000001"><a xlink:title=" ">
<polygon fill="#999999" stroke="#666666" points="606,-48.5 421,-48.5 421,-29.5 606,-29.5 606,-48.5"/>
<text text-anchor="middle" x="513.5" y="-36.5" font-family="Helvetica,sans-Serif" font-size="10.00">CrashReporter::safeModeTriggered</text>
</a>
</g>
</g>
<!-- Node2 -->
<g id="Node000002" class="node">
<title>Node2</title>
<g id="a_Node000002"><a xlink:href="../../d6/dc2/classCrashReporter.html#a797d108610bf4f2b8282bcf0193b14b5" target="_top" xlink:title=" ">
<polygon fill="white" stroke="#666666" points="385,-48.5 211,-48.5 211,-29.5 385,-29.5 385,-48.5"/>
<text text-anchor="middle" x="298" y="-36.5" font-family="Helvetica,sans-Serif" font-size="10.00">CrashReporter::enableSafeMode</text>
</a>
</g>
</g>
<!-- Node1&#45;&gt;Node2 -->
<g id="edge1_Node000001_Node000002" class="edge">
<title>Node1&#45;&gt;Node2</title>
<g id="a_edge1_Node000001_Node000002"><a xlink:title=" ">
<path fill="none" stroke="#63b8ff" d="M410.48,-39C402.05,-39 393.59,-39 385.3,-39"/>
<polygon fill="#63b8ff" stroke="#63b8ff" points="410.72,-42.5 420.72,-39 410.72,-35.5 410.72,-42.5"/>
</a>
</g>
</g>
<!-- Node3 -->
<g id="Node000003" class="node">
<title>Node3</title>
<g id="a_Node000003"><a xlink:href="../../d6/dc2/classCrashReporter.html#ab52755a342f4fad0d6ac5fb205571618" target="_top" xlink:title=" ">
<polygon fill="white" stroke="#666666" points="163.5,-78 11.5,-78 11.5,-48 163.5,-48 163.5,-78"/>
<text text-anchor="start" x="19.5" y="-66" font-family="Helvetica,sans-Serif" font-size="10.00">CrashReporter::recordFailed</text>
<text text-anchor="middle" x="87.5" y="-55" font-family="Helvetica,sans-Serif" font-size="10.00">Start</text>
</a>
</g>
</g>
<!-- Node2&#45;&gt;Node3 -->
<g id="edge2_Node000002_Node000003" class="edge">
<title>Node2&#45;&gt;Node3</title>
<g id="a_edge2_Node000002_Node000003"><a xlink:title=" ">
<path fill="none" stroke="#63b8ff" d="M204.03,-49.7C190.52,-51.26 176.76,-52.84 163.66,-54.35"/>
<polygon fill="#63b8ff" stroke="#63b8ff" points="204.76,-53.14 214.3,-48.52 203.96,-46.19 204.76,-53.14"/>
</a>
</g>
</g>
<!-- Node4 -->
<g id="Node000004" class="node">
<title>Node4</title>
<g id="a_Node000004"><a xlink:href="../../d6/dc2/classCrashReporter.html#ad2fa59ec3c50336b1ca80da53d497f34" target="_top" xlink:title=" ">
<polygon fill="white" stroke="#666666" points="175,-30 0,-30 0,0 175,0 175,-30"/>
<text text-anchor="start" x="8" y="-18" font-family="Helvetica,sans-Serif" font-size="10.00">CrashReporter::recordSuccessful</text>
<text text-anchor="middle" x="87.5" y="-7" font-family="Helvetica,sans-Serif" font-size="10.00">Start</text>
</a>
</g>
</g>
<!-- Node2&#45;&gt;Node4 -->
<g id="edge3_Node000002_Node000004" class="edge">
<title>Node2&#45;&gt;Node4</title>
<g id="a_edge3_Node000002_Node000004"><a xlink:title=" ">
<path fill="none" stroke="#63b8ff" d="M204.28,-28.33C194.61,-27.21 184.81,-26.09 175.21,-24.98"/>
<polygon fill="#63b8ff" stroke="#63b8ff" points="203.96,-31.81 214.3,-29.48 204.76,-24.86 203.96,-31.81"/>
</a>
</g>
</g>
</g>
</svg>
