<?xml version="1.0" encoding="UTF-8" standalone="no"?>
<!DOCTYPE svg PUBLIC "-//W3C//DTD SVG 1.1//EN"
 "http://www.w3.org/Graphics/SVG/1.1/DTD/svg11.dtd">
<!-- Generated by graphviz version 2.43.0 (0)
 -->
<!-- Title: CrashReporter::recordSuccessfulStart Pages: 1 -->
<svg width="628pt" height="64pt"
 viewBox="0.00 0.00 628.00 64.00" xmlns="http://www.w3.org/2000/svg" xmlns:xlink="http://www.w3.org/1999/xlink">
<g id="graph0" class="graph" transform="scale(1 1) rotate(0) translate(4 60)">
<title>CrashReporter::recordSuccessfulStart</title>
<!-- Node1 -->
<g id="Node000001" class="node">
<title>Node1</title>
<g id="a_Node000001"><a xlink:title=" ">
<polygon fill="#999999" stroke="#666666" points="175,-42.5 0,-42.5 0,-12.5 175,-12.5 175,-42.5"/>
<text text-anchor="start" x="8" y="-30.5" font-family="Helvetica,sans-Serif" font-size="10.00">CrashReporter::recordSuccessful</text>
<text text-anchor="middle" x="87.5" y="-19.5" font-family="Helvetica,sans-Serif" font-size="10.00">Start</text>
</a>
</g>
</g>
<!-- Node2 -->
<g id="Node000002" class="node">
<title>Node2</title>
<g id="a_Node000002"><a xlink:href="../../d6/dc2/classCrashReporter.html#a797d108610bf4f2b8282bcf0193b14b5" target="_top" xlink:title=" ">
<polygon fill="white" stroke="#666666" points="392,-56 218,-56 218,-37 392,-37 392,-56"/>
<text text-anchor="middle" x="305" y="-44" font-family="Helvetica,sans-Serif" font-size="10.00">CrashReporter::enableSafeMode</text>
</a>
</g>
</g>
<!-- Node1&#45;&gt;Node2 -->
<g id="edge1_Node000001_Node000002" class="edge">
<title>Node1&#45;&gt;Node2</title>
<g id="a_edge1_Node000001_Node000002"><a xlink:title=" ">
<path fill="none" stroke="#63b8ff" d="M175.22,-35.15C185.86,-36.08 196.78,-37.05 207.54,-38"/>
<polygon fill="#63b8ff" stroke="#63b8ff" points="207.54,-41.51 217.81,-38.9 208.15,-34.54 207.54,-41.51"/>
</a>
</g>
</g>
<!-- Node4 -->
<g id="Node000004" class="node">
<title>Node4</title>
<g id="a_Node000004"><a xlink:href="../../d6/dc2/classCrashReporter.html#af12357ff314ca3b9888d265c9de034a9" target="_top" xlink:title=" ">
<polygon fill="white" stroke="#666666" points="399,-19 211,-19 211,0 399,0 399,-19"/>
<text text-anchor="middle" x="305" y="-7" font-family="Helvetica,sans-Serif" font-size="10.00">CrashReporter::recoveryCompleted</text>
</a>
</g>
</g>
<!-- Node1&#45;&gt;Node4 -->
<g id="edge3_Node000001_Node000004" class="edge">
<title>Node1&#45;&gt;Node4</title>
<g id="a_edge3_Node000001_Node000004"><a xlink:title=" ">
<path fill="none" stroke="#63b8ff" d="M175.22,-20.26C183.63,-19.55 192.21,-18.84 200.76,-18.12"/>
<polygon fill="#63b8ff" stroke="#63b8ff" points="201.08,-21.61 210.76,-17.29 200.5,-14.63 201.08,-21.61"/>
</a>
</g>
</g>
<!-- Node3 -->
<g id="Node000003" class="node">
<title>Node3</title>
<g id="a_Node000003"><a xlink:href="../../d6/dc2/classCrashReporter.html#a40d03faaaf020da1bb078e65373fab9a" target="_top" xlink:title=" ">
<polygon fill="white" stroke="#666666" points="620,-56 435,-56 435,-37 620,-37 620,-56"/>
<text text-anchor="middle" x="527.5" y="-44" font-family="Helvetica,sans-Serif" font-size="10.00">CrashReporter::safeModeTriggered</text>
</a>
</g>
</g>
<!-- Node2&#45;&gt;Node3 -->
<g id="edge2_Node000002_Node000003" class="edge">
<title>Node2&#45;&gt;Node3</title>
<g id="a_edge2_Node000002_Node000003"><a xlink:title=" ">
<path fill="none" stroke="#63b8ff" d="M392.2,-46.5C402.82,-46.5 413.75,-46.5 424.57,-46.5"/>
<polygon fill="#63b8ff" stroke="#63b8ff" points="424.9,-50 434.9,-46.5 424.9,-43 424.9,-50"/>
</a>
</g>
</g>
</g>
</svg>
