<?xml version="1.0" encoding="UTF-8" standalone="no"?>
<!DOCTYPE svg PUBLIC "-//W3C//DTD SVG 1.1//EN"
 "http://www.w3.org/Graphics/SVG/1.1/DTD/svg11.dtd">
<!-- Generated by graphviz version 2.43.0 (0)
 -->
<!-- Title: CrashReporter::collectSystemInfo Pages: 1 -->
<svg width="387pt" height="86pt"
 viewBox="0.00 0.00 387.00 86.00" xmlns="http://www.w3.org/2000/svg" xmlns:xlink="http://www.w3.org/1999/xlink">
<g id="graph0" class="graph" transform="scale(1 1) rotate(0) translate(4 82)">
<title>CrashReporter::collectSystemInfo</title>
<!-- Node1 -->
<g id="Node000001" class="node">
<title>Node1</title>
<g id="a_Node000001"><a xlink:title=" ">
<polygon fill="#999999" stroke="#666666" points="180,-48.5 0,-48.5 0,-29.5 180,-29.5 180,-48.5"/>
<text text-anchor="middle" x="90" y="-36.5" font-family="Helvetica,sans-Serif" font-size="10.00">CrashReporter::collectSystemInfo</text>
</a>
</g>
</g>
<!-- Node2 -->
<g id="Node000002" class="node">
<title>Node2</title>
<g id="a_Node000002"><a xlink:href="../../d6/dc2/classCrashReporter.html#aaf45273b9694376bb01dca4bf222f5b9" target="_top" xlink:title=" ">
<polygon fill="white" stroke="#666666" points="379,-78 216,-78 216,-48 379,-48 379,-78"/>
<text text-anchor="start" x="224" y="-66" font-family="Helvetica,sans-Serif" font-size="10.00">CrashReporter::getApplication</text>
<text text-anchor="middle" x="297.5" y="-55" font-family="Helvetica,sans-Serif" font-size="10.00">Uptime</text>
</a>
</g>
</g>
<!-- Node1&#45;&gt;Node2 -->
<g id="edge1_Node000001_Node000002" class="edge">
<title>Node1&#45;&gt;Node2</title>
<g id="a_edge1_Node000001_Node000002"><a xlink:title=" ">
<path fill="none" stroke="#63b8ff" d="M172.51,-48.52C183.41,-49.79 194.64,-51.1 205.68,-52.39"/>
<polygon fill="#63b8ff" stroke="#63b8ff" points="205.42,-55.89 215.76,-53.57 206.23,-48.93 205.42,-55.89"/>
</a>
</g>
</g>
<!-- Node3 -->
<g id="Node000003" class="node">
<title>Node3</title>
<g id="a_Node000003"><a xlink:href="../../d6/dc2/classCrashReporter.html#a0ed9dec473bcd3e000a8e642f8de5e04" target="_top" xlink:title=" ">
<polygon fill="white" stroke="#666666" points="369.5,-30 225.5,-30 225.5,0 369.5,0 369.5,-30"/>
<text text-anchor="start" x="233.5" y="-18" font-family="Helvetica,sans-Serif" font-size="10.00">CrashReporter::getCurrent</text>
<text text-anchor="middle" x="297.5" y="-7" font-family="Helvetica,sans-Serif" font-size="10.00">MemoryUsage</text>
</a>
</g>
</g>
<!-- Node1&#45;&gt;Node3 -->
<g id="edge2_Node000001_Node000003" class="edge">
<title>Node1&#45;&gt;Node3</title>
<g id="a_edge2_Node000001_Node000003"><a xlink:title=" ">
<path fill="none" stroke="#63b8ff" d="M172.51,-29.48C186.58,-27.84 201.2,-26.13 215.26,-24.49"/>
<polygon fill="#63b8ff" stroke="#63b8ff" points="215.86,-27.94 225.39,-23.31 215.05,-20.99 215.86,-27.94"/>
</a>
</g>
</g>
</g>
</svg>
