<?xml version="1.0" encoding="UTF-8" standalone="no"?>
<!DOCTYPE svg PUBLIC "-//W3C//DTD SVG 1.1//EN"
 "http://www.w3.org/Graphics/SVG/1.1/DTD/svg11.dtd">
<!-- Generated by graphviz version 2.43.0 (0)
 -->
<!-- Title: CrashReporter::recordFailedStart Pages: 1 -->
<svg width="591pt" height="76pt"
 viewBox="0.00 0.00 591.00 75.50" xmlns="http://www.w3.org/2000/svg" xmlns:xlink="http://www.w3.org/1999/xlink">
<g id="graph0" class="graph" transform="scale(1 1) rotate(0) translate(4 71.5)">
<title>CrashReporter::recordFailedStart</title>
<!-- Node1 -->
<g id="Node000001" class="node">
<title>Node1</title>
<g id="a_Node000001"><a xlink:title=" ">
<polygon fill="#999999" stroke="#666666" points="152,-51 0,-51 0,-21 152,-21 152,-51"/>
<text text-anchor="start" x="8" y="-39" font-family="Helvetica,sans-Serif" font-size="10.00">CrashReporter::recordFailed</text>
<text text-anchor="middle" x="76" y="-28" font-family="Helvetica,sans-Serif" font-size="10.00">Start</text>
</a>
</g>
</g>
<!-- Node2 -->
<g id="Node000002" class="node">
<title>Node2</title>
<g id="a_Node000002"><a xlink:href="../../d6/dc2/classCrashReporter.html#a797d108610bf4f2b8282bcf0193b14b5" target="_top" xlink:title=" ">
<polygon fill="white" stroke="#666666" points="362,-67.5 188,-67.5 188,-48.5 362,-48.5 362,-67.5"/>
<text text-anchor="middle" x="275" y="-55.5" font-family="Helvetica,sans-Serif" font-size="10.00">CrashReporter::enableSafeMode</text>
</a>
</g>
</g>
<!-- Node1&#45;&gt;Node2 -->
<g id="edge1_Node000001_Node000002" class="edge">
<title>Node1&#45;&gt;Node2</title>
<g id="a_edge1_Node000001_Node000002"><a xlink:title=" ">
<path fill="none" stroke="#63b8ff" d="M152.04,-44.38C160.73,-45.35 169.68,-46.35 178.59,-47.35"/>
<polygon fill="#63b8ff" stroke="#63b8ff" points="178.3,-50.83 188.63,-48.47 179.08,-43.88 178.3,-50.83"/>
</a>
</g>
</g>
<!-- Node4 -->
<g id="Node000004" class="node">
<title>Node4</title>
<g id="a_Node000004"><a xlink:href="../../d6/dc2/classCrashReporter.html#a76e5dcad51fd84aef55e7e10cae86df4" target="_top" xlink:title=" ">
<polygon fill="white" stroke="#666666" points="349,-30 201,-30 201,0 349,0 349,-30"/>
<text text-anchor="start" x="209" y="-18" font-family="Helvetica,sans-Serif" font-size="10.00">CrashReporter::shouldStart</text>
<text text-anchor="middle" x="275" y="-7" font-family="Helvetica,sans-Serif" font-size="10.00">InSafeMode</text>
</a>
</g>
</g>
<!-- Node1&#45;&gt;Node4 -->
<g id="edge3_Node000001_Node000004" class="edge">
<title>Node1&#45;&gt;Node4</title>
<g id="a_edge3_Node000001_Node000004"><a xlink:title=" ">
<path fill="none" stroke="#63b8ff" d="M152.04,-28C164.65,-26.66 177.81,-25.25 190.62,-23.89"/>
<polygon fill="#63b8ff" stroke="#63b8ff" points="191.22,-27.34 200.8,-22.8 190.48,-20.38 191.22,-27.34"/>
</a>
</g>
</g>
<!-- Node3 -->
<g id="Node000003" class="node">
<title>Node3</title>
<g id="a_Node000003"><a xlink:href="../../d6/dc2/classCrashReporter.html#a40d03faaaf020da1bb078e65373fab9a" target="_top" xlink:title=" ">
<polygon fill="white" stroke="#666666" points="583,-67.5 398,-67.5 398,-48.5 583,-48.5 583,-67.5"/>
<text text-anchor="middle" x="490.5" y="-55.5" font-family="Helvetica,sans-Serif" font-size="10.00">CrashReporter::safeModeTriggered</text>
</a>
</g>
</g>
<!-- Node2&#45;&gt;Node3 -->
<g id="edge2_Node000002_Node000003" class="edge">
<title>Node2&#45;&gt;Node3</title>
<g id="a_edge2_Node000002_Node000003"><a xlink:title=" ">
<path fill="none" stroke="#63b8ff" d="M362.22,-58C370.53,-58 379.02,-58 387.46,-58"/>
<polygon fill="#63b8ff" stroke="#63b8ff" points="387.72,-61.5 397.72,-58 387.72,-54.5 387.72,-61.5"/>
</a>
</g>
</g>
</g>
</svg>
