<?xml version="1.0" encoding="UTF-8" standalone="no"?>
<!DOCTYPE svg PUBLIC "-//W3C//DTD SVG 1.1//EN"
 "http://www.w3.org/Graphics/SVG/1.1/DTD/svg11.dtd">
<!-- Generated by graphviz version 2.43.0 (0)
 -->
<!-- Title: MainWindow::toggleTheme Pages: 1 -->
<svg width="522pt" height="27pt"
 viewBox="0.00 0.00 522.00 27.00" xmlns="http://www.w3.org/2000/svg" xmlns:xlink="http://www.w3.org/1999/xlink">
<g id="graph0" class="graph" transform="scale(1 1) rotate(0) translate(4 23)">
<title>MainWindow::toggleTheme</title>
<!-- Node1 -->
<g id="Node000001" class="node">
<title>Node1</title>
<g id="a_Node000001"><a xlink:title="Toggle between dark and light themes.">
<polygon fill="#999999" stroke="#666666" points="149,-19 0,-19 0,0 149,0 149,-19"/>
<text text-anchor="middle" x="74.5" y="-7" font-family="Helvetica,sans-Serif" font-size="10.00">MainWindow::toggleTheme</text>
</a>
</g>
</g>
<!-- Node2 -->
<g id="Node000002" class="node">
<title>Node2</title>
<g id="a_Node000002"><a xlink:href="../../d6/d1a/classMainWindow.html#a8a1b3b94d60822e8f62c252d291c0455" target="_top" xlink:title="Set the current theme (dark/light mode)">
<polygon fill="white" stroke="#666666" points="319,-19 185,-19 185,0 319,0 319,-19"/>
<text text-anchor="middle" x="252" y="-7" font-family="Helvetica,sans-Serif" font-size="10.00">MainWindow::setTheme</text>
</a>
</g>
</g>
<!-- Node1&#45;&gt;Node2 -->
<g id="edge1_Node000001_Node000002" class="edge">
<title>Node1&#45;&gt;Node2</title>
<g id="a_edge1_Node000001_Node000002"><a xlink:title=" ">
<path fill="none" stroke="#63b8ff" d="M149.16,-9.5C157.57,-9.5 166.15,-9.5 174.58,-9.5"/>
<polygon fill="#63b8ff" stroke="#63b8ff" points="174.78,-13 184.78,-9.5 174.78,-6 174.78,-13"/>
</a>
</g>
</g>
<!-- Node3 -->
<g id="Node000003" class="node">
<title>Node3</title>
<g id="a_Node000003"><a xlink:href="../../d6/d1a/classMainWindow.html#a0c4dfd91cdd0db289b2b111b058e5dcb" target="_top" xlink:title="Emitted when theme changes.">
<polygon fill="white" stroke="#666666" points="514,-19 355,-19 355,0 514,0 514,-19"/>
<text text-anchor="middle" x="434.5" y="-7" font-family="Helvetica,sans-Serif" font-size="10.00">MainWindow::themeChanged</text>
</a>
</g>
</g>
<!-- Node2&#45;&gt;Node3 -->
<g id="edge2_Node000002_Node000003" class="edge">
<title>Node2&#45;&gt;Node3</title>
<g id="a_edge2_Node000002_Node000003"><a xlink:title=" ">
<path fill="none" stroke="#63b8ff" d="M319.19,-9.5C327.5,-9.5 336.11,-9.5 344.71,-9.5"/>
<polygon fill="#63b8ff" stroke="#63b8ff" points="344.77,-13 354.77,-9.5 344.77,-6 344.77,-13"/>
</a>
</g>
</g>
</g>
</svg>
