<?xml version="1.0" encoding="UTF-8" standalone="no"?>
<!DOCTYPE svg PUBLIC "-//W3C//DTD SVG 1.1//EN"
 "http://www.w3.org/Graphics/SVG/1.1/DTD/svg11.dtd">
<!-- Generated by graphviz version 2.43.0 (0)
 -->
<!-- Title: AudioVisualizer::getModeName Pages: 1 -->
<svg width="580pt" height="38pt"
 viewBox="0.00 0.00 580.00 38.00" xmlns="http://www.w3.org/2000/svg" xmlns:xlink="http://www.w3.org/1999/xlink">
<g id="graph0" class="graph" transform="scale(1 1) rotate(0) translate(4 34)">
<title>AudioVisualizer::getModeName</title>
<!-- Node1 -->
<g id="Node000001" class="node">
<title>Node1</title>
<g id="a_Node000001"><a xlink:title="Get visualization mode name.">
<polygon fill="#999999" stroke="#666666" points="572,-24.5 402,-24.5 402,-5.5 572,-5.5 572,-24.5"/>
<text text-anchor="middle" x="487" y="-12.5" font-family="Helvetica,sans-Serif" font-size="10.00">AudioVisualizer::getModeName</text>
</a>
</g>
</g>
<!-- Node2 -->
<g id="Node000002" class="node">
<title>Node2</title>
<g id="a_Node000002"><a xlink:href="../../db/d2a/classAudioVisualizer.html#ad5e1c45ea45d7d63a828201c683a8b57" target="_top" xlink:title="Set visualization mode.">
<polygon fill="white" stroke="#666666" points="366,-24.5 163,-24.5 163,-5.5 366,-5.5 366,-24.5"/>
<text text-anchor="middle" x="264.5" y="-12.5" font-family="Helvetica,sans-Serif" font-size="10.00">AudioVisualizer::setVisualizationMode</text>
</a>
</g>
</g>
<!-- Node1&#45;&gt;Node2 -->
<g id="edge1_Node000001_Node000002" class="edge">
<title>Node1&#45;&gt;Node2</title>
<g id="a_edge1_Node000001_Node000002"><a xlink:title=" ">
<path fill="none" stroke="#63b8ff" d="M391.48,-15C383.05,-15 374.49,-15 366.01,-15"/>
<polygon fill="#63b8ff" stroke="#63b8ff" points="391.69,-18.5 401.69,-15 391.69,-11.5 391.69,-18.5"/>
</a>
</g>
</g>
<!-- Node3 -->
<g id="Node000003" class="node">
<title>Node3</title>
<g id="a_Node000003"><a xlink:href="../../d5/d45/classAudioVisualizerWidget.html#a1c757063316a1c23d3de28198f4f8cc2" target="_top" xlink:title=" ">
<polygon fill="white" stroke="#666666" points="127,-30 0,-30 0,0 127,0 127,-30"/>
<text text-anchor="start" x="8" y="-18" font-family="Helvetica,sans-Serif" font-size="10.00">AudioVisualizerWidget</text>
<text text-anchor="middle" x="63.5" y="-7" font-family="Helvetica,sans-Serif" font-size="10.00">::mousePressEvent</text>
</a>
</g>
</g>
<!-- Node2&#45;&gt;Node3 -->
<g id="edge2_Node000002_Node000003" class="edge">
<title>Node2&#45;&gt;Node3</title>
<g id="a_edge2_Node000002_Node000003"><a xlink:title=" ">
<path fill="none" stroke="#63b8ff" d="M152.61,-15C143.93,-15 135.36,-15 127.19,-15"/>
<polygon fill="#63b8ff" stroke="#63b8ff" points="152.83,-18.5 162.83,-15 152.83,-11.5 152.83,-18.5"/>
</a>
</g>
</g>
</g>
</svg>
