<?xml version="1.0" encoding="UTF-8" standalone="no"?>
<!DOCTYPE svg PUBLIC "-//W3C//DTD SVG 1.1//EN"
 "http://www.w3.org/Graphics/SVG/1.1/DTD/svg11.dtd">
<!-- Generated by graphviz version 2.43.0 (0)
 -->
<!-- Title: AudioVisualizer::getVisualizationMode Pages: 1 -->
<svg width="375pt" height="86pt"
 viewBox="0.00 0.00 375.00 86.00" xmlns="http://www.w3.org/2000/svg" xmlns:xlink="http://www.w3.org/1999/xlink">
<g id="graph0" class="graph" transform="scale(1 1) rotate(0) translate(4 82)">
<title>AudioVisualizer::getVisualizationMode</title>
<!-- Node1 -->
<g id="Node000001" class="node">
<title>Node1</title>
<g id="a_Node000001"><a xlink:title="Get current visualization mode.">
<polygon fill="#999999" stroke="#666666" points="367,-48.5 163,-48.5 163,-29.5 367,-29.5 367,-48.5"/>
<text text-anchor="middle" x="265" y="-36.5" font-family="Helvetica,sans-Serif" font-size="10.00">AudioVisualizer::getVisualizationMode</text>
</a>
</g>
</g>
<!-- Node2 -->
<g id="Node000002" class="node">
<title>Node2</title>
<g id="a_Node000002"><a xlink:href="../../d5/d45/classAudioVisualizerWidget.html#a1c757063316a1c23d3de28198f4f8cc2" target="_top" xlink:title=" ">
<polygon fill="white" stroke="#666666" points="127,-78 0,-78 0,-48 127,-48 127,-78"/>
<text text-anchor="start" x="8" y="-66" font-family="Helvetica,sans-Serif" font-size="10.00">AudioVisualizerWidget</text>
<text text-anchor="middle" x="63.5" y="-55" font-family="Helvetica,sans-Serif" font-size="10.00">::mousePressEvent</text>
</a>
</g>
</g>
<!-- Node1&#45;&gt;Node2 -->
<g id="edge1_Node000001_Node000002" class="edge">
<title>Node1&#45;&gt;Node2</title>
<g id="a_edge1_Node000001_Node000002"><a xlink:title=" ">
<path fill="none" stroke="#63b8ff" d="M174.91,-49.72C158.83,-51.65 142.37,-53.63 127.24,-55.45"/>
<polygon fill="#63b8ff" stroke="#63b8ff" points="175.36,-53.19 184.87,-48.52 174.52,-46.24 175.36,-53.19"/>
</a>
</g>
</g>
<!-- Node3 -->
<g id="Node000003" class="node">
<title>Node3</title>
<g id="a_Node000003"><a xlink:href="../../d5/d45/classAudioVisualizerWidget.html#aa90ec7449bbbf1db85d66a868165d636" target="_top" xlink:title=" ">
<polygon fill="white" stroke="#666666" points="127,-30 0,-30 0,0 127,0 127,-30"/>
<text text-anchor="start" x="8" y="-18" font-family="Helvetica,sans-Serif" font-size="10.00">AudioVisualizerWidget</text>
<text text-anchor="middle" x="63.5" y="-7" font-family="Helvetica,sans-Serif" font-size="10.00">::paintEvent</text>
</a>
</g>
</g>
<!-- Node1&#45;&gt;Node3 -->
<g id="edge2_Node000001_Node000003" class="edge">
<title>Node1&#45;&gt;Node3</title>
<g id="a_edge2_Node000001_Node000003"><a xlink:title=" ">
<path fill="none" stroke="#63b8ff" d="M174.91,-28.28C158.83,-26.35 142.37,-24.37 127.24,-22.55"/>
<polygon fill="#63b8ff" stroke="#63b8ff" points="174.52,-31.76 184.87,-29.48 175.36,-24.81 174.52,-31.76"/>
</a>
</g>
</g>
</g>
</svg>
