<?xml version="1.0" encoding="UTF-8" standalone="no"?>
<!DOCTYPE svg PUBLIC "-//W3C//DTD SVG 1.1//EN"
 "http://www.w3.org/Graphics/SVG/1.1/DTD/svg11.dtd">
<!-- Generated by graphviz version 2.43.0 (0)
 -->
<!-- Title: AudioVisualizer::setEnabled Pages: 1 -->
<svg width="560pt" height="27pt"
 viewBox="0.00 0.00 560.00 27.00" xmlns="http://www.w3.org/2000/svg" xmlns:xlink="http://www.w3.org/1999/xlink">
<g id="graph0" class="graph" transform="scale(1 1) rotate(0) translate(4 23)">
<title>AudioVisualizer::setEnabled</title>
<!-- Node1 -->
<g id="Node000001" class="node">
<title>Node1</title>
<g id="a_Node000001"><a xlink:title="Enable or disable the visualizer.">
<polygon fill="#999999" stroke="#666666" points="552,-19 400,-19 400,0 552,0 552,-19"/>
<text text-anchor="middle" x="476" y="-7" font-family="Helvetica,sans-Serif" font-size="10.00">AudioVisualizer::setEnabled</text>
</a>
</g>
</g>
<!-- Node2 -->
<g id="Node000002" class="node">
<title>Node2</title>
<g id="a_Node000002"><a xlink:href="../../db/d2a/classAudioVisualizer.html#ad8ae2490ebe0b4f25324d6134d2a590f" target="_top" xlink:title="Shutdown the visualizer.">
<polygon fill="white" stroke="#666666" points="364,-19 218,-19 218,0 364,0 364,-19"/>
<text text-anchor="middle" x="291" y="-7" font-family="Helvetica,sans-Serif" font-size="10.00">AudioVisualizer::shutdown</text>
</a>
</g>
</g>
<!-- Node1&#45;&gt;Node2 -->
<g id="edge1_Node000001_Node000002" class="edge">
<title>Node1&#45;&gt;Node2</title>
<g id="a_edge1_Node000001_Node000002"><a xlink:title=" ">
<path fill="none" stroke="#63b8ff" d="M389.53,-9.5C381.08,-9.5 372.57,-9.5 364.28,-9.5"/>
<polygon fill="#63b8ff" stroke="#63b8ff" points="389.77,-13 399.77,-9.5 389.77,-6 389.77,-13"/>
</a>
</g>
</g>
<!-- Node3 -->
<g id="Node000003" class="node">
<title>Node3</title>
<g id="a_Node000003"><a xlink:href="../../db/d2a/classAudioVisualizer.html#a4e167aa3015de416f338f24941ff3cba" target="_top" xlink:title=" ">
<polygon fill="white" stroke="#666666" points="182,-19 0,-19 0,0 182,0 182,-19"/>
<text text-anchor="middle" x="91" y="-7" font-family="Helvetica,sans-Serif" font-size="10.00">AudioVisualizer::~AudioVisualizer</text>
</a>
</g>
</g>
<!-- Node2&#45;&gt;Node3 -->
<g id="edge2_Node000002_Node000003" class="edge">
<title>Node2&#45;&gt;Node3</title>
<g id="a_edge2_Node000002_Node000003"><a xlink:title=" ">
<path fill="none" stroke="#63b8ff" d="M207.77,-9.5C199.34,-9.5 190.74,-9.5 182.23,-9.5"/>
<polygon fill="#63b8ff" stroke="#63b8ff" points="207.96,-13 217.96,-9.5 207.96,-6 207.96,-13"/>
</a>
</g>
</g>
</g>
</svg>
