<?xml version="1.0" encoding="UTF-8" standalone="no"?>
<!DOCTYPE svg PUBLIC "-//W3C//DTD SVG 1.1//EN"
 "http://www.w3.org/Graphics/SVG/1.1/DTD/svg11.dtd">
<!-- Generated by graphviz version 2.43.0 (0)
 -->
<!-- Title: AudioVisualizer::enabledChanged Pages: 1 -->
<svg width="733pt" height="38pt"
 viewBox="0.00 0.00 733.00 38.00" xmlns="http://www.w3.org/2000/svg" xmlns:xlink="http://www.w3.org/1999/xlink">
<g id="graph0" class="graph" transform="scale(1 1) rotate(0) translate(4 34)">
<title>AudioVisualizer::enabledChanged</title>
<!-- Node1 -->
<g id="Node000001" class="node">
<title>Node1</title>
<g id="a_Node000001"><a xlink:title="Emitted when visualizer is enabled/disabled.">
<polygon fill="#999999" stroke="#666666" points="725,-30 588,-30 588,0 725,0 725,-30"/>
<text text-anchor="start" x="596" y="-18" font-family="Helvetica,sans-Serif" font-size="10.00">AudioVisualizer::enabled</text>
<text text-anchor="middle" x="656.5" y="-7" font-family="Helvetica,sans-Serif" font-size="10.00">Changed</text>
</a>
</g>
</g>
<!-- Node2 -->
<g id="Node000002" class="node">
<title>Node2</title>
<g id="a_Node000002"><a xlink:href="../../db/d2a/classAudioVisualizer.html#a8af04956210fbdcdba1454bbfcd0830f" target="_top" xlink:title="Enable or disable the visualizer.">
<polygon fill="white" stroke="#666666" points="552,-24.5 400,-24.5 400,-5.5 552,-5.5 552,-24.5"/>
<text text-anchor="middle" x="476" y="-12.5" font-family="Helvetica,sans-Serif" font-size="10.00">AudioVisualizer::setEnabled</text>
</a>
</g>
</g>
<!-- Node1&#45;&gt;Node2 -->
<g id="edge1_Node000001_Node000002" class="edge">
<title>Node1&#45;&gt;Node2</title>
<g id="a_edge1_Node000001_Node000002"><a xlink:title=" ">
<path fill="none" stroke="#63b8ff" d="M577.56,-15C569.12,-15 560.55,-15 552.15,-15"/>
<polygon fill="#63b8ff" stroke="#63b8ff" points="577.76,-18.5 587.76,-15 577.76,-11.5 577.76,-18.5"/>
</a>
</g>
</g>
<!-- Node3 -->
<g id="Node000003" class="node">
<title>Node3</title>
<g id="a_Node000003"><a xlink:href="../../db/d2a/classAudioVisualizer.html#ad8ae2490ebe0b4f25324d6134d2a590f" target="_top" xlink:title="Shutdown the visualizer.">
<polygon fill="white" stroke="#666666" points="364,-24.5 218,-24.5 218,-5.5 364,-5.5 364,-24.5"/>
<text text-anchor="middle" x="291" y="-12.5" font-family="Helvetica,sans-Serif" font-size="10.00">AudioVisualizer::shutdown</text>
</a>
</g>
</g>
<!-- Node2&#45;&gt;Node3 -->
<g id="edge2_Node000002_Node000003" class="edge">
<title>Node2&#45;&gt;Node3</title>
<g id="a_edge2_Node000002_Node000003"><a xlink:title=" ">
<path fill="none" stroke="#63b8ff" d="M389.53,-15C381.08,-15 372.57,-15 364.28,-15"/>
<polygon fill="#63b8ff" stroke="#63b8ff" points="389.77,-18.5 399.77,-15 389.77,-11.5 389.77,-18.5"/>
</a>
</g>
</g>
<!-- Node4 -->
<g id="Node000004" class="node">
<title>Node4</title>
<g id="a_Node000004"><a xlink:href="../../db/d2a/classAudioVisualizer.html#a4e167aa3015de416f338f24941ff3cba" target="_top" xlink:title=" ">
<polygon fill="white" stroke="#666666" points="182,-24.5 0,-24.5 0,-5.5 182,-5.5 182,-24.5"/>
<text text-anchor="middle" x="91" y="-12.5" font-family="Helvetica,sans-Serif" font-size="10.00">AudioVisualizer::~AudioVisualizer</text>
</a>
</g>
</g>
<!-- Node3&#45;&gt;Node4 -->
<g id="edge3_Node000003_Node000004" class="edge">
<title>Node3&#45;&gt;Node4</title>
<g id="a_edge3_Node000003_Node000004"><a xlink:title=" ">
<path fill="none" stroke="#63b8ff" d="M207.77,-15C199.34,-15 190.74,-15 182.23,-15"/>
<polygon fill="#63b8ff" stroke="#63b8ff" points="207.96,-18.5 217.96,-15 207.96,-11.5 207.96,-18.5"/>
</a>
</g>
</g>
</g>
</svg>
