<?xml version="1.0" encoding="UTF-8" standalone="no"?>
<!DOCTYPE svg PUBLIC "-//W3C//DTD SVG 1.1//EN"
 "http://www.w3.org/Graphics/SVG/1.1/DTD/svg11.dtd">
<!-- Generated by graphviz version 2.43.0 (0)
 -->
<!-- Title: ComponentManager::allComponentsInitialized Pages: 1 -->
<svg width="415pt" height="124pt"
 viewBox="0.00 0.00 415.00 124.00" xmlns="http://www.w3.org/2000/svg" xmlns:xlink="http://www.w3.org/1999/xlink">
<g id="graph0" class="graph" transform="scale(1 1) rotate(0) translate(4 120)">
<title>ComponentManager::allComponentsInitialized</title>
<!-- Node1 -->
<g id="Node000001" class="node">
<title>Node1</title>
<g id="a_Node000001"><a xlink:title="Emitted when all components are initialized.">
<polygon fill="#999999" stroke="#666666" points="407,-73 212,-73 212,-43 407,-43 407,-73"/>
<text text-anchor="start" x="220" y="-61" font-family="Helvetica,sans-Serif" font-size="10.00">ComponentManager::allComponents</text>
<text text-anchor="middle" x="309.5" y="-50" font-family="Helvetica,sans-Serif" font-size="10.00">Initialized</text>
</a>
</g>
</g>
<!-- Node2 -->
<g id="Node000002" class="node">
<title>Node2</title>
<g id="a_Node000002"><a xlink:href="../../d2/d38/classEonPlayApplication.html#a4332862d2af1b77d083be91c08c8a583" target="_top" xlink:title=" ">
<polygon fill="white" stroke="#666666" points="146,-116 30,-116 30,-86 146,-86 146,-116"/>
<text text-anchor="start" x="38" y="-104" font-family="Helvetica,sans-Serif" font-size="10.00">EonPlayApplication</text>
<text text-anchor="middle" x="88" y="-93" font-family="Helvetica,sans-Serif" font-size="10.00">::EonPlayApplication</text>
</a>
</g>
</g>
<!-- Node1&#45;&gt;Node2 -->
<g id="edge1_Node000001_Node000002" class="edge">
<title>Node1&#45;&gt;Node2</title>
<g id="a_edge1_Node000001_Node000002"><a xlink:title=" ">
<path fill="none" stroke="#63b8ff" d="M221.7,-75C196.26,-79.99 169.09,-85.31 146.01,-89.83"/>
<polygon fill="#63b8ff" stroke="#63b8ff" points="222.59,-78.4 231.73,-73.04 221.24,-71.53 222.59,-78.4"/>
</a>
</g>
</g>
<!-- Node3 -->
<g id="Node000003" class="node">
<title>Node3</title>
<g id="a_Node000003"><a xlink:href="../../da/d51/classComponentManager.html#a0c21d6e88be3def75a70b314eea0c5ee" target="_top" xlink:title="Initialize all registered components.">
<polygon fill="white" stroke="#666666" points="176,-67.5 0,-67.5 0,-48.5 176,-48.5 176,-67.5"/>
<text text-anchor="middle" x="88" y="-55.5" font-family="Helvetica,sans-Serif" font-size="10.00">ComponentManager::initializeAll</text>
</a>
</g>
</g>
<!-- Node1&#45;&gt;Node3 -->
<g id="edge2_Node000001_Node000003" class="edge">
<title>Node1&#45;&gt;Node3</title>
<g id="a_edge2_Node000001_Node000003"><a xlink:title=" ">
<path fill="none" stroke="#63b8ff" d="M201.87,-58C193.31,-58 184.71,-58 176.3,-58"/>
<polygon fill="#63b8ff" stroke="#63b8ff" points="201.9,-61.5 211.9,-58 201.9,-54.5 201.9,-61.5"/>
</a>
</g>
</g>
<!-- Node4 -->
<g id="Node000004" class="node">
<title>Node4</title>
<g id="a_Node000004"><a xlink:href="../../d2/dd7/classMediaPlayerApplication.html#a4ae632879f4278eac66c205c13c4ebd3" target="_top" xlink:title=" ">
<polygon fill="white" stroke="#666666" points="157,-30 19,-30 19,0 157,0 157,-30"/>
<text text-anchor="start" x="27" y="-18" font-family="Helvetica,sans-Serif" font-size="10.00">MediaPlayerApplication</text>
<text text-anchor="middle" x="88" y="-7" font-family="Helvetica,sans-Serif" font-size="10.00">::MediaPlayerApplication</text>
</a>
</g>
</g>
<!-- Node1&#45;&gt;Node4 -->
<g id="edge3_Node000001_Node000004" class="edge">
<title>Node1&#45;&gt;Node4</title>
<g id="a_edge3_Node000001_Node000004"><a xlink:title=" ">
<path fill="none" stroke="#63b8ff" d="M221.67,-40.99C200.28,-36.8 177.68,-32.37 157.3,-28.38"/>
<polygon fill="#63b8ff" stroke="#63b8ff" points="221.24,-44.47 231.73,-42.96 222.59,-37.6 221.24,-44.47"/>
</a>
</g>
</g>
</g>
</svg>
