<?xml version="1.0" encoding="UTF-8" standalone="no"?>
<!DOCTYPE svg PUBLIC "-//W3C//DTD SVG 1.1//EN"
 "http://www.w3.org/Graphics/SVG/1.1/DTD/svg11.dtd">
<!-- Generated by graphviz version 2.43.0 (0)
 -->
<!-- Title: ComponentManager::initializeAll Pages: 1 -->
<svg width="415pt" height="134pt"
 viewBox="0.00 0.00 415.00 134.00" xmlns="http://www.w3.org/2000/svg" xmlns:xlink="http://www.w3.org/1999/xlink">
<g id="graph0" class="graph" transform="scale(1 1) rotate(0) translate(4 130)">
<title>ComponentManager::initializeAll</title>
<!-- Node1 -->
<g id="Node000001" class="node">
<title>Node1</title>
<g id="a_Node000001"><a xlink:title="Initialize all registered components.">
<polygon fill="#999999" stroke="#666666" points="176,-72.5 0,-72.5 0,-53.5 176,-53.5 176,-72.5"/>
<text text-anchor="middle" x="88" y="-60.5" font-family="Helvetica,sans-Serif" font-size="10.00">ComponentManager::initializeAll</text>
</a>
</g>
</g>
<!-- Node2 -->
<g id="Node000002" class="node">
<title>Node2</title>
<g id="a_Node000002"><a xlink:href="../../da/d51/classComponentManager.html#a14d464e5826e2f56ebb9656a45bab9b5" target="_top" xlink:title="Emitted when all components are initialized.">
<polygon fill="white" stroke="#666666" points="407,-126 212,-126 212,-96 407,-96 407,-126"/>
<text text-anchor="start" x="220" y="-114" font-family="Helvetica,sans-Serif" font-size="10.00">ComponentManager::allComponents</text>
<text text-anchor="middle" x="309.5" y="-103" font-family="Helvetica,sans-Serif" font-size="10.00">Initialized</text>
</a>
</g>
</g>
<!-- Node1&#45;&gt;Node2 -->
<g id="edge1_Node000001_Node000002" class="edge">
<title>Node1&#45;&gt;Node2</title>
<g id="a_edge1_Node000001_Node000002"><a xlink:title=" ">
<path fill="none" stroke="#63b8ff" d="M132.63,-72.54C160.39,-78.61 197.15,-86.65 229.88,-93.81"/>
<polygon fill="#63b8ff" stroke="#63b8ff" points="229.37,-97.28 239.89,-96 230.87,-90.44 229.37,-97.28"/>
</a>
</g>
</g>
<!-- Node3 -->
<g id="Node000003" class="node">
<title>Node3</title>
<g id="a_Node000003"><a xlink:href="../../da/d51/classComponentManager.html#a29c3007a5e33c40d35ff281bb0f1205e" target="_top" xlink:title="Emitted when a component fails to initialize.">
<polygon fill="white" stroke="#666666" points="397.5,-78 221.5,-78 221.5,-48 397.5,-48 397.5,-78"/>
<text text-anchor="start" x="229.5" y="-66" font-family="Helvetica,sans-Serif" font-size="10.00">ComponentManager::component</text>
<text text-anchor="middle" x="309.5" y="-55" font-family="Helvetica,sans-Serif" font-size="10.00">InitializationFailed</text>
</a>
</g>
</g>
<!-- Node1&#45;&gt;Node3 -->
<g id="edge2_Node000001_Node000003" class="edge">
<title>Node1&#45;&gt;Node3</title>
<g id="a_edge2_Node000001_Node000003"><a xlink:title=" ">
<path fill="none" stroke="#63b8ff" d="M176.07,-63C187.55,-63 199.37,-63 211.01,-63"/>
<polygon fill="#63b8ff" stroke="#63b8ff" points="211.18,-66.5 221.18,-63 211.18,-59.5 211.18,-66.5"/>
</a>
</g>
</g>
<!-- Node4 -->
<g id="Node000004" class="node">
<title>Node4</title>
<g id="a_Node000004"><a xlink:href="../../da/d51/classComponentManager.html#a5387beb55379f602178b91584f1914a7" target="_top" xlink:title="Emitted when a component is successfully initialized.">
<polygon fill="white" stroke="#666666" points="397.5,-30 221.5,-30 221.5,0 397.5,0 397.5,-30"/>
<text text-anchor="start" x="229.5" y="-18" font-family="Helvetica,sans-Serif" font-size="10.00">ComponentManager::component</text>
<text text-anchor="middle" x="309.5" y="-7" font-family="Helvetica,sans-Serif" font-size="10.00">Initialized</text>
</a>
</g>
</g>
<!-- Node1&#45;&gt;Node4 -->
<g id="edge3_Node000001_Node000004" class="edge">
<title>Node1&#45;&gt;Node4</title>
<g id="a_edge3_Node000001_Node000004"><a xlink:title=" ">
<path fill="none" stroke="#63b8ff" d="M132.63,-53.46C160.39,-47.39 197.15,-39.35 229.88,-32.19"/>
<polygon fill="#63b8ff" stroke="#63b8ff" points="230.87,-35.56 239.89,-30 229.37,-28.72 230.87,-35.56"/>
</a>
</g>
</g>
</g>
</svg>
