<?xml version="1.0" encoding="UTF-8" standalone="no"?>
<!DOCTYPE svg PUBLIC "-//W3C//DTD SVG 1.1//EN"
 "http://www.w3.org/Graphics/SVG/1.1/DTD/svg11.dtd">
<!-- Generated by graphviz version 2.43.0 (0)
 -->
<!-- Title: VLCBackend::setPreferredAccelerationType Pages: 1 -->
<svg width="754pt" height="140pt"
 viewBox="0.00 0.00 754.00 140.00" xmlns="http://www.w3.org/2000/svg" xmlns:xlink="http://www.w3.org/1999/xlink">
<g id="graph0" class="graph" transform="scale(1 1) rotate(0) translate(4 136)">
<title>VLCBackend::setPreferredAccelerationType</title>
<!-- Node1 -->
<g id="Node000001" class="node">
<title>Node1</title>
<g id="a_Node000001"><a xlink:title="Set preferred hardware acceleration type.">
<polygon fill="#999999" stroke="#666666" points="143,-105.5 0,-105.5 0,-75.5 143,-75.5 143,-105.5"/>
<text text-anchor="start" x="8" y="-93.5" font-family="Helvetica,sans-Serif" font-size="10.00">VLCBackend::setPreferred</text>
<text text-anchor="middle" x="71.5" y="-82.5" font-family="Helvetica,sans-Serif" font-size="10.00">AccelerationType</text>
</a>
</g>
</g>
<!-- Node2 -->
<g id="Node000002" class="node">
<title>Node2</title>
<g id="a_Node000002"><a xlink:href="../../de/dd0/classHardwareAcceleration.html#a5bf84a3466dfdd5fa1cbbcf181a23b95" target="_top" xlink:title="Get platform&#45;specific acceleration type name.">
<polygon fill="white" stroke="#666666" points="357.5,-129.5 206.5,-129.5 206.5,-99.5 357.5,-99.5 357.5,-129.5"/>
<text text-anchor="start" x="214.5" y="-117.5" font-family="Helvetica,sans-Serif" font-size="10.00">HardwareAcceleration</text>
<text text-anchor="middle" x="282" y="-106.5" font-family="Helvetica,sans-Serif" font-size="10.00">::getAccelerationTypeName</text>
</a>
</g>
</g>
<!-- Node1&#45;&gt;Node2 -->
<g id="edge1_Node000001_Node000002" class="edge">
<title>Node1&#45;&gt;Node2</title>
<g id="a_edge1_Node000001_Node000002"><a xlink:title=" ">
<path fill="none" stroke="#63b8ff" d="M143.09,-98.63C160.07,-100.58 178.4,-102.69 195.96,-104.71"/>
<polygon fill="#63b8ff" stroke="#63b8ff" points="195.87,-108.22 206.21,-105.89 196.67,-101.27 195.87,-108.22"/>
</a>
</g>
</g>
<!-- Node3 -->
<g id="Node000003" class="node">
<title>Node3</title>
<g id="a_Node000003"><a xlink:href="../../d6/d6e/classVLCBackend.html#a80643e4b0983248daee43ac1ada9d441" target="_top" xlink:title="Update hardware acceleration settings.">
<polygon fill="white" stroke="#666666" points="385,-81.5 179,-81.5 179,-51.5 385,-51.5 385,-81.5"/>
<text text-anchor="start" x="187" y="-69.5" font-family="Helvetica,sans-Serif" font-size="10.00">VLCBackend::setHardwareAcceleration</text>
<text text-anchor="middle" x="282" y="-58.5" font-family="Helvetica,sans-Serif" font-size="10.00">Enabled</text>
</a>
</g>
</g>
<!-- Node1&#45;&gt;Node3 -->
<g id="edge2_Node000001_Node000003" class="edge">
<title>Node1&#45;&gt;Node3</title>
<g id="a_edge2_Node000001_Node000003"><a xlink:title=" ">
<path fill="none" stroke="#63b8ff" d="M143.09,-82.37C151.33,-81.43 159.88,-80.44 168.5,-79.45"/>
<polygon fill="#63b8ff" stroke="#63b8ff" points="169.12,-82.9 178.65,-78.28 168.31,-75.95 169.12,-82.9"/>
</a>
</g>
</g>
<!-- Node4 -->
<g id="Node000004" class="node">
<title>Node4</title>
<g id="a_Node000004"><a xlink:href="../../d6/d6e/classVLCBackend.html#aeda285ae63c3a0e56c4158e484503d34" target="_top" xlink:title="Load media from file path or URL.">
<polygon fill="white" stroke="#666666" points="555,-95 421,-95 421,-76 555,-76 555,-95"/>
<text text-anchor="middle" x="488" y="-83" font-family="Helvetica,sans-Serif" font-size="10.00">VLCBackend::loadMedia</text>
</a>
</g>
</g>
<!-- Node3&#45;&gt;Node4 -->
<g id="edge3_Node000003_Node000004" class="edge">
<title>Node3&#45;&gt;Node4</title>
<g id="a_edge3_Node000003_Node000004"><a xlink:title=" ">
<path fill="none" stroke="#63b8ff" d="M385.3,-76.03C393.92,-76.83 402.54,-77.63 410.91,-78.41"/>
<polygon fill="#63b8ff" stroke="#63b8ff" points="410.7,-81.91 420.98,-79.35 411.35,-74.94 410.7,-81.91"/>
</a>
</g>
</g>
<!-- Node7 -->
<g id="Node000007" class="node">
<title>Node7</title>
<g id="a_Node000007"><a xlink:href="../../d6/d6e/classVLCBackend.html#a6043b25f0b210cdeac420aab048fde7d" target="_top" xlink:title="Start or resume playback.">
<polygon fill="white" stroke="#666666" points="540,-132 436,-132 436,-113 540,-113 540,-132"/>
<text text-anchor="middle" x="488" y="-120" font-family="Helvetica,sans-Serif" font-size="10.00">VLCBackend::play</text>
</a>
</g>
</g>
<!-- Node3&#45;&gt;Node7 -->
<g id="edge6_Node000003_Node000007" class="edge">
<title>Node3&#45;&gt;Node7</title>
<g id="a_edge6_Node000003_Node000007"><a xlink:title=" ">
<path fill="none" stroke="#63b8ff" d="M352.76,-81.54C363.62,-84.28 374.66,-87.29 385,-90.5 401.4,-95.59 404.7,-99.12 421,-104.5 427,-106.48 433.35,-108.41 439.65,-110.23"/>
<polygon fill="#63b8ff" stroke="#63b8ff" points="438.87,-113.65 449.45,-112.99 440.77,-106.91 438.87,-113.65"/>
</a>
</g>
</g>
<!-- Node8 -->
<g id="Node000008" class="node">
<title>Node8</title>
<g id="a_Node000008"><a xlink:href="../../d6/d6e/classVLCBackend.html#ab289e57c1f8b2ad2d86f07d0b41a37db" target="_top" xlink:title="Get current playback position.">
<polygon fill="white" stroke="#666666" points="729.5,-38 607.5,-38 607.5,-19 729.5,-19 729.5,-38"/>
<text text-anchor="middle" x="668.5" y="-26" font-family="Helvetica,sans-Serif" font-size="10.00">VLCBackend::position</text>
</a>
</g>
</g>
<!-- Node3&#45;&gt;Node8 -->
<g id="edge8_Node000003_Node000008" class="edge">
<title>Node3&#45;&gt;Node8</title>
<g id="a_edge8_Node000003_Node000008"><a xlink:title=" ">
<path fill="none" stroke="#63b8ff" d="M385.03,-56.42C452.01,-49.8 537.9,-41.31 597.29,-35.44"/>
<polygon fill="#63b8ff" stroke="#63b8ff" points="597.71,-38.91 607.32,-34.45 597.03,-31.95 597.71,-38.91"/>
</a>
</g>
</g>
<!-- Node9 -->
<g id="Node000009" class="node">
<title>Node9</title>
<g id="a_Node000009"><a xlink:href="../../d6/d6e/classVLCBackend.html#a74baf7c1984854476e23d9ae3c0f4224" target="_top" xlink:title="Seek to specific position.">
<polygon fill="white" stroke="#666666" points="541,-19 435,-19 435,0 541,0 541,-19"/>
<text text-anchor="middle" x="488" y="-7" font-family="Helvetica,sans-Serif" font-size="10.00">VLCBackend::seek</text>
</a>
</g>
</g>
<!-- Node3&#45;&gt;Node9 -->
<g id="edge9_Node000003_Node000009" class="edge">
<title>Node3&#45;&gt;Node9</title>
<g id="a_edge9_Node000003_Node000009"><a xlink:title=" ">
<path fill="none" stroke="#63b8ff" d="M336.87,-51.45C369.99,-42.19 411.91,-30.48 443.03,-21.79"/>
<polygon fill="#63b8ff" stroke="#63b8ff" points="444.04,-25.14 452.73,-19.08 442.15,-18.4 444.04,-25.14"/>
</a>
</g>
</g>
<!-- Node5 -->
<g id="Node000005" class="node">
<title>Node5</title>
<g id="a_Node000005"><a xlink:href="../../d0/dbd/classIMediaEngine.html#afd3b746eb440a3385bd290bc92323a0a" target="_top" xlink:title="Emitted when an error occurs.">
<polygon fill="white" stroke="#666666" points="746,-132 591,-132 591,-113 746,-113 746,-132"/>
<text text-anchor="middle" x="668.5" y="-120" font-family="Helvetica,sans-Serif" font-size="10.00">IMediaEngine::errorOccurred</text>
</a>
</g>
</g>
<!-- Node4&#45;&gt;Node5 -->
<g id="edge4_Node000004_Node000005" class="edge">
<title>Node4&#45;&gt;Node5</title>
<g id="a_edge4_Node000004_Node000005"><a xlink:title=" ">
<path fill="none" stroke="#63b8ff" d="M534.97,-95.03C558.3,-99.86 586.84,-105.78 611.45,-110.88"/>
<polygon fill="#63b8ff" stroke="#63b8ff" points="610.88,-114.34 621.38,-112.94 612.3,-107.48 610.88,-114.34"/>
</a>
</g>
</g>
<!-- Node6 -->
<g id="Node000006" class="node">
<title>Node6</title>
<g id="a_Node000006"><a xlink:href="../../d0/dbd/classIMediaEngine.html#a2627690efa2c50ca165f675ef84b8804" target="_top" xlink:title="Emitted when media loading completes.">
<polygon fill="white" stroke="#666666" points="746,-95 591,-95 591,-76 746,-76 746,-95"/>
<text text-anchor="middle" x="668.5" y="-83" font-family="Helvetica,sans-Serif" font-size="10.00">IMediaEngine::mediaLoaded</text>
</a>
</g>
</g>
<!-- Node4&#45;&gt;Node6 -->
<g id="edge5_Node000004_Node000006" class="edge">
<title>Node4&#45;&gt;Node6</title>
<g id="a_edge5_Node000004_Node000006"><a xlink:title=" ">
<path fill="none" stroke="#63b8ff" d="M555.21,-85.5C563.56,-85.5 572.19,-85.5 580.79,-85.5"/>
<polygon fill="#63b8ff" stroke="#63b8ff" points="580.85,-89 590.85,-85.5 580.85,-82 580.85,-89"/>
</a>
</g>
</g>
<!-- Node7&#45;&gt;Node5 -->
<g id="edge7_Node000007_Node000005" class="edge">
<title>Node7&#45;&gt;Node5</title>
<g id="a_edge7_Node000007_Node000005"><a xlink:title=" ">
<path fill="none" stroke="#63b8ff" d="M540.15,-122.5C552.83,-122.5 566.78,-122.5 580.65,-122.5"/>
<polygon fill="#63b8ff" stroke="#63b8ff" points="580.72,-126 590.72,-122.5 580.72,-119 580.72,-126"/>
</a>
</g>
</g>
<!-- Node9&#45;&gt;Node8 -->
<g id="edge10_Node000009_Node000008" class="edge">
<title>Node9&#45;&gt;Node8</title>
<g id="a_edge10_Node000009_Node000008"><a xlink:title=" ">
<path fill="none" stroke="#63b8ff" d="M541.11,-15.05C558.73,-16.92 578.7,-19.05 597.48,-21.05"/>
<polygon fill="#63b8ff" stroke="#63b8ff" points="597.15,-24.53 607.47,-22.11 597.89,-17.57 597.15,-24.53"/>
</a>
</g>
</g>
</g>
</svg>
