<?xml version="1.0" encoding="UTF-8" standalone="no"?>
<!DOCTYPE svg PUBLIC "-//W3C//DTD SVG 1.1//EN"
 "http://www.w3.org/Graphics/SVG/1.1/DTD/svg11.dtd">
<!-- Generated by graphviz version 2.43.0 (0)
 -->
<!-- Title: VLCBackend::updateHardwareAccelerationFromPreferences Pages: 1 -->
<svg width="955pt" height="180pt"
 viewBox="0.00 0.00 955.00 179.50" xmlns="http://www.w3.org/2000/svg" xmlns:xlink="http://www.w3.org/1999/xlink">
<g id="graph0" class="graph" transform="scale(1 1) rotate(0) translate(4 175.5)">
<title>VLCBackend::updateHardwareAccelerationFromPreferences</title>
<!-- Node1 -->
<g id="Node000001" class="node">
<title>Node1</title>
<g id="a_Node000001"><a xlink:title="Update hardware acceleration from user preferences.">
<polygon fill="#999999" stroke="#666666" points="164,-78 0,-78 0,-48 164,-48 164,-78"/>
<text text-anchor="start" x="8" y="-66" font-family="Helvetica,sans-Serif" font-size="10.00">VLCBackend::updateHardware</text>
<text text-anchor="middle" x="82" y="-55" font-family="Helvetica,sans-Serif" font-size="10.00">AccelerationFromPreferences</text>
</a>
</g>
</g>
<!-- Node2 -->
<g id="Node000002" class="node">
<title>Node2</title>
<g id="a_Node000002"><a xlink:href="../../d6/d6e/classVLCBackend.html#a80643e4b0983248daee43ac1ada9d441" target="_top" xlink:title="Update hardware acceleration settings.">
<polygon fill="white" stroke="#666666" points="586,-121 380,-121 380,-91 586,-91 586,-121"/>
<text text-anchor="start" x="388" y="-109" font-family="Helvetica,sans-Serif" font-size="10.00">VLCBackend::setHardwareAcceleration</text>
<text text-anchor="middle" x="483" y="-98" font-family="Helvetica,sans-Serif" font-size="10.00">Enabled</text>
</a>
</g>
</g>
<!-- Node1&#45;&gt;Node2 -->
<g id="edge1_Node000001_Node000002" class="edge">
<title>Node1&#45;&gt;Node2</title>
<g id="a_edge1_Node000001_Node000002"><a xlink:title=" ">
<path fill="none" stroke="#63b8ff" d="M148.33,-78.02C165.09,-81.43 183.15,-84.71 200,-87 255.61,-94.54 317.82,-99.14 369.63,-101.91"/>
<polygon fill="#63b8ff" stroke="#63b8ff" points="369.68,-105.42 379.85,-102.45 370.05,-98.43 369.68,-105.42"/>
</a>
</g>
</g>
<!-- Node9 -->
<g id="Node000009" class="node">
<title>Node9</title>
<g id="a_Node000009"><a xlink:href="../../d6/d6e/classVLCBackend.html#ac324fcd2c2413b5753bfcf3064df5157" target="_top" xlink:title="Set preferred hardware acceleration type.">
<polygon fill="white" stroke="#666666" points="343.5,-78 200.5,-78 200.5,-48 343.5,-48 343.5,-78"/>
<text text-anchor="start" x="208.5" y="-66" font-family="Helvetica,sans-Serif" font-size="10.00">VLCBackend::setPreferred</text>
<text text-anchor="middle" x="272" y="-55" font-family="Helvetica,sans-Serif" font-size="10.00">AccelerationType</text>
</a>
</g>
</g>
<!-- Node1&#45;&gt;Node9 -->
<g id="edge10_Node000001_Node000009" class="edge">
<title>Node1&#45;&gt;Node9</title>
<g id="a_edge10_Node000001_Node000009"><a xlink:title=" ">
<path fill="none" stroke="#63b8ff" d="M164.09,-63C172.74,-63 181.53,-63 190.17,-63"/>
<polygon fill="#63b8ff" stroke="#63b8ff" points="190.22,-66.5 200.22,-63 190.22,-59.5 190.22,-66.5"/>
</a>
</g>
</g>
<!-- Node11 -->
<g id="Node000011" class="node">
<title>Node11</title>
<g id="a_Node000011"><a xlink:href="../../de/dd0/classHardwareAcceleration.html#a7b3312452a26cb8263617e282ed3d010" target="_top" xlink:title="Convert string to acceleration type.">
<polygon fill="white" stroke="#666666" points="344,-30 200,-30 200,0 344,0 344,-30"/>
<text text-anchor="start" x="208" y="-18" font-family="Helvetica,sans-Serif" font-size="10.00">HardwareAcceleration</text>
<text text-anchor="middle" x="272" y="-7" font-family="Helvetica,sans-Serif" font-size="10.00">::stringToAccelerationType</text>
</a>
</g>
</g>
<!-- Node1&#45;&gt;Node11 -->
<g id="edge13_Node000001_Node000011" class="edge">
<title>Node1&#45;&gt;Node11</title>
<g id="a_edge13_Node000001_Node000011"><a xlink:title=" ">
<path fill="none" stroke="#63b8ff" d="M141.97,-47.94C161.13,-43.05 182.56,-37.58 202.36,-32.52"/>
<polygon fill="#63b8ff" stroke="#63b8ff" points="203.42,-35.87 212.24,-30 201.69,-29.09 203.42,-35.87"/>
</a>
</g>
</g>
<!-- Node3 -->
<g id="Node000003" class="node">
<title>Node3</title>
<g id="a_Node000003"><a xlink:href="../../d6/d6e/classVLCBackend.html#aeda285ae63c3a0e56c4158e484503d34" target="_top" xlink:title="Load media from file path or URL.">
<polygon fill="white" stroke="#666666" points="756,-134.5 622,-134.5 622,-115.5 756,-115.5 756,-134.5"/>
<text text-anchor="middle" x="689" y="-122.5" font-family="Helvetica,sans-Serif" font-size="10.00">VLCBackend::loadMedia</text>
</a>
</g>
</g>
<!-- Node2&#45;&gt;Node3 -->
<g id="edge2_Node000002_Node000003" class="edge">
<title>Node2&#45;&gt;Node3</title>
<g id="a_edge2_Node000002_Node000003"><a xlink:title=" ">
<path fill="none" stroke="#63b8ff" d="M586.3,-115.53C594.92,-116.33 603.54,-117.13 611.91,-117.91"/>
<polygon fill="#63b8ff" stroke="#63b8ff" points="611.7,-121.41 621.98,-118.85 612.35,-114.44 611.7,-121.41"/>
</a>
</g>
</g>
<!-- Node6 -->
<g id="Node000006" class="node">
<title>Node6</title>
<g id="a_Node000006"><a xlink:href="../../d6/d6e/classVLCBackend.html#a6043b25f0b210cdeac420aab048fde7d" target="_top" xlink:title="Start or resume playback.">
<polygon fill="white" stroke="#666666" points="741,-171.5 637,-171.5 637,-152.5 741,-152.5 741,-171.5"/>
<text text-anchor="middle" x="689" y="-159.5" font-family="Helvetica,sans-Serif" font-size="10.00">VLCBackend::play</text>
</a>
</g>
</g>
<!-- Node2&#45;&gt;Node6 -->
<g id="edge5_Node000002_Node000006" class="edge">
<title>Node2&#45;&gt;Node6</title>
<g id="a_edge5_Node000002_Node000006"><a xlink:title=" ">
<path fill="none" stroke="#63b8ff" d="M538.39,-121.01C563.79,-128.01 594.44,-136.45 622,-144 628.77,-145.86 635.94,-147.81 642.95,-149.73"/>
<polygon fill="#63b8ff" stroke="#63b8ff" points="642.49,-153.23 653.06,-152.49 644.33,-146.48 642.49,-153.23"/>
</a>
</g>
</g>
<!-- Node7 -->
<g id="Node000007" class="node">
<title>Node7</title>
<g id="a_Node000007"><a xlink:href="../../d6/d6e/classVLCBackend.html#ab289e57c1f8b2ad2d86f07d0b41a37db" target="_top" xlink:title="Get current playback position.">
<polygon fill="white" stroke="#666666" points="930.5,-77.5 808.5,-77.5 808.5,-58.5 930.5,-58.5 930.5,-77.5"/>
<text text-anchor="middle" x="869.5" y="-65.5" font-family="Helvetica,sans-Serif" font-size="10.00">VLCBackend::position</text>
</a>
</g>
</g>
<!-- Node2&#45;&gt;Node7 -->
<g id="edge7_Node000002_Node000007" class="edge">
<title>Node2&#45;&gt;Node7</title>
<g id="a_edge7_Node000002_Node000007"><a xlink:title=" ">
<path fill="none" stroke="#63b8ff" d="M586.03,-95.92C653.01,-89.3 738.9,-80.81 798.29,-74.94"/>
<polygon fill="#63b8ff" stroke="#63b8ff" points="798.71,-78.41 808.32,-73.95 798.03,-71.45 798.71,-78.41"/>
</a>
</g>
</g>
<!-- Node8 -->
<g id="Node000008" class="node">
<title>Node8</title>
<g id="a_Node000008"><a xlink:href="../../d6/d6e/classVLCBackend.html#a74baf7c1984854476e23d9ae3c0f4224" target="_top" xlink:title="Seek to specific position.">
<polygon fill="white" stroke="#666666" points="742,-58.5 636,-58.5 636,-39.5 742,-39.5 742,-58.5"/>
<text text-anchor="middle" x="689" y="-46.5" font-family="Helvetica,sans-Serif" font-size="10.00">VLCBackend::seek</text>
</a>
</g>
</g>
<!-- Node2&#45;&gt;Node8 -->
<g id="edge8_Node000002_Node000008" class="edge">
<title>Node2&#45;&gt;Node8</title>
<g id="a_edge8_Node000002_Node000008"><a xlink:title=" ">
<path fill="none" stroke="#63b8ff" d="M551.41,-90.96C562.99,-88.14 574.87,-85.1 586,-82 607.68,-75.95 631.64,-68.26 650.88,-61.82"/>
<polygon fill="#63b8ff" stroke="#63b8ff" points="652.12,-65.09 660.48,-58.58 649.88,-58.46 652.12,-65.09"/>
</a>
</g>
</g>
<!-- Node4 -->
<g id="Node000004" class="node">
<title>Node4</title>
<g id="a_Node000004"><a xlink:href="../../d0/dbd/classIMediaEngine.html#afd3b746eb440a3385bd290bc92323a0a" target="_top" xlink:title="Emitted when an error occurs.">
<polygon fill="white" stroke="#666666" points="947,-171.5 792,-171.5 792,-152.5 947,-152.5 947,-171.5"/>
<text text-anchor="middle" x="869.5" y="-159.5" font-family="Helvetica,sans-Serif" font-size="10.00">IMediaEngine::errorOccurred</text>
</a>
</g>
</g>
<!-- Node3&#45;&gt;Node4 -->
<g id="edge3_Node000003_Node000004" class="edge">
<title>Node3&#45;&gt;Node4</title>
<g id="a_edge3_Node000003_Node000004"><a xlink:title=" ">
<path fill="none" stroke="#63b8ff" d="M735.97,-134.53C759.3,-139.36 787.84,-145.28 812.45,-150.38"/>
<polygon fill="#63b8ff" stroke="#63b8ff" points="811.88,-153.84 822.38,-152.44 813.3,-146.98 811.88,-153.84"/>
</a>
</g>
</g>
<!-- Node5 -->
<g id="Node000005" class="node">
<title>Node5</title>
<g id="a_Node000005"><a xlink:href="../../d0/dbd/classIMediaEngine.html#a2627690efa2c50ca165f675ef84b8804" target="_top" xlink:title="Emitted when media loading completes.">
<polygon fill="white" stroke="#666666" points="947,-134.5 792,-134.5 792,-115.5 947,-115.5 947,-134.5"/>
<text text-anchor="middle" x="869.5" y="-122.5" font-family="Helvetica,sans-Serif" font-size="10.00">IMediaEngine::mediaLoaded</text>
</a>
</g>
</g>
<!-- Node3&#45;&gt;Node5 -->
<g id="edge4_Node000003_Node000005" class="edge">
<title>Node3&#45;&gt;Node5</title>
<g id="a_edge4_Node000003_Node000005"><a xlink:title=" ">
<path fill="none" stroke="#63b8ff" d="M756.21,-125C764.56,-125 773.19,-125 781.79,-125"/>
<polygon fill="#63b8ff" stroke="#63b8ff" points="781.85,-128.5 791.85,-125 781.85,-121.5 781.85,-128.5"/>
</a>
</g>
</g>
<!-- Node6&#45;&gt;Node4 -->
<g id="edge6_Node000006_Node000004" class="edge">
<title>Node6&#45;&gt;Node4</title>
<g id="a_edge6_Node000006_Node000004"><a xlink:title=" ">
<path fill="none" stroke="#63b8ff" d="M741.15,-162C753.83,-162 767.78,-162 781.65,-162"/>
<polygon fill="#63b8ff" stroke="#63b8ff" points="781.72,-165.5 791.72,-162 781.72,-158.5 781.72,-165.5"/>
</a>
</g>
</g>
<!-- Node8&#45;&gt;Node7 -->
<g id="edge9_Node000008_Node000007" class="edge">
<title>Node8&#45;&gt;Node7</title>
<g id="a_edge9_Node000008_Node000007"><a xlink:title=" ">
<path fill="none" stroke="#63b8ff" d="M742.11,-54.55C759.73,-56.42 779.7,-58.55 798.48,-60.55"/>
<polygon fill="#63b8ff" stroke="#63b8ff" points="798.15,-64.03 808.47,-61.61 798.89,-57.07 798.15,-64.03"/>
</a>
</g>
</g>
<!-- Node9&#45;&gt;Node2 -->
<g id="edge12_Node000009_Node000002" class="edge">
<title>Node9&#45;&gt;Node2</title>
<g id="a_edge12_Node000009_Node000002"><a xlink:title=" ">
<path fill="none" stroke="#63b8ff" d="M343.76,-77.56C361.44,-81.2 380.57,-85.13 398.8,-88.88"/>
<polygon fill="#63b8ff" stroke="#63b8ff" points="398.32,-92.36 408.82,-90.94 399.73,-85.5 398.32,-92.36"/>
</a>
</g>
</g>
<!-- Node10 -->
<g id="Node000010" class="node">
<title>Node10</title>
<g id="a_Node000010"><a xlink:href="../../de/dd0/classHardwareAcceleration.html#a5bf84a3466dfdd5fa1cbbcf181a23b95" target="_top" xlink:title="Get platform&#45;specific acceleration type name.">
<polygon fill="white" stroke="#666666" points="558.5,-73 407.5,-73 407.5,-43 558.5,-43 558.5,-73"/>
<text text-anchor="start" x="415.5" y="-61" font-family="Helvetica,sans-Serif" font-size="10.00">HardwareAcceleration</text>
<text text-anchor="middle" x="483" y="-50" font-family="Helvetica,sans-Serif" font-size="10.00">::getAccelerationTypeName</text>
</a>
</g>
</g>
<!-- Node9&#45;&gt;Node10 -->
<g id="edge11_Node000009_Node000010" class="edge">
<title>Node9&#45;&gt;Node10</title>
<g id="a_edge11_Node000009_Node000010"><a xlink:title=" ">
<path fill="none" stroke="#63b8ff" d="M343.76,-61.31C360.88,-60.9 379.36,-60.46 397.07,-60.03"/>
<polygon fill="#63b8ff" stroke="#63b8ff" points="397.47,-63.52 407.39,-59.79 397.3,-56.53 397.47,-63.52"/>
</a>
</g>
</g>
</g>
</svg>
