<?xml version="1.0" encoding="UTF-8" standalone="no"?>
<!DOCTYPE svg PUBLIC "-//W3C//DTD SVG 1.1//EN"
 "http://www.w3.org/Graphics/SVG/1.1/DTD/svg11.dtd">
<!-- Generated by graphviz version 2.43.0 (0)
 -->
<!-- Title: VLCBackend::updateHardwareAccelerationFromPreferences Pages: 1 -->
<!--zoomable 180 -->

<svg id="main" version="1.1" xmlns="http://www.w3.org/2000/svg" xmlns:xlink="http://www.w3.org/1999/xlink" xml:space="preserve" onload="init(evt)">
<style type="text/css"><![CDATA[
.node, .edge {opacity: 0.7;}
.node.selected, .edge.selected {opacity: 1;}
.edge:hover path { stroke: red; }
.edge:hover polygon { stroke: red; fill: red; }
]]></style>

<defs>
  <circle id="rim" cx="0" cy="0" r="7"/>
  <circle id="rim2" cx="0" cy="0" r="3.5"/>
  <g id="zoomPlus">
    <use xlink:href="#rim" fill="#404040"><set attributeName="fill" to="#808080" begin="zoomplus.mouseover" end="zoomplus.mouseout"/></use>
    <path d="M-4,0h8M0,-4v8" fill="none" stroke="white" stroke-width="1.5" pointer-events="none"/>
  </g>
  <g id="zoomMin">
    <use xlink:href="#rim" fill="#404040"><set attributeName="fill" to="#808080" begin="zoomminus.mouseover" end="zoomminus.mouseout"/></use>
    <path d="M-4,0h8" fill="none" stroke="white" stroke-width="1.5" pointer-events="none"/>
  </g>
  <g id="arrowUp" transform="translate(30 24)">
    <use xlink:href="#rim"/>
    <path pointer-events="none" fill="none" stroke="white" stroke-width="1.5" d="M0,-3.0v7 M-2.5,-0.5L0,-3.0L2.5,-0.5"/>
  </g>
  <g id="arrowRight" transform="rotate(90) translate(36 -43)">
    <use xlink:href="#rim"/>
    <path pointer-events="none" fill="none" stroke="white" stroke-width="1.5" d="M0,-3.0v7 M-2.5,-0.5L0,-3.0L2.5,-0.5"/>
  </g>
  <g id="arrowDown" transform="rotate(180) translate(-30 -48)">
    <use xlink:href="#rim"/>
    <path pointer-events="none" fill="none" stroke="white" stroke-width="1.5" d="M0,-3.0v7 M-2.5,-0.5L0,-3.0L2.5,-0.5"/>
  </g>
  <g id="arrowLeft" transform="rotate(270) translate(-36 17)">
    <use xlink:href="#rim"/>
    <path pointer-events="none" fill="none" stroke="white" stroke-width="1.5" d="M0,-3.0v7 M-2.5,-0.5L0,-3.0L2.5,-0.5"/>
  </g>
  <g id="resetDef">
    <use xlink:href="#rim2" fill="#404040"><set attributeName="fill" to="#808080" begin="reset.mouseover" end="reset.mouseout"/></use>
  </g>
</defs>
<script type="application/ecmascript">
var viewWidth = 955;
var viewHeight = 180;
var sectionId = 'dynsection-18';
</script>
<script type="application/ecmascript" xlink:href="../../svg.min.js"/>
<svg id="graph" class="graph">
<g id="viewport">
<title>VLCBackend::updateHardwareAccelerationFromPreferences</title>
<!-- Node1 -->
<g id="Node000001" class="node">
<title>Node1</title>
<g id="a_Node000001"><a xlink:title="Update hardware acceleration from user preferences.">
<polygon fill="#999999" stroke="#666666" points="164,-78 0,-78 0,-48 164,-48 164,-78"/>
<text text-anchor="start" x="8" y="-66" font-family="Helvetica,sans-Serif" font-size="10.00">VLCBackend::updateHardware</text>
<text text-anchor="middle" x="82" y="-55" font-family="Helvetica,sans-Serif" font-size="10.00">AccelerationFromPreferences</text>
</a>
</g>
</g>
<!-- Node2 -->
<g id="Node000002" class="node">
<title>Node2</title>
<g id="a_Node000002"><a xlink:href="../../d6/d6e/classVLCBackend.html#a80643e4b0983248daee43ac1ada9d441" target="_top" xlink:title="Update hardware acceleration settings.">
<polygon fill="white" stroke="#666666" points="586,-121 380,-121 380,-91 586,-91 586,-121"/>
<text text-anchor="start" x="388" y="-109" font-family="Helvetica,sans-Serif" font-size="10.00">VLCBackend::setHardwareAcceleration</text>
<text text-anchor="middle" x="483" y="-98" font-family="Helvetica,sans-Serif" font-size="10.00">Enabled</text>
</a>
</g>
</g>
<!-- Node1&#45;&gt;Node2 -->
<g id="edge1_Node000001_Node000002" class="edge">
<title>Node1&#45;&gt;Node2</title>
<g id="a_edge1_Node000001_Node000002"><a xlink:title=" ">
<path fill="none" stroke="#63b8ff" d="M148.33,-78.02C165.09,-81.43 183.15,-84.71 200,-87 255.61,-94.54 317.82,-99.14 369.63,-101.91"/>
<polygon fill="#63b8ff" stroke="#63b8ff" points="369.68,-105.42 379.85,-102.45 370.05,-98.43 369.68,-105.42"/>
</a>
</g>
</g>
<!-- Node9 -->
<g id="Node000009" class="node">
<title>Node9</title>
<g id="a_Node000009"><a xlink:href="../../d6/d6e/classVLCBackend.html#ac324fcd2c2413b5753bfcf3064df5157" target="_top" xlink:title="Set preferred hardware acceleration type.">
<polygon fill="white" stroke="#666666" points="343.5,-78 200.5,-78 200.5,-48 343.5,-48 343.5,-78"/>
<text text-anchor="start" x="208.5" y="-66" font-family="Helvetica,sans-Serif" font-size="10.00">VLCBackend::setPreferred</text>
<text text-anchor="middle" x="272" y="-55" font-family="Helvetica,sans-Serif" font-size="10.00">AccelerationType</text>
</a>
</g>
</g>
<!-- Node1&#45;&gt;Node9 -->
<g id="edge10_Node000001_Node000009" class="edge">
<title>Node1&#45;&gt;Node9</title>
<g id="a_edge10_Node000001_Node000009"><a xlink:title=" ">
<path fill="none" stroke="#63b8ff" d="M164.09,-63C172.74,-63 181.53,-63 190.17,-63"/>
<polygon fill="#63b8ff" stroke="#63b8ff" points="190.22,-66.5 200.22,-63 190.22,-59.5 190.22,-66.5"/>
</a>
</g>
</g>
<!-- Node11 -->
<g id="Node000011" class="node">
<title>Node11</title>
<g id="a_Node000011"><a xlink:href="../../de/dd0/classHardwareAcceleration.html#a7b3312452a26cb8263617e282ed3d010" target="_top" xlink:title="Convert string to acceleration type.">
<polygon fill="white" stroke="#666666" points="344,-30 200,-30 200,0 344,0 344,-30"/>
<text text-anchor="start" x="208" y="-18" font-family="Helvetica,sans-Serif" font-size="10.00">HardwareAcceleration</text>
<text text-anchor="middle" x="272" y="-7" font-family="Helvetica,sans-Serif" font-size="10.00">::stringToAccelerationType</text>
</a>
</g>
</g>
<!-- Node1&#45;&gt;Node11 -->
<g id="edge13_Node000001_Node000011" class="edge">
<title>Node1&#45;&gt;Node11</title>
<g id="a_edge13_Node000001_Node000011"><a xlink:title=" ">
<path fill="none" stroke="#63b8ff" d="M141.97,-47.94C161.13,-43.05 182.56,-37.58 202.36,-32.52"/>
<polygon fill="#63b8ff" stroke="#63b8ff" points="203.42,-35.87 212.24,-30 201.69,-29.09 203.42,-35.87"/>
</a>
</g>
</g>
<!-- Node3 -->
<g id="Node000003" class="node">
<title>Node3</title>
<g id="a_Node000003"><a xlink:href="../../d6/d6e/classVLCBackend.html#aeda285ae63c3a0e56c4158e484503d34" target="_top" xlink:title="Load media from file path or URL.">
<polygon fill="white" stroke="#666666" points="756,-134.5 622,-134.5 622,-115.5 756,-115.5 756,-134.5"/>
<text text-anchor="middle" x="689" y="-122.5" font-family="Helvetica,sans-Serif" font-size="10.00">VLCBackend::loadMedia</text>
</a>
</g>
</g>
<!-- Node2&#45;&gt;Node3 -->
<g id="edge2_Node000002_Node000003" class="edge">
<title>Node2&#45;&gt;Node3</title>
<g id="a_edge2_Node000002_Node000003"><a xlink:title=" ">
<path fill="none" stroke="#63b8ff" d="M586.3,-115.53C594.92,-116.33 603.54,-117.13 611.91,-117.91"/>
<polygon fill="#63b8ff" stroke="#63b8ff" points="611.7,-121.41 621.98,-118.85 612.35,-114.44 611.7,-121.41"/>
</a>
</g>
</g>
<!-- Node6 -->
<g id="Node000006" class="node">
<title>Node6</title>
<g id="a_Node000006"><a xlink:href="../../d6/d6e/classVLCBackend.html#a6043b25f0b210cdeac420aab048fde7d" target="_top" xlink:title="Start or resume playback.">
<polygon fill="white" stroke="#666666" points="741,-171.5 637,-171.5 637,-152.5 741,-152.5 741,-171.5"/>
<text text-anchor="middle" x="689" y="-159.5" font-family="Helvetica,sans-Serif" font-size="10.00">VLCBackend::play</text>
</a>
</g>
</g>
<!-- Node2&#45;&gt;Node6 -->
<g id="edge5_Node000002_Node000006" class="edge">
<title>Node2&#45;&gt;Node6</title>
<g id="a_edge5_Node000002_Node000006"><a xlink:title=" ">
<path fill="none" stroke="#63b8ff" d="M538.39,-121.01C563.79,-128.01 594.44,-136.45 622,-144 628.77,-145.86 635.94,-147.81 642.95,-149.73"/>
<polygon fill="#63b8ff" stroke="#63b8ff" points="642.49,-153.23 653.06,-152.49 644.33,-146.48 642.49,-153.23"/>
</a>
</g>
</g>
<!-- Node7 -->
<g id="Node000007" class="node">
<title>Node7</title>
<g id="a_Node000007"><a xlink:href="../../d6/d6e/classVLCBackend.html#ab289e57c1f8b2ad2d86f07d0b41a37db" target="_top" xlink:title="Get current playback position.">
<polygon fill="white" stroke="#666666" points="930.5,-77.5 808.5,-77.5 808.5,-58.5 930.5,-58.5 930.5,-77.5"/>
<text text-anchor="middle" x="869.5" y="-65.5" font-family="Helvetica,sans-Serif" font-size="10.00">VLCBackend::position</text>
</a>
</g>
</g>
<!-- Node2&#45;&gt;Node7 -->
<g id="edge7_Node000002_Node000007" class="edge">
<title>Node2&#45;&gt;Node7</title>
<g id="a_edge7_Node000002_Node000007"><a xlink:title=" ">
<path fill="none" stroke="#63b8ff" d="M586.03,-95.92C653.01,-89.3 738.9,-80.81 798.29,-74.94"/>
<polygon fill="#63b8ff" stroke="#63b8ff" points="798.71,-78.41 808.32,-73.95 798.03,-71.45 798.71,-78.41"/>
</a>
</g>
</g>
<!-- Node8 -->
<g id="Node000008" class="node">
<title>Node8</title>
<g id="a_Node000008"><a xlink:href="../../d6/d6e/classVLCBackend.html#a74baf7c1984854476e23d9ae3c0f4224" target="_top" xlink:title="Seek to specific position.">
<polygon fill="white" stroke="#666666" points="742,-58.5 636,-58.5 636,-39.5 742,-39.5 742,-58.5"/>
<text text-anchor="middle" x="689" y="-46.5" font-family="Helvetica,sans-Serif" font-size="10.00">VLCBackend::seek</text>
</a>
</g>
</g>
<!-- Node2&#45;&gt;Node8 -->
<g id="edge8_Node000002_Node000008" class="edge">
<title>Node2&#45;&gt;Node8</title>
<g id="a_edge8_Node000002_Node000008"><a xlink:title=" ">
<path fill="none" stroke="#63b8ff" d="M551.41,-90.96C562.99,-88.14 574.87,-85.1 586,-82 607.68,-75.95 631.64,-68.26 650.88,-61.82"/>
<polygon fill="#63b8ff" stroke="#63b8ff" points="652.12,-65.09 660.48,-58.58 649.88,-58.46 652.12,-65.09"/>
</a>
</g>
</g>
<!-- Node4 -->
<g id="Node000004" class="node">
<title>Node4</title>
<g id="a_Node000004"><a xlink:href="../../d0/dbd/classIMediaEngine.html#afd3b746eb440a3385bd290bc92323a0a" target="_top" xlink:title="Emitted when an error occurs.">
<polygon fill="white" stroke="#666666" points="947,-171.5 792,-171.5 792,-152.5 947,-152.5 947,-171.5"/>
<text text-anchor="middle" x="869.5" y="-159.5" font-family="Helvetica,sans-Serif" font-size="10.00">IMediaEngine::errorOccurred</text>
</a>
</g>
</g>
<!-- Node3&#45;&gt;Node4 -->
<g id="edge3_Node000003_Node000004" class="edge">
<title>Node3&#45;&gt;Node4</title>
<g id="a_edge3_Node000003_Node000004"><a xlink:title=" ">
<path fill="none" stroke="#63b8ff" d="M735.97,-134.53C759.3,-139.36 787.84,-145.28 812.45,-150.38"/>
<polygon fill="#63b8ff" stroke="#63b8ff" points="811.88,-153.84 822.38,-152.44 813.3,-146.98 811.88,-153.84"/>
</a>
</g>
</g>
<!-- Node5 -->
<g id="Node000005" class="node">
<title>Node5</title>
<g id="a_Node000005"><a xlink:href="../../d0/dbd/classIMediaEngine.html#a2627690efa2c50ca165f675ef84b8804" target="_top" xlink:title="Emitted when media loading completes.">
<polygon fill="white" stroke="#666666" points="947,-134.5 792,-134.5 792,-115.5 947,-115.5 947,-134.5"/>
<text text-anchor="middle" x="869.5" y="-122.5" font-family="Helvetica,sans-Serif" font-size="10.00">IMediaEngine::mediaLoaded</text>
</a>
</g>
</g>
<!-- Node3&#45;&gt;Node5 -->
<g id="edge4_Node000003_Node000005" class="edge">
<title>Node3&#45;&gt;Node5</title>
<g id="a_edge4_Node000003_Node000005"><a xlink:title=" ">
<path fill="none" stroke="#63b8ff" d="M756.21,-125C764.56,-125 773.19,-125 781.79,-125"/>
<polygon fill="#63b8ff" stroke="#63b8ff" points="781.85,-128.5 791.85,-125 781.85,-121.5 781.85,-128.5"/>
</a>
</g>
</g>
<!-- Node6&#45;&gt;Node4 -->
<g id="edge6_Node000006_Node000004" class="edge">
<title>Node6&#45;&gt;Node4</title>
<g id="a_edge6_Node000006_Node000004"><a xlink:title=" ">
<path fill="none" stroke="#63b8ff" d="M741.15,-162C753.83,-162 767.78,-162 781.65,-162"/>
<polygon fill="#63b8ff" stroke="#63b8ff" points="781.72,-165.5 791.72,-162 781.72,-158.5 781.72,-165.5"/>
</a>
</g>
</g>
<!-- Node8&#45;&gt;Node7 -->
<g id="edge9_Node000008_Node000007" class="edge">
<title>Node8&#45;&gt;Node7</title>
<g id="a_edge9_Node000008_Node000007"><a xlink:title=" ">
<path fill="none" stroke="#63b8ff" d="M742.11,-54.55C759.73,-56.42 779.7,-58.55 798.48,-60.55"/>
<polygon fill="#63b8ff" stroke="#63b8ff" points="798.15,-64.03 808.47,-61.61 798.89,-57.07 798.15,-64.03"/>
</a>
</g>
</g>
<!-- Node9&#45;&gt;Node2 -->
<g id="edge12_Node000009_Node000002" class="edge">
<title>Node9&#45;&gt;Node2</title>
<g id="a_edge12_Node000009_Node000002"><a xlink:title=" ">
<path fill="none" stroke="#63b8ff" d="M343.76,-77.56C361.44,-81.2 380.57,-85.13 398.8,-88.88"/>
<polygon fill="#63b8ff" stroke="#63b8ff" points="398.32,-92.36 408.82,-90.94 399.73,-85.5 398.32,-92.36"/>
</a>
</g>
</g>
<!-- Node10 -->
<g id="Node000010" class="node">
<title>Node10</title>
<g id="a_Node000010"><a xlink:href="../../de/dd0/classHardwareAcceleration.html#a5bf84a3466dfdd5fa1cbbcf181a23b95" target="_top" xlink:title="Get platform&#45;specific acceleration type name.">
<polygon fill="white" stroke="#666666" points="558.5,-73 407.5,-73 407.5,-43 558.5,-43 558.5,-73"/>
<text text-anchor="start" x="415.5" y="-61" font-family="Helvetica,sans-Serif" font-size="10.00">HardwareAcceleration</text>
<text text-anchor="middle" x="483" y="-50" font-family="Helvetica,sans-Serif" font-size="10.00">::getAccelerationTypeName</text>
</a>
</g>
</g>
<!-- Node9&#45;&gt;Node10 -->
<g id="edge11_Node000009_Node000010" class="edge">
<title>Node9&#45;&gt;Node10</title>
<g id="a_edge11_Node000009_Node000010"><a xlink:title=" ">
<path fill="none" stroke="#63b8ff" d="M343.76,-61.31C360.88,-60.9 379.36,-60.46 397.07,-60.03"/>
<polygon fill="#63b8ff" stroke="#63b8ff" points="397.47,-63.52 407.39,-59.79 397.3,-56.53 397.47,-63.52"/>
</a>
</g>
</g>
</g>
</svg>

<g id="navigator" transform="translate(0 0)" fill="#404254">
  <rect fill="#f2f5e9" fill-opacity="0.5" stroke="#606060" stroke-width=".5" x="0" y="0" width="60" height="60"/>
  <use id="zoomplus" xlink:href="#zoomPlus" x="17" y="9" onmousedown="handleZoom(evt,'in')"/>
  <use id="zoomminus" xlink:href="#zoomMin" x="42" y="9" onmousedown="handleZoom(evt,'out')"/>
  <use id="reset" xlink:href="#resetDef" x="30" y="36" onmousedown="handleReset()"/>
   <use id="arrowup" xlink:href="#arrowUp" x="0" y="0" onmousedown="handlePan(0,-1)"/>
  <use id="arrowright" xlink:href="#arrowRight" x="0" y="0" onmousedown="handlePan(1,0)"/>
  <use id="arrowdown" xlink:href="#arrowDown" x="0" y="0" onmousedown="handlePan(0,1)"/>
  <use id="arrowleft" xlink:href="#arrowLeft" x="0" y="0" onmousedown="handlePan(-1,0)"/>
</g>
<svg viewBox="0 0 15 15" width="100%" height="30px" preserveAspectRatio="xMaxYMin meet">
 <g id="arrow_out" transform="scale(0.3 0.3)">
  <a xlink:href="classVLCBackend_a66f2d955ba041562dfccaa3cf8163394_cgraph_org.svg" target="_base">
   <rect id="button" ry="5" rx="5" y="6" x="6" height="38" width="38"
        fill="#f2f5e9" fill-opacity="0.5" stroke="#606060" stroke-width="1.0"/>
   <path id="arrow"
     d="M 11.500037,31.436501 C 11.940474,20.09759 22.043105,11.32322 32.158766,21.979434 L 37.068811,17.246167 C 37.068811,17.246167 37.088388,32 37.088388,32 L 22.160133,31.978069 C 22.160133,31.978069 26.997745,27.140456 26.997745,27.140456 C 18.528582,18.264221 13.291696,25.230495 11.500037,31.436501 z"
     style="fill:#404040;"/>
  </a>
 </g>
</svg>

<style type='text/css'>
<![CDATA[
[data-mouse-over-selected='false'] { opacity: 0.7; }
[data-mouse-over-selected='true']  { opacity: 1.0; }
]]>
</style>
<script type="application/ecmascript"><![CDATA[
document.addEventListener('DOMContentLoaded', (event) => {
  highlightEdges();
  highlightAdjacentNodes();
});
]]></script>
</svg>
