<?xml version="1.0" encoding="UTF-8" standalone="no"?>
<!DOCTYPE svg PUBLIC "-//W3C//DTD SVG 1.1//EN"
 "http://www.w3.org/Graphics/SVG/1.1/DTD/svg11.dtd">
<!-- Generated by graphviz version 2.43.0 (0)
 -->
<!-- Title: InternetStreamingManager::PodcastEpisode Pages: 1 -->
<svg width="150pt" height="218pt"
 viewBox="0.00 0.00 150.00 218.00" xmlns="http://www.w3.org/2000/svg" xmlns:xlink="http://www.w3.org/1999/xlink">
<g id="graph0" class="graph" transform="scale(1 1) rotate(0) translate(4 214)">
<title>InternetStreamingManager::PodcastEpisode</title>
<!-- Node1 -->
<g id="Node000001" class="node">
<title>Node1</title>
<g id="a_Node000001"><a xlink:title="Podcast episode information.">
<polygon fill="#999999" stroke="transparent" points="142,-210 0,-210 0,0 142,0 142,-210"/>
<text text-anchor="start" x="5" y="-198" font-family="Helvetica,sans-Serif" font-size="10.00">InternetStreamingManager</text>
<text text-anchor="start" x="29.5" y="-187" font-family="Helvetica,sans-Serif" font-size="10.00">::PodcastEpisode</text>
<text text-anchor="start" x="13" y="-172" font-family="Helvetica,sans-Serif" font-size="10.00">+</text>
<text text-anchor="start" x="35" y="-172" font-family="Helvetica,sans-Serif" font-size="10.00">id</text>
<text text-anchor="start" x="13" y="-157" font-family="Helvetica,sans-Serif" font-size="10.00">+</text>
<text text-anchor="start" x="35" y="-157" font-family="Helvetica,sans-Serif" font-size="10.00">title</text>
<text text-anchor="start" x="13" y="-142" font-family="Helvetica,sans-Serif" font-size="10.00">+</text>
<text text-anchor="start" x="35" y="-142" font-family="Helvetica,sans-Serif" font-size="10.00">description</text>
<text text-anchor="start" x="13" y="-127" font-family="Helvetica,sans-Serif" font-size="10.00">+</text>
<text text-anchor="start" x="35" y="-127" font-family="Helvetica,sans-Serif" font-size="10.00">podcastName</text>
<text text-anchor="start" x="13" y="-112" font-family="Helvetica,sans-Serif" font-size="10.00">+</text>
<text text-anchor="start" x="35" y="-112" font-family="Helvetica,sans-Serif" font-size="10.00">audioUrl</text>
<text text-anchor="start" x="13" y="-97" font-family="Helvetica,sans-Serif" font-size="10.00">+</text>
<text text-anchor="start" x="35" y="-97" font-family="Helvetica,sans-Serif" font-size="10.00">thumbnailUrl</text>
<text text-anchor="start" x="13" y="-82" font-family="Helvetica,sans-Serif" font-size="10.00">+</text>
<text text-anchor="start" x="35" y="-82" font-family="Helvetica,sans-Serif" font-size="10.00">duration</text>
<text text-anchor="start" x="13" y="-67" font-family="Helvetica,sans-Serif" font-size="10.00">+</text>
<text text-anchor="start" x="35" y="-67" font-family="Helvetica,sans-Serif" font-size="10.00">publishDate</text>
<text text-anchor="start" x="13" y="-52" font-family="Helvetica,sans-Serif" font-size="10.00">+</text>
<text text-anchor="start" x="35" y="-52" font-family="Helvetica,sans-Serif" font-size="10.00">category</text>
<text text-anchor="start" x="13" y="-37" font-family="Helvetica,sans-Serif" font-size="10.00">+</text>
<text text-anchor="start" x="35" y="-37" font-family="Helvetica,sans-Serif" font-size="10.00">isDownloaded</text>
<text text-anchor="start" x="13" y="-22" font-family="Helvetica,sans-Serif" font-size="10.00">+</text>
<text text-anchor="start" x="35" y="-22" font-family="Helvetica,sans-Serif" font-size="10.00">localPath</text>
<text text-anchor="start" x="13" y="-7" font-family="Helvetica,sans-Serif" font-size="10.00">+</text>
<text text-anchor="start" x="35" y="-7" font-family="Helvetica,sans-Serif" font-size="10.00">PodcastEpisode()</text>
<polygon fill="#666666" stroke="#666666" points="0,-182 0,-182 142,-182 142,-182 0,-182"/>
<polygon fill="#666666" stroke="#666666" points="0,-17 0,-17 33,-17 33,-17 0,-17"/>
<polygon fill="#666666" stroke="#666666" points="33,-17 33,-17 142,-17 142,-17 33,-17"/>
<polygon fill="none" stroke="#666666" points="0,0 0,-210 142,-210 142,0 0,0"/>
</a>
</g>
</g>
</g>
</svg>
