<?xml version="1.0" encoding="UTF-8" standalone="no"?>
<!DOCTYPE svg PUBLIC "-//W3C//DTD SVG 1.1//EN"
 "http://www.w3.org/Graphics/SVG/1.1/DTD/svg11.dtd">
<!-- Generated by graphviz version 2.43.0 (0)
 -->
<!-- Title: src/ai/SubtitleLanguageDetector.cpp Pages: 1 -->
<svg width="1888pt" height="137pt"
 viewBox="0.00 0.00 1888.00 137.00" xmlns="http://www.w3.org/2000/svg" xmlns:xlink="http://www.w3.org/1999/xlink">
<g id="graph0" class="graph" transform="scale(1 1) rotate(0) translate(4 133)">
<title>src/ai/SubtitleLanguageDetector.cpp</title>
<!-- Node1 -->
<g id="Node000001" class="node">
<title>Node1</title>
<g id="a_Node000001"><a xlink:title=" ">
<polygon fill="#999999" stroke="#666666" points="1248,-129 1056,-129 1056,-110 1248,-110 1248,-129"/>
<text text-anchor="middle" x="1152" y="-117" font-family="Helvetica,sans-Serif" font-size="10.00">src/ai/SubtitleLanguageDetector.cpp</text>
</a>
</g>
</g>
<!-- Node2 -->
<g id="Node000002" class="node">
<title>Node2</title>
<g id="a_Node000002"><a xlink:href="../../db/d9a/SubtitleLanguageDetector_8h.html" target="_top" xlink:title=" ">
<polygon fill="white" stroke="#666666" points="341,-74 177,-74 177,-55 341,-55 341,-74"/>
<text text-anchor="middle" x="259" y="-62" font-family="Helvetica,sans-Serif" font-size="10.00">ai/SubtitleLanguageDetector.h</text>
</a>
</g>
</g>
<!-- Node1&#45;&gt;Node2 -->
<g id="edge1_Node000001_Node000002" class="edge">
<title>Node1&#45;&gt;Node2</title>
<g id="a_edge1_Node000001_Node000002"><a xlink:title=" ">
<path fill="none" stroke="#63b8ff" d="M1055.58,-112.78C882.55,-102.51 521.55,-81.08 351.44,-70.99"/>
<polygon fill="#63b8ff" stroke="#63b8ff" points="351.45,-67.48 341.26,-70.38 351.04,-74.47 351.45,-67.48"/>
</a>
</g>
</g>
<!-- Node8 -->
<g id="Node000008" class="node">
<title>Node8</title>
<g id="a_Node000008"><a xlink:title=" ">
<polygon fill="#e0e0e0" stroke="#999999" points="555.5,-19 462.5,-19 462.5,0 555.5,0 555.5,-19"/>
<text text-anchor="middle" x="509" y="-7" font-family="Helvetica,sans-Serif" font-size="10.00">QNetworkReply</text>
</a>
</g>
</g>
<!-- Node1&#45;&gt;Node8 -->
<g id="edge13_Node000001_Node000008" class="edge">
<title>Node1&#45;&gt;Node8</title>
<g id="a_edge13_Node000001_Node000008"><a xlink:title=" ">
<path fill="none" stroke="#63b8ff" d="M1055.78,-115.76C870.17,-110.02 479.09,-95.42 459,-74 444.02,-58.02 465.89,-37.92 485.25,-24.67"/>
<polygon fill="#63b8ff" stroke="#63b8ff" points="487.35,-27.48 493.83,-19.1 483.54,-21.61 487.35,-27.48"/>
</a>
</g>
</g>
<!-- Node9 -->
<g id="Node000009" class="node">
<title>Node9</title>
<g id="a_Node000009"><a xlink:title=" ">
<polygon fill="#e0e0e0" stroke="#999999" points="508.5,-74 467.5,-74 467.5,-55 508.5,-55 508.5,-74"/>
<text text-anchor="middle" x="488" y="-62" font-family="Helvetica,sans-Serif" font-size="10.00">QFile</text>
</a>
</g>
</g>
<!-- Node1&#45;&gt;Node9 -->
<g id="edge8_Node000001_Node000009" class="edge">
<title>Node1&#45;&gt;Node9</title>
<g id="a_edge8_Node000001_Node000009"><a xlink:title=" ">
<path fill="none" stroke="#63b8ff" d="M1055.93,-117.89C933.15,-115.74 714.14,-107.28 518.42,-73.64"/>
<polygon fill="#63b8ff" stroke="#63b8ff" points="518.98,-70.19 508.53,-71.92 517.78,-77.08 518.98,-70.19"/>
</a>
</g>
</g>
<!-- Node10 -->
<g id="Node000010" class="node">
<title>Node10</title>
<g id="a_Node000010"><a xlink:title=" ">
<polygon fill="#e0e0e0" stroke="#999999" points="607,-74 527,-74 527,-55 607,-55 607,-74"/>
<text text-anchor="middle" x="567" y="-62" font-family="Helvetica,sans-Serif" font-size="10.00">QTextStream</text>
</a>
</g>
</g>
<!-- Node1&#45;&gt;Node10 -->
<g id="edge9_Node000001_Node000010" class="edge">
<title>Node1&#45;&gt;Node10</title>
<g id="a_edge9_Node000001_Node000010"><a xlink:title=" ">
<path fill="none" stroke="#63b8ff" d="M1055.58,-112.97C948.26,-106.23 769.8,-93.31 617,-74 616.9,-73.99 616.8,-73.97 616.7,-73.96"/>
<polygon fill="#63b8ff" stroke="#63b8ff" points="617.46,-70.53 607.07,-72.62 616.49,-77.47 617.46,-70.53"/>
</a>
</g>
</g>
<!-- Node11 -->
<g id="Node000011" class="node">
<title>Node11</title>
<g id="a_Node000011"><a xlink:title=" ">
<polygon fill="#e0e0e0" stroke="#999999" points="726.5,-74 625.5,-74 625.5,-55 726.5,-55 726.5,-74"/>
<text text-anchor="middle" x="676" y="-62" font-family="Helvetica,sans-Serif" font-size="10.00">QStringConverter</text>
</a>
</g>
</g>
<!-- Node1&#45;&gt;Node11 -->
<g id="edge10_Node000001_Node000011" class="edge">
<title>Node1&#45;&gt;Node11</title>
<g id="a_edge10_Node000001_Node000011"><a xlink:title=" ">
<path fill="none" stroke="#63b8ff" d="M1064.25,-109.99C982.29,-101.84 856.28,-88.8 736.78,-74.06"/>
<polygon fill="#63b8ff" stroke="#63b8ff" points="737.08,-70.57 726.72,-72.81 736.22,-77.51 737.08,-70.57"/>
</a>
</g>
</g>
<!-- Node12 -->
<g id="Node000012" class="node">
<title>Node12</title>
<g id="a_Node000012"><a xlink:title=" ">
<polygon fill="#e0e0e0" stroke="#999999" points="859.5,-74 744.5,-74 744.5,-55 859.5,-55 859.5,-74"/>
<text text-anchor="middle" x="802" y="-62" font-family="Helvetica,sans-Serif" font-size="10.00">QRegularExpression</text>
</a>
</g>
</g>
<!-- Node1&#45;&gt;Node12 -->
<g id="edge11_Node000001_Node000012" class="edge">
<title>Node1&#45;&gt;Node12</title>
<g id="a_edge11_Node000001_Node000012"><a xlink:title=" ">
<path fill="none" stroke="#63b8ff" d="M1095.77,-109.98C1033.86,-100.61 934.41,-85.55 868.64,-75.59"/>
<polygon fill="#63b8ff" stroke="#63b8ff" points="868.8,-72.07 858.38,-74.04 867.75,-79 868.8,-72.07"/>
</a>
</g>
</g>
<!-- Node13 -->
<g id="Node000013" class="node">
<title>Node13</title>
<g id="a_Node000013"><a xlink:title=" ">
<polygon fill="#e0e0e0" stroke="#999999" points="982.5,-74 877.5,-74 877.5,-55 982.5,-55 982.5,-74"/>
<text text-anchor="middle" x="930" y="-62" font-family="Helvetica,sans-Serif" font-size="10.00">QNetworkRequest</text>
</a>
</g>
</g>
<!-- Node1&#45;&gt;Node13 -->
<g id="edge12_Node000001_Node000013" class="edge">
<title>Node1&#45;&gt;Node13</title>
<g id="a_edge12_Node000001_Node000013"><a xlink:title=" ">
<path fill="none" stroke="#63b8ff" d="M1116.33,-109.98C1078.17,-100.87 1017.53,-86.4 975.85,-76.45"/>
<polygon fill="#63b8ff" stroke="#63b8ff" points="976.49,-73 965.95,-74.08 974.86,-79.81 976.49,-73"/>
</a>
</g>
</g>
<!-- Node14 -->
<g id="Node000014" class="node">
<title>Node14</title>
<g id="a_Node000014"><a xlink:title=" ">
<polygon fill="#e0e0e0" stroke="#999999" points="1095.5,-74 1000.5,-74 1000.5,-55 1095.5,-55 1095.5,-74"/>
<text text-anchor="middle" x="1048" y="-62" font-family="Helvetica,sans-Serif" font-size="10.00">QJsonDocument</text>
</a>
</g>
</g>
<!-- Node1&#45;&gt;Node14 -->
<g id="edge14_Node000001_Node000014" class="edge">
<title>Node1&#45;&gt;Node14</title>
<g id="a_edge14_Node000001_Node000014"><a xlink:title=" ">
<path fill="none" stroke="#63b8ff" d="M1135.29,-109.98C1118.79,-101.57 1093.3,-88.59 1074.12,-78.81"/>
<polygon fill="#63b8ff" stroke="#63b8ff" points="1075.51,-75.59 1065.01,-74.17 1072.33,-81.83 1075.51,-75.59"/>
</a>
</g>
</g>
<!-- Node15 -->
<g id="Node000015" class="node">
<title>Node15</title>
<g id="a_Node000015"><a xlink:title=" ">
<polygon fill="#e0e0e0" stroke="#999999" points="1190,-74 1114,-74 1114,-55 1190,-55 1190,-74"/>
<text text-anchor="middle" x="1152" y="-62" font-family="Helvetica,sans-Serif" font-size="10.00">QJsonObject</text>
</a>
</g>
</g>
<!-- Node1&#45;&gt;Node15 -->
<g id="edge15_Node000001_Node000015" class="edge">
<title>Node1&#45;&gt;Node15</title>
<g id="a_edge15_Node000001_Node000015"><a xlink:title=" ">
<path fill="none" stroke="#63b8ff" d="M1152,-109.75C1152,-102.8 1152,-92.85 1152,-84.13"/>
<polygon fill="#63b8ff" stroke="#63b8ff" points="1155.5,-84.09 1152,-74.09 1148.5,-84.09 1155.5,-84.09"/>
</a>
</g>
</g>
<!-- Node16 -->
<g id="Node000016" class="node">
<title>Node16</title>
<g id="a_Node000016"><a xlink:title=" ">
<polygon fill="#e0e0e0" stroke="#999999" points="1279.5,-74 1208.5,-74 1208.5,-55 1279.5,-55 1279.5,-74"/>
<text text-anchor="middle" x="1244" y="-62" font-family="Helvetica,sans-Serif" font-size="10.00">QJsonArray</text>
</a>
</g>
</g>
<!-- Node1&#45;&gt;Node16 -->
<g id="edge16_Node000001_Node000016" class="edge">
<title>Node1&#45;&gt;Node16</title>
<g id="a_edge16_Node000001_Node000016"><a xlink:title=" ">
<path fill="none" stroke="#63b8ff" d="M1166.78,-109.98C1181.18,-101.69 1203.31,-88.94 1220.19,-79.22"/>
<polygon fill="#63b8ff" stroke="#63b8ff" points="1222.03,-82.19 1228.95,-74.17 1218.54,-76.13 1222.03,-82.19"/>
</a>
</g>
</g>
<!-- Node17 -->
<g id="Node000017" class="node">
<title>Node17</title>
<g id="a_Node000017"><a xlink:title=" ">
<polygon fill="#e0e0e0" stroke="#999999" points="1366,-74 1298,-74 1298,-55 1366,-55 1366,-74"/>
<text text-anchor="middle" x="1332" y="-62" font-family="Helvetica,sans-Serif" font-size="10.00">QUrlQuery</text>
</a>
</g>
</g>
<!-- Node1&#45;&gt;Node17 -->
<g id="edge17_Node000001_Node000017" class="edge">
<title>Node1&#45;&gt;Node17</title>
<g id="a_edge17_Node000001_Node000017"><a xlink:title=" ">
<path fill="none" stroke="#63b8ff" d="M1180.92,-109.98C1211.27,-101.05 1259.17,-86.94 1292.88,-77.02"/>
<polygon fill="#63b8ff" stroke="#63b8ff" points="1294.25,-80.26 1302.85,-74.08 1292.27,-73.55 1294.25,-80.26"/>
</a>
</g>
</g>
<!-- Node18 -->
<g id="Node000018" class="node">
<title>Node18</title>
<g id="a_Node000018"><a xlink:title=" ">
<polygon fill="#e0e0e0" stroke="#999999" points="1437.5,-74 1384.5,-74 1384.5,-55 1437.5,-55 1437.5,-74"/>
<text text-anchor="middle" x="1411" y="-62" font-family="Helvetica,sans-Serif" font-size="10.00">QTimer</text>
</a>
</g>
</g>
<!-- Node1&#45;&gt;Node18 -->
<g id="edge18_Node000001_Node000018" class="edge">
<title>Node1&#45;&gt;Node18</title>
<g id="a_edge18_Node000001_Node000018"><a xlink:title=" ">
<path fill="none" stroke="#63b8ff" d="M1197.37,-109.93C1240.38,-101.69 1307.05,-88.65 1374.36,-74.08"/>
<polygon fill="#63b8ff" stroke="#63b8ff" points="1375.26,-77.46 1384.29,-71.92 1373.77,-70.62 1375.26,-77.46"/>
</a>
</g>
</g>
<!-- Node19 -->
<g id="Node000019" class="node">
<title>Node19</title>
<g id="a_Node000019"><a xlink:title=" ">
<polygon fill="#e0e0e0" stroke="#999999" points="1520,-74 1456,-74 1456,-55 1520,-55 1520,-74"/>
<text text-anchor="middle" x="1488" y="-62" font-family="Helvetica,sans-Serif" font-size="10.00">QSettings</text>
</a>
</g>
</g>
<!-- Node1&#45;&gt;Node19 -->
<g id="edge19_Node000001_Node000019" class="edge">
<title>Node1&#45;&gt;Node19</title>
<g id="a_edge19_Node000001_Node000019"><a xlink:title=" ">
<path fill="none" stroke="#63b8ff" d="M1215.18,-109.99C1272.8,-101.99 1360.53,-89.25 1445.94,-74.11"/>
<polygon fill="#63b8ff" stroke="#63b8ff" points="1446.57,-77.55 1455.8,-72.35 1445.34,-70.66 1446.57,-77.55"/>
</a>
</g>
</g>
<!-- Node20 -->
<g id="Node000020" class="node">
<title>Node20</title>
<g id="a_Node000020"><a xlink:title=" ">
<polygon fill="#e0e0e0" stroke="#999999" points="1645.5,-74 1538.5,-74 1538.5,-55 1645.5,-55 1645.5,-74"/>
<text text-anchor="middle" x="1592" y="-62" font-family="Helvetica,sans-Serif" font-size="10.00">QLoggingCategory</text>
</a>
</g>
</g>
<!-- Node1&#45;&gt;Node20 -->
<g id="edge20_Node000001_Node000020" class="edge">
<title>Node1&#45;&gt;Node20</title>
<g id="a_edge20_Node000001_Node000020"><a xlink:title=" ">
<path fill="none" stroke="#63b8ff" d="M1227.51,-109.96C1301.42,-101.52 1417.5,-88.03 1528.37,-74.06"/>
<polygon fill="#63b8ff" stroke="#63b8ff" points="1528.91,-77.52 1538.39,-72.79 1528.03,-70.58 1528.91,-77.52"/>
</a>
</g>
</g>
<!-- Node21 -->
<g id="Node000021" class="node">
<title>Node21</title>
<g id="a_Node000021"><a xlink:title=" ">
<polygon fill="#e0e0e0" stroke="#999999" points="1720,-74 1664,-74 1664,-55 1720,-55 1720,-74"/>
<text text-anchor="middle" x="1692" y="-62" font-family="Helvetica,sans-Serif" font-size="10.00">QDebug</text>
</a>
</g>
</g>
<!-- Node1&#45;&gt;Node21 -->
<g id="edge21_Node000001_Node000021" class="edge">
<title>Node1&#45;&gt;Node21</title>
<g id="a_edge21_Node000001_Node000021"><a xlink:title=" ">
<path fill="none" stroke="#63b8ff" d="M1248.44,-113.92C1347.77,-108.3 1507.15,-96.78 1653.71,-73.99"/>
<polygon fill="#63b8ff" stroke="#63b8ff" points="1654.46,-77.41 1663.8,-72.4 1653.37,-70.5 1654.46,-77.41"/>
</a>
</g>
</g>
<!-- Node22 -->
<g id="Node000022" class="node">
<title>Node22</title>
<g id="a_Node000022"><a xlink:title=" ">
<polygon fill="#e0e0e0" stroke="#999999" points="1798,-74 1738,-74 1738,-55 1798,-55 1798,-74"/>
<text text-anchor="middle" x="1768" y="-62" font-family="Helvetica,sans-Serif" font-size="10.00">QFileInfo</text>
</a>
</g>
</g>
<!-- Node1&#45;&gt;Node22 -->
<g id="edge22_Node000001_Node000022" class="edge">
<title>Node1&#45;&gt;Node22</title>
<g id="a_edge22_Node000001_Node000022"><a xlink:title=" ">
<path fill="none" stroke="#63b8ff" d="M1248.16,-115.13C1360.88,-110.27 1553.38,-99.12 1727.71,-73.98"/>
<polygon fill="#63b8ff" stroke="#63b8ff" points="1728.45,-77.41 1737.84,-72.5 1727.44,-70.48 1728.45,-77.41"/>
</a>
</g>
</g>
<!-- Node23 -->
<g id="Node000023" class="node">
<title>Node23</title>
<g id="a_Node000023"><a xlink:title=" ">
<polygon fill="#e0e0e0" stroke="#999999" points="1880,-74 1816,-74 1816,-55 1880,-55 1880,-74"/>
<text text-anchor="middle" x="1848" y="-62" font-family="Helvetica,sans-Serif" font-size="10.00">algorithm</text>
</a>
</g>
</g>
<!-- Node1&#45;&gt;Node23 -->
<g id="edge23_Node000001_Node000023" class="edge">
<title>Node1&#45;&gt;Node23</title>
<g id="a_edge23_Node000001_Node000023"><a xlink:title=" ">
<path fill="none" stroke="#63b8ff" d="M1248.15,-116.07C1374.14,-111.98 1602.03,-101.4 1805.85,-73.96"/>
<polygon fill="#63b8ff" stroke="#63b8ff" points="1806.41,-77.42 1815.84,-72.6 1805.46,-70.48 1806.41,-77.42"/>
</a>
</g>
</g>
<!-- Node3 -->
<g id="Node000003" class="node">
<title>Node3</title>
<g id="a_Node000003"><a xlink:title=" ">
<polygon fill="#e0e0e0" stroke="#999999" points="56,-19 0,-19 0,0 56,0 56,-19"/>
<text text-anchor="middle" x="28" y="-7" font-family="Helvetica,sans-Serif" font-size="10.00">QObject</text>
</a>
</g>
</g>
<!-- Node2&#45;&gt;Node3 -->
<g id="edge2_Node000002_Node000003" class="edge">
<title>Node2&#45;&gt;Node3</title>
<g id="a_edge2_Node000002_Node000003"><a xlink:title=" ">
<path fill="none" stroke="#63b8ff" d="M221.81,-54.97C184.81,-46.49 126.16,-33.04 66.29,-19.3"/>
<polygon fill="#63b8ff" stroke="#63b8ff" points="66.81,-15.82 56.28,-17 65.24,-22.65 66.81,-15.82"/>
</a>
</g>
</g>
<!-- Node4 -->
<g id="Node000004" class="node">
<title>Node4</title>
<g id="a_Node000004"><a xlink:title=" ">
<polygon fill="#e0e0e0" stroke="#999999" points="127.5,-19 74.5,-19 74.5,0 127.5,0 127.5,-19"/>
<text text-anchor="middle" x="101" y="-7" font-family="Helvetica,sans-Serif" font-size="10.00">QString</text>
</a>
</g>
</g>
<!-- Node2&#45;&gt;Node4 -->
<g id="edge3_Node000002_Node000004" class="edge">
<title>Node2&#45;&gt;Node4</title>
<g id="a_edge3_Node000002_Node000004"><a xlink:title=" ">
<path fill="none" stroke="#63b8ff" d="M233.61,-54.98C207.2,-46.13 165.65,-32.19 136.11,-22.28"/>
<polygon fill="#63b8ff" stroke="#63b8ff" points="137.18,-18.94 126.58,-19.08 134.95,-25.58 137.18,-18.94"/>
</a>
</g>
</g>
<!-- Node5 -->
<g id="Node000005" class="node">
<title>Node5</title>
<g id="a_Node000005"><a xlink:title=" ">
<polygon fill="#e0e0e0" stroke="#999999" points="216,-19 146,-19 146,0 216,0 216,-19"/>
<text text-anchor="middle" x="181" y="-7" font-family="Helvetica,sans-Serif" font-size="10.00">QStringList</text>
</a>
</g>
</g>
<!-- Node2&#45;&gt;Node5 -->
<g id="edge4_Node000002_Node000005" class="edge">
<title>Node2&#45;&gt;Node5</title>
<g id="a_edge4_Node000002_Node000005"><a xlink:title=" ">
<path fill="none" stroke="#63b8ff" d="M246.47,-54.98C234.6,-46.92 216.54,-34.65 202.39,-25.03"/>
<polygon fill="#63b8ff" stroke="#63b8ff" points="204,-21.9 193.76,-19.17 200.06,-27.69 204,-21.9"/>
</a>
</g>
</g>
<!-- Node6 -->
<g id="Node000006" class="node">
<title>Node6</title>
<g id="a_Node000006"><a xlink:title=" ">
<polygon fill="#e0e0e0" stroke="#999999" points="283.5,-19 234.5,-19 234.5,0 283.5,0 283.5,-19"/>
<text text-anchor="middle" x="259" y="-7" font-family="Helvetica,sans-Serif" font-size="10.00">QHash</text>
</a>
</g>
</g>
<!-- Node2&#45;&gt;Node6 -->
<g id="edge5_Node000002_Node000006" class="edge">
<title>Node2&#45;&gt;Node6</title>
<g id="a_edge5_Node000002_Node000006"><a xlink:title=" ">
<path fill="none" stroke="#63b8ff" d="M259,-54.75C259,-47.8 259,-37.85 259,-29.13"/>
<polygon fill="#63b8ff" stroke="#63b8ff" points="262.5,-29.09 259,-19.09 255.5,-29.09 262.5,-29.09"/>
</a>
</g>
</g>
<!-- Node7 -->
<g id="Node000007" class="node">
<title>Node7</title>
<g id="a_Node000007"><a xlink:title=" ">
<polygon fill="#e0e0e0" stroke="#999999" points="444,-19 302,-19 302,0 444,0 444,-19"/>
<text text-anchor="middle" x="373" y="-7" font-family="Helvetica,sans-Serif" font-size="10.00">QNetworkAccessManager</text>
</a>
</g>
</g>
<!-- Node2&#45;&gt;Node7 -->
<g id="edge6_Node000002_Node000007" class="edge">
<title>Node2&#45;&gt;Node7</title>
<g id="a_edge6_Node000002_Node000007"><a xlink:title=" ">
<path fill="none" stroke="#63b8ff" d="M277.32,-54.98C295.66,-46.46 324.11,-33.23 345.23,-23.41"/>
<polygon fill="#63b8ff" stroke="#63b8ff" points="346.76,-26.56 354.35,-19.17 343.81,-20.21 346.76,-26.56"/>
</a>
</g>
</g>
<!-- Node2&#45;&gt;Node8 -->
<g id="edge7_Node000002_Node000008" class="edge">
<title>Node2&#45;&gt;Node8</title>
<g id="a_edge7_Node000002_Node000008"><a xlink:title=" ">
<path fill="none" stroke="#63b8ff" d="M299.17,-54.98C342.5,-45.8 411.59,-31.15 458.56,-21.19"/>
<polygon fill="#63b8ff" stroke="#63b8ff" points="459.46,-24.58 468.52,-19.08 458.01,-17.73 459.46,-24.58"/>
</a>
</g>
</g>
</g>
</svg>
