<?xml version="1.0" encoding="UTF-8" standalone="no"?>
<!DOCTYPE svg PUBLIC "-//W3C//DTD SVG 1.1//EN"
 "http://www.w3.org/Graphics/SVG/1.1/DTD/svg11.dtd">
<!-- Generated by graphviz version 2.43.0 (0)
 -->
<!-- Title: MainWindow Pages: 1 -->
<svg width="132pt" height="367pt"
 viewBox="0.00 0.00 132.00 367.00" xmlns="http://www.w3.org/2000/svg" xmlns:xlink="http://www.w3.org/1999/xlink">
<g id="graph0" class="graph" transform="scale(1 1) rotate(0) translate(4 363)">
<title>MainWindow</title>
<!-- Node1 -->
<g id="Node000001" class="node">
<title>Node1</title>
<g id="a_Node000001"><a xlink:title="Main window for EonPlay &#45; Timeless, futuristic media player.">
<polygon fill="#999999" stroke="transparent" points="124,-274 0,-274 0,0 124,0 124,-274"/>
<text text-anchor="start" x="30" y="-262" font-family="Helvetica,sans-Serif" font-size="10.00">MainWindow</text>
<text text-anchor="start" x="60" y="-247" font-family="Helvetica,sans-Serif" font-size="10.00"> </text>
<text text-anchor="start" x="4" y="-232" font-family="Helvetica,sans-Serif" font-size="10.00">+</text>
<text text-anchor="start" x="17" y="-232" font-family="Helvetica,sans-Serif" font-size="10.00">MainWindow()</text>
<text text-anchor="start" x="4" y="-217" font-family="Helvetica,sans-Serif" font-size="10.00">+</text>
<text text-anchor="start" x="17" y="-217" font-family="Helvetica,sans-Serif" font-size="10.00">~MainWindow()</text>
<text text-anchor="start" x="4" y="-202" font-family="Helvetica,sans-Serif" font-size="10.00">+</text>
<text text-anchor="start" x="17" y="-202" font-family="Helvetica,sans-Serif" font-size="10.00">initialize()</text>
<text text-anchor="start" x="4" y="-187" font-family="Helvetica,sans-Serif" font-size="10.00">+</text>
<text text-anchor="start" x="17" y="-187" font-family="Helvetica,sans-Serif" font-size="10.00">setTheme()</text>
<text text-anchor="start" x="4" y="-172" font-family="Helvetica,sans-Serif" font-size="10.00">+</text>
<text text-anchor="start" x="17" y="-172" font-family="Helvetica,sans-Serif" font-size="10.00">isDarkTheme()</text>
<text text-anchor="start" x="4" y="-157" font-family="Helvetica,sans-Serif" font-size="10.00">+</text>
<text text-anchor="start" x="17" y="-157" font-family="Helvetica,sans-Serif" font-size="10.00">toggleTheme()</text>
<text text-anchor="start" x="4" y="-142" font-family="Helvetica,sans-Serif" font-size="10.00">+</text>
<text text-anchor="start" x="17" y="-142" font-family="Helvetica,sans-Serif" font-size="10.00">setFullscreen()</text>
<text text-anchor="start" x="4" y="-127" font-family="Helvetica,sans-Serif" font-size="10.00">+</text>
<text text-anchor="start" x="17" y="-127" font-family="Helvetica,sans-Serif" font-size="10.00">isFullscreen()</text>
<text text-anchor="start" x="4" y="-112" font-family="Helvetica,sans-Serif" font-size="10.00">+</text>
<text text-anchor="start" x="17" y="-112" font-family="Helvetica,sans-Serif" font-size="10.00">setMenuBarVisible()</text>
<text text-anchor="start" x="4" y="-97" font-family="Helvetica,sans-Serif" font-size="10.00">+</text>
<text text-anchor="start" x="17" y="-97" font-family="Helvetica,sans-Serif" font-size="10.00">setStatusBarVisible()</text>
<text text-anchor="start" x="4" y="-82" font-family="Helvetica,sans-Serif" font-size="10.00">+</text>
<text text-anchor="start" x="17" y="-82" font-family="Helvetica,sans-Serif" font-size="10.00">showWindow()</text>
<text text-anchor="start" x="4" y="-67" font-family="Helvetica,sans-Serif" font-size="10.00">+</text>
<text text-anchor="start" x="17" y="-67" font-family="Helvetica,sans-Serif" font-size="10.00">updateWindowTitle()</text>
<text text-anchor="start" x="4" y="-52" font-family="Helvetica,sans-Serif" font-size="10.00">+</text>
<text text-anchor="start" x="17" y="-52" font-family="Helvetica,sans-Serif" font-size="10.00">updateStatusBar()</text>
<text text-anchor="start" x="4" y="-37" font-family="Helvetica,sans-Serif" font-size="10.00">#</text>
<text text-anchor="start" x="17" y="-37" font-family="Helvetica,sans-Serif" font-size="10.00">closeEvent()</text>
<text text-anchor="start" x="4" y="-22" font-family="Helvetica,sans-Serif" font-size="10.00">#</text>
<text text-anchor="start" x="17" y="-22" font-family="Helvetica,sans-Serif" font-size="10.00">resizeEvent()</text>
<text text-anchor="start" x="4" y="-7" font-family="Helvetica,sans-Serif" font-size="10.00">#</text>
<text text-anchor="start" x="17" y="-7" font-family="Helvetica,sans-Serif" font-size="10.00">keyPressEvent()</text>
<polygon fill="#666666" stroke="#666666" points="0,-257 0,-257 124,-257 124,-257 0,-257"/>
<polygon fill="#666666" stroke="#666666" points="0,-242 0,-242 124,-242 124,-242 0,-242"/>
<polygon fill="none" stroke="#666666" points="0,0 0,-274 124,-274 124,0 0,0"/>
</a>
</g>
</g>
<!-- Node2 -->
<g id="Node000002" class="node">
<title>Node2</title>
<g id="a_Node000002"><a xlink:title=" ">
<polygon fill="white" stroke="transparent" points="102.5,-359 21.5,-359 21.5,-310 102.5,-310 102.5,-359"/>
<text text-anchor="start" x="27" y="-346.5" font-family="Helvetica,sans-Serif" font-size="10.00">QMainWindow</text>
<text text-anchor="start" x="60.5" y="-331.5" font-family="Helvetica,sans-Serif" font-size="10.00"> </text>
<text text-anchor="start" x="60.5" y="-316.5" font-family="Helvetica,sans-Serif" font-size="10.00"> </text>
<polygon fill="#666666" stroke="#666666" points="22,-341.5 22,-341.5 103,-341.5 103,-341.5 22,-341.5"/>
<polygon fill="#666666" stroke="#666666" points="22,-326.5 22,-326.5 103,-326.5 103,-326.5 22,-326.5"/>
<polygon fill="none" stroke="#666666" points="21.5,-310 21.5,-359 102.5,-359 102.5,-310 21.5,-310"/>
</a>
</g>
</g>
<!-- Node2&#45;&gt;Node1 -->
<g id="edge1_Node000001_Node000002" class="edge">
<title>Node2&#45;&gt;Node1</title>
<g id="a_edge1_Node000001_Node000002"><a xlink:title=" ">
<path fill="none" stroke="#63b8ff" d="M62,-299.74C62,-292.08 62,-283.47 62,-274.33"/>
<polygon fill="none" stroke="#63b8ff" points="58.5,-299.92 62,-309.92 65.5,-299.92 58.5,-299.92"/>
</a>
</g>
</g>
</g>
</svg>
