<?xml version="1.0" encoding="UTF-8" standalone="no"?>
<!DOCTYPE svg PUBLIC "-//W3C//DTD SVG 1.1//EN"
 "http://www.w3.org/Graphics/SVG/1.1/DTD/svg11.dtd">
<!-- Generated by graphviz version 2.43.0 (0)
 -->
<!-- Title: AudioEqualizer::replayGainChanged Pages: 1 -->
<svg width="365pt" height="258pt"
 viewBox="0.00 0.00 365.00 257.50" xmlns="http://www.w3.org/2000/svg" xmlns:xlink="http://www.w3.org/1999/xlink">
<g id="graph0" class="graph" transform="scale(1 1) rotate(0) translate(4 253.5)">
<title>AudioEqualizer::replayGainChanged</title>
<!-- Node1 -->
<g id="Node000001" class="node">
<title>Node1</title>
<g id="a_Node000001"><a xlink:title="Emitted when ReplayGain settings change.">
<polygon fill="#999999" stroke="#666666" points="357,-147 208,-147 208,-117 357,-117 357,-147"/>
<text text-anchor="start" x="216" y="-135" font-family="Helvetica,sans-Serif" font-size="10.00">AudioEqualizer::replayGain</text>
<text text-anchor="middle" x="282.5" y="-124" font-family="Helvetica,sans-Serif" font-size="10.00">Changed</text>
</a>
</g>
</g>
<!-- Node2 -->
<g id="Node000002" class="node">
<title>Node2</title>
<g id="a_Node000002"><a xlink:href="../../d1/db9/classAudioEqualizer.html#a8303ee2073a7bc91ad6c0dee052e75fe" target="_top" xlink:title="Import equalizer settings from file.">
<polygon fill="white" stroke="#666666" points="169.5,-249.5 2.5,-249.5 2.5,-230.5 169.5,-230.5 169.5,-249.5"/>
<text text-anchor="middle" x="86" y="-237.5" font-family="Helvetica,sans-Serif" font-size="10.00">AudioEqualizer::importSettings</text>
</a>
</g>
</g>
<!-- Node1&#45;&gt;Node2 -->
<g id="edge1_Node000001_Node000002" class="edge">
<title>Node1&#45;&gt;Node2</title>
<g id="a_edge1_Node000001_Node000002"><a xlink:title=" ">
<path fill="none" stroke="#63b8ff" d="M260.2,-154.48C239.56,-174.91 206.41,-204.33 172,-221 163.97,-224.89 155.13,-228 146.27,-230.47"/>
<polygon fill="#63b8ff" stroke="#63b8ff" points="262.92,-156.7 267.47,-147.13 257.95,-151.78 262.92,-156.7"/>
</a>
</g>
</g>
<!-- Node3 -->
<g id="Node000003" class="node">
<title>Node3</title>
<g id="a_Node000003"><a xlink:href="../../d9/d4c/classAudioEqualizerWidget.html#a96f7775022636c37fa20cb10b514412d" target="_top" xlink:title="Initialize the widget with audio equalizer.">
<polygon fill="white" stroke="#666666" points="148,-212 24,-212 24,-182 148,-182 148,-212"/>
<text text-anchor="start" x="32" y="-200" font-family="Helvetica,sans-Serif" font-size="10.00">AudioEqualizerWidget</text>
<text text-anchor="middle" x="86" y="-189" font-family="Helvetica,sans-Serif" font-size="10.00">::initialize</text>
</a>
</g>
</g>
<!-- Node1&#45;&gt;Node3 -->
<g id="edge2_Node000001_Node000003" class="edge">
<title>Node1&#45;&gt;Node3</title>
<g id="a_edge2_Node000001_Node000003"><a xlink:title=" ">
<path fill="none" stroke="#63b8ff" d="M234.34,-150.64C215.13,-157.97 192.63,-166.24 172,-173 162.67,-176.06 152.7,-179.08 142.98,-181.91"/>
<polygon fill="#63b8ff" stroke="#63b8ff" points="235.69,-153.87 243.77,-147.01 233.18,-147.33 235.69,-153.87"/>
</a>
</g>
</g>
<!-- Node4 -->
<g id="Node000004" class="node">
<title>Node4</title>
<g id="a_Node000004"><a xlink:href="../../d1/db9/classAudioEqualizer.html#a53b3705e78894c1779060067e9c5b1e3" target="_top" xlink:title="Reset equalizer to default settings.">
<polygon fill="white" stroke="#666666" points="172,-163.5 0,-163.5 0,-144.5 172,-144.5 172,-163.5"/>
<text text-anchor="middle" x="86" y="-151.5" font-family="Helvetica,sans-Serif" font-size="10.00">AudioEqualizer::resetToDefaults</text>
</a>
</g>
</g>
<!-- Node1&#45;&gt;Node4 -->
<g id="edge3_Node000001_Node000004" class="edge">
<title>Node1&#45;&gt;Node4</title>
<g id="a_edge3_Node000001_Node000004"><a xlink:title=" ">
<path fill="none" stroke="#63b8ff" d="M197.98,-141.45C189.07,-142.45 180,-143.48 171.07,-144.49"/>
<polygon fill="#63b8ff" stroke="#63b8ff" points="198.42,-144.92 207.97,-140.32 197.64,-137.96 198.42,-144.92"/>
</a>
</g>
</g>
<!-- Node5 -->
<g id="Node000005" class="node">
<title>Node5</title>
<g id="a_Node000005"><a xlink:href="../../d1/db9/classAudioEqualizer.html#ac839d9c401231897695fb7d2a7c783af" target="_top" xlink:title="Enable or disable ReplayGain.">
<polygon fill="white" stroke="#666666" points="158,-126 14,-126 14,-96 158,-96 158,-126"/>
<text text-anchor="start" x="22" y="-114" font-family="Helvetica,sans-Serif" font-size="10.00">AudioEqualizer::setReplay</text>
<text text-anchor="middle" x="86" y="-103" font-family="Helvetica,sans-Serif" font-size="10.00">GainEnabled</text>
</a>
</g>
</g>
<!-- Node1&#45;&gt;Node5 -->
<g id="edge4_Node000001_Node000005" class="edge">
<title>Node1&#45;&gt;Node5</title>
<g id="a_edge4_Node000001_Node000005"><a xlink:title=" ">
<path fill="none" stroke="#63b8ff" d="M197.9,-122.97C184.63,-121.54 171.01,-120.07 158.06,-118.67"/>
<polygon fill="#63b8ff" stroke="#63b8ff" points="197.65,-126.47 207.97,-124.06 198.4,-119.51 197.65,-126.47"/>
</a>
</g>
</g>
<!-- Node6 -->
<g id="Node000006" class="node">
<title>Node6</title>
<g id="a_Node000006"><a xlink:href="../../d1/db9/classAudioEqualizer.html#a80b986fdffca3008d01b7a161fe61f3b" target="_top" xlink:title="Set ReplayGain mode.">
<polygon fill="white" stroke="#666666" points="158,-78 14,-78 14,-48 158,-48 158,-78"/>
<text text-anchor="start" x="22" y="-66" font-family="Helvetica,sans-Serif" font-size="10.00">AudioEqualizer::setReplay</text>
<text text-anchor="middle" x="86" y="-55" font-family="Helvetica,sans-Serif" font-size="10.00">GainMode</text>
</a>
</g>
</g>
<!-- Node1&#45;&gt;Node6 -->
<g id="edge5_Node000001_Node000006" class="edge">
<title>Node1&#45;&gt;Node6</title>
<g id="a_edge5_Node000001_Node000006"><a xlink:title=" ">
<path fill="none" stroke="#63b8ff" d="M238.4,-112.95C218.41,-104.46 194.2,-94.67 172,-87 163.01,-83.9 153.39,-80.89 143.98,-78.11"/>
<polygon fill="#63b8ff" stroke="#63b8ff" points="237.28,-116.28 247.85,-117 240.04,-109.84 237.28,-116.28"/>
</a>
</g>
</g>
<!-- Node7 -->
<g id="Node000007" class="node">
<title>Node7</title>
<g id="a_Node000007"><a xlink:href="../../d1/db9/classAudioEqualizer.html#ab889930bce0940b2022d25fac49c1fee" target="_top" xlink:title="Set ReplayGain preamp.">
<polygon fill="white" stroke="#666666" points="158,-30 14,-30 14,0 158,0 158,-30"/>
<text text-anchor="start" x="22" y="-18" font-family="Helvetica,sans-Serif" font-size="10.00">AudioEqualizer::setReplay</text>
<text text-anchor="middle" x="86" y="-7" font-family="Helvetica,sans-Serif" font-size="10.00">GainPreamp</text>
</a>
</g>
</g>
<!-- Node1&#45;&gt;Node7 -->
<g id="edge6_Node000001_Node000007" class="edge">
<title>Node1&#45;&gt;Node7</title>
<g id="a_edge6_Node000001_Node000007"><a xlink:title=" ">
<path fill="none" stroke="#63b8ff" d="M260.79,-109.55C240.18,-88.47 206.7,-57.49 172,-39 165.64,-35.61 158.75,-32.66 151.74,-30.09"/>
<polygon fill="#63b8ff" stroke="#63b8ff" points="258.33,-112.04 267.78,-116.83 263.38,-107.19 258.33,-112.04"/>
</a>
</g>
</g>
</g>
</svg>
