<?xml version="1.0" encoding="UTF-8" standalone="no"?>
<!DOCTYPE svg PUBLIC "-//W3C//DTD SVG 1.1//EN"
 "http://www.w3.org/Graphics/SVG/1.1/DTD/svg11.dtd">
<!-- Generated by graphviz version 2.43.0 (0)
 -->
<!-- Title: AudioEqualizer::importSettings Pages: 1 -->
<svg width="402pt" height="305pt"
 viewBox="0.00 0.00 402.00 305.00" xmlns="http://www.w3.org/2000/svg" xmlns:xlink="http://www.w3.org/1999/xlink">
<g id="graph0" class="graph" transform="scale(1 1) rotate(0) translate(4 301)">
<title>AudioEqualizer::importSettings</title>
<!-- Node1 -->
<g id="Node000001" class="node">
<title>Node1</title>
<g id="a_Node000001"><a xlink:title="Import equalizer settings from file.">
<polygon fill="#999999" stroke="#666666" points="167,-163.5 0,-163.5 0,-144.5 167,-144.5 167,-163.5"/>
<text text-anchor="middle" x="83.5" y="-151.5" font-family="Helvetica,sans-Serif" font-size="10.00">AudioEqualizer::importSettings</text>
</a>
</g>
</g>
<!-- Node2 -->
<g id="Node000002" class="node">
<title>Node2</title>
<g id="a_Node000002"><a xlink:href="../../d1/db9/classAudioEqualizer.html#aa74eed06fe12bea90e9870ab3e0b9057" target="_top" xlink:title="Emitted when a band gain changes.">
<polygon fill="white" stroke="#666666" points="369.5,-297 227.5,-297 227.5,-267 369.5,-267 369.5,-297"/>
<text text-anchor="start" x="235.5" y="-285" font-family="Helvetica,sans-Serif" font-size="10.00">AudioEqualizer::bandGain</text>
<text text-anchor="middle" x="298.5" y="-274" font-family="Helvetica,sans-Serif" font-size="10.00">Changed</text>
</a>
</g>
</g>
<!-- Node1&#45;&gt;Node2 -->
<g id="edge1_Node000001_Node000002" class="edge">
<title>Node1&#45;&gt;Node2</title>
<g id="a_edge1_Node000001_Node000002"><a xlink:title=" ">
<path fill="none" stroke="#63b8ff" d="M92.61,-163.71C110.38,-184.35 155.04,-232.76 203,-258 207.77,-260.51 212.83,-262.77 218.01,-264.8"/>
<polygon fill="#63b8ff" stroke="#63b8ff" points="216.86,-268.11 227.45,-268.21 219.24,-261.52 216.86,-268.11"/>
</a>
</g>
</g>
<!-- Node3 -->
<g id="Node000003" class="node">
<title>Node3</title>
<g id="a_Node000003"><a xlink:href="../../d1/db9/classAudioEqualizer.html#a4ea1fbeb04218b6f9afdaad714bb86b5" target="_top" xlink:title="Emitted when bass boost changes.">
<polygon fill="white" stroke="#666666" points="371.5,-249 225.5,-249 225.5,-219 371.5,-219 371.5,-249"/>
<text text-anchor="start" x="233.5" y="-237" font-family="Helvetica,sans-Serif" font-size="10.00">AudioEqualizer::bassBoost</text>
<text text-anchor="middle" x="298.5" y="-226" font-family="Helvetica,sans-Serif" font-size="10.00">Changed</text>
</a>
</g>
</g>
<!-- Node1&#45;&gt;Node3 -->
<g id="edge2_Node000001_Node000003" class="edge">
<title>Node1&#45;&gt;Node3</title>
<g id="a_edge2_Node000001_Node000003"><a xlink:title=" ">
<path fill="none" stroke="#63b8ff" d="M102.11,-163.64C124.86,-175.79 165.96,-196.68 203,-210 208.96,-212.14 215.19,-214.17 221.5,-216.07"/>
<polygon fill="#63b8ff" stroke="#63b8ff" points="220.85,-219.53 231.43,-218.96 222.8,-212.81 220.85,-219.53"/>
</a>
</g>
</g>
<!-- Node4 -->
<g id="Node000004" class="node">
<title>Node4</title>
<g id="a_Node000004"><a xlink:href="../../d1/db9/classAudioEqualizer.html#aeff0ac8afdf5f92d8d4ff8bbca20d75a" target="_top" xlink:title="Emitted when equalizer is enabled/disabled.">
<polygon fill="white" stroke="#666666" points="387,-200.5 210,-200.5 210,-181.5 387,-181.5 387,-200.5"/>
<text text-anchor="middle" x="298.5" y="-188.5" font-family="Helvetica,sans-Serif" font-size="10.00">AudioEqualizer::enabledChanged</text>
</a>
</g>
</g>
<!-- Node1&#45;&gt;Node4 -->
<g id="edge3_Node000001_Node000004" class="edge">
<title>Node1&#45;&gt;Node4</title>
<g id="a_edge3_Node000001_Node000004"><a xlink:title=" ">
<path fill="none" stroke="#63b8ff" d="M139.35,-163.53C167.81,-168.47 202.77,-174.54 232.57,-179.72"/>
<polygon fill="#63b8ff" stroke="#63b8ff" points="232.01,-183.18 242.46,-181.44 233.21,-176.28 232.01,-183.18"/>
</a>
</g>
</g>
<!-- Node5 -->
<g id="Node000005" class="node">
<title>Node5</title>
<g id="a_Node000005"><a xlink:href="../../d1/db9/classAudioEqualizer.html#af60730b36b8f47173835619d2e9d224f" target="_top" xlink:title="Emitted when preset changes.">
<polygon fill="white" stroke="#666666" points="383,-163.5 214,-163.5 214,-144.5 383,-144.5 383,-163.5"/>
<text text-anchor="middle" x="298.5" y="-151.5" font-family="Helvetica,sans-Serif" font-size="10.00">AudioEqualizer::presetChanged</text>
</a>
</g>
</g>
<!-- Node1&#45;&gt;Node5 -->
<g id="edge4_Node000001_Node000005" class="edge">
<title>Node1&#45;&gt;Node5</title>
<g id="a_edge4_Node000001_Node000005"><a xlink:title=" ">
<path fill="none" stroke="#63b8ff" d="M167.16,-154C179.12,-154 191.52,-154 203.68,-154"/>
<polygon fill="#63b8ff" stroke="#63b8ff" points="203.84,-157.5 213.84,-154 203.84,-150.5 203.84,-157.5"/>
</a>
</g>
</g>
<!-- Node6 -->
<g id="Node000006" class="node">
<title>Node6</title>
<g id="a_Node000006"><a xlink:href="../../d1/db9/classAudioEqualizer.html#a726f0699e17d1bc9bc879ec65a77c6b3" target="_top" xlink:title="Emitted when ReplayGain settings change.">
<polygon fill="white" stroke="#666666" points="373,-126 224,-126 224,-96 373,-96 373,-126"/>
<text text-anchor="start" x="232" y="-114" font-family="Helvetica,sans-Serif" font-size="10.00">AudioEqualizer::replayGain</text>
<text text-anchor="middle" x="298.5" y="-103" font-family="Helvetica,sans-Serif" font-size="10.00">Changed</text>
</a>
</g>
</g>
<!-- Node1&#45;&gt;Node6 -->
<g id="edge5_Node000001_Node000006" class="edge">
<title>Node1&#45;&gt;Node6</title>
<g id="a_edge5_Node000001_Node000006"><a xlink:title=" ">
<path fill="none" stroke="#63b8ff" d="M131.77,-144.46C155.9,-139.59 185.96,-133.52 213.84,-127.89"/>
<polygon fill="#63b8ff" stroke="#63b8ff" points="214.89,-131.25 224,-125.84 213.5,-124.39 214.89,-131.25"/>
</a>
</g>
</g>
<!-- Node7 -->
<g id="Node000007" class="node">
<title>Node7</title>
<g id="a_Node000007"><a xlink:href="../../d1/db9/classAudioEqualizer.html#a37c50143b4d12c3d6f33f8e4e011b51e" target="_top" xlink:title="Emitted when 3D surround settings change.">
<polygon fill="white" stroke="#666666" points="367.5,-78 229.5,-78 229.5,-48 367.5,-48 367.5,-78"/>
<text text-anchor="start" x="237.5" y="-66" font-family="Helvetica,sans-Serif" font-size="10.00">AudioEqualizer::surround</text>
<text text-anchor="middle" x="298.5" y="-55" font-family="Helvetica,sans-Serif" font-size="10.00">Changed</text>
</a>
</g>
</g>
<!-- Node1&#45;&gt;Node7 -->
<g id="edge6_Node000001_Node000007" class="edge">
<title>Node1&#45;&gt;Node7</title>
<g id="a_edge6_Node000001_Node000007"><a xlink:title=" ">
<path fill="none" stroke="#63b8ff" d="M98.47,-144.46C120.03,-130.13 163.08,-103.02 203,-87 208.38,-84.84 214.02,-82.83 219.74,-80.96"/>
<polygon fill="#63b8ff" stroke="#63b8ff" points="220.92,-84.26 229.43,-77.96 218.84,-77.58 220.92,-84.26"/>
</a>
</g>
</g>
<!-- Node8 -->
<g id="Node000008" class="node">
<title>Node8</title>
<g id="a_Node000008"><a xlink:href="../../d1/db9/classAudioEqualizer.html#a37cc38e4253320cb56ea71d899aee4e5" target="_top" xlink:title="Emitted when treble enhancement changes.">
<polygon fill="white" stroke="#666666" points="394,-30 203,-30 203,0 394,0 394,-30"/>
<text text-anchor="start" x="211" y="-18" font-family="Helvetica,sans-Serif" font-size="10.00">AudioEqualizer::trebleEnhancement</text>
<text text-anchor="middle" x="298.5" y="-7" font-family="Helvetica,sans-Serif" font-size="10.00">Changed</text>
</a>
</g>
</g>
<!-- Node1&#45;&gt;Node8 -->
<g id="edge7_Node000001_Node000008" class="edge">
<title>Node1&#45;&gt;Node8</title>
<g id="a_edge7_Node000001_Node000008"><a xlink:title=" ">
<path fill="none" stroke="#63b8ff" d="M91.59,-144.25C108.33,-121.97 152.7,-67.11 203,-39 206.3,-37.16 209.74,-35.45 213.27,-33.88"/>
<polygon fill="#63b8ff" stroke="#63b8ff" points="214.86,-37.01 222.81,-30 212.22,-30.53 214.86,-37.01"/>
</a>
</g>
</g>
</g>
</svg>
