<?xml version="1.0" encoding="UTF-8" standalone="no"?>
<!DOCTYPE svg PUBLIC "-//W3C//DTD SVG 1.1//EN"
 "http://www.w3.org/Graphics/SVG/1.1/DTD/svg11.dtd">
<!-- Generated by graphviz version 2.43.0 (0)
 -->
<!-- Title: AudioEqualizer::resetToDefaults Pages: 1 -->
<svg width="407pt" height="305pt"
 viewBox="0.00 0.00 407.00 305.00" xmlns="http://www.w3.org/2000/svg" xmlns:xlink="http://www.w3.org/1999/xlink">

<svg id="main" version="1.1" xmlns="http://www.w3.org/2000/svg" xmlns:xlink="http://www.w3.org/1999/xlink" xml:space="preserve" onload="init(evt)">
<style type="text/css"><![CDATA[
.node, .edge {opacity: 0.7;}
.node.selected, .edge.selected {opacity: 1;}
.edge:hover path { stroke: red; }
.edge:hover polygon { stroke: red; fill: red; }
]]></style>
<script type="application/ecmascript" xlink:href="../../svg.min.js"/>
<svg id="graph" class="graph">
<g id="graph0" class="graph" transform="scale(1 1) rotate(0) translate(4 301)">
<title>AudioEqualizer::resetToDefaults</title>
<!-- Node1 -->
<g id="Node000001" class="node">
<title>Node1</title>
<g id="a_Node000001"><a xlink:title="Reset equalizer to default settings.">
<polygon fill="#999999" stroke="#666666" points="172,-163.5 0,-163.5 0,-144.5 172,-144.5 172,-163.5"/>
<text text-anchor="middle" x="86" y="-151.5" font-family="Helvetica,sans-Serif" font-size="10.00">AudioEqualizer::resetToDefaults</text>
</a>
</g>
</g>
<!-- Node2 -->
<g id="Node000002" class="node">
<title>Node2</title>
<g id="a_Node000002"><a xlink:href="../../d1/db9/classAudioEqualizer.html#aa74eed06fe12bea90e9870ab3e0b9057" target="_top" xlink:title="Emitted when a band gain changes.">
<polygon fill="white" stroke="#666666" points="374.5,-297 232.5,-297 232.5,-267 374.5,-267 374.5,-297"/>
<text text-anchor="start" x="240.5" y="-285" font-family="Helvetica,sans-Serif" font-size="10.00">AudioEqualizer::bandGain</text>
<text text-anchor="middle" x="303.5" y="-274" font-family="Helvetica,sans-Serif" font-size="10.00">Changed</text>
</a>
</g>
</g>
<!-- Node1&#45;&gt;Node2 -->
<g id="edge1_Node000001_Node000002" class="edge">
<title>Node1&#45;&gt;Node2</title>
<g id="a_edge1_Node000001_Node000002"><a xlink:title=" ">
<path fill="none" stroke="#63b8ff" d="M95.32,-163.7C113.57,-184.32 159.34,-232.7 208,-258 212.79,-260.49 217.85,-262.73 223.04,-264.75"/>
<polygon fill="#63b8ff" stroke="#63b8ff" points="221.9,-268.05 232.49,-268.14 224.26,-261.47 221.9,-268.05"/>
</a>
</g>
</g>
<!-- Node3 -->
<g id="Node000003" class="node">
<title>Node3</title>
<g id="a_Node000003"><a xlink:href="../../d1/db9/classAudioEqualizer.html#a4ea1fbeb04218b6f9afdaad714bb86b5" target="_top" xlink:title="Emitted when bass boost changes.">
<polygon fill="white" stroke="#666666" points="376.5,-249 230.5,-249 230.5,-219 376.5,-219 376.5,-249"/>
<text text-anchor="start" x="238.5" y="-237" font-family="Helvetica,sans-Serif" font-size="10.00">AudioEqualizer::bassBoost</text>
<text text-anchor="middle" x="303.5" y="-226" font-family="Helvetica,sans-Serif" font-size="10.00">Changed</text>
</a>
</g>
</g>
<!-- Node1&#45;&gt;Node3 -->
<g id="edge2_Node000001_Node000003" class="edge">
<title>Node1&#45;&gt;Node3</title>
<g id="a_edge2_Node000001_Node000003"><a xlink:title=" ">
<path fill="none" stroke="#63b8ff" d="M105.01,-163.62C128.27,-175.74 170.26,-196.6 208,-210 214.02,-212.14 220.32,-214.16 226.68,-216.07"/>
<polygon fill="#63b8ff" stroke="#63b8ff" points="226.13,-219.55 236.7,-218.96 228.07,-212.83 226.13,-219.55"/>
</a>
</g>
</g>
<!-- Node4 -->
<g id="Node000004" class="node">
<title>Node4</title>
<g id="a_Node000004"><a xlink:href="../../d1/db9/classAudioEqualizer.html#aeff0ac8afdf5f92d8d4ff8bbca20d75a" target="_top" xlink:title="Emitted when equalizer is enabled/disabled.">
<polygon fill="white" stroke="#666666" points="392,-200.5 215,-200.5 215,-181.5 392,-181.5 392,-200.5"/>
<text text-anchor="middle" x="303.5" y="-188.5" font-family="Helvetica,sans-Serif" font-size="10.00">AudioEqualizer::enabledChanged</text>
</a>
</g>
</g>
<!-- Node1&#45;&gt;Node4 -->
<g id="edge3_Node000001_Node000004" class="edge">
<title>Node1&#45;&gt;Node4</title>
<g id="a_edge3_Node000001_Node000004"><a xlink:title=" ">
<path fill="none" stroke="#63b8ff" d="M142.5,-163.53C171.29,-168.47 206.66,-174.54 236.81,-179.72"/>
<polygon fill="#63b8ff" stroke="#63b8ff" points="236.37,-183.2 246.82,-181.44 237.55,-176.3 236.37,-183.2"/>
</a>
</g>
</g>
<!-- Node5 -->
<g id="Node000005" class="node">
<title>Node5</title>
<g id="a_Node000005"><a xlink:href="../../d1/db9/classAudioEqualizer.html#af60730b36b8f47173835619d2e9d224f" target="_top" xlink:title="Emitted when preset changes.">
<polygon fill="white" stroke="#666666" points="388,-163.5 219,-163.5 219,-144.5 388,-144.5 388,-163.5"/>
<text text-anchor="middle" x="303.5" y="-151.5" font-family="Helvetica,sans-Serif" font-size="10.00">AudioEqualizer::presetChanged</text>
</a>
</g>
</g>
<!-- Node1&#45;&gt;Node5 -->
<g id="edge4_Node000001_Node000005" class="edge">
<title>Node1&#45;&gt;Node5</title>
<g id="a_edge4_Node000001_Node000005"><a xlink:title=" ">
<path fill="none" stroke="#63b8ff" d="M172.17,-154C184.12,-154 196.46,-154 208.56,-154"/>
<polygon fill="#63b8ff" stroke="#63b8ff" points="208.65,-157.5 218.65,-154 208.65,-150.5 208.65,-157.5"/>
</a>
</g>
</g>
<!-- Node6 -->
<g id="Node000006" class="node">
<title>Node6</title>
<g id="a_Node000006"><a xlink:href="../../d1/db9/classAudioEqualizer.html#a726f0699e17d1bc9bc879ec65a77c6b3" target="_top" xlink:title="Emitted when ReplayGain settings change.">
<polygon fill="white" stroke="#666666" points="378,-126 229,-126 229,-96 378,-96 378,-126"/>
<text text-anchor="start" x="237" y="-114" font-family="Helvetica,sans-Serif" font-size="10.00">AudioEqualizer::replayGain</text>
<text text-anchor="middle" x="303.5" y="-103" font-family="Helvetica,sans-Serif" font-size="10.00">Changed</text>
</a>
</g>
</g>
<!-- Node1&#45;&gt;Node6 -->
<g id="edge5_Node000001_Node000006" class="edge">
<title>Node1&#45;&gt;Node6</title>
<g id="a_edge5_Node000001_Node000006"><a xlink:title=" ">
<path fill="none" stroke="#63b8ff" d="M134.83,-144.46C159.56,-139.52 190.48,-133.35 219,-127.66"/>
<polygon fill="#63b8ff" stroke="#63b8ff" points="219.85,-131.06 228.97,-125.67 218.48,-124.2 219.85,-131.06"/>
</a>
</g>
</g>
<!-- Node7 -->
<g id="Node000007" class="node">
<title>Node7</title>
<g id="a_Node000007"><a xlink:href="../../d1/db9/classAudioEqualizer.html#a37c50143b4d12c3d6f33f8e4e011b51e" target="_top" xlink:title="Emitted when 3D surround settings change.">
<polygon fill="white" stroke="#666666" points="372.5,-78 234.5,-78 234.5,-48 372.5,-48 372.5,-78"/>
<text text-anchor="start" x="242.5" y="-66" font-family="Helvetica,sans-Serif" font-size="10.00">AudioEqualizer::surround</text>
<text text-anchor="middle" x="303.5" y="-55" font-family="Helvetica,sans-Serif" font-size="10.00">Changed</text>
</a>
</g>
</g>
<!-- Node1&#45;&gt;Node7 -->
<g id="edge6_Node000001_Node000007" class="edge">
<title>Node1&#45;&gt;Node7</title>
<g id="a_edge6_Node000001_Node000007"><a xlink:title=" ">
<path fill="none" stroke="#63b8ff" d="M101.3,-144.48C123.35,-130.17 167.37,-103.1 208,-87 213.39,-84.86 219.04,-82.87 224.77,-81.02"/>
<polygon fill="#63b8ff" stroke="#63b8ff" points="225.93,-84.32 234.46,-78.03 223.87,-77.63 225.93,-84.32"/>
</a>
</g>
</g>
<!-- Node8 -->
<g id="Node000008" class="node">
<title>Node8</title>
<g id="a_Node000008"><a xlink:href="../../d1/db9/classAudioEqualizer.html#a37cc38e4253320cb56ea71d899aee4e5" target="_top" xlink:title="Emitted when treble enhancement changes.">
<polygon fill="white" stroke="#666666" points="399,-30 208,-30 208,0 399,0 399,-30"/>
<text text-anchor="start" x="216" y="-18" font-family="Helvetica,sans-Serif" font-size="10.00">AudioEqualizer::trebleEnhancement</text>
<text text-anchor="middle" x="303.5" y="-7" font-family="Helvetica,sans-Serif" font-size="10.00">Changed</text>
</a>
</g>
</g>
<!-- Node1&#45;&gt;Node8 -->
<g id="edge7_Node000001_Node000008" class="edge">
<title>Node1&#45;&gt;Node8</title>
<g id="a_edge7_Node000001_Node000008"><a xlink:title=" ">
<path fill="none" stroke="#63b8ff" d="M94.29,-144.25C111.49,-121.99 157,-67.15 208,-39 211.31,-37.17 214.75,-35.49 218.29,-33.92"/>
<polygon fill="#63b8ff" stroke="#63b8ff" points="219.88,-37.06 227.84,-30.07 217.26,-30.57 219.88,-37.06"/>
</a>
</g>
</g>
</g>
</svg>
</svg>

<style type='text/css'>
<![CDATA[
[data-mouse-over-selected='false'] { opacity: 0.7; }
[data-mouse-over-selected='true']  { opacity: 1.0; }
]]>
</style>
<script type="application/ecmascript"><![CDATA[
document.addEventListener('DOMContentLoaded', (event) => {
  highlightEdges();
  highlightAdjacentNodes();
});
]]></script>
</svg>
