<?xml version="1.0" encoding="UTF-8" standalone="no"?>
<!DOCTYPE svg PUBLIC "-//W3C//DTD SVG 1.1//EN"
 "http://www.w3.org/Graphics/SVG/1.1/DTD/svg11.dtd">
<!-- Generated by graphviz version 2.43.0 (0)
 -->
<!-- Title: AudioEqualizer::setAllBandGains Pages: 1 -->
<svg width="361pt" height="76pt"
 viewBox="0.00 0.00 361.00 75.50" xmlns="http://www.w3.org/2000/svg" xmlns:xlink="http://www.w3.org/1999/xlink">
<g id="graph0" class="graph" transform="scale(1 1) rotate(0) translate(4 71.5)">
<title>AudioEqualizer::setAllBandGains</title>
<!-- Node1 -->
<g id="Node000001" class="node">
<title>Node1</title>
<g id="a_Node000001"><a xlink:title="Set all band gains.">
<polygon fill="#999999" stroke="#666666" points="148,-45.5 0,-45.5 0,-15.5 148,-15.5 148,-45.5"/>
<text text-anchor="start" x="8" y="-33.5" font-family="Helvetica,sans-Serif" font-size="10.00">AudioEqualizer::setAllBand</text>
<text text-anchor="middle" x="74" y="-22.5" font-family="Helvetica,sans-Serif" font-size="10.00">Gains</text>
</a>
</g>
</g>
<!-- Node2 -->
<g id="Node000002" class="node">
<title>Node2</title>
<g id="a_Node000002"><a xlink:href="../../d1/db9/classAudioEqualizer.html#aa74eed06fe12bea90e9870ab3e0b9057" target="_top" xlink:title="Emitted when a band gain changes.">
<polygon fill="white" stroke="#666666" points="339.5,-67.5 197.5,-67.5 197.5,-37.5 339.5,-37.5 339.5,-67.5"/>
<text text-anchor="start" x="205.5" y="-55.5" font-family="Helvetica,sans-Serif" font-size="10.00">AudioEqualizer::bandGain</text>
<text text-anchor="middle" x="268.5" y="-44.5" font-family="Helvetica,sans-Serif" font-size="10.00">Changed</text>
</a>
</g>
</g>
<!-- Node1&#45;&gt;Node2 -->
<g id="edge1_Node000001_Node000002" class="edge">
<title>Node1&#45;&gt;Node2</title>
<g id="a_edge1_Node000001_Node000002"><a xlink:title=" ">
<path fill="none" stroke="#63b8ff" d="M148.05,-38.85C160.81,-40.31 174.14,-41.83 187.08,-43.31"/>
<polygon fill="#63b8ff" stroke="#63b8ff" points="187.03,-46.83 197.36,-44.48 187.82,-39.87 187.03,-46.83"/>
</a>
</g>
</g>
<!-- Node3 -->
<g id="Node000003" class="node">
<title>Node3</title>
<g id="a_Node000003"><a xlink:href="../../d1/db9/classAudioEqualizer.html#af60730b36b8f47173835619d2e9d224f" target="_top" xlink:title="Emitted when preset changes.">
<polygon fill="white" stroke="#666666" points="353,-19 184,-19 184,0 353,0 353,-19"/>
<text text-anchor="middle" x="268.5" y="-7" font-family="Helvetica,sans-Serif" font-size="10.00">AudioEqualizer::presetChanged</text>
</a>
</g>
</g>
<!-- Node1&#45;&gt;Node3 -->
<g id="edge2_Node000001_Node000003" class="edge">
<title>Node1&#45;&gt;Node3</title>
<g id="a_edge2_Node000001_Node000003"><a xlink:title=" ">
<path fill="none" stroke="#63b8ff" d="M148.05,-22.53C156.46,-21.61 165.12,-20.67 173.75,-19.73"/>
<polygon fill="#63b8ff" stroke="#63b8ff" points="174.3,-23.19 183.86,-18.62 173.54,-16.23 174.3,-23.19"/>
</a>
</g>
</g>
</g>
</svg>
