<?xml version="1.0" encoding="UTF-8" standalone="no"?>
<!DOCTYPE svg PUBLIC "-//W3C//DTD SVG 1.1//EN"
 "http://www.w3.org/Graphics/SVG/1.1/DTD/svg11.dtd">
<!-- Generated by graphviz version 2.43.0 (0)
 -->
<!-- Title: AudioEqualizer::surroundChanged Pages: 1 -->
<svg width="354pt" height="210pt"
 viewBox="0.00 0.00 354.00 209.50" xmlns="http://www.w3.org/2000/svg" xmlns:xlink="http://www.w3.org/1999/xlink">

<svg id="main" version="1.1" xmlns="http://www.w3.org/2000/svg" xmlns:xlink="http://www.w3.org/1999/xlink" xml:space="preserve" onload="init(evt)">
<style type="text/css"><![CDATA[
.node, .edge {opacity: 0.7;}
.node.selected, .edge.selected {opacity: 1;}
.edge:hover path { stroke: red; }
.edge:hover polygon { stroke: red; fill: red; }
]]></style>
<script type="application/ecmascript" xlink:href="../../svg.min.js"/>
<svg id="graph" class="graph">
<g id="graph0" class="graph" transform="scale(1 1) rotate(0) translate(4 205.5)">
<title>AudioEqualizer::surroundChanged</title>
<!-- Node1 -->
<g id="Node000001" class="node">
<title>Node1</title>
<g id="a_Node000001"><a xlink:title="Emitted when 3D surround settings change.">
<polygon fill="#999999" stroke="#666666" points="346,-121 208,-121 208,-91 346,-91 346,-121"/>
<text text-anchor="start" x="216" y="-109" font-family="Helvetica,sans-Serif" font-size="10.00">AudioEqualizer::surround</text>
<text text-anchor="middle" x="277" y="-98" font-family="Helvetica,sans-Serif" font-size="10.00">Changed</text>
</a>
</g>
</g>
<!-- Node2 -->
<g id="Node000002" class="node">
<title>Node2</title>
<g id="a_Node000002"><a xlink:href="../../d1/db9/classAudioEqualizer.html#a8303ee2073a7bc91ad6c0dee052e75fe" target="_top" xlink:title="Import equalizer settings from file.">
<polygon fill="white" stroke="#666666" points="169.5,-201.5 2.5,-201.5 2.5,-182.5 169.5,-182.5 169.5,-201.5"/>
<text text-anchor="middle" x="86" y="-189.5" font-family="Helvetica,sans-Serif" font-size="10.00">AudioEqualizer::importSettings</text>
</a>
</g>
</g>
<!-- Node1&#45;&gt;Node2 -->
<g id="edge1_Node000001_Node000002" class="edge">
<title>Node1&#45;&gt;Node2</title>
<g id="a_edge1_Node000001_Node000002"><a xlink:title=" ">
<path fill="none" stroke="#63b8ff" d="M249.13,-127.1C228.96,-141.97 200.09,-161.25 172,-173 162.93,-176.79 152.99,-179.88 143.2,-182.39"/>
<polygon fill="#63b8ff" stroke="#63b8ff" points="251.32,-129.84 257.22,-121.04 247.12,-124.24 251.32,-129.84"/>
</a>
</g>
</g>
<!-- Node3 -->
<g id="Node000003" class="node">
<title>Node3</title>
<g id="a_Node000003"><a xlink:href="../../d9/d4c/classAudioEqualizerWidget.html#a96f7775022636c37fa20cb10b514412d" target="_top" xlink:title="Initialize the widget with audio equalizer.">
<polygon fill="white" stroke="#666666" points="148,-164 24,-164 24,-134 148,-134 148,-164"/>
<text text-anchor="start" x="32" y="-152" font-family="Helvetica,sans-Serif" font-size="10.00">AudioEqualizerWidget</text>
<text text-anchor="middle" x="86" y="-141" font-family="Helvetica,sans-Serif" font-size="10.00">::initialize</text>
</a>
</g>
</g>
<!-- Node1&#45;&gt;Node3 -->
<g id="edge2_Node000001_Node000003" class="edge">
<title>Node1&#45;&gt;Node3</title>
<g id="a_edge2_Node000001_Node000003"><a xlink:title=" ">
<path fill="none" stroke="#63b8ff" d="M199.91,-123.31C182.76,-127.21 164.77,-131.31 148.31,-135.05"/>
<polygon fill="#63b8ff" stroke="#63b8ff" points="200.92,-126.67 209.9,-121.04 199.37,-119.85 200.92,-126.67"/>
</a>
</g>
</g>
<!-- Node4 -->
<g id="Node000004" class="node">
<title>Node4</title>
<g id="a_Node000004"><a xlink:href="../../d1/db9/classAudioEqualizer.html#a53b3705e78894c1779060067e9c5b1e3" target="_top" xlink:title="Reset equalizer to default settings.">
<polygon fill="white" stroke="#666666" points="172,-115.5 0,-115.5 0,-96.5 172,-96.5 172,-115.5"/>
<text text-anchor="middle" x="86" y="-103.5" font-family="Helvetica,sans-Serif" font-size="10.00">AudioEqualizer::resetToDefaults</text>
</a>
</g>
</g>
<!-- Node1&#45;&gt;Node4 -->
<g id="edge3_Node000001_Node000004" class="edge">
<title>Node1&#45;&gt;Node4</title>
<g id="a_edge3_Node000001_Node000004"><a xlink:title=" ">
<path fill="none" stroke="#63b8ff" d="M197.65,-106C189.27,-106 180.71,-106 172.26,-106"/>
<polygon fill="#63b8ff" stroke="#63b8ff" points="197.77,-109.5 207.77,-106 197.77,-102.5 197.77,-109.5"/>
</a>
</g>
</g>
<!-- Node5 -->
<g id="Node000005" class="node">
<title>Node5</title>
<g id="a_Node000005"><a xlink:href="../../d1/db9/classAudioEqualizer.html#a47ca8504594629a18fac375a73a365c9" target="_top" xlink:title="Enable or disable 3D surround sound simulation.">
<polygon fill="white" stroke="#666666" points="169.5,-78 2.5,-78 2.5,-48 169.5,-48 169.5,-78"/>
<text text-anchor="start" x="10.5" y="-66" font-family="Helvetica,sans-Serif" font-size="10.00">AudioEqualizer::set3DSurround</text>
<text text-anchor="middle" x="86" y="-55" font-family="Helvetica,sans-Serif" font-size="10.00">Enabled</text>
</a>
</g>
</g>
<!-- Node1&#45;&gt;Node5 -->
<g id="edge4_Node000001_Node000005" class="edge">
<title>Node1&#45;&gt;Node5</title>
<g id="a_edge4_Node000001_Node000005"><a xlink:title=" ">
<path fill="none" stroke="#63b8ff" d="M199.83,-88.67C184.34,-85.15 168.17,-81.47 153.07,-78.03"/>
<polygon fill="#63b8ff" stroke="#63b8ff" points="199.37,-92.15 209.9,-90.96 200.92,-85.33 199.37,-92.15"/>
</a>
</g>
</g>
<!-- Node6 -->
<g id="Node000006" class="node">
<title>Node6</title>
<g id="a_Node000006"><a xlink:href="../../d1/db9/classAudioEqualizer.html#affbd4fb93522a5a223e484b9527d9d38" target="_top" xlink:title="Set 3D surround sound strength.">
<polygon fill="white" stroke="#666666" points="169.5,-30 2.5,-30 2.5,0 169.5,0 169.5,-30"/>
<text text-anchor="start" x="10.5" y="-18" font-family="Helvetica,sans-Serif" font-size="10.00">AudioEqualizer::set3DSurround</text>
<text text-anchor="middle" x="86" y="-7" font-family="Helvetica,sans-Serif" font-size="10.00">Strength</text>
</a>
</g>
</g>
<!-- Node1&#45;&gt;Node6 -->
<g id="edge5_Node000001_Node000006" class="edge">
<title>Node1&#45;&gt;Node6</title>
<g id="a_edge5_Node000001_Node000006"><a xlink:title=" ">
<path fill="none" stroke="#63b8ff" d="M248.17,-84.81C227.94,-70.24 199.41,-51.36 172,-39 164.59,-35.66 156.61,-32.67 148.6,-30.04"/>
<polygon fill="#63b8ff" stroke="#63b8ff" points="246.17,-87.68 256.31,-90.76 250.3,-82.03 246.17,-87.68"/>
</a>
</g>
</g>
</g>
</svg>
</svg>

<style type='text/css'>
<![CDATA[
[data-mouse-over-selected='false'] { opacity: 0.7; }
[data-mouse-over-selected='true']  { opacity: 1.0; }
]]>
</style>
<script type="application/ecmascript"><![CDATA[
document.addEventListener('DOMContentLoaded', (event) => {
  highlightEdges();
  highlightAdjacentNodes();
});
]]></script>
</svg>
