<?xml version="1.0" encoding="UTF-8" standalone="no"?>
<!DOCTYPE svg PUBLIC "-//W3C//DTD SVG 1.1//EN"
 "http://www.w3.org/Graphics/SVG/1.1/DTD/svg11.dtd">
<!-- Generated by graphviz version 2.43.0 (0)
 -->
<!-- Title: AudioEqualizer::enabledChanged Pages: 1 -->
<svg width="393pt" height="150pt"
 viewBox="0.00 0.00 393.00 150.00" xmlns="http://www.w3.org/2000/svg" xmlns:xlink="http://www.w3.org/1999/xlink">
<g id="graph0" class="graph" transform="scale(1 1) rotate(0) translate(4 146)">
<title>AudioEqualizer::enabledChanged</title>
<!-- Node1 -->
<g id="Node000001" class="node">
<title>Node1</title>
<g id="a_Node000001"><a xlink:title="Emitted when equalizer is enabled/disabled.">
<polygon fill="#999999" stroke="#666666" points="385,-77 208,-77 208,-58 385,-58 385,-77"/>
<text text-anchor="middle" x="296.5" y="-65" font-family="Helvetica,sans-Serif" font-size="10.00">AudioEqualizer::enabledChanged</text>
</a>
</g>
</g>
<!-- Node2 -->
<g id="Node000002" class="node">
<title>Node2</title>
<g id="a_Node000002"><a xlink:href="../../d1/db9/classAudioEqualizer.html#a8303ee2073a7bc91ad6c0dee052e75fe" target="_top" xlink:title="Import equalizer settings from file.">
<polygon fill="white" stroke="#666666" points="169.5,-142 2.5,-142 2.5,-123 169.5,-123 169.5,-142"/>
<text text-anchor="middle" x="86" y="-130" font-family="Helvetica,sans-Serif" font-size="10.00">AudioEqualizer::importSettings</text>
</a>
</g>
</g>
<!-- Node1&#45;&gt;Node2 -->
<g id="edge1_Node000001_Node000002" class="edge">
<title>Node1&#45;&gt;Node2</title>
<g id="a_edge1_Node000001_Node000002"><a xlink:title=" ">
<path fill="none" stroke="#63b8ff" d="M263.03,-80.98C238.36,-90.89 203.43,-104.18 172,-113.5 160.11,-117.02 147.12,-120.24 134.95,-122.98"/>
<polygon fill="#63b8ff" stroke="#63b8ff" points="264.65,-84.1 272.6,-77.1 262.02,-77.62 264.65,-84.1"/>
</a>
</g>
</g>
<!-- Node3 -->
<g id="Node000003" class="node">
<title>Node3</title>
<g id="a_Node000003"><a xlink:href="../../d9/d4c/classAudioEqualizerWidget.html#a96f7775022636c37fa20cb10b514412d" target="_top" xlink:title="Initialize the widget with audio equalizer.">
<polygon fill="white" stroke="#666666" points="148,-104.5 24,-104.5 24,-74.5 148,-74.5 148,-104.5"/>
<text text-anchor="start" x="32" y="-92.5" font-family="Helvetica,sans-Serif" font-size="10.00">AudioEqualizerWidget</text>
<text text-anchor="middle" x="86" y="-81.5" font-family="Helvetica,sans-Serif" font-size="10.00">::initialize</text>
</a>
</g>
</g>
<!-- Node1&#45;&gt;Node3 -->
<g id="edge2_Node000001_Node000003" class="edge">
<title>Node1&#45;&gt;Node3</title>
<g id="a_edge2_Node000001_Node000003"><a xlink:title=" ">
<path fill="none" stroke="#63b8ff" d="M198,-77.79C180.97,-79.58 163.71,-81.41 148.02,-83.06"/>
<polygon fill="#63b8ff" stroke="#63b8ff" points="198.41,-81.26 207.98,-76.73 197.67,-74.3 198.41,-81.26"/>
</a>
</g>
</g>
<!-- Node4 -->
<g id="Node000004" class="node">
<title>Node4</title>
<g id="a_Node000004"><a xlink:href="../../d1/db9/classAudioEqualizer.html#a53b3705e78894c1779060067e9c5b1e3" target="_top" xlink:title="Reset equalizer to default settings.">
<polygon fill="white" stroke="#666666" points="172,-56 0,-56 0,-37 172,-37 172,-56"/>
<text text-anchor="middle" x="86" y="-44" font-family="Helvetica,sans-Serif" font-size="10.00">AudioEqualizer::resetToDefaults</text>
</a>
</g>
</g>
<!-- Node1&#45;&gt;Node4 -->
<g id="edge3_Node000001_Node000004" class="edge">
<title>Node1&#45;&gt;Node4</title>
<g id="a_edge3_Node000001_Node000004"><a xlink:title=" ">
<path fill="none" stroke="#63b8ff" d="M197.96,-57.68C189.39,-56.81 180.75,-55.94 172.29,-55.09"/>
<polygon fill="#63b8ff" stroke="#63b8ff" points="197.68,-61.17 207.98,-58.69 198.38,-54.2 197.68,-61.17"/>
</a>
</g>
</g>
<!-- Node5 -->
<g id="Node000005" class="node">
<title>Node5</title>
<g id="a_Node000005"><a xlink:href="../../d1/db9/classAudioEqualizer.html#af87e24d743ca713d55b1963039cce963" target="_top" xlink:title="Enable or disable the equalizer.">
<polygon fill="white" stroke="#666666" points="160.5,-19 11.5,-19 11.5,0 160.5,0 160.5,-19"/>
<text text-anchor="middle" x="86" y="-7" font-family="Helvetica,sans-Serif" font-size="10.00">AudioEqualizer::setEnabled</text>
</a>
</g>
</g>
<!-- Node1&#45;&gt;Node5 -->
<g id="edge4_Node000001_Node000005" class="edge">
<title>Node1&#45;&gt;Node5</title>
<g id="a_edge4_Node000001_Node000005"><a xlink:title=" ">
<path fill="none" stroke="#63b8ff" d="M258.17,-54.79C233.8,-46.72 201.2,-36.36 172,-28.5 159.44,-25.12 145.73,-21.87 133.05,-19.04"/>
<polygon fill="#63b8ff" stroke="#63b8ff" points="257.15,-58.14 267.74,-57.98 259.36,-51.5 257.15,-58.14"/>
</a>
</g>
</g>
</g>
</svg>
