<?xml version="1.0" encoding="UTF-8" standalone="no"?>
<!DOCTYPE svg PUBLIC "-//W3C//DTD SVG 1.1//EN"
 "http://www.w3.org/Graphics/SVG/1.1/DTD/svg11.dtd">
<!-- Generated by graphviz version 2.43.0 (0)
 -->
<!-- Title: AudioEqualizer::saveSettings Pages: 1 -->
<svg width="557pt" height="27pt"
 viewBox="0.00 0.00 557.00 27.00" xmlns="http://www.w3.org/2000/svg" xmlns:xlink="http://www.w3.org/1999/xlink">
<g id="graph0" class="graph" transform="scale(1 1) rotate(0) translate(4 23)">
<title>AudioEqualizer::saveSettings</title>
<!-- Node1 -->
<g id="Node000001" class="node">
<title>Node1</title>
<g id="a_Node000001"><a xlink:title="Save current equalizer settings.">
<polygon fill="#999999" stroke="#666666" points="549,-19 391,-19 391,0 549,0 549,-19"/>
<text text-anchor="middle" x="470" y="-7" font-family="Helvetica,sans-Serif" font-size="10.00">AudioEqualizer::saveSettings</text>
</a>
</g>
</g>
<!-- Node2 -->
<g id="Node000002" class="node">
<title>Node2</title>
<g id="a_Node000002"><a xlink:href="../../d1/db9/classAudioEqualizer.html#a77f81ee37f51e7c853009bed71ff1fc2" target="_top" xlink:title="Shutdown the equalizer.">
<polygon fill="white" stroke="#666666" points="355,-19 212,-19 212,0 355,0 355,-19"/>
<text text-anchor="middle" x="283.5" y="-7" font-family="Helvetica,sans-Serif" font-size="10.00">AudioEqualizer::shutdown</text>
</a>
</g>
</g>
<!-- Node1&#45;&gt;Node2 -->
<g id="edge1_Node000001_Node000002" class="edge">
<title>Node1&#45;&gt;Node2</title>
<g id="a_edge1_Node000001_Node000002"><a xlink:title=" ">
<path fill="none" stroke="#63b8ff" d="M380.75,-9.5C372.2,-9.5 363.6,-9.5 355.26,-9.5"/>
<polygon fill="#63b8ff" stroke="#63b8ff" points="380.76,-13 390.76,-9.5 380.76,-6 380.76,-13"/>
</a>
</g>
</g>
<!-- Node3 -->
<g id="Node000003" class="node">
<title>Node3</title>
<g id="a_Node000003"><a xlink:href="../../d1/db9/classAudioEqualizer.html#acda143151aa2008dc96df0afa49f7e67" target="_top" xlink:title=" ">
<polygon fill="white" stroke="#666666" points="176,-19 0,-19 0,0 176,0 176,-19"/>
<text text-anchor="middle" x="88" y="-7" font-family="Helvetica,sans-Serif" font-size="10.00">AudioEqualizer::~AudioEqualizer</text>
</a>
</g>
</g>
<!-- Node2&#45;&gt;Node3 -->
<g id="edge2_Node000002_Node000003" class="edge">
<title>Node2&#45;&gt;Node3</title>
<g id="a_edge2_Node000002_Node000003"><a xlink:title=" ">
<path fill="none" stroke="#63b8ff" d="M201.69,-9.5C193.3,-9.5 184.74,-9.5 176.29,-9.5"/>
<polygon fill="#63b8ff" stroke="#63b8ff" points="201.82,-13 211.82,-9.5 201.82,-6 201.82,-13"/>
</a>
</g>
</g>
</g>
</svg>
