<?xml version="1.0" encoding="UTF-8" standalone="no"?>
<!DOCTYPE svg PUBLIC "-//W3C//DTD SVG 1.1//EN"
 "http://www.w3.org/Graphics/SVG/1.1/DTD/svg11.dtd">
<!-- Generated by graphviz version 2.43.0 (0)
 -->
<!-- Title: AudioEqualizer::setBandGain Pages: 1 -->
<svg width="371pt" height="76pt"
 viewBox="0.00 0.00 371.00 75.50" xmlns="http://www.w3.org/2000/svg" xmlns:xlink="http://www.w3.org/1999/xlink">
<g id="graph0" class="graph" transform="scale(1 1) rotate(0) translate(4 71.5)">
<title>AudioEqualizer::setBandGain</title>
<!-- Node1 -->
<g id="Node000001" class="node">
<title>Node1</title>
<g id="a_Node000001"><a xlink:title="Set equalizer band gain.">
<polygon fill="#999999" stroke="#666666" points="158,-40 0,-40 0,-21 158,-21 158,-40"/>
<text text-anchor="middle" x="79" y="-28" font-family="Helvetica,sans-Serif" font-size="10.00">AudioEqualizer::setBandGain</text>
</a>
</g>
</g>
<!-- Node2 -->
<g id="Node000002" class="node">
<title>Node2</title>
<g id="a_Node000002"><a xlink:href="../../d1/db9/classAudioEqualizer.html#aa74eed06fe12bea90e9870ab3e0b9057" target="_top" xlink:title="Emitted when a band gain changes.">
<polygon fill="white" stroke="#666666" points="349.5,-67.5 207.5,-67.5 207.5,-37.5 349.5,-37.5 349.5,-67.5"/>
<text text-anchor="start" x="215.5" y="-55.5" font-family="Helvetica,sans-Serif" font-size="10.00">AudioEqualizer::bandGain</text>
<text text-anchor="middle" x="278.5" y="-44.5" font-family="Helvetica,sans-Serif" font-size="10.00">Changed</text>
</a>
</g>
</g>
<!-- Node1&#45;&gt;Node2 -->
<g id="edge1_Node000001_Node000002" class="edge">
<title>Node1&#45;&gt;Node2</title>
<g id="a_edge1_Node000001_Node000002"><a xlink:title=" ">
<path fill="none" stroke="#63b8ff" d="M158.06,-39.19C170.9,-40.63 184.24,-42.11 197.14,-43.55"/>
<polygon fill="#63b8ff" stroke="#63b8ff" points="197.05,-47.06 207.38,-44.69 197.83,-40.1 197.05,-47.06"/>
</a>
</g>
</g>
<!-- Node3 -->
<g id="Node000003" class="node">
<title>Node3</title>
<g id="a_Node000003"><a xlink:href="../../d1/db9/classAudioEqualizer.html#af60730b36b8f47173835619d2e9d224f" target="_top" xlink:title="Emitted when preset changes.">
<polygon fill="white" stroke="#666666" points="363,-19 194,-19 194,0 363,0 363,-19"/>
<text text-anchor="middle" x="278.5" y="-7" font-family="Helvetica,sans-Serif" font-size="10.00">AudioEqualizer::presetChanged</text>
</a>
</g>
</g>
<!-- Node1&#45;&gt;Node3 -->
<g id="edge2_Node000001_Node000003" class="edge">
<title>Node1&#45;&gt;Node3</title>
<g id="a_edge2_Node000001_Node000003"><a xlink:title=" ">
<path fill="none" stroke="#63b8ff" d="M158.06,-22.2C166.5,-21.3 175.16,-20.38 183.77,-19.47"/>
<polygon fill="#63b8ff" stroke="#63b8ff" points="184.26,-22.93 193.84,-18.4 183.52,-15.97 184.26,-22.93"/>
</a>
</g>
</g>
</g>
</svg>
