<?xml version="1.0" encoding="UTF-8" standalone="no"?>
<!DOCTYPE svg PUBLIC "-//W3C//DTD SVG 1.1//EN"
 "http://www.w3.org/Graphics/SVG/1.1/DTD/svg11.dtd">
<!-- Generated by graphviz version 2.43.0 (0)
 -->
<!-- Title: FileUrlSupport::openFiles Pages: 1 -->
<!--zoomable 364 -->

<svg id="main" version="1.1" xmlns="http://www.w3.org/2000/svg" xmlns:xlink="http://www.w3.org/1999/xlink" xml:space="preserve" onload="init(evt)">
<style type="text/css"><![CDATA[
.node, .edge {opacity: 0.7;}
.node.selected, .edge.selected {opacity: 1;}
.edge:hover path { stroke: red; }
.edge:hover polygon { stroke: red; fill: red; }
]]></style>

<defs>
  <circle id="rim" cx="0" cy="0" r="7"/>
  <circle id="rim2" cx="0" cy="0" r="3.5"/>
  <g id="zoomPlus">
    <use xlink:href="#rim" fill="#404040"><set attributeName="fill" to="#808080" begin="zoomplus.mouseover" end="zoomplus.mouseout"/></use>
    <path d="M-4,0h8M0,-4v8" fill="none" stroke="white" stroke-width="1.5" pointer-events="none"/>
  </g>
  <g id="zoomMin">
    <use xlink:href="#rim" fill="#404040"><set attributeName="fill" to="#808080" begin="zoomminus.mouseover" end="zoomminus.mouseout"/></use>
    <path d="M-4,0h8" fill="none" stroke="white" stroke-width="1.5" pointer-events="none"/>
  </g>
  <g id="arrowUp" transform="translate(30 24)">
    <use xlink:href="#rim"/>
    <path pointer-events="none" fill="none" stroke="white" stroke-width="1.5" d="M0,-3.0v7 M-2.5,-0.5L0,-3.0L2.5,-0.5"/>
  </g>
  <g id="arrowRight" transform="rotate(90) translate(36 -43)">
    <use xlink:href="#rim"/>
    <path pointer-events="none" fill="none" stroke="white" stroke-width="1.5" d="M0,-3.0v7 M-2.5,-0.5L0,-3.0L2.5,-0.5"/>
  </g>
  <g id="arrowDown" transform="rotate(180) translate(-30 -48)">
    <use xlink:href="#rim"/>
    <path pointer-events="none" fill="none" stroke="white" stroke-width="1.5" d="M0,-3.0v7 M-2.5,-0.5L0,-3.0L2.5,-0.5"/>
  </g>
  <g id="arrowLeft" transform="rotate(270) translate(-36 17)">
    <use xlink:href="#rim"/>
    <path pointer-events="none" fill="none" stroke="white" stroke-width="1.5" d="M0,-3.0v7 M-2.5,-0.5L0,-3.0L2.5,-0.5"/>
  </g>
  <g id="resetDef">
    <use xlink:href="#rim2" fill="#404040"><set attributeName="fill" to="#808080" begin="reset.mouseover" end="reset.mouseout"/></use>
  </g>
</defs>
<script type="application/ecmascript">
var viewWidth = 553;
var viewHeight = 364;
var sectionId = 'dynsection-22';
</script>
<script type="application/ecmascript" xlink:href="../../svg.min.js"/>
<svg id="graph" class="graph">
<g id="viewport">
<title>FileUrlSupport::openFiles</title>
<!-- Node1 -->
<g id="Node000001" class="node">
<title>Node1</title>
<g id="a_Node000001"><a xlink:title="Handle multiple files open request.">
<polygon fill="#999999" stroke="#666666" points="138,-192.5 0,-192.5 0,-173.5 138,-173.5 138,-192.5"/>
<text text-anchor="middle" x="69" y="-180.5" font-family="Helvetica,sans-Serif" font-size="10.00">FileUrlSupport::openFiles</text>
</a>
</g>
</g>
<!-- Node2 -->
<g id="Node000002" class="node">
<title>Node2</title>
<g id="a_Node000002"><a xlink:href="../../d8/d04/classFileUrlSupport.html#a37b71fc93757ef83b9d21774b6253675" target="_top" xlink:title="Load media file with validation and auto subtitle detection.">
<polygon fill="white" stroke="#666666" points="334,-192.5 174,-192.5 174,-173.5 334,-173.5 334,-192.5"/>
<text text-anchor="middle" x="254" y="-180.5" font-family="Helvetica,sans-Serif" font-size="10.00">FileUrlSupport::loadMediaFile</text>
</a>
</g>
</g>
<!-- Node1&#45;&gt;Node2 -->
<g id="edge1_Node000001_Node000002" class="edge">
<title>Node1&#45;&gt;Node2</title>
<g id="a_edge1_Node000001_Node000002"><a xlink:title=" ">
<path fill="none" stroke="#63b8ff" d="M138.14,-183C146.47,-183 155.07,-183 163.65,-183"/>
<polygon fill="#63b8ff" stroke="#63b8ff" points="163.69,-186.5 173.69,-183 163.69,-179.5 163.69,-186.5"/>
</a>
</g>
</g>
<!-- Node3 -->
<g id="Node000003" class="node">
<title>Node3</title>
<g id="a_Node000003"><a xlink:href="../../d8/d04/classFileUrlSupport.html#ac91a76d40860e8f1616a0f108c158368" target="_top" xlink:title="Auto&#45;detect and load subtitle files for media.">
<polygon fill="white" stroke="#666666" points="530.5,-356 384.5,-356 384.5,-326 530.5,-326 530.5,-356"/>
<text text-anchor="start" x="392.5" y="-344" font-family="Helvetica,sans-Serif" font-size="10.00">FileUrlSupport::autoDetect</text>
<text text-anchor="middle" x="457.5" y="-333" font-family="Helvetica,sans-Serif" font-size="10.00">Subtitles</text>
</a>
</g>
</g>
<!-- Node2&#45;&gt;Node3 -->
<g id="edge2_Node000002_Node000003" class="edge">
<title>Node2&#45;&gt;Node3</title>
<g id="a_edge2_Node000002_Node000003"><a xlink:title=" ">
<path fill="none" stroke="#63b8ff" d="M260.56,-192.82C275.12,-217.64 316.96,-283.29 370,-317 372.61,-318.66 375.34,-320.21 378.15,-321.65"/>
<polygon fill="#63b8ff" stroke="#63b8ff" points="376.81,-324.89 387.36,-325.9 379.75,-318.53 376.81,-324.89"/>
</a>
</g>
</g>
<!-- Node4 -->
<g id="Node000004" class="node">
<title>Node4</title>
<g id="a_Node000004"><a xlink:href="../../d8/d04/classFileUrlSupport.html#a7273912ab01714993422b33594c560e1" target="_top" xlink:title="Extract detailed media information.">
<polygon fill="white" stroke="#666666" points="545,-307.5 370,-307.5 370,-288.5 545,-288.5 545,-307.5"/>
<text text-anchor="middle" x="457.5" y="-295.5" font-family="Helvetica,sans-Serif" font-size="10.00">FileUrlSupport::extractMediaInfo</text>
</a>
</g>
</g>
<!-- Node2&#45;&gt;Node4 -->
<g id="edge3_Node000002_Node000004" class="edge">
<title>Node2&#45;&gt;Node4</title>
<g id="a_edge3_Node000002_Node000004"><a xlink:title=" ">
<path fill="none" stroke="#63b8ff" d="M263.45,-192.65C281.14,-212.21 324.23,-256.56 370,-279 374.92,-281.41 380.14,-283.52 385.49,-285.36"/>
<polygon fill="#63b8ff" stroke="#63b8ff" points="384.63,-288.76 395.22,-288.4 386.72,-282.08 384.63,-288.76"/>
</a>
</g>
</g>
<!-- Node5 -->
<g id="Node000005" class="node">
<title>Node5</title>
<g id="a_Node000005"><a xlink:href="../../d8/d04/classFileUrlSupport.html#af7ab89ece6edc9a56fb22a70b8b3a860" target="_top" xlink:title="Emitted when file validation fails.">
<polygon fill="white" stroke="#666666" points="535,-270 380,-270 380,-240 535,-240 535,-270"/>
<text text-anchor="start" x="388" y="-258" font-family="Helvetica,sans-Serif" font-size="10.00">FileUrlSupport::fileValidation</text>
<text text-anchor="middle" x="457.5" y="-247" font-family="Helvetica,sans-Serif" font-size="10.00">Failed</text>
</a>
</g>
</g>
<!-- Node2&#45;&gt;Node5 -->
<g id="edge4_Node000002_Node000005" class="edge">
<title>Node2&#45;&gt;Node5</title>
<g id="a_edge4_Node000002_Node000005"><a xlink:title=" ">
<path fill="none" stroke="#63b8ff" d="M275.89,-192.65C298.7,-202.96 336.47,-219.4 370,-231 375.99,-233.07 382.27,-235.09 388.58,-237.03"/>
<polygon fill="#63b8ff" stroke="#63b8ff" points="387.91,-240.48 398.5,-239.98 389.91,-233.77 387.91,-240.48"/>
</a>
</g>
</g>
<!-- Node6 -->
<g id="Node000006" class="node">
<title>Node6</title>
<g id="a_Node000006"><a xlink:href="../../d8/d04/classFileUrlSupport.html#a65e03800e733f1147529109a2e1cc61b" target="_top" xlink:title="Get detailed validation error message.">
<polygon fill="white" stroke="#666666" points="535.5,-222 379.5,-222 379.5,-192 535.5,-192 535.5,-222"/>
<text text-anchor="start" x="387.5" y="-210" font-family="Helvetica,sans-Serif" font-size="10.00">FileUrlSupport::getValidation</text>
<text text-anchor="middle" x="457.5" y="-199" font-family="Helvetica,sans-Serif" font-size="10.00">ErrorMessage</text>
</a>
</g>
</g>
<!-- Node2&#45;&gt;Node6 -->
<g id="edge5_Node000002_Node000006" class="edge">
<title>Node2&#45;&gt;Node6</title>
<g id="a_edge5_Node000002_Node000006"><a xlink:title=" ">
<path fill="none" stroke="#63b8ff" d="M334.06,-192.42C345.57,-193.79 357.48,-195.21 369.15,-196.6"/>
<polygon fill="#63b8ff" stroke="#63b8ff" points="368.97,-200.1 379.32,-197.81 369.8,-193.15 368.97,-200.1"/>
</a>
</g>
</g>
<!-- Node7 -->
<g id="Node000007" class="node">
<title>Node7</title>
<g id="a_Node000007"><a xlink:href="../../d8/d04/classFileUrlSupport.html#ad7738c4718eeaa38962f9602ddc8dd2d" target="_top" xlink:title="Emitted when media file is successfully loaded.">
<polygon fill="white" stroke="#666666" points="527.5,-174 387.5,-174 387.5,-144 527.5,-144 527.5,-174"/>
<text text-anchor="start" x="395.5" y="-162" font-family="Helvetica,sans-Serif" font-size="10.00">FileUrlSupport::mediaFile</text>
<text text-anchor="middle" x="457.5" y="-151" font-family="Helvetica,sans-Serif" font-size="10.00">Loaded</text>
</a>
</g>
</g>
<!-- Node2&#45;&gt;Node7 -->
<g id="edge6_Node000002_Node000007" class="edge">
<title>Node2&#45;&gt;Node7</title>
<g id="a_edge6_Node000002_Node000007"><a xlink:title=" ">
<path fill="none" stroke="#63b8ff" d="M334.06,-173.58C348.26,-171.89 363.05,-170.13 377.25,-168.44"/>
<polygon fill="#63b8ff" stroke="#63b8ff" points="377.96,-171.88 387.47,-167.22 377.13,-164.93 377.96,-171.88"/>
</a>
</g>
</g>
<!-- Node8 -->
<g id="Node000008" class="node">
<title>Node8</title>
<g id="a_Node000008"><a xlink:href="../../d8/d04/classFileUrlSupport.html#acfbeabc31481ea545f51901ac09ba91f" target="_top" xlink:title="Emitted when media information is extracted.">
<polygon fill="white" stroke="#666666" points="528,-126 387,-126 387,-96 528,-96 528,-126"/>
<text text-anchor="start" x="395" y="-114" font-family="Helvetica,sans-Serif" font-size="10.00">FileUrlSupport::mediaInfo</text>
<text text-anchor="middle" x="457.5" y="-103" font-family="Helvetica,sans-Serif" font-size="10.00">Extracted</text>
</a>
</g>
</g>
<!-- Node2&#45;&gt;Node8 -->
<g id="edge7_Node000002_Node000008" class="edge">
<title>Node2&#45;&gt;Node8</title>
<g id="a_edge7_Node000002_Node000008"><a xlink:title=" ">
<path fill="none" stroke="#63b8ff" d="M275.89,-173.35C298.7,-163.04 336.47,-146.6 370,-135 375.99,-132.93 382.27,-130.91 388.58,-128.97"/>
<polygon fill="#63b8ff" stroke="#63b8ff" points="389.91,-132.23 398.5,-126.02 387.91,-125.52 389.91,-132.23"/>
</a>
</g>
</g>
<!-- Node9 -->
<g id="Node000009" class="node">
<title>Node9</title>
<g id="a_Node000009"><a xlink:href="../../d8/d04/classFileUrlSupport.html#a980075a524997ae18169a318a803577b" target="_top" xlink:title="Emitted when subtitles are auto&#45;detected.">
<polygon fill="white" stroke="#666666" points="524.5,-78 390.5,-78 390.5,-48 524.5,-48 524.5,-78"/>
<text text-anchor="start" x="398.5" y="-66" font-family="Helvetica,sans-Serif" font-size="10.00">FileUrlSupport::subtitles</text>
<text text-anchor="middle" x="457.5" y="-55" font-family="Helvetica,sans-Serif" font-size="10.00">Detected</text>
</a>
</g>
</g>
<!-- Node2&#45;&gt;Node9 -->
<g id="edge8_Node000002_Node000009" class="edge">
<title>Node2&#45;&gt;Node9</title>
<g id="a_edge8_Node000002_Node000009"><a xlink:title=" ">
<path fill="none" stroke="#63b8ff" d="M263.83,-173.26C281.87,-153.93 325.09,-110.56 370,-87 373.55,-85.14 377.25,-83.41 381.05,-81.8"/>
<polygon fill="#63b8ff" stroke="#63b8ff" points="382.6,-84.96 390.65,-78.07 380.06,-78.44 382.6,-84.96"/>
</a>
</g>
</g>
<!-- Node10 -->
<g id="Node000010" class="node">
<title>Node10</title>
<g id="a_Node000010"><a xlink:href="../../d8/d04/classFileUrlSupport.html#a5b172a8b83c71af482d59c49abbb6508" target="_top" xlink:title="Validate media file format and accessibility.">
<polygon fill="white" stroke="#666666" points="523,-30 392,-30 392,0 523,0 523,-30"/>
<text text-anchor="start" x="400" y="-18" font-family="Helvetica,sans-Serif" font-size="10.00">FileUrlSupport::validate</text>
<text text-anchor="middle" x="457.5" y="-7" font-family="Helvetica,sans-Serif" font-size="10.00">MediaFile</text>
</a>
</g>
</g>
<!-- Node2&#45;&gt;Node10 -->
<g id="edge9_Node000002_Node000010" class="edge">
<title>Node2&#45;&gt;Node10</title>
<g id="a_edge9_Node000002_Node000010"><a xlink:title=" ">
<path fill="none" stroke="#63b8ff" d="M259.95,-173.2C273.66,-147.12 314.74,-75.5 370,-39 373.83,-36.47 377.93,-34.2 382.18,-32.17"/>
<polygon fill="#63b8ff" stroke="#63b8ff" points="383.88,-35.25 391.69,-28.09 381.12,-28.82 383.88,-35.25"/>
</a>
</g>
</g>
</g>
</svg>

<g id="navigator" transform="translate(0 0)" fill="#404254">
  <rect fill="#f2f5e9" fill-opacity="0.5" stroke="#606060" stroke-width=".5" x="0" y="0" width="60" height="60"/>
  <use id="zoomplus" xlink:href="#zoomPlus" x="17" y="9" onmousedown="handleZoom(evt,'in')"/>
  <use id="zoomminus" xlink:href="#zoomMin" x="42" y="9" onmousedown="handleZoom(evt,'out')"/>
  <use id="reset" xlink:href="#resetDef" x="30" y="36" onmousedown="handleReset()"/>
   <use id="arrowup" xlink:href="#arrowUp" x="0" y="0" onmousedown="handlePan(0,-1)"/>
  <use id="arrowright" xlink:href="#arrowRight" x="0" y="0" onmousedown="handlePan(1,0)"/>
  <use id="arrowdown" xlink:href="#arrowDown" x="0" y="0" onmousedown="handlePan(0,1)"/>
  <use id="arrowleft" xlink:href="#arrowLeft" x="0" y="0" onmousedown="handlePan(-1,0)"/>
</g>
<svg viewBox="0 0 15 15" width="100%" height="30px" preserveAspectRatio="xMaxYMin meet">
 <g id="arrow_out" transform="scale(0.3 0.3)">
  <a xlink:href="classFileUrlSupport_a8293ec6df26878b99baf15ee65139e3e_cgraph_org.svg" target="_base">
   <rect id="button" ry="5" rx="5" y="6" x="6" height="38" width="38"
        fill="#f2f5e9" fill-opacity="0.5" stroke="#606060" stroke-width="1.0"/>
   <path id="arrow"
     d="M 11.500037,31.436501 C 11.940474,20.09759 22.043105,11.32322 32.158766,21.979434 L 37.068811,17.246167 C 37.068811,17.246167 37.088388,32 37.088388,32 L 22.160133,31.978069 C 22.160133,31.978069 26.997745,27.140456 26.997745,27.140456 C 18.528582,18.264221 13.291696,25.230495 11.500037,31.436501 z"
     style="fill:#404040;"/>
  </a>
 </g>
</svg>

<style type='text/css'>
<![CDATA[
[data-mouse-over-selected='false'] { opacity: 0.7; }
[data-mouse-over-selected='true']  { opacity: 1.0; }
]]>
</style>
<script type="application/ecmascript"><![CDATA[
document.addEventListener('DOMContentLoaded', (event) => {
  highlightEdges();
  highlightAdjacentNodes();
});
]]></script>
</svg>
