<?xml version="1.0" encoding="UTF-8" standalone="no"?>
<!DOCTYPE svg PUBLIC "-//W3C//DTD SVG 1.1//EN"
 "http://www.w3.org/Graphics/SVG/1.1/DTD/svg11.dtd">
<!-- Generated by graphviz version 2.43.0 (0)
 -->
<!-- Title: FileUrlSupport::loadMediaUrl Pages: 1 -->
<svg width="585pt" height="364pt"
 viewBox="0.00 0.00 585.00 364.00" xmlns="http://www.w3.org/2000/svg" xmlns:xlink="http://www.w3.org/1999/xlink">
<g id="graph0" class="graph" transform="scale(1 1) rotate(0) translate(4 360)">
<title>FileUrlSupport::loadMediaUrl</title>
<!-- Node1 -->
<g id="Node000001" class="node">
<title>Node1</title>
<g id="a_Node000001"><a xlink:title="Load media from URL or stream.">
<polygon fill="#999999" stroke="#666666" points="157,-170.5 0,-170.5 0,-151.5 157,-151.5 157,-170.5"/>
<text text-anchor="middle" x="78.5" y="-158.5" font-family="Helvetica,sans-Serif" font-size="10.00">FileUrlSupport::loadMediaUrl</text>
</a>
</g>
</g>
<!-- Node2 -->
<g id="Node000002" class="node">
<title>Node2</title>
<g id="a_Node000002"><a xlink:href="../../d8/d04/classFileUrlSupport.html#a3df7473233455bcf79dac20b4f1d28c9" target="_top" xlink:title="Check if URL is a local file.">
<polygon fill="white" stroke="#666666" points="358,-266.5 201,-266.5 201,-247.5 358,-247.5 358,-266.5"/>
<text text-anchor="middle" x="279.5" y="-254.5" font-family="Helvetica,sans-Serif" font-size="10.00">FileUrlSupport::isLocalFileUrl</text>
</a>
</g>
</g>
<!-- Node1&#45;&gt;Node2 -->
<g id="edge1_Node000001_Node000002" class="edge">
<title>Node1&#45;&gt;Node2</title>
<g id="a_edge1_Node000001_Node000002"><a xlink:title=" ">
<path fill="none" stroke="#63b8ff" d="M90.22,-170.57C109.39,-187.17 151.46,-221.2 193,-239 197.97,-241.13 203.21,-243.01 208.55,-244.68"/>
<polygon fill="#63b8ff" stroke="#63b8ff" points="207.66,-248.07 218.24,-247.45 209.59,-241.34 207.66,-248.07"/>
</a>
</g>
</g>
<!-- Node3 -->
<g id="Node000003" class="node">
<title>Node3</title>
<g id="a_Node000003"><a xlink:href="../../d8/d04/classFileUrlSupport.html#adfa2738cd27f0ad1beecdaae4b8cf4b8" target="_top" xlink:title="Validate URL for streaming.">
<polygon fill="white" stroke="#666666" points="366,-229.5 193,-229.5 193,-210.5 366,-210.5 366,-229.5"/>
<text text-anchor="middle" x="279.5" y="-217.5" font-family="Helvetica,sans-Serif" font-size="10.00">FileUrlSupport::isValidStreamUrl</text>
</a>
</g>
</g>
<!-- Node1&#45;&gt;Node3 -->
<g id="edge2_Node000001_Node000003" class="edge">
<title>Node1&#45;&gt;Node3</title>
<g id="a_edge2_Node000001_Node000003"><a xlink:title=" ">
<path fill="none" stroke="#63b8ff" d="M103.1,-170.62C125.84,-179.62 161.36,-193 193,-202 200.97,-204.27 209.43,-206.39 217.81,-208.32"/>
<polygon fill="#63b8ff" stroke="#63b8ff" points="217.06,-211.73 227.58,-210.49 218.58,-204.9 217.06,-211.73"/>
</a>
</g>
</g>
<!-- Node4 -->
<g id="Node000004" class="node">
<title>Node4</title>
<g id="a_Node000004"><a xlink:href="../../d8/d04/classFileUrlSupport.html#a37b71fc93757ef83b9d21774b6253675" target="_top" xlink:title="Load media file with validation and auto subtitle detection.">
<polygon fill="white" stroke="#666666" points="359.5,-192.5 199.5,-192.5 199.5,-173.5 359.5,-173.5 359.5,-192.5"/>
<text text-anchor="middle" x="279.5" y="-180.5" font-family="Helvetica,sans-Serif" font-size="10.00">FileUrlSupport::loadMediaFile</text>
</a>
</g>
</g>
<!-- Node1&#45;&gt;Node4 -->
<g id="edge3_Node000001_Node000004" class="edge">
<title>Node1&#45;&gt;Node4</title>
<g id="a_edge3_Node000001_Node000004"><a xlink:title=" ">
<path fill="none" stroke="#63b8ff" d="M157.01,-169.57C167.51,-170.73 178.36,-171.93 189.05,-173.11"/>
<polygon fill="#63b8ff" stroke="#63b8ff" points="188.91,-176.62 199.24,-174.24 189.68,-169.66 188.91,-176.62"/>
</a>
</g>
</g>
<!-- Node13 -->
<g id="Node000013" class="node">
<title>Node13</title>
<g id="a_Node000013"><a xlink:href="../../d8/d04/classFileUrlSupport.html#a72c170b7e22a7be130a1e4f7c55015dc" target="_top" xlink:title="Emitted when media URL is successfully loaded.">
<polygon fill="white" stroke="#666666" points="348,-155 211,-155 211,-125 348,-125 348,-155"/>
<text text-anchor="start" x="219" y="-143" font-family="Helvetica,sans-Serif" font-size="10.00">FileUrlSupport::mediaUrl</text>
<text text-anchor="middle" x="279.5" y="-132" font-family="Helvetica,sans-Serif" font-size="10.00">Loaded</text>
</a>
</g>
</g>
<!-- Node1&#45;&gt;Node13 -->
<g id="edge12_Node000001_Node000013" class="edge">
<title>Node1&#45;&gt;Node13</title>
<g id="a_edge12_Node000001_Node000013"><a xlink:title=" ">
<path fill="none" stroke="#63b8ff" d="M157.01,-152.82C171.32,-151.31 186.28,-149.73 200.6,-148.22"/>
<polygon fill="#63b8ff" stroke="#63b8ff" points="201.33,-151.66 210.9,-147.13 200.59,-144.7 201.33,-151.66"/>
</a>
</g>
</g>
<!-- Node14 -->
<g id="Node000014" class="node">
<title>Node14</title>
<g id="a_Node000014"><a xlink:href="../../db/d09/structMediaInfo.html#a1d32d9c830bba685aa4c62e2017e065d" target="_top" xlink:title="Get formatted string representation.">
<polygon fill="white" stroke="#666666" points="334.5,-106.5 224.5,-106.5 224.5,-87.5 334.5,-87.5 334.5,-106.5"/>
<text text-anchor="middle" x="279.5" y="-94.5" font-family="Helvetica,sans-Serif" font-size="10.00">MediaInfo::toString</text>
</a>
</g>
</g>
<!-- Node1&#45;&gt;Node14 -->
<g id="edge13_Node000001_Node000014" class="edge">
<title>Node1&#45;&gt;Node14</title>
<g id="a_edge13_Node000001_Node000014"><a xlink:title=" ">
<path fill="none" stroke="#63b8ff" d="M100.89,-151.33C123.44,-141.43 160.17,-126.08 193,-116 201.45,-113.4 210.47,-111.01 219.36,-108.85"/>
<polygon fill="#63b8ff" stroke="#63b8ff" points="220.38,-112.21 229.32,-106.53 218.78,-105.4 220.38,-112.21"/>
</a>
</g>
</g>
<!-- Node15 -->
<g id="Node000015" class="node">
<title>Node15</title>
<g id="a_Node000015"><a xlink:href="../../d8/d04/classFileUrlSupport.html#aa0b5ff5500ed4fc180fa19facf4cac91" target="_top" xlink:title="Emitted when URL validation fails.">
<polygon fill="white" stroke="#666666" points="356,-69 203,-69 203,-39 356,-39 356,-69"/>
<text text-anchor="start" x="211" y="-57" font-family="Helvetica,sans-Serif" font-size="10.00">FileUrlSupport::urlValidation</text>
<text text-anchor="middle" x="279.5" y="-46" font-family="Helvetica,sans-Serif" font-size="10.00">Failed</text>
</a>
</g>
</g>
<!-- Node1&#45;&gt;Node15 -->
<g id="edge14_Node000001_Node000015" class="edge">
<title>Node1&#45;&gt;Node15</title>
<g id="a_edge14_Node000001_Node000015"><a xlink:title=" ">
<path fill="none" stroke="#63b8ff" d="M90.27,-151.24C109.53,-134.26 151.73,-99.19 193,-79 197.66,-76.72 202.56,-74.61 207.56,-72.66"/>
<polygon fill="#63b8ff" stroke="#63b8ff" points="209.08,-75.84 217.27,-69.12 206.68,-69.26 209.08,-75.84"/>
</a>
</g>
</g>
<!-- Node5 -->
<g id="Node000005" class="node">
<title>Node5</title>
<g id="a_Node000005"><a xlink:href="../../d8/d04/classFileUrlSupport.html#ac91a76d40860e8f1616a0f108c158368" target="_top" xlink:title="Auto&#45;detect and load subtitle files for media.">
<polygon fill="white" stroke="#666666" points="562.5,-356 416.5,-356 416.5,-326 562.5,-326 562.5,-356"/>
<text text-anchor="start" x="424.5" y="-344" font-family="Helvetica,sans-Serif" font-size="10.00">FileUrlSupport::autoDetect</text>
<text text-anchor="middle" x="489.5" y="-333" font-family="Helvetica,sans-Serif" font-size="10.00">Subtitles</text>
</a>
</g>
</g>
<!-- Node4&#45;&gt;Node5 -->
<g id="edge4_Node000004_Node000005" class="edge">
<title>Node4&#45;&gt;Node5</title>
<g id="a_edge4_Node000004_Node000005"><a xlink:title=" ">
<path fill="none" stroke="#63b8ff" d="M352.06,-192.57C357.13,-195.09 361.86,-198.19 366,-202 405.44,-238.23 363.51,-279.75 402,-317 403.86,-318.8 405.85,-320.47 407.93,-322.02"/>
<polygon fill="#63b8ff" stroke="#63b8ff" points="406.09,-324.99 416.41,-327.39 409.84,-319.08 406.09,-324.99"/>
</a>
</g>
</g>
<!-- Node6 -->
<g id="Node000006" class="node">
<title>Node6</title>
<g id="a_Node000006"><a xlink:href="../../d8/d04/classFileUrlSupport.html#a7273912ab01714993422b33594c560e1" target="_top" xlink:title="Extract detailed media information.">
<polygon fill="white" stroke="#666666" points="577,-307.5 402,-307.5 402,-288.5 577,-288.5 577,-307.5"/>
<text text-anchor="middle" x="489.5" y="-295.5" font-family="Helvetica,sans-Serif" font-size="10.00">FileUrlSupport::extractMediaInfo</text>
</a>
</g>
</g>
<!-- Node4&#45;&gt;Node6 -->
<g id="edge5_Node000004_Node000006" class="edge">
<title>Node4&#45;&gt;Node6</title>
<g id="a_edge5_Node000004_Node000006"><a xlink:title=" ">
<path fill="none" stroke="#63b8ff" d="M350.26,-192.62C355.91,-195.11 361.26,-198.19 366,-202 395.47,-225.64 372.5,-255.4 402,-279 404.1,-280.68 406.32,-282.22 408.63,-283.63"/>
<polygon fill="#63b8ff" stroke="#63b8ff" points="407.44,-286.96 417.93,-288.45 410.66,-280.74 407.44,-286.96"/>
</a>
</g>
</g>
<!-- Node7 -->
<g id="Node000007" class="node">
<title>Node7</title>
<g id="a_Node000007"><a xlink:href="../../d8/d04/classFileUrlSupport.html#af7ab89ece6edc9a56fb22a70b8b3a860" target="_top" xlink:title="Emitted when file validation fails.">
<polygon fill="white" stroke="#666666" points="567,-270 412,-270 412,-240 567,-240 567,-270"/>
<text text-anchor="start" x="420" y="-258" font-family="Helvetica,sans-Serif" font-size="10.00">FileUrlSupport::fileValidation</text>
<text text-anchor="middle" x="489.5" y="-247" font-family="Helvetica,sans-Serif" font-size="10.00">Failed</text>
</a>
</g>
</g>
<!-- Node4&#45;&gt;Node7 -->
<g id="edge6_Node000004_Node000007" class="edge">
<title>Node4&#45;&gt;Node7</title>
<g id="a_edge6_Node000004_Node000007"><a xlink:title=" ">
<path fill="none" stroke="#63b8ff" d="M340.11,-192.53C349.02,-195 357.92,-198.11 366,-202 384.51,-210.91 383.72,-221.61 402,-231 405.74,-232.92 409.66,-234.71 413.67,-236.36"/>
<polygon fill="#63b8ff" stroke="#63b8ff" points="412.57,-239.69 423.16,-239.98 415.07,-233.15 412.57,-239.69"/>
</a>
</g>
</g>
<!-- Node8 -->
<g id="Node000008" class="node">
<title>Node8</title>
<g id="a_Node000008"><a xlink:href="../../d8/d04/classFileUrlSupport.html#a65e03800e733f1147529109a2e1cc61b" target="_top" xlink:title="Get detailed validation error message.">
<polygon fill="white" stroke="#666666" points="567.5,-222 411.5,-222 411.5,-192 567.5,-192 567.5,-222"/>
<text text-anchor="start" x="419.5" y="-210" font-family="Helvetica,sans-Serif" font-size="10.00">FileUrlSupport::getValidation</text>
<text text-anchor="middle" x="489.5" y="-199" font-family="Helvetica,sans-Serif" font-size="10.00">ErrorMessage</text>
</a>
</g>
</g>
<!-- Node4&#45;&gt;Node8 -->
<g id="edge7_Node000004_Node000008" class="edge">
<title>Node4&#45;&gt;Node8</title>
<g id="a_edge7_Node000004_Node000008"><a xlink:title=" ">
<path fill="none" stroke="#63b8ff" d="M359.73,-192.14C373.31,-193.71 387.49,-195.34 401.26,-196.93"/>
<polygon fill="#63b8ff" stroke="#63b8ff" points="400.87,-200.41 411.21,-198.08 401.68,-193.46 400.87,-200.41"/>
</a>
</g>
</g>
<!-- Node9 -->
<g id="Node000009" class="node">
<title>Node9</title>
<g id="a_Node000009"><a xlink:href="../../d8/d04/classFileUrlSupport.html#ad7738c4718eeaa38962f9602ddc8dd2d" target="_top" xlink:title="Emitted when media file is successfully loaded.">
<polygon fill="white" stroke="#666666" points="559.5,-174 419.5,-174 419.5,-144 559.5,-144 559.5,-174"/>
<text text-anchor="start" x="427.5" y="-162" font-family="Helvetica,sans-Serif" font-size="10.00">FileUrlSupport::mediaFile</text>
<text text-anchor="middle" x="489.5" y="-151" font-family="Helvetica,sans-Serif" font-size="10.00">Loaded</text>
</a>
</g>
</g>
<!-- Node4&#45;&gt;Node9 -->
<g id="edge8_Node000004_Node000009" class="edge">
<title>Node4&#45;&gt;Node9</title>
<g id="a_edge8_Node000004_Node000009"><a xlink:title=" ">
<path fill="none" stroke="#63b8ff" d="M359.73,-173.86C375.99,-171.98 393.1,-170.01 409.36,-168.13"/>
<polygon fill="#63b8ff" stroke="#63b8ff" points="409.82,-171.6 419.35,-166.98 409.02,-164.65 409.82,-171.6"/>
</a>
</g>
</g>
<!-- Node10 -->
<g id="Node000010" class="node">
<title>Node10</title>
<g id="a_Node000010"><a xlink:href="../../d8/d04/classFileUrlSupport.html#acfbeabc31481ea545f51901ac09ba91f" target="_top" xlink:title="Emitted when media information is extracted.">
<polygon fill="white" stroke="#666666" points="560,-126 419,-126 419,-96 560,-96 560,-126"/>
<text text-anchor="start" x="427" y="-114" font-family="Helvetica,sans-Serif" font-size="10.00">FileUrlSupport::mediaInfo</text>
<text text-anchor="middle" x="489.5" y="-103" font-family="Helvetica,sans-Serif" font-size="10.00">Extracted</text>
</a>
</g>
</g>
<!-- Node4&#45;&gt;Node10 -->
<g id="edge9_Node000004_Node000010" class="edge">
<title>Node4&#45;&gt;Node10</title>
<g id="a_edge9_Node000004_Node000010"><a xlink:title=" ">
<path fill="none" stroke="#63b8ff" d="M340.11,-173.47C349.02,-171 357.92,-167.89 366,-164 384.51,-155.09 383.72,-144.39 402,-135 405.74,-133.08 409.66,-131.29 413.67,-129.64"/>
<polygon fill="#63b8ff" stroke="#63b8ff" points="415.07,-132.85 423.16,-126.02 412.57,-126.31 415.07,-132.85"/>
</a>
</g>
</g>
<!-- Node11 -->
<g id="Node000011" class="node">
<title>Node11</title>
<g id="a_Node000011"><a xlink:href="../../d8/d04/classFileUrlSupport.html#a980075a524997ae18169a318a803577b" target="_top" xlink:title="Emitted when subtitles are auto&#45;detected.">
<polygon fill="white" stroke="#666666" points="556.5,-78 422.5,-78 422.5,-48 556.5,-48 556.5,-78"/>
<text text-anchor="start" x="430.5" y="-66" font-family="Helvetica,sans-Serif" font-size="10.00">FileUrlSupport::subtitles</text>
<text text-anchor="middle" x="489.5" y="-55" font-family="Helvetica,sans-Serif" font-size="10.00">Detected</text>
</a>
</g>
</g>
<!-- Node4&#45;&gt;Node11 -->
<g id="edge10_Node000004_Node000011" class="edge">
<title>Node4&#45;&gt;Node11</title>
<g id="a_edge10_Node000004_Node000011"><a xlink:title=" ">
<path fill="none" stroke="#63b8ff" d="M350.26,-173.38C355.91,-170.89 361.26,-167.81 366,-164 395.47,-140.36 373.16,-111.4 402,-87 405.44,-84.09 409.21,-81.53 413.18,-79.28"/>
<polygon fill="#63b8ff" stroke="#63b8ff" points="414.76,-82.41 422.17,-74.84 411.65,-76.13 414.76,-82.41"/>
</a>
</g>
</g>
<!-- Node12 -->
<g id="Node000012" class="node">
<title>Node12</title>
<g id="a_Node000012"><a xlink:href="../../d8/d04/classFileUrlSupport.html#a5b172a8b83c71af482d59c49abbb6508" target="_top" xlink:title="Validate media file format and accessibility.">
<polygon fill="white" stroke="#666666" points="555,-30 424,-30 424,0 555,0 555,-30"/>
<text text-anchor="start" x="432" y="-18" font-family="Helvetica,sans-Serif" font-size="10.00">FileUrlSupport::validate</text>
<text text-anchor="middle" x="489.5" y="-7" font-family="Helvetica,sans-Serif" font-size="10.00">MediaFile</text>
</a>
</g>
</g>
<!-- Node4&#45;&gt;Node12 -->
<g id="edge11_Node000004_Node000012" class="edge">
<title>Node4&#45;&gt;Node12</title>
<g id="a_edge11_Node000004_Node000012"><a xlink:title=" ">
<path fill="none" stroke="#63b8ff" d="M352.57,-173.33C357.45,-170.82 362.01,-167.75 366,-164 408.12,-124.4 360.92,-79.68 402,-39 405.78,-35.26 410.09,-32.09 414.72,-29.4"/>
<polygon fill="#63b8ff" stroke="#63b8ff" points="416.56,-32.39 423.96,-24.81 413.45,-26.12 416.56,-32.39"/>
</a>
</g>
</g>
</g>
</svg>
