<?xml version="1.0" encoding="UTF-8" standalone="no"?>
<!DOCTYPE svg PUBLIC "-//W3C//DTD SVG 1.1//EN"
 "http://www.w3.org/Graphics/SVG/1.1/DTD/svg11.dtd">
<!-- Generated by graphviz version 2.43.0 (0)
 -->
<!-- Title: FileUrlSupport::extractMediaInfo Pages: 1 -->
<svg width="778pt" height="145pt"
 viewBox="0.00 0.00 778.00 145.00" xmlns="http://www.w3.org/2000/svg" xmlns:xlink="http://www.w3.org/1999/xlink">
<g id="graph0" class="graph" transform="scale(1 1) rotate(0) translate(4 141)">
<title>FileUrlSupport::extractMediaInfo</title>
<!-- Node1 -->
<g id="Node000001" class="node">
<title>Node1</title>
<g id="a_Node000001"><a xlink:title="Extract detailed media information.">
<polygon fill="#999999" stroke="#666666" points="770,-75 595,-75 595,-56 770,-56 770,-75"/>
<text text-anchor="middle" x="682.5" y="-63" font-family="Helvetica,sans-Serif" font-size="10.00">FileUrlSupport::extractMediaInfo</text>
</a>
</g>
</g>
<!-- Node2 -->
<g id="Node000002" class="node">
<title>Node2</title>
<g id="a_Node000002"><a xlink:href="../../d8/d04/classFileUrlSupport.html#a37b71fc93757ef83b9d21774b6253675" target="_top" xlink:title="Load media file with validation and auto subtitle detection.">
<polygon fill="white" stroke="#666666" points="559,-75 399,-75 399,-56 559,-56 559,-75"/>
<text text-anchor="middle" x="479" y="-63" font-family="Helvetica,sans-Serif" font-size="10.00">FileUrlSupport::loadMediaFile</text>
</a>
</g>
</g>
<!-- Node1&#45;&gt;Node2 -->
<g id="edge1_Node000001_Node000002" class="edge">
<title>Node1&#45;&gt;Node2</title>
<g id="a_edge1_Node000001_Node000002"><a xlink:title=" ">
<path fill="none" stroke="#63b8ff" d="M584.84,-65.5C576.26,-65.5 567.64,-65.5 559.23,-65.5"/>
<polygon fill="#63b8ff" stroke="#63b8ff" points="584.88,-69 594.88,-65.5 584.88,-62 584.88,-69"/>
</a>
</g>
</g>
<!-- Node3 -->
<g id="Node000003" class="node">
<title>Node3</title>
<g id="a_Node000003"><a xlink:href="../../d8/d04/classFileUrlSupport.html#ae40a5216c2e2f98b8a943086cc6852f6" target="_top" xlink:title="Load media from URL or stream.">
<polygon fill="white" stroke="#666666" points="363,-132 206,-132 206,-113 363,-113 363,-132"/>
<text text-anchor="middle" x="284.5" y="-120" font-family="Helvetica,sans-Serif" font-size="10.00">FileUrlSupport::loadMediaUrl</text>
</a>
</g>
</g>
<!-- Node2&#45;&gt;Node3 -->
<g id="edge2_Node000002_Node000003" class="edge">
<title>Node2&#45;&gt;Node3</title>
<g id="a_edge2_Node000002_Node000003"><a xlink:title=" ">
<path fill="none" stroke="#63b8ff" d="M436.17,-77.88C400.63,-88.41 350.34,-103.3 317.83,-112.93"/>
<polygon fill="#63b8ff" stroke="#63b8ff" points="437.19,-81.24 445.78,-75.04 435.2,-74.52 437.19,-81.24"/>
</a>
</g>
</g>
<!-- Node5 -->
<g id="Node000005" class="node">
<title>Node5</title>
<g id="a_Node000005"><a xlink:href="../../d8/d04/classFileUrlSupport.html#a778c1c9fa26afa5d85905bcd813a9dd8" target="_top" xlink:title="Process dropped files and URLs.">
<polygon fill="white" stroke="#666666" points="170,-99.5 0,-99.5 0,-69.5 170,-69.5 170,-99.5"/>
<text text-anchor="start" x="8" y="-87.5" font-family="Helvetica,sans-Serif" font-size="10.00">FileUrlSupport::processDropped</text>
<text text-anchor="middle" x="85" y="-76.5" font-family="Helvetica,sans-Serif" font-size="10.00">Media</text>
</a>
</g>
</g>
<!-- Node2&#45;&gt;Node5 -->
<g id="edge7_Node000002_Node000005" class="edge">
<title>Node2&#45;&gt;Node5</title>
<g id="a_edge7_Node000002_Node000005"><a xlink:title=" ">
<path fill="none" stroke="#63b8ff" d="M388.36,-69.84C322.83,-73.02 234.54,-77.3 170.29,-80.41"/>
<polygon fill="#63b8ff" stroke="#63b8ff" points="388.85,-73.33 398.67,-69.34 388.52,-66.33 388.85,-73.33"/>
</a>
</g>
</g>
<!-- Node6 -->
<g id="Node000006" class="node">
<title>Node6</title>
<g id="a_Node000006"><a xlink:href="../../d8/d04/classFileUrlSupport.html#a6878e3a41ccde6cf7d6092d93c1a421b" target="_top" xlink:title="Handle file open request.">
<polygon fill="white" stroke="#666666" points="351,-56 218,-56 218,-37 351,-37 351,-56"/>
<text text-anchor="middle" x="284.5" y="-44" font-family="Helvetica,sans-Serif" font-size="10.00">FileUrlSupport::openFile</text>
</a>
</g>
</g>
<!-- Node2&#45;&gt;Node6 -->
<g id="edge5_Node000002_Node000006" class="edge">
<title>Node2&#45;&gt;Node6</title>
<g id="a_edge5_Node000002_Node000006"><a xlink:title=" ">
<path fill="none" stroke="#63b8ff" d="M388.76,-56.69C376.09,-55.44 363.26,-54.17 351.15,-52.98"/>
<polygon fill="#63b8ff" stroke="#63b8ff" points="388.57,-60.19 398.87,-57.69 389.26,-53.22 388.57,-60.19"/>
</a>
</g>
</g>
<!-- Node7 -->
<g id="Node000007" class="node">
<title>Node7</title>
<g id="a_Node000007"><a xlink:href="../../d8/d04/classFileUrlSupport.html#a8293ec6df26878b99baf15ee65139e3e" target="_top" xlink:title="Handle multiple files open request.">
<polygon fill="white" stroke="#666666" points="353.5,-19 215.5,-19 215.5,0 353.5,0 353.5,-19"/>
<text text-anchor="middle" x="284.5" y="-7" font-family="Helvetica,sans-Serif" font-size="10.00">FileUrlSupport::openFiles</text>
</a>
</g>
</g>
<!-- Node2&#45;&gt;Node7 -->
<g id="edge6_Node000002_Node000007" class="edge">
<title>Node2&#45;&gt;Node7</title>
<g id="a_edge6_Node000002_Node000007"><a xlink:title=" ">
<path fill="none" stroke="#63b8ff" d="M441.77,-52.59C419.25,-44.8 389.63,-34.98 363,-27.5 352.36,-24.51 340.8,-21.64 329.94,-19.09"/>
<polygon fill="#63b8ff" stroke="#63b8ff" points="440.66,-55.91 451.26,-55.9 442.97,-49.3 440.66,-55.91"/>
</a>
</g>
</g>
<!-- Node4 -->
<g id="Node000004" class="node">
<title>Node4</title>
<g id="a_Node000004"><a xlink:href="../../d8/d04/classFileUrlSupport.html#a305f70beca6d625e0043d1798d25cfbb" target="_top" xlink:title="Handle URL open request.">
<polygon fill="white" stroke="#666666" points="150,-137 20,-137 20,-118 150,-118 150,-137"/>
<text text-anchor="middle" x="85" y="-125" font-family="Helvetica,sans-Serif" font-size="10.00">FileUrlSupport::openUrl</text>
</a>
</g>
</g>
<!-- Node3&#45;&gt;Node4 -->
<g id="edge3_Node000003_Node000004" class="edge">
<title>Node3&#45;&gt;Node4</title>
<g id="a_edge3_Node000003_Node000004"><a xlink:title=" ">
<path fill="none" stroke="#63b8ff" d="M195.69,-124.72C180.32,-125.11 164.59,-125.51 150.02,-125.88"/>
<polygon fill="#63b8ff" stroke="#63b8ff" points="195.82,-128.22 205.73,-124.47 195.64,-121.22 195.82,-128.22"/>
</a>
</g>
</g>
<!-- Node3&#45;&gt;Node5 -->
<g id="edge4_Node000003_Node000005" class="edge">
<title>Node3&#45;&gt;Node5</title>
<g id="a_edge4_Node000003_Node000005"><a xlink:title=" ">
<path fill="none" stroke="#63b8ff" d="M224,-111.05C205.15,-107.42 184.02,-103.36 164.07,-99.52"/>
<polygon fill="#63b8ff" stroke="#63b8ff" points="223.44,-114.51 233.92,-112.96 224.76,-107.63 223.44,-114.51"/>
</a>
</g>
</g>
</g>
</svg>
