<?xml version="1.0" encoding="UTF-8" standalone="no"?>
<!DOCTYPE svg PUBLIC "-//W3C//DTD SVG 1.1//EN"
 "http://www.w3.org/Graphics/SVG/1.1/DTD/svg11.dtd">
<!-- Generated by graphviz version 2.43.0 (0)
 -->
<!-- Title: FileUrlSupport::screenshotCaptureFailed Pages: 1 -->
<svg width="589pt" height="59pt"
 viewBox="0.00 0.00 589.00 59.00" xmlns="http://www.w3.org/2000/svg" xmlns:xlink="http://www.w3.org/1999/xlink">
<g id="graph0" class="graph" transform="scale(1 1) rotate(0) translate(4 55)">
<title>FileUrlSupport::screenshotCaptureFailed</title>
<!-- Node1 -->
<g id="Node000001" class="node">
<title>Node1</title>
<g id="a_Node000001"><a xlink:title="Emitted when screenshot capture fails.">
<polygon fill="#999999" stroke="#666666" points="581,-51 436,-51 436,-21 581,-21 581,-51"/>
<text text-anchor="start" x="444" y="-39" font-family="Helvetica,sans-Serif" font-size="10.00">FileUrlSupport::screenshot</text>
<text text-anchor="middle" x="508.5" y="-28" font-family="Helvetica,sans-Serif" font-size="10.00">CaptureFailed</text>
</a>
</g>
</g>
<!-- Node2 -->
<g id="Node000002" class="node">
<title>Node2</title>
<g id="a_Node000002"><a xlink:href="../../d8/d04/classFileUrlSupport.html#a605927fb3ddd04e7cc31bb75f6d66232" target="_top" xlink:title="Capture screenshot of current video frame.">
<polygon fill="white" stroke="#666666" points="182,-45.5 0,-45.5 0,-26.5 182,-26.5 182,-45.5"/>
<text text-anchor="middle" x="91" y="-33.5" font-family="Helvetica,sans-Serif" font-size="10.00">FileUrlSupport::captureScreenshot</text>
</a>
</g>
</g>
<!-- Node1&#45;&gt;Node2 -->
<g id="edge1_Node000001_Node000002" class="edge">
<title>Node1&#45;&gt;Node2</title>
<g id="a_edge1_Node000001_Node000002"><a xlink:title=" ">
<path fill="none" stroke="#63b8ff" d="M425.66,-38.52C417,-38.72 408.32,-38.88 400,-39 319.12,-40.13 298.88,-39.96 218,-39 206.4,-38.86 194.21,-38.65 182.16,-38.41"/>
<polygon fill="#63b8ff" stroke="#63b8ff" points="425.89,-42.02 435.8,-38.28 425.72,-35.02 425.89,-42.02"/>
</a>
</g>
</g>
<!-- Node3 -->
<g id="Node000003" class="node">
<title>Node3</title>
<g id="a_Node000003"><a xlink:href="../../d8/d04/classFileUrlSupport.html#a4a53dcf6c01c360aa8c9fe15467306db" target="_top" xlink:title="Capture screenshot at specific position.">
<polygon fill="white" stroke="#666666" points="400,-30 218,-30 218,0 400,0 400,-30"/>
<text text-anchor="start" x="226" y="-18" font-family="Helvetica,sans-Serif" font-size="10.00">FileUrlSupport::captureScreenshot</text>
<text text-anchor="middle" x="309" y="-7" font-family="Helvetica,sans-Serif" font-size="10.00">AtPosition</text>
</a>
</g>
</g>
<!-- Node1&#45;&gt;Node3 -->
<g id="edge2_Node000001_Node000003" class="edge">
<title>Node1&#45;&gt;Node3</title>
<g id="a_edge2_Node000001_Node000003"><a xlink:title=" ">
<path fill="none" stroke="#63b8ff" d="M425.75,-27.31C417.33,-26.41 408.74,-25.5 400.23,-24.59"/>
<polygon fill="#63b8ff" stroke="#63b8ff" points="425.6,-30.81 435.92,-28.39 426.34,-23.85 425.6,-30.81"/>
</a>
</g>
</g>
<!-- Node3&#45;&gt;Node2 -->
<g id="edge3_Node000003_Node000002" class="edge">
<title>Node3&#45;&gt;Node2</title>
<g id="a_edge3_Node000003_Node000002"><a xlink:title=" ">
<path fill="none" stroke="#63b8ff" d="M207.94,-24.73C199.37,-25.56 190.73,-26.4 182.24,-27.23"/>
<polygon fill="#63b8ff" stroke="#63b8ff" points="208.35,-28.21 217.96,-23.75 207.67,-21.24 208.35,-28.21"/>
</a>
</g>
</g>
</g>
</svg>
