<?xml version="1.0" encoding="UTF-8" standalone="no"?>
<!DOCTYPE svg PUBLIC "-//W3C//DTD SVG 1.1//EN"
 "http://www.w3.org/Graphics/SVG/1.1/DTD/svg11.dtd">
<!-- Generated by graphviz version 2.43.0 (0)
 -->
<!-- Title: FileUrlSupport::screenshotCaptured Pages: 1 -->
<svg width="589pt" height="38pt"
 viewBox="0.00 0.00 589.00 38.00" xmlns="http://www.w3.org/2000/svg" xmlns:xlink="http://www.w3.org/1999/xlink">
<g id="graph0" class="graph" transform="scale(1 1) rotate(0) translate(4 34)">
<title>FileUrlSupport::screenshotCaptured</title>
<!-- Node1 -->
<g id="Node000001" class="node">
<title>Node1</title>
<g id="a_Node000001"><a xlink:title="Emitted when screenshot is captured.">
<polygon fill="#999999" stroke="#666666" points="581,-30 436,-30 436,0 581,0 581,-30"/>
<text text-anchor="start" x="444" y="-18" font-family="Helvetica,sans-Serif" font-size="10.00">FileUrlSupport::screenshot</text>
<text text-anchor="middle" x="508.5" y="-7" font-family="Helvetica,sans-Serif" font-size="10.00">Captured</text>
</a>
</g>
</g>
<!-- Node2 -->
<g id="Node000002" class="node">
<title>Node2</title>
<g id="a_Node000002"><a xlink:href="../../d8/d04/classFileUrlSupport.html#a4a53dcf6c01c360aa8c9fe15467306db" target="_top" xlink:title="Capture screenshot at specific position.">
<polygon fill="white" stroke="#666666" points="400,-30 218,-30 218,0 400,0 400,-30"/>
<text text-anchor="start" x="226" y="-18" font-family="Helvetica,sans-Serif" font-size="10.00">FileUrlSupport::captureScreenshot</text>
<text text-anchor="middle" x="309" y="-7" font-family="Helvetica,sans-Serif" font-size="10.00">AtPosition</text>
</a>
</g>
</g>
<!-- Node1&#45;&gt;Node2 -->
<g id="edge1_Node000001_Node000002" class="edge">
<title>Node1&#45;&gt;Node2</title>
<g id="a_edge1_Node000001_Node000002"><a xlink:title=" ">
<path fill="none" stroke="#63b8ff" d="M425.75,-15C417.33,-15 408.74,-15 400.23,-15"/>
<polygon fill="#63b8ff" stroke="#63b8ff" points="425.92,-18.5 435.92,-15 425.92,-11.5 425.92,-18.5"/>
</a>
</g>
</g>
<!-- Node3 -->
<g id="Node000003" class="node">
<title>Node3</title>
<g id="a_Node000003"><a xlink:href="../../d8/d04/classFileUrlSupport.html#a605927fb3ddd04e7cc31bb75f6d66232" target="_top" xlink:title="Capture screenshot of current video frame.">
<polygon fill="white" stroke="#666666" points="182,-24.5 0,-24.5 0,-5.5 182,-5.5 182,-24.5"/>
<text text-anchor="middle" x="91" y="-12.5" font-family="Helvetica,sans-Serif" font-size="10.00">FileUrlSupport::captureScreenshot</text>
</a>
</g>
</g>
<!-- Node2&#45;&gt;Node3 -->
<g id="edge2_Node000002_Node000003" class="edge">
<title>Node2&#45;&gt;Node3</title>
<g id="a_edge2_Node000002_Node000003"><a xlink:title=" ">
<path fill="none" stroke="#63b8ff" d="M207.94,-15C199.37,-15 190.73,-15 182.24,-15"/>
<polygon fill="#63b8ff" stroke="#63b8ff" points="207.96,-18.5 217.96,-15 207.96,-11.5 207.96,-18.5"/>
</a>
</g>
</g>
</g>
</svg>
