<?xml version="1.0" encoding="UTF-8" standalone="no"?>
<!DOCTYPE svg PUBLIC "-//W3C//DTD SVG 1.1//EN"
 "http://www.w3.org/Graphics/SVG/1.1/DTD/svg11.dtd">
<!-- Generated by graphviz version 2.43.0 (0)
 -->
<!-- Title: FileUrlSupport::openFile Pages: 1 -->
<svg width="548pt" height="364pt"
 viewBox="0.00 0.00 548.00 364.00" xmlns="http://www.w3.org/2000/svg" xmlns:xlink="http://www.w3.org/1999/xlink">
<g id="graph0" class="graph" transform="scale(1 1) rotate(0) translate(4 360)">
<title>FileUrlSupport::openFile</title>
<!-- Node1 -->
<g id="Node000001" class="node">
<title>Node1</title>
<g id="a_Node000001"><a xlink:title="Handle file open request.">
<polygon fill="#999999" stroke="#666666" points="133,-192.5 0,-192.5 0,-173.5 133,-173.5 133,-192.5"/>
<text text-anchor="middle" x="66.5" y="-180.5" font-family="Helvetica,sans-Serif" font-size="10.00">FileUrlSupport::openFile</text>
</a>
</g>
</g>
<!-- Node2 -->
<g id="Node000002" class="node">
<title>Node2</title>
<g id="a_Node000002"><a xlink:href="../../d8/d04/classFileUrlSupport.html#a37b71fc93757ef83b9d21774b6253675" target="_top" xlink:title="Load media file with validation and auto subtitle detection.">
<polygon fill="white" stroke="#666666" points="329,-192.5 169,-192.5 169,-173.5 329,-173.5 329,-192.5"/>
<text text-anchor="middle" x="249" y="-180.5" font-family="Helvetica,sans-Serif" font-size="10.00">FileUrlSupport::loadMediaFile</text>
</a>
</g>
</g>
<!-- Node1&#45;&gt;Node2 -->
<g id="edge1_Node000001_Node000002" class="edge">
<title>Node1&#45;&gt;Node2</title>
<g id="a_edge1_Node000001_Node000002"><a xlink:title=" ">
<path fill="none" stroke="#63b8ff" d="M133.18,-183C141.51,-183 150.14,-183 158.76,-183"/>
<polygon fill="#63b8ff" stroke="#63b8ff" points="158.86,-186.5 168.86,-183 158.86,-179.5 158.86,-186.5"/>
</a>
</g>
</g>
<!-- Node3 -->
<g id="Node000003" class="node">
<title>Node3</title>
<g id="a_Node000003"><a xlink:href="../../d8/d04/classFileUrlSupport.html#ac91a76d40860e8f1616a0f108c158368" target="_top" xlink:title="Auto&#45;detect and load subtitle files for media.">
<polygon fill="white" stroke="#666666" points="525.5,-356 379.5,-356 379.5,-326 525.5,-326 525.5,-356"/>
<text text-anchor="start" x="387.5" y="-344" font-family="Helvetica,sans-Serif" font-size="10.00">FileUrlSupport::autoDetect</text>
<text text-anchor="middle" x="452.5" y="-333" font-family="Helvetica,sans-Serif" font-size="10.00">Subtitles</text>
</a>
</g>
</g>
<!-- Node2&#45;&gt;Node3 -->
<g id="edge2_Node000002_Node000003" class="edge">
<title>Node2&#45;&gt;Node3</title>
<g id="a_edge2_Node000002_Node000003"><a xlink:title=" ">
<path fill="none" stroke="#63b8ff" d="M255.56,-192.82C270.12,-217.64 311.96,-283.29 365,-317 367.61,-318.66 370.34,-320.21 373.15,-321.65"/>
<polygon fill="#63b8ff" stroke="#63b8ff" points="371.81,-324.89 382.36,-325.9 374.75,-318.53 371.81,-324.89"/>
</a>
</g>
</g>
<!-- Node4 -->
<g id="Node000004" class="node">
<title>Node4</title>
<g id="a_Node000004"><a xlink:href="../../d8/d04/classFileUrlSupport.html#a7273912ab01714993422b33594c560e1" target="_top" xlink:title="Extract detailed media information.">
<polygon fill="white" stroke="#666666" points="540,-307.5 365,-307.5 365,-288.5 540,-288.5 540,-307.5"/>
<text text-anchor="middle" x="452.5" y="-295.5" font-family="Helvetica,sans-Serif" font-size="10.00">FileUrlSupport::extractMediaInfo</text>
</a>
</g>
</g>
<!-- Node2&#45;&gt;Node4 -->
<g id="edge3_Node000002_Node000004" class="edge">
<title>Node2&#45;&gt;Node4</title>
<g id="a_edge3_Node000002_Node000004"><a xlink:title=" ">
<path fill="none" stroke="#63b8ff" d="M258.45,-192.65C276.14,-212.21 319.23,-256.56 365,-279 369.92,-281.41 375.14,-283.52 380.49,-285.36"/>
<polygon fill="#63b8ff" stroke="#63b8ff" points="379.63,-288.76 390.22,-288.4 381.72,-282.08 379.63,-288.76"/>
</a>
</g>
</g>
<!-- Node5 -->
<g id="Node000005" class="node">
<title>Node5</title>
<g id="a_Node000005"><a xlink:href="../../d8/d04/classFileUrlSupport.html#af7ab89ece6edc9a56fb22a70b8b3a860" target="_top" xlink:title="Emitted when file validation fails.">
<polygon fill="white" stroke="#666666" points="530,-270 375,-270 375,-240 530,-240 530,-270"/>
<text text-anchor="start" x="383" y="-258" font-family="Helvetica,sans-Serif" font-size="10.00">FileUrlSupport::fileValidation</text>
<text text-anchor="middle" x="452.5" y="-247" font-family="Helvetica,sans-Serif" font-size="10.00">Failed</text>
</a>
</g>
</g>
<!-- Node2&#45;&gt;Node5 -->
<g id="edge4_Node000002_Node000005" class="edge">
<title>Node2&#45;&gt;Node5</title>
<g id="a_edge4_Node000002_Node000005"><a xlink:title=" ">
<path fill="none" stroke="#63b8ff" d="M270.89,-192.65C293.7,-202.96 331.47,-219.4 365,-231 370.99,-233.07 377.27,-235.09 383.58,-237.03"/>
<polygon fill="#63b8ff" stroke="#63b8ff" points="382.91,-240.48 393.5,-239.98 384.91,-233.77 382.91,-240.48"/>
</a>
</g>
</g>
<!-- Node6 -->
<g id="Node000006" class="node">
<title>Node6</title>
<g id="a_Node000006"><a xlink:href="../../d8/d04/classFileUrlSupport.html#a65e03800e733f1147529109a2e1cc61b" target="_top" xlink:title="Get detailed validation error message.">
<polygon fill="white" stroke="#666666" points="530.5,-222 374.5,-222 374.5,-192 530.5,-192 530.5,-222"/>
<text text-anchor="start" x="382.5" y="-210" font-family="Helvetica,sans-Serif" font-size="10.00">FileUrlSupport::getValidation</text>
<text text-anchor="middle" x="452.5" y="-199" font-family="Helvetica,sans-Serif" font-size="10.00">ErrorMessage</text>
</a>
</g>
</g>
<!-- Node2&#45;&gt;Node6 -->
<g id="edge5_Node000002_Node000006" class="edge">
<title>Node2&#45;&gt;Node6</title>
<g id="a_edge5_Node000002_Node000006"><a xlink:title=" ">
<path fill="none" stroke="#63b8ff" d="M329.06,-192.42C340.57,-193.79 352.48,-195.21 364.15,-196.6"/>
<polygon fill="#63b8ff" stroke="#63b8ff" points="363.97,-200.1 374.32,-197.81 364.8,-193.15 363.97,-200.1"/>
</a>
</g>
</g>
<!-- Node7 -->
<g id="Node000007" class="node">
<title>Node7</title>
<g id="a_Node000007"><a xlink:href="../../d8/d04/classFileUrlSupport.html#ad7738c4718eeaa38962f9602ddc8dd2d" target="_top" xlink:title="Emitted when media file is successfully loaded.">
<polygon fill="white" stroke="#666666" points="522.5,-174 382.5,-174 382.5,-144 522.5,-144 522.5,-174"/>
<text text-anchor="start" x="390.5" y="-162" font-family="Helvetica,sans-Serif" font-size="10.00">FileUrlSupport::mediaFile</text>
<text text-anchor="middle" x="452.5" y="-151" font-family="Helvetica,sans-Serif" font-size="10.00">Loaded</text>
</a>
</g>
</g>
<!-- Node2&#45;&gt;Node7 -->
<g id="edge6_Node000002_Node000007" class="edge">
<title>Node2&#45;&gt;Node7</title>
<g id="a_edge6_Node000002_Node000007"><a xlink:title=" ">
<path fill="none" stroke="#63b8ff" d="M329.06,-173.58C343.26,-171.89 358.05,-170.13 372.25,-168.44"/>
<polygon fill="#63b8ff" stroke="#63b8ff" points="372.96,-171.88 382.47,-167.22 372.13,-164.93 372.96,-171.88"/>
</a>
</g>
</g>
<!-- Node8 -->
<g id="Node000008" class="node">
<title>Node8</title>
<g id="a_Node000008"><a xlink:href="../../d8/d04/classFileUrlSupport.html#acfbeabc31481ea545f51901ac09ba91f" target="_top" xlink:title="Emitted when media information is extracted.">
<polygon fill="white" stroke="#666666" points="523,-126 382,-126 382,-96 523,-96 523,-126"/>
<text text-anchor="start" x="390" y="-114" font-family="Helvetica,sans-Serif" font-size="10.00">FileUrlSupport::mediaInfo</text>
<text text-anchor="middle" x="452.5" y="-103" font-family="Helvetica,sans-Serif" font-size="10.00">Extracted</text>
</a>
</g>
</g>
<!-- Node2&#45;&gt;Node8 -->
<g id="edge7_Node000002_Node000008" class="edge">
<title>Node2&#45;&gt;Node8</title>
<g id="a_edge7_Node000002_Node000008"><a xlink:title=" ">
<path fill="none" stroke="#63b8ff" d="M270.89,-173.35C293.7,-163.04 331.47,-146.6 365,-135 370.99,-132.93 377.27,-130.91 383.58,-128.97"/>
<polygon fill="#63b8ff" stroke="#63b8ff" points="384.91,-132.23 393.5,-126.02 382.91,-125.52 384.91,-132.23"/>
</a>
</g>
</g>
<!-- Node9 -->
<g id="Node000009" class="node">
<title>Node9</title>
<g id="a_Node000009"><a xlink:href="../../d8/d04/classFileUrlSupport.html#a980075a524997ae18169a318a803577b" target="_top" xlink:title="Emitted when subtitles are auto&#45;detected.">
<polygon fill="white" stroke="#666666" points="519.5,-78 385.5,-78 385.5,-48 519.5,-48 519.5,-78"/>
<text text-anchor="start" x="393.5" y="-66" font-family="Helvetica,sans-Serif" font-size="10.00">FileUrlSupport::subtitles</text>
<text text-anchor="middle" x="452.5" y="-55" font-family="Helvetica,sans-Serif" font-size="10.00">Detected</text>
</a>
</g>
</g>
<!-- Node2&#45;&gt;Node9 -->
<g id="edge8_Node000002_Node000009" class="edge">
<title>Node2&#45;&gt;Node9</title>
<g id="a_edge8_Node000002_Node000009"><a xlink:title=" ">
<path fill="none" stroke="#63b8ff" d="M258.83,-173.26C276.87,-153.93 320.09,-110.56 365,-87 368.55,-85.14 372.25,-83.41 376.05,-81.8"/>
<polygon fill="#63b8ff" stroke="#63b8ff" points="377.6,-84.96 385.65,-78.07 375.06,-78.44 377.6,-84.96"/>
</a>
</g>
</g>
<!-- Node10 -->
<g id="Node000010" class="node">
<title>Node10</title>
<g id="a_Node000010"><a xlink:href="../../d8/d04/classFileUrlSupport.html#a5b172a8b83c71af482d59c49abbb6508" target="_top" xlink:title="Validate media file format and accessibility.">
<polygon fill="white" stroke="#666666" points="518,-30 387,-30 387,0 518,0 518,-30"/>
<text text-anchor="start" x="395" y="-18" font-family="Helvetica,sans-Serif" font-size="10.00">FileUrlSupport::validate</text>
<text text-anchor="middle" x="452.5" y="-7" font-family="Helvetica,sans-Serif" font-size="10.00">MediaFile</text>
</a>
</g>
</g>
<!-- Node2&#45;&gt;Node10 -->
<g id="edge9_Node000002_Node000010" class="edge">
<title>Node2&#45;&gt;Node10</title>
<g id="a_edge9_Node000002_Node000010"><a xlink:title=" ">
<path fill="none" stroke="#63b8ff" d="M254.95,-173.2C268.66,-147.12 309.74,-75.5 365,-39 368.83,-36.47 372.93,-34.2 377.18,-32.17"/>
<polygon fill="#63b8ff" stroke="#63b8ff" points="378.88,-35.25 386.69,-28.09 376.12,-28.82 378.88,-35.25"/>
</a>
</g>
</g>
</g>
</svg>
