<?xml version="1.0" encoding="UTF-8" standalone="no"?>
<!DOCTYPE svg PUBLIC "-//W3C//DTD SVG 1.1//EN"
 "http://www.w3.org/Graphics/SVG/1.1/DTD/svg11.dtd">
<!-- Generated by graphviz version 2.43.0 (0)
 -->
<!-- Title: FileUrlSupport::processDroppedMedia Pages: 1 -->
<!--zoomable 456 -->

<svg id="main" version="1.1" xmlns="http://www.w3.org/2000/svg" xmlns:xlink="http://www.w3.org/1999/xlink" xml:space="preserve" onload="init(evt)">
<style type="text/css"><![CDATA[
.node, .edge {opacity: 0.7;}
.node.selected, .edge.selected {opacity: 1;}
.edge:hover path { stroke: red; }
.edge:hover polygon { stroke: red; fill: red; }
]]></style>

<defs>
  <circle id="rim" cx="0" cy="0" r="7"/>
  <circle id="rim2" cx="0" cy="0" r="3.5"/>
  <g id="zoomPlus">
    <use xlink:href="#rim" fill="#404040"><set attributeName="fill" to="#808080" begin="zoomplus.mouseover" end="zoomplus.mouseout"/></use>
    <path d="M-4,0h8M0,-4v8" fill="none" stroke="white" stroke-width="1.5" pointer-events="none"/>
  </g>
  <g id="zoomMin">
    <use xlink:href="#rim" fill="#404040"><set attributeName="fill" to="#808080" begin="zoomminus.mouseover" end="zoomminus.mouseout"/></use>
    <path d="M-4,0h8" fill="none" stroke="white" stroke-width="1.5" pointer-events="none"/>
  </g>
  <g id="arrowUp" transform="translate(30 24)">
    <use xlink:href="#rim"/>
    <path pointer-events="none" fill="none" stroke="white" stroke-width="1.5" d="M0,-3.0v7 M-2.5,-0.5L0,-3.0L2.5,-0.5"/>
  </g>
  <g id="arrowRight" transform="rotate(90) translate(36 -43)">
    <use xlink:href="#rim"/>
    <path pointer-events="none" fill="none" stroke="white" stroke-width="1.5" d="M0,-3.0v7 M-2.5,-0.5L0,-3.0L2.5,-0.5"/>
  </g>
  <g id="arrowDown" transform="rotate(180) translate(-30 -48)">
    <use xlink:href="#rim"/>
    <path pointer-events="none" fill="none" stroke="white" stroke-width="1.5" d="M0,-3.0v7 M-2.5,-0.5L0,-3.0L2.5,-0.5"/>
  </g>
  <g id="arrowLeft" transform="rotate(270) translate(-36 17)">
    <use xlink:href="#rim"/>
    <path pointer-events="none" fill="none" stroke="white" stroke-width="1.5" d="M0,-3.0v7 M-2.5,-0.5L0,-3.0L2.5,-0.5"/>
  </g>
  <g id="resetDef">
    <use xlink:href="#rim2" fill="#404040"><set attributeName="fill" to="#808080" begin="reset.mouseover" end="reset.mouseout"/></use>
  </g>
</defs>
<script type="application/ecmascript">
var viewWidth = 791;
var viewHeight = 456;
var sectionId = 'dynsection-24';
</script>
<script type="application/ecmascript" xlink:href="../../svg.min.js"/>
<svg id="graph" class="graph">
<g id="viewport">
<title>FileUrlSupport::processDroppedMedia</title>
<!-- Node1 -->
<g id="Node000001" class="node">
<title>Node1</title>
<g id="a_Node000001"><a xlink:title="Process dropped files and URLs.">
<polygon fill="#999999" stroke="#666666" points="170,-367 0,-367 0,-337 170,-337 170,-367"/>
<text text-anchor="start" x="8" y="-355" font-family="Helvetica,sans-Serif" font-size="10.00">FileUrlSupport::processDropped</text>
<text text-anchor="middle" x="85" y="-344" font-family="Helvetica,sans-Serif" font-size="10.00">Media</text>
</a>
</g>
</g>
<!-- Node2 -->
<g id="Node000002" class="node">
<title>Node2</title>
<g id="a_Node000002"><a xlink:href="../../d8/d04/classFileUrlSupport.html#ac793923a239f275c51bd2e06ca785462" target="_top" xlink:title="Emitted when drag and drop operation is processed.">
<polygon fill="white" stroke="#666666" points="353,-448 216,-448 216,-418 353,-418 353,-448"/>
<text text-anchor="start" x="224" y="-436" font-family="Helvetica,sans-Serif" font-size="10.00">FileUrlSupport::dragDrop</text>
<text text-anchor="middle" x="284.5" y="-425" font-family="Helvetica,sans-Serif" font-size="10.00">Processed</text>
</a>
</g>
</g>
<!-- Node1&#45;&gt;Node2 -->
<g id="edge1_Node000001_Node000002" class="edge">
<title>Node1&#45;&gt;Node2</title>
<g id="a_edge1_Node000001_Node000002"><a xlink:title=" ">
<path fill="none" stroke="#63b8ff" d="M119.43,-367.03C143.4,-377.67 176.52,-392.11 206,-404 214.51,-407.43 223.6,-410.96 232.45,-414.32"/>
<polygon fill="#63b8ff" stroke="#63b8ff" points="231.33,-417.64 241.92,-417.89 233.8,-411.09 231.33,-417.64"/>
</a>
</g>
</g>
<!-- Node3 -->
<g id="Node000003" class="node">
<title>Node3</title>
<g id="a_Node000003"><a xlink:href="../../d8/d04/classFileUrlSupport.html#a3df7473233455bcf79dac20b4f1d28c9" target="_top" xlink:title="Check if URL is a local file.">
<polygon fill="white" stroke="#666666" points="564,-401.5 407,-401.5 407,-382.5 564,-382.5 564,-401.5"/>
<text text-anchor="middle" x="485.5" y="-389.5" font-family="Helvetica,sans-Serif" font-size="10.00">FileUrlSupport::isLocalFileUrl</text>
</a>
</g>
</g>
<!-- Node1&#45;&gt;Node3 -->
<g id="edge2_Node000001_Node000003" class="edge">
<title>Node1&#45;&gt;Node3</title>
<g id="a_edge2_Node000001_Node000003"><a xlink:title=" ">
<path fill="none" stroke="#63b8ff" d="M170.2,-362.9C182.21,-364.35 194.41,-365.76 206,-367 269.84,-373.85 342.06,-380.3 396.95,-384.93"/>
<polygon fill="#63b8ff" stroke="#63b8ff" points="396.74,-388.42 407,-385.77 397.32,-381.45 396.74,-388.42"/>
</a>
</g>
</g>
<!-- Node4 -->
<g id="Node000004" class="node">
<title>Node4</title>
<g id="a_Node000004"><a xlink:href="../../d8/d04/classFileUrlSupport.html#adfa2738cd27f0ad1beecdaae4b8cf4b8" target="_top" xlink:title="Validate URL for streaming.">
<polygon fill="white" stroke="#666666" points="572,-364.5 399,-364.5 399,-345.5 572,-345.5 572,-364.5"/>
<text text-anchor="middle" x="485.5" y="-352.5" font-family="Helvetica,sans-Serif" font-size="10.00">FileUrlSupport::isValidStreamUrl</text>
</a>
</g>
</g>
<!-- Node1&#45;&gt;Node4 -->
<g id="edge3_Node000001_Node000004" class="edge">
<title>Node1&#45;&gt;Node4</title>
<g id="a_edge3_Node000001_Node000004"><a xlink:title=" ">
<path fill="none" stroke="#63b8ff" d="M170.02,-352.63C233.99,-353.11 322.09,-353.78 388.78,-354.28"/>
<polygon fill="#63b8ff" stroke="#63b8ff" points="388.85,-357.78 398.87,-354.36 388.9,-350.78 388.85,-357.78"/>
</a>
</g>
</g>
<!-- Node5 -->
<g id="Node000005" class="node">
<title>Node5</title>
<g id="a_Node000005"><a xlink:href="../../d8/d04/classFileUrlSupport.html#a37b71fc93757ef83b9d21774b6253675" target="_top" xlink:title="Load media file with validation and auto subtitle detection.">
<polygon fill="white" stroke="#666666" points="565.5,-192.5 405.5,-192.5 405.5,-173.5 565.5,-173.5 565.5,-192.5"/>
<text text-anchor="middle" x="485.5" y="-180.5" font-family="Helvetica,sans-Serif" font-size="10.00">FileUrlSupport::loadMediaFile</text>
</a>
</g>
</g>
<!-- Node1&#45;&gt;Node5 -->
<g id="edge4_Node000001_Node000005" class="edge">
<title>Node1&#45;&gt;Node5</title>
<g id="a_edge4_Node000001_Node000005"><a xlink:title=" ">
<path fill="none" stroke="#63b8ff" d="M112.33,-336.8C165.08,-306.93 288.19,-240.17 399,-202 406.56,-199.39 414.63,-197.06 422.67,-194.99"/>
<polygon fill="#63b8ff" stroke="#63b8ff" points="423.55,-198.38 432.43,-192.6 421.89,-191.58 423.55,-198.38"/>
</a>
</g>
</g>
<!-- Node14 -->
<g id="Node000014" class="node">
<title>Node14</title>
<g id="a_Node000014"><a xlink:href="../../d8/d04/classFileUrlSupport.html#ae40a5216c2e2f98b8a943086cc6852f6" target="_top" xlink:title="Load media from URL or stream.">
<polygon fill="white" stroke="#666666" points="363,-321.5 206,-321.5 206,-302.5 363,-302.5 363,-321.5"/>
<text text-anchor="middle" x="284.5" y="-309.5" font-family="Helvetica,sans-Serif" font-size="10.00">FileUrlSupport::loadMediaUrl</text>
</a>
</g>
</g>
<!-- Node1&#45;&gt;Node14 -->
<g id="edge13_Node000001_Node000014" class="edge">
<title>Node1&#45;&gt;Node14</title>
<g id="a_edge13_Node000001_Node000014"><a xlink:title=" ">
<path fill="none" stroke="#63b8ff" d="M160.1,-336.99C182.11,-332.53 205.87,-327.72 226.61,-323.52"/>
<polygon fill="#63b8ff" stroke="#63b8ff" points="227.41,-326.93 236.52,-321.51 226.03,-320.07 227.41,-326.93"/>
</a>
</g>
</g>
<!-- Node6 -->
<g id="Node000006" class="node">
<title>Node6</title>
<g id="a_Node000006"><a xlink:href="../../d8/d04/classFileUrlSupport.html#ac91a76d40860e8f1616a0f108c158368" target="_top" xlink:title="Auto&#45;detect and load subtitle files for media.">
<polygon fill="white" stroke="#666666" points="768.5,-356 622.5,-356 622.5,-326 768.5,-326 768.5,-356"/>
<text text-anchor="start" x="630.5" y="-344" font-family="Helvetica,sans-Serif" font-size="10.00">FileUrlSupport::autoDetect</text>
<text text-anchor="middle" x="695.5" y="-333" font-family="Helvetica,sans-Serif" font-size="10.00">Subtitles</text>
</a>
</g>
</g>
<!-- Node5&#45;&gt;Node6 -->
<g id="edge5_Node000005_Node000006" class="edge">
<title>Node5&#45;&gt;Node6</title>
<g id="a_edge5_Node000005_Node000006"><a xlink:title=" ">
<path fill="none" stroke="#63b8ff" d="M558.06,-192.57C563.13,-195.09 567.86,-198.19 572,-202 611.44,-238.23 569.51,-279.75 608,-317 609.86,-318.8 611.85,-320.47 613.93,-322.02"/>
<polygon fill="#63b8ff" stroke="#63b8ff" points="612.09,-324.99 622.41,-327.39 615.84,-319.08 612.09,-324.99"/>
</a>
</g>
</g>
<!-- Node7 -->
<g id="Node000007" class="node">
<title>Node7</title>
<g id="a_Node000007"><a xlink:href="../../d8/d04/classFileUrlSupport.html#a7273912ab01714993422b33594c560e1" target="_top" xlink:title="Extract detailed media information.">
<polygon fill="white" stroke="#666666" points="783,-307.5 608,-307.5 608,-288.5 783,-288.5 783,-307.5"/>
<text text-anchor="middle" x="695.5" y="-295.5" font-family="Helvetica,sans-Serif" font-size="10.00">FileUrlSupport::extractMediaInfo</text>
</a>
</g>
</g>
<!-- Node5&#45;&gt;Node7 -->
<g id="edge6_Node000005_Node000007" class="edge">
<title>Node5&#45;&gt;Node7</title>
<g id="a_edge6_Node000005_Node000007"><a xlink:title=" ">
<path fill="none" stroke="#63b8ff" d="M556.26,-192.62C561.91,-195.11 567.26,-198.19 572,-202 601.47,-225.64 578.5,-255.4 608,-279 610.1,-280.68 612.32,-282.22 614.63,-283.63"/>
<polygon fill="#63b8ff" stroke="#63b8ff" points="613.44,-286.96 623.93,-288.45 616.66,-280.74 613.44,-286.96"/>
</a>
</g>
</g>
<!-- Node8 -->
<g id="Node000008" class="node">
<title>Node8</title>
<g id="a_Node000008"><a xlink:href="../../d8/d04/classFileUrlSupport.html#af7ab89ece6edc9a56fb22a70b8b3a860" target="_top" xlink:title="Emitted when file validation fails.">
<polygon fill="white" stroke="#666666" points="773,-270 618,-270 618,-240 773,-240 773,-270"/>
<text text-anchor="start" x="626" y="-258" font-family="Helvetica,sans-Serif" font-size="10.00">FileUrlSupport::fileValidation</text>
<text text-anchor="middle" x="695.5" y="-247" font-family="Helvetica,sans-Serif" font-size="10.00">Failed</text>
</a>
</g>
</g>
<!-- Node5&#45;&gt;Node8 -->
<g id="edge7_Node000005_Node000008" class="edge">
<title>Node5&#45;&gt;Node8</title>
<g id="a_edge7_Node000005_Node000008"><a xlink:title=" ">
<path fill="none" stroke="#63b8ff" d="M546.11,-192.53C555.02,-195 563.92,-198.11 572,-202 590.51,-210.91 589.72,-221.61 608,-231 611.74,-232.92 615.66,-234.71 619.67,-236.36"/>
<polygon fill="#63b8ff" stroke="#63b8ff" points="618.57,-239.69 629.16,-239.98 621.07,-233.15 618.57,-239.69"/>
</a>
</g>
</g>
<!-- Node9 -->
<g id="Node000009" class="node">
<title>Node9</title>
<g id="a_Node000009"><a xlink:href="../../d8/d04/classFileUrlSupport.html#a65e03800e733f1147529109a2e1cc61b" target="_top" xlink:title="Get detailed validation error message.">
<polygon fill="white" stroke="#666666" points="773.5,-222 617.5,-222 617.5,-192 773.5,-192 773.5,-222"/>
<text text-anchor="start" x="625.5" y="-210" font-family="Helvetica,sans-Serif" font-size="10.00">FileUrlSupport::getValidation</text>
<text text-anchor="middle" x="695.5" y="-199" font-family="Helvetica,sans-Serif" font-size="10.00">ErrorMessage</text>
</a>
</g>
</g>
<!-- Node5&#45;&gt;Node9 -->
<g id="edge8_Node000005_Node000009" class="edge">
<title>Node5&#45;&gt;Node9</title>
<g id="a_edge8_Node000005_Node000009"><a xlink:title=" ">
<path fill="none" stroke="#63b8ff" d="M565.73,-192.14C579.31,-193.71 593.49,-195.34 607.26,-196.93"/>
<polygon fill="#63b8ff" stroke="#63b8ff" points="606.87,-200.41 617.21,-198.08 607.68,-193.46 606.87,-200.41"/>
</a>
</g>
</g>
<!-- Node10 -->
<g id="Node000010" class="node">
<title>Node10</title>
<g id="a_Node000010"><a xlink:href="../../d8/d04/classFileUrlSupport.html#ad7738c4718eeaa38962f9602ddc8dd2d" target="_top" xlink:title="Emitted when media file is successfully loaded.">
<polygon fill="white" stroke="#666666" points="765.5,-174 625.5,-174 625.5,-144 765.5,-144 765.5,-174"/>
<text text-anchor="start" x="633.5" y="-162" font-family="Helvetica,sans-Serif" font-size="10.00">FileUrlSupport::mediaFile</text>
<text text-anchor="middle" x="695.5" y="-151" font-family="Helvetica,sans-Serif" font-size="10.00">Loaded</text>
</a>
</g>
</g>
<!-- Node5&#45;&gt;Node10 -->
<g id="edge9_Node000005_Node000010" class="edge">
<title>Node5&#45;&gt;Node10</title>
<g id="a_edge9_Node000005_Node000010"><a xlink:title=" ">
<path fill="none" stroke="#63b8ff" d="M565.73,-173.86C581.99,-171.98 599.1,-170.01 615.36,-168.13"/>
<polygon fill="#63b8ff" stroke="#63b8ff" points="615.82,-171.6 625.35,-166.98 615.02,-164.65 615.82,-171.6"/>
</a>
</g>
</g>
<!-- Node11 -->
<g id="Node000011" class="node">
<title>Node11</title>
<g id="a_Node000011"><a xlink:href="../../d8/d04/classFileUrlSupport.html#acfbeabc31481ea545f51901ac09ba91f" target="_top" xlink:title="Emitted when media information is extracted.">
<polygon fill="white" stroke="#666666" points="766,-126 625,-126 625,-96 766,-96 766,-126"/>
<text text-anchor="start" x="633" y="-114" font-family="Helvetica,sans-Serif" font-size="10.00">FileUrlSupport::mediaInfo</text>
<text text-anchor="middle" x="695.5" y="-103" font-family="Helvetica,sans-Serif" font-size="10.00">Extracted</text>
</a>
</g>
</g>
<!-- Node5&#45;&gt;Node11 -->
<g id="edge10_Node000005_Node000011" class="edge">
<title>Node5&#45;&gt;Node11</title>
<g id="a_edge10_Node000005_Node000011"><a xlink:title=" ">
<path fill="none" stroke="#63b8ff" d="M508.63,-173.44C532.79,-163.2 572.73,-146.82 608,-135 614.25,-132.9 620.81,-130.84 627.38,-128.87"/>
<polygon fill="#63b8ff" stroke="#63b8ff" points="628.41,-132.21 637.01,-126.03 626.43,-125.5 628.41,-132.21"/>
</a>
</g>
</g>
<!-- Node12 -->
<g id="Node000012" class="node">
<title>Node12</title>
<g id="a_Node000012"><a xlink:href="../../d8/d04/classFileUrlSupport.html#a980075a524997ae18169a318a803577b" target="_top" xlink:title="Emitted when subtitles are auto&#45;detected.">
<polygon fill="white" stroke="#666666" points="762.5,-78 628.5,-78 628.5,-48 762.5,-48 762.5,-78"/>
<text text-anchor="start" x="636.5" y="-66" font-family="Helvetica,sans-Serif" font-size="10.00">FileUrlSupport::subtitles</text>
<text text-anchor="middle" x="695.5" y="-55" font-family="Helvetica,sans-Serif" font-size="10.00">Detected</text>
</a>
</g>
</g>
<!-- Node5&#45;&gt;Node12 -->
<g id="edge11_Node000005_Node000012" class="edge">
<title>Node5&#45;&gt;Node12</title>
<g id="a_edge11_Node000005_Node000012"><a xlink:title=" ">
<path fill="none" stroke="#63b8ff" d="M495.95,-173.29C515.23,-154.01 561.25,-110.73 608,-87 611.75,-85.1 615.68,-83.33 619.69,-81.68"/>
<polygon fill="#63b8ff" stroke="#63b8ff" points="621.08,-84.9 629.19,-78.08 618.6,-78.35 621.08,-84.9"/>
</a>
</g>
</g>
<!-- Node13 -->
<g id="Node000013" class="node">
<title>Node13</title>
<g id="a_Node000013"><a xlink:href="../../d8/d04/classFileUrlSupport.html#a5b172a8b83c71af482d59c49abbb6508" target="_top" xlink:title="Validate media file format and accessibility.">
<polygon fill="white" stroke="#666666" points="761,-30 630,-30 630,0 761,0 761,-30"/>
<text text-anchor="start" x="638" y="-18" font-family="Helvetica,sans-Serif" font-size="10.00">FileUrlSupport::validate</text>
<text text-anchor="middle" x="695.5" y="-7" font-family="Helvetica,sans-Serif" font-size="10.00">MediaFile</text>
</a>
</g>
</g>
<!-- Node5&#45;&gt;Node13 -->
<g id="edge12_Node000005_Node000013" class="edge">
<title>Node5&#45;&gt;Node13</title>
<g id="a_edge12_Node000005_Node000013"><a xlink:title=" ">
<path fill="none" stroke="#63b8ff" d="M491.89,-173.21C506.74,-147.14 551.01,-75.56 608,-39 611.87,-36.52 615.99,-34.29 620.26,-32.29"/>
<polygon fill="#63b8ff" stroke="#63b8ff" points="621.95,-35.38 629.8,-28.27 619.23,-28.93 621.95,-35.38"/>
</a>
</g>
</g>
<!-- Node14&#45;&gt;Node3 -->
<g id="edge14_Node000014_Node000003" class="edge">
<title>Node14&#45;&gt;Node3</title>
<g id="a_edge14_Node000014_Node000003"><a xlink:title=" ">
<path fill="none" stroke="#63b8ff" d="M299.89,-321.67C320.83,-335.31 361.3,-360.08 399,-374 404.98,-376.21 411.29,-378.17 417.68,-379.92"/>
<polygon fill="#63b8ff" stroke="#63b8ff" points="417.17,-383.4 427.73,-382.49 418.9,-376.62 417.17,-383.4"/>
</a>
</g>
</g>
<!-- Node14&#45;&gt;Node4 -->
<g id="edge15_Node000014_Node000004" class="edge">
<title>Node14&#45;&gt;Node4</title>
<g id="a_edge15_Node000014_Node000004"><a xlink:title=" ">
<path fill="none" stroke="#63b8ff" d="M329.66,-321.54C359.42,-327.97 398.86,-336.5 430.49,-343.33"/>
<polygon fill="#63b8ff" stroke="#63b8ff" points="429.95,-346.79 440.46,-345.48 431.42,-339.95 429.95,-346.79"/>
</a>
</g>
</g>
<!-- Node14&#45;&gt;Node5 -->
<g id="edge16_Node000014_Node000005" class="edge">
<title>Node14&#45;&gt;Node5</title>
<g id="a_edge16_Node000014_Node000005"><a xlink:title=" ">
<path fill="none" stroke="#63b8ff" d="M297.19,-302.37C312.73,-289.4 340.78,-265.37 363,-243 380.09,-225.79 378.13,-214.35 399,-202 402.68,-199.82 406.58,-197.89 410.62,-196.18"/>
<polygon fill="#63b8ff" stroke="#63b8ff" points="412.08,-199.37 420.22,-192.59 409.63,-192.82 412.08,-199.37"/>
</a>
</g>
</g>
<!-- Node15 -->
<g id="Node000015" class="node">
<title>Node15</title>
<g id="a_Node000015"><a xlink:href="../../d8/d04/classFileUrlSupport.html#a72c170b7e22a7be130a1e4f7c55015dc" target="_top" xlink:title="Emitted when media URL is successfully loaded.">
<polygon fill="white" stroke="#666666" points="554,-327 417,-327 417,-297 554,-297 554,-327"/>
<text text-anchor="start" x="425" y="-315" font-family="Helvetica,sans-Serif" font-size="10.00">FileUrlSupport::mediaUrl</text>
<text text-anchor="middle" x="485.5" y="-304" font-family="Helvetica,sans-Serif" font-size="10.00">Loaded</text>
</a>
</g>
</g>
<!-- Node14&#45;&gt;Node15 -->
<g id="edge17_Node000014_Node000015" class="edge">
<title>Node14&#45;&gt;Node15</title>
<g id="a_edge17_Node000014_Node000015"><a xlink:title=" ">
<path fill="none" stroke="#63b8ff" d="M363.01,-312C377.32,-312 392.28,-312 406.6,-312"/>
<polygon fill="#63b8ff" stroke="#63b8ff" points="406.9,-315.5 416.9,-312 406.9,-308.5 406.9,-315.5"/>
</a>
</g>
</g>
<!-- Node16 -->
<g id="Node000016" class="node">
<title>Node16</title>
<g id="a_Node000016"><a xlink:href="../../db/d09/structMediaInfo.html#a1d32d9c830bba685aa4c62e2017e065d" target="_top" xlink:title="Get formatted string representation.">
<polygon fill="white" stroke="#666666" points="540.5,-278.5 430.5,-278.5 430.5,-259.5 540.5,-259.5 540.5,-278.5"/>
<text text-anchor="middle" x="485.5" y="-266.5" font-family="Helvetica,sans-Serif" font-size="10.00">MediaInfo::toString</text>
</a>
</g>
</g>
<!-- Node14&#45;&gt;Node16 -->
<g id="edge18_Node000014_Node000016" class="edge">
<title>Node14&#45;&gt;Node16</title>
<g id="a_edge18_Node000014_Node000016"><a xlink:title=" ">
<path fill="none" stroke="#63b8ff" d="M329.66,-302.46C359.42,-296.03 398.86,-287.5 430.49,-280.67"/>
<polygon fill="#63b8ff" stroke="#63b8ff" points="431.42,-284.05 440.46,-278.52 429.95,-277.21 431.42,-284.05"/>
</a>
</g>
</g>
<!-- Node17 -->
<g id="Node000017" class="node">
<title>Node17</title>
<g id="a_Node000017"><a xlink:href="../../d8/d04/classFileUrlSupport.html#aa0b5ff5500ed4fc180fa19facf4cac91" target="_top" xlink:title="Emitted when URL validation fails.">
<polygon fill="white" stroke="#666666" points="562,-241 409,-241 409,-211 562,-211 562,-241"/>
<text text-anchor="start" x="417" y="-229" font-family="Helvetica,sans-Serif" font-size="10.00">FileUrlSupport::urlValidation</text>
<text text-anchor="middle" x="485.5" y="-218" font-family="Helvetica,sans-Serif" font-size="10.00">Failed</text>
</a>
</g>
</g>
<!-- Node14&#45;&gt;Node17 -->
<g id="edge19_Node000014_Node000017" class="edge">
<title>Node14&#45;&gt;Node17</title>
<g id="a_edge19_Node000014_Node000017"><a xlink:title=" ">
<path fill="none" stroke="#63b8ff" d="M300.38,-302.44C321.57,-289.16 361.99,-265.08 399,-250 404,-247.96 409.23,-246.04 414.53,-244.23"/>
<polygon fill="#63b8ff" stroke="#63b8ff" points="415.7,-247.52 424.12,-241.09 413.53,-240.87 415.7,-247.52"/>
</a>
</g>
</g>
</g>
</svg>

<g id="navigator" transform="translate(0 0)" fill="#404254">
  <rect fill="#f2f5e9" fill-opacity="0.5" stroke="#606060" stroke-width=".5" x="0" y="0" width="60" height="60"/>
  <use id="zoomplus" xlink:href="#zoomPlus" x="17" y="9" onmousedown="handleZoom(evt,'in')"/>
  <use id="zoomminus" xlink:href="#zoomMin" x="42" y="9" onmousedown="handleZoom(evt,'out')"/>
  <use id="reset" xlink:href="#resetDef" x="30" y="36" onmousedown="handleReset()"/>
   <use id="arrowup" xlink:href="#arrowUp" x="0" y="0" onmousedown="handlePan(0,-1)"/>
  <use id="arrowright" xlink:href="#arrowRight" x="0" y="0" onmousedown="handlePan(1,0)"/>
  <use id="arrowdown" xlink:href="#arrowDown" x="0" y="0" onmousedown="handlePan(0,1)"/>
  <use id="arrowleft" xlink:href="#arrowLeft" x="0" y="0" onmousedown="handlePan(-1,0)"/>
</g>
<svg viewBox="0 0 15 15" width="100%" height="30px" preserveAspectRatio="xMaxYMin meet">
 <g id="arrow_out" transform="scale(0.3 0.3)">
  <a xlink:href="classFileUrlSupport_a778c1c9fa26afa5d85905bcd813a9dd8_cgraph_org.svg" target="_base">
   <rect id="button" ry="5" rx="5" y="6" x="6" height="38" width="38"
        fill="#f2f5e9" fill-opacity="0.5" stroke="#606060" stroke-width="1.0"/>
   <path id="arrow"
     d="M 11.500037,31.436501 C 11.940474,20.09759 22.043105,11.32322 32.158766,21.979434 L 37.068811,17.246167 C 37.068811,17.246167 37.088388,32 37.088388,32 L 22.160133,31.978069 C 22.160133,31.978069 26.997745,27.140456 26.997745,27.140456 C 18.528582,18.264221 13.291696,25.230495 11.500037,31.436501 z"
     style="fill:#404040;"/>
  </a>
 </g>
</svg>

<style type='text/css'>
<![CDATA[
[data-mouse-over-selected='false'] { opacity: 0.7; }
[data-mouse-over-selected='true']  { opacity: 1.0; }
]]>
</style>
<script type="application/ecmascript"><![CDATA[
document.addEventListener('DOMContentLoaded', (event) => {
  highlightEdges();
  highlightAdjacentNodes();
});
]]></script>
</svg>
