<?xml version="1.0" encoding="UTF-8" standalone="no"?>
<!DOCTYPE svg PUBLIC "-//W3C//DTD SVG 1.1//EN"
 "http://www.w3.org/Graphics/SVG/1.1/DTD/svg11.dtd">
<!-- Generated by graphviz version 2.43.0 (0)
 -->
<!-- Title: FileUrlSupport::fileValidationFailed Pages: 1 -->
<svg width="758pt" height="177pt"
 viewBox="0.00 0.00 758.00 177.00" xmlns="http://www.w3.org/2000/svg" xmlns:xlink="http://www.w3.org/1999/xlink">
<g id="graph0" class="graph" transform="scale(1 1) rotate(0) translate(4 173)">
<title>FileUrlSupport::fileValidationFailed</title>
<!-- Node1 -->
<g id="Node000001" class="node">
<title>Node1</title>
<g id="a_Node000001"><a xlink:title="Emitted when file validation fails.">
<polygon fill="#999999" stroke="#666666" points="750,-117.5 595,-117.5 595,-87.5 750,-87.5 750,-117.5"/>
<text text-anchor="start" x="603" y="-105.5" font-family="Helvetica,sans-Serif" font-size="10.00">FileUrlSupport::fileValidation</text>
<text text-anchor="middle" x="672.5" y="-94.5" font-family="Helvetica,sans-Serif" font-size="10.00">Failed</text>
</a>
</g>
</g>
<!-- Node2 -->
<g id="Node000002" class="node">
<title>Node2</title>
<g id="a_Node000002"><a xlink:href="../../d6/d1a/classMainWindow.html#ae0e54160db525152d6583cd9f9b9efe4" target="_top" xlink:title="Initialize the main window with component manager.">
<polygon fill="white" stroke="#666666" points="542.5,-150 415.5,-150 415.5,-131 542.5,-131 542.5,-150"/>
<text text-anchor="middle" x="479" y="-138" font-family="Helvetica,sans-Serif" font-size="10.00">MainWindow::initialize</text>
</a>
</g>
</g>
<!-- Node1&#45;&gt;Node2 -->
<g id="edge1_Node000001_Node000002" class="edge">
<title>Node1&#45;&gt;Node2</title>
<g id="a_edge1_Node000001_Node000002"><a xlink:title=" ">
<path fill="none" stroke="#63b8ff" d="M585.8,-119.51C565.92,-123.45 545.45,-127.51 527.88,-131"/>
<polygon fill="#63b8ff" stroke="#63b8ff" points="586.69,-122.9 595.81,-117.52 585.32,-116.03 586.69,-122.9"/>
</a>
</g>
</g>
<!-- Node4 -->
<g id="Node000004" class="node">
<title>Node4</title>
<g id="a_Node000004"><a xlink:href="../../d8/d04/classFileUrlSupport.html#a37b71fc93757ef83b9d21774b6253675" target="_top" xlink:title="Load media file with validation and auto subtitle detection.">
<polygon fill="white" stroke="#666666" points="559,-94 399,-94 399,-75 559,-75 559,-94"/>
<text text-anchor="middle" x="479" y="-82" font-family="Helvetica,sans-Serif" font-size="10.00">FileUrlSupport::loadMediaFile</text>
</a>
</g>
</g>
<!-- Node1&#45;&gt;Node4 -->
<g id="edge3_Node000001_Node000004" class="edge">
<title>Node1&#45;&gt;Node4</title>
<g id="a_edge3_Node000001_Node000004"><a xlink:title=" ">
<path fill="none" stroke="#63b8ff" d="M584.98,-94.37C576.39,-93.56 567.71,-92.74 559.21,-91.95"/>
<polygon fill="#63b8ff" stroke="#63b8ff" points="584.7,-97.86 594.99,-95.31 585.36,-90.89 584.7,-97.86"/>
</a>
</g>
</g>
<!-- Node3 -->
<g id="Node000003" class="node">
<title>Node3</title>
<g id="a_Node000003"><a xlink:href="../../df/d0a/main_8cpp.html#a0ddf1224851353fc92bfbff6f499fa97" target="_top" xlink:title="Main application entry point.">
<polygon fill="white" stroke="#666666" points="305,-169 264,-169 264,-150 305,-150 305,-169"/>
<text text-anchor="middle" x="284.5" y="-157" font-family="Helvetica,sans-Serif" font-size="10.00">main</text>
</a>
</g>
</g>
<!-- Node2&#45;&gt;Node3 -->
<g id="edge2_Node000002_Node000003" class="edge">
<title>Node2&#45;&gt;Node3</title>
<g id="a_edge2_Node000002_Node000003"><a xlink:title=" ">
<path fill="none" stroke="#63b8ff" d="M405.23,-147.68C369.26,-151.23 328.63,-155.24 305.15,-157.56"/>
<polygon fill="#63b8ff" stroke="#63b8ff" points="405.63,-151.16 415.23,-146.7 404.94,-144.19 405.63,-151.16"/>
</a>
</g>
</g>
<!-- Node5 -->
<g id="Node000005" class="node">
<title>Node5</title>
<g id="a_Node000005"><a xlink:href="../../d8/d04/classFileUrlSupport.html#ae40a5216c2e2f98b8a943086cc6852f6" target="_top" xlink:title="Load media from URL or stream.">
<polygon fill="white" stroke="#666666" points="363,-132 206,-132 206,-113 363,-113 363,-132"/>
<text text-anchor="middle" x="284.5" y="-120" font-family="Helvetica,sans-Serif" font-size="10.00">FileUrlSupport::loadMediaUrl</text>
</a>
</g>
</g>
<!-- Node4&#45;&gt;Node5 -->
<g id="edge4_Node000004_Node000005" class="edge">
<title>Node4&#45;&gt;Node5</title>
<g id="a_edge4_Node000004_Node000005"><a xlink:title=" ">
<path fill="none" stroke="#63b8ff" d="M419.55,-96.04C392.09,-101.46 359.76,-107.84 333.73,-112.98"/>
<polygon fill="#63b8ff" stroke="#63b8ff" points="420.29,-99.46 429.42,-94.09 418.94,-92.59 420.29,-99.46"/>
</a>
</g>
</g>
<!-- Node7 -->
<g id="Node000007" class="node">
<title>Node7</title>
<g id="a_Node000007"><a xlink:href="../../d8/d04/classFileUrlSupport.html#a778c1c9fa26afa5d85905bcd813a9dd8" target="_top" xlink:title="Process dropped files and URLs.">
<polygon fill="white" stroke="#666666" points="170,-99.5 0,-99.5 0,-69.5 170,-69.5 170,-99.5"/>
<text text-anchor="start" x="8" y="-87.5" font-family="Helvetica,sans-Serif" font-size="10.00">FileUrlSupport::processDropped</text>
<text text-anchor="middle" x="85" y="-76.5" font-family="Helvetica,sans-Serif" font-size="10.00">Media</text>
</a>
</g>
</g>
<!-- Node4&#45;&gt;Node7 -->
<g id="edge9_Node000004_Node000007" class="edge">
<title>Node4&#45;&gt;Node7</title>
<g id="a_edge9_Node000004_Node000007"><a xlink:title=" ">
<path fill="none" stroke="#63b8ff" d="M388.36,-84.5C322.83,-84.5 234.54,-84.5 170.29,-84.5"/>
<polygon fill="#63b8ff" stroke="#63b8ff" points="388.67,-88 398.67,-84.5 388.67,-81 388.67,-88"/>
</a>
</g>
</g>
<!-- Node8 -->
<g id="Node000008" class="node">
<title>Node8</title>
<g id="a_Node000008"><a xlink:href="../../d8/d04/classFileUrlSupport.html#a6878e3a41ccde6cf7d6092d93c1a421b" target="_top" xlink:title="Handle file open request.">
<polygon fill="white" stroke="#666666" points="351,-56 218,-56 218,-37 351,-37 351,-56"/>
<text text-anchor="middle" x="284.5" y="-44" font-family="Helvetica,sans-Serif" font-size="10.00">FileUrlSupport::openFile</text>
</a>
</g>
</g>
<!-- Node4&#45;&gt;Node8 -->
<g id="edge7_Node000004_Node000008" class="edge">
<title>Node4&#45;&gt;Node8</title>
<g id="a_edge7_Node000004_Node000008"><a xlink:title=" ">
<path fill="none" stroke="#63b8ff" d="M419.55,-72.96C392.09,-67.54 359.76,-61.16 333.73,-56.02"/>
<polygon fill="#63b8ff" stroke="#63b8ff" points="418.94,-76.41 429.42,-74.91 420.29,-69.54 418.94,-76.41"/>
</a>
</g>
</g>
<!-- Node9 -->
<g id="Node000009" class="node">
<title>Node9</title>
<g id="a_Node000009"><a xlink:href="../../d8/d04/classFileUrlSupport.html#a8293ec6df26878b99baf15ee65139e3e" target="_top" xlink:title="Handle multiple files open request.">
<polygon fill="white" stroke="#666666" points="353.5,-19 215.5,-19 215.5,0 353.5,0 353.5,-19"/>
<text text-anchor="middle" x="284.5" y="-7" font-family="Helvetica,sans-Serif" font-size="10.00">FileUrlSupport::openFiles</text>
</a>
</g>
</g>
<!-- Node4&#45;&gt;Node9 -->
<g id="edge8_Node000004_Node000009" class="edge">
<title>Node4&#45;&gt;Node9</title>
<g id="a_edge8_Node000004_Node000009"><a xlink:title=" ">
<path fill="none" stroke="#63b8ff" d="M452.77,-69.86C429.96,-57.15 395.12,-39.01 363,-27.5 353.9,-24.24 343.98,-21.41 334.37,-19.03"/>
<polygon fill="#63b8ff" stroke="#63b8ff" points="451.34,-73.07 461.77,-74.94 454.79,-66.98 451.34,-73.07"/>
</a>
</g>
</g>
<!-- Node6 -->
<g id="Node000006" class="node">
<title>Node6</title>
<g id="a_Node000006"><a xlink:href="../../d8/d04/classFileUrlSupport.html#a305f70beca6d625e0043d1798d25cfbb" target="_top" xlink:title="Handle URL open request.">
<polygon fill="white" stroke="#666666" points="150,-137 20,-137 20,-118 150,-118 150,-137"/>
<text text-anchor="middle" x="85" y="-125" font-family="Helvetica,sans-Serif" font-size="10.00">FileUrlSupport::openUrl</text>
</a>
</g>
</g>
<!-- Node5&#45;&gt;Node6 -->
<g id="edge5_Node000005_Node000006" class="edge">
<title>Node5&#45;&gt;Node6</title>
<g id="a_edge5_Node000005_Node000006"><a xlink:title=" ">
<path fill="none" stroke="#63b8ff" d="M195.69,-124.72C180.32,-125.11 164.59,-125.51 150.02,-125.88"/>
<polygon fill="#63b8ff" stroke="#63b8ff" points="195.82,-128.22 205.73,-124.47 195.64,-121.22 195.82,-128.22"/>
</a>
</g>
</g>
<!-- Node5&#45;&gt;Node7 -->
<g id="edge6_Node000005_Node000007" class="edge">
<title>Node5&#45;&gt;Node7</title>
<g id="a_edge6_Node000005_Node000007"><a xlink:title=" ">
<path fill="none" stroke="#63b8ff" d="M224,-111.05C205.15,-107.42 184.02,-103.36 164.07,-99.52"/>
<polygon fill="#63b8ff" stroke="#63b8ff" points="223.44,-114.51 233.92,-112.96 224.76,-107.63 223.44,-114.51"/>
</a>
</g>
</g>
</g>
</svg>
