<?xml version="1.0" encoding="UTF-8" standalone="no"?>
<!DOCTYPE svg PUBLIC "-//W3C//DTD SVG 1.1//EN"
 "http://www.w3.org/Graphics/SVG/1.1/DTD/svg11.dtd">
<!-- Generated by graphviz version 2.43.0 (0)
 -->
<!-- Title: FileUrlSupport::mediaUrlLoaded Pages: 1 -->
<svg width="544pt" height="98pt"
 viewBox="0.00 0.00 544.00 97.50" xmlns="http://www.w3.org/2000/svg" xmlns:xlink="http://www.w3.org/1999/xlink">
<g id="graph0" class="graph" transform="scale(1 1) rotate(0) translate(4 93.5)">
<title>FileUrlSupport::mediaUrlLoaded</title>
<!-- Node1 -->
<g id="Node000001" class="node">
<title>Node1</title>
<g id="a_Node000001"><a xlink:title="Emitted when media URL is successfully loaded.">
<polygon fill="#999999" stroke="#666666" points="536,-51 399,-51 399,-21 536,-21 536,-51"/>
<text text-anchor="start" x="407" y="-39" font-family="Helvetica,sans-Serif" font-size="10.00">FileUrlSupport::mediaUrl</text>
<text text-anchor="middle" x="467.5" y="-28" font-family="Helvetica,sans-Serif" font-size="10.00">Loaded</text>
</a>
</g>
</g>
<!-- Node2 -->
<g id="Node000002" class="node">
<title>Node2</title>
<g id="a_Node000002"><a xlink:href="../../d8/d04/classFileUrlSupport.html#ae40a5216c2e2f98b8a943086cc6852f6" target="_top" xlink:title="Load media from URL or stream.">
<polygon fill="white" stroke="#666666" points="363,-67.5 206,-67.5 206,-48.5 363,-48.5 363,-67.5"/>
<text text-anchor="middle" x="284.5" y="-55.5" font-family="Helvetica,sans-Serif" font-size="10.00">FileUrlSupport::loadMediaUrl</text>
</a>
</g>
</g>
<!-- Node1&#45;&gt;Node2 -->
<g id="edge1_Node000001_Node000002" class="edge">
<title>Node1&#45;&gt;Node2</title>
<g id="a_edge1_Node000001_Node000002"><a xlink:title=" ">
<path fill="none" stroke="#63b8ff" d="M388.91,-45.43C380.37,-46.47 371.67,-47.53 363.12,-48.57"/>
<polygon fill="#63b8ff" stroke="#63b8ff" points="389.34,-48.9 398.84,-44.22 388.5,-41.96 389.34,-48.9"/>
</a>
</g>
</g>
<!-- Node5 -->
<g id="Node000005" class="node">
<title>Node5</title>
<g id="a_Node000005"><a xlink:href="../../dd/d6b/classMediaInfoWidget.html#a750ae87503febe4e07f870243be01729" target="_top" xlink:title="Set the file URL support component.">
<polygon fill="white" stroke="#666666" points="353.5,-30 215.5,-30 215.5,0 353.5,0 353.5,-30"/>
<text text-anchor="start" x="223.5" y="-18" font-family="Helvetica,sans-Serif" font-size="10.00">MediaInfoWidget::setFile</text>
<text text-anchor="middle" x="284.5" y="-7" font-family="Helvetica,sans-Serif" font-size="10.00">UrlSupport</text>
</a>
</g>
</g>
<!-- Node1&#45;&gt;Node5 -->
<g id="edge4_Node000001_Node000005" class="edge">
<title>Node1&#45;&gt;Node5</title>
<g id="a_edge4_Node000001_Node000005"><a xlink:title=" ">
<path fill="none" stroke="#63b8ff" d="M388.7,-26.97C377.05,-25.62 365.11,-24.24 353.68,-22.91"/>
<polygon fill="#63b8ff" stroke="#63b8ff" points="388.51,-30.47 398.84,-28.15 389.31,-23.52 388.51,-30.47"/>
</a>
</g>
</g>
<!-- Node3 -->
<g id="Node000003" class="node">
<title>Node3</title>
<g id="a_Node000003"><a xlink:href="../../d8/d04/classFileUrlSupport.html#a305f70beca6d625e0043d1798d25cfbb" target="_top" xlink:title="Handle URL open request.">
<polygon fill="white" stroke="#666666" points="150,-89.5 20,-89.5 20,-70.5 150,-70.5 150,-89.5"/>
<text text-anchor="middle" x="85" y="-77.5" font-family="Helvetica,sans-Serif" font-size="10.00">FileUrlSupport::openUrl</text>
</a>
</g>
</g>
<!-- Node2&#45;&gt;Node3 -->
<g id="edge2_Node000002_Node000003" class="edge">
<title>Node2&#45;&gt;Node3</title>
<g id="a_edge2_Node000002_Node000003"><a xlink:title=" ">
<path fill="none" stroke="#63b8ff" d="M195.69,-67.78C180.32,-69.49 164.59,-71.25 150.02,-72.87"/>
<polygon fill="#63b8ff" stroke="#63b8ff" points="196.18,-71.25 205.73,-66.66 195.4,-64.29 196.18,-71.25"/>
</a>
</g>
</g>
<!-- Node4 -->
<g id="Node000004" class="node">
<title>Node4</title>
<g id="a_Node000004"><a xlink:href="../../d8/d04/classFileUrlSupport.html#a778c1c9fa26afa5d85905bcd813a9dd8" target="_top" xlink:title="Process dropped files and URLs.">
<polygon fill="white" stroke="#666666" points="170,-52 0,-52 0,-22 170,-22 170,-52"/>
<text text-anchor="start" x="8" y="-40" font-family="Helvetica,sans-Serif" font-size="10.00">FileUrlSupport::processDropped</text>
<text text-anchor="middle" x="85" y="-29" font-family="Helvetica,sans-Serif" font-size="10.00">Media</text>
</a>
</g>
</g>
<!-- Node2&#45;&gt;Node4 -->
<g id="edge3_Node000002_Node000004" class="edge">
<title>Node2&#45;&gt;Node4</title>
<g id="a_edge3_Node000002_Node000004"><a xlink:title=" ">
<path fill="none" stroke="#63b8ff" d="M195.53,-48.65C187.12,-47.75 178.59,-46.85 170.22,-45.95"/>
<polygon fill="#63b8ff" stroke="#63b8ff" points="195.41,-52.15 205.73,-49.73 196.15,-45.19 195.41,-52.15"/>
</a>
</g>
</g>
</g>
</svg>
