<?xml version="1.0" encoding="UTF-8" standalone="no"?>
<!DOCTYPE svg PUBLIC "-//W3C//DTD SVG 1.1//EN"
 "http://www.w3.org/Graphics/SVG/1.1/DTD/svg11.dtd">
<!-- Generated by graphviz version 2.43.0 (0)
 -->
<!-- Title: FileUrlSupport::captureScreenshot Pages: 1 -->
<svg width="589pt" height="86pt"
 viewBox="0.00 0.00 589.00 86.00" xmlns="http://www.w3.org/2000/svg" xmlns:xlink="http://www.w3.org/1999/xlink">
<g id="graph0" class="graph" transform="scale(1 1) rotate(0) translate(4 82)">
<title>FileUrlSupport::captureScreenshot</title>
<!-- Node1 -->
<g id="Node000001" class="node">
<title>Node1</title>
<g id="a_Node000001"><a xlink:title="Capture screenshot of current video frame.">
<polygon fill="#999999" stroke="#666666" points="182,-45.5 0,-45.5 0,-26.5 182,-26.5 182,-45.5"/>
<text text-anchor="middle" x="91" y="-33.5" font-family="Helvetica,sans-Serif" font-size="10.00">FileUrlSupport::captureScreenshot</text>
</a>
</g>
</g>
<!-- Node2 -->
<g id="Node000002" class="node">
<title>Node2</title>
<g id="a_Node000002"><a xlink:href="../../d8/d04/classFileUrlSupport.html#a4a53dcf6c01c360aa8c9fe15467306db" target="_top" xlink:title="Capture screenshot at specific position.">
<polygon fill="white" stroke="#666666" points="400,-73 218,-73 218,-43 400,-43 400,-73"/>
<text text-anchor="start" x="226" y="-61" font-family="Helvetica,sans-Serif" font-size="10.00">FileUrlSupport::captureScreenshot</text>
<text text-anchor="middle" x="309" y="-50" font-family="Helvetica,sans-Serif" font-size="10.00">AtPosition</text>
</a>
</g>
</g>
<!-- Node1&#45;&gt;Node2 -->
<g id="edge1_Node000001_Node000002" class="edge">
<title>Node1&#45;&gt;Node2</title>
<g id="a_edge1_Node000001_Node000002"><a xlink:title=" ">
<path fill="none" stroke="#63b8ff" d="M182.04,-45.17C190.53,-46.04 199.16,-46.91 207.74,-47.79"/>
<polygon fill="#63b8ff" stroke="#63b8ff" points="207.46,-51.28 217.76,-48.81 208.17,-44.31 207.46,-51.28"/>
</a>
</g>
</g>
<!-- Node4 -->
<g id="Node000004" class="node">
<title>Node4</title>
<g id="a_Node000004"><a xlink:href="../../d8/d04/classFileUrlSupport.html#aed926a58b49dd5fdf0d5b418c3d95b7b" target="_top" xlink:title="Emitted when screenshot capture fails.">
<polygon fill="white" stroke="#666666" points="581,-30 436,-30 436,0 581,0 581,-30"/>
<text text-anchor="start" x="444" y="-18" font-family="Helvetica,sans-Serif" font-size="10.00">FileUrlSupport::screenshot</text>
<text text-anchor="middle" x="508.5" y="-7" font-family="Helvetica,sans-Serif" font-size="10.00">CaptureFailed</text>
</a>
</g>
</g>
<!-- Node1&#45;&gt;Node4 -->
<g id="edge4_Node000001_Node000004" class="edge">
<title>Node1&#45;&gt;Node4</title>
<g id="a_edge4_Node000001_Node000004"><a xlink:title=" ">
<path fill="none" stroke="#63b8ff" d="M182.16,-31.44C254.61,-27.78 355.52,-22.68 425.67,-19.14"/>
<polygon fill="#63b8ff" stroke="#63b8ff" points="425.98,-22.62 435.79,-18.62 425.63,-15.63 425.98,-22.62"/>
</a>
</g>
</g>
<!-- Node3 -->
<g id="Node000003" class="node">
<title>Node3</title>
<g id="a_Node000003"><a xlink:href="../../d8/d04/classFileUrlSupport.html#a583921dd1f4e7e68fad5e96d82df34ff" target="_top" xlink:title="Emitted when screenshot is captured.">
<polygon fill="white" stroke="#666666" points="581,-78 436,-78 436,-48 581,-48 581,-78"/>
<text text-anchor="start" x="444" y="-66" font-family="Helvetica,sans-Serif" font-size="10.00">FileUrlSupport::screenshot</text>
<text text-anchor="middle" x="508.5" y="-55" font-family="Helvetica,sans-Serif" font-size="10.00">Captured</text>
</a>
</g>
</g>
<!-- Node2&#45;&gt;Node3 -->
<g id="edge2_Node000002_Node000003" class="edge">
<title>Node2&#45;&gt;Node3</title>
<g id="a_edge2_Node000002_Node000003"><a xlink:title=" ">
<path fill="none" stroke="#63b8ff" d="M400.08,-60.28C408.62,-60.5 417.24,-60.71 425.69,-60.93"/>
<polygon fill="#63b8ff" stroke="#63b8ff" points="425.81,-64.43 435.89,-61.19 425.99,-57.44 425.81,-64.43"/>
</a>
</g>
</g>
<!-- Node2&#45;&gt;Node4 -->
<g id="edge3_Node000002_Node000004" class="edge">
<title>Node2&#45;&gt;Node4</title>
<g id="a_edge3_Node000002_Node000004"><a xlink:title=" ">
<path fill="none" stroke="#63b8ff" d="M379.08,-42.96C395.01,-39.49 412.09,-35.77 428.41,-32.22"/>
<polygon fill="#63b8ff" stroke="#63b8ff" points="429.44,-35.58 438.46,-30.03 427.95,-28.74 429.44,-35.58"/>
</a>
</g>
</g>
</g>
</svg>
