<?xml version="1.0" encoding="UTF-8" standalone="no"?>
<!DOCTYPE svg PUBLIC "-//W3C//DTD SVG 1.1//EN"
 "http://www.w3.org/Graphics/SVG/1.1/DTD/svg11.dtd">
<!-- Generated by graphviz version 2.43.0 (0)
 -->
<!-- Title: FileUrlSupport::openUrl Pages: 1 -->
<!--zoomable 364 -->

<svg id="main" version="1.1" xmlns="http://www.w3.org/2000/svg" xmlns:xlink="http://www.w3.org/1999/xlink" xml:space="preserve" onload="init(evt)">
<style type="text/css"><![CDATA[
.node, .edge {opacity: 0.7;}
.node.selected, .edge.selected {opacity: 1;}
.edge:hover path { stroke: red; }
.edge:hover polygon { stroke: red; fill: red; }
]]></style>

<defs>
  <circle id="rim" cx="0" cy="0" r="7"/>
  <circle id="rim2" cx="0" cy="0" r="3.5"/>
  <g id="zoomPlus">
    <use xlink:href="#rim" fill="#404040"><set attributeName="fill" to="#808080" begin="zoomplus.mouseover" end="zoomplus.mouseout"/></use>
    <path d="M-4,0h8M0,-4v8" fill="none" stroke="white" stroke-width="1.5" pointer-events="none"/>
  </g>
  <g id="zoomMin">
    <use xlink:href="#rim" fill="#404040"><set attributeName="fill" to="#808080" begin="zoomminus.mouseover" end="zoomminus.mouseout"/></use>
    <path d="M-4,0h8" fill="none" stroke="white" stroke-width="1.5" pointer-events="none"/>
  </g>
  <g id="arrowUp" transform="translate(30 24)">
    <use xlink:href="#rim"/>
    <path pointer-events="none" fill="none" stroke="white" stroke-width="1.5" d="M0,-3.0v7 M-2.5,-0.5L0,-3.0L2.5,-0.5"/>
  </g>
  <g id="arrowRight" transform="rotate(90) translate(36 -43)">
    <use xlink:href="#rim"/>
    <path pointer-events="none" fill="none" stroke="white" stroke-width="1.5" d="M0,-3.0v7 M-2.5,-0.5L0,-3.0L2.5,-0.5"/>
  </g>
  <g id="arrowDown" transform="rotate(180) translate(-30 -48)">
    <use xlink:href="#rim"/>
    <path pointer-events="none" fill="none" stroke="white" stroke-width="1.5" d="M0,-3.0v7 M-2.5,-0.5L0,-3.0L2.5,-0.5"/>
  </g>
  <g id="arrowLeft" transform="rotate(270) translate(-36 17)">
    <use xlink:href="#rim"/>
    <path pointer-events="none" fill="none" stroke="white" stroke-width="1.5" d="M0,-3.0v7 M-2.5,-0.5L0,-3.0L2.5,-0.5"/>
  </g>
  <g id="resetDef">
    <use xlink:href="#rim2" fill="#404040"><set attributeName="fill" to="#808080" begin="reset.mouseover" end="reset.mouseout"/></use>
  </g>
</defs>
<script type="application/ecmascript">
var viewWidth = 751;
var viewHeight = 364;
var sectionId = 'dynsection-23';
</script>
<script type="application/ecmascript" xlink:href="../../svg.min.js"/>
<svg id="graph" class="graph">
<g id="viewport">
<title>FileUrlSupport::openUrl</title>
<!-- Node1 -->
<g id="Node000001" class="node">
<title>Node1</title>
<g id="a_Node000001"><a xlink:title="Handle URL open request.">
<polygon fill="#999999" stroke="#666666" points="130,-170.5 0,-170.5 0,-151.5 130,-151.5 130,-170.5"/>
<text text-anchor="middle" x="65" y="-158.5" font-family="Helvetica,sans-Serif" font-size="10.00">FileUrlSupport::openUrl</text>
</a>
</g>
</g>
<!-- Node2 -->
<g id="Node000002" class="node">
<title>Node2</title>
<g id="a_Node000002"><a xlink:href="../../d8/d04/classFileUrlSupport.html#ae40a5216c2e2f98b8a943086cc6852f6" target="_top" xlink:title="Load media from URL or stream.">
<polygon fill="white" stroke="#666666" points="323,-170.5 166,-170.5 166,-151.5 323,-151.5 323,-170.5"/>
<text text-anchor="middle" x="244.5" y="-158.5" font-family="Helvetica,sans-Serif" font-size="10.00">FileUrlSupport::loadMediaUrl</text>
</a>
</g>
</g>
<!-- Node1&#45;&gt;Node2 -->
<g id="edge1_Node000001_Node000002" class="edge">
<title>Node1&#45;&gt;Node2</title>
<g id="a_edge1_Node000001_Node000002"><a xlink:title=" ">
<path fill="none" stroke="#63b8ff" d="M130.08,-161C138.43,-161 147.1,-161 155.75,-161"/>
<polygon fill="#63b8ff" stroke="#63b8ff" points="155.89,-164.5 165.89,-161 155.89,-157.5 155.89,-164.5"/>
</a>
</g>
</g>
<!-- Node3 -->
<g id="Node000003" class="node">
<title>Node3</title>
<g id="a_Node000003"><a xlink:href="../../d8/d04/classFileUrlSupport.html#a3df7473233455bcf79dac20b4f1d28c9" target="_top" xlink:title="Check if URL is a local file.">
<polygon fill="white" stroke="#666666" points="524,-266.5 367,-266.5 367,-247.5 524,-247.5 524,-266.5"/>
<text text-anchor="middle" x="445.5" y="-254.5" font-family="Helvetica,sans-Serif" font-size="10.00">FileUrlSupport::isLocalFileUrl</text>
</a>
</g>
</g>
<!-- Node2&#45;&gt;Node3 -->
<g id="edge2_Node000002_Node000003" class="edge">
<title>Node2&#45;&gt;Node3</title>
<g id="a_edge2_Node000002_Node000003"><a xlink:title=" ">
<path fill="none" stroke="#63b8ff" d="M256.22,-170.57C275.39,-187.17 317.46,-221.2 359,-239 363.97,-241.13 369.21,-243.01 374.55,-244.68"/>
<polygon fill="#63b8ff" stroke="#63b8ff" points="373.66,-248.07 384.24,-247.45 375.59,-241.34 373.66,-248.07"/>
</a>
</g>
</g>
<!-- Node4 -->
<g id="Node000004" class="node">
<title>Node4</title>
<g id="a_Node000004"><a xlink:href="../../d8/d04/classFileUrlSupport.html#adfa2738cd27f0ad1beecdaae4b8cf4b8" target="_top" xlink:title="Validate URL for streaming.">
<polygon fill="white" stroke="#666666" points="532,-229.5 359,-229.5 359,-210.5 532,-210.5 532,-229.5"/>
<text text-anchor="middle" x="445.5" y="-217.5" font-family="Helvetica,sans-Serif" font-size="10.00">FileUrlSupport::isValidStreamUrl</text>
</a>
</g>
</g>
<!-- Node2&#45;&gt;Node4 -->
<g id="edge3_Node000002_Node000004" class="edge">
<title>Node2&#45;&gt;Node4</title>
<g id="a_edge3_Node000002_Node000004"><a xlink:title=" ">
<path fill="none" stroke="#63b8ff" d="M269.1,-170.62C291.84,-179.62 327.36,-193 359,-202 366.97,-204.27 375.43,-206.39 383.81,-208.32"/>
<polygon fill="#63b8ff" stroke="#63b8ff" points="383.06,-211.73 393.58,-210.49 384.58,-204.9 383.06,-211.73"/>
</a>
</g>
</g>
<!-- Node5 -->
<g id="Node000005" class="node">
<title>Node5</title>
<g id="a_Node000005"><a xlink:href="../../d8/d04/classFileUrlSupport.html#a37b71fc93757ef83b9d21774b6253675" target="_top" xlink:title="Load media file with validation and auto subtitle detection.">
<polygon fill="white" stroke="#666666" points="525.5,-192.5 365.5,-192.5 365.5,-173.5 525.5,-173.5 525.5,-192.5"/>
<text text-anchor="middle" x="445.5" y="-180.5" font-family="Helvetica,sans-Serif" font-size="10.00">FileUrlSupport::loadMediaFile</text>
</a>
</g>
</g>
<!-- Node2&#45;&gt;Node5 -->
<g id="edge4_Node000002_Node000005" class="edge">
<title>Node2&#45;&gt;Node5</title>
<g id="a_edge4_Node000002_Node000005"><a xlink:title=" ">
<path fill="none" stroke="#63b8ff" d="M323.01,-169.57C333.51,-170.73 344.36,-171.93 355.05,-173.11"/>
<polygon fill="#63b8ff" stroke="#63b8ff" points="354.91,-176.62 365.24,-174.24 355.68,-169.66 354.91,-176.62"/>
</a>
</g>
</g>
<!-- Node14 -->
<g id="Node000014" class="node">
<title>Node14</title>
<g id="a_Node000014"><a xlink:href="../../d8/d04/classFileUrlSupport.html#a72c170b7e22a7be130a1e4f7c55015dc" target="_top" xlink:title="Emitted when media URL is successfully loaded.">
<polygon fill="white" stroke="#666666" points="514,-155 377,-155 377,-125 514,-125 514,-155"/>
<text text-anchor="start" x="385" y="-143" font-family="Helvetica,sans-Serif" font-size="10.00">FileUrlSupport::mediaUrl</text>
<text text-anchor="middle" x="445.5" y="-132" font-family="Helvetica,sans-Serif" font-size="10.00">Loaded</text>
</a>
</g>
</g>
<!-- Node2&#45;&gt;Node14 -->
<g id="edge13_Node000002_Node000014" class="edge">
<title>Node2&#45;&gt;Node14</title>
<g id="a_edge13_Node000002_Node000014"><a xlink:title=" ">
<path fill="none" stroke="#63b8ff" d="M323.01,-152.82C337.32,-151.31 352.28,-149.73 366.6,-148.22"/>
<polygon fill="#63b8ff" stroke="#63b8ff" points="367.33,-151.66 376.9,-147.13 366.59,-144.7 367.33,-151.66"/>
</a>
</g>
</g>
<!-- Node15 -->
<g id="Node000015" class="node">
<title>Node15</title>
<g id="a_Node000015"><a xlink:href="../../db/d09/structMediaInfo.html#a1d32d9c830bba685aa4c62e2017e065d" target="_top" xlink:title="Get formatted string representation.">
<polygon fill="white" stroke="#666666" points="500.5,-106.5 390.5,-106.5 390.5,-87.5 500.5,-87.5 500.5,-106.5"/>
<text text-anchor="middle" x="445.5" y="-94.5" font-family="Helvetica,sans-Serif" font-size="10.00">MediaInfo::toString</text>
</a>
</g>
</g>
<!-- Node2&#45;&gt;Node15 -->
<g id="edge14_Node000002_Node000015" class="edge">
<title>Node2&#45;&gt;Node15</title>
<g id="a_edge14_Node000002_Node000015"><a xlink:title=" ">
<path fill="none" stroke="#63b8ff" d="M266.89,-151.33C289.44,-141.43 326.17,-126.08 359,-116 367.45,-113.4 376.47,-111.01 385.36,-108.85"/>
<polygon fill="#63b8ff" stroke="#63b8ff" points="386.38,-112.21 395.32,-106.53 384.78,-105.4 386.38,-112.21"/>
</a>
</g>
</g>
<!-- Node16 -->
<g id="Node000016" class="node">
<title>Node16</title>
<g id="a_Node000016"><a xlink:href="../../d8/d04/classFileUrlSupport.html#aa0b5ff5500ed4fc180fa19facf4cac91" target="_top" xlink:title="Emitted when URL validation fails.">
<polygon fill="white" stroke="#666666" points="522,-69 369,-69 369,-39 522,-39 522,-69"/>
<text text-anchor="start" x="377" y="-57" font-family="Helvetica,sans-Serif" font-size="10.00">FileUrlSupport::urlValidation</text>
<text text-anchor="middle" x="445.5" y="-46" font-family="Helvetica,sans-Serif" font-size="10.00">Failed</text>
</a>
</g>
</g>
<!-- Node2&#45;&gt;Node16 -->
<g id="edge15_Node000002_Node000016" class="edge">
<title>Node2&#45;&gt;Node16</title>
<g id="a_edge15_Node000002_Node000016"><a xlink:title=" ">
<path fill="none" stroke="#63b8ff" d="M256.27,-151.24C275.53,-134.26 317.73,-99.19 359,-79 363.66,-76.72 368.56,-74.61 373.56,-72.66"/>
<polygon fill="#63b8ff" stroke="#63b8ff" points="375.08,-75.84 383.27,-69.12 372.68,-69.26 375.08,-75.84"/>
</a>
</g>
</g>
<!-- Node6 -->
<g id="Node000006" class="node">
<title>Node6</title>
<g id="a_Node000006"><a xlink:href="../../d8/d04/classFileUrlSupport.html#ac91a76d40860e8f1616a0f108c158368" target="_top" xlink:title="Auto&#45;detect and load subtitle files for media.">
<polygon fill="white" stroke="#666666" points="728.5,-356 582.5,-356 582.5,-326 728.5,-326 728.5,-356"/>
<text text-anchor="start" x="590.5" y="-344" font-family="Helvetica,sans-Serif" font-size="10.00">FileUrlSupport::autoDetect</text>
<text text-anchor="middle" x="655.5" y="-333" font-family="Helvetica,sans-Serif" font-size="10.00">Subtitles</text>
</a>
</g>
</g>
<!-- Node5&#45;&gt;Node6 -->
<g id="edge5_Node000005_Node000006" class="edge">
<title>Node5&#45;&gt;Node6</title>
<g id="a_edge5_Node000005_Node000006"><a xlink:title=" ">
<path fill="none" stroke="#63b8ff" d="M518.06,-192.57C523.13,-195.09 527.86,-198.19 532,-202 571.44,-238.23 529.51,-279.75 568,-317 569.86,-318.8 571.85,-320.47 573.93,-322.02"/>
<polygon fill="#63b8ff" stroke="#63b8ff" points="572.09,-324.99 582.41,-327.39 575.84,-319.08 572.09,-324.99"/>
</a>
</g>
</g>
<!-- Node7 -->
<g id="Node000007" class="node">
<title>Node7</title>
<g id="a_Node000007"><a xlink:href="../../d8/d04/classFileUrlSupport.html#a7273912ab01714993422b33594c560e1" target="_top" xlink:title="Extract detailed media information.">
<polygon fill="white" stroke="#666666" points="743,-307.5 568,-307.5 568,-288.5 743,-288.5 743,-307.5"/>
<text text-anchor="middle" x="655.5" y="-295.5" font-family="Helvetica,sans-Serif" font-size="10.00">FileUrlSupport::extractMediaInfo</text>
</a>
</g>
</g>
<!-- Node5&#45;&gt;Node7 -->
<g id="edge6_Node000005_Node000007" class="edge">
<title>Node5&#45;&gt;Node7</title>
<g id="a_edge6_Node000005_Node000007"><a xlink:title=" ">
<path fill="none" stroke="#63b8ff" d="M516.26,-192.62C521.91,-195.11 527.26,-198.19 532,-202 561.47,-225.64 538.5,-255.4 568,-279 570.1,-280.68 572.32,-282.22 574.63,-283.63"/>
<polygon fill="#63b8ff" stroke="#63b8ff" points="573.44,-286.96 583.93,-288.45 576.66,-280.74 573.44,-286.96"/>
</a>
</g>
</g>
<!-- Node8 -->
<g id="Node000008" class="node">
<title>Node8</title>
<g id="a_Node000008"><a xlink:href="../../d8/d04/classFileUrlSupport.html#af7ab89ece6edc9a56fb22a70b8b3a860" target="_top" xlink:title="Emitted when file validation fails.">
<polygon fill="white" stroke="#666666" points="733,-270 578,-270 578,-240 733,-240 733,-270"/>
<text text-anchor="start" x="586" y="-258" font-family="Helvetica,sans-Serif" font-size="10.00">FileUrlSupport::fileValidation</text>
<text text-anchor="middle" x="655.5" y="-247" font-family="Helvetica,sans-Serif" font-size="10.00">Failed</text>
</a>
</g>
</g>
<!-- Node5&#45;&gt;Node8 -->
<g id="edge7_Node000005_Node000008" class="edge">
<title>Node5&#45;&gt;Node8</title>
<g id="a_edge7_Node000005_Node000008"><a xlink:title=" ">
<path fill="none" stroke="#63b8ff" d="M506.11,-192.53C515.02,-195 523.92,-198.11 532,-202 550.51,-210.91 549.72,-221.61 568,-231 571.74,-232.92 575.66,-234.71 579.67,-236.36"/>
<polygon fill="#63b8ff" stroke="#63b8ff" points="578.57,-239.69 589.16,-239.98 581.07,-233.15 578.57,-239.69"/>
</a>
</g>
</g>
<!-- Node9 -->
<g id="Node000009" class="node">
<title>Node9</title>
<g id="a_Node000009"><a xlink:href="../../d8/d04/classFileUrlSupport.html#a65e03800e733f1147529109a2e1cc61b" target="_top" xlink:title="Get detailed validation error message.">
<polygon fill="white" stroke="#666666" points="733.5,-222 577.5,-222 577.5,-192 733.5,-192 733.5,-222"/>
<text text-anchor="start" x="585.5" y="-210" font-family="Helvetica,sans-Serif" font-size="10.00">FileUrlSupport::getValidation</text>
<text text-anchor="middle" x="655.5" y="-199" font-family="Helvetica,sans-Serif" font-size="10.00">ErrorMessage</text>
</a>
</g>
</g>
<!-- Node5&#45;&gt;Node9 -->
<g id="edge8_Node000005_Node000009" class="edge">
<title>Node5&#45;&gt;Node9</title>
<g id="a_edge8_Node000005_Node000009"><a xlink:title=" ">
<path fill="none" stroke="#63b8ff" d="M525.73,-192.14C539.31,-193.71 553.49,-195.34 567.26,-196.93"/>
<polygon fill="#63b8ff" stroke="#63b8ff" points="566.87,-200.41 577.21,-198.08 567.68,-193.46 566.87,-200.41"/>
</a>
</g>
</g>
<!-- Node10 -->
<g id="Node000010" class="node">
<title>Node10</title>
<g id="a_Node000010"><a xlink:href="../../d8/d04/classFileUrlSupport.html#ad7738c4718eeaa38962f9602ddc8dd2d" target="_top" xlink:title="Emitted when media file is successfully loaded.">
<polygon fill="white" stroke="#666666" points="725.5,-174 585.5,-174 585.5,-144 725.5,-144 725.5,-174"/>
<text text-anchor="start" x="593.5" y="-162" font-family="Helvetica,sans-Serif" font-size="10.00">FileUrlSupport::mediaFile</text>
<text text-anchor="middle" x="655.5" y="-151" font-family="Helvetica,sans-Serif" font-size="10.00">Loaded</text>
</a>
</g>
</g>
<!-- Node5&#45;&gt;Node10 -->
<g id="edge9_Node000005_Node000010" class="edge">
<title>Node5&#45;&gt;Node10</title>
<g id="a_edge9_Node000005_Node000010"><a xlink:title=" ">
<path fill="none" stroke="#63b8ff" d="M525.73,-173.86C541.99,-171.98 559.1,-170.01 575.36,-168.13"/>
<polygon fill="#63b8ff" stroke="#63b8ff" points="575.82,-171.6 585.35,-166.98 575.02,-164.65 575.82,-171.6"/>
</a>
</g>
</g>
<!-- Node11 -->
<g id="Node000011" class="node">
<title>Node11</title>
<g id="a_Node000011"><a xlink:href="../../d8/d04/classFileUrlSupport.html#acfbeabc31481ea545f51901ac09ba91f" target="_top" xlink:title="Emitted when media information is extracted.">
<polygon fill="white" stroke="#666666" points="726,-126 585,-126 585,-96 726,-96 726,-126"/>
<text text-anchor="start" x="593" y="-114" font-family="Helvetica,sans-Serif" font-size="10.00">FileUrlSupport::mediaInfo</text>
<text text-anchor="middle" x="655.5" y="-103" font-family="Helvetica,sans-Serif" font-size="10.00">Extracted</text>
</a>
</g>
</g>
<!-- Node5&#45;&gt;Node11 -->
<g id="edge10_Node000005_Node000011" class="edge">
<title>Node5&#45;&gt;Node11</title>
<g id="a_edge10_Node000005_Node000011"><a xlink:title=" ">
<path fill="none" stroke="#63b8ff" d="M506.11,-173.47C515.02,-171 523.92,-167.89 532,-164 550.51,-155.09 549.72,-144.39 568,-135 571.74,-133.08 575.66,-131.29 579.67,-129.64"/>
<polygon fill="#63b8ff" stroke="#63b8ff" points="581.07,-132.85 589.16,-126.02 578.57,-126.31 581.07,-132.85"/>
</a>
</g>
</g>
<!-- Node12 -->
<g id="Node000012" class="node">
<title>Node12</title>
<g id="a_Node000012"><a xlink:href="../../d8/d04/classFileUrlSupport.html#a980075a524997ae18169a318a803577b" target="_top" xlink:title="Emitted when subtitles are auto&#45;detected.">
<polygon fill="white" stroke="#666666" points="722.5,-78 588.5,-78 588.5,-48 722.5,-48 722.5,-78"/>
<text text-anchor="start" x="596.5" y="-66" font-family="Helvetica,sans-Serif" font-size="10.00">FileUrlSupport::subtitles</text>
<text text-anchor="middle" x="655.5" y="-55" font-family="Helvetica,sans-Serif" font-size="10.00">Detected</text>
</a>
</g>
</g>
<!-- Node5&#45;&gt;Node12 -->
<g id="edge11_Node000005_Node000012" class="edge">
<title>Node5&#45;&gt;Node12</title>
<g id="a_edge11_Node000005_Node000012"><a xlink:title=" ">
<path fill="none" stroke="#63b8ff" d="M516.26,-173.38C521.91,-170.89 527.26,-167.81 532,-164 561.47,-140.36 539.16,-111.4 568,-87 571.44,-84.09 575.21,-81.53 579.18,-79.28"/>
<polygon fill="#63b8ff" stroke="#63b8ff" points="580.76,-82.41 588.17,-74.84 577.65,-76.13 580.76,-82.41"/>
</a>
</g>
</g>
<!-- Node13 -->
<g id="Node000013" class="node">
<title>Node13</title>
<g id="a_Node000013"><a xlink:href="../../d8/d04/classFileUrlSupport.html#a5b172a8b83c71af482d59c49abbb6508" target="_top" xlink:title="Validate media file format and accessibility.">
<polygon fill="white" stroke="#666666" points="721,-30 590,-30 590,0 721,0 721,-30"/>
<text text-anchor="start" x="598" y="-18" font-family="Helvetica,sans-Serif" font-size="10.00">FileUrlSupport::validate</text>
<text text-anchor="middle" x="655.5" y="-7" font-family="Helvetica,sans-Serif" font-size="10.00">MediaFile</text>
</a>
</g>
</g>
<!-- Node5&#45;&gt;Node13 -->
<g id="edge12_Node000005_Node000013" class="edge">
<title>Node5&#45;&gt;Node13</title>
<g id="a_edge12_Node000005_Node000013"><a xlink:title=" ">
<path fill="none" stroke="#63b8ff" d="M518.57,-173.33C523.45,-170.82 528.01,-167.75 532,-164 574.12,-124.4 526.92,-79.68 568,-39 571.78,-35.26 576.09,-32.09 580.72,-29.4"/>
<polygon fill="#63b8ff" stroke="#63b8ff" points="582.56,-32.39 589.96,-24.81 579.45,-26.12 582.56,-32.39"/>
</a>
</g>
</g>
</g>
</svg>

<g id="navigator" transform="translate(0 0)" fill="#404254">
  <rect fill="#f2f5e9" fill-opacity="0.5" stroke="#606060" stroke-width=".5" x="0" y="0" width="60" height="60"/>
  <use id="zoomplus" xlink:href="#zoomPlus" x="17" y="9" onmousedown="handleZoom(evt,'in')"/>
  <use id="zoomminus" xlink:href="#zoomMin" x="42" y="9" onmousedown="handleZoom(evt,'out')"/>
  <use id="reset" xlink:href="#resetDef" x="30" y="36" onmousedown="handleReset()"/>
   <use id="arrowup" xlink:href="#arrowUp" x="0" y="0" onmousedown="handlePan(0,-1)"/>
  <use id="arrowright" xlink:href="#arrowRight" x="0" y="0" onmousedown="handlePan(1,0)"/>
  <use id="arrowdown" xlink:href="#arrowDown" x="0" y="0" onmousedown="handlePan(0,1)"/>
  <use id="arrowleft" xlink:href="#arrowLeft" x="0" y="0" onmousedown="handlePan(-1,0)"/>
</g>
<svg viewBox="0 0 15 15" width="100%" height="30px" preserveAspectRatio="xMaxYMin meet">
 <g id="arrow_out" transform="scale(0.3 0.3)">
  <a xlink:href="classFileUrlSupport_a305f70beca6d625e0043d1798d25cfbb_cgraph_org.svg" target="_base">
   <rect id="button" ry="5" rx="5" y="6" x="6" height="38" width="38"
        fill="#f2f5e9" fill-opacity="0.5" stroke="#606060" stroke-width="1.0"/>
   <path id="arrow"
     d="M 11.500037,31.436501 C 11.940474,20.09759 22.043105,11.32322 32.158766,21.979434 L 37.068811,17.246167 C 37.068811,17.246167 37.088388,32 37.088388,32 L 22.160133,31.978069 C 22.160133,31.978069 26.997745,27.140456 26.997745,27.140456 C 18.528582,18.264221 13.291696,25.230495 11.500037,31.436501 z"
     style="fill:#404040;"/>
  </a>
 </g>
</svg>

<style type='text/css'>
<![CDATA[
[data-mouse-over-selected='false'] { opacity: 0.7; }
[data-mouse-over-selected='true']  { opacity: 1.0; }
]]>
</style>
<script type="application/ecmascript"><![CDATA[
document.addEventListener('DOMContentLoaded', (event) => {
  highlightEdges();
  highlightAdjacentNodes();
});
]]></script>
</svg>
