<?xml version="1.0" encoding="UTF-8" standalone="no"?>
<!DOCTYPE svg PUBLIC "-//W3C//DTD SVG 1.1//EN"
 "http://www.w3.org/Graphics/SVG/1.1/DTD/svg11.dtd">
<!-- Generated by graphviz version 2.43.0 (0)
 -->
<!-- Title: FileUrlSupport::shutdown Pages: 1 -->
<svg width="278pt" height="45pt"
 viewBox="0.00 0.00 278.00 45.00" xmlns="http://www.w3.org/2000/svg" xmlns:xlink="http://www.w3.org/1999/xlink">
<g id="graph0" class="graph" transform="scale(1 1) rotate(0) translate(4 41)">
<title>FileUrlSupport::shutdown</title>
<!-- Node1 -->
<g id="Node000001" class="node">
<title>Node1</title>
<g id="a_Node000001"><a xlink:title="Shutdown the component and cleanup resources.">
<polygon fill="#999999" stroke="#666666" points="139,-19 0,-19 0,0 139,0 139,-19"/>
<text text-anchor="middle" x="69.5" y="-7" font-family="Helvetica,sans-Serif" font-size="10.00">FileUrlSupport::shutdown</text>
</a>
</g>
</g>
<!-- Node2 -->
<g id="Node000002" class="node">
<title>Node2</title>
<g id="a_Node000002"><a xlink:href="../../db/d09/structMediaInfo.html#a7defc543ad8eb09469ecc4d720f522ad" target="_top" xlink:title="Clear all media information.">
<polygon fill="white" stroke="#666666" points="270,-19 175,-19 175,0 270,0 270,-19"/>
<text text-anchor="middle" x="222.5" y="-7" font-family="Helvetica,sans-Serif" font-size="10.00">MediaInfo::clear</text>
</a>
</g>
</g>
<!-- Node1&#45;&gt;Node2 -->
<g id="edge1_Node000001_Node000002" class="edge">
<title>Node1&#45;&gt;Node2</title>
<g id="a_edge1_Node000001_Node000002"><a xlink:title=" ">
<path fill="none" stroke="#63b8ff" d="M139.37,-9.5C147.79,-9.5 156.33,-9.5 164.55,-9.5"/>
<polygon fill="#63b8ff" stroke="#63b8ff" points="164.76,-13 174.76,-9.5 164.76,-6 164.76,-13"/>
</a>
</g>
</g>
<!-- Node2&#45;&gt;Node2 -->
<g id="edge2_Node000002_Node000002" class="edge">
<title>Node2&#45;&gt;Node2</title>
<g id="a_edge2_Node000002_Node000002"><a xlink:title=" ">
<path fill="none" stroke="#63b8ff" d="M199.07,-19.08C187.68,-27.73 195.48,-37 222.5,-37 240.23,-37 249.69,-33.01 250.87,-27.82"/>
<polygon fill="#63b8ff" stroke="#63b8ff" points="253.9,-26.06 245.93,-19.08 247.81,-29.51 253.9,-26.06"/>
</a>
</g>
</g>
</g>
</svg>
