<?xml version="1.0" encoding="UTF-8" standalone="no"?>
<!DOCTYPE svg PUBLIC "-//W3C//DTD SVG 1.1//EN"
 "http://www.w3.org/Graphics/SVG/1.1/DTD/svg11.dtd">
<!-- Generated by graphviz version 2.43.0 (0)
 -->
<!-- Title: FileUrlSupport::canHandleMimeData Pages: 1 -->
<svg width="360pt" height="64pt"
 viewBox="0.00 0.00 360.00 64.00" xmlns="http://www.w3.org/2000/svg" xmlns:xlink="http://www.w3.org/1999/xlink">
<g id="graph0" class="graph" transform="scale(1 1) rotate(0) translate(4 60)">
<title>FileUrlSupport::canHandleMimeData</title>
<!-- Node1 -->
<g id="Node000001" class="node">
<title>Node1</title>
<g id="a_Node000001"><a xlink:title="Check if mime data contains supported media files.">
<polygon fill="#999999" stroke="#666666" points="143,-42.5 0,-42.5 0,-12.5 143,-12.5 143,-42.5"/>
<text text-anchor="start" x="8" y="-30.5" font-family="Helvetica,sans-Serif" font-size="10.00">FileUrlSupport::canHandle</text>
<text text-anchor="middle" x="71.5" y="-19.5" font-family="Helvetica,sans-Serif" font-size="10.00">MimeData</text>
</a>
</g>
</g>
<!-- Node2 -->
<g id="Node000002" class="node">
<title>Node2</title>
<g id="a_Node000002"><a xlink:href="../../d8/d04/classFileUrlSupport.html#a3df7473233455bcf79dac20b4f1d28c9" target="_top" xlink:title="Check if URL is a local file.">
<polygon fill="white" stroke="#666666" points="344,-56 187,-56 187,-37 344,-37 344,-56"/>
<text text-anchor="middle" x="265.5" y="-44" font-family="Helvetica,sans-Serif" font-size="10.00">FileUrlSupport::isLocalFileUrl</text>
</a>
</g>
</g>
<!-- Node1&#45;&gt;Node2 -->
<g id="edge1_Node000001_Node000002" class="edge">
<title>Node1&#45;&gt;Node2</title>
<g id="a_edge1_Node000001_Node000002"><a xlink:title=" ">
<path fill="none" stroke="#63b8ff" d="M143.18,-34.49C154.06,-35.57 165.42,-36.7 176.63,-37.8"/>
<polygon fill="#63b8ff" stroke="#63b8ff" points="176.56,-41.31 186.86,-38.82 177.25,-34.35 176.56,-41.31"/>
</a>
</g>
</g>
<!-- Node3 -->
<g id="Node000003" class="node">
<title>Node3</title>
<g id="a_Node000003"><a xlink:href="../../d8/d04/classFileUrlSupport.html#adfa2738cd27f0ad1beecdaae4b8cf4b8" target="_top" xlink:title="Validate URL for streaming.">
<polygon fill="white" stroke="#666666" points="352,-19 179,-19 179,0 352,0 352,-19"/>
<text text-anchor="middle" x="265.5" y="-7" font-family="Helvetica,sans-Serif" font-size="10.00">FileUrlSupport::isValidStreamUrl</text>
</a>
</g>
</g>
<!-- Node1&#45;&gt;Node3 -->
<g id="edge2_Node000001_Node000003" class="edge">
<title>Node1&#45;&gt;Node3</title>
<g id="a_edge2_Node000001_Node000003"><a xlink:title=" ">
<path fill="none" stroke="#63b8ff" d="M143.18,-20.87C151.55,-20.09 160.21,-19.28 168.86,-18.47"/>
<polygon fill="#63b8ff" stroke="#63b8ff" points="169.36,-21.93 178.99,-17.52 168.71,-14.97 169.36,-21.93"/>
</a>
</g>
</g>
</g>
</svg>
