<?xml version="1.0" encoding="UTF-8" standalone="no"?>
<!DOCTYPE svg PUBLIC "-//W3C//DTD SVG 1.1//EN"
 "http://www.w3.org/Graphics/SVG/1.1/DTD/svg11.dtd">
<!-- Generated by graphviz version 2.43.0 (0)
 -->
<!-- Title: PlaylistWidget::playlistModified Pages: 1 -->
<!--zoomable 198 -->

<svg id="main" version="1.1" xmlns="http://www.w3.org/2000/svg" xmlns:xlink="http://www.w3.org/1999/xlink" xml:space="preserve" onload="init(evt)">
<style type="text/css"><![CDATA[
.node, .edge {opacity: 0.7;}
.node.selected, .edge.selected {opacity: 1;}
.edge:hover path { stroke: red; }
.edge:hover polygon { stroke: red; fill: red; }
]]></style>

<defs>
  <circle id="rim" cx="0" cy="0" r="7"/>
  <circle id="rim2" cx="0" cy="0" r="3.5"/>
  <g id="zoomPlus">
    <use xlink:href="#rim" fill="#404040"><set attributeName="fill" to="#808080" begin="zoomplus.mouseover" end="zoomplus.mouseout"/></use>
    <path d="M-4,0h8M0,-4v8" fill="none" stroke="white" stroke-width="1.5" pointer-events="none"/>
  </g>
  <g id="zoomMin">
    <use xlink:href="#rim" fill="#404040"><set attributeName="fill" to="#808080" begin="zoomminus.mouseover" end="zoomminus.mouseout"/></use>
    <path d="M-4,0h8" fill="none" stroke="white" stroke-width="1.5" pointer-events="none"/>
  </g>
  <g id="arrowUp" transform="translate(30 24)">
    <use xlink:href="#rim"/>
    <path pointer-events="none" fill="none" stroke="white" stroke-width="1.5" d="M0,-3.0v7 M-2.5,-0.5L0,-3.0L2.5,-0.5"/>
  </g>
  <g id="arrowRight" transform="rotate(90) translate(36 -43)">
    <use xlink:href="#rim"/>
    <path pointer-events="none" fill="none" stroke="white" stroke-width="1.5" d="M0,-3.0v7 M-2.5,-0.5L0,-3.0L2.5,-0.5"/>
  </g>
  <g id="arrowDown" transform="rotate(180) translate(-30 -48)">
    <use xlink:href="#rim"/>
    <path pointer-events="none" fill="none" stroke="white" stroke-width="1.5" d="M0,-3.0v7 M-2.5,-0.5L0,-3.0L2.5,-0.5"/>
  </g>
  <g id="arrowLeft" transform="rotate(270) translate(-36 17)">
    <use xlink:href="#rim"/>
    <path pointer-events="none" fill="none" stroke="white" stroke-width="1.5" d="M0,-3.0v7 M-2.5,-0.5L0,-3.0L2.5,-0.5"/>
  </g>
  <g id="resetDef">
    <use xlink:href="#rim2" fill="#404040"><set attributeName="fill" to="#808080" begin="reset.mouseover" end="reset.mouseout"/></use>
  </g>
</defs>
<script type="application/ecmascript">
var viewWidth = 525;
var viewHeight = 198;
var sectionId = 'dynsection-10';
</script>
<script type="application/ecmascript" xlink:href="../../svg.min.js"/>
<svg id="graph" class="graph">
<g id="viewport">
<title>PlaylistWidget::playlistModified</title>
<!-- Node1 -->
<g id="Node000001" class="node">
<title>Node1</title>
<g id="a_Node000001"><a xlink:title="Emitted when playlist is modified.">
<polygon fill="#999999" stroke="#666666" points="517,-115.5 388,-115.5 388,-85.5 517,-85.5 517,-115.5"/>
<text text-anchor="start" x="396" y="-103.5" font-family="Helvetica,sans-Serif" font-size="10.00">PlaylistWidget::playlist</text>
<text text-anchor="middle" x="452.5" y="-92.5" font-family="Helvetica,sans-Serif" font-size="10.00">Modified</text>
</a>
</g>
</g>
<!-- Node2 -->
<g id="Node000002" class="node">
<title>Node2</title>
<g id="a_Node000002"><a xlink:href="../../db/d32/classPlaylistWidget.html#a85fad8a2ebc2902dcca23c300250c94f" target="_top" xlink:title="Add files to current playlist.">
<polygon fill="white" stroke="#666666" points="332.5,-190 198.5,-190 198.5,-171 332.5,-171 332.5,-190"/>
<text text-anchor="middle" x="265.5" y="-178" font-family="Helvetica,sans-Serif" font-size="10.00">PlaylistWidget::addFiles</text>
</a>
</g>
</g>
<!-- Node1&#45;&gt;Node2 -->
<g id="edge1_Node000001_Node000002" class="edge">
<title>Node1&#45;&gt;Node2</title>
<g id="a_edge1_Node000001_Node000002"><a xlink:title=" ">
<path fill="none" stroke="#63b8ff" d="M423.77,-121.49C404.55,-135.07 377.87,-152.09 352,-162.5 343.56,-165.9 334.37,-168.69 325.26,-170.97"/>
<polygon fill="#63b8ff" stroke="#63b8ff" points="425.97,-124.21 432.04,-115.53 421.88,-118.53 425.97,-124.21"/>
</a>
</g>
</g>
<!-- Node4 -->
<g id="Node000004" class="node">
<title>Node4</title>
<g id="a_Node000004"><a xlink:href="../../db/d32/classPlaylistWidget.html#aa28add15e39260b26694c6bccd2e75fe" target="_top" xlink:title="Clear current playlist.">
<polygon fill="white" stroke="#666666" points="342,-153 189,-153 189,-134 342,-134 342,-153"/>
<text text-anchor="middle" x="265.5" y="-141" font-family="Helvetica,sans-Serif" font-size="10.00">PlaylistWidget::clearPlaylist</text>
</a>
</g>
</g>
<!-- Node1&#45;&gt;Node4 -->
<g id="edge3_Node000001_Node000004" class="edge">
<title>Node1&#45;&gt;Node4</title>
<g id="a_edge3_Node000001_Node000004"><a xlink:title=" ">
<path fill="none" stroke="#63b8ff" d="M380.17,-117.87C370.7,-120.13 361.12,-122.39 352,-124.5 338.37,-127.66 323.5,-131 310.03,-133.99"/>
<polygon fill="#63b8ff" stroke="#63b8ff" points="381.06,-121.26 389.97,-115.52 379.43,-114.45 381.06,-121.26"/>
</a>
</g>
</g>
<!-- Node5 -->
<g id="Node000005" class="node">
<title>Node5</title>
<g id="a_Node000005"><a xlink:href="../../db/d32/classPlaylistWidget.html#ac70f4918e5edcb76cf22185ccb8b2d3c" target="_top" xlink:title="Remove selected files from playlist.">
<polygon fill="white" stroke="#666666" points="352,-115.5 179,-115.5 179,-85.5 352,-85.5 352,-115.5"/>
<text text-anchor="start" x="187" y="-103.5" font-family="Helvetica,sans-Serif" font-size="10.00">PlaylistWidget::removeSelected</text>
<text text-anchor="middle" x="265.5" y="-92.5" font-family="Helvetica,sans-Serif" font-size="10.00">Files</text>
</a>
</g>
</g>
<!-- Node1&#45;&gt;Node5 -->
<g id="edge4_Node000001_Node000005" class="edge">
<title>Node1&#45;&gt;Node5</title>
<g id="a_edge4_Node000001_Node000005"><a xlink:title=" ">
<path fill="none" stroke="#63b8ff" d="M377.72,-100.5C369.32,-100.5 360.71,-100.5 352.18,-100.5"/>
<polygon fill="#63b8ff" stroke="#63b8ff" points="377.83,-104 387.83,-100.5 377.83,-97 377.83,-104"/>
</a>
</g>
</g>
<!-- Node6 -->
<g id="Node000006" class="node">
<title>Node6</title>
<g id="a_Node000006"><a xlink:href="../../db/d32/classPlaylistWidget.html#abba9b7b52a32117cc0ea5dd469cb69fe" target="_top" xlink:title="Rename current playlist.">
<polygon fill="white" stroke="#666666" points="349,-67.5 182,-67.5 182,-37.5 349,-37.5 349,-67.5"/>
<text text-anchor="start" x="190" y="-55.5" font-family="Helvetica,sans-Serif" font-size="10.00">PlaylistWidget::renameCurrent</text>
<text text-anchor="middle" x="265.5" y="-44.5" font-family="Helvetica,sans-Serif" font-size="10.00">Playlist</text>
</a>
</g>
</g>
<!-- Node1&#45;&gt;Node6 -->
<g id="edge5_Node000001_Node000006" class="edge">
<title>Node1&#45;&gt;Node6</title>
<g id="a_edge5_Node000001_Node000006"><a xlink:title=" ">
<path fill="none" stroke="#63b8ff" d="M383.74,-82.92C364.24,-77.86 343.16,-72.39 324.32,-67.5"/>
<polygon fill="#63b8ff" stroke="#63b8ff" points="382.91,-86.32 393.47,-85.44 384.67,-79.54 382.91,-86.32"/>
</a>
</g>
</g>
<!-- Node7 -->
<g id="Node000007" class="node">
<title>Node7</title>
<g id="a_Node000007"><a xlink:href="../../db/d32/classPlaylistWidget.html#a082d6c5682b72c9de56231d5575ceb4b" target="_top" xlink:title="Shuffle current playlist.">
<polygon fill="white" stroke="#666666" points="346.5,-19 184.5,-19 184.5,0 346.5,0 346.5,-19"/>
<text text-anchor="middle" x="265.5" y="-7" font-family="Helvetica,sans-Serif" font-size="10.00">PlaylistWidget::shufflePlaylist</text>
</a>
</g>
</g>
<!-- Node1&#45;&gt;Node7 -->
<g id="edge6_Node000001_Node000007" class="edge">
<title>Node1&#45;&gt;Node7</title>
<g id="a_edge6_Node000001_Node000007"><a xlink:title=" ">
<path fill="none" stroke="#63b8ff" d="M427.61,-78.86C408.47,-62.67 380.25,-41.2 352,-28.5 343.4,-24.63 333.95,-21.53 324.57,-19.04"/>
<polygon fill="#63b8ff" stroke="#63b8ff" points="425.37,-81.56 435.22,-85.44 429.94,-76.26 425.37,-81.56"/>
</a>
</g>
</g>
<!-- Node3 -->
<g id="Node000003" class="node">
<title>Node3</title>
<g id="a_Node000003"><a xlink:href="../../db/d32/classPlaylistWidget.html#a05c626e1d0984e9746ef6a8ef5f0e34c" target="_top" xlink:title=" ">
<polygon fill="white" stroke="#666666" points="143,-190 0,-190 0,-171 143,-171 143,-190"/>
<text text-anchor="middle" x="71.5" y="-178" font-family="Helvetica,sans-Serif" font-size="10.00">PlaylistWidget::dropEvent</text>
</a>
</g>
</g>
<!-- Node2&#45;&gt;Node3 -->
<g id="edge2_Node000002_Node000003" class="edge">
<title>Node2&#45;&gt;Node3</title>
<g id="a_edge2_Node000002_Node000003"><a xlink:title=" ">
<path fill="none" stroke="#63b8ff" d="M188.28,-180.5C173.44,-180.5 157.94,-180.5 143.29,-180.5"/>
<polygon fill="#63b8ff" stroke="#63b8ff" points="188.42,-184 198.42,-180.5 188.42,-177 188.42,-184"/>
</a>
</g>
</g>
</g>
</svg>

<g id="navigator" transform="translate(0 0)" fill="#404254">
  <rect fill="#f2f5e9" fill-opacity="0.5" stroke="#606060" stroke-width=".5" x="0" y="0" width="60" height="60"/>
  <use id="zoomplus" xlink:href="#zoomPlus" x="17" y="9" onmousedown="handleZoom(evt,'in')"/>
  <use id="zoomminus" xlink:href="#zoomMin" x="42" y="9" onmousedown="handleZoom(evt,'out')"/>
  <use id="reset" xlink:href="#resetDef" x="30" y="36" onmousedown="handleReset()"/>
   <use id="arrowup" xlink:href="#arrowUp" x="0" y="0" onmousedown="handlePan(0,-1)"/>
  <use id="arrowright" xlink:href="#arrowRight" x="0" y="0" onmousedown="handlePan(1,0)"/>
  <use id="arrowdown" xlink:href="#arrowDown" x="0" y="0" onmousedown="handlePan(0,1)"/>
  <use id="arrowleft" xlink:href="#arrowLeft" x="0" y="0" onmousedown="handlePan(-1,0)"/>
</g>
<svg viewBox="0 0 15 15" width="100%" height="30px" preserveAspectRatio="xMaxYMin meet">
 <g id="arrow_out" transform="scale(0.3 0.3)">
  <a xlink:href="classPlaylistWidget_a9015c58228879a0d343ad9b5761070cf_icgraph_org.svg" target="_base">
   <rect id="button" ry="5" rx="5" y="6" x="6" height="38" width="38"
        fill="#f2f5e9" fill-opacity="0.5" stroke="#606060" stroke-width="1.0"/>
   <path id="arrow"
     d="M 11.500037,31.436501 C 11.940474,20.09759 22.043105,11.32322 32.158766,21.979434 L 37.068811,17.246167 C 37.068811,17.246167 37.088388,32 37.088388,32 L 22.160133,31.978069 C 22.160133,31.978069 26.997745,27.140456 26.997745,27.140456 C 18.528582,18.264221 13.291696,25.230495 11.500037,31.436501 z"
     style="fill:#404040;"/>
  </a>
 </g>
</svg>

<style type='text/css'>
<![CDATA[
[data-mouse-over-selected='false'] { opacity: 0.7; }
[data-mouse-over-selected='true']  { opacity: 1.0; }
]]>
</style>
<script type="application/ecmascript"><![CDATA[
document.addEventListener('DOMContentLoaded', (event) => {
  highlightEdges();
  highlightAdjacentNodes();
});
]]></script>
</svg>
