<?xml version="1.0" encoding="UTF-8" standalone="no"?>
<!DOCTYPE svg PUBLIC "-//W3C//DTD SVG 1.1//EN"
 "http://www.w3.org/Graphics/SVG/1.1/DTD/svg11.dtd">
<!-- Generated by graphviz version 2.43.0 (0)
 -->
<!-- Title: PlaylistWidget::setPlaylistManager Pages: 1 -->
<svg width="563pt" height="38pt"
 viewBox="0.00 0.00 563.00 38.00" xmlns="http://www.w3.org/2000/svg" xmlns:xlink="http://www.w3.org/1999/xlink">
<g id="graph0" class="graph" transform="scale(1 1) rotate(0) translate(4 34)">
<title>PlaylistWidget::setPlaylistManager</title>
<!-- Node1 -->
<g id="Node000001" class="node">
<title>Node1</title>
<g id="a_Node000001"><a xlink:title="Set playlist manager.">
<polygon fill="#999999" stroke="#666666" points="555,-30 411,-30 411,0 555,0 555,-30"/>
<text text-anchor="start" x="419" y="-18" font-family="Helvetica,sans-Serif" font-size="10.00">PlaylistWidget::setPlaylist</text>
<text text-anchor="middle" x="483" y="-7" font-family="Helvetica,sans-Serif" font-size="10.00">Manager</text>
</a>
</g>
</g>
<!-- Node2 -->
<g id="Node000002" class="node">
<title>Node2</title>
<g id="a_Node000002"><a xlink:href="../../db/d32/classPlaylistWidget.html#a7041739487deba5d1a770e87415b9c6c" target="_top" xlink:title="Initialize the widget with playlist manager.">
<polygon fill="white" stroke="#666666" points="375,-24.5 240,-24.5 240,-5.5 375,-5.5 375,-24.5"/>
<text text-anchor="middle" x="307.5" y="-12.5" font-family="Helvetica,sans-Serif" font-size="10.00">PlaylistWidget::initialize</text>
</a>
</g>
</g>
<!-- Node1&#45;&gt;Node2 -->
<g id="edge1_Node000001_Node000002" class="edge">
<title>Node1&#45;&gt;Node2</title>
<g id="a_edge1_Node000001_Node000002"><a xlink:title=" ">
<path fill="none" stroke="#63b8ff" d="M400.91,-15C392.32,-15 383.66,-15 375.27,-15"/>
<polygon fill="#63b8ff" stroke="#63b8ff" points="400.93,-18.5 410.93,-15 400.93,-11.5 400.93,-18.5"/>
</a>
</g>
</g>
<!-- Node3 -->
<g id="Node000003" class="node">
<title>Node3</title>
<g id="a_Node000003"><a xlink:href="../../d6/d1a/classMainWindow.html#ae0e54160db525152d6583cd9f9b9efe4" target="_top" xlink:title="Initialize the main window with component manager.">
<polygon fill="white" stroke="#666666" points="204,-24.5 77,-24.5 77,-5.5 204,-5.5 204,-24.5"/>
<text text-anchor="middle" x="140.5" y="-12.5" font-family="Helvetica,sans-Serif" font-size="10.00">MainWindow::initialize</text>
</a>
</g>
</g>
<!-- Node2&#45;&gt;Node3 -->
<g id="edge2_Node000002_Node000003" class="edge">
<title>Node2&#45;&gt;Node3</title>
<g id="a_edge2_Node000002_Node000003"><a xlink:title=" ">
<path fill="none" stroke="#63b8ff" d="M229.82,-15C221.21,-15 212.51,-15 204.11,-15"/>
<polygon fill="#63b8ff" stroke="#63b8ff" points="229.86,-18.5 239.86,-15 229.86,-11.5 229.86,-18.5"/>
</a>
</g>
</g>
<!-- Node4 -->
<g id="Node000004" class="node">
<title>Node4</title>
<g id="a_Node000004"><a xlink:href="../../df/d0a/main_8cpp.html#a0ddf1224851353fc92bfbff6f499fa97" target="_top" xlink:title="Main application entry point.">
<polygon fill="white" stroke="#666666" points="41,-24.5 0,-24.5 0,-5.5 41,-5.5 41,-24.5"/>
<text text-anchor="middle" x="20.5" y="-12.5" font-family="Helvetica,sans-Serif" font-size="10.00">main</text>
</a>
</g>
</g>
<!-- Node3&#45;&gt;Node4 -->
<g id="edge3_Node000003_Node000004" class="edge">
<title>Node3&#45;&gt;Node4</title>
<g id="a_edge3_Node000003_Node000004"><a xlink:title=" ">
<path fill="none" stroke="#63b8ff" d="M66.45,-15C57.14,-15 48.32,-15 41,-15"/>
<polygon fill="#63b8ff" stroke="#63b8ff" points="66.7,-18.5 76.7,-15 66.7,-11.5 66.7,-18.5"/>
</a>
</g>
</g>
</g>
</svg>
