<?xml version="1.0" encoding="UTF-8" standalone="no"?>
<!DOCTYPE svg PUBLIC "-//W3C//DTD SVG 1.1//EN"
 "http://www.w3.org/Graphics/SVG/1.1/DTD/svg11.dtd">
<!-- Generated by graphviz version 2.43.0 (0)
 -->
<!-- Title: PlaylistWidget::playlistModified Pages: 1 -->
<svg width="525pt" height="198pt"
 viewBox="0.00 0.00 525.00 198.00" xmlns="http://www.w3.org/2000/svg" xmlns:xlink="http://www.w3.org/1999/xlink">
<g id="graph0" class="graph" transform="scale(1 1) rotate(0) translate(4 194)">
<title>PlaylistWidget::playlistModified</title>
<!-- Node1 -->
<g id="Node000001" class="node">
<title>Node1</title>
<g id="a_Node000001"><a xlink:title="Emitted when playlist is modified.">
<polygon fill="#999999" stroke="#666666" points="517,-115.5 388,-115.5 388,-85.5 517,-85.5 517,-115.5"/>
<text text-anchor="start" x="396" y="-103.5" font-family="Helvetica,sans-Serif" font-size="10.00">PlaylistWidget::playlist</text>
<text text-anchor="middle" x="452.5" y="-92.5" font-family="Helvetica,sans-Serif" font-size="10.00">Modified</text>
</a>
</g>
</g>
<!-- Node2 -->
<g id="Node000002" class="node">
<title>Node2</title>
<g id="a_Node000002"><a xlink:href="../../db/d32/classPlaylistWidget.html#a85fad8a2ebc2902dcca23c300250c94f" target="_top" xlink:title="Add files to current playlist.">
<polygon fill="white" stroke="#666666" points="332.5,-190 198.5,-190 198.5,-171 332.5,-171 332.5,-190"/>
<text text-anchor="middle" x="265.5" y="-178" font-family="Helvetica,sans-Serif" font-size="10.00">PlaylistWidget::addFiles</text>
</a>
</g>
</g>
<!-- Node1&#45;&gt;Node2 -->
<g id="edge1_Node000001_Node000002" class="edge">
<title>Node1&#45;&gt;Node2</title>
<g id="a_edge1_Node000001_Node000002"><a xlink:title=" ">
<path fill="none" stroke="#63b8ff" d="M423.77,-121.49C404.55,-135.07 377.87,-152.09 352,-162.5 343.56,-165.9 334.37,-168.69 325.26,-170.97"/>
<polygon fill="#63b8ff" stroke="#63b8ff" points="425.97,-124.21 432.04,-115.53 421.88,-118.53 425.97,-124.21"/>
</a>
</g>
</g>
<!-- Node4 -->
<g id="Node000004" class="node">
<title>Node4</title>
<g id="a_Node000004"><a xlink:href="../../db/d32/classPlaylistWidget.html#aa28add15e39260b26694c6bccd2e75fe" target="_top" xlink:title="Clear current playlist.">
<polygon fill="white" stroke="#666666" points="342,-153 189,-153 189,-134 342,-134 342,-153"/>
<text text-anchor="middle" x="265.5" y="-141" font-family="Helvetica,sans-Serif" font-size="10.00">PlaylistWidget::clearPlaylist</text>
</a>
</g>
</g>
<!-- Node1&#45;&gt;Node4 -->
<g id="edge3_Node000001_Node000004" class="edge">
<title>Node1&#45;&gt;Node4</title>
<g id="a_edge3_Node000001_Node000004"><a xlink:title=" ">
<path fill="none" stroke="#63b8ff" d="M380.17,-117.87C370.7,-120.13 361.12,-122.39 352,-124.5 338.37,-127.66 323.5,-131 310.03,-133.99"/>
<polygon fill="#63b8ff" stroke="#63b8ff" points="381.06,-121.26 389.97,-115.52 379.43,-114.45 381.06,-121.26"/>
</a>
</g>
</g>
<!-- Node5 -->
<g id="Node000005" class="node">
<title>Node5</title>
<g id="a_Node000005"><a xlink:href="../../db/d32/classPlaylistWidget.html#ac70f4918e5edcb76cf22185ccb8b2d3c" target="_top" xlink:title="Remove selected files from playlist.">
<polygon fill="white" stroke="#666666" points="352,-115.5 179,-115.5 179,-85.5 352,-85.5 352,-115.5"/>
<text text-anchor="start" x="187" y="-103.5" font-family="Helvetica,sans-Serif" font-size="10.00">PlaylistWidget::removeSelected</text>
<text text-anchor="middle" x="265.5" y="-92.5" font-family="Helvetica,sans-Serif" font-size="10.00">Files</text>
</a>
</g>
</g>
<!-- Node1&#45;&gt;Node5 -->
<g id="edge4_Node000001_Node000005" class="edge">
<title>Node1&#45;&gt;Node5</title>
<g id="a_edge4_Node000001_Node000005"><a xlink:title=" ">
<path fill="none" stroke="#63b8ff" d="M377.72,-100.5C369.32,-100.5 360.71,-100.5 352.18,-100.5"/>
<polygon fill="#63b8ff" stroke="#63b8ff" points="377.83,-104 387.83,-100.5 377.83,-97 377.83,-104"/>
</a>
</g>
</g>
<!-- Node6 -->
<g id="Node000006" class="node">
<title>Node6</title>
<g id="a_Node000006"><a xlink:href="../../db/d32/classPlaylistWidget.html#abba9b7b52a32117cc0ea5dd469cb69fe" target="_top" xlink:title="Rename current playlist.">
<polygon fill="white" stroke="#666666" points="349,-67.5 182,-67.5 182,-37.5 349,-37.5 349,-67.5"/>
<text text-anchor="start" x="190" y="-55.5" font-family="Helvetica,sans-Serif" font-size="10.00">PlaylistWidget::renameCurrent</text>
<text text-anchor="middle" x="265.5" y="-44.5" font-family="Helvetica,sans-Serif" font-size="10.00">Playlist</text>
</a>
</g>
</g>
<!-- Node1&#45;&gt;Node6 -->
<g id="edge5_Node000001_Node000006" class="edge">
<title>Node1&#45;&gt;Node6</title>
<g id="a_edge5_Node000001_Node000006"><a xlink:title=" ">
<path fill="none" stroke="#63b8ff" d="M383.74,-82.92C364.24,-77.86 343.16,-72.39 324.32,-67.5"/>
<polygon fill="#63b8ff" stroke="#63b8ff" points="382.91,-86.32 393.47,-85.44 384.67,-79.54 382.91,-86.32"/>
</a>
</g>
</g>
<!-- Node7 -->
<g id="Node000007" class="node">
<title>Node7</title>
<g id="a_Node000007"><a xlink:href="../../db/d32/classPlaylistWidget.html#a082d6c5682b72c9de56231d5575ceb4b" target="_top" xlink:title="Shuffle current playlist.">
<polygon fill="white" stroke="#666666" points="346.5,-19 184.5,-19 184.5,0 346.5,0 346.5,-19"/>
<text text-anchor="middle" x="265.5" y="-7" font-family="Helvetica,sans-Serif" font-size="10.00">PlaylistWidget::shufflePlaylist</text>
</a>
</g>
</g>
<!-- Node1&#45;&gt;Node7 -->
<g id="edge6_Node000001_Node000007" class="edge">
<title>Node1&#45;&gt;Node7</title>
<g id="a_edge6_Node000001_Node000007"><a xlink:title=" ">
<path fill="none" stroke="#63b8ff" d="M427.61,-78.86C408.47,-62.67 380.25,-41.2 352,-28.5 343.4,-24.63 333.95,-21.53 324.57,-19.04"/>
<polygon fill="#63b8ff" stroke="#63b8ff" points="425.37,-81.56 435.22,-85.44 429.94,-76.26 425.37,-81.56"/>
</a>
</g>
</g>
<!-- Node3 -->
<g id="Node000003" class="node">
<title>Node3</title>
<g id="a_Node000003"><a xlink:href="../../db/d32/classPlaylistWidget.html#a05c626e1d0984e9746ef6a8ef5f0e34c" target="_top" xlink:title=" ">
<polygon fill="white" stroke="#666666" points="143,-190 0,-190 0,-171 143,-171 143,-190"/>
<text text-anchor="middle" x="71.5" y="-178" font-family="Helvetica,sans-Serif" font-size="10.00">PlaylistWidget::dropEvent</text>
</a>
</g>
</g>
<!-- Node2&#45;&gt;Node3 -->
<g id="edge2_Node000002_Node000003" class="edge">
<title>Node2&#45;&gt;Node3</title>
<g id="a_edge2_Node000002_Node000003"><a xlink:title=" ">
<path fill="none" stroke="#63b8ff" d="M188.28,-180.5C173.44,-180.5 157.94,-180.5 143.29,-180.5"/>
<polygon fill="#63b8ff" stroke="#63b8ff" points="188.42,-184 198.42,-180.5 188.42,-177 188.42,-184"/>
</a>
</g>
</g>
</g>
</svg>
