<?xml version="1.0" encoding="UTF-8" standalone="no"?>
<!DOCTYPE svg PUBLIC "-//W3C//DTD SVG 1.1//EN"
 "http://www.w3.org/Graphics/SVG/1.1/DTD/svg11.dtd">
<!-- Generated by graphviz version 2.43.0 (0)
 -->
<!-- Title: EonPlay::Data::DatabaseManager Pages: 1 -->
<svg width="181pt" height="292pt"
 viewBox="0.00 0.00 181.00 292.00" xmlns="http://www.w3.org/2000/svg" xmlns:xlink="http://www.w3.org/1999/xlink">
<g id="graph0" class="graph" transform="scale(1 1) rotate(0) translate(4 288)">
<title>EonPlay::Data::DatabaseManager</title>
<!-- Node1 -->
<g id="Node000001" class="node">
<title>Node1</title>
<g id="a_Node000001"><a xlink:title="Database manager for EonPlay media library.">
<polygon fill="#999999" stroke="transparent" points="173,-199 0,-199 0,0 173,0 173,-199"/>
<text text-anchor="start" x="5.5" y="-186.5" font-family="Helvetica,sans-Serif" font-size="10.00">EonPlay::Data::DatabaseManager</text>
<text text-anchor="start" x="85" y="-171.5" font-family="Helvetica,sans-Serif" font-size="10.00"> </text>
<text text-anchor="start" x="8.5" y="-156.5" font-family="Helvetica,sans-Serif" font-size="10.00">+</text>
<text text-anchor="start" x="25.5" y="-156.5" font-family="Helvetica,sans-Serif" font-size="10.00">DatabaseManager()</text>
<text text-anchor="start" x="8.5" y="-141.5" font-family="Helvetica,sans-Serif" font-size="10.00">+</text>
<text text-anchor="start" x="25.5" y="-141.5" font-family="Helvetica,sans-Serif" font-size="10.00">~DatabaseManager()</text>
<text text-anchor="start" x="8.5" y="-126.5" font-family="Helvetica,sans-Serif" font-size="10.00">+</text>
<text text-anchor="start" x="25.5" y="-126.5" font-family="Helvetica,sans-Serif" font-size="10.00">initialize()</text>
<text text-anchor="start" x="8.5" y="-111.5" font-family="Helvetica,sans-Serif" font-size="10.00">+</text>
<text text-anchor="start" x="25.5" y="-111.5" font-family="Helvetica,sans-Serif" font-size="10.00">shutdown()</text>
<text text-anchor="start" x="8.5" y="-96.5" font-family="Helvetica,sans-Serif" font-size="10.00">+</text>
<text text-anchor="start" x="25.5" y="-96.5" font-family="Helvetica,sans-Serif" font-size="10.00">isInitialized()</text>
<text text-anchor="start" x="8.5" y="-81.5" font-family="Helvetica,sans-Serif" font-size="10.00">+</text>
<text text-anchor="start" x="25.5" y="-81.5" font-family="Helvetica,sans-Serif" font-size="10.00">createSchema()</text>
<text text-anchor="start" x="8.5" y="-66.5" font-family="Helvetica,sans-Serif" font-size="10.00">+</text>
<text text-anchor="start" x="25.5" y="-66.5" font-family="Helvetica,sans-Serif" font-size="10.00">migrateDatabase()</text>
<text text-anchor="start" x="8.5" y="-51.5" font-family="Helvetica,sans-Serif" font-size="10.00">+</text>
<text text-anchor="start" x="25.5" y="-51.5" font-family="Helvetica,sans-Serif" font-size="10.00">getCurrentSchemaVersion()</text>
<text text-anchor="start" x="8.5" y="-36.5" font-family="Helvetica,sans-Serif" font-size="10.00">+</text>
<text text-anchor="start" x="25.5" y="-36.5" font-family="Helvetica,sans-Serif" font-size="10.00">setSchemaVersion()</text>
<text text-anchor="start" x="8.5" y="-21.5" font-family="Helvetica,sans-Serif" font-size="10.00">+</text>
<text text-anchor="start" x="25.5" y="-21.5" font-family="Helvetica,sans-Serif" font-size="10.00">addMediaFile()</text>
<text text-anchor="start" x="25.5" y="-6.5" font-family="Helvetica,sans-Serif" font-size="10.00">and 35 more...</text>
<polygon fill="#666666" stroke="#666666" points="0.5,-181.5 0.5,-181.5 173.5,-181.5 173.5,-181.5 0.5,-181.5"/>
<polygon fill="#666666" stroke="#666666" points="0.5,-166.5 0.5,-166.5 173.5,-166.5 173.5,-166.5 0.5,-166.5"/>
<polygon fill="none" stroke="#666666" points="0,0 0,-199 173,-199 173,0 0,0"/>
</a>
</g>
</g>
<!-- Node2 -->
<g id="Node000002" class="node">
<title>Node2</title>
<g id="a_Node000002"><a xlink:title=" ">
<polygon fill="white" stroke="transparent" points="111.5,-284 61.5,-284 61.5,-235 111.5,-235 111.5,-284"/>
<text text-anchor="start" x="66.5" y="-271.5" font-family="Helvetica,sans-Serif" font-size="10.00">QObject</text>
<text text-anchor="start" x="84.5" y="-256.5" font-family="Helvetica,sans-Serif" font-size="10.00"> </text>
<text text-anchor="start" x="84.5" y="-241.5" font-family="Helvetica,sans-Serif" font-size="10.00"> </text>
<polygon fill="#666666" stroke="#666666" points="61.5,-266.5 61.5,-266.5 111.5,-266.5 111.5,-266.5 61.5,-266.5"/>
<polygon fill="#666666" stroke="#666666" points="61.5,-251.5 61.5,-251.5 111.5,-251.5 111.5,-251.5 61.5,-251.5"/>
<polygon fill="none" stroke="#666666" points="61.5,-235 61.5,-284 111.5,-284 111.5,-235 61.5,-235"/>
</a>
</g>
</g>
<!-- Node2&#45;&gt;Node1 -->
<g id="edge1_Node000001_Node000002" class="edge">
<title>Node2&#45;&gt;Node1</title>
<g id="a_edge1_Node000001_Node000002"><a xlink:title=" ">
<path fill="none" stroke="#63b8ff" d="M86.5,-224.75C86.5,-216.89 86.5,-208.14 86.5,-199.02"/>
<polygon fill="none" stroke="#63b8ff" points="83,-224.85 86.5,-234.85 90,-224.85 83,-224.85"/>
</a>
</g>
</g>
</g>
</svg>
