<?xml version="1.0" encoding="UTF-8" standalone="no"?>
<!DOCTYPE svg PUBLIC "-//W3C//DTD SVG 1.1//EN"
 "http://www.w3.org/Graphics/SVG/1.1/DTD/svg11.dtd">
<!-- Generated by graphviz version 2.43.0 (0)
 -->
<!-- Title: EonPlay::AI::AISubtitleGenerator::generateSubtitlesFromAudio Pages: 1 -->
<svg width="599pt" height="134pt"
 viewBox="0.00 0.00 599.00 134.00" xmlns="http://www.w3.org/2000/svg" xmlns:xlink="http://www.w3.org/1999/xlink">
<g id="graph0" class="graph" transform="scale(1 1) rotate(0) translate(4 130)">
<title>EonPlay::AI::AISubtitleGenerator::generateSubtitlesFromAudio</title>
<!-- Node1 -->
<g id="Node000001" class="node">
<title>Node1</title>
<g id="a_Node000001"><a xlink:title=" ">
<polygon fill="#999999" stroke="#666666" points="173,-78 0,-78 0,-48 173,-48 173,-78"/>
<text text-anchor="start" x="8" y="-66" font-family="Helvetica,sans-Serif" font-size="10.00">EonPlay::AI::AISubtitleGenerator</text>
<text text-anchor="middle" x="86.5" y="-55" font-family="Helvetica,sans-Serif" font-size="10.00">::generateSubtitlesFromAudio</text>
</a>
</g>
</g>
<!-- Node2 -->
<g id="Node000002" class="node">
<title>Node2</title>
<g id="a_Node000002"><a xlink:href="../../d2/d2c/classEonPlay_1_1AI_1_1AISubtitleGenerator.html#a54e0471413dcb7ae69e434ccf890e3f8" target="_top" xlink:title=" ">
<polygon fill="white" stroke="#666666" points="382,-126 209,-126 209,-96 382,-96 382,-126"/>
<text text-anchor="start" x="217" y="-114" font-family="Helvetica,sans-Serif" font-size="10.00">EonPlay::AI::AISubtitleGenerator</text>
<text text-anchor="middle" x="295.5" y="-103" font-family="Helvetica,sans-Serif" font-size="10.00">::engineToString</text>
</a>
</g>
</g>
<!-- Node1&#45;&gt;Node2 -->
<g id="edge1_Node000001_Node000002" class="edge">
<title>Node1&#45;&gt;Node2</title>
<g id="a_edge1_Node000001_Node000002"><a xlink:title=" ">
<path fill="none" stroke="#63b8ff" d="M152.43,-78.06C173.81,-83.01 197.77,-88.57 219.82,-93.68"/>
<polygon fill="#63b8ff" stroke="#63b8ff" points="219.27,-97.15 229.8,-96 220.85,-90.33 219.27,-97.15"/>
</a>
</g>
</g>
<!-- Node4 -->
<g id="Node000004" class="node">
<title>Node4</title>
<g id="a_Node000004"><a xlink:href="../../d2/d2c/classEonPlay_1_1AI_1_1AISubtitleGenerator.html#a566237ff3dd908d43db9dfded71d1c77" target="_top" xlink:title=" ">
<polygon fill="white" stroke="#666666" points="382,-78 209,-78 209,-48 382,-48 382,-78"/>
<text text-anchor="start" x="217" y="-66" font-family="Helvetica,sans-Serif" font-size="10.00">EonPlay::AI::AISubtitleGenerator</text>
<text text-anchor="middle" x="295.5" y="-55" font-family="Helvetica,sans-Serif" font-size="10.00">::generationFailed</text>
</a>
</g>
</g>
<!-- Node1&#45;&gt;Node4 -->
<g id="edge3_Node000001_Node000004" class="edge">
<title>Node1&#45;&gt;Node4</title>
<g id="a_edge3_Node000001_Node000004"><a xlink:title=" ">
<path fill="none" stroke="#63b8ff" d="M173.19,-63C181.66,-63 190.3,-63 198.87,-63"/>
<polygon fill="#63b8ff" stroke="#63b8ff" points="198.88,-66.5 208.88,-63 198.88,-59.5 198.88,-66.5"/>
</a>
</g>
</g>
<!-- Node5 -->
<g id="Node000005" class="node">
<title>Node5</title>
<g id="a_Node000005"><a xlink:href="../../d2/d2c/classEonPlay_1_1AI_1_1AISubtitleGenerator.html#a53e96699585c794cb3d860ac94ba0762" target="_top" xlink:title=" ">
<polygon fill="white" stroke="#666666" points="382,-30 209,-30 209,0 382,0 382,-30"/>
<text text-anchor="start" x="217" y="-18" font-family="Helvetica,sans-Serif" font-size="10.00">EonPlay::AI::AISubtitleGenerator</text>
<text text-anchor="middle" x="295.5" y="-7" font-family="Helvetica,sans-Serif" font-size="10.00">::generationProgress</text>
</a>
</g>
</g>
<!-- Node1&#45;&gt;Node5 -->
<g id="edge4_Node000001_Node000005" class="edge">
<title>Node1&#45;&gt;Node5</title>
<g id="a_edge4_Node000001_Node000005"><a xlink:title=" ">
<path fill="none" stroke="#63b8ff" d="M152.43,-47.94C173.81,-42.99 197.77,-37.43 219.82,-32.32"/>
<polygon fill="#63b8ff" stroke="#63b8ff" points="220.85,-35.67 229.8,-30 219.27,-28.85 220.85,-35.67"/>
</a>
</g>
</g>
<!-- Node3 -->
<g id="Node000003" class="node">
<title>Node3</title>
<g id="a_Node000003"><a xlink:href="../../d2/d2c/classEonPlay_1_1AI_1_1AISubtitleGenerator.html#a2f85844b62943531af7654aa91228541" target="_top" xlink:title=" ">
<polygon fill="white" stroke="#666666" points="591,-126 418,-126 418,-96 591,-96 591,-126"/>
<text text-anchor="start" x="426" y="-114" font-family="Helvetica,sans-Serif" font-size="10.00">EonPlay::AI::AISubtitleGenerator</text>
<text text-anchor="middle" x="504.5" y="-103" font-family="Helvetica,sans-Serif" font-size="10.00">::engine</text>
</a>
</g>
</g>
<!-- Node2&#45;&gt;Node3 -->
<g id="edge2_Node000002_Node000003" class="edge">
<title>Node2&#45;&gt;Node3</title>
<g id="a_edge2_Node000002_Node000003"><a xlink:title=" ">
<path fill="none" stroke="#63b8ff" d="M382.19,-111C390.66,-111 399.3,-111 407.87,-111"/>
<polygon fill="#63b8ff" stroke="#63b8ff" points="407.88,-114.5 417.88,-111 407.88,-107.5 407.88,-114.5"/>
</a>
</g>
</g>
</g>
</svg>
