<?xml version="1.0" encoding="UTF-8" standalone="no"?>
<!DOCTYPE svg PUBLIC "-//W3C//DTD SVG 1.1//EN"
 "http://www.w3.org/Graphics/SVG/1.1/DTD/svg11.dtd">
<!-- Generated by graphviz version 2.43.0 (0)
 -->
<!-- Title: EonPlay::AI::AISubtitleGenerator::generateSubtitles Pages: 1 -->
<svg width="808pt" height="287pt"
 viewBox="0.00 0.00 808.00 287.00" xmlns="http://www.w3.org/2000/svg" xmlns:xlink="http://www.w3.org/1999/xlink">
<g id="graph0" class="graph" transform="scale(1 1) rotate(0) translate(4 283)">
<title>EonPlay::AI::AISubtitleGenerator::generateSubtitles</title>
<!-- Node1 -->
<g id="Node000001" class="node">
<title>Node1</title>
<g id="a_Node000001"><a xlink:title=" ">
<polygon fill="#999999" stroke="#666666" points="173,-132 0,-132 0,-102 173,-102 173,-132"/>
<text text-anchor="start" x="8" y="-120" font-family="Helvetica,sans-Serif" font-size="10.00">EonPlay::AI::AISubtitleGenerator</text>
<text text-anchor="middle" x="86.5" y="-109" font-family="Helvetica,sans-Serif" font-size="10.00">::generateSubtitles</text>
</a>
</g>
</g>
<!-- Node2 -->
<g id="Node000002" class="node">
<title>Node2</title>
<g id="a_Node000002"><a xlink:href="../../d2/d2c/classEonPlay_1_1AI_1_1AISubtitleGenerator.html#a54e0471413dcb7ae69e434ccf890e3f8" target="_top" xlink:title=" ">
<polygon fill="white" stroke="#666666" points="591,-193 418,-193 418,-163 591,-163 591,-193"/>
<text text-anchor="start" x="426" y="-181" font-family="Helvetica,sans-Serif" font-size="10.00">EonPlay::AI::AISubtitleGenerator</text>
<text text-anchor="middle" x="504.5" y="-170" font-family="Helvetica,sans-Serif" font-size="10.00">::engineToString</text>
</a>
</g>
</g>
<!-- Node1&#45;&gt;Node2 -->
<g id="edge1_Node000001_Node000002" class="edge">
<title>Node1&#45;&gt;Node2</title>
<g id="a_edge1_Node000001_Node000002"><a xlink:title=" ">
<path fill="none" stroke="#63b8ff" d="M119.17,-132.11C143.22,-142.81 177.43,-156.39 209,-163 274.35,-176.68 349.55,-180.32 407.6,-180.59"/>
<polygon fill="#63b8ff" stroke="#63b8ff" points="407.86,-184.09 417.87,-180.61 407.87,-177.09 407.86,-184.09"/>
</a>
</g>
</g>
<!-- Node4 -->
<g id="Node000004" class="node">
<title>Node4</title>
<g id="a_Node000004"><a xlink:href="../../d2/d2c/classEonPlay_1_1AI_1_1AISubtitleGenerator.html#a36de7ffb94d9476f2bba100620f5d2d4" target="_top" xlink:title=" ">
<polygon fill="white" stroke="#666666" points="382,-154 209,-154 209,-124 382,-124 382,-154"/>
<text text-anchor="start" x="217" y="-142" font-family="Helvetica,sans-Serif" font-size="10.00">EonPlay::AI::AISubtitleGenerator</text>
<text text-anchor="middle" x="295.5" y="-131" font-family="Helvetica,sans-Serif" font-size="10.00">::generateSubtitlesFromAudio</text>
</a>
</g>
</g>
<!-- Node1&#45;&gt;Node4 -->
<g id="edge3_Node000001_Node000004" class="edge">
<title>Node1&#45;&gt;Node4</title>
<g id="a_edge3_Node000001_Node000004"><a xlink:title=" ">
<path fill="none" stroke="#63b8ff" d="M173.19,-126.11C181.66,-127.01 190.3,-127.93 198.87,-128.84"/>
<polygon fill="#63b8ff" stroke="#63b8ff" points="198.56,-132.32 208.88,-129.9 199.3,-125.36 198.56,-132.32"/>
</a>
</g>
</g>
<!-- Node5 -->
<g id="Node000005" class="node">
<title>Node5</title>
<g id="a_Node000005"><a xlink:href="../../d2/d2c/classEonPlay_1_1AI_1_1AISubtitleGenerator.html#a566237ff3dd908d43db9dfded71d1c77" target="_top" xlink:title=" ">
<polygon fill="white" stroke="#666666" points="591,-142 418,-142 418,-112 591,-112 591,-142"/>
<text text-anchor="start" x="426" y="-130" font-family="Helvetica,sans-Serif" font-size="10.00">EonPlay::AI::AISubtitleGenerator</text>
<text text-anchor="middle" x="504.5" y="-119" font-family="Helvetica,sans-Serif" font-size="10.00">::generationFailed</text>
</a>
</g>
</g>
<!-- Node1&#45;&gt;Node5 -->
<g id="edge7_Node000001_Node000005" class="edge">
<title>Node1&#45;&gt;Node5</title>
<g id="a_edge7_Node000001_Node000005"><a xlink:title=" ">
<path fill="none" stroke="#63b8ff" d="M173.25,-113.89C232.03,-112.37 311.78,-111.54 382,-115 390.37,-115.41 399.05,-115.98 407.75,-116.65"/>
<polygon fill="#63b8ff" stroke="#63b8ff" points="407.7,-120.16 417.95,-117.48 408.27,-113.18 407.7,-120.16"/>
</a>
</g>
</g>
<!-- Node6 -->
<g id="Node000006" class="node">
<title>Node6</title>
<g id="a_Node000006"><a xlink:href="../../d2/d2c/classEonPlay_1_1AI_1_1AISubtitleGenerator.html#a53e96699585c794cb3d860ac94ba0762" target="_top" xlink:title=" ">
<polygon fill="white" stroke="#666666" points="591,-87 418,-87 418,-57 591,-57 591,-87"/>
<text text-anchor="start" x="426" y="-75" font-family="Helvetica,sans-Serif" font-size="10.00">EonPlay::AI::AISubtitleGenerator</text>
<text text-anchor="middle" x="504.5" y="-64" font-family="Helvetica,sans-Serif" font-size="10.00">::generationProgress</text>
</a>
</g>
</g>
<!-- Node1&#45;&gt;Node6 -->
<g id="edge8_Node000001_Node000006" class="edge">
<title>Node1&#45;&gt;Node6</title>
<g id="a_edge8_Node000001_Node000006"><a xlink:title=" ">
<path fill="none" stroke="#63b8ff" d="M173.19,-107.73C241.43,-100.35 336.9,-90.02 407.67,-82.37"/>
<polygon fill="#63b8ff" stroke="#63b8ff" points="408.35,-85.81 417.92,-81.26 407.6,-78.85 408.35,-85.81"/>
</a>
</g>
</g>
<!-- Node7 -->
<g id="Node000007" class="node">
<title>Node7</title>
<g id="a_Node000007"><a xlink:href="../../d2/d2c/classEonPlay_1_1AI_1_1AISubtitleGenerator.html#a7176887fec7e7c9e82f128a425565b92" target="_top" xlink:title=" ">
<polygon fill="white" stroke="#666666" points="382,-30 209,-30 209,0 382,0 382,-30"/>
<text text-anchor="start" x="217" y="-18" font-family="Helvetica,sans-Serif" font-size="10.00">EonPlay::AI::AISubtitleGenerator</text>
<text text-anchor="middle" x="295.5" y="-7" font-family="Helvetica,sans-Serif" font-size="10.00">::generationStarted</text>
</a>
</g>
</g>
<!-- Node1&#45;&gt;Node7 -->
<g id="edge9_Node000001_Node000007" class="edge">
<title>Node1&#45;&gt;Node7</title>
<g id="a_edge9_Node000001_Node000007"><a xlink:title=" ">
<path fill="none" stroke="#63b8ff" d="M109.55,-101.78C133.3,-85.85 172.61,-60.87 209,-44 217.06,-40.26 225.74,-36.76 234.37,-33.57"/>
<polygon fill="#63b8ff" stroke="#63b8ff" points="235.83,-36.77 244.06,-30.11 233.47,-30.18 235.83,-36.77"/>
</a>
</g>
</g>
<!-- Node8 -->
<g id="Node000008" class="node">
<title>Node8</title>
<g id="a_Node000008"><a xlink:href="../../d2/d2c/classEonPlay_1_1AI_1_1AISubtitleGenerator.html#ae0e10d3d752dc62d0fe7ddb59922bdfa" target="_top" xlink:title=" ">
<polygon fill="white" stroke="#666666" points="382,-240 209,-240 209,-210 382,-210 382,-240"/>
<text text-anchor="start" x="217" y="-228" font-family="Helvetica,sans-Serif" font-size="10.00">EonPlay::AI::AISubtitleGenerator</text>
<text text-anchor="middle" x="295.5" y="-217" font-family="Helvetica,sans-Serif" font-size="10.00">::isEngineAvailable</text>
</a>
</g>
</g>
<!-- Node1&#45;&gt;Node8 -->
<g id="edge10_Node000001_Node000008" class="edge">
<title>Node1&#45;&gt;Node8</title>
<g id="a_edge10_Node000001_Node000008"><a xlink:title=" ">
<path fill="none" stroke="#63b8ff" d="M107.22,-132.05C130.53,-149.29 170.97,-177.55 209,-196 216.79,-199.78 225.19,-203.28 233.59,-206.44"/>
<polygon fill="#63b8ff" stroke="#63b8ff" points="232.43,-209.74 243.03,-209.86 234.82,-203.16 232.43,-209.74"/>
</a>
</g>
</g>
<!-- Node3 -->
<g id="Node000003" class="node">
<title>Node3</title>
<g id="a_Node000003"><a xlink:href="../../d2/d2c/classEonPlay_1_1AI_1_1AISubtitleGenerator.html#a2f85844b62943531af7654aa91228541" target="_top" xlink:title=" ">
<polygon fill="white" stroke="#666666" points="800,-236 627,-236 627,-206 800,-206 800,-236"/>
<text text-anchor="start" x="635" y="-224" font-family="Helvetica,sans-Serif" font-size="10.00">EonPlay::AI::AISubtitleGenerator</text>
<text text-anchor="middle" x="713.5" y="-213" font-family="Helvetica,sans-Serif" font-size="10.00">::engine</text>
</a>
</g>
</g>
<!-- Node2&#45;&gt;Node3 -->
<g id="edge2_Node000002_Node000003" class="edge">
<title>Node2&#45;&gt;Node3</title>
<g id="a_edge2_Node000002_Node000003"><a xlink:title=" ">
<path fill="none" stroke="#63b8ff" d="M577.9,-193.04C594.76,-196.54 612.83,-200.3 630.09,-203.88"/>
<polygon fill="#63b8ff" stroke="#63b8ff" points="629.64,-207.36 640.14,-205.97 631.06,-200.51 629.64,-207.36"/>
</a>
</g>
</g>
<!-- Node4&#45;&gt;Node2 -->
<g id="edge4_Node000004_Node000002" class="edge">
<title>Node4&#45;&gt;Node2</title>
<g id="a_edge4_Node000004_Node000002"><a xlink:title=" ">
<path fill="none" stroke="#63b8ff" d="M376.24,-154.02C388.55,-156.34 401.33,-158.75 413.84,-161.11"/>
<polygon fill="#63b8ff" stroke="#63b8ff" points="413.33,-164.57 423.81,-162.99 414.63,-157.69 413.33,-164.57"/>
</a>
</g>
</g>
<!-- Node4&#45;&gt;Node5 -->
<g id="edge5_Node000004_Node000005" class="edge">
<title>Node4&#45;&gt;Node5</title>
<g id="a_edge5_Node000004_Node000005"><a xlink:title=" ">
<path fill="none" stroke="#63b8ff" d="M382.19,-134.03C390.66,-133.54 399.3,-133.04 407.87,-132.54"/>
<polygon fill="#63b8ff" stroke="#63b8ff" points="408.09,-136.04 417.88,-131.96 407.69,-129.05 408.09,-136.04"/>
</a>
</g>
</g>
<!-- Node4&#45;&gt;Node6 -->
<g id="edge6_Node000004_Node000006" class="edge">
<title>Node4&#45;&gt;Node6</title>
<g id="a_edge6_Node000004_Node000006"><a xlink:title=" ">
<path fill="none" stroke="#63b8ff" d="M342.95,-123.96C373.74,-114 414.32,-100.86 446.98,-90.29"/>
<polygon fill="#63b8ff" stroke="#63b8ff" points="448.41,-93.51 456.84,-87.1 446.25,-86.85 448.41,-93.51"/>
</a>
</g>
</g>
<!-- Node8&#45;&gt;Node3 -->
<g id="edge11_Node000008_Node000003" class="edge">
<title>Node8&#45;&gt;Node3</title>
<g id="a_edge11_Node000008_Node000003"><a xlink:title=" ">
<path fill="none" stroke="#63b8ff" d="M382.19,-224.18C450.43,-223.52 545.9,-222.6 616.67,-221.92"/>
<polygon fill="#63b8ff" stroke="#63b8ff" points="616.95,-225.42 626.92,-221.82 616.89,-218.42 616.95,-225.42"/>
</a>
</g>
</g>
<!-- Node9 -->
<g id="Node000009" class="node">
<title>Node9</title>
<g id="a_Node000009"><a xlink:href="../../d2/d2c/classEonPlay_1_1AI_1_1AISubtitleGenerator.html#a331b7281575fa442bf91950f27cfe381" target="_top" xlink:title=" ">
<polygon fill="white" stroke="#666666" points="591,-279 418,-279 418,-249 591,-249 591,-279"/>
<text text-anchor="start" x="426" y="-267" font-family="Helvetica,sans-Serif" font-size="10.00">EonPlay::AI::AISubtitleGenerator</text>
<text text-anchor="middle" x="504.5" y="-256" font-family="Helvetica,sans-Serif" font-size="10.00">::isApiConfigured</text>
</a>
</g>
</g>
<!-- Node8&#45;&gt;Node9 -->
<g id="edge12_Node000008_Node000009" class="edge">
<title>Node8&#45;&gt;Node9</title>
<g id="a_edge12_Node000008_Node000009"><a xlink:title=" ">
<path fill="none" stroke="#63b8ff" d="M376.24,-240.02C388.55,-242.34 401.33,-244.75 413.84,-247.11"/>
<polygon fill="#63b8ff" stroke="#63b8ff" points="413.33,-250.57 423.81,-248.99 414.63,-243.69 413.33,-250.57"/>
</a>
</g>
</g>
<!-- Node9&#45;&gt;Node3 -->
<g id="edge13_Node000009_Node000003" class="edge">
<title>Node9&#45;&gt;Node3</title>
<g id="a_edge13_Node000009_Node000003"><a xlink:title=" ">
<path fill="none" stroke="#63b8ff" d="M577.9,-248.96C594.76,-245.46 612.83,-241.7 630.09,-238.12"/>
<polygon fill="#63b8ff" stroke="#63b8ff" points="631.06,-241.49 640.14,-236.03 629.64,-234.64 631.06,-241.49"/>
</a>
</g>
</g>
</g>
</svg>
