<?xml version="1.0" encoding="UTF-8" standalone="no"?>
<!DOCTYPE svg PUBLIC "-//W3C//DTD SVG 1.1//EN"
 "http://www.w3.org/Graphics/SVG/1.1/DTD/svg11.dtd">
<!-- Generated by graphviz version 2.43.0 (0)
 -->
<!-- Title: EonPlay::AI::AISubtitleGenerator::isApiConfigured Pages: 1 -->
<svg width="599pt" height="134pt"
 viewBox="0.00 0.00 599.00 134.00" xmlns="http://www.w3.org/2000/svg" xmlns:xlink="http://www.w3.org/1999/xlink">
<g id="graph0" class="graph" transform="scale(1 1) rotate(0) translate(4 130)">
<title>EonPlay::AI::AISubtitleGenerator::isApiConfigured</title>
<!-- Node1 -->
<g id="Node000001" class="node">
<title>Node1</title>
<g id="a_Node000001"><a xlink:title=" ">
<polygon fill="#999999" stroke="#666666" points="591,-78 418,-78 418,-48 591,-48 591,-78"/>
<text text-anchor="start" x="426" y="-66" font-family="Helvetica,sans-Serif" font-size="10.00">EonPlay::AI::AISubtitleGenerator</text>
<text text-anchor="middle" x="504.5" y="-55" font-family="Helvetica,sans-Serif" font-size="10.00">::isApiConfigured</text>
</a>
</g>
</g>
<!-- Node2 -->
<g id="Node000002" class="node">
<title>Node2</title>
<g id="a_Node000002"><a xlink:href="../../d2/d2c/classEonPlay_1_1AI_1_1AISubtitleGenerator.html#ae0e10d3d752dc62d0fe7ddb59922bdfa" target="_top" xlink:title=" ">
<polygon fill="white" stroke="#666666" points="382,-78 209,-78 209,-48 382,-48 382,-78"/>
<text text-anchor="start" x="217" y="-66" font-family="Helvetica,sans-Serif" font-size="10.00">EonPlay::AI::AISubtitleGenerator</text>
<text text-anchor="middle" x="295.5" y="-55" font-family="Helvetica,sans-Serif" font-size="10.00">::isEngineAvailable</text>
</a>
</g>
</g>
<!-- Node1&#45;&gt;Node2 -->
<g id="edge1_Node000001_Node000002" class="edge">
<title>Node1&#45;&gt;Node2</title>
<g id="a_edge1_Node000001_Node000002"><a xlink:title=" ">
<path fill="none" stroke="#63b8ff" d="M407.8,-63C399.24,-63 390.6,-63 382.12,-63"/>
<polygon fill="#63b8ff" stroke="#63b8ff" points="407.81,-66.5 417.81,-63 407.81,-59.5 407.81,-66.5"/>
</a>
</g>
</g>
<!-- Node3 -->
<g id="Node000003" class="node">
<title>Node3</title>
<g id="a_Node000003"><a xlink:href="../../d2/d2c/classEonPlay_1_1AI_1_1AISubtitleGenerator.html#acbd80422395dccc467bf9ffc5d201f02" target="_top" xlink:title=" ">
<polygon fill="white" stroke="#666666" points="173,-126 0,-126 0,-96 173,-96 173,-126"/>
<text text-anchor="start" x="8" y="-114" font-family="Helvetica,sans-Serif" font-size="10.00">EonPlay::AI::AISubtitleGenerator</text>
<text text-anchor="middle" x="86.5" y="-103" font-family="Helvetica,sans-Serif" font-size="10.00">::detectLanguage</text>
</a>
</g>
</g>
<!-- Node2&#45;&gt;Node3 -->
<g id="edge2_Node000002_Node000003" class="edge">
<title>Node2&#45;&gt;Node3</title>
<g id="a_edge2_Node000002_Node000003"><a xlink:title=" ">
<path fill="none" stroke="#63b8ff" d="M219.58,-80.37C197.51,-85.49 173.57,-91.04 152.2,-96"/>
<polygon fill="#63b8ff" stroke="#63b8ff" points="220.62,-83.72 229.57,-78.06 219.04,-76.91 220.62,-83.72"/>
</a>
</g>
</g>
<!-- Node4 -->
<g id="Node000004" class="node">
<title>Node4</title>
<g id="a_Node000004"><a xlink:href="../../d2/d2c/classEonPlay_1_1AI_1_1AISubtitleGenerator.html#a2b7a91430635d77feed2f73c1abc2bb4" target="_top" xlink:title=" ">
<polygon fill="white" stroke="#666666" points="173,-78 0,-78 0,-48 173,-48 173,-78"/>
<text text-anchor="start" x="8" y="-66" font-family="Helvetica,sans-Serif" font-size="10.00">EonPlay::AI::AISubtitleGenerator</text>
<text text-anchor="middle" x="86.5" y="-55" font-family="Helvetica,sans-Serif" font-size="10.00">::generateSubtitles</text>
</a>
</g>
</g>
<!-- Node2&#45;&gt;Node4 -->
<g id="edge3_Node000002_Node000004" class="edge">
<title>Node2&#45;&gt;Node4</title>
<g id="a_edge3_Node000002_Node000004"><a xlink:title=" ">
<path fill="none" stroke="#63b8ff" d="M198.8,-63C190.24,-63 181.6,-63 173.12,-63"/>
<polygon fill="#63b8ff" stroke="#63b8ff" points="198.81,-66.5 208.81,-63 198.81,-59.5 198.81,-66.5"/>
</a>
</g>
</g>
<!-- Node5 -->
<g id="Node000005" class="node">
<title>Node5</title>
<g id="a_Node000005"><a xlink:href="../../d2/d2c/classEonPlay_1_1AI_1_1AISubtitleGenerator.html#af8a682522376a88ac125b8f98b315eb6" target="_top" xlink:title=" ">
<polygon fill="white" stroke="#666666" points="173,-30 0,-30 0,0 173,0 173,-30"/>
<text text-anchor="start" x="8" y="-18" font-family="Helvetica,sans-Serif" font-size="10.00">EonPlay::AI::AISubtitleGenerator</text>
<text text-anchor="middle" x="86.5" y="-7" font-family="Helvetica,sans-Serif" font-size="10.00">::getAvailableEngines</text>
</a>
</g>
</g>
<!-- Node2&#45;&gt;Node5 -->
<g id="edge4_Node000002_Node000005" class="edge">
<title>Node2&#45;&gt;Node5</title>
<g id="a_edge4_Node000002_Node000005"><a xlink:title=" ">
<path fill="none" stroke="#63b8ff" d="M219.58,-45.63C197.51,-40.51 173.57,-34.96 152.2,-30"/>
<polygon fill="#63b8ff" stroke="#63b8ff" points="219.04,-49.09 229.57,-47.94 220.62,-42.28 219.04,-49.09"/>
</a>
</g>
</g>
</g>
</svg>
