<?xml version="1.0" encoding="UTF-8" standalone="no"?>
<!DOCTYPE svg PUBLIC "-//W3C//DTD SVG 1.1//EN"
 "http://www.w3.org/Graphics/SVG/1.1/DTD/svg11.dtd">
<!-- Generated by graphviz version 2.43.0 (0)
 -->
<!-- Title: EonPlay::AI::AISubtitleGenerator::generationFailed Pages: 1 -->
<svg width="599pt" height="59pt"
 viewBox="0.00 0.00 599.00 59.00" xmlns="http://www.w3.org/2000/svg" xmlns:xlink="http://www.w3.org/1999/xlink">
<g id="graph0" class="graph" transform="scale(1 1) rotate(0) translate(4 55)">
<title>EonPlay::AI::AISubtitleGenerator::generationFailed</title>
<!-- Node1 -->
<g id="Node000001" class="node">
<title>Node1</title>
<g id="a_Node000001"><a xlink:title=" ">
<polygon fill="#999999" stroke="#666666" points="591,-51 418,-51 418,-21 591,-21 591,-51"/>
<text text-anchor="start" x="426" y="-39" font-family="Helvetica,sans-Serif" font-size="10.00">EonPlay::AI::AISubtitleGenerator</text>
<text text-anchor="middle" x="504.5" y="-28" font-family="Helvetica,sans-Serif" font-size="10.00">::generationFailed</text>
</a>
</g>
</g>
<!-- Node2 -->
<g id="Node000002" class="node">
<title>Node2</title>
<g id="a_Node000002"><a xlink:href="../../d2/d2c/classEonPlay_1_1AI_1_1AISubtitleGenerator.html#a2b7a91430635d77feed2f73c1abc2bb4" target="_top" xlink:title=" ">
<polygon fill="white" stroke="#666666" points="173,-51 0,-51 0,-21 173,-21 173,-51"/>
<text text-anchor="start" x="8" y="-39" font-family="Helvetica,sans-Serif" font-size="10.00">EonPlay::AI::AISubtitleGenerator</text>
<text text-anchor="middle" x="86.5" y="-28" font-family="Helvetica,sans-Serif" font-size="10.00">::generateSubtitles</text>
</a>
</g>
</g>
<!-- Node1&#45;&gt;Node2 -->
<g id="edge1_Node000001_Node000002" class="edge">
<title>Node1&#45;&gt;Node2</title>
<g id="a_edge1_Node000001_Node000002"><a xlink:title=" ">
<path fill="none" stroke="#63b8ff" d="M407.69,-38.59C399,-38.75 390.34,-38.9 382,-39 305.12,-39.95 285.88,-39.95 209,-39 197.4,-38.86 185.17,-38.64 173.12,-38.38"/>
<polygon fill="#63b8ff" stroke="#63b8ff" points="407.95,-42.08 417.88,-38.38 407.81,-35.08 407.95,-42.08"/>
</a>
</g>
</g>
<!-- Node3 -->
<g id="Node000003" class="node">
<title>Node3</title>
<g id="a_Node000003"><a xlink:href="../../d2/d2c/classEonPlay_1_1AI_1_1AISubtitleGenerator.html#a36de7ffb94d9476f2bba100620f5d2d4" target="_top" xlink:title=" ">
<polygon fill="white" stroke="#666666" points="382,-30 209,-30 209,0 382,0 382,-30"/>
<text text-anchor="start" x="217" y="-18" font-family="Helvetica,sans-Serif" font-size="10.00">EonPlay::AI::AISubtitleGenerator</text>
<text text-anchor="middle" x="295.5" y="-7" font-family="Helvetica,sans-Serif" font-size="10.00">::generateSubtitlesFromAudio</text>
</a>
</g>
</g>
<!-- Node1&#45;&gt;Node3 -->
<g id="edge2_Node000001_Node000003" class="edge">
<title>Node1&#45;&gt;Node3</title>
<g id="a_edge2_Node000001_Node000003"><a xlink:title=" ">
<path fill="none" stroke="#63b8ff" d="M407.8,-26.29C399.24,-25.42 390.6,-24.55 382.12,-23.69"/>
<polygon fill="#63b8ff" stroke="#63b8ff" points="407.51,-29.78 417.81,-27.31 408.22,-22.82 407.51,-29.78"/>
</a>
</g>
</g>
<!-- Node3&#45;&gt;Node2 -->
<g id="edge3_Node000003_Node000002" class="edge">
<title>Node3&#45;&gt;Node2</title>
<g id="a_edge3_Node000003_Node000002"><a xlink:title=" ">
<path fill="none" stroke="#63b8ff" d="M198.8,-24.71C190.24,-25.58 181.6,-26.45 173.12,-27.31"/>
<polygon fill="#63b8ff" stroke="#63b8ff" points="199.22,-28.18 208.81,-23.69 198.51,-21.22 199.22,-28.18"/>
</a>
</g>
</g>
</g>
</svg>
