<?xml version="1.0" encoding="UTF-8" standalone="no"?>
<!DOCTYPE svg PUBLIC "-//W3C//DTD SVG 1.1//EN"
 "http://www.w3.org/Graphics/SVG/1.1/DTD/svg11.dtd">
<!-- Generated by graphviz version 2.43.0 (0)
 -->
<!-- Title: src/security/ParentalControlManager.cpp Pages: 1 -->
<svg width="1317pt" height="159pt"
 viewBox="0.00 0.00 1316.50 159.00" xmlns="http://www.w3.org/2000/svg" xmlns:xlink="http://www.w3.org/1999/xlink">
<g id="graph0" class="graph" transform="scale(1 1) rotate(0) translate(4 155)">
<title>src/security/ParentalControlManager.cpp</title>
<!-- Node1 -->
<g id="Node000001" class="node">
<title>Node1</title>
<g id="a_Node000001"><a xlink:title=" ">
<polygon fill="#999999" stroke="#666666" points="798.5,-151 647.5,-151 647.5,-121 798.5,-121 798.5,-151"/>
<text text-anchor="start" x="655.5" y="-139" font-family="Helvetica,sans-Serif" font-size="10.00">src/security/ParentalControl</text>
<text text-anchor="middle" x="723" y="-128" font-family="Helvetica,sans-Serif" font-size="10.00">Manager.cpp</text>
</a>
</g>
</g>
<!-- Node2 -->
<g id="Node000002" class="node">
<title>Node2</title>
<g id="a_Node000002"><a xlink:href="../../dd/dd4/ParentalControlManager_8h.html" target="_top" xlink:title=" ">
<polygon fill="white" stroke="#666666" points="289,-85 155,-85 155,-55 289,-55 289,-85"/>
<text text-anchor="start" x="163" y="-73" font-family="Helvetica,sans-Serif" font-size="10.00">security/ParentalControl</text>
<text text-anchor="middle" x="222" y="-62" font-family="Helvetica,sans-Serif" font-size="10.00">Manager.h</text>
</a>
</g>
</g>
<!-- Node1&#45;&gt;Node2 -->
<g id="edge1_Node000001_Node000002" class="edge">
<title>Node1&#45;&gt;Node2</title>
<g id="a_edge1_Node000001_Node000002"><a xlink:title=" ">
<path fill="none" stroke="#63b8ff" d="M647.18,-127.58C564.18,-119.12 426.95,-104.14 299.07,-85.1"/>
<polygon fill="#63b8ff" stroke="#63b8ff" points="299.51,-81.63 289.1,-83.6 298.47,-88.55 299.51,-81.63"/>
</a>
</g>
</g>
<!-- Node9 -->
<g id="Node000009" class="node">
<title>Node9</title>
<g id="a_Node000009"><a xlink:title=" ">
<polygon fill="#e0e0e0" stroke="#999999" points="371,-79.5 307,-79.5 307,-60.5 371,-60.5 371,-79.5"/>
<text text-anchor="middle" x="339" y="-67.5" font-family="Helvetica,sans-Serif" font-size="10.00">QSettings</text>
</a>
</g>
</g>
<!-- Node1&#45;&gt;Node9 -->
<g id="edge8_Node000001_Node000009" class="edge">
<title>Node1&#45;&gt;Node9</title>
<g id="a_edge8_Node000001_Node000009"><a xlink:title=" ">
<path fill="none" stroke="#63b8ff" d="M647.22,-127.8C577.43,-120.26 471.34,-106.48 381,-85 378.03,-84.29 374.97,-83.47 371.92,-82.58"/>
<polygon fill="#63b8ff" stroke="#63b8ff" points="372.92,-79.23 362.34,-79.59 370.84,-85.91 372.92,-79.23"/>
</a>
</g>
</g>
<!-- Node10 -->
<g id="Node000010" class="node">
<title>Node10</title>
<g id="a_Node000010"><a xlink:title=" ">
<polygon fill="#e0e0e0" stroke="#999999" points="506.5,-79.5 389.5,-79.5 389.5,-60.5 506.5,-60.5 506.5,-79.5"/>
<text text-anchor="middle" x="448" y="-67.5" font-family="Helvetica,sans-Serif" font-size="10.00">QCryptographicHash</text>
</a>
</g>
</g>
<!-- Node1&#45;&gt;Node10 -->
<g id="edge9_Node000001_Node000010" class="edge">
<title>Node1&#45;&gt;Node10</title>
<g id="a_edge9_Node000001_Node000010"><a xlink:title=" ">
<path fill="none" stroke="#63b8ff" d="M662.65,-120.95C611.98,-109.16 540.64,-92.56 494.36,-81.79"/>
<polygon fill="#63b8ff" stroke="#63b8ff" points="495.13,-78.38 484.6,-79.52 493.54,-85.19 495.13,-78.38"/>
</a>
</g>
</g>
<!-- Node11 -->
<g id="Node000011" class="node">
<title>Node11</title>
<g id="a_Node000011"><a xlink:title=" ">
<polygon fill="#e0e0e0" stroke="#999999" points="619,-79.5 525,-79.5 525,-60.5 619,-60.5 619,-79.5"/>
<text text-anchor="middle" x="572" y="-67.5" font-family="Helvetica,sans-Serif" font-size="10.00">QStandardPaths</text>
</a>
</g>
</g>
<!-- Node1&#45;&gt;Node11 -->
<g id="edge10_Node000001_Node000011" class="edge">
<title>Node1&#45;&gt;Node11</title>
<g id="a_edge10_Node000001_Node000011"><a xlink:title=" ">
<path fill="none" stroke="#63b8ff" d="M689.86,-120.95C663.5,-109.78 626.94,-94.29 601.56,-83.53"/>
<polygon fill="#63b8ff" stroke="#63b8ff" points="602.67,-80.2 592.1,-79.52 599.94,-86.64 602.67,-80.2"/>
</a>
</g>
</g>
<!-- Node12 -->
<g id="Node000012" class="node">
<title>Node12</title>
<g id="a_Node000012"><a xlink:title=" ">
<polygon fill="#e0e0e0" stroke="#999999" points="675,-79.5 637,-79.5 637,-60.5 675,-60.5 675,-79.5"/>
<text text-anchor="middle" x="656" y="-67.5" font-family="Helvetica,sans-Serif" font-size="10.00">QDir</text>
</a>
</g>
</g>
<!-- Node1&#45;&gt;Node12 -->
<g id="edge11_Node000001_Node000012" class="edge">
<title>Node1&#45;&gt;Node12</title>
<g id="a_edge11_Node000001_Node000012"><a xlink:title=" ">
<path fill="none" stroke="#63b8ff" d="M708.13,-120.8C697.58,-110.72 683.42,-97.19 672.52,-86.78"/>
<polygon fill="#63b8ff" stroke="#63b8ff" points="674.91,-84.22 665.26,-79.84 670.07,-89.28 674.91,-84.22"/>
</a>
</g>
</g>
<!-- Node13 -->
<g id="Node000013" class="node">
<title>Node13</title>
<g id="a_Node000013"><a xlink:title=" ">
<polygon fill="#e0e0e0" stroke="#999999" points="753,-79.5 693,-79.5 693,-60.5 753,-60.5 753,-79.5"/>
<text text-anchor="middle" x="723" y="-67.5" font-family="Helvetica,sans-Serif" font-size="10.00">QFileInfo</text>
</a>
</g>
</g>
<!-- Node1&#45;&gt;Node13 -->
<g id="edge12_Node000001_Node000013" class="edge">
<title>Node1&#45;&gt;Node13</title>
<g id="a_edge12_Node000001_Node000013"><a xlink:title=" ">
<path fill="none" stroke="#63b8ff" d="M723,-120.8C723,-111.7 723,-99.79 723,-89.9"/>
<polygon fill="#63b8ff" stroke="#63b8ff" points="726.5,-89.84 723,-79.84 719.5,-89.84 726.5,-89.84"/>
</a>
</g>
</g>
<!-- Node14 -->
<g id="Node000014" class="node">
<title>Node14</title>
<g id="a_Node000014"><a xlink:title=" ">
<polygon fill="#e0e0e0" stroke="#999999" points="886.5,-79.5 771.5,-79.5 771.5,-60.5 886.5,-60.5 886.5,-79.5"/>
<text text-anchor="middle" x="829" y="-67.5" font-family="Helvetica,sans-Serif" font-size="10.00">QRegularExpression</text>
</a>
</g>
</g>
<!-- Node1&#45;&gt;Node14 -->
<g id="edge13_Node000001_Node000014" class="edge">
<title>Node1&#45;&gt;Node14</title>
<g id="a_edge13_Node000001_Node000014"><a xlink:title=" ">
<path fill="none" stroke="#63b8ff" d="M746.26,-120.95C764.11,-110.18 788.62,-95.38 806.33,-84.69"/>
<polygon fill="#63b8ff" stroke="#63b8ff" points="808.14,-87.68 814.89,-79.52 804.52,-81.69 808.14,-87.68"/>
</a>
</g>
</g>
<!-- Node15 -->
<g id="Node000015" class="node">
<title>Node15</title>
<g id="a_Node000015"><a xlink:title=" ">
<polygon fill="#e0e0e0" stroke="#999999" points="1011.5,-79.5 904.5,-79.5 904.5,-60.5 1011.5,-60.5 1011.5,-79.5"/>
<text text-anchor="middle" x="958" y="-67.5" font-family="Helvetica,sans-Serif" font-size="10.00">QLoggingCategory</text>
</a>
</g>
</g>
<!-- Node1&#45;&gt;Node15 -->
<g id="edge14_Node000001_Node000015" class="edge">
<title>Node1&#45;&gt;Node15</title>
<g id="a_edge14_Node000001_Node000015"><a xlink:title=" ">
<path fill="none" stroke="#63b8ff" d="M774.57,-120.95C817.33,-109.31 877.3,-92.98 916.88,-82.2"/>
<polygon fill="#63b8ff" stroke="#63b8ff" points="918,-85.52 926.73,-79.52 916.16,-78.77 918,-85.52"/>
</a>
</g>
</g>
<!-- Node16 -->
<g id="Node000016" class="node">
<title>Node16</title>
<g id="a_Node000016"><a xlink:title=" ">
<polygon fill="#e0e0e0" stroke="#999999" points="1124.5,-79.5 1029.5,-79.5 1029.5,-60.5 1124.5,-60.5 1124.5,-79.5"/>
<text text-anchor="middle" x="1077" y="-67.5" font-family="Helvetica,sans-Serif" font-size="10.00">QJsonDocument</text>
</a>
</g>
</g>
<!-- Node1&#45;&gt;Node16 -->
<g id="edge15_Node000001_Node000016" class="edge">
<title>Node1&#45;&gt;Node16</title>
<g id="a_edge15_Node000001_Node000016"><a xlink:title=" ">
<path fill="none" stroke="#63b8ff" d="M798.63,-123.99C859.05,-114.8 945.77,-100.69 1021,-85 1025.48,-84.07 1030.14,-83.02 1034.78,-81.93"/>
<polygon fill="#63b8ff" stroke="#63b8ff" points="1035.92,-85.26 1044.82,-79.51 1034.28,-78.45 1035.92,-85.26"/>
</a>
</g>
</g>
<!-- Node17 -->
<g id="Node000017" class="node">
<title>Node17</title>
<g id="a_Node000017"><a xlink:title=" ">
<polygon fill="#e0e0e0" stroke="#999999" points="1219,-79.5 1143,-79.5 1143,-60.5 1219,-60.5 1219,-79.5"/>
<text text-anchor="middle" x="1181" y="-67.5" font-family="Helvetica,sans-Serif" font-size="10.00">QJsonObject</text>
</a>
</g>
</g>
<!-- Node1&#45;&gt;Node17 -->
<g id="edge16_Node000001_Node000017" class="edge">
<title>Node1&#45;&gt;Node17</title>
<g id="a_edge16_Node000001_Node000017"><a xlink:title=" ">
<path fill="none" stroke="#63b8ff" d="M798.62,-129.64C881.54,-122.88 1018.24,-109.1 1134,-85 1137.63,-84.24 1141.39,-83.34 1145.12,-82.36"/>
<polygon fill="#63b8ff" stroke="#63b8ff" points="1146.16,-85.7 1154.85,-79.64 1144.28,-78.96 1146.16,-85.7"/>
</a>
</g>
</g>
<!-- Node18 -->
<g id="Node000018" class="node">
<title>Node18</title>
<g id="a_Node000018"><a xlink:title=" ">
<polygon fill="#e0e0e0" stroke="#999999" points="1308.5,-79.5 1237.5,-79.5 1237.5,-60.5 1308.5,-60.5 1308.5,-79.5"/>
<text text-anchor="middle" x="1273" y="-67.5" font-family="Helvetica,sans-Serif" font-size="10.00">QJsonArray</text>
</a>
</g>
</g>
<!-- Node1&#45;&gt;Node18 -->
<g id="edge17_Node000001_Node000018" class="edge">
<title>Node1&#45;&gt;Node18</title>
<g id="a_edge17_Node000001_Node000018"><a xlink:title=" ">
<path fill="none" stroke="#63b8ff" d="M798.58,-132.3C897.94,-127.66 1077.55,-115.52 1228,-85 1231.47,-84.3 1235.06,-83.43 1238.62,-82.47"/>
<polygon fill="#63b8ff" stroke="#63b8ff" points="1239.85,-85.76 1248.48,-79.62 1237.9,-79.04 1239.85,-85.76"/>
</a>
</g>
</g>
<!-- Node3 -->
<g id="Node000003" class="node">
<title>Node3</title>
<g id="a_Node000003"><a xlink:title=" ">
<polygon fill="#e0e0e0" stroke="#999999" points="56,-19 0,-19 0,0 56,0 56,-19"/>
<text text-anchor="middle" x="28" y="-7" font-family="Helvetica,sans-Serif" font-size="10.00">QObject</text>
</a>
</g>
</g>
<!-- Node2&#45;&gt;Node3 -->
<g id="edge2_Node000002_Node000003" class="edge">
<title>Node2&#45;&gt;Node3</title>
<g id="a_edge2_Node000002_Node000003"><a xlink:title=" ">
<path fill="none" stroke="#63b8ff" d="M175.53,-54.99C141.95,-44.86 97.16,-31.35 65.77,-21.89"/>
<polygon fill="#63b8ff" stroke="#63b8ff" points="66.67,-18.5 56.08,-18.97 64.65,-25.21 66.67,-18.5"/>
</a>
</g>
</g>
<!-- Node4 -->
<g id="Node000004" class="node">
<title>Node4</title>
<g id="a_Node000004"><a xlink:title=" ">
<polygon fill="#e0e0e0" stroke="#999999" points="127.5,-19 74.5,-19 74.5,0 127.5,0 127.5,-19"/>
<text text-anchor="middle" x="101" y="-7" font-family="Helvetica,sans-Serif" font-size="10.00">QString</text>
</a>
</g>
</g>
<!-- Node2&#45;&gt;Node4 -->
<g id="edge3_Node000002_Node000004" class="edge">
<title>Node2&#45;&gt;Node4</title>
<g id="a_edge3_Node000002_Node000004"><a xlink:title=" ">
<path fill="none" stroke="#63b8ff" d="M193.02,-54.99C173.28,-45.45 147.33,-32.9 128.03,-23.57"/>
<polygon fill="#63b8ff" stroke="#63b8ff" points="129.4,-20.34 118.87,-19.14 126.35,-26.64 129.4,-20.34"/>
</a>
</g>
</g>
<!-- Node5 -->
<g id="Node000005" class="node">
<title>Node5</title>
<g id="a_Node000005"><a xlink:title=" ">
<polygon fill="#e0e0e0" stroke="#999999" points="218,-19 146,-19 146,0 218,0 218,-19"/>
<text text-anchor="middle" x="182" y="-7" font-family="Helvetica,sans-Serif" font-size="10.00">QDateTime</text>
</a>
</g>
</g>
<!-- Node2&#45;&gt;Node5 -->
<g id="edge4_Node000002_Node000005" class="edge">
<title>Node2&#45;&gt;Node5</title>
<g id="a_edge4_Node000002_Node000005"><a xlink:title=" ">
<path fill="none" stroke="#63b8ff" d="M212.32,-54.84C206.75,-46.69 199.71,-36.4 193.82,-27.78"/>
<polygon fill="#63b8ff" stroke="#63b8ff" points="196.53,-25.55 187.99,-19.27 190.75,-29.5 196.53,-25.55"/>
</a>
</g>
</g>
<!-- Node6 -->
<g id="Node000006" class="node">
<title>Node6</title>
<g id="a_Node000006"><a xlink:title=" ">
<polygon fill="#e0e0e0" stroke="#999999" points="289.5,-19 236.5,-19 236.5,0 289.5,0 289.5,-19"/>
<text text-anchor="middle" x="263" y="-7" font-family="Helvetica,sans-Serif" font-size="10.00">QTimer</text>
</a>
</g>
</g>
<!-- Node2&#45;&gt;Node6 -->
<g id="edge5_Node000002_Node000006" class="edge">
<title>Node2&#45;&gt;Node6</title>
<g id="a_edge5_Node000002_Node000006"><a xlink:title=" ">
<path fill="none" stroke="#63b8ff" d="M231.92,-54.84C237.69,-46.61 245,-36.18 251.08,-27.51"/>
<polygon fill="#63b8ff" stroke="#63b8ff" points="253.98,-29.46 256.86,-19.27 248.25,-25.45 253.98,-29.46"/>
</a>
</g>
</g>
<!-- Node7 -->
<g id="Node000007" class="node">
<title>Node7</title>
<g id="a_Node000007"><a xlink:title=" ">
<polygon fill="#e0e0e0" stroke="#999999" points="378,-19 308,-19 308,0 378,0 378,-19"/>
<text text-anchor="middle" x="343" y="-7" font-family="Helvetica,sans-Serif" font-size="10.00">QStringList</text>
</a>
</g>
</g>
<!-- Node2&#45;&gt;Node7 -->
<g id="edge6_Node000002_Node000007" class="edge">
<title>Node2&#45;&gt;Node7</title>
<g id="a_edge6_Node000002_Node000007"><a xlink:title=" ">
<path fill="none" stroke="#63b8ff" d="M250.98,-54.99C270.72,-45.45 296.67,-32.9 315.97,-23.57"/>
<polygon fill="#63b8ff" stroke="#63b8ff" points="317.65,-26.64 325.13,-19.14 314.6,-20.34 317.65,-26.64"/>
</a>
</g>
</g>
<!-- Node8 -->
<g id="Node000008" class="node">
<title>Node8</title>
<g id="a_Node000008"><a xlink:title=" ">
<polygon fill="#e0e0e0" stroke="#999999" points="441.5,-19 396.5,-19 396.5,0 441.5,0 441.5,-19"/>
<text text-anchor="middle" x="419" y="-7" font-family="Helvetica,sans-Serif" font-size="10.00">QMap</text>
</a>
</g>
</g>
<!-- Node2&#45;&gt;Node8 -->
<g id="edge7_Node000002_Node000008" class="edge">
<title>Node2&#45;&gt;Node8</title>
<g id="a_edge7_Node000002_Node000008"><a xlink:title=" ">
<path fill="none" stroke="#63b8ff" d="M269.19,-54.99C305.44,-44.22 354.57,-29.63 386.52,-20.14"/>
<polygon fill="#63b8ff" stroke="#63b8ff" points="387.67,-23.46 396.26,-17.25 385.67,-16.75 387.67,-23.46"/>
</a>
</g>
</g>
</g>
</svg>
