<?xml version="1.0" encoding="UTF-8" standalone="no"?>
<!DOCTYPE svg PUBLIC "-//W3C//DTD SVG 1.1//EN"
 "http://www.w3.org/Graphics/SVG/1.1/DTD/svg11.dtd">
<!-- Generated by graphviz version 2.43.0 (0)
 -->
<!-- Title: include/data/Playlist.h Pages: 1 -->
<svg width="414pt" height="137pt"
 viewBox="0.00 0.00 414.00 137.00" xmlns="http://www.w3.org/2000/svg" xmlns:xlink="http://www.w3.org/1999/xlink">
<g id="graph0" class="graph" transform="scale(1 1) rotate(0) translate(4 133)">
<title>include/data/Playlist.h</title>
<!-- Node1 -->
<g id="Node000001" class="node">
<title>Node1</title>
<g id="a_Node000001"><a xlink:title=" ">
<polygon fill="#999999" stroke="#666666" points="286,-129 161,-129 161,-110 286,-110 286,-129"/>
<text text-anchor="middle" x="223.5" y="-117" font-family="Helvetica,sans-Serif" font-size="10.00">include/data/Playlist.h</text>
</a>
</g>
</g>
<!-- Node2 -->
<g id="Node000002" class="node">
<title>Node2</title>
<g id="a_Node000002"><a xlink:href="../../d2/dc4/MediaFile_8h.html" target="_top" xlink:title=" ">
<polygon fill="white" stroke="#666666" points="234.5,-74 136.5,-74 136.5,-55 234.5,-55 234.5,-74"/>
<text text-anchor="middle" x="185.5" y="-62" font-family="Helvetica,sans-Serif" font-size="10.00">data/MediaFile.h</text>
</a>
</g>
</g>
<!-- Node1&#45;&gt;Node2 -->
<g id="edge1_Node000001_Node000002" class="edge">
<title>Node1&#45;&gt;Node2</title>
<g id="a_edge1_Node000001_Node000002"><a xlink:title=" ">
<path fill="none" stroke="#63b8ff" d="M217.23,-109.75C211.91,-102.34 204.14,-91.5 197.62,-82.41"/>
<polygon fill="#63b8ff" stroke="#63b8ff" points="200.33,-80.18 191.66,-74.09 194.64,-84.26 200.33,-80.18"/>
</a>
</g>
</g>
<!-- Node3 -->
<g id="Node000003" class="node">
<title>Node3</title>
<g id="a_Node000003"><a xlink:title=" ">
<polygon fill="#e0e0e0" stroke="#999999" points="53,-19 0,-19 0,0 53,0 53,-19"/>
<text text-anchor="middle" x="26.5" y="-7" font-family="Helvetica,sans-Serif" font-size="10.00">QString</text>
</a>
</g>
</g>
<!-- Node1&#45;&gt;Node3 -->
<g id="edge8_Node000001_Node000003" class="edge">
<title>Node1&#45;&gt;Node3</title>
<g id="a_edge8_Node000001_Node000003"><a xlink:title=" ">
<path fill="none" stroke="#63b8ff" d="M196.35,-109.97C173.09,-102.13 139.07,-89.42 111.5,-74 86.45,-59.99 60.4,-39.51 43.85,-25.62"/>
<polygon fill="#63b8ff" stroke="#63b8ff" points="46,-22.85 36.12,-19.03 41.46,-28.18 46,-22.85"/>
</a>
</g>
</g>
<!-- Node4 -->
<g id="Node000004" class="node">
<title>Node4</title>
<g id="a_Node000004"><a xlink:title=" ">
<polygon fill="#e0e0e0" stroke="#999999" points="143.5,-19 71.5,-19 71.5,0 143.5,0 143.5,-19"/>
<text text-anchor="middle" x="107.5" y="-7" font-family="Helvetica,sans-Serif" font-size="10.00">QDateTime</text>
</a>
</g>
</g>
<!-- Node1&#45;&gt;Node4 -->
<g id="edge9_Node000001_Node000004" class="edge">
<title>Node1&#45;&gt;Node4</title>
<g id="a_edge9_Node000001_Node000004"><a xlink:title=" ">
<path fill="none" stroke="#63b8ff" d="M188.55,-109.96C168.15,-103.31 143.38,-92.08 127.5,-74 116.65,-61.65 111.68,-43.43 109.41,-29.67"/>
<polygon fill="#63b8ff" stroke="#63b8ff" points="112.83,-28.85 108.07,-19.39 105.89,-29.76 112.83,-28.85"/>
</a>
</g>
</g>
<!-- Node6 -->
<g id="Node000006" class="node">
<title>Node6</title>
<g id="a_Node000006"><a xlink:title=" ">
<polygon fill="#e0e0e0" stroke="#999999" points="367,-19 308,-19 308,0 367,0 367,-19"/>
<text text-anchor="middle" x="337.5" y="-7" font-family="Helvetica,sans-Serif" font-size="10.00">QVariant</text>
</a>
</g>
</g>
<!-- Node1&#45;&gt;Node6 -->
<g id="edge11_Node000001_Node000006" class="edge">
<title>Node1&#45;&gt;Node6</title>
<g id="a_edge11_Node000001_Node000006"><a xlink:title=" ">
<path fill="none" stroke="#63b8ff" d="M230.61,-109.88C241.16,-97.28 261.85,-73.34 281.5,-55 292.82,-44.44 306.39,-33.61 317.34,-25.28"/>
<polygon fill="#63b8ff" stroke="#63b8ff" points="319.57,-27.98 325.47,-19.18 315.37,-22.38 319.57,-27.98"/>
</a>
</g>
</g>
<!-- Node8 -->
<g id="Node000008" class="node">
<title>Node8</title>
<g id="a_Node000008"><a xlink:title=" ">
<polygon fill="#e0e0e0" stroke="#999999" points="346.5,-74 290.5,-74 290.5,-55 346.5,-55 346.5,-74"/>
<text text-anchor="middle" x="318.5" y="-62" font-family="Helvetica,sans-Serif" font-size="10.00">QObject</text>
</a>
</g>
</g>
<!-- Node1&#45;&gt;Node8 -->
<g id="edge7_Node000001_Node000008" class="edge">
<title>Node1&#45;&gt;Node8</title>
<g id="a_edge7_Node000001_Node000008"><a xlink:title=" ">
<path fill="none" stroke="#63b8ff" d="M238.76,-109.98C253.63,-101.69 276.48,-88.94 293.92,-79.22"/>
<polygon fill="#63b8ff" stroke="#63b8ff" points="295.93,-82.1 302.96,-74.17 292.52,-75.99 295.93,-82.1"/>
</a>
</g>
</g>
<!-- Node9 -->
<g id="Node000009" class="node">
<title>Node9</title>
<g id="a_Node000009"><a xlink:title=" ">
<polygon fill="#e0e0e0" stroke="#999999" points="406,-74 365,-74 365,-55 406,-55 406,-74"/>
<text text-anchor="middle" x="385.5" y="-62" font-family="Helvetica,sans-Serif" font-size="10.00">QList</text>
</a>
</g>
</g>
<!-- Node1&#45;&gt;Node9 -->
<g id="edge10_Node000001_Node000009" class="edge">
<title>Node1&#45;&gt;Node9</title>
<g id="a_edge10_Node000001_Node000009"><a xlink:title=" ">
<path fill="none" stroke="#63b8ff" d="M249.53,-109.98C278.3,-100.57 324.58,-85.43 355.02,-75.47"/>
<polygon fill="#63b8ff" stroke="#63b8ff" points="356.27,-78.75 364.69,-72.31 354.09,-72.09 356.27,-78.75"/>
</a>
</g>
</g>
<!-- Node2&#45;&gt;Node3 -->
<g id="edge2_Node000002_Node000003" class="edge">
<title>Node2&#45;&gt;Node3</title>
<g id="a_edge2_Node000002_Node000003"><a xlink:title=" ">
<path fill="none" stroke="#63b8ff" d="M159.95,-54.98C133.38,-46.13 91.56,-32.19 61.83,-22.28"/>
<polygon fill="#63b8ff" stroke="#63b8ff" points="62.84,-18.92 52.25,-19.08 60.63,-25.56 62.84,-18.92"/>
</a>
</g>
</g>
<!-- Node2&#45;&gt;Node4 -->
<g id="edge3_Node000002_Node000004" class="edge">
<title>Node2&#45;&gt;Node4</title>
<g id="a_edge3_Node000002_Node000004"><a xlink:title=" ">
<path fill="none" stroke="#63b8ff" d="M172.97,-54.98C161.1,-46.92 143.04,-34.65 128.89,-25.03"/>
<polygon fill="#63b8ff" stroke="#63b8ff" points="130.5,-21.9 120.26,-19.17 126.56,-27.69 130.5,-21.9"/>
</a>
</g>
</g>
<!-- Node5 -->
<g id="Node000005" class="node">
<title>Node5</title>
<g id="a_Node000005"><a xlink:title=" ">
<polygon fill="#e0e0e0" stroke="#999999" points="289.5,-19 229.5,-19 229.5,0 289.5,0 289.5,-19"/>
<text text-anchor="middle" x="259.5" y="-7" font-family="Helvetica,sans-Serif" font-size="10.00">QFileInfo</text>
</a>
</g>
</g>
<!-- Node2&#45;&gt;Node5 -->
<g id="edge4_Node000002_Node000005" class="edge">
<title>Node2&#45;&gt;Node5</title>
<g id="a_edge4_Node000002_Node000005"><a xlink:title=" ">
<path fill="none" stroke="#63b8ff" d="M197.39,-54.98C208.65,-46.92 225.79,-34.65 239.21,-25.03"/>
<polygon fill="#63b8ff" stroke="#63b8ff" points="241.3,-27.84 247.39,-19.17 237.23,-22.15 241.3,-27.84"/>
</a>
</g>
</g>
<!-- Node2&#45;&gt;Node6 -->
<g id="edge5_Node000002_Node000006" class="edge">
<title>Node2&#45;&gt;Node6</title>
<g id="a_edge5_Node000002_Node000006"><a xlink:title=" ">
<path fill="none" stroke="#63b8ff" d="M209.92,-54.98C235.22,-46.16 274.95,-32.31 303.36,-22.41"/>
<polygon fill="#63b8ff" stroke="#63b8ff" points="304.6,-25.68 312.89,-19.08 302.29,-19.07 304.6,-25.68"/>
</a>
</g>
</g>
<!-- Node7 -->
<g id="Node000007" class="node">
<title>Node7</title>
<g id="a_Node000007"><a xlink:title=" ">
<polygon fill="#e0e0e0" stroke="#999999" points="211,-19 162,-19 162,0 211,0 211,-19"/>
<text text-anchor="middle" x="186.5" y="-7" font-family="Helvetica,sans-Serif" font-size="10.00">QHash</text>
</a>
</g>
</g>
<!-- Node2&#45;&gt;Node7 -->
<g id="edge6_Node000002_Node000007" class="edge">
<title>Node2&#45;&gt;Node7</title>
<g id="a_edge6_Node000002_Node000007"><a xlink:title=" ">
<path fill="none" stroke="#63b8ff" d="M185.67,-54.75C185.8,-47.8 185.98,-37.85 186.15,-29.13"/>
<polygon fill="#63b8ff" stroke="#63b8ff" points="189.65,-29.15 186.34,-19.09 182.65,-29.02 189.65,-29.15"/>
</a>
</g>
</g>
</g>
</svg>
