<?xml version="1.0" encoding="UTF-8" standalone="no"?>
<!DOCTYPE svg PUBLIC "-//W3C//DTD SVG 1.1//EN"
 "http://www.w3.org/Graphics/SVG/1.1/DTD/svg11.dtd">
<!-- Generated by graphviz version 2.43.0 (0)
 -->
<!-- Title: MiniPlayerWidget::toggleMiniPlayer Pages: 1 -->
<svg width="339pt" height="86pt"
 viewBox="0.00 0.00 339.00 86.00" xmlns="http://www.w3.org/2000/svg" xmlns:xlink="http://www.w3.org/1999/xlink">
<g id="graph0" class="graph" transform="scale(1 1) rotate(0) translate(4 82)">
<title>MiniPlayerWidget::toggleMiniPlayer</title>
<!-- Node1 -->
<g id="Node000001" class="node">
<title>Node1</title>
<g id="a_Node000001"><a xlink:title="Toggle mini player visibility.">
<polygon fill="#999999" stroke="#666666" points="140,-54 0,-54 0,-24 140,-24 140,-54"/>
<text text-anchor="start" x="8" y="-42" font-family="Helvetica,sans-Serif" font-size="10.00">MiniPlayerWidget::toggle</text>
<text text-anchor="middle" x="70" y="-31" font-family="Helvetica,sans-Serif" font-size="10.00">MiniPlayer</text>
</a>
</g>
</g>
<!-- Node2 -->
<g id="Node000002" class="node">
<title>Node2</title>
<g id="a_Node000002"><a xlink:href="../../d7/ddb/classMiniPlayerWidget.html#adf01d31cb8e1884b1e3a1533a4fa7cca" target="_top" xlink:title="Hide mini player.">
<polygon fill="white" stroke="#666666" points="329,-78 178,-78 178,-48 329,-48 329,-78"/>
<text text-anchor="start" x="186" y="-66" font-family="Helvetica,sans-Serif" font-size="10.00">MiniPlayerWidget::hideMini</text>
<text text-anchor="middle" x="253.5" y="-55" font-family="Helvetica,sans-Serif" font-size="10.00">Player</text>
</a>
</g>
</g>
<!-- Node1&#45;&gt;Node2 -->
<g id="edge1_Node000001_Node000002" class="edge">
<title>Node1&#45;&gt;Node2</title>
<g id="a_edge1_Node000001_Node000002"><a xlink:title=" ">
<path fill="none" stroke="#63b8ff" d="M140.14,-48.14C149.18,-49.34 158.54,-50.58 167.81,-51.8"/>
<polygon fill="#63b8ff" stroke="#63b8ff" points="167.44,-55.28 177.81,-53.12 168.36,-48.34 167.44,-55.28"/>
</a>
</g>
</g>
<!-- Node3 -->
<g id="Node000003" class="node">
<title>Node3</title>
<g id="a_Node000003"><a xlink:href="../../d7/ddb/classMiniPlayerWidget.html#a7216f18084d2b8c3ae72e916570b527f" target="_top" xlink:title="Show mini player.">
<polygon fill="white" stroke="#666666" points="331,-30 176,-30 176,0 331,0 331,-30"/>
<text text-anchor="start" x="184" y="-18" font-family="Helvetica,sans-Serif" font-size="10.00">MiniPlayerWidget::showMini</text>
<text text-anchor="middle" x="253.5" y="-7" font-family="Helvetica,sans-Serif" font-size="10.00">Player</text>
</a>
</g>
</g>
<!-- Node1&#45;&gt;Node3 -->
<g id="edge2_Node000001_Node000003" class="edge">
<title>Node1&#45;&gt;Node3</title>
<g id="a_edge2_Node000001_Node000003"><a xlink:title=" ">
<path fill="none" stroke="#63b8ff" d="M140.14,-29.86C148.56,-28.74 157.25,-27.6 165.89,-26.45"/>
<polygon fill="#63b8ff" stroke="#63b8ff" points="166.53,-29.9 175.98,-25.12 165.61,-22.96 166.53,-29.9"/>
</a>
</g>
</g>
</g>
</svg>
