<?xml version="1.0" encoding="UTF-8" standalone="no"?>
<!DOCTYPE svg PUBLIC "-//W3C//DTD SVG 1.1//EN"
 "http://www.w3.org/Graphics/SVG/1.1/DTD/svg11.dtd">
<!-- Generated by graphviz version 2.43.0 (0)
 -->
<!-- Title: AudioProcessorWidget::initialize Pages: 1 -->
<!--zoomable 882 -->

<svg id="main" version="1.1" xmlns="http://www.w3.org/2000/svg" xmlns:xlink="http://www.w3.org/1999/xlink" xml:space="preserve" onload="init(evt)">
<style type="text/css"><![CDATA[
.node, .edge {opacity: 0.7;}
.node.selected, .edge.selected {opacity: 1;}
.edge:hover path { stroke: red; }
.edge:hover polygon { stroke: red; fill: red; }
]]></style>

<defs>
  <circle id="rim" cx="0" cy="0" r="7"/>
  <circle id="rim2" cx="0" cy="0" r="3.5"/>
  <g id="zoomPlus">
    <use xlink:href="#rim" fill="#404040"><set attributeName="fill" to="#808080" begin="zoomplus.mouseover" end="zoomplus.mouseout"/></use>
    <path d="M-4,0h8M0,-4v8" fill="none" stroke="white" stroke-width="1.5" pointer-events="none"/>
  </g>
  <g id="zoomMin">
    <use xlink:href="#rim" fill="#404040"><set attributeName="fill" to="#808080" begin="zoomminus.mouseover" end="zoomminus.mouseout"/></use>
    <path d="M-4,0h8" fill="none" stroke="white" stroke-width="1.5" pointer-events="none"/>
  </g>
  <g id="arrowUp" transform="translate(30 24)">
    <use xlink:href="#rim"/>
    <path pointer-events="none" fill="none" stroke="white" stroke-width="1.5" d="M0,-3.0v7 M-2.5,-0.5L0,-3.0L2.5,-0.5"/>
  </g>
  <g id="arrowRight" transform="rotate(90) translate(36 -43)">
    <use xlink:href="#rim"/>
    <path pointer-events="none" fill="none" stroke="white" stroke-width="1.5" d="M0,-3.0v7 M-2.5,-0.5L0,-3.0L2.5,-0.5"/>
  </g>
  <g id="arrowDown" transform="rotate(180) translate(-30 -48)">
    <use xlink:href="#rim"/>
    <path pointer-events="none" fill="none" stroke="white" stroke-width="1.5" d="M0,-3.0v7 M-2.5,-0.5L0,-3.0L2.5,-0.5"/>
  </g>
  <g id="arrowLeft" transform="rotate(270) translate(-36 17)">
    <use xlink:href="#rim"/>
    <path pointer-events="none" fill="none" stroke="white" stroke-width="1.5" d="M0,-3.0v7 M-2.5,-0.5L0,-3.0L2.5,-0.5"/>
  </g>
  <g id="resetDef">
    <use xlink:href="#rim2" fill="#404040"><set attributeName="fill" to="#808080" begin="reset.mouseover" end="reset.mouseout"/></use>
  </g>
</defs>
<script type="application/ecmascript">
var viewWidth = 349;
var viewHeight = 882;
var sectionId = 'dynsection-2';
</script>
<script type="application/ecmascript" xlink:href="../../svg.min.js"/>
<svg id="graph" class="graph">
<g id="viewport">
<title>AudioProcessorWidget::initialize</title>
<!-- Node1 -->
<g id="Node000001" class="node">
<title>Node1</title>
<g id="a_Node000001"><a xlink:title="Initialize the widget with audio processor.">
<polygon fill="#999999" stroke="#666666" points="126,-462 0,-462 0,-432 126,-432 126,-462"/>
<text text-anchor="start" x="8" y="-450" font-family="Helvetica,sans-Serif" font-size="10.00">AudioProcessorWidget</text>
<text text-anchor="middle" x="63" y="-439" font-family="Helvetica,sans-Serif" font-size="10.00">::initialize</text>
</a>
</g>
</g>
<!-- Node2 -->
<g id="Node000002" class="node">
<title>Node2</title>
<g id="a_Node000002"><a xlink:href="../../d5/db2/classAudioProcessor.html#ae111f673e56b352c338d970fc148aee7" target="_top" xlink:title="Emitted when audio delay changes.">
<polygon fill="white" stroke="#666666" points="328,-874 175,-874 175,-844 328,-844 328,-874"/>
<text text-anchor="start" x="183" y="-862" font-family="Helvetica,sans-Serif" font-size="10.00">AudioProcessor::audioDelay</text>
<text text-anchor="middle" x="251.5" y="-851" font-family="Helvetica,sans-Serif" font-size="10.00">Changed</text>
</a>
</g>
</g>
<!-- Node1&#45;&gt;Node2 -->
<g id="edge1_Node000001_Node000002" class="edge">
<title>Node1&#45;&gt;Node2</title>
<g id="a_edge1_Node000001_Node000002"><a xlink:title=" ">
<path fill="none" stroke="#63b8ff" d="M65.81,-462.36C73.79,-527.47 107.82,-779.87 162,-835 163.42,-836.45 164.92,-837.81 166.49,-839.09"/>
<polygon fill="#63b8ff" stroke="#63b8ff" points="164.61,-842.05 174.83,-844.87 168.6,-836.3 164.61,-842.05"/>
</a>
</g>
</g>
<!-- Node3 -->
<g id="Node000003" class="node">
<title>Node3</title>
<g id="a_Node000003"><a xlink:href="../../d5/db2/classAudioProcessor.html#a622f26117d08bc1154e232f9c5ded611" target="_top" xlink:title="Emitted when audio track changes.">
<polygon fill="white" stroke="#666666" points="326.5,-826 176.5,-826 176.5,-796 326.5,-796 326.5,-826"/>
<text text-anchor="start" x="184.5" y="-814" font-family="Helvetica,sans-Serif" font-size="10.00">AudioProcessor::audioTrack</text>
<text text-anchor="middle" x="251.5" y="-803" font-family="Helvetica,sans-Serif" font-size="10.00">Changed</text>
</a>
</g>
</g>
<!-- Node1&#45;&gt;Node3 -->
<g id="edge2_Node000001_Node000003" class="edge">
<title>Node1&#45;&gt;Node3</title>
<g id="a_edge2_Node000001_Node000003"><a xlink:title=" ">
<path fill="none" stroke="#63b8ff" d="M63.51,-462.12C62.66,-515.04 67.22,-693.7 162,-787 163.71,-788.68 165.52,-790.24 167.41,-791.7"/>
<polygon fill="#63b8ff" stroke="#63b8ff" points="165.94,-794.92 176.23,-797.43 169.75,-789.05 165.94,-794.92"/>
</a>
</g>
</g>
<!-- Node4 -->
<g id="Node000004" class="node">
<title>Node4</title>
<g id="a_Node000004"><a xlink:href="../../d5/db2/classAudioProcessor.html#aad3ac5b5fb7bebc6ec45ff9fc56ffb9c" target="_top" xlink:title="Emitted when conversion completes.">
<polygon fill="white" stroke="#666666" points="327,-778 176,-778 176,-748 327,-748 327,-778"/>
<text text-anchor="start" x="184" y="-766" font-family="Helvetica,sans-Serif" font-size="10.00">AudioProcessor::conversion</text>
<text text-anchor="middle" x="251.5" y="-755" font-family="Helvetica,sans-Serif" font-size="10.00">Completed</text>
</a>
</g>
</g>
<!-- Node1&#45;&gt;Node4 -->
<g id="edge3_Node000001_Node000004" class="edge">
<title>Node1&#45;&gt;Node4</title>
<g id="a_edge3_Node000001_Node000004"><a xlink:title=" ">
<path fill="none" stroke="#63b8ff" d="M64.35,-462.33C66.32,-510.61 79.12,-660.87 162,-739 163.69,-740.6 165.48,-742.09 167.35,-743.49"/>
<polygon fill="#63b8ff" stroke="#63b8ff" points="165.68,-746.57 176,-749 169.45,-740.67 165.68,-746.57"/>
</a>
</g>
</g>
<!-- Node5 -->
<g id="Node000005" class="node">
<title>Node5</title>
<g id="a_Node000005"><a xlink:href="../../d5/db2/classAudioProcessor.html#a96c56b77e62b8b4335fd29d228ef2ab5" target="_top" xlink:title="Emitted during audio conversion.">
<polygon fill="white" stroke="#666666" points="327,-730 176,-730 176,-700 327,-700 327,-730"/>
<text text-anchor="start" x="184" y="-718" font-family="Helvetica,sans-Serif" font-size="10.00">AudioProcessor::conversion</text>
<text text-anchor="middle" x="251.5" y="-707" font-family="Helvetica,sans-Serif" font-size="10.00">Progress</text>
</a>
</g>
</g>
<!-- Node1&#45;&gt;Node5 -->
<g id="edge4_Node000001_Node000005" class="edge">
<title>Node1&#45;&gt;Node5</title>
<g id="a_edge4_Node000001_Node000005"><a xlink:title=" ">
<path fill="none" stroke="#63b8ff" d="M65.49,-462.24C70.5,-505.09 90.7,-627.6 162,-691 163.69,-692.5 165.47,-693.92 167.32,-695.24"/>
<polygon fill="#63b8ff" stroke="#63b8ff" points="165.47,-698.22 175.82,-700.5 169.16,-692.26 165.47,-698.22"/>
</a>
</g>
</g>
<!-- Node6 -->
<g id="Node000006" class="node">
<title>Node6</title>
<g id="a_Node000006"><a xlink:href="../../d5/db2/classAudioProcessor.html#ab820a03c4fe38f02fdd6ffd88e9cdcd1" target="_top" xlink:title="Emitted when current lyrics line changes.">
<polygon fill="white" stroke="#666666" points="331.5,-682 171.5,-682 171.5,-652 331.5,-652 331.5,-682"/>
<text text-anchor="start" x="179.5" y="-670" font-family="Helvetica,sans-Serif" font-size="10.00">AudioProcessor::currentLyrics</text>
<text text-anchor="middle" x="251.5" y="-659" font-family="Helvetica,sans-Serif" font-size="10.00">Changed</text>
</a>
</g>
</g>
<!-- Node1&#45;&gt;Node6 -->
<g id="edge5_Node000001_Node000006" class="edge">
<title>Node1&#45;&gt;Node6</title>
<g id="a_edge5_Node000001_Node000006"><a xlink:title=" ">
<path fill="none" stroke="#63b8ff" d="M67.12,-462.16C75.5,-499.03 102.09,-593.96 162,-643 163.57,-644.29 165.2,-645.5 166.89,-646.66"/>
<polygon fill="#63b8ff" stroke="#63b8ff" points="165.33,-649.8 175.72,-651.89 168.9,-643.78 165.33,-649.8"/>
</a>
</g>
</g>
<!-- Node7 -->
<g id="Node000007" class="node">
<title>Node7</title>
<g id="a_Node000007"><a xlink:href="../../d5/db2/classAudioProcessor.html#a20a681418e1acc1b785832101c4e29b5" target="_top" xlink:title="Emitted when processor is enabled/disabled.">
<polygon fill="white" stroke="#666666" points="341,-633.5 162,-633.5 162,-614.5 341,-614.5 341,-633.5"/>
<text text-anchor="middle" x="251.5" y="-621.5" font-family="Helvetica,sans-Serif" font-size="10.00">AudioProcessor::enabledChanged</text>
</a>
</g>
</g>
<!-- Node1&#45;&gt;Node7 -->
<g id="edge6_Node000001_Node000007" class="edge">
<title>Node1&#45;&gt;Node7</title>
<g id="a_edge6_Node000001_Node000007"><a xlink:title=" ">
<path fill="none" stroke="#63b8ff" d="M68.93,-462.47C80,-494.56 110.01,-568.39 162,-605 164.7,-606.9 167.55,-608.62 170.51,-610.17"/>
<polygon fill="#63b8ff" stroke="#63b8ff" points="169.13,-613.38 179.68,-614.33 172.02,-607.01 169.13,-613.38"/>
</a>
</g>
</g>
<!-- Node8 -->
<g id="Node000008" class="node">
<title>Node8</title>
<g id="a_Node000008"><a xlink:href="../../d5/db2/classAudioProcessor.html#a1b58c7b5b4194e9b26b8d2b824366b7d" target="_top" xlink:title="Emitted when karaoke mode changes.">
<polygon fill="white" stroke="#666666" points="333,-596 170,-596 170,-566 333,-566 333,-596"/>
<text text-anchor="start" x="178" y="-584" font-family="Helvetica,sans-Serif" font-size="10.00">AudioProcessor::karaokeMode</text>
<text text-anchor="middle" x="251.5" y="-573" font-family="Helvetica,sans-Serif" font-size="10.00">Changed</text>
</a>
</g>
</g>
<!-- Node1&#45;&gt;Node8 -->
<g id="edge7_Node000001_Node000008" class="edge">
<title>Node1&#45;&gt;Node8</title>
<g id="a_edge7_Node000001_Node000008"><a xlink:title=" ">
<path fill="none" stroke="#63b8ff" d="M73.4,-462.33C88.86,-486.25 121.98,-532.24 162,-557 164.78,-558.72 167.67,-560.31 170.66,-561.8"/>
<polygon fill="#63b8ff" stroke="#63b8ff" points="169.27,-565.01 179.83,-565.91 172.14,-558.62 169.27,-565.01"/>
</a>
</g>
</g>
<!-- Node9 -->
<g id="Node000009" class="node">
<title>Node9</title>
<g id="a_Node000009"><a xlink:href="../../d5/db2/classAudioProcessor.html#a28b327618c2258ee08240d14334c2133" target="_top" xlink:title="Emitted when lyrics are loaded.">
<polygon fill="white" stroke="#666666" points="331,-547.5 172,-547.5 172,-528.5 331,-528.5 331,-547.5"/>
<text text-anchor="middle" x="251.5" y="-535.5" font-family="Helvetica,sans-Serif" font-size="10.00">AudioProcessor::lyricsLoaded</text>
</a>
</g>
</g>
<!-- Node1&#45;&gt;Node9 -->
<g id="edge8_Node000001_Node000009" class="edge">
<title>Node1&#45;&gt;Node9</title>
<g id="a_edge8_Node000001_Node000009"><a xlink:title=" ">
<path fill="none" stroke="#63b8ff" d="M79.97,-462.11C98.32,-478.62 130.04,-504.63 162,-519 167.64,-521.54 173.64,-523.74 179.76,-525.66"/>
<polygon fill="#63b8ff" stroke="#63b8ff" points="178.85,-529.04 189.43,-528.44 180.79,-522.31 178.85,-529.04"/>
</a>
</g>
</g>
<!-- Node10 -->
<g id="Node000010" class="node">
<title>Node10</title>
<g id="a_Node000010"><a xlink:href="../../d5/db2/classAudioProcessor.html#a344d2d2ca558e7a18da7ad2d6526b8eb" target="_top" xlink:title="Emitted when noise reduction settings change.">
<polygon fill="white" stroke="#666666" points="338,-510 165,-510 165,-480 338,-480 338,-510"/>
<text text-anchor="start" x="173" y="-498" font-family="Helvetica,sans-Serif" font-size="10.00">AudioProcessor::noiseReduction</text>
<text text-anchor="middle" x="251.5" y="-487" font-family="Helvetica,sans-Serif" font-size="10.00">Changed</text>
</a>
</g>
</g>
<!-- Node1&#45;&gt;Node10 -->
<g id="edge9_Node000001_Node000010" class="edge">
<title>Node1&#45;&gt;Node10</title>
<g id="a_edge9_Node000001_Node000010"><a xlink:title=" ">
<path fill="none" stroke="#63b8ff" d="M122.5,-462.06C141.51,-466.95 162.76,-472.42 182.41,-477.48"/>
<polygon fill="#63b8ff" stroke="#63b8ff" points="181.65,-480.89 192.21,-480 183.4,-474.12 181.65,-480.89"/>
</a>
</g>
</g>
<!-- Node11 -->
<g id="Node000011" class="node">
<title>Node11</title>
<g id="a_Node000011"><a xlink:href="../../d5/da7/classAudioProcessorWidget.html#a7a152d7642e3e9a98dc8b42d12fccb40" target="_top" xlink:title="Handle audio delay change.">
<polygon fill="white" stroke="#666666" points="318.5,-462 184.5,-462 184.5,-432 318.5,-432 318.5,-462"/>
<text text-anchor="start" x="192.5" y="-450" font-family="Helvetica,sans-Serif" font-size="10.00">AudioProcessorWidget</text>
<text text-anchor="middle" x="251.5" y="-439" font-family="Helvetica,sans-Serif" font-size="10.00">::onAudioDelayChanged</text>
</a>
</g>
</g>
<!-- Node1&#45;&gt;Node11 -->
<g id="edge10_Node000001_Node000011" class="edge">
<title>Node1&#45;&gt;Node11</title>
<g id="a_edge10_Node000001_Node000011"><a xlink:title=" ">
<path fill="none" stroke="#63b8ff" d="M126.1,-447C141.4,-447 157.96,-447 173.86,-447"/>
<polygon fill="#63b8ff" stroke="#63b8ff" points="174.19,-450.5 184.19,-447 174.19,-443.5 174.19,-450.5"/>
</a>
</g>
</g>
<!-- Node12 -->
<g id="Node000012" class="node">
<title>Node12</title>
<g id="a_Node000012"><a xlink:href="../../d5/da7/classAudioProcessorWidget.html#ad54167ec4389c984105a652998962b02" target="_top" xlink:title="Handle audio track change.">
<polygon fill="white" stroke="#666666" points="317,-414 186,-414 186,-384 317,-384 317,-414"/>
<text text-anchor="start" x="194" y="-402" font-family="Helvetica,sans-Serif" font-size="10.00">AudioProcessorWidget</text>
<text text-anchor="middle" x="251.5" y="-391" font-family="Helvetica,sans-Serif" font-size="10.00">::onAudioTrackChanged</text>
</a>
</g>
</g>
<!-- Node1&#45;&gt;Node12 -->
<g id="edge11_Node000001_Node000012" class="edge">
<title>Node1&#45;&gt;Node12</title>
<g id="a_edge11_Node000001_Node000012"><a xlink:title=" ">
<path fill="none" stroke="#63b8ff" d="M122.5,-431.94C141.51,-427.05 162.76,-421.58 182.41,-416.52"/>
<polygon fill="#63b8ff" stroke="#63b8ff" points="183.4,-419.88 192.21,-414 181.65,-413.11 183.4,-419.88"/>
</a>
</g>
</g>
<!-- Node13 -->
<g id="Node000013" class="node">
<title>Node13</title>
<g id="a_Node000013"><a xlink:href="../../d5/da7/classAudioProcessorWidget.html#ad487150f3c459c4e5feb1077489ee82e" target="_top" xlink:title="Handle conversion completed.">
<polygon fill="white" stroke="#666666" points="323,-366 180,-366 180,-336 323,-336 323,-366"/>
<text text-anchor="start" x="188" y="-354" font-family="Helvetica,sans-Serif" font-size="10.00">AudioProcessorWidget</text>
<text text-anchor="middle" x="251.5" y="-343" font-family="Helvetica,sans-Serif" font-size="10.00">::onConversionCompleted</text>
</a>
</g>
</g>
<!-- Node1&#45;&gt;Node13 -->
<g id="edge12_Node000001_Node000013" class="edge">
<title>Node1&#45;&gt;Node13</title>
<g id="a_edge12_Node000001_Node000013"><a xlink:title=" ">
<path fill="none" stroke="#63b8ff" d="M80.45,-431.91C98.98,-415.67 130.62,-390.13 162,-375 166.06,-373.04 170.31,-371.22 174.65,-369.54"/>
<polygon fill="#63b8ff" stroke="#63b8ff" points="176.06,-372.75 184.27,-366.05 173.67,-366.17 176.06,-372.75"/>
</a>
</g>
</g>
<!-- Node14 -->
<g id="Node000014" class="node">
<title>Node14</title>
<g id="a_Node000014"><a xlink:href="../../d5/da7/classAudioProcessorWidget.html#a3bcddc3eca78ee96c1d38331fab31593" target="_top" xlink:title="Handle conversion progress.">
<polygon fill="white" stroke="#666666" points="317,-318 186,-318 186,-288 317,-288 317,-318"/>
<text text-anchor="start" x="194" y="-306" font-family="Helvetica,sans-Serif" font-size="10.00">AudioProcessorWidget</text>
<text text-anchor="middle" x="251.5" y="-295" font-family="Helvetica,sans-Serif" font-size="10.00">::onConversionProgress</text>
</a>
</g>
</g>
<!-- Node1&#45;&gt;Node14 -->
<g id="edge13_Node000001_Node000014" class="edge">
<title>Node1&#45;&gt;Node14</title>
<g id="a_edge13_Node000001_Node000014"><a xlink:title=" ">
<path fill="none" stroke="#63b8ff" d="M72.09,-431.92C86.61,-406.34 119.57,-354.52 162,-327 166.39,-324.15 171.12,-321.64 176.02,-319.42"/>
<polygon fill="#63b8ff" stroke="#63b8ff" points="177.68,-322.52 185.62,-315.51 175.04,-316.04 177.68,-322.52"/>
</a>
</g>
</g>
<!-- Node15 -->
<g id="Node000015" class="node">
<title>Node15</title>
<g id="a_Node000015"><a xlink:href="../../d5/da7/classAudioProcessorWidget.html#a633e1771d957c70f73916807b7fd2523" target="_top" xlink:title="Handle current lyrics change.">
<polygon fill="white" stroke="#666666" points="322,-270 181,-270 181,-240 322,-240 322,-270"/>
<text text-anchor="start" x="189" y="-258" font-family="Helvetica,sans-Serif" font-size="10.00">AudioProcessorWidget</text>
<text text-anchor="middle" x="251.5" y="-247" font-family="Helvetica,sans-Serif" font-size="10.00">::onCurrentLyricsChanged</text>
</a>
</g>
</g>
<!-- Node1&#45;&gt;Node15 -->
<g id="edge14_Node000001_Node000015" class="edge">
<title>Node1&#45;&gt;Node15</title>
<g id="a_edge14_Node000001_Node000015"><a xlink:title=" ">
<path fill="none" stroke="#63b8ff" d="M68.48,-431.8C79.03,-398.71 108.66,-319.87 162,-279 165.02,-276.69 168.25,-274.59 171.62,-272.7"/>
<polygon fill="#63b8ff" stroke="#63b8ff" points="173.41,-275.72 180.83,-268.16 170.32,-269.44 173.41,-275.72"/>
</a>
</g>
</g>
<!-- Node16 -->
<g id="Node000016" class="node">
<title>Node16</title>
<g id="a_Node000016"><a xlink:href="../../d5/da7/classAudioProcessorWidget.html#ae11783a3c92bffb502232189bd35de0c" target="_top" xlink:title="Handle karaoke mode change.">
<polygon fill="white" stroke="#666666" points="323.5,-222 179.5,-222 179.5,-192 323.5,-192 323.5,-222"/>
<text text-anchor="start" x="187.5" y="-210" font-family="Helvetica,sans-Serif" font-size="10.00">AudioProcessorWidget</text>
<text text-anchor="middle" x="251.5" y="-199" font-family="Helvetica,sans-Serif" font-size="10.00">::onKaraokeModeChanged</text>
</a>
</g>
</g>
<!-- Node1&#45;&gt;Node16 -->
<g id="edge15_Node000001_Node000016" class="edge">
<title>Node1&#45;&gt;Node16</title>
<g id="a_edge15_Node000001_Node000016"><a xlink:title=" ">
<path fill="none" stroke="#63b8ff" d="M66.36,-431.79C73.3,-392.33 97.38,-285.96 162,-231 164.69,-228.71 167.58,-226.64 170.61,-224.77"/>
<polygon fill="#63b8ff" stroke="#63b8ff" points="172.34,-227.81 179.48,-219.98 169.02,-221.65 172.34,-227.81"/>
</a>
</g>
</g>
<!-- Node17 -->
<g id="Node000017" class="node">
<title>Node17</title>
<g id="a_Node000017"><a xlink:href="../../d5/da7/classAudioProcessorWidget.html#aafa87ae4a2e05b970053851ea31f86a8" target="_top" xlink:title="Handle lyrics loaded.">
<polygon fill="white" stroke="#666666" points="314.5,-174 188.5,-174 188.5,-144 314.5,-144 314.5,-174"/>
<text text-anchor="start" x="196.5" y="-162" font-family="Helvetica,sans-Serif" font-size="10.00">AudioProcessorWidget</text>
<text text-anchor="middle" x="251.5" y="-151" font-family="Helvetica,sans-Serif" font-size="10.00">::onLyricsLoaded</text>
</a>
</g>
</g>
<!-- Node1&#45;&gt;Node17 -->
<g id="edge16_Node000001_Node000017" class="edge">
<title>Node1&#45;&gt;Node17</title>
<g id="a_edge16_Node000001_Node000017"><a xlink:title=" ">
<path fill="none" stroke="#63b8ff" d="M64.96,-431.84C68.65,-386.8 85.83,-252.56 162,-183 166.98,-178.46 172.73,-174.76 178.86,-171.75"/>
<polygon fill="#63b8ff" stroke="#63b8ff" points="180.24,-174.97 188.07,-167.82 177.5,-168.53 180.24,-174.97"/>
</a>
</g>
</g>
<!-- Node18 -->
<g id="Node000018" class="node">
<title>Node18</title>
<g id="a_Node000018"><a xlink:href="../../d5/da7/classAudioProcessorWidget.html#a5a359d8f0aab3d1351144e1ccac971ed" target="_top" xlink:title="Handle noise reduction change.">
<polygon fill="white" stroke="#666666" points="328.5,-126 174.5,-126 174.5,-96 328.5,-96 328.5,-126"/>
<text text-anchor="start" x="182.5" y="-114" font-family="Helvetica,sans-Serif" font-size="10.00">AudioProcessorWidget</text>
<text text-anchor="middle" x="251.5" y="-103" font-family="Helvetica,sans-Serif" font-size="10.00">::onNoiseReductionChanged</text>
</a>
</g>
</g>
<!-- Node1&#45;&gt;Node18 -->
<g id="edge17_Node000001_Node000018" class="edge">
<title>Node1&#45;&gt;Node18</title>
<g id="a_edge17_Node000001_Node000018"><a xlink:title=" ">
<path fill="none" stroke="#63b8ff" d="M63.97,-431.71C64.73,-381.41 74.2,-219.4 162,-135 163.26,-133.79 164.58,-132.63 165.95,-131.54"/>
<polygon fill="#63b8ff" stroke="#63b8ff" points="167.96,-134.4 174.24,-125.86 164.01,-128.62 167.96,-134.4"/>
</a>
</g>
</g>
<!-- Node19 -->
<g id="Node000019" class="node">
<title>Node19</title>
<g id="a_Node000019"><a xlink:href="../../d5/da7/classAudioProcessorWidget.html#ad4127a8321433eaa55317d31bd430767" target="_top" xlink:title="Handle processor enabled state change.">
<polygon fill="white" stroke="#666666" points="333.5,-78 169.5,-78 169.5,-48 333.5,-48 333.5,-78"/>
<text text-anchor="start" x="177.5" y="-66" font-family="Helvetica,sans-Serif" font-size="10.00">AudioProcessorWidget</text>
<text text-anchor="middle" x="251.5" y="-55" font-family="Helvetica,sans-Serif" font-size="10.00">::onProcessorEnabledChanged</text>
</a>
</g>
</g>
<!-- Node1&#45;&gt;Node19 -->
<g id="edge18_Node000001_Node000019" class="edge">
<title>Node1&#45;&gt;Node19</title>
<g id="a_edge18_Node000001_Node000019"><a xlink:title=" ">
<path fill="none" stroke="#63b8ff" d="M66.09,-431.91C74.96,-370.17 111.25,-137.7 162,-87 162.95,-86.05 163.93,-85.14 164.95,-84.26"/>
<polygon fill="#63b8ff" stroke="#63b8ff" points="167.24,-86.92 173.26,-78.2 163.12,-81.26 167.24,-86.92"/>
</a>
</g>
</g>
<!-- Node20 -->
<g id="Node000020" class="node">
<title>Node20</title>
<g id="a_Node000020"><a xlink:href="../../d5/da7/classAudioProcessorWidget.html#ae4e5e579b166f33ae367f25e5fce37c6" target="_top" xlink:title="Update the widget from processor settings.">
<polygon fill="white" stroke="#666666" points="315.5,-30 187.5,-30 187.5,0 315.5,0 315.5,-30"/>
<text text-anchor="start" x="195.5" y="-18" font-family="Helvetica,sans-Serif" font-size="10.00">AudioProcessorWidget</text>
<text text-anchor="middle" x="251.5" y="-7" font-family="Helvetica,sans-Serif" font-size="10.00">::updateFromProcessor</text>
</a>
</g>
</g>
<!-- Node1&#45;&gt;Node20 -->
<g id="edge19_Node000001_Node000020" class="edge">
<title>Node1&#45;&gt;Node20</title>
<g id="a_edge19_Node000001_Node000020"><a xlink:title=" ">
<path fill="none" stroke="#63b8ff" d="M65.59,-431.77C72.9,-364.81 105.28,-97.39 162,-39 166.59,-34.28 172,-30.46 177.85,-27.37"/>
<polygon fill="#63b8ff" stroke="#63b8ff" points="179.67,-30.38 187.36,-23.09 176.8,-24 179.67,-30.38"/>
</a>
</g>
</g>
</g>
</svg>

<g id="navigator" transform="translate(0 0)" fill="#404254">
  <rect fill="#f2f5e9" fill-opacity="0.5" stroke="#606060" stroke-width=".5" x="0" y="0" width="60" height="60"/>
  <use id="zoomplus" xlink:href="#zoomPlus" x="17" y="9" onmousedown="handleZoom(evt,'in')"/>
  <use id="zoomminus" xlink:href="#zoomMin" x="42" y="9" onmousedown="handleZoom(evt,'out')"/>
  <use id="reset" xlink:href="#resetDef" x="30" y="36" onmousedown="handleReset()"/>
   <use id="arrowup" xlink:href="#arrowUp" x="0" y="0" onmousedown="handlePan(0,-1)"/>
  <use id="arrowright" xlink:href="#arrowRight" x="0" y="0" onmousedown="handlePan(1,0)"/>
  <use id="arrowdown" xlink:href="#arrowDown" x="0" y="0" onmousedown="handlePan(0,1)"/>
  <use id="arrowleft" xlink:href="#arrowLeft" x="0" y="0" onmousedown="handlePan(-1,0)"/>
</g>
<svg viewBox="0 0 15 15" width="100%" height="30px" preserveAspectRatio="xMaxYMin meet">
 <g id="arrow_out" transform="scale(0.3 0.3)">
  <a xlink:href="classAudioProcessorWidget_af02c20348db98edb4582faa930a3f0d7_cgraph_org.svg" target="_base">
   <rect id="button" ry="5" rx="5" y="6" x="6" height="38" width="38"
        fill="#f2f5e9" fill-opacity="0.5" stroke="#606060" stroke-width="1.0"/>
   <path id="arrow"
     d="M 11.500037,31.436501 C 11.940474,20.09759 22.043105,11.32322 32.158766,21.979434 L 37.068811,17.246167 C 37.068811,17.246167 37.088388,32 37.088388,32 L 22.160133,31.978069 C 22.160133,31.978069 26.997745,27.140456 26.997745,27.140456 C 18.528582,18.264221 13.291696,25.230495 11.500037,31.436501 z"
     style="fill:#404040;"/>
  </a>
 </g>
</svg>

<style type='text/css'>
<![CDATA[
[data-mouse-over-selected='false'] { opacity: 0.7; }
[data-mouse-over-selected='true']  { opacity: 1.0; }
]]>
</style>
<script type="application/ecmascript"><![CDATA[
document.addEventListener('DOMContentLoaded', (event) => {
  highlightEdges();
  highlightAdjacentNodes();
});
]]></script>
</svg>
