<?xml version="1.0" encoding="UTF-8" standalone="no"?>
<!DOCTYPE svg PUBLIC "-//W3C//DTD SVG 1.1//EN"
 "http://www.w3.org/Graphics/SVG/1.1/DTD/svg11.dtd">
<!-- Generated by graphviz version 2.43.0 (0)
 -->
<!-- Title: include/platform/WindowsPlatform.h Pages: 1 -->
<svg width="543pt" height="93pt"
 viewBox="0.00 0.00 542.50 93.00" xmlns="http://www.w3.org/2000/svg" xmlns:xlink="http://www.w3.org/1999/xlink">
<g id="graph0" class="graph" transform="scale(1 1) rotate(0) translate(4 89)">
<title>include/platform/WindowsPlatform.h</title>
<!-- Node1 -->
<g id="Node000001" class="node">
<title>Node1</title>
<g id="a_Node000001"><a xlink:title=" ">
<polygon fill="#999999" stroke="#666666" points="329,-85 185,-85 185,-55 329,-55 329,-85"/>
<text text-anchor="start" x="193" y="-73" font-family="Helvetica,sans-Serif" font-size="10.00">include/platform/Windows</text>
<text text-anchor="middle" x="257" y="-62" font-family="Helvetica,sans-Serif" font-size="10.00">Platform.h</text>
</a>
</g>
</g>
<!-- Node2 -->
<g id="Node000002" class="node">
<title>Node2</title>
<g id="a_Node000002"><a xlink:title=" ">
<polygon fill="#e0e0e0" stroke="#999999" points="56,-19 0,-19 0,0 56,0 56,-19"/>
<text text-anchor="middle" x="28" y="-7" font-family="Helvetica,sans-Serif" font-size="10.00">QObject</text>
</a>
</g>
</g>
<!-- Node1&#45;&gt;Node2 -->
<g id="edge1_Node000001_Node000002" class="edge">
<title>Node1&#45;&gt;Node2</title>
<g id="a_edge1_Node000001_Node000002"><a xlink:title=" ">
<path fill="none" stroke="#63b8ff" d="M202.15,-54.99C160.18,-44.27 103.38,-29.76 66.22,-20.26"/>
<polygon fill="#63b8ff" stroke="#63b8ff" points="66.85,-16.81 56.3,-17.73 65.12,-23.59 66.85,-16.81"/>
</a>
</g>
</g>
<!-- Node3 -->
<g id="Node000003" class="node">
<title>Node3</title>
<g id="a_Node000003"><a xlink:title=" ">
<polygon fill="#e0e0e0" stroke="#999999" points="127.5,-19 74.5,-19 74.5,0 127.5,0 127.5,-19"/>
<text text-anchor="middle" x="101" y="-7" font-family="Helvetica,sans-Serif" font-size="10.00">QString</text>
</a>
</g>
</g>
<!-- Node1&#45;&gt;Node3 -->
<g id="edge2_Node000001_Node000003" class="edge">
<title>Node1&#45;&gt;Node3</title>
<g id="a_edge2_Node000001_Node000003"><a xlink:title=" ">
<path fill="none" stroke="#63b8ff" d="M219.63,-54.99C193.37,-45.14 158.59,-32.1 133.48,-22.68"/>
<polygon fill="#63b8ff" stroke="#63b8ff" points="134.63,-19.37 124.04,-19.14 132.17,-25.93 134.63,-19.37"/>
</a>
</g>
</g>
<!-- Node4 -->
<g id="Node000004" class="node">
<title>Node4</title>
<g id="a_Node000004"><a xlink:title=" ">
<polygon fill="#e0e0e0" stroke="#999999" points="216,-19 146,-19 146,0 216,0 216,-19"/>
<text text-anchor="middle" x="181" y="-7" font-family="Helvetica,sans-Serif" font-size="10.00">QStringList</text>
</a>
</g>
</g>
<!-- Node1&#45;&gt;Node4 -->
<g id="edge3_Node000001_Node000004" class="edge">
<title>Node1&#45;&gt;Node4</title>
<g id="a_edge3_Node000001_Node000004"><a xlink:title=" ">
<path fill="none" stroke="#63b8ff" d="M238.6,-54.84C227.12,-46 212.35,-34.63 200.64,-25.62"/>
<polygon fill="#63b8ff" stroke="#63b8ff" points="202.45,-22.59 192.39,-19.27 198.18,-28.14 202.45,-22.59"/>
</a>
</g>
</g>
<!-- Node5 -->
<g id="Node000005" class="node">
<title>Node5</title>
<g id="a_Node000005"><a xlink:title=" ">
<polygon fill="#e0e0e0" stroke="#999999" points="279.5,-19 234.5,-19 234.5,0 279.5,0 279.5,-19"/>
<text text-anchor="middle" x="257" y="-7" font-family="Helvetica,sans-Serif" font-size="10.00">QMap</text>
</a>
</g>
</g>
<!-- Node1&#45;&gt;Node5 -->
<g id="edge4_Node000001_Node000005" class="edge">
<title>Node1&#45;&gt;Node5</title>
<g id="a_edge4_Node000001_Node000005"><a xlink:title=" ">
<path fill="none" stroke="#63b8ff" d="M257,-54.84C257,-47.21 257,-37.7 257,-29.45"/>
<polygon fill="#63b8ff" stroke="#63b8ff" points="260.5,-29.27 257,-19.27 253.5,-29.27 260.5,-29.27"/>
</a>
</g>
</g>
<!-- Node6 -->
<g id="Node000006" class="node">
<title>Node6</title>
<g id="a_Node000006"><a xlink:title=" ">
<polygon fill="#e0e0e0" stroke="#999999" points="398.5,-19 297.5,-19 297.5,0 398.5,0 398.5,-19"/>
<text text-anchor="middle" x="348" y="-7" font-family="Helvetica,sans-Serif" font-size="10.00">QSystemTrayIcon</text>
</a>
</g>
</g>
<!-- Node1&#45;&gt;Node6 -->
<g id="edge5_Node000001_Node000006" class="edge">
<title>Node1&#45;&gt;Node6</title>
<g id="a_edge5_Node000001_Node000006"><a xlink:title=" ">
<path fill="none" stroke="#63b8ff" d="M279.03,-54.84C293.27,-45.68 311.73,-33.82 325.97,-24.66"/>
<polygon fill="#63b8ff" stroke="#63b8ff" points="328.11,-27.45 334.63,-19.09 324.33,-21.56 328.11,-27.45"/>
</a>
</g>
</g>
<!-- Node7 -->
<g id="Node000007" class="node">
<title>Node7</title>
<g id="a_Node000007"><a xlink:title=" ">
<polygon fill="#e0e0e0" stroke="#999999" points="467.5,-19 416.5,-19 416.5,0 467.5,0 467.5,-19"/>
<text text-anchor="middle" x="442" y="-7" font-family="Helvetica,sans-Serif" font-size="10.00">QMenu</text>
</a>
</g>
</g>
<!-- Node1&#45;&gt;Node7 -->
<g id="edge6_Node000001_Node000007" class="edge">
<title>Node1&#45;&gt;Node7</title>
<g id="a_edge6_Node000001_Node000007"><a xlink:title=" ">
<path fill="none" stroke="#63b8ff" d="M301.31,-54.99C333.58,-44.78 376.71,-31.15 406.67,-21.67"/>
<polygon fill="#63b8ff" stroke="#63b8ff" points="407.81,-24.98 416.29,-18.63 405.7,-18.31 407.81,-24.98"/>
</a>
</g>
</g>
<!-- Node8 -->
<g id="Node000008" class="node">
<title>Node8</title>
<g id="a_Node000008"><a xlink:title=" ">
<polygon fill="#e0e0e0" stroke="#999999" points="534.5,-19 485.5,-19 485.5,0 534.5,0 534.5,-19"/>
<text text-anchor="middle" x="510" y="-7" font-family="Helvetica,sans-Serif" font-size="10.00">QStyle</text>
</a>
</g>
</g>
<!-- Node1&#45;&gt;Node8 -->
<g id="edge7_Node000001_Node000008" class="edge">
<title>Node1&#45;&gt;Node8</title>
<g id="a_edge7_Node000001_Node000008"><a xlink:title=" ">
<path fill="none" stroke="#63b8ff" d="M321.13,-54.93C362.67,-45.7 418.19,-33.15 475.24,-19.38"/>
<polygon fill="#63b8ff" stroke="#63b8ff" points="476.26,-22.74 485.15,-16.98 474.61,-15.93 476.26,-22.74"/>
</a>
</g>
</g>
</g>
</svg>
