<?xml version="1.0" encoding="UTF-8" standalone="no"?>
<!DOCTYPE svg PUBLIC "-//W3C//DTD SVG 1.1//EN"
 "http://www.w3.org/Graphics/SVG/1.1/DTD/svg11.dtd">
<!-- Generated by graphviz version 2.43.0 (0)
 -->
<!-- Title: include/ui/PictureInPictureWidget.h Pages: 1 -->
<svg width="1309pt" height="93pt"
 viewBox="0.00 0.00 1308.50 93.00" xmlns="http://www.w3.org/2000/svg" xmlns:xlink="http://www.w3.org/1999/xlink">
<g id="graph0" class="graph" transform="scale(1 1) rotate(0) translate(4 89)">
<title>include/ui/PictureInPictureWidget.h</title>
<!-- Node1 -->
<g id="Node000001" class="node">
<title>Node1</title>
<g id="a_Node000001"><a xlink:title=" ">
<polygon fill="#999999" stroke="#666666" points="657,-85 514,-85 514,-55 657,-55 657,-85"/>
<text text-anchor="start" x="522" y="-73" font-family="Helvetica,sans-Serif" font-size="10.00">include/ui/PictureInPicture</text>
<text text-anchor="middle" x="585.5" y="-62" font-family="Helvetica,sans-Serif" font-size="10.00">Widget.h</text>
</a>
</g>
</g>
<!-- Node2 -->
<g id="Node000002" class="node">
<title>Node2</title>
<g id="a_Node000002"><a xlink:title=" ">
<polygon fill="#e0e0e0" stroke="#999999" points="59,-19 0,-19 0,0 59,0 59,-19"/>
<text text-anchor="middle" x="29.5" y="-7" font-family="Helvetica,sans-Serif" font-size="10.00">QWidget</text>
</a>
</g>
</g>
<!-- Node1&#45;&gt;Node2 -->
<g id="edge1_Node000001_Node000002" class="edge">
<title>Node1&#45;&gt;Node2</title>
<g id="a_edge1_Node000001_Node000002"><a xlink:title=" ">
<path fill="none" stroke="#63b8ff" d="M513.92,-64.9C415.71,-58.66 233.53,-44.84 69.58,-19.16"/>
<polygon fill="#63b8ff" stroke="#63b8ff" points="69.73,-15.64 59.3,-17.53 68.63,-22.56 69.73,-15.64"/>
</a>
</g>
</g>
<!-- Node3 -->
<g id="Node000003" class="node">
<title>Node3</title>
<g id="a_Node000003"><a xlink:title=" ">
<polygon fill="#e0e0e0" stroke="#999999" points="160,-19 77,-19 77,0 160,0 160,-19"/>
<text text-anchor="middle" x="118.5" y="-7" font-family="Helvetica,sans-Serif" font-size="10.00">QVBoxLayout</text>
</a>
</g>
</g>
<!-- Node1&#45;&gt;Node3 -->
<g id="edge2_Node000001_Node000003" class="edge">
<title>Node1&#45;&gt;Node3</title>
<g id="a_edge2_Node000001_Node000003"><a xlink:title=" ">
<path fill="none" stroke="#63b8ff" d="M513.78,-61.48C432.78,-52.75 296.78,-37.35 170.46,-19.23"/>
<polygon fill="#63b8ff" stroke="#63b8ff" points="170.62,-15.71 160.22,-17.75 169.62,-22.64 170.62,-15.71"/>
</a>
</g>
</g>
<!-- Node4 -->
<g id="Node000004" class="node">
<title>Node4</title>
<g id="a_Node000004"><a xlink:title=" ">
<polygon fill="#e0e0e0" stroke="#999999" points="261,-19 178,-19 178,0 261,0 261,-19"/>
<text text-anchor="middle" x="219.5" y="-7" font-family="Helvetica,sans-Serif" font-size="10.00">QHBoxLayout</text>
</a>
</g>
</g>
<!-- Node1&#45;&gt;Node4 -->
<g id="edge3_Node000001_Node000004" class="edge">
<title>Node1&#45;&gt;Node4</title>
<g id="a_edge3_Node000001_Node000004"><a xlink:title=" ">
<path fill="none" stroke="#63b8ff" d="M513.85,-57.79C452.3,-48.12 360.88,-33.67 271.31,-19.12"/>
<polygon fill="#63b8ff" stroke="#63b8ff" points="271.68,-15.63 261.24,-17.48 270.55,-22.54 271.68,-15.63"/>
</a>
</g>
</g>
<!-- Node5 -->
<g id="Node000005" class="node">
<title>Node5</title>
<g id="a_Node000005"><a xlink:title=" ">
<polygon fill="#e0e0e0" stroke="#999999" points="359.5,-19 279.5,-19 279.5,0 359.5,0 359.5,-19"/>
<text text-anchor="middle" x="319.5" y="-7" font-family="Helvetica,sans-Serif" font-size="10.00">QPushButton</text>
</a>
</g>
</g>
<!-- Node1&#45;&gt;Node5 -->
<g id="edge4_Node000001_Node000005" class="edge">
<title>Node1&#45;&gt;Node5</title>
<g id="a_edge4_Node000001_Node000005"><a xlink:title=" ">
<path fill="none" stroke="#63b8ff" d="M521.79,-54.99C474.69,-44.63 411.51,-30.73 368.36,-21.25"/>
<polygon fill="#63b8ff" stroke="#63b8ff" points="368.91,-17.78 358.39,-19.05 367.41,-24.62 368.91,-17.78"/>
</a>
</g>
</g>
<!-- Node6 -->
<g id="Node000006" class="node">
<title>Node6</title>
<g id="a_Node000006"><a xlink:title=" ">
<polygon fill="#e0e0e0" stroke="#999999" points="429.5,-19 377.5,-19 377.5,0 429.5,0 429.5,-19"/>
<text text-anchor="middle" x="403.5" y="-7" font-family="Helvetica,sans-Serif" font-size="10.00">QSlider</text>
</a>
</g>
</g>
<!-- Node1&#45;&gt;Node6 -->
<g id="edge5_Node000001_Node000006" class="edge">
<title>Node1&#45;&gt;Node6</title>
<g id="a_edge5_Node000001_Node000006"><a xlink:title=" ">
<path fill="none" stroke="#63b8ff" d="M541.91,-54.99C510.58,-44.92 468.86,-31.51 439.44,-22.05"/>
<polygon fill="#63b8ff" stroke="#63b8ff" points="440.17,-18.61 429.58,-18.88 438.03,-25.28 440.17,-18.61"/>
</a>
</g>
</g>
<!-- Node7 -->
<g id="Node000007" class="node">
<title>Node7</title>
<g id="a_Node000007"><a xlink:title=" ">
<polygon fill="#e0e0e0" stroke="#999999" points="497.5,-19 447.5,-19 447.5,0 497.5,0 497.5,-19"/>
<text text-anchor="middle" x="472.5" y="-7" font-family="Helvetica,sans-Serif" font-size="10.00">QLabel</text>
</a>
</g>
</g>
<!-- Node1&#45;&gt;Node7 -->
<g id="edge6_Node000001_Node000007" class="edge">
<title>Node1&#45;&gt;Node7</title>
<g id="a_edge6_Node000001_Node000007"><a xlink:title=" ">
<path fill="none" stroke="#63b8ff" d="M558.43,-54.99C540.25,-45.58 516.43,-33.24 498.48,-23.95"/>
<polygon fill="#63b8ff" stroke="#63b8ff" points="499.68,-20.63 489.19,-19.14 496.46,-26.84 499.68,-20.63"/>
</a>
</g>
</g>
<!-- Node8 -->
<g id="Node000008" class="node">
<title>Node8</title>
<g id="a_Node000008"><a xlink:title=" ">
<polygon fill="#e0e0e0" stroke="#999999" points="569,-19 516,-19 516,0 569,0 569,-19"/>
<text text-anchor="middle" x="542.5" y="-7" font-family="Helvetica,sans-Serif" font-size="10.00">QTimer</text>
</a>
</g>
</g>
<!-- Node1&#45;&gt;Node8 -->
<g id="edge7_Node000001_Node000008" class="edge">
<title>Node1&#45;&gt;Node8</title>
<g id="a_edge7_Node000001_Node000008"><a xlink:title=" ">
<path fill="none" stroke="#63b8ff" d="M575.09,-54.84C569.04,-46.61 561.38,-36.18 555,-27.51"/>
<polygon fill="#63b8ff" stroke="#63b8ff" points="557.69,-25.25 548.94,-19.27 552.05,-29.4 557.69,-25.25"/>
</a>
</g>
</g>
<!-- Node9 -->
<g id="Node000009" class="node">
<title>Node9</title>
<g id="a_Node000009"><a xlink:title=" ">
<polygon fill="#e0e0e0" stroke="#999999" points="671.5,-19 587.5,-19 587.5,0 671.5,0 671.5,-19"/>
<text text-anchor="middle" x="629.5" y="-7" font-family="Helvetica,sans-Serif" font-size="10.00">QMouseEvent</text>
</a>
</g>
</g>
<!-- Node1&#45;&gt;Node9 -->
<g id="edge8_Node000001_Node000009" class="edge">
<title>Node1&#45;&gt;Node9</title>
<g id="a_edge8_Node000001_Node000009"><a xlink:title=" ">
<path fill="none" stroke="#63b8ff" d="M596.15,-54.84C602.34,-46.61 610.19,-36.18 616.71,-27.51"/>
<polygon fill="#63b8ff" stroke="#63b8ff" points="619.69,-29.36 622.91,-19.27 614.1,-25.15 619.69,-29.36"/>
</a>
</g>
</g>
<!-- Node10 -->
<g id="Node000010" class="node">
<title>Node10</title>
<g id="a_Node000010"><a xlink:title=" ">
<polygon fill="#e0e0e0" stroke="#999999" points="773.5,-19 689.5,-19 689.5,0 773.5,0 773.5,-19"/>
<text text-anchor="middle" x="731.5" y="-7" font-family="Helvetica,sans-Serif" font-size="10.00">QResizeEvent</text>
</a>
</g>
</g>
<!-- Node1&#45;&gt;Node10 -->
<g id="edge9_Node000001_Node000010" class="edge">
<title>Node1&#45;&gt;Node10</title>
<g id="a_edge9_Node000001_Node000010"><a xlink:title=" ">
<path fill="none" stroke="#63b8ff" d="M620.47,-54.99C644.83,-45.23 677.03,-32.33 700.47,-22.93"/>
<polygon fill="#63b8ff" stroke="#63b8ff" points="701.96,-26.11 709.94,-19.14 699.35,-19.61 701.96,-26.11"/>
</a>
</g>
</g>
<!-- Node11 -->
<g id="Node000011" class="node">
<title>Node11</title>
<g id="a_Node000011"><a xlink:title=" ">
<polygon fill="#e0e0e0" stroke="#999999" points="870,-19 791,-19 791,0 870,0 870,-19"/>
<text text-anchor="middle" x="830.5" y="-7" font-family="Helvetica,sans-Serif" font-size="10.00">QCloseEvent</text>
</a>
</g>
</g>
<!-- Node1&#45;&gt;Node11 -->
<g id="edge10_Node000001_Node000011" class="edge">
<title>Node1&#45;&gt;Node11</title>
<g id="a_edge10_Node000001_Node000011"><a xlink:title=" ">
<path fill="none" stroke="#63b8ff" d="M644.18,-54.99C687.29,-44.7 745.02,-30.91 784.74,-21.43"/>
<polygon fill="#63b8ff" stroke="#63b8ff" points="785.76,-24.78 794.68,-19.05 784.14,-17.97 785.76,-24.78"/>
</a>
</g>
</g>
<!-- Node12 -->
<g id="Node000012" class="node">
<title>Node12</title>
<g id="a_Node000012"><a xlink:title=" ">
<polygon fill="#e0e0e0" stroke="#999999" points="1005,-19 888,-19 888,0 1005,0 1005,-19"/>
<text text-anchor="middle" x="946.5" y="-7" font-family="Helvetica,sans-Serif" font-size="10.00">QContextMenuEvent</text>
</a>
</g>
</g>
<!-- Node1&#45;&gt;Node12 -->
<g id="edge11_Node000001_Node000012" class="edge">
<title>Node1&#45;&gt;Node12</title>
<g id="a_edge11_Node000001_Node000012"><a xlink:title=" ">
<path fill="none" stroke="#63b8ff" d="M657.25,-57.37C723.38,-46.66 820.55,-30.91 883.68,-20.68"/>
<polygon fill="#63b8ff" stroke="#63b8ff" points="884.59,-24.08 893.9,-19.02 883.47,-17.17 884.59,-24.08"/>
</a>
</g>
</g>
<!-- Node13 -->
<g id="Node000013" class="node">
<title>Node13</title>
<g id="a_Node000013"><a xlink:title=" ">
<polygon fill="#e0e0e0" stroke="#999999" points="1074,-19 1023,-19 1023,0 1074,0 1074,-19"/>
<text text-anchor="middle" x="1048.5" y="-7" font-family="Helvetica,sans-Serif" font-size="10.00">QMenu</text>
</a>
</g>
</g>
<!-- Node1&#45;&gt;Node13 -->
<g id="edge12_Node000001_Node000013" class="edge">
<title>Node1&#45;&gt;Node13</title>
<g id="a_edge12_Node000001_Node000013"><a xlink:title=" ">
<path fill="none" stroke="#63b8ff" d="M657.27,-63.48C740.64,-56.44 882.41,-42.48 1012.79,-19.11"/>
<polygon fill="#63b8ff" stroke="#63b8ff" points="1013.74,-22.49 1022.96,-17.26 1012.49,-15.6 1013.74,-22.49"/>
</a>
</g>
</g>
<!-- Node14 -->
<g id="Node000014" class="node">
<title>Node14</title>
<g id="a_Node000014"><a xlink:title=" ">
<polygon fill="#e0e0e0" stroke="#999999" points="1224.5,-19 1092.5,-19 1092.5,0 1224.5,0 1224.5,-19"/>
<text text-anchor="middle" x="1158.5" y="-7" font-family="Helvetica,sans-Serif" font-size="10.00">QGraphicsOpacityEffect</text>
</a>
</g>
</g>
<!-- Node1&#45;&gt;Node14 -->
<g id="edge13_Node000001_Node000014" class="edge">
<title>Node1&#45;&gt;Node14</title>
<g id="a_edge13_Node000001_Node000014"><a xlink:title=" ">
<path fill="none" stroke="#63b8ff" d="M657.28,-62.08C752.01,-52.89 924.26,-35.95 1081.89,-19.16"/>
<polygon fill="#63b8ff" stroke="#63b8ff" points="1082.68,-22.6 1092.25,-18.05 1081.94,-15.64 1082.68,-22.6"/>
</a>
</g>
</g>
<!-- Node15 -->
<g id="Node000015" class="node">
<title>Node15</title>
<g id="a_Node000015"><a xlink:title=" ">
<polygon fill="#e0e0e0" stroke="#999999" points="1300.5,-19 1242.5,-19 1242.5,0 1300.5,0 1300.5,-19"/>
<text text-anchor="middle" x="1271.5" y="-7" font-family="Helvetica,sans-Serif" font-size="10.00">memory</text>
</a>
</g>
</g>
<!-- Node1&#45;&gt;Node15 -->
<g id="edge14_Node000001_Node000015" class="edge">
<title>Node1&#45;&gt;Node15</title>
<g id="a_edge14_Node000001_Node000015"><a xlink:title=" ">
<path fill="none" stroke="#63b8ff" d="M657.31,-66.81C775.37,-62.48 1017.93,-50.48 1231.95,-19.02"/>
<polygon fill="#63b8ff" stroke="#63b8ff" points="1232.74,-22.44 1242.12,-17.51 1231.71,-15.52 1232.74,-22.44"/>
</a>
</g>
</g>
</g>
</svg>
