<?xml version="1.0" encoding="UTF-8" standalone="no"?>
<!DOCTYPE svg PUBLIC "-//W3C//DTD SVG 1.1//EN"
 "http://www.w3.org/Graphics/SVG/1.1/DTD/svg11.dtd">
<!-- Generated by graphviz version 2.43.0 (0)
 -->
<!-- Title: src/core/EonPlayApplication.cpp Pages: 1 -->
<!--zoomable 192 -->

<svg id="main" version="1.1" xmlns="http://www.w3.org/2000/svg" xmlns:xlink="http://www.w3.org/1999/xlink" xml:space="preserve" onload="init(evt)">
<style type="text/css"><![CDATA[
.node, .edge {opacity: 0.7;}
.node.selected, .edge.selected {opacity: 1;}
.edge:hover path { stroke: red; }
.edge:hover polygon { stroke: red; fill: red; }
]]></style>

<defs>
  <circle id="rim" cx="0" cy="0" r="7"/>
  <circle id="rim2" cx="0" cy="0" r="3.5"/>
  <g id="zoomPlus">
    <use xlink:href="#rim" fill="#404040"><set attributeName="fill" to="#808080" begin="zoomplus.mouseover" end="zoomplus.mouseout"/></use>
    <path d="M-4,0h8M0,-4v8" fill="none" stroke="white" stroke-width="1.5" pointer-events="none"/>
  </g>
  <g id="zoomMin">
    <use xlink:href="#rim" fill="#404040"><set attributeName="fill" to="#808080" begin="zoomminus.mouseover" end="zoomminus.mouseout"/></use>
    <path d="M-4,0h8" fill="none" stroke="white" stroke-width="1.5" pointer-events="none"/>
  </g>
  <g id="arrowUp" transform="translate(30 24)">
    <use xlink:href="#rim"/>
    <path pointer-events="none" fill="none" stroke="white" stroke-width="1.5" d="M0,-3.0v7 M-2.5,-0.5L0,-3.0L2.5,-0.5"/>
  </g>
  <g id="arrowRight" transform="rotate(90) translate(36 -43)">
    <use xlink:href="#rim"/>
    <path pointer-events="none" fill="none" stroke="white" stroke-width="1.5" d="M0,-3.0v7 M-2.5,-0.5L0,-3.0L2.5,-0.5"/>
  </g>
  <g id="arrowDown" transform="rotate(180) translate(-30 -48)">
    <use xlink:href="#rim"/>
    <path pointer-events="none" fill="none" stroke="white" stroke-width="1.5" d="M0,-3.0v7 M-2.5,-0.5L0,-3.0L2.5,-0.5"/>
  </g>
  <g id="arrowLeft" transform="rotate(270) translate(-36 17)">
    <use xlink:href="#rim"/>
    <path pointer-events="none" fill="none" stroke="white" stroke-width="1.5" d="M0,-3.0v7 M-2.5,-0.5L0,-3.0L2.5,-0.5"/>
  </g>
  <g id="resetDef">
    <use xlink:href="#rim2" fill="#404040"><set attributeName="fill" to="#808080" begin="reset.mouseover" end="reset.mouseout"/></use>
  </g>
</defs>
<script type="application/ecmascript">
var viewWidth = 797;
var viewHeight = 192;
var sectionId = 'dynsection-0';
</script>
<script type="application/ecmascript" xlink:href="../../svg.min.js"/>
<svg id="graph" class="graph">
<g id="viewport">
<title>src/core/EonPlayApplication.cpp</title>
<!-- Node1 -->
<g id="Node000001" class="node">
<title>Node1</title>
<g id="a_Node000001"><a xlink:title=" ">
<polygon fill="#999999" stroke="#666666" points="599.5,-184 427.5,-184 427.5,-165 599.5,-165 599.5,-184"/>
<text text-anchor="middle" x="513.5" y="-172" font-family="Helvetica,sans-Serif" font-size="10.00">src/core/EonPlayApplication.cpp</text>
</a>
</g>
</g>
<!-- Node2 -->
<g id="Node000002" class="node">
<title>Node2</title>
<g id="a_Node000002"><a xlink:href="../../d9/d92/EonPlayApplication_8h.html" target="_top" xlink:title=" ">
<polygon fill="white" stroke="#666666" points="292,-129 173,-129 173,-110 292,-110 292,-129"/>
<text text-anchor="middle" x="232.5" y="-117" font-family="Helvetica,sans-Serif" font-size="10.00">EonPlayApplication.h</text>
</a>
</g>
</g>
<!-- Node1&#45;&gt;Node2 -->
<g id="edge1_Node000001_Node000002" class="edge">
<title>Node1&#45;&gt;Node2</title>
<g id="a_edge1_Node000001_Node000002"><a xlink:title=" ">
<path fill="none" stroke="#63b8ff" d="M468.35,-164.98C419.24,-155.72 340.68,-140.9 287.88,-130.94"/>
<polygon fill="#63b8ff" stroke="#63b8ff" points="288.48,-127.5 278,-129.08 287.18,-134.37 288.48,-127.5"/>
</a>
</g>
</g>
<!-- Node4 -->
<g id="Node000004" class="node">
<title>Node4</title>
<g id="a_Node000004"><a xlink:title=" ">
<polygon fill="#e0e0e0" stroke="#999999" points="107,-74 0,-74 0,-55 107,-55 107,-74"/>
<text text-anchor="middle" x="53.5" y="-62" font-family="Helvetica,sans-Serif" font-size="10.00">QLoggingCategory</text>
</a>
</g>
</g>
<!-- Node1&#45;&gt;Node4 -->
<g id="edge20_Node000001_Node000004" class="edge">
<title>Node1&#45;&gt;Node4</title>
<g id="a_edge20_Node000001_Node000004"><a xlink:title=" ">
<path fill="none" stroke="#63b8ff" d="M427.23,-171.99C355.07,-168.51 250.28,-158.24 163.5,-129 129.49,-117.54 94.27,-94.99 73.12,-80.08"/>
<polygon fill="#63b8ff" stroke="#63b8ff" points="75.12,-77.21 64.96,-74.21 71.03,-82.89 75.12,-77.21"/>
</a>
</g>
</g>
<!-- Node6 -->
<g id="Node000006" class="node">
<title>Node6</title>
<g id="a_Node000006"><a xlink:href="../../d3/d3e/ComponentManager_8h.html" target="_top" xlink:title=" ">
<polygon fill="white" stroke="#666666" points="459.5,-129 335.5,-129 335.5,-110 459.5,-110 459.5,-129"/>
<text text-anchor="middle" x="397.5" y="-117" font-family="Helvetica,sans-Serif" font-size="10.00">ComponentManager.h</text>
</a>
</g>
</g>
<!-- Node1&#45;&gt;Node6 -->
<g id="edge5_Node000001_Node000006" class="edge">
<title>Node1&#45;&gt;Node6</title>
<g id="a_edge5_Node000001_Node000006"><a xlink:title=" ">
<path fill="none" stroke="#63b8ff" d="M494.86,-164.98C476.2,-156.46 447.25,-143.23 425.76,-133.41"/>
<polygon fill="#63b8ff" stroke="#63b8ff" points="427.03,-130.14 416.48,-129.17 424.12,-136.51 427.03,-130.14"/>
</a>
</g>
</g>
<!-- Node12 -->
<g id="Node000012" class="node">
<title>Node12</title>
<g id="a_Node000012"><a xlink:href="../../da/d52/EventBus_8h.html" target="_top" xlink:title=" ">
<polygon fill="white" stroke="#666666" points="549,-129 478,-129 478,-110 549,-110 549,-129"/>
<text text-anchor="middle" x="513.5" y="-117" font-family="Helvetica,sans-Serif" font-size="10.00">EventBus.h</text>
</a>
</g>
</g>
<!-- Node1&#45;&gt;Node12 -->
<g id="edge12_Node000001_Node000012" class="edge">
<title>Node1&#45;&gt;Node12</title>
<g id="a_edge12_Node000001_Node000012"><a xlink:title=" ">
<path fill="none" stroke="#63b8ff" d="M513.5,-164.75C513.5,-157.8 513.5,-147.85 513.5,-139.13"/>
<polygon fill="#63b8ff" stroke="#63b8ff" points="517,-139.09 513.5,-129.09 510,-139.09 517,-139.09"/>
</a>
</g>
</g>
<!-- Node15 -->
<g id="Node000015" class="node">
<title>Node15</title>
<g id="a_Node000015"><a xlink:title=" ">
<polygon fill="#e0e0e0" stroke="#999999" points="605.5,-129 567.5,-129 567.5,-110 605.5,-110 605.5,-129"/>
<text text-anchor="middle" x="586.5" y="-117" font-family="Helvetica,sans-Serif" font-size="10.00">QDir</text>
</a>
</g>
</g>
<!-- Node1&#45;&gt;Node15 -->
<g id="edge18_Node000001_Node000015" class="edge">
<title>Node1&#45;&gt;Node15</title>
<g id="a_edge18_Node000001_Node000015"><a xlink:title=" ">
<path fill="none" stroke="#63b8ff" d="M525.23,-164.98C536.23,-157 552.92,-144.88 566.1,-135.31"/>
<polygon fill="#63b8ff" stroke="#63b8ff" points="568.52,-137.88 574.56,-129.17 564.41,-132.21 568.52,-137.88"/>
</a>
</g>
</g>
<!-- Node16 -->
<g id="Node000016" class="node">
<title>Node16</title>
<g id="a_Node000016"><a xlink:title=" ">
<polygon fill="#e0e0e0" stroke="#999999" points="717.5,-129 623.5,-129 623.5,-110 717.5,-110 717.5,-129"/>
<text text-anchor="middle" x="670.5" y="-117" font-family="Helvetica,sans-Serif" font-size="10.00">QStandardPaths</text>
</a>
</g>
</g>
<!-- Node1&#45;&gt;Node16 -->
<g id="edge19_Node000001_Node000016" class="edge">
<title>Node1&#45;&gt;Node16</title>
<g id="a_edge19_Node000001_Node000016"><a xlink:title=" ">
<path fill="none" stroke="#63b8ff" d="M538.72,-164.98C564.86,-156.16 605.9,-142.31 635.23,-132.41"/>
<polygon fill="#63b8ff" stroke="#63b8ff" points="636.72,-135.6 645.08,-129.08 634.48,-128.96 636.72,-135.6"/>
</a>
</g>
</g>
<!-- Node17 -->
<g id="Node000017" class="node">
<title>Node17</title>
<g id="a_Node000017"><a xlink:title=" ">
<polygon fill="#e0e0e0" stroke="#999999" points="789,-129 736,-129 736,-110 789,-110 789,-129"/>
<text text-anchor="middle" x="762.5" y="-117" font-family="Helvetica,sans-Serif" font-size="10.00">QTimer</text>
</a>
</g>
</g>
<!-- Node1&#45;&gt;Node17 -->
<g id="edge21_Node000001_Node000017" class="edge">
<title>Node1&#45;&gt;Node17</title>
<g id="a_edge21_Node000001_Node000017"><a xlink:title=" ">
<path fill="none" stroke="#63b8ff" d="M556,-164.96C596.94,-156.65 660.87,-143.49 725.78,-129.11"/>
<polygon fill="#63b8ff" stroke="#63b8ff" points="726.78,-132.48 735.78,-126.89 725.26,-125.64 726.78,-132.48"/>
</a>
</g>
</g>
<!-- Node3 -->
<g id="Node000003" class="node">
<title>Node3</title>
<g id="a_Node000003"><a xlink:title=" ">
<polygon fill="#e0e0e0" stroke="#999999" points="204,-74 125,-74 125,-55 204,-55 204,-74"/>
<text text-anchor="middle" x="164.5" y="-62" font-family="Helvetica,sans-Serif" font-size="10.00">QApplication</text>
</a>
</g>
</g>
<!-- Node2&#45;&gt;Node3 -->
<g id="edge2_Node000002_Node000003" class="edge">
<title>Node2&#45;&gt;Node3</title>
<g id="a_edge2_Node000002_Node000003"><a xlink:title=" ">
<path fill="none" stroke="#63b8ff" d="M221.57,-109.98C211.42,-102.07 196.08,-90.11 183.85,-80.58"/>
<polygon fill="#63b8ff" stroke="#63b8ff" points="185.66,-77.56 175.62,-74.17 181.36,-83.08 185.66,-77.56"/>
</a>
</g>
</g>
<!-- Node2&#45;&gt;Node4 -->
<g id="edge3_Node000002_Node000004" class="edge">
<title>Node2&#45;&gt;Node4</title>
<g id="a_edge3_Node000002_Node000004"><a xlink:title=" ">
<path fill="none" stroke="#63b8ff" d="M203.74,-109.98C173.56,-101.05 125.93,-86.94 92.4,-77.02"/>
<polygon fill="#63b8ff" stroke="#63b8ff" points="93.07,-73.57 82.48,-74.08 91.08,-80.28 93.07,-73.57"/>
</a>
</g>
</g>
<!-- Node5 -->
<g id="Node000005" class="node">
<title>Node5</title>
<g id="a_Node000005"><a xlink:title=" ">
<polygon fill="#e0e0e0" stroke="#999999" points="279.5,-74 221.5,-74 221.5,-55 279.5,-55 279.5,-74"/>
<text text-anchor="middle" x="250.5" y="-62" font-family="Helvetica,sans-Serif" font-size="10.00">memory</text>
</a>
</g>
</g>
<!-- Node2&#45;&gt;Node5 -->
<g id="edge4_Node000002_Node000005" class="edge">
<title>Node2&#45;&gt;Node5</title>
<g id="a_edge4_Node000002_Node000005"><a xlink:title=" ">
<path fill="none" stroke="#63b8ff" d="M235.47,-109.75C237.86,-102.72 241.29,-92.62 244.27,-83.84"/>
<polygon fill="#63b8ff" stroke="#63b8ff" points="247.68,-84.68 247.58,-74.09 241.05,-82.43 247.68,-84.68"/>
</a>
</g>
</g>
<!-- Node6&#45;&gt;Node5 -->
<g id="edge11_Node000006_Node000005" class="edge">
<title>Node6&#45;&gt;Node5</title>
<g id="a_edge11_Node000006_Node000005"><a xlink:title=" ">
<path fill="none" stroke="#63b8ff" d="M373.88,-109.98C349.6,-101.23 311.55,-87.51 284.13,-77.62"/>
<polygon fill="#63b8ff" stroke="#63b8ff" points="285.14,-74.27 274.55,-74.17 282.77,-80.85 285.14,-74.27"/>
</a>
</g>
</g>
<!-- Node7 -->
<g id="Node000007" class="node">
<title>Node7</title>
<g id="a_Node000007"><a xlink:href="../../df/d56/IComponent_8h.html" target="_top" xlink:title=" ">
<polygon fill="white" stroke="#666666" points="383,-74 298,-74 298,-55 383,-55 383,-74"/>
<text text-anchor="middle" x="340.5" y="-62" font-family="Helvetica,sans-Serif" font-size="10.00">IComponent.h</text>
</a>
</g>
</g>
<!-- Node6&#45;&gt;Node7 -->
<g id="edge6_Node000006_Node000007" class="edge">
<title>Node6&#45;&gt;Node7</title>
<g id="a_edge6_Node000006_Node000007"><a xlink:title=" ">
<path fill="none" stroke="#63b8ff" d="M388.34,-109.98C380,-102.23 367.47,-90.58 357.32,-81.14"/>
<polygon fill="#63b8ff" stroke="#63b8ff" points="359.53,-78.42 349.82,-74.17 354.76,-83.54 359.53,-78.42"/>
</a>
</g>
</g>
<!-- Node9 -->
<g id="Node000009" class="node">
<title>Node9</title>
<g id="a_Node000009"><a xlink:title=" ">
<polygon fill="#e0e0e0" stroke="#999999" points="457.5,-74 401.5,-74 401.5,-55 457.5,-55 457.5,-74"/>
<text text-anchor="middle" x="429.5" y="-62" font-family="Helvetica,sans-Serif" font-size="10.00">QObject</text>
</a>
</g>
</g>
<!-- Node6&#45;&gt;Node9 -->
<g id="edge8_Node000006_Node000009" class="edge">
<title>Node6&#45;&gt;Node9</title>
<g id="a_edge8_Node000006_Node000009"><a xlink:title=" ">
<path fill="none" stroke="#63b8ff" d="M402.78,-109.75C407.21,-102.42 413.66,-91.73 419.12,-82.7"/>
<polygon fill="#63b8ff" stroke="#63b8ff" points="422.14,-84.46 424.31,-74.09 416.15,-80.84 422.14,-84.46"/>
</a>
</g>
</g>
<!-- Node10 -->
<g id="Node000010" class="node">
<title>Node10</title>
<g id="a_Node000010"><a xlink:title=" ">
<polygon fill="#e0e0e0" stroke="#999999" points="517,-74 476,-74 476,-55 517,-55 517,-74"/>
<text text-anchor="middle" x="496.5" y="-62" font-family="Helvetica,sans-Serif" font-size="10.00">QList</text>
</a>
</g>
</g>
<!-- Node6&#45;&gt;Node10 -->
<g id="edge9_Node000006_Node000010" class="edge">
<title>Node6&#45;&gt;Node10</title>
<g id="a_edge9_Node000006_Node000010"><a xlink:title=" ">
<path fill="none" stroke="#63b8ff" d="M413.41,-109.98C429.05,-101.61 453.16,-88.7 471.38,-78.95"/>
<polygon fill="#63b8ff" stroke="#63b8ff" points="473.14,-81.98 480.3,-74.17 469.84,-75.8 473.14,-81.98"/>
</a>
</g>
</g>
<!-- Node11 -->
<g id="Node000011" class="node">
<title>Node11</title>
<g id="a_Node000011"><a xlink:title=" ">
<polygon fill="#e0e0e0" stroke="#999999" points="584,-74 535,-74 535,-55 584,-55 584,-74"/>
<text text-anchor="middle" x="559.5" y="-62" font-family="Helvetica,sans-Serif" font-size="10.00">QHash</text>
</a>
</g>
</g>
<!-- Node6&#45;&gt;Node11 -->
<g id="edge10_Node000006_Node000011" class="edge">
<title>Node6&#45;&gt;Node11</title>
<g id="a_edge10_Node000006_Node000011"><a xlink:title=" ">
<path fill="none" stroke="#63b8ff" d="M423.53,-109.98C451.09,-100.97 494.73,-86.69 525.11,-76.75"/>
<polygon fill="#63b8ff" stroke="#63b8ff" points="526.45,-80 534.86,-73.56 524.27,-73.34 526.45,-80"/>
</a>
</g>
</g>
<!-- Node8 -->
<g id="Node000008" class="node">
<title>Node8</title>
<g id="a_Node000008"><a xlink:title=" ">
<polygon fill="#e0e0e0" stroke="#999999" points="367,-19 314,-19 314,0 367,0 367,-19"/>
<text text-anchor="middle" x="340.5" y="-7" font-family="Helvetica,sans-Serif" font-size="10.00">QString</text>
</a>
</g>
</g>
<!-- Node7&#45;&gt;Node8 -->
<g id="edge7_Node000007_Node000008" class="edge">
<title>Node7&#45;&gt;Node8</title>
<g id="a_edge7_Node000007_Node000008"><a xlink:title=" ">
<path fill="none" stroke="#63b8ff" d="M340.5,-54.75C340.5,-47.8 340.5,-37.85 340.5,-29.13"/>
<polygon fill="#63b8ff" stroke="#63b8ff" points="344,-29.09 340.5,-19.09 337,-29.09 344,-29.09"/>
</a>
</g>
</g>
<!-- Node12&#45;&gt;Node9 -->
<g id="edge13_Node000012_Node000009" class="edge">
<title>Node12&#45;&gt;Node9</title>
<g id="a_edge13_Node000012_Node000009"><a xlink:title=" ">
<path fill="none" stroke="#63b8ff" d="M500,-109.98C487.1,-101.84 467.4,-89.41 452.1,-79.76"/>
<polygon fill="#63b8ff" stroke="#63b8ff" points="453.57,-76.55 443.24,-74.17 449.83,-82.47 453.57,-76.55"/>
</a>
</g>
</g>
<!-- Node12&#45;&gt;Node10 -->
<g id="edge16_Node000012_Node000010" class="edge">
<title>Node12&#45;&gt;Node10</title>
<g id="a_edge16_Node000012_Node000010"><a xlink:title=" ">
<path fill="none" stroke="#63b8ff" d="M510.69,-109.75C508.44,-102.72 505.2,-92.62 502.38,-83.84"/>
<polygon fill="#63b8ff" stroke="#63b8ff" points="505.64,-82.54 499.25,-74.09 498.98,-84.68 505.64,-82.54"/>
</a>
</g>
</g>
<!-- Node12&#45;&gt;Node11 -->
<g id="edge15_Node000012_Node000011" class="edge">
<title>Node12&#45;&gt;Node11</title>
<g id="a_edge15_Node000012_Node000011"><a xlink:title=" ">
<path fill="none" stroke="#63b8ff" d="M521.1,-109.75C527.66,-102.18 537.32,-91.05 545.31,-81.84"/>
<polygon fill="#63b8ff" stroke="#63b8ff" points="548.13,-83.94 552.05,-74.09 542.85,-79.35 548.13,-83.94"/>
</a>
</g>
</g>
<!-- Node13 -->
<g id="Node000013" class="node">
<title>Node13</title>
<g id="a_Node000013"><a xlink:title=" ">
<polygon fill="#e0e0e0" stroke="#999999" points="744,-74 685,-74 685,-55 744,-55 744,-74"/>
<text text-anchor="middle" x="714.5" y="-62" font-family="Helvetica,sans-Serif" font-size="10.00">QVariant</text>
</a>
</g>
</g>
<!-- Node12&#45;&gt;Node13 -->
<g id="edge14_Node000012_Node000013" class="edge">
<title>Node12&#45;&gt;Node13</title>
<g id="a_edge14_Node000012_Node000013"><a xlink:title=" ">
<path fill="none" stroke="#63b8ff" d="M545.79,-109.98C580.89,-100.73 637,-85.94 674.77,-75.98"/>
<polygon fill="#63b8ff" stroke="#63b8ff" points="676.13,-79.24 684.91,-73.3 674.34,-72.47 676.13,-79.24"/>
</a>
</g>
</g>
<!-- Node14 -->
<g id="Node000014" class="node">
<title>Node14</title>
<g id="a_Node000014"><a xlink:title=" ">
<polygon fill="#e0e0e0" stroke="#999999" points="667,-74 602,-74 602,-55 667,-55 667,-74"/>
<text text-anchor="middle" x="634.5" y="-62" font-family="Helvetica,sans-Serif" font-size="10.00">functional</text>
</a>
</g>
</g>
<!-- Node12&#45;&gt;Node14 -->
<g id="edge17_Node000012_Node000014" class="edge">
<title>Node12&#45;&gt;Node14</title>
<g id="a_edge17_Node000012_Node000014"><a xlink:title=" ">
<path fill="none" stroke="#63b8ff" d="M532.94,-109.98C552.49,-101.42 582.88,-88.11 605.32,-78.28"/>
<polygon fill="#63b8ff" stroke="#63b8ff" points="606.95,-81.39 614.71,-74.17 604.14,-74.98 606.95,-81.39"/>
</a>
</g>
</g>
</g>
</svg>

<g id="navigator" transform="translate(0 0)" fill="#404254">
  <rect fill="#f2f5e9" fill-opacity="0.5" stroke="#606060" stroke-width=".5" x="0" y="0" width="60" height="60"/>
  <use id="zoomplus" xlink:href="#zoomPlus" x="17" y="9" onmousedown="handleZoom(evt,'in')"/>
  <use id="zoomminus" xlink:href="#zoomMin" x="42" y="9" onmousedown="handleZoom(evt,'out')"/>
  <use id="reset" xlink:href="#resetDef" x="30" y="36" onmousedown="handleReset()"/>
   <use id="arrowup" xlink:href="#arrowUp" x="0" y="0" onmousedown="handlePan(0,-1)"/>
  <use id="arrowright" xlink:href="#arrowRight" x="0" y="0" onmousedown="handlePan(1,0)"/>
  <use id="arrowdown" xlink:href="#arrowDown" x="0" y="0" onmousedown="handlePan(0,1)"/>
  <use id="arrowleft" xlink:href="#arrowLeft" x="0" y="0" onmousedown="handlePan(-1,0)"/>
</g>
<svg viewBox="0 0 15 15" width="100%" height="30px" preserveAspectRatio="xMaxYMin meet">
 <g id="arrow_out" transform="scale(0.3 0.3)">
  <a xlink:href="EonPlayApplication_8cpp__incl_org.svg" target="_base">
   <rect id="button" ry="5" rx="5" y="6" x="6" height="38" width="38"
        fill="#f2f5e9" fill-opacity="0.5" stroke="#606060" stroke-width="1.0"/>
   <path id="arrow"
     d="M 11.500037,31.436501 C 11.940474,20.09759 22.043105,11.32322 32.158766,21.979434 L 37.068811,17.246167 C 37.068811,17.246167 37.088388,32 37.088388,32 L 22.160133,31.978069 C 22.160133,31.978069 26.997745,27.140456 26.997745,27.140456 C 18.528582,18.264221 13.291696,25.230495 11.500037,31.436501 z"
     style="fill:#404040;"/>
  </a>
 </g>
</svg>

<style type='text/css'>
<![CDATA[
[data-mouse-over-selected='false'] { opacity: 0.7; }
[data-mouse-over-selected='true']  { opacity: 1.0; }
]]>
</style>
<script type="application/ecmascript"><![CDATA[
document.addEventListener('DOMContentLoaded', (event) => {
  highlightEdges();
  highlightAdjacentNodes();
});
]]></script>
</svg>
