<?xml version="1.0" encoding="UTF-8" standalone="no"?>
<!DOCTYPE svg PUBLIC "-//W3C//DTD SVG 1.1//EN"
 "http://www.w3.org/Graphics/SVG/1.1/DTD/svg11.dtd">
<!-- Generated by graphviz version 2.43.0 (0)
 -->
<!-- Title: InternetStreamingService::stopRecording Pages: 1 -->
<svg width="326pt" height="134pt"
 viewBox="0.00 0.00 326.00 134.00" xmlns="http://www.w3.org/2000/svg" xmlns:xlink="http://www.w3.org/1999/xlink">
<g id="graph0" class="graph" transform="scale(1 1) rotate(0) translate(4 130)">
<title>InternetStreamingService::stopRecording</title>
<!-- Node1 -->
<g id="Node000001" class="node">
<title>Node1</title>
<g id="a_Node000001"><a xlink:title=" ">
<polygon fill="#999999" stroke="#666666" points="141,-78 0,-78 0,-48 141,-48 141,-78"/>
<text text-anchor="start" x="8" y="-66" font-family="Helvetica,sans-Serif" font-size="10.00">InternetStreamingService</text>
<text text-anchor="middle" x="70.5" y="-55" font-family="Helvetica,sans-Serif" font-size="10.00">::stopRecording</text>
</a>
</g>
</g>
<!-- Node2 -->
<g id="Node000002" class="node">
<title>Node2</title>
<g id="a_Node000002"><a xlink:href="../../df/dba/classInternetStreamingService.html#aef7f22a83e980bd99a25c92a80eb429d" target="_top" xlink:title=" ">
<polygon fill="white" stroke="#666666" points="318,-126 177,-126 177,-96 318,-96 318,-126"/>
<text text-anchor="start" x="185" y="-114" font-family="Helvetica,sans-Serif" font-size="10.00">InternetStreamingService</text>
<text text-anchor="middle" x="247.5" y="-103" font-family="Helvetica,sans-Serif" font-size="10.00">::getRecordingDuration</text>
</a>
</g>
</g>
<!-- Node1&#45;&gt;Node2 -->
<g id="edge1_Node000001_Node000002" class="edge">
<title>Node1&#45;&gt;Node2</title>
<g id="a_edge1_Node000001_Node000002"><a xlink:title=" ">
<path fill="none" stroke="#63b8ff" d="M126.39,-78.06C144.06,-82.9 163.81,-88.32 182.1,-93.34"/>
<polygon fill="#63b8ff" stroke="#63b8ff" points="181.23,-96.73 191.8,-96 183.09,-89.98 181.23,-96.73"/>
</a>
</g>
</g>
<!-- Node3 -->
<g id="Node000003" class="node">
<title>Node3</title>
<g id="a_Node000003"><a xlink:href="../../df/dba/classInternetStreamingService.html#aababc332d0350d62c2689af536ea6a91" target="_top" xlink:title=" ">
<polygon fill="white" stroke="#666666" points="318,-78 177,-78 177,-48 318,-48 318,-78"/>
<text text-anchor="start" x="185" y="-66" font-family="Helvetica,sans-Serif" font-size="10.00">InternetStreamingService</text>
<text text-anchor="middle" x="247.5" y="-55" font-family="Helvetica,sans-Serif" font-size="10.00">::getRecordingFileSize</text>
</a>
</g>
</g>
<!-- Node1&#45;&gt;Node3 -->
<g id="edge2_Node000001_Node000003" class="edge">
<title>Node1&#45;&gt;Node3</title>
<g id="a_edge2_Node000001_Node000003"><a xlink:title=" ">
<path fill="none" stroke="#63b8ff" d="M141.17,-63C149.5,-63 158.06,-63 166.53,-63"/>
<polygon fill="#63b8ff" stroke="#63b8ff" points="166.79,-66.5 176.79,-63 166.79,-59.5 166.79,-66.5"/>
</a>
</g>
</g>
<!-- Node4 -->
<g id="Node000004" class="node">
<title>Node4</title>
<g id="a_Node000004"><a xlink:href="../../df/dba/classInternetStreamingService.html#a822928d3df2b0125d00f5e11c517bd7c" target="_top" xlink:title=" ">
<polygon fill="white" stroke="#666666" points="318,-30 177,-30 177,0 318,0 318,-30"/>
<text text-anchor="start" x="185" y="-18" font-family="Helvetica,sans-Serif" font-size="10.00">InternetStreamingService</text>
<text text-anchor="middle" x="247.5" y="-7" font-family="Helvetica,sans-Serif" font-size="10.00">::recordingStopped</text>
</a>
</g>
</g>
<!-- Node1&#45;&gt;Node4 -->
<g id="edge3_Node000001_Node000004" class="edge">
<title>Node1&#45;&gt;Node4</title>
<g id="a_edge3_Node000001_Node000004"><a xlink:title=" ">
<path fill="none" stroke="#63b8ff" d="M126.39,-47.94C144.06,-43.1 163.81,-37.68 182.1,-32.66"/>
<polygon fill="#63b8ff" stroke="#63b8ff" points="183.09,-36.02 191.8,-30 181.23,-29.27 183.09,-36.02"/>
</a>
</g>
</g>
</g>
</svg>
