<?xml version="1.0" encoding="UTF-8" standalone="no"?>
<!DOCTYPE svg PUBLIC "-//W3C//DTD SVG 1.1//EN"
 "http://www.w3.org/Graphics/SVG/1.1/DTD/svg11.dtd">
<!-- Generated by graphviz version 2.43.0 (0)
 -->
<!-- Title: InternetStreamingService::serviceError Pages: 1 -->
<svg width="331pt" height="182pt"
 viewBox="0.00 0.00 331.00 182.00" xmlns="http://www.w3.org/2000/svg" xmlns:xlink="http://www.w3.org/1999/xlink">

<svg id="main" version="1.1" xmlns="http://www.w3.org/2000/svg" xmlns:xlink="http://www.w3.org/1999/xlink" xml:space="preserve" onload="init(evt)">
<style type="text/css"><![CDATA[
.node, .edge {opacity: 0.7;}
.node.selected, .edge.selected {opacity: 1;}
.edge:hover path { stroke: red; }
.edge:hover polygon { stroke: red; fill: red; }
]]></style>
<script type="application/ecmascript" xlink:href="../../svg.min.js"/>
<svg id="graph" class="graph">
<g id="graph0" class="graph" transform="scale(1 1) rotate(0) translate(4 178)">
<title>InternetStreamingService::serviceError</title>
<!-- Node1 -->
<g id="Node000001" class="node">
<title>Node1</title>
<g id="a_Node000001"><a xlink:title=" ">
<polygon fill="#999999" stroke="#666666" points="323,-102 182,-102 182,-72 323,-72 323,-102"/>
<text text-anchor="start" x="190" y="-90" font-family="Helvetica,sans-Serif" font-size="10.00">InternetStreamingService</text>
<text text-anchor="middle" x="252.5" y="-79" font-family="Helvetica,sans-Serif" font-size="10.00">::serviceError</text>
</a>
</g>
</g>
<!-- Node2 -->
<g id="Node000002" class="node">
<title>Node2</title>
<g id="a_Node000002"><a xlink:href="../../df/dba/classInternetStreamingService.html#a2da7dbea92b69a6877044a9743a7f528" target="_top" xlink:title=" ">
<polygon fill="white" stroke="#666666" points="146,-174 0,-174 0,-144 146,-144 146,-174"/>
<text text-anchor="start" x="8" y="-162" font-family="Helvetica,sans-Serif" font-size="10.00">InternetStreamingService</text>
<text text-anchor="middle" x="73" y="-151" font-family="Helvetica,sans-Serif" font-size="10.00">::downloadPodcastEpisode</text>
</a>
</g>
</g>
<!-- Node1&#45;&gt;Node2 -->
<g id="edge1_Node000001_Node000002" class="edge">
<title>Node1&#45;&gt;Node2</title>
<g id="a_edge1_Node000001_Node000002"><a xlink:title=" ">
<path fill="none" stroke="#63b8ff" d="M211.29,-106.5C191.78,-115.65 167.89,-126.4 146,-135 138.15,-138.08 129.73,-141.13 121.51,-143.95"/>
<polygon fill="#63b8ff" stroke="#63b8ff" points="212.93,-109.59 220.48,-102.16 209.94,-103.26 212.93,-109.59"/>
</a>
</g>
</g>
<!-- Node3 -->
<g id="Node000003" class="node">
<title>Node3</title>
<g id="a_Node000003"><a xlink:href="../../df/dba/classInternetStreamingService.html#ae1fbd0c7ef709d5e31d3a956d2727047" target="_top" xlink:title=" ">
<polygon fill="white" stroke="#666666" points="143.5,-126 2.5,-126 2.5,-96 143.5,-96 143.5,-126"/>
<text text-anchor="start" x="10.5" y="-114" font-family="Helvetica,sans-Serif" font-size="10.00">InternetStreamingService</text>
<text text-anchor="middle" x="73" y="-103" font-family="Helvetica,sans-Serif" font-size="10.00">::getYouTubeVideoInfo</text>
</a>
</g>
</g>
<!-- Node1&#45;&gt;Node3 -->
<g id="edge2_Node000001_Node000003" class="edge">
<title>Node1&#45;&gt;Node3</title>
<g id="a_edge2_Node000001_Node000003"><a xlink:title=" ">
<path fill="none" stroke="#63b8ff" d="M171.78,-97.78C162.43,-99.04 152.94,-100.33 143.73,-101.57"/>
<polygon fill="#63b8ff" stroke="#63b8ff" points="172.42,-101.22 181.86,-96.42 171.48,-94.29 172.42,-101.22"/>
</a>
</g>
</g>
<!-- Node4 -->
<g id="Node000004" class="node">
<title>Node4</title>
<g id="a_Node000004"><a xlink:href="../../df/dba/classInternetStreamingService.html#a83b70c175cde2ba75d105615cdbe8c63" target="_top" xlink:title=" ">
<polygon fill="white" stroke="#666666" points="143.5,-78 2.5,-78 2.5,-48 143.5,-48 143.5,-78"/>
<text text-anchor="start" x="10.5" y="-66" font-family="Helvetica,sans-Serif" font-size="10.00">InternetStreamingService</text>
<text text-anchor="middle" x="73" y="-55" font-family="Helvetica,sans-Serif" font-size="10.00">::searchTwitchStreams</text>
</a>
</g>
</g>
<!-- Node1&#45;&gt;Node4 -->
<g id="edge3_Node000001_Node000004" class="edge">
<title>Node1&#45;&gt;Node4</title>
<g id="a_edge3_Node000001_Node000004"><a xlink:title=" ">
<path fill="none" stroke="#63b8ff" d="M171.78,-76.22C162.43,-74.96 152.94,-73.67 143.73,-72.43"/>
<polygon fill="#63b8ff" stroke="#63b8ff" points="171.48,-79.71 181.86,-77.58 172.42,-72.78 171.48,-79.71"/>
</a>
</g>
</g>
<!-- Node5 -->
<g id="Node000005" class="node">
<title>Node5</title>
<g id="a_Node000005"><a xlink:href="../../df/dba/classInternetStreamingService.html#a76efcf2c4b902c41a2b6b91532256975" target="_top" xlink:title=" ">
<polygon fill="white" stroke="#666666" points="143.5,-30 2.5,-30 2.5,0 143.5,0 143.5,-30"/>
<text text-anchor="start" x="10.5" y="-18" font-family="Helvetica,sans-Serif" font-size="10.00">InternetStreamingService</text>
<text text-anchor="middle" x="73" y="-7" font-family="Helvetica,sans-Serif" font-size="10.00">::searchYouTube</text>
</a>
</g>
</g>
<!-- Node1&#45;&gt;Node5 -->
<g id="edge4_Node000001_Node000005" class="edge">
<title>Node1&#45;&gt;Node5</title>
<g id="a_edge4_Node000001_Node000005"><a xlink:title=" ">
<path fill="none" stroke="#63b8ff" d="M211.29,-67.5C191.78,-58.35 167.89,-47.6 146,-39 138.15,-35.92 129.73,-32.87 121.51,-30.05"/>
<polygon fill="#63b8ff" stroke="#63b8ff" points="209.94,-70.74 220.48,-71.84 212.93,-64.41 209.94,-70.74"/>
</a>
</g>
</g>
</g>
</svg>
</svg>

<style type='text/css'>
<![CDATA[
[data-mouse-over-selected='false'] { opacity: 0.7; }
[data-mouse-over-selected='true']  { opacity: 1.0; }
]]>
</style>
<script type="application/ecmascript"><![CDATA[
document.addEventListener('DOMContentLoaded', (event) => {
  highlightEdges();
  highlightAdjacentNodes();
});
]]></script>
</svg>
