<?xml version="1.0" encoding="UTF-8" standalone="no"?>
<!DOCTYPE svg PUBLIC "-//W3C//DTD SVG 1.1//EN"
 "http://www.w3.org/Graphics/SVG/1.1/DTD/svg11.dtd">
<!-- Generated by graphviz version 2.43.0 (0)
 -->
<!-- Title: src/subtitles/SubtitleRenderer.cpp Pages: 1 -->
<svg width="1208pt" height="192pt"
 viewBox="0.00 0.00 1207.50 192.00" xmlns="http://www.w3.org/2000/svg" xmlns:xlink="http://www.w3.org/1999/xlink">
<g id="graph0" class="graph" transform="scale(1 1) rotate(0) translate(4 188)">
<title>src/subtitles/SubtitleRenderer.cpp</title>
<!-- Node1 -->
<g id="Node000001" class="node">
<title>Node1</title>
<g id="a_Node000001"><a xlink:title=" ">
<polygon fill="#999999" stroke="#666666" points="926,-184 746,-184 746,-165 926,-165 926,-184"/>
<text text-anchor="middle" x="836" y="-172" font-family="Helvetica,sans-Serif" font-size="10.00">src/subtitles/SubtitleRenderer.cpp</text>
</a>
</g>
</g>
<!-- Node2 -->
<g id="Node000002" class="node">
<title>Node2</title>
<g id="a_Node000002"><a xlink:href="../../dc/d64/SubtitleRenderer_8h.html" target="_top" xlink:title=" ">
<polygon fill="white" stroke="#666666" points="497,-129 345,-129 345,-110 497,-110 497,-129"/>
<text text-anchor="middle" x="421" y="-117" font-family="Helvetica,sans-Serif" font-size="10.00">subtitles/SubtitleRenderer.h</text>
</a>
</g>
</g>
<!-- Node1&#45;&gt;Node2 -->
<g id="edge1_Node000001_Node000002" class="edge">
<title>Node1&#45;&gt;Node2</title>
<g id="a_edge1_Node000001_Node000002"><a xlink:title=" ">
<path fill="none" stroke="#63b8ff" d="M769.32,-164.98C695.32,-155.53 576.06,-140.3 498.1,-130.35"/>
<polygon fill="#63b8ff" stroke="#63b8ff" points="498.22,-126.83 487.86,-129.04 497.33,-133.78 498.22,-126.83"/>
</a>
</g>
</g>
<!-- Node11 -->
<g id="Node000011" class="node">
<title>Node11</title>
<g id="a_Node000011"><a xlink:title=" ">
<polygon fill="#e0e0e0" stroke="#999999" points="845,-74 787,-74 787,-55 845,-55 845,-74"/>
<text text-anchor="middle" x="816" y="-62" font-family="Helvetica,sans-Serif" font-size="10.00">QPainter</text>
</a>
</g>
</g>
<!-- Node1&#45;&gt;Node11 -->
<g id="edge17_Node000001_Node000011" class="edge">
<title>Node1&#45;&gt;Node11</title>
<g id="a_edge17_Node000001_Node000011"><a xlink:title=" ">
<path fill="none" stroke="#63b8ff" d="M746.3,-164.92C724.49,-158.34 703.56,-147.31 690,-129 684.97,-122.21 685.12,-116.89 690,-110 695.29,-102.52 742,-87.34 777.01,-76.8"/>
<polygon fill="#63b8ff" stroke="#63b8ff" points="778.4,-80.04 786.99,-73.83 776.4,-73.33 778.4,-80.04"/>
</a>
</g>
</g>
<!-- Node15 -->
<g id="Node000015" class="node">
<title>Node15</title>
<g id="a_Node000015"><a xlink:title=" ">
<polygon fill="#e0e0e0" stroke="#999999" points="777.5,-129 698.5,-129 698.5,-110 777.5,-110 777.5,-129"/>
<text text-anchor="middle" x="738" y="-117" font-family="Helvetica,sans-Serif" font-size="10.00">QPainterPath</text>
</a>
</g>
</g>
<!-- Node1&#45;&gt;Node15 -->
<g id="edge18_Node000001_Node000015" class="edge">
<title>Node1&#45;&gt;Node15</title>
<g id="a_edge18_Node000001_Node000015"><a xlink:title=" ">
<path fill="none" stroke="#63b8ff" d="M820.25,-164.98C804.77,-156.61 780.91,-143.7 762.86,-133.95"/>
<polygon fill="#63b8ff" stroke="#63b8ff" points="764.49,-130.85 754.03,-129.17 761.16,-137.01 764.49,-130.85"/>
</a>
</g>
</g>
<!-- Node16 -->
<g id="Node000016" class="node">
<title>Node16</title>
<g id="a_Node000016"><a xlink:title=" ">
<polygon fill="#e0e0e0" stroke="#999999" points="876.5,-129 795.5,-129 795.5,-110 876.5,-110 876.5,-129"/>
<text text-anchor="middle" x="836" y="-117" font-family="Helvetica,sans-Serif" font-size="10.00">QFontMetrics</text>
</a>
</g>
</g>
<!-- Node1&#45;&gt;Node16 -->
<g id="edge19_Node000001_Node000016" class="edge">
<title>Node1&#45;&gt;Node16</title>
<g id="a_edge19_Node000001_Node000016"><a xlink:title=" ">
<path fill="none" stroke="#63b8ff" d="M836,-164.75C836,-157.8 836,-147.85 836,-139.13"/>
<polygon fill="#63b8ff" stroke="#63b8ff" points="839.5,-139.09 836,-129.09 832.5,-139.09 839.5,-139.09"/>
</a>
</g>
</g>
<!-- Node17 -->
<g id="Node000017" class="node">
<title>Node17</title>
<g id="a_Node000017"><a xlink:title=" ">
<polygon fill="#e0e0e0" stroke="#999999" points="973.5,-129 894.5,-129 894.5,-110 973.5,-110 973.5,-129"/>
<text text-anchor="middle" x="934" y="-117" font-family="Helvetica,sans-Serif" font-size="10.00">QApplication</text>
</a>
</g>
</g>
<!-- Node1&#45;&gt;Node17 -->
<g id="edge20_Node000001_Node000017" class="edge">
<title>Node1&#45;&gt;Node17</title>
<g id="a_edge20_Node000001_Node000017"><a xlink:title=" ">
<path fill="none" stroke="#63b8ff" d="M851.75,-164.98C867.23,-156.61 891.09,-143.7 909.14,-133.95"/>
<polygon fill="#63b8ff" stroke="#63b8ff" points="910.84,-137.01 917.97,-129.17 907.51,-130.85 910.84,-137.01"/>
</a>
</g>
</g>
<!-- Node18 -->
<g id="Node000018" class="node">
<title>Node18</title>
<g id="a_Node000018"><a xlink:title=" ">
<polygon fill="#e0e0e0" stroke="#999999" points="1075,-129 991,-129 991,-110 1075,-110 1075,-129"/>
<text text-anchor="middle" x="1033" y="-117" font-family="Helvetica,sans-Serif" font-size="10.00">QMouseEvent</text>
</a>
</g>
</g>
<!-- Node1&#45;&gt;Node18 -->
<g id="edge21_Node000001_Node000018" class="edge">
<title>Node1&#45;&gt;Node18</title>
<g id="a_edge21_Node000001_Node000018"><a xlink:title=" ">
<path fill="none" stroke="#63b8ff" d="M867.65,-164.98C901.16,-155.97 954.2,-141.7 991.14,-131.76"/>
<polygon fill="#63b8ff" stroke="#63b8ff" points="992.35,-135.06 1001.1,-129.08 990.53,-128.3 992.35,-135.06"/>
</a>
</g>
</g>
<!-- Node19 -->
<g id="Node000019" class="node">
<title>Node19</title>
<g id="a_Node000019"><a xlink:title=" ">
<polygon fill="#e0e0e0" stroke="#999999" points="1199.5,-129 1092.5,-129 1092.5,-110 1199.5,-110 1199.5,-129"/>
<text text-anchor="middle" x="1146" y="-117" font-family="Helvetica,sans-Serif" font-size="10.00">QLoggingCategory</text>
</a>
</g>
</g>
<!-- Node1&#45;&gt;Node19 -->
<g id="edge22_Node000001_Node000019" class="edge">
<title>Node1&#45;&gt;Node19</title>
<g id="a_edge22_Node000001_Node000019"><a xlink:title=" ">
<path fill="none" stroke="#63b8ff" d="M885.81,-164.98C940.3,-155.67 1027.63,-140.74 1085.89,-130.78"/>
<polygon fill="#63b8ff" stroke="#63b8ff" points="1086.79,-134.17 1096.06,-129.04 1085.61,-127.27 1086.79,-134.17"/>
</a>
</g>
</g>
<!-- Node3 -->
<g id="Node000003" class="node">
<title>Node3</title>
<g id="a_Node000003"><a xlink:href="../../d6/d6f/SubtitleEntry_8h.html" target="_top" xlink:title=" ">
<polygon fill="white" stroke="#666666" points="259.5,-74 172.5,-74 172.5,-55 259.5,-55 259.5,-74"/>
<text text-anchor="middle" x="216" y="-62" font-family="Helvetica,sans-Serif" font-size="10.00">SubtitleEntry.h</text>
</a>
</g>
</g>
<!-- Node2&#45;&gt;Node3 -->
<g id="edge2_Node000002_Node000003" class="edge">
<title>Node2&#45;&gt;Node3</title>
<g id="a_edge2_Node000002_Node000003"><a xlink:title=" ">
<path fill="none" stroke="#63b8ff" d="M388.06,-109.98C353.05,-100.93 297.53,-86.58 259.07,-76.64"/>
<polygon fill="#63b8ff" stroke="#63b8ff" points="259.75,-73.2 249.19,-74.08 258,-79.97 259.75,-73.2"/>
</a>
</g>
</g>
<!-- Node6 -->
<g id="Node000006" class="node">
<title>Node6</title>
<g id="a_Node000006"><a xlink:title=" ">
<polygon fill="#e0e0e0" stroke="#999999" points="50,-19 0,-19 0,0 50,0 50,-19"/>
<text text-anchor="middle" x="25" y="-7" font-family="Helvetica,sans-Serif" font-size="10.00">QColor</text>
</a>
</g>
</g>
<!-- Node2&#45;&gt;Node6 -->
<g id="edge15_Node000002_Node000006" class="edge">
<title>Node2&#45;&gt;Node6</title>
<g id="a_edge15_Node000002_Node000006"><a xlink:title=" ">
<path fill="none" stroke="#63b8ff" d="M344.99,-110.67C292.94,-104.03 222.8,-92.56 163,-74 121.5,-61.12 76.26,-38.51 49.28,-24.04"/>
<polygon fill="#63b8ff" stroke="#63b8ff" points="50.66,-20.81 40.2,-19.11 47.32,-26.96 50.66,-20.81"/>
</a>
</g>
</g>
<!-- Node7 -->
<g id="Node000007" class="node">
<title>Node7</title>
<g id="a_Node000007"><a xlink:title=" ">
<polygon fill="#e0e0e0" stroke="#999999" points="310.5,-19 265.5,-19 265.5,0 310.5,0 310.5,-19"/>
<text text-anchor="middle" x="288" y="-7" font-family="Helvetica,sans-Serif" font-size="10.00">QFont</text>
</a>
</g>
</g>
<!-- Node2&#45;&gt;Node7 -->
<g id="edge14_Node000002_Node000007" class="edge">
<title>Node2&#45;&gt;Node7</title>
<g id="a_edge14_Node000002_Node000007"><a xlink:title=" ">
<path fill="none" stroke="#63b8ff" d="M399.1,-109.98C381.17,-102.32 355.8,-89.85 337,-74 321.26,-60.73 307.35,-41.6 298.41,-27.81"/>
<polygon fill="#63b8ff" stroke="#63b8ff" points="301.33,-25.88 293.06,-19.26 295.4,-29.59 301.33,-25.88"/>
</a>
</g>
</g>
<!-- Node8 -->
<g id="Node000008" class="node">
<title>Node8</title>
<g id="a_Node000008"><a xlink:title=" ">
<polygon fill="#e0e0e0" stroke="#999999" points="375,-19 329,-19 329,0 375,0 375,-19"/>
<text text-anchor="middle" x="352" y="-7" font-family="Helvetica,sans-Serif" font-size="10.00">QRect</text>
</a>
</g>
</g>
<!-- Node2&#45;&gt;Node8 -->
<g id="edge16_Node000002_Node000008" class="edge">
<title>Node2&#45;&gt;Node8</title>
<g id="a_edge16_Node000002_Node000008"><a xlink:title=" ">
<path fill="none" stroke="#63b8ff" d="M392.61,-109.92C375.54,-103.13 355.19,-91.77 345,-74 337.17,-60.33 340.18,-42.29 344.41,-28.92"/>
<polygon fill="#63b8ff" stroke="#63b8ff" points="347.75,-29.98 347.89,-19.39 341.18,-27.58 347.75,-29.98"/>
</a>
</g>
</g>
<!-- Node10 -->
<g id="Node000010" class="node">
<title>Node10</title>
<g id="a_Node000010"><a xlink:title=" ">
<polygon fill="#e0e0e0" stroke="#999999" points="413.5,-74 354.5,-74 354.5,-55 413.5,-55 413.5,-74"/>
<text text-anchor="middle" x="384" y="-62" font-family="Helvetica,sans-Serif" font-size="10.00">QWidget</text>
</a>
</g>
</g>
<!-- Node2&#45;&gt;Node10 -->
<g id="edge9_Node000002_Node000010" class="edge">
<title>Node2&#45;&gt;Node10</title>
<g id="a_edge9_Node000002_Node000010"><a xlink:title=" ">
<path fill="none" stroke="#63b8ff" d="M414.89,-109.75C409.72,-102.34 402.15,-91.5 395.81,-82.41"/>
<polygon fill="#63b8ff" stroke="#63b8ff" points="398.59,-80.29 390,-74.09 392.85,-84.29 398.59,-80.29"/>
</a>
</g>
</g>
<!-- Node2&#45;&gt;Node11 -->
<g id="edge10_Node000002_Node000011" class="edge">
<title>Node2&#45;&gt;Node11</title>
<g id="a_edge10_Node000002_Node000011"><a xlink:title=" ">
<path fill="none" stroke="#63b8ff" d="M497.22,-111.14C567.45,-103.87 674.73,-91.53 776.74,-74.08"/>
<polygon fill="#63b8ff" stroke="#63b8ff" points="777.34,-77.52 786.6,-72.37 776.15,-70.63 777.34,-77.52"/>
</a>
</g>
</g>
<!-- Node12 -->
<g id="Node000012" class="node">
<title>Node12</title>
<g id="a_Node000012"><a xlink:title=" ">
<polygon fill="#e0e0e0" stroke="#999999" points="484.5,-74 431.5,-74 431.5,-55 484.5,-55 484.5,-74"/>
<text text-anchor="middle" x="458" y="-62" font-family="Helvetica,sans-Serif" font-size="10.00">QTimer</text>
</a>
</g>
</g>
<!-- Node2&#45;&gt;Node12 -->
<g id="edge11_Node000002_Node000012" class="edge">
<title>Node2&#45;&gt;Node12</title>
<g id="a_edge11_Node000002_Node000012"><a xlink:title=" ">
<path fill="none" stroke="#63b8ff" d="M427.11,-109.75C432.28,-102.34 439.85,-91.5 446.19,-82.41"/>
<polygon fill="#63b8ff" stroke="#63b8ff" points="449.15,-84.29 452,-74.09 443.41,-80.29 449.15,-84.29"/>
</a>
</g>
</g>
<!-- Node13 -->
<g id="Node000013" class="node">
<title>Node13</title>
<g id="a_Node000013"><a xlink:title=" ">
<polygon fill="#e0e0e0" stroke="#999999" points="619,-74 503,-74 503,-55 619,-55 619,-74"/>
<text text-anchor="middle" x="561" y="-62" font-family="Helvetica,sans-Serif" font-size="10.00">QPropertyAnimation</text>
</a>
</g>
</g>
<!-- Node2&#45;&gt;Node13 -->
<g id="edge12_Node000002_Node000013" class="edge">
<title>Node2&#45;&gt;Node13</title>
<g id="a_edge12_Node000002_Node000013"><a xlink:title=" ">
<path fill="none" stroke="#63b8ff" d="M443.49,-109.98C466.52,-101.27 502.54,-87.63 528.63,-77.75"/>
<polygon fill="#63b8ff" stroke="#63b8ff" points="529.98,-80.98 538.1,-74.17 527.51,-74.44 529.98,-80.98"/>
</a>
</g>
</g>
<!-- Node14 -->
<g id="Node000014" class="node">
<title>Node14</title>
<g id="a_Node000014"><a xlink:title=" ">
<polygon fill="#e0e0e0" stroke="#999999" points="769,-74 637,-74 637,-55 769,-55 769,-74"/>
<text text-anchor="middle" x="703" y="-62" font-family="Helvetica,sans-Serif" font-size="10.00">QGraphicsOpacityEffect</text>
</a>
</g>
</g>
<!-- Node2&#45;&gt;Node14 -->
<g id="edge13_Node000002_Node000014" class="edge">
<title>Node2&#45;&gt;Node14</title>
<g id="a_edge13_Node000002_Node000014"><a xlink:title=" ">
<path fill="none" stroke="#63b8ff" d="M466.31,-109.98C515.6,-100.72 594.43,-85.9 647.43,-75.94"/>
<polygon fill="#63b8ff" stroke="#63b8ff" points="648.16,-79.37 657.34,-74.08 646.86,-72.49 648.16,-79.37"/>
</a>
</g>
</g>
<!-- Node4 -->
<g id="Node000004" class="node">
<title>Node4</title>
<g id="a_Node000004"><a xlink:title=" ">
<polygon fill="#e0e0e0" stroke="#999999" points="121.5,-19 68.5,-19 68.5,0 121.5,0 121.5,-19"/>
<text text-anchor="middle" x="95" y="-7" font-family="Helvetica,sans-Serif" font-size="10.00">QString</text>
</a>
</g>
</g>
<!-- Node3&#45;&gt;Node4 -->
<g id="edge3_Node000003_Node000004" class="edge">
<title>Node3&#45;&gt;Node4</title>
<g id="a_edge3_Node000003_Node000004"><a xlink:title=" ">
<path fill="none" stroke="#63b8ff" d="M196.56,-54.98C177.01,-46.42 146.62,-33.11 124.18,-23.28"/>
<polygon fill="#63b8ff" stroke="#63b8ff" points="125.36,-19.98 114.79,-19.17 122.55,-26.39 125.36,-19.98"/>
</a>
</g>
</g>
<!-- Node5 -->
<g id="Node000005" class="node">
<title>Node5</title>
<g id="a_Node000005"><a xlink:title=" ">
<polygon fill="#e0e0e0" stroke="#999999" points="188.5,-19 139.5,-19 139.5,0 188.5,0 188.5,-19"/>
<text text-anchor="middle" x="164" y="-7" font-family="Helvetica,sans-Serif" font-size="10.00">QTime</text>
</a>
</g>
</g>
<!-- Node3&#45;&gt;Node5 -->
<g id="edge4_Node000003_Node000005" class="edge">
<title>Node3&#45;&gt;Node5</title>
<g id="a_edge4_Node000003_Node000005"><a xlink:title=" ">
<path fill="none" stroke="#63b8ff" d="M207.41,-54.75C199.84,-47.03 188.62,-35.6 179.49,-26.28"/>
<polygon fill="#63b8ff" stroke="#63b8ff" points="181.93,-23.78 172.43,-19.09 176.93,-28.68 181.93,-23.78"/>
</a>
</g>
</g>
<!-- Node3&#45;&gt;Node6 -->
<g id="edge5_Node000003_Node000006" class="edge">
<title>Node3&#45;&gt;Node6</title>
<g id="a_edge5_Node000003_Node000006"><a xlink:title=" ">
<path fill="none" stroke="#63b8ff" d="M185.31,-54.98C151.14,-45.5 96.02,-30.21 60.15,-20.25"/>
<polygon fill="#63b8ff" stroke="#63b8ff" points="60.7,-16.77 50.12,-17.47 58.82,-23.52 60.7,-16.77"/>
</a>
</g>
</g>
<!-- Node3&#45;&gt;Node7 -->
<g id="edge6_Node000003_Node000007" class="edge">
<title>Node3&#45;&gt;Node7</title>
<g id="a_edge6_Node000003_Node000007"><a xlink:title=" ">
<path fill="none" stroke="#63b8ff" d="M227.57,-54.98C238.42,-47 254.88,-34.88 267.88,-25.31"/>
<polygon fill="#63b8ff" stroke="#63b8ff" points="270.24,-27.92 276.22,-19.17 266.09,-22.28 270.24,-27.92"/>
</a>
</g>
</g>
<!-- Node3&#45;&gt;Node8 -->
<g id="edge7_Node000003_Node000008" class="edge">
<title>Node3&#45;&gt;Node8</title>
<g id="a_edge7_Node000003_Node000008"><a xlink:title=" ">
<path fill="none" stroke="#63b8ff" d="M237.85,-54.98C260.12,-46.3 294.9,-32.75 320.22,-22.88"/>
<polygon fill="#63b8ff" stroke="#63b8ff" points="321.71,-26.06 329.75,-19.17 319.16,-19.54 321.71,-26.06"/>
</a>
</g>
</g>
<!-- Node9 -->
<g id="Node000009" class="node">
<title>Node9</title>
<g id="a_Node000009"><a xlink:title=" ">
<polygon fill="#e0e0e0" stroke="#999999" points="247.5,-19 206.5,-19 206.5,0 247.5,0 247.5,-19"/>
<text text-anchor="middle" x="227" y="-7" font-family="Helvetica,sans-Serif" font-size="10.00">QList</text>
</a>
</g>
</g>
<!-- Node3&#45;&gt;Node9 -->
<g id="edge8_Node000003_Node000009" class="edge">
<title>Node3&#45;&gt;Node9</title>
<g id="a_edge8_Node000003_Node000009"><a xlink:title=" ">
<path fill="none" stroke="#63b8ff" d="M217.82,-54.75C219.26,-47.8 221.32,-37.85 223.13,-29.13"/>
<polygon fill="#63b8ff" stroke="#63b8ff" points="226.61,-29.59 225.22,-19.09 219.76,-28.17 226.61,-29.59"/>
</a>
</g>
</g>
</g>
</svg>
