<?xml version="1.0" encoding="UTF-8" standalone="no"?>
<!DOCTYPE svg PUBLIC "-//W3C//DTD SVG 1.1//EN"
 "http://www.w3.org/Graphics/SVG/1.1/DTD/svg11.dtd">
<!-- Generated by graphviz version 2.43.0 (0)
 -->
<!-- Title: EonPlay::Data::MediaScanner::cleanupMissingFiles Pages: 1 -->
<svg width="382pt" height="182pt"
 viewBox="0.00 0.00 382.00 182.00" xmlns="http://www.w3.org/2000/svg" xmlns:xlink="http://www.w3.org/1999/xlink">

<svg id="main" version="1.1" xmlns="http://www.w3.org/2000/svg" xmlns:xlink="http://www.w3.org/1999/xlink" xml:space="preserve" onload="init(evt)">
<style type="text/css"><![CDATA[
.node, .edge {opacity: 0.7;}
.node.selected, .edge.selected {opacity: 1;}
.edge:hover path { stroke: red; }
.edge:hover polygon { stroke: red; fill: red; }
]]></style>
<script type="application/ecmascript" xlink:href="../../svg.min.js"/>
<svg id="graph" class="graph">
<g id="graph0" class="graph" transform="scale(1 1) rotate(0) translate(4 178)">
<title>EonPlay::Data::MediaScanner::cleanupMissingFiles</title>
<!-- Node1 -->
<g id="Node000001" class="node">
<title>Node1</title>
<g id="a_Node000001"><a xlink:title=" ">
<polygon fill="#999999" stroke="#666666" points="159,-102 0,-102 0,-72 159,-72 159,-102"/>
<text text-anchor="start" x="8" y="-90" font-family="Helvetica,sans-Serif" font-size="10.00">EonPlay::Data::MediaScanner</text>
<text text-anchor="middle" x="79.5" y="-79" font-family="Helvetica,sans-Serif" font-size="10.00">::cleanupMissingFiles</text>
</a>
</g>
</g>
<!-- Node2 -->
<g id="Node000002" class="node">
<title>Node2</title>
<g id="a_Node000002"><a xlink:href="../../d8/d4f/classEonPlay_1_1Data_1_1MediaScanner.html#afc649447c08cbf73676ce2908e37ed86" target="_top" xlink:title=" ">
<polygon fill="white" stroke="#666666" points="364,-174 205,-174 205,-144 364,-144 364,-174"/>
<text text-anchor="start" x="213" y="-162" font-family="Helvetica,sans-Serif" font-size="10.00">EonPlay::Data::MediaScanner</text>
<text text-anchor="middle" x="284.5" y="-151" font-family="Helvetica,sans-Serif" font-size="10.00">::fileRemoved</text>
</a>
</g>
</g>
<!-- Node1&#45;&gt;Node2 -->
<g id="edge1_Node000001_Node000002" class="edge">
<title>Node1&#45;&gt;Node2</title>
<g id="a_edge1_Node000001_Node000002"><a xlink:title=" ">
<path fill="none" stroke="#63b8ff" d="M113.12,-102.03C135.79,-112.14 166.87,-125.34 195,-135 201.03,-137.07 207.33,-139.08 213.68,-141"/>
<polygon fill="#63b8ff" stroke="#63b8ff" points="213.09,-144.47 223.67,-143.93 215.06,-137.75 213.09,-144.47"/>
</a>
</g>
</g>
<!-- Node3 -->
<g id="Node000003" class="node">
<title>Node3</title>
<g id="a_Node000003"><a xlink:href="../../da/db6/classEonPlay_1_1Data_1_1DatabaseManager.html#a710368797cbe91a8473a409dd0fa4cc8" target="_top" xlink:title=" ">
<polygon fill="white" stroke="#666666" points="374,-126 195,-126 195,-96 374,-96 374,-126"/>
<text text-anchor="start" x="203" y="-114" font-family="Helvetica,sans-Serif" font-size="10.00">EonPlay::Data::DatabaseManager</text>
<text text-anchor="middle" x="284.5" y="-103" font-family="Helvetica,sans-Serif" font-size="10.00">::getAllMediaFiles</text>
</a>
</g>
</g>
<!-- Node1&#45;&gt;Node3 -->
<g id="edge2_Node000001_Node000003" class="edge">
<title>Node1&#45;&gt;Node3</title>
<g id="a_edge2_Node000001_Node000003"><a xlink:title=" ">
<path fill="none" stroke="#63b8ff" d="M159.28,-96.31C167.69,-97.31 176.32,-98.33 184.92,-99.35"/>
<polygon fill="#63b8ff" stroke="#63b8ff" points="184.65,-102.84 194.99,-100.54 185.47,-95.89 184.65,-102.84"/>
</a>
</g>
</g>
<!-- Node4 -->
<g id="Node000004" class="node">
<title>Node4</title>
<g id="a_Node000004"><a xlink:href="../../d8/d4f/classEonPlay_1_1Data_1_1MediaScanner.html#adee2daba8fe40c939c52d2a907794ff2" target="_top" xlink:title=" ">
<polygon fill="white" stroke="#666666" points="364,-78 205,-78 205,-48 364,-48 364,-78"/>
<text text-anchor="start" x="213" y="-66" font-family="Helvetica,sans-Serif" font-size="10.00">EonPlay::Data::MediaScanner</text>
<text text-anchor="middle" x="284.5" y="-55" font-family="Helvetica,sans-Serif" font-size="10.00">::libraryUpdated</text>
</a>
</g>
</g>
<!-- Node1&#45;&gt;Node4 -->
<g id="edge3_Node000001_Node000004" class="edge">
<title>Node1&#45;&gt;Node4</title>
<g id="a_edge3_Node000001_Node000004"><a xlink:title=" ">
<path fill="none" stroke="#63b8ff" d="M159.28,-77.69C170.83,-76.32 182.79,-74.91 194.53,-73.52"/>
<polygon fill="#63b8ff" stroke="#63b8ff" points="195.25,-76.96 204.77,-72.31 194.43,-70.01 195.25,-76.96"/>
</a>
</g>
</g>
<!-- Node5 -->
<g id="Node000005" class="node">
<title>Node5</title>
<g id="a_Node000005"><a xlink:href="../../da/db6/classEonPlay_1_1Data_1_1DatabaseManager.html#a583f34313ed0a724067e36ded4657634" target="_top" xlink:title=" ">
<polygon fill="white" stroke="#666666" points="374,-30 195,-30 195,0 374,0 374,-30"/>
<text text-anchor="start" x="203" y="-18" font-family="Helvetica,sans-Serif" font-size="10.00">EonPlay::Data::DatabaseManager</text>
<text text-anchor="middle" x="284.5" y="-7" font-family="Helvetica,sans-Serif" font-size="10.00">::removeMediaFileByPath</text>
</a>
</g>
</g>
<!-- Node1&#45;&gt;Node5 -->
<g id="edge4_Node000001_Node000005" class="edge">
<title>Node1&#45;&gt;Node5</title>
<g id="a_edge4_Node000001_Node000005"><a xlink:title=" ">
<path fill="none" stroke="#63b8ff" d="M113.12,-71.97C135.79,-61.86 166.87,-48.66 195,-39 201.03,-36.93 207.33,-34.92 213.68,-33"/>
<polygon fill="#63b8ff" stroke="#63b8ff" points="215.06,-36.25 223.67,-30.07 213.09,-29.53 215.06,-36.25"/>
</a>
</g>
</g>
</g>
</svg>
</svg>

<style type='text/css'>
<![CDATA[
[data-mouse-over-selected='false'] { opacity: 0.7; }
[data-mouse-over-selected='true']  { opacity: 1.0; }
]]>
</style>
<script type="application/ecmascript"><![CDATA[
document.addEventListener('DOMContentLoaded', (event) => {
  highlightEdges();
  highlightAdjacentNodes();
});
]]></script>
</svg>
