<?xml version="1.0" encoding="UTF-8" standalone="no"?>
<!DOCTYPE svg PUBLIC "-//W3C//DTD SVG 1.1//EN"
 "http://www.w3.org/Graphics/SVG/1.1/DTD/svg11.dtd">
<!-- Generated by graphviz version 2.43.0 (0)
 -->
<!-- Title: EonPlay::Data::MediaScanner::getTotalLibrarySize Pages: 1 -->
<svg width="597pt" height="38pt"
 viewBox="0.00 0.00 597.00 38.00" xmlns="http://www.w3.org/2000/svg" xmlns:xlink="http://www.w3.org/1999/xlink">
<g id="graph0" class="graph" transform="scale(1 1) rotate(0) translate(4 34)">
<title>EonPlay::Data::MediaScanner::getTotalLibrarySize</title>
<!-- Node1 -->
<g id="Node000001" class="node">
<title>Node1</title>
<g id="a_Node000001"><a xlink:title=" ">
<polygon fill="#999999" stroke="#666666" points="159,-30 0,-30 0,0 159,0 159,-30"/>
<text text-anchor="start" x="8" y="-18" font-family="Helvetica,sans-Serif" font-size="10.00">EonPlay::Data::MediaScanner</text>
<text text-anchor="middle" x="79.5" y="-7" font-family="Helvetica,sans-Serif" font-size="10.00">::getTotalLibrarySize</text>
</a>
</g>
</g>
<!-- Node2 -->
<g id="Node000002" class="node">
<title>Node2</title>
<g id="a_Node000002"><a xlink:href="../../da/db6/classEonPlay_1_1Data_1_1DatabaseManager.html#a681f1968aeca3bdedf7278493b781e00" target="_top" xlink:title=" ">
<polygon fill="white" stroke="#666666" points="374,-30 195,-30 195,0 374,0 374,-30"/>
<text text-anchor="start" x="203" y="-18" font-family="Helvetica,sans-Serif" font-size="10.00">EonPlay::Data::DatabaseManager</text>
<text text-anchor="middle" x="284.5" y="-7" font-family="Helvetica,sans-Serif" font-size="10.00">::getTotalLibrarySize</text>
</a>
</g>
</g>
<!-- Node1&#45;&gt;Node2 -->
<g id="edge1_Node000001_Node000002" class="edge">
<title>Node1&#45;&gt;Node2</title>
<g id="a_edge1_Node000001_Node000002"><a xlink:title=" ">
<path fill="none" stroke="#63b8ff" d="M159.28,-15C167.69,-15 176.32,-15 184.92,-15"/>
<polygon fill="#63b8ff" stroke="#63b8ff" points="184.99,-18.5 194.99,-15 184.99,-11.5 184.99,-18.5"/>
</a>
</g>
</g>
<!-- Node3 -->
<g id="Node000003" class="node">
<title>Node3</title>
<g id="a_Node000003"><a xlink:href="../../da/db6/classEonPlay_1_1Data_1_1DatabaseManager.html#aa3e2fc6e5dddba4ec1e8ef43c9b75703" target="_top" xlink:title=" ">
<polygon fill="white" stroke="#666666" points="589,-30 410,-30 410,0 589,0 589,-30"/>
<text text-anchor="start" x="418" y="-18" font-family="Helvetica,sans-Serif" font-size="10.00">EonPlay::Data::DatabaseManager</text>
<text text-anchor="middle" x="499.5" y="-7" font-family="Helvetica,sans-Serif" font-size="10.00">::rollbackTransaction</text>
</a>
</g>
</g>
<!-- Node2&#45;&gt;Node3 -->
<g id="edge2_Node000002_Node000003" class="edge">
<title>Node2&#45;&gt;Node3</title>
<g id="a_edge2_Node000002_Node000003"><a xlink:title=" ">
<path fill="none" stroke="#63b8ff" d="M374.29,-15C382.65,-15 391.16,-15 399.6,-15"/>
<polygon fill="#63b8ff" stroke="#63b8ff" points="399.86,-18.5 409.86,-15 399.85,-11.5 399.86,-18.5"/>
</a>
</g>
</g>
</g>
</svg>
