<?xml version="1.0" encoding="UTF-8" standalone="no"?>
<!DOCTYPE svg PUBLIC "-//W3C//DTD SVG 1.1//EN"
 "http://www.w3.org/Graphics/SVG/1.1/DTD/svg11.dtd">
<!-- Generated by graphviz version 2.43.0 (0)
 -->
<!-- Title: LibraryWidget::initialize Pages: 1 -->
<svg width="514pt" height="86pt"
 viewBox="0.00 0.00 514.00 86.00" xmlns="http://www.w3.org/2000/svg" xmlns:xlink="http://www.w3.org/1999/xlink">
<g id="graph0" class="graph" transform="scale(1 1) rotate(0) translate(4 82)">
<title>LibraryWidget::initialize</title>
<!-- Node1 -->
<g id="Node000001" class="node">
<title>Node1</title>
<g id="a_Node000001"><a xlink:title="Initialize the widget with managers.">
<polygon fill="#999999" stroke="#666666" points="133,-48.5 0,-48.5 0,-29.5 133,-29.5 133,-48.5"/>
<text text-anchor="middle" x="66.5" y="-36.5" font-family="Helvetica,sans-Serif" font-size="10.00">LibraryWidget::initialize</text>
</a>
</g>
</g>
<!-- Node2 -->
<g id="Node000002" class="node">
<title>Node2</title>
<g id="a_Node000002"><a xlink:href="../../d9/de3/classLibraryWidget.html#a2dad9f8c731f1cf20da3deab540dadd3" target="_top" xlink:title="Set library manager.">
<polygon fill="white" stroke="#666666" points="310,-78 170,-78 170,-48 310,-48 310,-78"/>
<text text-anchor="start" x="178" y="-66" font-family="Helvetica,sans-Serif" font-size="10.00">LibraryWidget::setLibrary</text>
<text text-anchor="middle" x="240" y="-55" font-family="Helvetica,sans-Serif" font-size="10.00">Manager</text>
</a>
</g>
</g>
<!-- Node1&#45;&gt;Node2 -->
<g id="edge1_Node000001_Node000002" class="edge">
<title>Node1&#45;&gt;Node2</title>
<g id="a_edge1_Node000001_Node000002"><a xlink:title=" ">
<path fill="none" stroke="#63b8ff" d="M133.32,-48.21C142.03,-49.43 151.04,-50.69 159.95,-51.94"/>
<polygon fill="#63b8ff" stroke="#63b8ff" points="159.56,-55.42 169.95,-53.34 160.53,-48.48 159.56,-55.42"/>
</a>
</g>
</g>
<!-- Node4 -->
<g id="Node000004" class="node">
<title>Node4</title>
<g id="a_Node000004"><a xlink:href="../../d9/de3/classLibraryWidget.html#a99f13df6f1da0508db3a7768b54b4f73" target="_top" xlink:title="Set playlist manager.">
<polygon fill="white" stroke="#666666" points="311,-30 169,-30 169,0 311,0 311,-30"/>
<text text-anchor="start" x="177" y="-18" font-family="Helvetica,sans-Serif" font-size="10.00">LibraryWidget::setPlaylist</text>
<text text-anchor="middle" x="240" y="-7" font-family="Helvetica,sans-Serif" font-size="10.00">Manager</text>
</a>
</g>
</g>
<!-- Node1&#45;&gt;Node4 -->
<g id="edge3_Node000001_Node000004" class="edge">
<title>Node1&#45;&gt;Node4</title>
<g id="a_edge3_Node000001_Node000004"><a xlink:title=" ">
<path fill="none" stroke="#63b8ff" d="M133.32,-29.79C141.67,-28.62 150.28,-27.41 158.83,-26.22"/>
<polygon fill="#63b8ff" stroke="#63b8ff" points="159.39,-29.68 168.8,-24.82 158.42,-22.74 159.39,-29.68"/>
</a>
</g>
</g>
<!-- Node3 -->
<g id="Node000003" class="node">
<title>Node3</title>
<g id="a_Node000003"><a xlink:href="../../d9/de3/classLibraryWidget.html#a953fa7f20120faaa402fdbafc87faae2" target="_top" xlink:title="Refresh library display.">
<polygon fill="white" stroke="#666666" points="506,-72.5 347,-72.5 347,-53.5 506,-53.5 506,-72.5"/>
<text text-anchor="middle" x="426.5" y="-60.5" font-family="Helvetica,sans-Serif" font-size="10.00">LibraryWidget::refreshLibrary</text>
</a>
</g>
</g>
<!-- Node2&#45;&gt;Node3 -->
<g id="edge2_Node000002_Node000003" class="edge">
<title>Node2&#45;&gt;Node3</title>
<g id="a_edge2_Node000002_Node000003"><a xlink:title=" ">
<path fill="none" stroke="#63b8ff" d="M310.23,-63C318.92,-63 327.9,-63 336.84,-63"/>
<polygon fill="#63b8ff" stroke="#63b8ff" points="336.89,-66.5 346.89,-63 336.89,-59.5 336.89,-66.5"/>
</a>
</g>
</g>
</g>
</svg>
