<?xml version="1.0" encoding="UTF-8" standalone="no"?>
<!DOCTYPE svg PUBLIC "-//W3C//DTD SVG 1.1//EN"
 "http://www.w3.org/Graphics/SVG/1.1/DTD/svg11.dtd">
<!-- Generated by graphviz version 2.43.0 (0)
 -->
<!-- Title: LibraryWidget::refreshLibrary Pages: 1 -->
<svg width="752pt" height="76pt"
 viewBox="0.00 0.00 752.00 75.50" xmlns="http://www.w3.org/2000/svg" xmlns:xlink="http://www.w3.org/1999/xlink">
<g id="graph0" class="graph" transform="scale(1 1) rotate(0) translate(4 71.5)">
<title>LibraryWidget::refreshLibrary</title>
<!-- Node1 -->
<g id="Node000001" class="node">
<title>Node1</title>
<g id="a_Node000001"><a xlink:title="Refresh library display.">
<polygon fill="#999999" stroke="#666666" points="744,-45.5 585,-45.5 585,-26.5 744,-26.5 744,-45.5"/>
<text text-anchor="middle" x="664.5" y="-33.5" font-family="Helvetica,sans-Serif" font-size="10.00">LibraryWidget::refreshLibrary</text>
</a>
</g>
</g>
<!-- Node2 -->
<g id="Node000002" class="node">
<title>Node2</title>
<g id="a_Node000002"><a xlink:href="../../d9/de3/classLibraryWidget.html#ac5cc2e5c3f6ea2c7756663e16f2fdc9f" target="_top" xlink:title=" ">
<polygon fill="white" stroke="#666666" points="549,-67.5 409,-67.5 409,-48.5 549,-48.5 549,-67.5"/>
<text text-anchor="middle" x="479" y="-55.5" font-family="Helvetica,sans-Serif" font-size="10.00">LibraryWidget::dropEvent</text>
</a>
</g>
</g>
<!-- Node1&#45;&gt;Node2 -->
<g id="edge1_Node000001_Node000002" class="edge">
<title>Node1&#45;&gt;Node2</title>
<g id="a_edge1_Node000001_Node000002"><a xlink:title=" ">
<path fill="none" stroke="#63b8ff" d="M574.81,-46.63C566.21,-47.66 557.57,-48.7 549.2,-49.7"/>
<polygon fill="#63b8ff" stroke="#63b8ff" points="575.37,-50.09 584.88,-45.43 574.54,-43.14 575.37,-50.09"/>
</a>
</g>
</g>
<!-- Node3 -->
<g id="Node000003" class="node">
<title>Node3</title>
<g id="a_Node000003"><a xlink:href="../../d9/de3/classLibraryWidget.html#a2dad9f8c731f1cf20da3deab540dadd3" target="_top" xlink:title="Set library manager.">
<polygon fill="white" stroke="#666666" points="549,-30 409,-30 409,0 549,0 549,-30"/>
<text text-anchor="start" x="417" y="-18" font-family="Helvetica,sans-Serif" font-size="10.00">LibraryWidget::setLibrary</text>
<text text-anchor="middle" x="479" y="-7" font-family="Helvetica,sans-Serif" font-size="10.00">Manager</text>
</a>
</g>
</g>
<!-- Node1&#45;&gt;Node3 -->
<g id="edge2_Node000001_Node000003" class="edge">
<title>Node1&#45;&gt;Node3</title>
<g id="a_edge2_Node000001_Node000003"><a xlink:title=" ">
<path fill="none" stroke="#63b8ff" d="M574.81,-25.85C566.21,-24.87 557.57,-23.88 549.2,-22.92"/>
<polygon fill="#63b8ff" stroke="#63b8ff" points="574.55,-29.34 584.88,-27 575.34,-22.39 574.55,-29.34"/>
</a>
</g>
</g>
<!-- Node4 -->
<g id="Node000004" class="node">
<title>Node4</title>
<g id="a_Node000004"><a xlink:href="../../d9/de3/classLibraryWidget.html#aaf160868b714d902e847845a4877990f" target="_top" xlink:title="Initialize the widget with managers.">
<polygon fill="white" stroke="#666666" points="373,-24.5 240,-24.5 240,-5.5 373,-5.5 373,-24.5"/>
<text text-anchor="middle" x="306.5" y="-12.5" font-family="Helvetica,sans-Serif" font-size="10.00">LibraryWidget::initialize</text>
</a>
</g>
</g>
<!-- Node3&#45;&gt;Node4 -->
<g id="edge3_Node000003_Node000004" class="edge">
<title>Node3&#45;&gt;Node4</title>
<g id="a_edge3_Node000003_Node000004"><a xlink:title=" ">
<path fill="none" stroke="#63b8ff" d="M398.42,-15C389.98,-15 381.46,-15 373.21,-15"/>
<polygon fill="#63b8ff" stroke="#63b8ff" points="398.65,-18.5 408.65,-15 398.65,-11.5 398.65,-18.5"/>
</a>
</g>
</g>
<!-- Node5 -->
<g id="Node000005" class="node">
<title>Node5</title>
<g id="a_Node000005"><a xlink:href="../../d6/d1a/classMainWindow.html#ae0e54160db525152d6583cd9f9b9efe4" target="_top" xlink:title="Initialize the main window with component manager.">
<polygon fill="white" stroke="#666666" points="204,-24.5 77,-24.5 77,-5.5 204,-5.5 204,-24.5"/>
<text text-anchor="middle" x="140.5" y="-12.5" font-family="Helvetica,sans-Serif" font-size="10.00">MainWindow::initialize</text>
</a>
</g>
</g>
<!-- Node4&#45;&gt;Node5 -->
<g id="edge4_Node000004_Node000005" class="edge">
<title>Node4&#45;&gt;Node5</title>
<g id="a_edge4_Node000004_Node000005"><a xlink:title=" ">
<path fill="none" stroke="#63b8ff" d="M229.73,-15C221.14,-15 212.47,-15 204.08,-15"/>
<polygon fill="#63b8ff" stroke="#63b8ff" points="229.74,-18.5 239.74,-15 229.74,-11.5 229.74,-18.5"/>
</a>
</g>
</g>
<!-- Node6 -->
<g id="Node000006" class="node">
<title>Node6</title>
<g id="a_Node000006"><a xlink:href="../../df/d0a/main_8cpp.html#a0ddf1224851353fc92bfbff6f499fa97" target="_top" xlink:title="Main application entry point.">
<polygon fill="white" stroke="#666666" points="41,-24.5 0,-24.5 0,-5.5 41,-5.5 41,-24.5"/>
<text text-anchor="middle" x="20.5" y="-12.5" font-family="Helvetica,sans-Serif" font-size="10.00">main</text>
</a>
</g>
</g>
<!-- Node5&#45;&gt;Node6 -->
<g id="edge5_Node000005_Node000006" class="edge">
<title>Node5&#45;&gt;Node6</title>
<g id="a_edge5_Node000005_Node000006"><a xlink:title=" ">
<path fill="none" stroke="#63b8ff" d="M66.45,-15C57.14,-15 48.32,-15 41,-15"/>
<polygon fill="#63b8ff" stroke="#63b8ff" points="66.7,-18.5 76.7,-15 66.7,-11.5 66.7,-18.5"/>
</a>
</g>
</g>
</g>
</svg>
