<?xml version="1.0" encoding="UTF-8" standalone="no"?>
<!DOCTYPE svg PUBLIC "-//W3C//DTD SVG 1.1//EN"
 "http://www.w3.org/Graphics/SVG/1.1/DTD/svg11.dtd">
<!-- Generated by graphviz version 2.43.0 (0)
 -->
<!-- Title: include/subtitles/ISubtitleParser.h Pages: 1 -->
<!--zoomable 159 -->

<svg id="main" version="1.1" xmlns="http://www.w3.org/2000/svg" xmlns:xlink="http://www.w3.org/1999/xlink" xml:space="preserve" onload="init(evt)">
<style type="text/css"><![CDATA[
.node, .edge {opacity: 0.7;}
.node.selected, .edge.selected {opacity: 1;}
.edge:hover path { stroke: red; }
.edge:hover polygon { stroke: red; fill: red; }
]]></style>

<defs>
  <circle id="rim" cx="0" cy="0" r="7"/>
  <circle id="rim2" cx="0" cy="0" r="3.5"/>
  <g id="zoomPlus">
    <use xlink:href="#rim" fill="#404040"><set attributeName="fill" to="#808080" begin="zoomplus.mouseover" end="zoomplus.mouseout"/></use>
    <path d="M-4,0h8M0,-4v8" fill="none" stroke="white" stroke-width="1.5" pointer-events="none"/>
  </g>
  <g id="zoomMin">
    <use xlink:href="#rim" fill="#404040"><set attributeName="fill" to="#808080" begin="zoomminus.mouseover" end="zoomminus.mouseout"/></use>
    <path d="M-4,0h8" fill="none" stroke="white" stroke-width="1.5" pointer-events="none"/>
  </g>
  <g id="arrowUp" transform="translate(30 24)">
    <use xlink:href="#rim"/>
    <path pointer-events="none" fill="none" stroke="white" stroke-width="1.5" d="M0,-3.0v7 M-2.5,-0.5L0,-3.0L2.5,-0.5"/>
  </g>
  <g id="arrowRight" transform="rotate(90) translate(36 -43)">
    <use xlink:href="#rim"/>
    <path pointer-events="none" fill="none" stroke="white" stroke-width="1.5" d="M0,-3.0v7 M-2.5,-0.5L0,-3.0L2.5,-0.5"/>
  </g>
  <g id="arrowDown" transform="rotate(180) translate(-30 -48)">
    <use xlink:href="#rim"/>
    <path pointer-events="none" fill="none" stroke="white" stroke-width="1.5" d="M0,-3.0v7 M-2.5,-0.5L0,-3.0L2.5,-0.5"/>
  </g>
  <g id="arrowLeft" transform="rotate(270) translate(-36 17)">
    <use xlink:href="#rim"/>
    <path pointer-events="none" fill="none" stroke="white" stroke-width="1.5" d="M0,-3.0v7 M-2.5,-0.5L0,-3.0L2.5,-0.5"/>
  </g>
  <g id="resetDef">
    <use xlink:href="#rim2" fill="#404040"><set attributeName="fill" to="#808080" begin="reset.mouseover" end="reset.mouseout"/></use>
  </g>
</defs>
<script type="application/ecmascript">
var viewWidth = 855;
var viewHeight = 159;
var sectionId = 'dynsection-1';
</script>
<script type="application/ecmascript" xlink:href="../../svg.min.js"/>
<svg id="graph" class="graph">
<g id="viewport">
<title>include/subtitles/ISubtitleParser.h</title>
<!-- Node1 -->
<g id="Node000001" class="node">
<title>Node1</title>
<g id="a_Node000001"><a xlink:title=" ">
<polygon fill="#999999" stroke="#666666" points="571.5,-151 431.5,-151 431.5,-121 571.5,-121 571.5,-151"/>
<text text-anchor="start" x="439.5" y="-139" font-family="Helvetica,sans-Serif" font-size="10.00">include/subtitles/ISubtitle</text>
<text text-anchor="middle" x="501.5" y="-128" font-family="Helvetica,sans-Serif" font-size="10.00">Parser.h</text>
</a>
</g>
</g>
<!-- Node2 -->
<g id="Node000002" class="node">
<title>Node2</title>
<g id="a_Node000002"><a xlink:href="../../d6/d4e/ASSParser_8h.html" target="_top" xlink:title=" ">
<polygon fill="white" stroke="#666666" points="323,-79.5 166,-79.5 166,-60.5 323,-60.5 323,-79.5"/>
<text text-anchor="middle" x="244.5" y="-67.5" font-family="Helvetica,sans-Serif" font-size="10.00">include/subtitles/ASSParser.h</text>
</a>
</g>
</g>
<!-- Node1&#45;&gt;Node2 -->
<g id="edge1_Node000001_Node000002" class="edge">
<title>Node1&#45;&gt;Node2</title>
<g id="a_edge1_Node000001_Node000002"><a xlink:title=" ">
<path fill="none" stroke="#63b8ff" d="M435.32,-118.52C385.26,-106.05 318.53,-89.44 278.7,-79.52"/>
<polygon fill="#63b8ff" stroke="#63b8ff" points="434.55,-121.93 445.1,-120.95 436.24,-115.14 434.55,-121.93"/>
</a>
</g>
</g>
<!-- Node5 -->
<g id="Node000005" class="node">
<title>Node5</title>
<g id="a_Node000005"><a xlink:href="../../d9/db7/SRTParser_8h.html" target="_top" xlink:title=" ">
<polygon fill="white" stroke="#666666" points="497.5,-79.5 341.5,-79.5 341.5,-60.5 497.5,-60.5 497.5,-79.5"/>
<text text-anchor="middle" x="419.5" y="-67.5" font-family="Helvetica,sans-Serif" font-size="10.00">include/subtitles/SRTParser.h</text>
</a>
</g>
</g>
<!-- Node1&#45;&gt;Node5 -->
<g id="edge4_Node000001_Node000005" class="edge">
<title>Node1&#45;&gt;Node5</title>
<g id="a_edge4_Node000001_Node000005"><a xlink:title=" ">
<path fill="none" stroke="#63b8ff" d="M475.34,-114.58C460.34,-102.87 442.27,-88.77 430.83,-79.84"/>
<polygon fill="#63b8ff" stroke="#63b8ff" points="473.26,-117.4 483.3,-120.8 477.57,-111.88 473.26,-117.4"/>
</a>
</g>
</g>
<!-- Node7 -->
<g id="Node000007" class="node">
<title>Node7</title>
<g id="a_Node000007"><a xlink:href="../../dc/da7/SubtitleManager_8h.html" target="_top" xlink:title=" ">
<polygon fill="white" stroke="#666666" points="653,-85 516,-85 516,-55 653,-55 653,-85"/>
<text text-anchor="start" x="524" y="-73" font-family="Helvetica,sans-Serif" font-size="10.00">include/subtitles/Subtitle</text>
<text text-anchor="middle" x="584.5" y="-62" font-family="Helvetica,sans-Serif" font-size="10.00">Manager.h</text>
</a>
</g>
</g>
<!-- Node1&#45;&gt;Node7 -->
<g id="edge7_Node000001_Node000007" class="edge">
<title>Node1&#45;&gt;Node7</title>
<g id="a_edge7_Node000001_Node000007"><a xlink:title=" ">
<path fill="none" stroke="#63b8ff" d="M528.11,-114.48C540.52,-104.91 554.97,-93.77 566.13,-85.16"/>
<polygon fill="#63b8ff" stroke="#63b8ff" points="525.7,-111.92 519.92,-120.8 529.98,-117.46 525.7,-111.92"/>
</a>
</g>
</g>
<!-- Node10 -->
<g id="Node000010" class="node">
<title>Node10</title>
<g id="a_Node000010"><a xlink:href="../../dc/d38/ISubtitleParser_8cpp.html" target="_top" xlink:title=" ">
<polygon fill="white" stroke="#666666" points="840,-79.5 671,-79.5 671,-60.5 840,-60.5 840,-79.5"/>
<text text-anchor="middle" x="755.5" y="-67.5" font-family="Helvetica,sans-Serif" font-size="10.00">src/subtitles/ISubtitleParser.cpp</text>
</a>
</g>
</g>
<!-- Node1&#45;&gt;Node10 -->
<g id="edge11_Node000001_Node000010" class="edge">
<title>Node1&#45;&gt;Node10</title>
<g id="a_edge11_Node000001_Node000010"><a xlink:title=" ">
<path fill="none" stroke="#63b8ff" d="M567.21,-118.44C616.66,-105.98 682.41,-89.42 721.7,-79.52"/>
<polygon fill="#63b8ff" stroke="#63b8ff" points="566.08,-115.12 557.24,-120.95 567.79,-121.91 566.08,-115.12"/>
</a>
</g>
</g>
<!-- Node3 -->
<g id="Node000003" class="node">
<title>Node3</title>
<g id="a_Node000003"><a xlink:href="../../de/d32/ASSParser_8cpp.html" target="_top" xlink:title=" ">
<polygon fill="white" stroke="#666666" points="147,-19 0,-19 0,0 147,0 147,-19"/>
<text text-anchor="middle" x="73.5" y="-7" font-family="Helvetica,sans-Serif" font-size="10.00">src/subtitles/ASSParser.cpp</text>
</a>
</g>
</g>
<!-- Node2&#45;&gt;Node3 -->
<g id="edge2_Node000002_Node000003" class="edge">
<title>Node2&#45;&gt;Node3</title>
<g id="a_edge2_Node000002_Node000003"><a xlink:title=" ">
<path fill="none" stroke="#63b8ff" d="M209.92,-57.17C176.85,-45.86 127.79,-29.07 98.39,-19.02"/>
<polygon fill="#63b8ff" stroke="#63b8ff" points="209.04,-60.57 219.64,-60.49 211.31,-53.95 209.04,-60.57"/>
</a>
</g>
</g>
<!-- Node4 -->
<g id="Node000004" class="node">
<title>Node4</title>
<g id="a_Node000004"><a xlink:href="../../db/d8c/SubtitleManager_8cpp.html" target="_top" xlink:title=" ">
<polygon fill="white" stroke="#666666" points="509,-19 330,-19 330,0 509,0 509,-19"/>
<text text-anchor="middle" x="419.5" y="-7" font-family="Helvetica,sans-Serif" font-size="10.00">src/subtitles/SubtitleManager.cpp</text>
</a>
</g>
</g>
<!-- Node2&#45;&gt;Node4 -->
<g id="edge3_Node000002_Node000004" class="edge">
<title>Node2&#45;&gt;Node4</title>
<g id="a_edge3_Node000002_Node000004"><a xlink:title=" ">
<path fill="none" stroke="#63b8ff" d="M279.45,-57.32C313.3,-46 363.81,-29.12 394.02,-19.02"/>
<polygon fill="#63b8ff" stroke="#63b8ff" points="278.32,-54 269.95,-60.49 280.54,-60.64 278.32,-54"/>
</a>
</g>
</g>
<!-- Node5&#45;&gt;Node4 -->
<g id="edge6_Node000005_Node000004" class="edge">
<title>Node5&#45;&gt;Node4</title>
<g id="a_edge6_Node000005_Node000004"><a xlink:title=" ">
<path fill="none" stroke="#63b8ff" d="M419.5,-50.16C419.5,-39.74 419.5,-27.3 419.5,-19.17"/>
<polygon fill="#63b8ff" stroke="#63b8ff" points="416,-50.37 419.5,-60.37 423,-50.37 416,-50.37"/>
</a>
</g>
</g>
<!-- Node6 -->
<g id="Node000006" class="node">
<title>Node6</title>
<g id="a_Node000006"><a xlink:href="../../da/d2d/SRTParser_8cpp.html" target="_top" xlink:title=" ">
<polygon fill="white" stroke="#666666" points="311.5,-19 165.5,-19 165.5,0 311.5,0 311.5,-19"/>
<text text-anchor="middle" x="238.5" y="-7" font-family="Helvetica,sans-Serif" font-size="10.00">src/subtitles/SRTParser.cpp</text>
</a>
</g>
</g>
<!-- Node5&#45;&gt;Node6 -->
<g id="edge5_Node000005_Node000006" class="edge">
<title>Node5&#45;&gt;Node6</title>
<g id="a_edge5_Node000005_Node000006"><a xlink:title=" ">
<path fill="none" stroke="#63b8ff" d="M383.35,-57.32C348.35,-46 296.1,-29.12 264.85,-19.02"/>
<polygon fill="#63b8ff" stroke="#63b8ff" points="382.59,-60.75 393.18,-60.49 384.74,-54.09 382.59,-60.75"/>
</a>
</g>
</g>
<!-- Node7&#45;&gt;Node4 -->
<g id="edge8_Node000007_Node000004" class="edge">
<title>Node7&#45;&gt;Node4</title>
<g id="a_edge8_Node000007_Node000004"><a xlink:title=" ">
<path fill="none" stroke="#63b8ff" d="M535.46,-51.61C505.27,-40.91 467.89,-27.65 443.87,-19.14"/>
<polygon fill="#63b8ff" stroke="#63b8ff" points="534.38,-54.94 544.98,-54.99 536.72,-48.35 534.38,-54.94"/>
</a>
</g>
</g>
<!-- Node8 -->
<g id="Node000008" class="node">
<title>Node8</title>
<g id="a_Node000008"><a xlink:href="../../de/def/SubtitleControlWidget_8cpp.html" target="_top" xlink:title=" ">
<polygon fill="white" stroke="#666666" points="847,-19 674,-19 674,0 847,0 847,-19"/>
<text text-anchor="middle" x="760.5" y="-7" font-family="Helvetica,sans-Serif" font-size="10.00">src/ui/SubtitleControlWidget.cpp</text>
</a>
</g>
</g>
<!-- Node7&#45;&gt;Node8 -->
<g id="edge9_Node000007_Node000008" class="edge">
<title>Node7&#45;&gt;Node8</title>
<g id="a_edge9_Node000007_Node000008"><a xlink:title=" ">
<path fill="none" stroke="#63b8ff" d="M636.43,-51.74C668.8,-40.98 709.05,-27.6 734.77,-19.05"/>
<polygon fill="#63b8ff" stroke="#63b8ff" points="635.04,-48.51 626.66,-54.99 637.25,-55.15 635.04,-48.51"/>
</a>
</g>
</g>
<!-- Node9 -->
<g id="Node000009" class="node">
<title>Node9</title>
<g id="a_Node000009"><a xlink:href="../../df/db1/VideoWidget_8cpp.html" target="_top" xlink:title=" ">
<polygon fill="white" stroke="#666666" points="655.5,-19 527.5,-19 527.5,0 655.5,0 655.5,-19"/>
<text text-anchor="middle" x="591.5" y="-7" font-family="Helvetica,sans-Serif" font-size="10.00">src/ui/VideoWidget.cpp</text>
</a>
</g>
</g>
<!-- Node7&#45;&gt;Node9 -->
<g id="edge10_Node000007_Node000009" class="edge">
<title>Node7&#45;&gt;Node9</title>
<g id="a_edge10_Node000007_Node000009"><a xlink:title=" ">
<path fill="none" stroke="#63b8ff" d="M587.4,-44.75C588.48,-35.72 589.64,-26.03 590.45,-19.27"/>
<polygon fill="#63b8ff" stroke="#63b8ff" points="583.91,-44.49 586.19,-54.84 590.86,-45.33 583.91,-44.49"/>
</a>
</g>
</g>
</g>
</svg>

<g id="navigator" transform="translate(0 0)" fill="#404254">
  <rect fill="#f2f5e9" fill-opacity="0.5" stroke="#606060" stroke-width=".5" x="0" y="0" width="60" height="60"/>
  <use id="zoomplus" xlink:href="#zoomPlus" x="17" y="9" onmousedown="handleZoom(evt,'in')"/>
  <use id="zoomminus" xlink:href="#zoomMin" x="42" y="9" onmousedown="handleZoom(evt,'out')"/>
  <use id="reset" xlink:href="#resetDef" x="30" y="36" onmousedown="handleReset()"/>
   <use id="arrowup" xlink:href="#arrowUp" x="0" y="0" onmousedown="handlePan(0,-1)"/>
  <use id="arrowright" xlink:href="#arrowRight" x="0" y="0" onmousedown="handlePan(1,0)"/>
  <use id="arrowdown" xlink:href="#arrowDown" x="0" y="0" onmousedown="handlePan(0,1)"/>
  <use id="arrowleft" xlink:href="#arrowLeft" x="0" y="0" onmousedown="handlePan(-1,0)"/>
</g>
<svg viewBox="0 0 15 15" width="100%" height="30px" preserveAspectRatio="xMaxYMin meet">
 <g id="arrow_out" transform="scale(0.3 0.3)">
  <a xlink:href="ISubtitleParser_8h__dep__incl_org.svg" target="_base">
   <rect id="button" ry="5" rx="5" y="6" x="6" height="38" width="38"
        fill="#f2f5e9" fill-opacity="0.5" stroke="#606060" stroke-width="1.0"/>
   <path id="arrow"
     d="M 11.500037,31.436501 C 11.940474,20.09759 22.043105,11.32322 32.158766,21.979434 L 37.068811,17.246167 C 37.068811,17.246167 37.088388,32 37.088388,32 L 22.160133,31.978069 C 22.160133,31.978069 26.997745,27.140456 26.997745,27.140456 C 18.528582,18.264221 13.291696,25.230495 11.500037,31.436501 z"
     style="fill:#404040;"/>
  </a>
 </g>
</svg>

<style type='text/css'>
<![CDATA[
[data-mouse-over-selected='false'] { opacity: 0.7; }
[data-mouse-over-selected='true']  { opacity: 1.0; }
]]>
</style>
<script type="application/ecmascript"><![CDATA[
document.addEventListener('DOMContentLoaded', (event) => {
  highlightEdges();
  highlightAdjacentNodes();
});
]]></script>
</svg>
