<?xml version="1.0" encoding="UTF-8" standalone="no"?>
<!DOCTYPE svg PUBLIC "-//W3C//DTD SVG 1.1//EN"
 "http://www.w3.org/Graphics/SVG/1.1/DTD/svg11.dtd">
<!-- Generated by graphviz version 2.43.0 (0)
 -->
<!-- Title: src/ui/MediaKeysManager.cpp Pages: 1 -->
<svg width="1017pt" height="137pt"
 viewBox="0.00 0.00 1016.50 137.00" xmlns="http://www.w3.org/2000/svg" xmlns:xlink="http://www.w3.org/1999/xlink">
<g id="graph0" class="graph" transform="scale(1 1) rotate(0) translate(4 133)">
<title>src/ui/MediaKeysManager.cpp</title>
<!-- Node1 -->
<g id="Node000001" class="node">
<title>Node1</title>
<g id="a_Node000001"><a xlink:title=" ">
<polygon fill="#999999" stroke="#666666" points="702,-129 541,-129 541,-110 702,-110 702,-129"/>
<text text-anchor="middle" x="621.5" y="-117" font-family="Helvetica,sans-Serif" font-size="10.00">src/ui/MediaKeysManager.cpp</text>
</a>
</g>
</g>
<!-- Node2 -->
<g id="Node000002" class="node">
<title>Node2</title>
<g id="a_Node000002"><a xlink:href="../../d0/d60/MediaKeysManager_8h.html" target="_top" xlink:title=" ">
<polygon fill="white" stroke="#666666" points="334,-74 201,-74 201,-55 334,-55 334,-74"/>
<text text-anchor="middle" x="267.5" y="-62" font-family="Helvetica,sans-Serif" font-size="10.00">ui/MediaKeysManager.h</text>
</a>
</g>
</g>
<!-- Node1&#45;&gt;Node2 -->
<g id="edge1_Node000001_Node000002" class="edge">
<title>Node1&#45;&gt;Node2</title>
<g id="a_edge1_Node000001_Node000002"><a xlink:title=" ">
<path fill="none" stroke="#63b8ff" d="M564.62,-109.98C501.88,-100.59 401.01,-85.49 334.49,-75.53"/>
<polygon fill="#63b8ff" stroke="#63b8ff" points="334.94,-72.06 324.53,-74.04 333.9,-78.98 334.94,-72.06"/>
</a>
</g>
</g>
<!-- Node7 -->
<g id="Node000007" class="node">
<title>Node7</title>
<g id="a_Node000007"><a xlink:href="../../d2/db0/IMediaEngine_8h.html" target="_top" xlink:title=" ">
<polygon fill="white" stroke="#666666" points="477,-74 352,-74 352,-55 477,-55 477,-74"/>
<text text-anchor="middle" x="414.5" y="-62" font-family="Helvetica,sans-Serif" font-size="10.00">media/IMediaEngine.h</text>
</a>
</g>
</g>
<!-- Node1&#45;&gt;Node7 -->
<g id="edge6_Node000001_Node000007" class="edge">
<title>Node1&#45;&gt;Node7</title>
<g id="a_edge6_Node000001_Node000007"><a xlink:title=" ">
<path fill="none" stroke="#63b8ff" d="M588.24,-109.98C552.89,-100.93 496.83,-86.58 457.99,-76.64"/>
<polygon fill="#63b8ff" stroke="#63b8ff" points="458.57,-73.17 448.02,-74.08 456.84,-79.95 458.57,-73.17"/>
</a>
</g>
</g>
<!-- Node10 -->
<g id="Node000010" class="node">
<title>Node10</title>
<g id="a_Node000010"><a xlink:title=" ">
<polygon fill="#e0e0e0" stroke="#999999" points="574,-74 495,-74 495,-55 574,-55 574,-74"/>
<text text-anchor="middle" x="534.5" y="-62" font-family="Helvetica,sans-Serif" font-size="10.00">QApplication</text>
</a>
</g>
</g>
<!-- Node1&#45;&gt;Node10 -->
<g id="edge10_Node000001_Node000010" class="edge">
<title>Node1&#45;&gt;Node10</title>
<g id="a_edge10_Node000001_Node000010"><a xlink:title=" ">
<path fill="none" stroke="#63b8ff" d="M607.52,-109.98C594.03,-101.77 573.37,-89.18 557.46,-79.49"/>
<polygon fill="#63b8ff" stroke="#63b8ff" points="559.09,-76.38 548.73,-74.17 555.45,-82.36 559.09,-76.38"/>
</a>
</g>
</g>
<!-- Node11 -->
<g id="Node000011" class="node">
<title>Node11</title>
<g id="a_Node000011"><a xlink:title=" ">
<polygon fill="#e0e0e0" stroke="#999999" points="651,-74 592,-74 592,-55 651,-55 651,-74"/>
<text text-anchor="middle" x="621.5" y="-62" font-family="Helvetica,sans-Serif" font-size="10.00">QWidget</text>
</a>
</g>
</g>
<!-- Node1&#45;&gt;Node11 -->
<g id="edge11_Node000001_Node000011" class="edge">
<title>Node1&#45;&gt;Node11</title>
<g id="a_edge11_Node000001_Node000011"><a xlink:title=" ">
<path fill="none" stroke="#63b8ff" d="M621.5,-109.75C621.5,-102.8 621.5,-92.85 621.5,-84.13"/>
<polygon fill="#63b8ff" stroke="#63b8ff" points="625,-84.09 621.5,-74.09 618,-84.09 625,-84.09"/>
</a>
</g>
</g>
<!-- Node12 -->
<g id="Node000012" class="node">
<title>Node12</title>
<g id="a_Node000012"><a xlink:title=" ">
<polygon fill="#e0e0e0" stroke="#999999" points="776,-74 669,-74 669,-55 776,-55 776,-74"/>
<text text-anchor="middle" x="722.5" y="-62" font-family="Helvetica,sans-Serif" font-size="10.00">QLoggingCategory</text>
</a>
</g>
</g>
<!-- Node1&#45;&gt;Node12 -->
<g id="edge12_Node000001_Node000012" class="edge">
<title>Node1&#45;&gt;Node12</title>
<g id="a_edge12_Node000001_Node000012"><a xlink:title=" ">
<path fill="none" stroke="#63b8ff" d="M637.73,-109.98C653.68,-101.61 678.28,-88.7 696.88,-78.95"/>
<polygon fill="#63b8ff" stroke="#63b8ff" points="698.75,-81.92 705.98,-74.17 695.5,-75.72 698.75,-81.92"/>
</a>
</g>
</g>
<!-- Node13 -->
<g id="Node000013" class="node">
<title>Node13</title>
<g id="a_Node000013"><a xlink:title=" ">
<polygon fill="#e0e0e0" stroke="#999999" points="854.5,-74 794.5,-74 794.5,-55 854.5,-55 854.5,-74"/>
<text text-anchor="middle" x="824.5" y="-62" font-family="Helvetica,sans-Serif" font-size="10.00">QFileInfo</text>
</a>
</g>
</g>
<!-- Node1&#45;&gt;Node13 -->
<g id="edge13_Node000001_Node000013" class="edge">
<title>Node1&#45;&gt;Node13</title>
<g id="a_edge13_Node000001_Node000013"><a xlink:title=" ">
<path fill="none" stroke="#63b8ff" d="M654.12,-109.98C689.61,-100.72 746.38,-85.89 784.53,-75.93"/>
<polygon fill="#63b8ff" stroke="#63b8ff" points="785.49,-79.3 794.29,-73.39 783.73,-72.53 785.49,-79.3"/>
</a>
</g>
</g>
<!-- Node14 -->
<g id="Node000014" class="node">
<title>Node14</title>
<g id="a_Node000014"><a xlink:title=" ">
<polygon fill="#e0e0e0" stroke="#999999" points="1008.5,-74 872.5,-74 872.5,-55 1008.5,-55 1008.5,-74"/>
<text text-anchor="middle" x="940.5" y="-62" font-family="Helvetica,sans-Serif" font-size="10.00">MediaKeysManager.moc</text>
</a>
</g>
</g>
<!-- Node1&#45;&gt;Node14 -->
<g id="edge14_Node000001_Node000014" class="edge">
<title>Node1&#45;&gt;Node14</title>
<g id="a_edge14_Node000001_Node000014"><a xlink:title=" ">
<path fill="none" stroke="#63b8ff" d="M672.75,-109.98C728.94,-100.65 819.07,-85.67 879.02,-75.71"/>
<polygon fill="#63b8ff" stroke="#63b8ff" points="879.82,-79.13 889.11,-74.04 878.67,-72.22 879.82,-79.13"/>
</a>
</g>
</g>
<!-- Node3 -->
<g id="Node000003" class="node">
<title>Node3</title>
<g id="a_Node000003"><a xlink:title=" ">
<polygon fill="#e0e0e0" stroke="#999999" points="370.5,-19 314.5,-19 314.5,0 370.5,0 370.5,-19"/>
<text text-anchor="middle" x="342.5" y="-7" font-family="Helvetica,sans-Serif" font-size="10.00">QObject</text>
</a>
</g>
</g>
<!-- Node2&#45;&gt;Node3 -->
<g id="edge2_Node000002_Node000003" class="edge">
<title>Node2&#45;&gt;Node3</title>
<g id="a_edge2_Node000002_Node000003"><a xlink:title=" ">
<path fill="none" stroke="#63b8ff" d="M279.55,-54.98C290.96,-46.92 308.33,-34.65 321.93,-25.03"/>
<polygon fill="#63b8ff" stroke="#63b8ff" points="324.08,-27.8 330.23,-19.17 320.04,-22.08 324.08,-27.8"/>
</a>
</g>
</g>
<!-- Node4 -->
<g id="Node000004" class="node">
<title>Node4</title>
<g id="a_Node000004"><a xlink:title=" ">
<polygon fill="#e0e0e0" stroke="#999999" points="149,-19 0,-19 0,0 149,0 149,-19"/>
<text text-anchor="middle" x="74.5" y="-7" font-family="Helvetica,sans-Serif" font-size="10.00">QAbstractNativeEventFilter</text>
</a>
</g>
</g>
<!-- Node2&#45;&gt;Node4 -->
<g id="edge3_Node000002_Node000004" class="edge">
<title>Node2&#45;&gt;Node4</title>
<g id="a_edge3_Node000002_Node000004"><a xlink:title=" ">
<path fill="none" stroke="#63b8ff" d="M236.49,-54.98C203.67,-45.97 151.7,-31.7 115.51,-21.76"/>
<polygon fill="#63b8ff" stroke="#63b8ff" points="116.32,-18.36 105.75,-19.08 114.47,-25.11 116.32,-18.36"/>
</a>
</g>
</g>
<!-- Node5 -->
<g id="Node000005" class="node">
<title>Node5</title>
<g id="a_Node000005"><a xlink:title=" ">
<polygon fill="#e0e0e0" stroke="#999999" points="220,-19 167,-19 167,0 220,0 220,-19"/>
<text text-anchor="middle" x="193.5" y="-7" font-family="Helvetica,sans-Serif" font-size="10.00">QTimer</text>
</a>
</g>
</g>
<!-- Node2&#45;&gt;Node5 -->
<g id="edge4_Node000002_Node000005" class="edge">
<title>Node2&#45;&gt;Node5</title>
<g id="a_edge4_Node000002_Node000005"><a xlink:title=" ">
<path fill="none" stroke="#63b8ff" d="M255.61,-54.98C244.35,-46.92 227.21,-34.65 213.79,-25.03"/>
<polygon fill="#63b8ff" stroke="#63b8ff" points="215.77,-22.15 205.61,-19.17 211.7,-27.84 215.77,-22.15"/>
</a>
</g>
</g>
<!-- Node6 -->
<g id="Node000006" class="node">
<title>Node6</title>
<g id="a_Node000006"><a xlink:title=" ">
<polygon fill="#e0e0e0" stroke="#999999" points="296.5,-19 238.5,-19 238.5,0 296.5,0 296.5,-19"/>
<text text-anchor="middle" x="267.5" y="-7" font-family="Helvetica,sans-Serif" font-size="10.00">memory</text>
</a>
</g>
</g>
<!-- Node2&#45;&gt;Node6 -->
<g id="edge5_Node000002_Node000006" class="edge">
<title>Node2&#45;&gt;Node6</title>
<g id="a_edge5_Node000002_Node000006"><a xlink:title=" ">
<path fill="none" stroke="#63b8ff" d="M267.5,-54.75C267.5,-47.8 267.5,-37.85 267.5,-29.13"/>
<polygon fill="#63b8ff" stroke="#63b8ff" points="271,-29.09 267.5,-19.09 264,-29.09 271,-29.09"/>
</a>
</g>
</g>
<!-- Node7&#45;&gt;Node3 -->
<g id="edge7_Node000007_Node000003" class="edge">
<title>Node7&#45;&gt;Node3</title>
<g id="a_edge7_Node000007_Node000003"><a xlink:title=" ">
<path fill="none" stroke="#63b8ff" d="M402.93,-54.98C392.08,-47 375.62,-34.88 362.62,-25.31"/>
<polygon fill="#63b8ff" stroke="#63b8ff" points="364.41,-22.28 354.28,-19.17 360.26,-27.92 364.41,-22.28"/>
</a>
</g>
</g>
<!-- Node8 -->
<g id="Node000008" class="node">
<title>Node8</title>
<g id="a_Node000008"><a xlink:title=" ">
<polygon fill="#e0e0e0" stroke="#999999" points="442,-19 389,-19 389,0 442,0 442,-19"/>
<text text-anchor="middle" x="415.5" y="-7" font-family="Helvetica,sans-Serif" font-size="10.00">QString</text>
</a>
</g>
</g>
<!-- Node7&#45;&gt;Node8 -->
<g id="edge8_Node000007_Node000008" class="edge">
<title>Node7&#45;&gt;Node8</title>
<g id="a_edge8_Node000007_Node000008"><a xlink:title=" ">
<path fill="none" stroke="#63b8ff" d="M414.67,-54.75C414.8,-47.8 414.98,-37.85 415.15,-29.13"/>
<polygon fill="#63b8ff" stroke="#63b8ff" points="418.65,-29.15 415.34,-19.09 411.65,-29.02 418.65,-29.15"/>
</a>
</g>
</g>
<!-- Node9 -->
<g id="Node000009" class="node">
<title>Node9</title>
<g id="a_Node000009"><a xlink:title=" ">
<polygon fill="#e0e0e0" stroke="#999999" points="498.5,-19 460.5,-19 460.5,0 498.5,0 498.5,-19"/>
<text text-anchor="middle" x="479.5" y="-7" font-family="Helvetica,sans-Serif" font-size="10.00">QUrl</text>
</a>
</g>
</g>
<!-- Node7&#45;&gt;Node9 -->
<g id="edge9_Node000007_Node000009" class="edge">
<title>Node7&#45;&gt;Node9</title>
<g id="a_edge9_Node000007_Node000009"><a xlink:title=" ">
<path fill="none" stroke="#63b8ff" d="M424.94,-54.98C434.65,-47.07 449.32,-35.11 461,-25.58"/>
<polygon fill="#63b8ff" stroke="#63b8ff" points="463.33,-28.2 468.87,-19.17 458.9,-22.78 463.33,-28.2"/>
</a>
</g>
</g>
</g>
</svg>
