<?xml version="1.0" encoding="UTF-8" standalone="no"?>
<!DOCTYPE svg PUBLIC "-//W3C//DTD SVG 1.1//EN"
 "http://www.w3.org/Graphics/SVG/1.1/DTD/svg11.dtd">
<!-- Generated by graphviz version 2.43.0 (0)
 -->
<!-- Title: BaseSubtitleParser::parseGenericTime Pages: 1 -->
<svg width="311pt" height="64pt"
 viewBox="0.00 0.00 311.00 64.00" xmlns="http://www.w3.org/2000/svg" xmlns:xlink="http://www.w3.org/1999/xlink">
<g id="graph0" class="graph" transform="scale(1 1) rotate(0) translate(4 60)">
<title>BaseSubtitleParser::parseGenericTime</title>
<!-- Node1 -->
<g id="Node000001" class="node">
<title>Node1</title>
<g id="a_Node000001"><a xlink:title="Parse common time formats.">
<polygon fill="#999999" stroke="#666666" points="112,-42.5 0,-42.5 0,-12.5 112,-12.5 112,-42.5"/>
<text text-anchor="start" x="8" y="-30.5" font-family="Helvetica,sans-Serif" font-size="10.00">BaseSubtitleParser</text>
<text text-anchor="middle" x="56" y="-19.5" font-family="Helvetica,sans-Serif" font-size="10.00">::parseGenericTime</text>
</a>
</g>
</g>
<!-- Node2 -->
<g id="Node000002" class="node">
<title>Node2</title>
<g id="a_Node000002"><a xlink:href="../../db/d1c/classSubtitleEntry.html#a9ed3365f628eba186081bae49f5c4cc7" target="_top" xlink:title="Parse time from SRT format to milliseconds.">
<polygon fill="white" stroke="#666666" points="294,-56 157,-56 157,-37 294,-37 294,-56"/>
<text text-anchor="middle" x="225.5" y="-44" font-family="Helvetica,sans-Serif" font-size="10.00">SubtitleEntry::parseTime</text>
</a>
</g>
</g>
<!-- Node1&#45;&gt;Node2 -->
<g id="edge1_Node000001_Node000002" class="edge">
<title>Node1&#45;&gt;Node2</title>
<g id="a_edge1_Node000001_Node000002"><a xlink:title=" ">
<path fill="none" stroke="#63b8ff" d="M112.31,-33.77C123.37,-35.03 135.17,-36.37 146.82,-37.69"/>
<polygon fill="#63b8ff" stroke="#63b8ff" points="146.66,-41.19 156.99,-38.84 147.45,-34.24 146.66,-41.19"/>
</a>
</g>
</g>
<!-- Node3 -->
<g id="Node000003" class="node">
<title>Node3</title>
<g id="a_Node000003"><a xlink:href="../../db/d1c/classSubtitleEntry.html#ae615b2c47318fb1ab161b542cce7078f" target="_top" xlink:title="Parse time from ASS format to milliseconds.">
<polygon fill="white" stroke="#666666" points="303,-19 148,-19 148,0 303,0 303,-19"/>
<text text-anchor="middle" x="225.5" y="-7" font-family="Helvetica,sans-Serif" font-size="10.00">SubtitleEntry::parseTimeASS</text>
</a>
</g>
</g>
<!-- Node1&#45;&gt;Node3 -->
<g id="edge2_Node000001_Node000003" class="edge">
<title>Node1&#45;&gt;Node3</title>
<g id="a_edge2_Node000001_Node000003"><a xlink:title=" ">
<path fill="none" stroke="#63b8ff" d="M112.31,-21.56C120.46,-20.68 129.02,-19.76 137.62,-18.84"/>
<polygon fill="#63b8ff" stroke="#63b8ff" points="138.15,-22.3 147.72,-17.75 137.4,-15.34 138.15,-22.3"/>
</a>
</g>
</g>
</g>
</svg>
