<?xml version="1.0" encoding="UTF-8" standalone="no"?>
<!DOCTYPE svg PUBLIC "-//W3C//DTD SVG 1.1//EN"
 "http://www.w3.org/Graphics/SVG/1.1/DTD/svg11.dtd">
<!-- Generated by graphviz version 2.43.0 (0)
 -->
<!-- Title: BaseSubtitleParser::validateFile Pages: 1 -->
<svg width="268pt" height="138pt"
 viewBox="0.00 0.00 268.00 138.00" xmlns="http://www.w3.org/2000/svg" xmlns:xlink="http://www.w3.org/1999/xlink">
<g id="graph0" class="graph" transform="scale(1 1) rotate(0) translate(4 134)">
<title>BaseSubtitleParser::validateFile</title>
<!-- Node1 -->
<g id="Node000001" class="node">
<title>Node1</title>
<g id="a_Node000001"><a xlink:title="Validate subtitle file for security issues.">
<polygon fill="#999999" stroke="#666666" points="260,-79.5 152,-79.5 152,-49.5 260,-49.5 260,-79.5"/>
<text text-anchor="start" x="160" y="-67.5" font-family="Helvetica,sans-Serif" font-size="10.00">BaseSubtitleParser</text>
<text text-anchor="middle" x="206" y="-56.5" font-family="Helvetica,sans-Serif" font-size="10.00">::validateFile</text>
</a>
</g>
</g>
<!-- Node2 -->
<g id="Node000002" class="node">
<title>Node2</title>
<g id="a_Node000002"><a xlink:href="../../db/dc3/classASSParser.html#a94ca6cfb172b266fe73f14fdc9690489" target="_top" xlink:title="Check if parser can handle the given file.">
<polygon fill="white" stroke="#666666" points="115.5,-130 0.5,-130 0.5,-111 115.5,-111 115.5,-130"/>
<text text-anchor="middle" x="58" y="-118" font-family="Helvetica,sans-Serif" font-size="10.00">ASSParser::canParse</text>
</a>
</g>
</g>
<!-- Node1&#45;&gt;Node2 -->
<g id="edge1_Node000001_Node000002" class="edge">
<title>Node1&#45;&gt;Node2</title>
<g id="a_edge1_Node000001_Node000002"><a xlink:title=" ">
<path fill="none" stroke="#63b8ff" d="M162.61,-83.6C147.97,-89.93 131.38,-96.8 116,-102.5 108.02,-105.46 99.3,-108.36 91.14,-110.95"/>
<polygon fill="#63b8ff" stroke="#63b8ff" points="164.16,-86.74 171.92,-79.53 161.36,-80.33 164.16,-86.74"/>
</a>
</g>
</g>
<!-- Node3 -->
<g id="Node000003" class="node">
<title>Node3</title>
<g id="a_Node000003"><a xlink:href="../../dc/db9/classSRTParser.html#a4c218e0ebb82084001a469a05e27f20e" target="_top" xlink:title="Check if parser can handle the given file.">
<polygon fill="white" stroke="#666666" points="115,-93 1,-93 1,-74 115,-74 115,-93"/>
<text text-anchor="middle" x="58" y="-81" font-family="Helvetica,sans-Serif" font-size="10.00">SRTParser::canParse</text>
</a>
</g>
</g>
<!-- Node1&#45;&gt;Node3 -->
<g id="edge2_Node000001_Node000003" class="edge">
<title>Node1&#45;&gt;Node3</title>
<g id="a_edge2_Node000001_Node000003"><a xlink:title=" ">
<path fill="none" stroke="#63b8ff" d="M141.68,-72.74C132.9,-73.88 123.92,-75.05 115.28,-76.18"/>
<polygon fill="#63b8ff" stroke="#63b8ff" points="142.41,-76.17 151.88,-71.41 141.51,-69.23 142.41,-76.17"/>
</a>
</g>
</g>
<!-- Node4 -->
<g id="Node000004" class="node">
<title>Node4</title>
<g id="a_Node000004"><a xlink:href="../../db/dc3/classASSParser.html#ab8109b9fd9345830b366a40a0c386945" target="_top" xlink:title="Parse subtitle file and return subtitle track.">
<polygon fill="white" stroke="#666666" points="116,-56 0,-56 0,-37 116,-37 116,-56"/>
<text text-anchor="middle" x="58" y="-44" font-family="Helvetica,sans-Serif" font-size="10.00">ASSParser::parseFile</text>
</a>
</g>
</g>
<!-- Node1&#45;&gt;Node4 -->
<g id="edge3_Node000001_Node000004" class="edge">
<title>Node1&#45;&gt;Node4</title>
<g id="a_edge3_Node000001_Node000004"><a xlink:title=" ">
<path fill="none" stroke="#63b8ff" d="M141.69,-56.69C133.24,-55.65 124.61,-54.59 116.27,-53.56"/>
<polygon fill="#63b8ff" stroke="#63b8ff" points="141.52,-60.2 151.88,-57.95 142.38,-53.25 141.52,-60.2"/>
</a>
</g>
</g>
<!-- Node5 -->
<g id="Node000005" class="node">
<title>Node5</title>
<g id="a_Node000005"><a xlink:href="../../dc/db9/classSRTParser.html#aeef7c45b58862be36745cd1f39abe5a5" target="_top" xlink:title="Parse subtitle file and return subtitle track.">
<polygon fill="white" stroke="#666666" points="115.5,-19 0.5,-19 0.5,0 115.5,0 115.5,-19"/>
<text text-anchor="middle" x="58" y="-7" font-family="Helvetica,sans-Serif" font-size="10.00">SRTParser::parseFile</text>
</a>
</g>
</g>
<!-- Node1&#45;&gt;Node5 -->
<g id="edge4_Node000001_Node000005" class="edge">
<title>Node1&#45;&gt;Node5</title>
<g id="a_edge4_Node000001_Node000005"><a xlink:title=" ">
<path fill="none" stroke="#63b8ff" d="M159.85,-45.6C145.87,-39.92 130.36,-33.79 116,-28.5 107.19,-25.25 97.53,-21.94 88.71,-19.01"/>
<polygon fill="#63b8ff" stroke="#63b8ff" points="158.68,-48.9 169.26,-49.45 161.33,-42.42 158.68,-48.9"/>
</a>
</g>
</g>
</g>
</svg>
