<?xml version="1.0" encoding="UTF-8" standalone="no"?>
<!DOCTYPE svg PUBLIC "-//W3C//DTD SVG 1.1//EN"
 "http://www.w3.org/Graphics/SVG/1.1/DTD/svg11.dtd">
<!-- Generated by graphviz version 2.43.0 (0)
 -->
<!-- Title: PlaybackController Pages: 1 -->
<svg width="190pt" height="367pt"
 viewBox="0.00 0.00 189.50 367.00" xmlns="http://www.w3.org/2000/svg" xmlns:xlink="http://www.w3.org/1999/xlink">

<svg id="main" version="1.1" xmlns="http://www.w3.org/2000/svg" xmlns:xlink="http://www.w3.org/1999/xlink" xml:space="preserve" onload="init(evt)">
<style type="text/css"><![CDATA[
.node, .edge {opacity: 0.7;}
.node.selected, .edge.selected {opacity: 1;}
.edge:hover path { stroke: red; }
.edge:hover polygon { stroke: red; fill: red; }
]]></style>
<script type="application/ecmascript" xlink:href="../../svg.min.js"/>
<svg id="graph" class="graph">
<g id="graph0" class="graph" transform="scale(1 1) rotate(0) translate(4 363)">
<title>PlaybackController</title>
<!-- Node1 -->
<g id="Node000001" class="node">
<title>Node1</title>
<g id="a_Node000001"><a xlink:title="EonPlay core playback controller that manages media playback operations.">
<polygon fill="#999999" stroke="transparent" points="140,-214 10,-214 10,0 140,0 140,-214"/>
<text text-anchor="start" x="28.5" y="-202" font-family="Helvetica,sans-Serif" font-size="10.00">PlaybackController</text>
<text text-anchor="start" x="73" y="-187" font-family="Helvetica,sans-Serif" font-size="10.00"> </text>
<text text-anchor="start" x="14" y="-172" font-family="Helvetica,sans-Serif" font-size="10.00">+</text>
<text text-anchor="start" x="27" y="-172" font-family="Helvetica,sans-Serif" font-size="10.00">PlaybackController()</text>
<text text-anchor="start" x="14" y="-157" font-family="Helvetica,sans-Serif" font-size="10.00">+</text>
<text text-anchor="start" x="27" y="-157" font-family="Helvetica,sans-Serif" font-size="10.00">~PlaybackController()</text>
<text text-anchor="start" x="14" y="-142" font-family="Helvetica,sans-Serif" font-size="10.00">+</text>
<text text-anchor="start" x="27" y="-142" font-family="Helvetica,sans-Serif" font-size="10.00">initialize()</text>
<text text-anchor="start" x="14" y="-127" font-family="Helvetica,sans-Serif" font-size="10.00">+</text>
<text text-anchor="start" x="27" y="-127" font-family="Helvetica,sans-Serif" font-size="10.00">shutdown()</text>
<text text-anchor="start" x="14" y="-112" font-family="Helvetica,sans-Serif" font-size="10.00">+</text>
<text text-anchor="start" x="27" y="-112" font-family="Helvetica,sans-Serif" font-size="10.00">componentName()</text>
<text text-anchor="start" x="14" y="-97" font-family="Helvetica,sans-Serif" font-size="10.00">+</text>
<text text-anchor="start" x="27" y="-97" font-family="Helvetica,sans-Serif" font-size="10.00">isInitialized()</text>
<text text-anchor="start" x="14" y="-82" font-family="Helvetica,sans-Serif" font-size="10.00">+</text>
<text text-anchor="start" x="27" y="-82" font-family="Helvetica,sans-Serif" font-size="10.00">setMediaEngine()</text>
<text text-anchor="start" x="14" y="-67" font-family="Helvetica,sans-Serif" font-size="10.00">+</text>
<text text-anchor="start" x="27" y="-67" font-family="Helvetica,sans-Serif" font-size="10.00">mediaEngine()</text>
<text text-anchor="start" x="14" y="-52" font-family="Helvetica,sans-Serif" font-size="10.00">+</text>
<text text-anchor="start" x="27" y="-52" font-family="Helvetica,sans-Serif" font-size="10.00">play()</text>
<text text-anchor="start" x="14" y="-37" font-family="Helvetica,sans-Serif" font-size="10.00">+</text>
<text text-anchor="start" x="27" y="-37" font-family="Helvetica,sans-Serif" font-size="10.00">pause()</text>
<text text-anchor="start" x="27" y="-22" font-family="Helvetica,sans-Serif" font-size="10.00">and 41 more...</text>
<text text-anchor="start" x="14" y="-7" font-family="Helvetica,sans-Serif" font-size="10.00">+</text>
<text text-anchor="start" x="27" y="-7" font-family="Helvetica,sans-Serif" font-size="10.00">loadMedia()</text>
<polygon fill="#666666" stroke="#666666" points="10,-197 10,-197 140,-197 140,-197 10,-197"/>
<polygon fill="#666666" stroke="#666666" points="10,-182 10,-182 140,-182 140,-182 10,-182"/>
<polygon fill="none" stroke="#666666" points="10,0 10,-214 140,-214 140,0 10,0"/>
</a>
</g>
</g>
<!-- Node2 -->
<g id="Node000002" class="node">
<title>Node2</title>
<g id="a_Node000002"><a xlink:title=" ">
<polygon fill="white" stroke="transparent" points="50,-329 0,-329 0,-280 50,-280 50,-329"/>
<text text-anchor="start" x="5" y="-316.5" font-family="Helvetica,sans-Serif" font-size="10.00">QObject</text>
<text text-anchor="start" x="23" y="-301.5" font-family="Helvetica,sans-Serif" font-size="10.00"> </text>
<text text-anchor="start" x="23" y="-286.5" font-family="Helvetica,sans-Serif" font-size="10.00"> </text>
<polygon fill="#666666" stroke="#666666" points="0,-311.5 0,-311.5 50,-311.5 50,-311.5 0,-311.5"/>
<polygon fill="#666666" stroke="#666666" points="0,-296.5 0,-296.5 50,-296.5 50,-296.5 0,-296.5"/>
<polygon fill="none" stroke="#666666" points="0,-280 0,-329 50,-329 50,-280 0,-280"/>
</a>
</g>
</g>
<!-- Node2&#45;&gt;Node1 -->
<g id="edge1_Node000001_Node000002" class="edge">
<title>Node2&#45;&gt;Node1</title>
<g id="a_edge1_Node000001_Node000002"><a xlink:title=" ">
<path fill="none" stroke="#63b8ff" d="M33.52,-270.18C37.55,-254.41 42.62,-234.62 47.81,-214.32"/>
<polygon fill="none" stroke="#63b8ff" points="30.12,-269.36 31.03,-279.92 36.9,-271.1 30.12,-269.36"/>
</a>
</g>
</g>
<!-- Node3 -->
<g id="Node000003" class="node">
<title>Node3</title>
<g id="a_Node000003"><a xlink:href="../../d5/d3d/classIComponent.html" target="_top" xlink:title="Interface for modular application components.">
<polygon fill="white" stroke="transparent" points="181.5,-359 68.5,-359 68.5,-250 181.5,-250 181.5,-359"/>
<text text-anchor="start" x="95.5" y="-346.5" font-family="Helvetica,sans-Serif" font-size="10.00">IComponent</text>
<text text-anchor="start" x="123.5" y="-331.5" font-family="Helvetica,sans-Serif" font-size="10.00"> </text>
<text text-anchor="start" x="73" y="-316.5" font-family="Helvetica,sans-Serif" font-size="10.00">+</text>
<text text-anchor="start" x="86" y="-316.5" font-family="Helvetica,sans-Serif" font-size="10.00">~IComponent()</text>
<text text-anchor="start" x="73" y="-301.5" font-family="Helvetica,sans-Serif" font-size="10.00">+</text>
<text text-anchor="start" x="86" y="-301.5" font-family="Helvetica,sans-Serif" font-size="10.00">initialize()</text>
<text text-anchor="start" x="73" y="-286.5" font-family="Helvetica,sans-Serif" font-size="10.00">+</text>
<text text-anchor="start" x="86" y="-286.5" font-family="Helvetica,sans-Serif" font-size="10.00">shutdown()</text>
<text text-anchor="start" x="73" y="-271.5" font-family="Helvetica,sans-Serif" font-size="10.00">+</text>
<text text-anchor="start" x="86" y="-271.5" font-family="Helvetica,sans-Serif" font-size="10.00">componentName()</text>
<text text-anchor="start" x="73" y="-256.5" font-family="Helvetica,sans-Serif" font-size="10.00">+</text>
<text text-anchor="start" x="86" y="-256.5" font-family="Helvetica,sans-Serif" font-size="10.00">isInitialized()</text>
<polygon fill="#666666" stroke="#666666" points="69,-341.5 69,-341.5 182,-341.5 182,-341.5 69,-341.5"/>
<polygon fill="#666666" stroke="#666666" points="69,-326.5 69,-326.5 182,-326.5 182,-326.5 69,-326.5"/>
<polygon fill="none" stroke="#666666" points="68.5,-250 68.5,-359 181.5,-359 181.5,-250 68.5,-250"/>
</a>
</g>
</g>
<!-- Node3&#45;&gt;Node1 -->
<g id="edge2_Node000001_Node000003" class="edge">
<title>Node3&#45;&gt;Node1</title>
<g id="a_edge2_Node000001_Node000003"><a xlink:title=" ">
<path fill="none" stroke="#63b8ff" d="M108.73,-239.89C106.61,-231.58 104.39,-222.9 102.14,-214.12"/>
<polygon fill="none" stroke="#63b8ff" points="105.4,-241 111.27,-249.82 112.18,-239.26 105.4,-241"/>
</a>
</g>
</g>
</g>
</svg>
</svg>

<style type='text/css'>
<![CDATA[
[data-mouse-over-selected='false'] { opacity: 0.7; }
[data-mouse-over-selected='true']  { opacity: 1.0; }
]]>
</style>
<script type="application/ecmascript"><![CDATA[
document.addEventListener('DOMContentLoaded', (event) => {
  highlightEdges();
  highlightAdjacentNodes();
});
]]></script>
</svg>
