<?xml version="1.0" encoding="UTF-8" standalone="no"?>
<!DOCTYPE svg PUBLIC "-//W3C//DTD SVG 1.1//EN"
 "http://www.w3.org/Graphics/SVG/1.1/DTD/svg11.dtd">
<!-- Generated by graphviz version 2.43.0 (0)
 -->
<!-- Title: EonPlay::Data::LibraryManager::operationFailed Pages: 1 -->
<svg width="378pt" height="182pt"
 viewBox="0.00 0.00 378.00 182.00" xmlns="http://www.w3.org/2000/svg" xmlns:xlink="http://www.w3.org/1999/xlink">

<svg id="main" version="1.1" xmlns="http://www.w3.org/2000/svg" xmlns:xlink="http://www.w3.org/1999/xlink" xml:space="preserve" onload="init(evt)">
<style type="text/css"><![CDATA[
.node, .edge {opacity: 0.7;}
.node.selected, .edge.selected {opacity: 1;}
.edge:hover path { stroke: red; }
.edge:hover polygon { stroke: red; fill: red; }
]]></style>
<script type="application/ecmascript" xlink:href="../../svg.min.js"/>
<svg id="graph" class="graph">
<g id="graph0" class="graph" transform="scale(1 1) rotate(0) translate(4 178)">
<title>EonPlay::Data::LibraryManager::operationFailed</title>
<!-- Node1 -->
<g id="Node000001" class="node">
<title>Node1</title>
<g id="a_Node000001"><a xlink:title=" ">
<polygon fill="#999999" stroke="#666666" points="370,-102 203,-102 203,-72 370,-72 370,-102"/>
<text text-anchor="start" x="211" y="-90" font-family="Helvetica,sans-Serif" font-size="10.00">EonPlay::Data::LibraryManager</text>
<text text-anchor="middle" x="286.5" y="-79" font-family="Helvetica,sans-Serif" font-size="10.00">::operationFailed</text>
</a>
</g>
</g>
<!-- Node2 -->
<g id="Node000002" class="node">
<title>Node2</title>
<g id="a_Node000002"><a xlink:href="../../d9/d0d/classEonPlay_1_1Data_1_1LibraryManager.html#abc5467b752ec4965164527aff295d6f6" target="_top" xlink:title=" ">
<polygon fill="white" stroke="#666666" points="167,-174 0,-174 0,-144 167,-144 167,-174"/>
<text text-anchor="start" x="8" y="-162" font-family="Helvetica,sans-Serif" font-size="10.00">EonPlay::Data::LibraryManager</text>
<text text-anchor="middle" x="83.5" y="-151" font-family="Helvetica,sans-Serif" font-size="10.00">::cleanupLibrary</text>
</a>
</g>
</g>
<!-- Node1&#45;&gt;Node2 -->
<g id="edge1_Node000001_Node000002" class="edge">
<title>Node1&#45;&gt;Node2</title>
<g id="a_edge1_Node000001_Node000002"><a xlink:title=" ">
<path fill="none" stroke="#63b8ff" d="M241.64,-106.01C219.47,-115.3 192.03,-126.32 167,-135 158.12,-138.08 148.62,-141.1 139.33,-143.9"/>
<polygon fill="#63b8ff" stroke="#63b8ff" points="243.26,-109.12 251.11,-102.01 240.54,-102.68 243.26,-109.12"/>
</a>
</g>
</g>
<!-- Node3 -->
<g id="Node000003" class="node">
<title>Node3</title>
<g id="a_Node000003"><a xlink:href="../../d9/d0d/classEonPlay_1_1Data_1_1LibraryManager.html#aa90ac324c59925f6e5b7ff2108a7d817" target="_top" xlink:title=" ">
<polygon fill="white" stroke="#666666" points="167,-126 0,-126 0,-96 167,-96 167,-126"/>
<text text-anchor="start" x="8" y="-114" font-family="Helvetica,sans-Serif" font-size="10.00">EonPlay::Data::LibraryManager</text>
<text text-anchor="middle" x="83.5" y="-103" font-family="Helvetica,sans-Serif" font-size="10.00">::initialize</text>
</a>
</g>
</g>
<!-- Node1&#45;&gt;Node3 -->
<g id="edge2_Node000001_Node000003" class="edge">
<title>Node1&#45;&gt;Node3</title>
<g id="a_edge2_Node000001_Node000003"><a xlink:title=" ">
<path fill="none" stroke="#63b8ff" d="M192.85,-98.06C184.27,-99.09 175.61,-100.12 167.13,-101.13"/>
<polygon fill="#63b8ff" stroke="#63b8ff" points="193.36,-101.53 202.88,-96.87 192.53,-94.58 193.36,-101.53"/>
</a>
</g>
</g>
<!-- Node4 -->
<g id="Node000004" class="node">
<title>Node4</title>
<g id="a_Node000004"><a xlink:href="../../d9/d0d/classEonPlay_1_1Data_1_1LibraryManager.html#ab564c7413e0c74c6c61b2b6691365b91" target="_top" xlink:title=" ">
<polygon fill="white" stroke="#666666" points="167,-78 0,-78 0,-48 167,-48 167,-78"/>
<text text-anchor="start" x="8" y="-66" font-family="Helvetica,sans-Serif" font-size="10.00">EonPlay::Data::LibraryManager</text>
<text text-anchor="middle" x="83.5" y="-55" font-family="Helvetica,sans-Serif" font-size="10.00">::optimizeLibrary</text>
</a>
</g>
</g>
<!-- Node1&#45;&gt;Node4 -->
<g id="edge3_Node000001_Node000004" class="edge">
<title>Node1&#45;&gt;Node4</title>
<g id="a_edge3_Node000001_Node000004"><a xlink:title=" ">
<path fill="none" stroke="#63b8ff" d="M192.85,-75.94C184.27,-74.91 175.61,-73.88 167.13,-72.87"/>
<polygon fill="#63b8ff" stroke="#63b8ff" points="192.53,-79.42 202.88,-77.13 193.36,-72.47 192.53,-79.42"/>
</a>
</g>
</g>
<!-- Node5 -->
<g id="Node000005" class="node">
<title>Node5</title>
<g id="a_Node000005"><a xlink:href="../../d9/d0d/classEonPlay_1_1Data_1_1LibraryManager.html#a9ca6c080e01e7d46a8b460dcd2f5a47b" target="_top" xlink:title=" ">
<polygon fill="white" stroke="#666666" points="167,-30 0,-30 0,0 167,0 167,-30"/>
<text text-anchor="start" x="8" y="-18" font-family="Helvetica,sans-Serif" font-size="10.00">EonPlay::Data::LibraryManager</text>
<text text-anchor="middle" x="83.5" y="-7" font-family="Helvetica,sans-Serif" font-size="10.00">::rebuildLibrary</text>
</a>
</g>
</g>
<!-- Node1&#45;&gt;Node5 -->
<g id="edge4_Node000001_Node000005" class="edge">
<title>Node1&#45;&gt;Node5</title>
<g id="a_edge4_Node000001_Node000005"><a xlink:title=" ">
<path fill="none" stroke="#63b8ff" d="M241.64,-67.99C219.47,-58.7 192.03,-47.68 167,-39 158.12,-35.92 148.62,-32.9 139.33,-30.1"/>
<polygon fill="#63b8ff" stroke="#63b8ff" points="240.54,-71.32 251.11,-71.99 243.26,-64.88 240.54,-71.32"/>
</a>
</g>
</g>
</g>
</svg>
</svg>

<style type='text/css'>
<![CDATA[
[data-mouse-over-selected='false'] { opacity: 0.7; }
[data-mouse-over-selected='true']  { opacity: 1.0; }
]]>
</style>
<script type="application/ecmascript"><![CDATA[
document.addEventListener('DOMContentLoaded', (event) => {
  highlightEdges();
  highlightAdjacentNodes();
});
]]></script>
</svg>
