<?xml version="1.0" encoding="UTF-8" standalone="no"?>
<!DOCTYPE svg PUBLIC "-//W3C//DTD SVG 1.1//EN"
 "http://www.w3.org/Graphics/SVG/1.1/DTD/svg11.dtd">
<!-- Generated by graphviz version 2.43.0 (0)
 -->
<!-- Title: EonPlay::Data::LibraryManager::getMostPlayedFiles Pages: 1 -->
<svg width="536pt" height="374pt"
 viewBox="0.00 0.00 536.00 374.00" xmlns="http://www.w3.org/2000/svg" xmlns:xlink="http://www.w3.org/1999/xlink">
<g id="graph0" class="graph" transform="scale(1 1) rotate(0) translate(4 370)">
<title>EonPlay::Data::LibraryManager::getMostPlayedFiles</title>
<!-- Node1 -->
<g id="Node000001" class="node">
<title>Node1</title>
<g id="a_Node000001"><a xlink:title=" ">
<polygon fill="#999999" stroke="#666666" points="167,-198 0,-198 0,-168 167,-168 167,-198"/>
<text text-anchor="start" x="8" y="-186" font-family="Helvetica,sans-Serif" font-size="10.00">EonPlay::Data::LibraryManager</text>
<text text-anchor="middle" x="83.5" y="-175" font-family="Helvetica,sans-Serif" font-size="10.00">::getMostPlayedFiles</text>
</a>
</g>
</g>
<!-- Node2 -->
<g id="Node000002" class="node">
<title>Node2</title>
<g id="a_Node000002"><a xlink:href="../../de/dc7/classEonPlay_1_1Data_1_1MediaFile.html#ac7b77dd4fd9235f729fe3000cf280e01" target="_top" xlink:title=" ">
<polygon fill="white" stroke="#666666" points="340,-366 203,-366 203,-336 340,-336 340,-366"/>
<text text-anchor="start" x="211" y="-354" font-family="Helvetica,sans-Serif" font-size="10.00">EonPlay::Data::MediaFile</text>
<text text-anchor="middle" x="271.5" y="-343" font-family="Helvetica,sans-Serif" font-size="10.00">::setAlbum</text>
</a>
</g>
</g>
<!-- Node1&#45;&gt;Node2 -->
<g id="edge1_Node000001_Node000002" class="edge">
<title>Node1&#45;&gt;Node2</title>
<g id="a_edge1_Node000001_Node000002"><a xlink:title=" ">
<path fill="none" stroke="#63b8ff" d="M93.2,-198.35C110.47,-227.49 151.85,-291.1 203,-327 205.09,-328.47 207.29,-329.86 209.55,-331.17"/>
<polygon fill="#63b8ff" stroke="#63b8ff" points="208.07,-334.34 218.56,-335.84 211.29,-328.13 208.07,-334.34"/>
</a>
</g>
</g>
<!-- Node4 -->
<g id="Node000004" class="node">
<title>Node4</title>
<g id="a_Node000004"><a xlink:href="../../de/dc7/classEonPlay_1_1Data_1_1MediaFile.html#ad9940de5c551727f95a98ed16caad932" target="_top" xlink:title=" ">
<polygon fill="white" stroke="#666666" points="340,-318 203,-318 203,-288 340,-288 340,-318"/>
<text text-anchor="start" x="211" y="-306" font-family="Helvetica,sans-Serif" font-size="10.00">EonPlay::Data::MediaFile</text>
<text text-anchor="middle" x="271.5" y="-295" font-family="Helvetica,sans-Serif" font-size="10.00">::setArtist</text>
</a>
</g>
</g>
<!-- Node1&#45;&gt;Node4 -->
<g id="edge3_Node000001_Node000004" class="edge">
<title>Node1&#45;&gt;Node4</title>
<g id="a_edge3_Node000001_Node000004"><a xlink:title=" ">
<path fill="none" stroke="#63b8ff" d="M99.71,-198.23C121.13,-218.96 162.13,-256.07 203,-279 206.02,-280.69 209.18,-282.3 212.42,-283.83"/>
<polygon fill="#63b8ff" stroke="#63b8ff" points="211.12,-287.08 221.68,-287.89 213.93,-280.67 211.12,-287.08"/>
</a>
</g>
</g>
<!-- Node6 -->
<g id="Node000006" class="node">
<title>Node6</title>
<g id="a_Node000006"><a xlink:href="../../de/dc7/classEonPlay_1_1Data_1_1MediaFile.html#a8e21eb7ca2b0ea4dbc709f3e0f1b5740" target="_top" xlink:title=" ">
<polygon fill="white" stroke="#666666" points="340,-270 203,-270 203,-240 340,-240 340,-270"/>
<text text-anchor="start" x="211" y="-258" font-family="Helvetica,sans-Serif" font-size="10.00">EonPlay::Data::MediaFile</text>
<text text-anchor="middle" x="271.5" y="-247" font-family="Helvetica,sans-Serif" font-size="10.00">::setDuration</text>
</a>
</g>
</g>
<!-- Node1&#45;&gt;Node6 -->
<g id="edge5_Node000001_Node000006" class="edge">
<title>Node1&#45;&gt;Node6</title>
<g id="a_edge5_Node000001_Node000006"><a xlink:title=" ">
<path fill="none" stroke="#63b8ff" d="M120.38,-198.01C143.8,-207.68 175.09,-220.39 203,-231 207.75,-232.8 212.7,-234.64 217.66,-236.46"/>
<polygon fill="#63b8ff" stroke="#63b8ff" points="216.59,-239.8 227.19,-239.91 218.98,-233.21 216.59,-239.8"/>
</a>
</g>
</g>
<!-- Node8 -->
<g id="Node000008" class="node">
<title>Node8</title>
<g id="a_Node000008"><a xlink:href="../../de/dc7/classEonPlay_1_1Data_1_1MediaFile.html#a2803406d0a659719a22162057febdc28" target="_top" xlink:title=" ">
<polygon fill="white" stroke="#666666" points="340,-222 203,-222 203,-192 340,-192 340,-222"/>
<text text-anchor="start" x="211" y="-210" font-family="Helvetica,sans-Serif" font-size="10.00">EonPlay::Data::MediaFile</text>
<text text-anchor="middle" x="271.5" y="-199" font-family="Helvetica,sans-Serif" font-size="10.00">::setFilePath</text>
</a>
</g>
</g>
<!-- Node1&#45;&gt;Node8 -->
<g id="edge7_Node000001_Node000008" class="edge">
<title>Node1&#45;&gt;Node8</title>
<g id="a_edge7_Node000001_Node000008"><a xlink:title=" ">
<path fill="none" stroke="#63b8ff" d="M167.17,-193.67C175.65,-194.76 184.25,-195.87 192.68,-196.96"/>
<polygon fill="#63b8ff" stroke="#63b8ff" points="192.49,-200.46 202.86,-198.27 193.39,-193.52 192.49,-200.46"/>
</a>
</g>
</g>
<!-- Node10 -->
<g id="Node000010" class="node">
<title>Node10</title>
<g id="a_Node000010"><a xlink:href="../../de/dc7/classEonPlay_1_1Data_1_1MediaFile.html#a7598825cbdac94beb499b01f69be7d32" target="_top" xlink:title=" ">
<polygon fill="white" stroke="#666666" points="340,-174 203,-174 203,-144 340,-144 340,-174"/>
<text text-anchor="start" x="211" y="-162" font-family="Helvetica,sans-Serif" font-size="10.00">EonPlay::Data::MediaFile</text>
<text text-anchor="middle" x="271.5" y="-151" font-family="Helvetica,sans-Serif" font-size="10.00">::setId</text>
</a>
</g>
</g>
<!-- Node1&#45;&gt;Node10 -->
<g id="edge9_Node000001_Node000010" class="edge">
<title>Node1&#45;&gt;Node10</title>
<g id="a_edge9_Node000001_Node000010"><a xlink:title=" ">
<path fill="none" stroke="#63b8ff" d="M167.17,-172.33C175.65,-171.24 184.25,-170.13 192.68,-169.04"/>
<polygon fill="#63b8ff" stroke="#63b8ff" points="193.39,-172.48 202.86,-167.73 192.49,-165.54 193.39,-172.48"/>
</a>
</g>
</g>
<!-- Node12 -->
<g id="Node000012" class="node">
<title>Node12</title>
<g id="a_Node000012"><a xlink:href="../../de/dc7/classEonPlay_1_1Data_1_1MediaFile.html#a75ede0a345eea045b6365a18bfc47a91" target="_top" xlink:title=" ">
<polygon fill="white" stroke="#666666" points="340,-126 203,-126 203,-96 340,-96 340,-126"/>
<text text-anchor="start" x="211" y="-114" font-family="Helvetica,sans-Serif" font-size="10.00">EonPlay::Data::MediaFile</text>
<text text-anchor="middle" x="271.5" y="-103" font-family="Helvetica,sans-Serif" font-size="10.00">::setLastPlayed</text>
</a>
</g>
</g>
<!-- Node1&#45;&gt;Node12 -->
<g id="edge11_Node000001_Node000012" class="edge">
<title>Node1&#45;&gt;Node12</title>
<g id="a_edge11_Node000001_Node000012"><a xlink:title=" ">
<path fill="none" stroke="#63b8ff" d="M120.38,-167.99C143.8,-158.32 175.09,-145.61 203,-135 207.75,-133.2 212.7,-131.36 217.66,-129.54"/>
<polygon fill="#63b8ff" stroke="#63b8ff" points="218.98,-132.79 227.19,-126.09 216.59,-126.2 218.98,-132.79"/>
</a>
</g>
</g>
<!-- Node14 -->
<g id="Node000014" class="node">
<title>Node14</title>
<g id="a_Node000014"><a xlink:href="../../de/dc7/classEonPlay_1_1Data_1_1MediaFile.html#a7c9047c6c1caee7256864423d589fc95" target="_top" xlink:title=" ">
<polygon fill="white" stroke="#666666" points="340,-78 203,-78 203,-48 340,-48 340,-78"/>
<text text-anchor="start" x="211" y="-66" font-family="Helvetica,sans-Serif" font-size="10.00">EonPlay::Data::MediaFile</text>
<text text-anchor="middle" x="271.5" y="-55" font-family="Helvetica,sans-Serif" font-size="10.00">::setPlayCount</text>
</a>
</g>
</g>
<!-- Node1&#45;&gt;Node14 -->
<g id="edge13_Node000001_Node000014" class="edge">
<title>Node1&#45;&gt;Node14</title>
<g id="a_edge13_Node000001_Node000014"><a xlink:title=" ">
<path fill="none" stroke="#63b8ff" d="M99.71,-167.77C121.13,-147.04 162.13,-109.93 203,-87 206.02,-85.31 209.18,-83.7 212.42,-82.17"/>
<polygon fill="#63b8ff" stroke="#63b8ff" points="213.93,-85.33 221.68,-78.11 211.12,-78.92 213.93,-85.33"/>
</a>
</g>
</g>
<!-- Node16 -->
<g id="Node000016" class="node">
<title>Node16</title>
<g id="a_Node000016"><a xlink:href="../../de/dc7/classEonPlay_1_1Data_1_1MediaFile.html#ab5c607a255318448ec724daec9ad0cf4" target="_top" xlink:title=" ">
<polygon fill="white" stroke="#666666" points="340,-30 203,-30 203,0 340,0 340,-30"/>
<text text-anchor="start" x="211" y="-18" font-family="Helvetica,sans-Serif" font-size="10.00">EonPlay::Data::MediaFile</text>
<text text-anchor="middle" x="271.5" y="-7" font-family="Helvetica,sans-Serif" font-size="10.00">::setTitle</text>
</a>
</g>
</g>
<!-- Node1&#45;&gt;Node16 -->
<g id="edge15_Node000001_Node000016" class="edge">
<title>Node1&#45;&gt;Node16</title>
<g id="a_edge15_Node000001_Node000016"><a xlink:title=" ">
<path fill="none" stroke="#63b8ff" d="M93.2,-167.65C110.47,-138.51 151.85,-74.9 203,-39 205.09,-37.53 207.29,-36.14 209.55,-34.83"/>
<polygon fill="#63b8ff" stroke="#63b8ff" points="211.29,-37.87 218.56,-30.16 208.07,-31.66 211.29,-37.87"/>
</a>
</g>
</g>
<!-- Node3 -->
<g id="Node000003" class="node">
<title>Node3</title>
<g id="a_Node000003"><a xlink:href="../../de/dc7/classEonPlay_1_1Data_1_1MediaFile.html#a09f8ad403a921430628d18e76dd90023" target="_top" xlink:title=" ">
<polygon fill="white" stroke="#666666" points="520.5,-366 383.5,-366 383.5,-336 520.5,-336 520.5,-366"/>
<text text-anchor="start" x="391.5" y="-354" font-family="Helvetica,sans-Serif" font-size="10.00">EonPlay::Data::MediaFile</text>
<text text-anchor="middle" x="452" y="-343" font-family="Helvetica,sans-Serif" font-size="10.00">::album</text>
</a>
</g>
</g>
<!-- Node2&#45;&gt;Node3 -->
<g id="edge2_Node000002_Node000003" class="edge">
<title>Node2&#45;&gt;Node3</title>
<g id="a_edge2_Node000002_Node000003"><a xlink:title=" ">
<path fill="none" stroke="#63b8ff" d="M340.24,-351C351.04,-351 362.28,-351 373.29,-351"/>
<polygon fill="#63b8ff" stroke="#63b8ff" points="373.31,-354.5 383.31,-351 373.31,-347.5 373.31,-354.5"/>
</a>
</g>
</g>
<!-- Node5 -->
<g id="Node000005" class="node">
<title>Node5</title>
<g id="a_Node000005"><a xlink:href="../../de/dc7/classEonPlay_1_1Data_1_1MediaFile.html#a75c0e956449eb91ad71bb2644110c83e" target="_top" xlink:title=" ">
<polygon fill="white" stroke="#666666" points="520.5,-318 383.5,-318 383.5,-288 520.5,-288 520.5,-318"/>
<text text-anchor="start" x="391.5" y="-306" font-family="Helvetica,sans-Serif" font-size="10.00">EonPlay::Data::MediaFile</text>
<text text-anchor="middle" x="452" y="-295" font-family="Helvetica,sans-Serif" font-size="10.00">::artist</text>
</a>
</g>
</g>
<!-- Node4&#45;&gt;Node5 -->
<g id="edge4_Node000004_Node000005" class="edge">
<title>Node4&#45;&gt;Node5</title>
<g id="a_edge4_Node000004_Node000005"><a xlink:title=" ">
<path fill="none" stroke="#63b8ff" d="M340.24,-303C351.04,-303 362.28,-303 373.29,-303"/>
<polygon fill="#63b8ff" stroke="#63b8ff" points="373.31,-306.5 383.31,-303 373.31,-299.5 373.31,-306.5"/>
</a>
</g>
</g>
<!-- Node7 -->
<g id="Node000007" class="node">
<title>Node7</title>
<g id="a_Node000007"><a xlink:href="../../de/dc7/classEonPlay_1_1Data_1_1MediaFile.html#a9f59cdb65f31f8506749bd6984339c0f" target="_top" xlink:title=" ">
<polygon fill="white" stroke="#666666" points="520.5,-270 383.5,-270 383.5,-240 520.5,-240 520.5,-270"/>
<text text-anchor="start" x="391.5" y="-258" font-family="Helvetica,sans-Serif" font-size="10.00">EonPlay::Data::MediaFile</text>
<text text-anchor="middle" x="452" y="-247" font-family="Helvetica,sans-Serif" font-size="10.00">::duration</text>
</a>
</g>
</g>
<!-- Node6&#45;&gt;Node7 -->
<g id="edge6_Node000006_Node000007" class="edge">
<title>Node6&#45;&gt;Node7</title>
<g id="a_edge6_Node000006_Node000007"><a xlink:title=" ">
<path fill="none" stroke="#63b8ff" d="M340.24,-255C351.04,-255 362.28,-255 373.29,-255"/>
<polygon fill="#63b8ff" stroke="#63b8ff" points="373.31,-258.5 383.31,-255 373.31,-251.5 373.31,-258.5"/>
</a>
</g>
</g>
<!-- Node9 -->
<g id="Node000009" class="node">
<title>Node9</title>
<g id="a_Node000009"><a xlink:href="../../de/dc7/classEonPlay_1_1Data_1_1MediaFile.html#a7eb834a0663186a43f3eacb12d18ded7" target="_top" xlink:title=" ">
<polygon fill="white" stroke="#666666" points="520.5,-222 383.5,-222 383.5,-192 520.5,-192 520.5,-222"/>
<text text-anchor="start" x="391.5" y="-210" font-family="Helvetica,sans-Serif" font-size="10.00">EonPlay::Data::MediaFile</text>
<text text-anchor="middle" x="452" y="-199" font-family="Helvetica,sans-Serif" font-size="10.00">::filePath</text>
</a>
</g>
</g>
<!-- Node8&#45;&gt;Node9 -->
<g id="edge8_Node000008_Node000009" class="edge">
<title>Node8&#45;&gt;Node9</title>
<g id="a_edge8_Node000008_Node000009"><a xlink:title=" ">
<path fill="none" stroke="#63b8ff" d="M340.24,-207C351.04,-207 362.28,-207 373.29,-207"/>
<polygon fill="#63b8ff" stroke="#63b8ff" points="373.31,-210.5 383.31,-207 373.31,-203.5 373.31,-210.5"/>
</a>
</g>
</g>
<!-- Node11 -->
<g id="Node000011" class="node">
<title>Node11</title>
<g id="a_Node000011"><a xlink:href="../../de/dc7/classEonPlay_1_1Data_1_1MediaFile.html#aeb83eaa447b5b8ee7ffd807ba13f91de" target="_top" xlink:title=" ">
<polygon fill="white" stroke="#666666" points="528,-168.5 376,-168.5 376,-149.5 528,-149.5 528,-168.5"/>
<text text-anchor="middle" x="452" y="-156.5" font-family="Helvetica,sans-Serif" font-size="10.00">EonPlay::Data::MediaFile::id</text>
</a>
</g>
</g>
<!-- Node10&#45;&gt;Node11 -->
<g id="edge10_Node000010_Node000011" class="edge">
<title>Node10&#45;&gt;Node11</title>
<g id="a_edge10_Node000010_Node000011"><a xlink:title=" ">
<path fill="none" stroke="#63b8ff" d="M340.24,-159C348.6,-159 357.24,-159 365.82,-159"/>
<polygon fill="#63b8ff" stroke="#63b8ff" points="365.85,-162.5 375.85,-159 365.85,-155.5 365.85,-162.5"/>
</a>
</g>
</g>
<!-- Node13 -->
<g id="Node000013" class="node">
<title>Node13</title>
<g id="a_Node000013"><a xlink:href="../../de/dc7/classEonPlay_1_1Data_1_1MediaFile.html#a82193432bb674c9c38261d7f29e3db7c" target="_top" xlink:title=" ">
<polygon fill="white" stroke="#666666" points="520.5,-126 383.5,-126 383.5,-96 520.5,-96 520.5,-126"/>
<text text-anchor="start" x="391.5" y="-114" font-family="Helvetica,sans-Serif" font-size="10.00">EonPlay::Data::MediaFile</text>
<text text-anchor="middle" x="452" y="-103" font-family="Helvetica,sans-Serif" font-size="10.00">::lastPlayed</text>
</a>
</g>
</g>
<!-- Node12&#45;&gt;Node13 -->
<g id="edge12_Node000012_Node000013" class="edge">
<title>Node12&#45;&gt;Node13</title>
<g id="a_edge12_Node000012_Node000013"><a xlink:title=" ">
<path fill="none" stroke="#63b8ff" d="M340.24,-111C351.04,-111 362.28,-111 373.29,-111"/>
<polygon fill="#63b8ff" stroke="#63b8ff" points="373.31,-114.5 383.31,-111 373.31,-107.5 373.31,-114.5"/>
</a>
</g>
</g>
<!-- Node15 -->
<g id="Node000015" class="node">
<title>Node15</title>
<g id="a_Node000015"><a xlink:href="../../de/dc7/classEonPlay_1_1Data_1_1MediaFile.html#a910e9b199878228d56fc09379f9ac39c" target="_top" xlink:title=" ">
<polygon fill="white" stroke="#666666" points="520.5,-78 383.5,-78 383.5,-48 520.5,-48 520.5,-78"/>
<text text-anchor="start" x="391.5" y="-66" font-family="Helvetica,sans-Serif" font-size="10.00">EonPlay::Data::MediaFile</text>
<text text-anchor="middle" x="452" y="-55" font-family="Helvetica,sans-Serif" font-size="10.00">::playCount</text>
</a>
</g>
</g>
<!-- Node14&#45;&gt;Node15 -->
<g id="edge14_Node000014_Node000015" class="edge">
<title>Node14&#45;&gt;Node15</title>
<g id="a_edge14_Node000014_Node000015"><a xlink:title=" ">
<path fill="none" stroke="#63b8ff" d="M340.24,-63C351.04,-63 362.28,-63 373.29,-63"/>
<polygon fill="#63b8ff" stroke="#63b8ff" points="373.31,-66.5 383.31,-63 373.31,-59.5 373.31,-66.5"/>
</a>
</g>
</g>
<!-- Node17 -->
<g id="Node000017" class="node">
<title>Node17</title>
<g id="a_Node000017"><a xlink:href="../../de/dc7/classEonPlay_1_1Data_1_1MediaFile.html#ad6daf8d51553ea2d923d87f4e6b84e01" target="_top" xlink:title=" ">
<polygon fill="white" stroke="#666666" points="520.5,-30 383.5,-30 383.5,0 520.5,0 520.5,-30"/>
<text text-anchor="start" x="391.5" y="-18" font-family="Helvetica,sans-Serif" font-size="10.00">EonPlay::Data::MediaFile</text>
<text text-anchor="middle" x="452" y="-7" font-family="Helvetica,sans-Serif" font-size="10.00">::title</text>
</a>
</g>
</g>
<!-- Node16&#45;&gt;Node17 -->
<g id="edge16_Node000016_Node000017" class="edge">
<title>Node16&#45;&gt;Node17</title>
<g id="a_edge16_Node000016_Node000017"><a xlink:title=" ">
<path fill="none" stroke="#63b8ff" d="M340.24,-15C351.04,-15 362.28,-15 373.29,-15"/>
<polygon fill="#63b8ff" stroke="#63b8ff" points="373.31,-18.5 383.31,-15 373.31,-11.5 373.31,-18.5"/>
</a>
</g>
</g>
</g>
</svg>
