<?xml version="1.0" encoding="UTF-8" standalone="no"?>
<!DOCTYPE svg PUBLIC "-//W3C//DTD SVG 1.1//EN"
 "http://www.w3.org/Graphics/SVG/1.1/DTD/svg11.dtd">
<!-- Generated by graphviz version 2.43.0 (0)
 -->
<!-- Title: EonPlay::Data::LibraryManager::getRecentFiles Pages: 1 -->
<svg width="536pt" height="326pt"
 viewBox="0.00 0.00 536.00 326.00" xmlns="http://www.w3.org/2000/svg" xmlns:xlink="http://www.w3.org/1999/xlink">
<g id="graph0" class="graph" transform="scale(1 1) rotate(0) translate(4 322)">
<title>EonPlay::Data::LibraryManager::getRecentFiles</title>
<!-- Node1 -->
<g id="Node000001" class="node">
<title>Node1</title>
<g id="a_Node000001"><a xlink:title=" ">
<polygon fill="#999999" stroke="#666666" points="167,-174 0,-174 0,-144 167,-144 167,-174"/>
<text text-anchor="start" x="8" y="-162" font-family="Helvetica,sans-Serif" font-size="10.00">EonPlay::Data::LibraryManager</text>
<text text-anchor="middle" x="83.5" y="-151" font-family="Helvetica,sans-Serif" font-size="10.00">::getRecentFiles</text>
</a>
</g>
</g>
<!-- Node2 -->
<g id="Node000002" class="node">
<title>Node2</title>
<g id="a_Node000002"><a xlink:href="../../de/dc7/classEonPlay_1_1Data_1_1MediaFile.html#ac7b77dd4fd9235f729fe3000cf280e01" target="_top" xlink:title=" ">
<polygon fill="white" stroke="#666666" points="340,-318 203,-318 203,-288 340,-288 340,-318"/>
<text text-anchor="start" x="211" y="-306" font-family="Helvetica,sans-Serif" font-size="10.00">EonPlay::Data::MediaFile</text>
<text text-anchor="middle" x="271.5" y="-295" font-family="Helvetica,sans-Serif" font-size="10.00">::setAlbum</text>
</a>
</g>
</g>
<!-- Node1&#45;&gt;Node2 -->
<g id="edge1_Node000001_Node000002" class="edge">
<title>Node1&#45;&gt;Node2</title>
<g id="a_edge1_Node000001_Node000002"><a xlink:title=" ">
<path fill="none" stroke="#63b8ff" d="M95.62,-174.05C114.87,-199.13 156.81,-249.61 203,-279 205.46,-280.56 208.03,-282.04 210.68,-283.44"/>
<polygon fill="#63b8ff" stroke="#63b8ff" points="209.38,-286.7 219.91,-287.87 212.41,-280.39 209.38,-286.7"/>
</a>
</g>
</g>
<!-- Node4 -->
<g id="Node000004" class="node">
<title>Node4</title>
<g id="a_Node000004"><a xlink:href="../../de/dc7/classEonPlay_1_1Data_1_1MediaFile.html#ad9940de5c551727f95a98ed16caad932" target="_top" xlink:title=" ">
<polygon fill="white" stroke="#666666" points="340,-270 203,-270 203,-240 340,-240 340,-270"/>
<text text-anchor="start" x="211" y="-258" font-family="Helvetica,sans-Serif" font-size="10.00">EonPlay::Data::MediaFile</text>
<text text-anchor="middle" x="271.5" y="-247" font-family="Helvetica,sans-Serif" font-size="10.00">::setArtist</text>
</a>
</g>
</g>
<!-- Node1&#45;&gt;Node4 -->
<g id="edge3_Node000001_Node000004" class="edge">
<title>Node1&#45;&gt;Node4</title>
<g id="a_edge3_Node000001_Node000004"><a xlink:title=" ">
<path fill="none" stroke="#63b8ff" d="M106.45,-174.22C129.68,-189.87 167.78,-214.26 203,-231 206.79,-232.8 210.76,-234.55 214.78,-236.22"/>
<polygon fill="#63b8ff" stroke="#63b8ff" points="213.65,-239.53 224.24,-239.97 216.24,-233.03 213.65,-239.53"/>
</a>
</g>
</g>
<!-- Node6 -->
<g id="Node000006" class="node">
<title>Node6</title>
<g id="a_Node000006"><a xlink:href="../../de/dc7/classEonPlay_1_1Data_1_1MediaFile.html#a4c90f782eb5d9f9c4052a5d557616b9f" target="_top" xlink:title=" ">
<polygon fill="white" stroke="#666666" points="340,-222 203,-222 203,-192 340,-192 340,-222"/>
<text text-anchor="start" x="211" y="-210" font-family="Helvetica,sans-Serif" font-size="10.00">EonPlay::Data::MediaFile</text>
<text text-anchor="middle" x="271.5" y="-199" font-family="Helvetica,sans-Serif" font-size="10.00">::setDateAdded</text>
</a>
</g>
</g>
<!-- Node1&#45;&gt;Node6 -->
<g id="edge5_Node000001_Node000006" class="edge">
<title>Node1&#45;&gt;Node6</title>
<g id="a_edge5_Node000001_Node000006"><a xlink:title=" ">
<path fill="none" stroke="#63b8ff" d="M142.84,-174.06C161.8,-178.95 183,-184.42 202.59,-189.48"/>
<polygon fill="#63b8ff" stroke="#63b8ff" points="201.81,-192.89 212.37,-192 203.56,-186.11 201.81,-192.89"/>
</a>
</g>
</g>
<!-- Node8 -->
<g id="Node000008" class="node">
<title>Node8</title>
<g id="a_Node000008"><a xlink:href="../../de/dc7/classEonPlay_1_1Data_1_1MediaFile.html#a8e21eb7ca2b0ea4dbc709f3e0f1b5740" target="_top" xlink:title=" ">
<polygon fill="white" stroke="#666666" points="340,-174 203,-174 203,-144 340,-144 340,-174"/>
<text text-anchor="start" x="211" y="-162" font-family="Helvetica,sans-Serif" font-size="10.00">EonPlay::Data::MediaFile</text>
<text text-anchor="middle" x="271.5" y="-151" font-family="Helvetica,sans-Serif" font-size="10.00">::setDuration</text>
</a>
</g>
</g>
<!-- Node1&#45;&gt;Node8 -->
<g id="edge7_Node000001_Node000008" class="edge">
<title>Node1&#45;&gt;Node8</title>
<g id="a_edge7_Node000001_Node000008"><a xlink:title=" ">
<path fill="none" stroke="#63b8ff" d="M167.17,-159C175.65,-159 184.25,-159 192.68,-159"/>
<polygon fill="#63b8ff" stroke="#63b8ff" points="192.86,-162.5 202.86,-159 192.86,-155.5 192.86,-162.5"/>
</a>
</g>
</g>
<!-- Node10 -->
<g id="Node000010" class="node">
<title>Node10</title>
<g id="a_Node000010"><a xlink:href="../../de/dc7/classEonPlay_1_1Data_1_1MediaFile.html#a2803406d0a659719a22162057febdc28" target="_top" xlink:title=" ">
<polygon fill="white" stroke="#666666" points="340,-126 203,-126 203,-96 340,-96 340,-126"/>
<text text-anchor="start" x="211" y="-114" font-family="Helvetica,sans-Serif" font-size="10.00">EonPlay::Data::MediaFile</text>
<text text-anchor="middle" x="271.5" y="-103" font-family="Helvetica,sans-Serif" font-size="10.00">::setFilePath</text>
</a>
</g>
</g>
<!-- Node1&#45;&gt;Node10 -->
<g id="edge9_Node000001_Node000010" class="edge">
<title>Node1&#45;&gt;Node10</title>
<g id="a_edge9_Node000001_Node000010"><a xlink:title=" ">
<path fill="none" stroke="#63b8ff" d="M142.84,-143.94C161.8,-139.05 183,-133.58 202.59,-128.52"/>
<polygon fill="#63b8ff" stroke="#63b8ff" points="203.56,-131.89 212.37,-126 201.81,-125.11 203.56,-131.89"/>
</a>
</g>
</g>
<!-- Node12 -->
<g id="Node000012" class="node">
<title>Node12</title>
<g id="a_Node000012"><a xlink:href="../../de/dc7/classEonPlay_1_1Data_1_1MediaFile.html#a7598825cbdac94beb499b01f69be7d32" target="_top" xlink:title=" ">
<polygon fill="white" stroke="#666666" points="340,-78 203,-78 203,-48 340,-48 340,-78"/>
<text text-anchor="start" x="211" y="-66" font-family="Helvetica,sans-Serif" font-size="10.00">EonPlay::Data::MediaFile</text>
<text text-anchor="middle" x="271.5" y="-55" font-family="Helvetica,sans-Serif" font-size="10.00">::setId</text>
</a>
</g>
</g>
<!-- Node1&#45;&gt;Node12 -->
<g id="edge11_Node000001_Node000012" class="edge">
<title>Node1&#45;&gt;Node12</title>
<g id="a_edge11_Node000001_Node000012"><a xlink:title=" ">
<path fill="none" stroke="#63b8ff" d="M106.45,-143.78C129.68,-128.13 167.78,-103.74 203,-87 206.79,-85.2 210.76,-83.45 214.78,-81.78"/>
<polygon fill="#63b8ff" stroke="#63b8ff" points="216.24,-84.97 224.24,-78.03 213.65,-78.47 216.24,-84.97"/>
</a>
</g>
</g>
<!-- Node14 -->
<g id="Node000014" class="node">
<title>Node14</title>
<g id="a_Node000014"><a xlink:href="../../de/dc7/classEonPlay_1_1Data_1_1MediaFile.html#ab5c607a255318448ec724daec9ad0cf4" target="_top" xlink:title=" ">
<polygon fill="white" stroke="#666666" points="340,-30 203,-30 203,0 340,0 340,-30"/>
<text text-anchor="start" x="211" y="-18" font-family="Helvetica,sans-Serif" font-size="10.00">EonPlay::Data::MediaFile</text>
<text text-anchor="middle" x="271.5" y="-7" font-family="Helvetica,sans-Serif" font-size="10.00">::setTitle</text>
</a>
</g>
</g>
<!-- Node1&#45;&gt;Node14 -->
<g id="edge13_Node000001_Node000014" class="edge">
<title>Node1&#45;&gt;Node14</title>
<g id="a_edge13_Node000001_Node000014"><a xlink:title=" ">
<path fill="none" stroke="#63b8ff" d="M95.62,-143.95C114.87,-118.87 156.81,-68.39 203,-39 205.46,-37.44 208.03,-35.96 210.68,-34.56"/>
<polygon fill="#63b8ff" stroke="#63b8ff" points="212.41,-37.61 219.91,-30.13 209.38,-31.3 212.41,-37.61"/>
</a>
</g>
</g>
<!-- Node3 -->
<g id="Node000003" class="node">
<title>Node3</title>
<g id="a_Node000003"><a xlink:href="../../de/dc7/classEonPlay_1_1Data_1_1MediaFile.html#a09f8ad403a921430628d18e76dd90023" target="_top" xlink:title=" ">
<polygon fill="white" stroke="#666666" points="520.5,-318 383.5,-318 383.5,-288 520.5,-288 520.5,-318"/>
<text text-anchor="start" x="391.5" y="-306" font-family="Helvetica,sans-Serif" font-size="10.00">EonPlay::Data::MediaFile</text>
<text text-anchor="middle" x="452" y="-295" font-family="Helvetica,sans-Serif" font-size="10.00">::album</text>
</a>
</g>
</g>
<!-- Node2&#45;&gt;Node3 -->
<g id="edge2_Node000002_Node000003" class="edge">
<title>Node2&#45;&gt;Node3</title>
<g id="a_edge2_Node000002_Node000003"><a xlink:title=" ">
<path fill="none" stroke="#63b8ff" d="M340.24,-303C351.04,-303 362.28,-303 373.29,-303"/>
<polygon fill="#63b8ff" stroke="#63b8ff" points="373.31,-306.5 383.31,-303 373.31,-299.5 373.31,-306.5"/>
</a>
</g>
</g>
<!-- Node5 -->
<g id="Node000005" class="node">
<title>Node5</title>
<g id="a_Node000005"><a xlink:href="../../de/dc7/classEonPlay_1_1Data_1_1MediaFile.html#a75c0e956449eb91ad71bb2644110c83e" target="_top" xlink:title=" ">
<polygon fill="white" stroke="#666666" points="520.5,-270 383.5,-270 383.5,-240 520.5,-240 520.5,-270"/>
<text text-anchor="start" x="391.5" y="-258" font-family="Helvetica,sans-Serif" font-size="10.00">EonPlay::Data::MediaFile</text>
<text text-anchor="middle" x="452" y="-247" font-family="Helvetica,sans-Serif" font-size="10.00">::artist</text>
</a>
</g>
</g>
<!-- Node4&#45;&gt;Node5 -->
<g id="edge4_Node000004_Node000005" class="edge">
<title>Node4&#45;&gt;Node5</title>
<g id="a_edge4_Node000004_Node000005"><a xlink:title=" ">
<path fill="none" stroke="#63b8ff" d="M340.24,-255C351.04,-255 362.28,-255 373.29,-255"/>
<polygon fill="#63b8ff" stroke="#63b8ff" points="373.31,-258.5 383.31,-255 373.31,-251.5 373.31,-258.5"/>
</a>
</g>
</g>
<!-- Node7 -->
<g id="Node000007" class="node">
<title>Node7</title>
<g id="a_Node000007"><a xlink:href="../../de/dc7/classEonPlay_1_1Data_1_1MediaFile.html#a95e775bf79295c14143dc42cbf341590" target="_top" xlink:title=" ">
<polygon fill="white" stroke="#666666" points="520.5,-222 383.5,-222 383.5,-192 520.5,-192 520.5,-222"/>
<text text-anchor="start" x="391.5" y="-210" font-family="Helvetica,sans-Serif" font-size="10.00">EonPlay::Data::MediaFile</text>
<text text-anchor="middle" x="452" y="-199" font-family="Helvetica,sans-Serif" font-size="10.00">::dateAdded</text>
</a>
</g>
</g>
<!-- Node6&#45;&gt;Node7 -->
<g id="edge6_Node000006_Node000007" class="edge">
<title>Node6&#45;&gt;Node7</title>
<g id="a_edge6_Node000006_Node000007"><a xlink:title=" ">
<path fill="none" stroke="#63b8ff" d="M340.24,-207C351.04,-207 362.28,-207 373.29,-207"/>
<polygon fill="#63b8ff" stroke="#63b8ff" points="373.31,-210.5 383.31,-207 373.31,-203.5 373.31,-210.5"/>
</a>
</g>
</g>
<!-- Node9 -->
<g id="Node000009" class="node">
<title>Node9</title>
<g id="a_Node000009"><a xlink:href="../../de/dc7/classEonPlay_1_1Data_1_1MediaFile.html#a9f59cdb65f31f8506749bd6984339c0f" target="_top" xlink:title=" ">
<polygon fill="white" stroke="#666666" points="520.5,-174 383.5,-174 383.5,-144 520.5,-144 520.5,-174"/>
<text text-anchor="start" x="391.5" y="-162" font-family="Helvetica,sans-Serif" font-size="10.00">EonPlay::Data::MediaFile</text>
<text text-anchor="middle" x="452" y="-151" font-family="Helvetica,sans-Serif" font-size="10.00">::duration</text>
</a>
</g>
</g>
<!-- Node8&#45;&gt;Node9 -->
<g id="edge8_Node000008_Node000009" class="edge">
<title>Node8&#45;&gt;Node9</title>
<g id="a_edge8_Node000008_Node000009"><a xlink:title=" ">
<path fill="none" stroke="#63b8ff" d="M340.24,-159C351.04,-159 362.28,-159 373.29,-159"/>
<polygon fill="#63b8ff" stroke="#63b8ff" points="373.31,-162.5 383.31,-159 373.31,-155.5 373.31,-162.5"/>
</a>
</g>
</g>
<!-- Node11 -->
<g id="Node000011" class="node">
<title>Node11</title>
<g id="a_Node000011"><a xlink:href="../../de/dc7/classEonPlay_1_1Data_1_1MediaFile.html#a7eb834a0663186a43f3eacb12d18ded7" target="_top" xlink:title=" ">
<polygon fill="white" stroke="#666666" points="520.5,-126 383.5,-126 383.5,-96 520.5,-96 520.5,-126"/>
<text text-anchor="start" x="391.5" y="-114" font-family="Helvetica,sans-Serif" font-size="10.00">EonPlay::Data::MediaFile</text>
<text text-anchor="middle" x="452" y="-103" font-family="Helvetica,sans-Serif" font-size="10.00">::filePath</text>
</a>
</g>
</g>
<!-- Node10&#45;&gt;Node11 -->
<g id="edge10_Node000010_Node000011" class="edge">
<title>Node10&#45;&gt;Node11</title>
<g id="a_edge10_Node000010_Node000011"><a xlink:title=" ">
<path fill="none" stroke="#63b8ff" d="M340.24,-111C351.04,-111 362.28,-111 373.29,-111"/>
<polygon fill="#63b8ff" stroke="#63b8ff" points="373.31,-114.5 383.31,-111 373.31,-107.5 373.31,-114.5"/>
</a>
</g>
</g>
<!-- Node13 -->
<g id="Node000013" class="node">
<title>Node13</title>
<g id="a_Node000013"><a xlink:href="../../de/dc7/classEonPlay_1_1Data_1_1MediaFile.html#aeb83eaa447b5b8ee7ffd807ba13f91de" target="_top" xlink:title=" ">
<polygon fill="white" stroke="#666666" points="528,-72.5 376,-72.5 376,-53.5 528,-53.5 528,-72.5"/>
<text text-anchor="middle" x="452" y="-60.5" font-family="Helvetica,sans-Serif" font-size="10.00">EonPlay::Data::MediaFile::id</text>
</a>
</g>
</g>
<!-- Node12&#45;&gt;Node13 -->
<g id="edge12_Node000012_Node000013" class="edge">
<title>Node12&#45;&gt;Node13</title>
<g id="a_edge12_Node000012_Node000013"><a xlink:title=" ">
<path fill="none" stroke="#63b8ff" d="M340.24,-63C348.6,-63 357.24,-63 365.82,-63"/>
<polygon fill="#63b8ff" stroke="#63b8ff" points="365.85,-66.5 375.85,-63 365.85,-59.5 365.85,-66.5"/>
</a>
</g>
</g>
<!-- Node15 -->
<g id="Node000015" class="node">
<title>Node15</title>
<g id="a_Node000015"><a xlink:href="../../de/dc7/classEonPlay_1_1Data_1_1MediaFile.html#ad6daf8d51553ea2d923d87f4e6b84e01" target="_top" xlink:title=" ">
<polygon fill="white" stroke="#666666" points="520.5,-30 383.5,-30 383.5,0 520.5,0 520.5,-30"/>
<text text-anchor="start" x="391.5" y="-18" font-family="Helvetica,sans-Serif" font-size="10.00">EonPlay::Data::MediaFile</text>
<text text-anchor="middle" x="452" y="-7" font-family="Helvetica,sans-Serif" font-size="10.00">::title</text>
</a>
</g>
</g>
<!-- Node14&#45;&gt;Node15 -->
<g id="edge14_Node000014_Node000015" class="edge">
<title>Node14&#45;&gt;Node15</title>
<g id="a_edge14_Node000014_Node000015"><a xlink:title=" ">
<path fill="none" stroke="#63b8ff" d="M340.24,-15C351.04,-15 362.28,-15 373.29,-15"/>
<polygon fill="#63b8ff" stroke="#63b8ff" points="373.31,-18.5 383.31,-15 373.31,-11.5 373.31,-18.5"/>
</a>
</g>
</g>
</g>
</svg>
