<?xml version="1.0" encoding="UTF-8" standalone="no"?>
<!DOCTYPE svg PUBLIC "-//W3C//DTD SVG 1.1//EN"
 "http://www.w3.org/Graphics/SVG/1.1/DTD/svg11.dtd">
<!-- Generated by graphviz version 2.43.0 (0)
 -->
<!-- Title: EonPlay::Data::LibraryManager::operationCompleted Pages: 1 -->
<svg width="378pt" height="230pt"
 viewBox="0.00 0.00 378.00 230.00" xmlns="http://www.w3.org/2000/svg" xmlns:xlink="http://www.w3.org/1999/xlink">
<g id="graph0" class="graph" transform="scale(1 1) rotate(0) translate(4 226)">
<title>EonPlay::Data::LibraryManager::operationCompleted</title>
<!-- Node1 -->
<g id="Node000001" class="node">
<title>Node1</title>
<g id="a_Node000001"><a xlink:title=" ">
<polygon fill="#999999" stroke="#666666" points="370,-126 203,-126 203,-96 370,-96 370,-126"/>
<text text-anchor="start" x="211" y="-114" font-family="Helvetica,sans-Serif" font-size="10.00">EonPlay::Data::LibraryManager</text>
<text text-anchor="middle" x="286.5" y="-103" font-family="Helvetica,sans-Serif" font-size="10.00">::operationCompleted</text>
</a>
</g>
</g>
<!-- Node2 -->
<g id="Node000002" class="node">
<title>Node2</title>
<g id="a_Node000002"><a xlink:href="../../d9/d0d/classEonPlay_1_1Data_1_1LibraryManager.html#abc5467b752ec4965164527aff295d6f6" target="_top" xlink:title=" ">
<polygon fill="white" stroke="#666666" points="167,-222 0,-222 0,-192 167,-192 167,-222"/>
<text text-anchor="start" x="8" y="-210" font-family="Helvetica,sans-Serif" font-size="10.00">EonPlay::Data::LibraryManager</text>
<text text-anchor="middle" x="83.5" y="-199" font-family="Helvetica,sans-Serif" font-size="10.00">::cleanupLibrary</text>
</a>
</g>
</g>
<!-- Node1&#45;&gt;Node2 -->
<g id="edge1_Node000001_Node000002" class="edge">
<title>Node1&#45;&gt;Node2</title>
<g id="a_edge1_Node000001_Node000002"><a xlink:title=" ">
<path fill="none" stroke="#63b8ff" d="M256.21,-131.8C232.92,-147.59 199.04,-168.9 167,-183 159.49,-186.3 151.4,-189.3 143.32,-191.96"/>
<polygon fill="#63b8ff" stroke="#63b8ff" points="258.32,-134.6 264.59,-126.05 254.36,-128.82 258.32,-134.6"/>
</a>
</g>
</g>
<!-- Node3 -->
<g id="Node000003" class="node">
<title>Node3</title>
<g id="a_Node000003"><a xlink:href="../../d9/d0d/classEonPlay_1_1Data_1_1LibraryManager.html#aa90ac324c59925f6e5b7ff2108a7d817" target="_top" xlink:title=" ">
<polygon fill="white" stroke="#666666" points="167,-174 0,-174 0,-144 167,-144 167,-174"/>
<text text-anchor="start" x="8" y="-162" font-family="Helvetica,sans-Serif" font-size="10.00">EonPlay::Data::LibraryManager</text>
<text text-anchor="middle" x="83.5" y="-151" font-family="Helvetica,sans-Serif" font-size="10.00">::initialize</text>
</a>
</g>
</g>
<!-- Node1&#45;&gt;Node3 -->
<g id="edge2_Node000001_Node000003" class="edge">
<title>Node1&#45;&gt;Node3</title>
<g id="a_edge2_Node000001_Node000003"><a xlink:title=" ">
<path fill="none" stroke="#63b8ff" d="M212.46,-128.44C191.12,-133.54 167.98,-139.07 147.32,-144"/>
<polygon fill="#63b8ff" stroke="#63b8ff" points="213.54,-131.78 222.45,-126.06 211.91,-124.97 213.54,-131.78"/>
</a>
</g>
</g>
<!-- Node4 -->
<g id="Node000004" class="node">
<title>Node4</title>
<g id="a_Node000004"><a xlink:href="../../d9/d0d/classEonPlay_1_1Data_1_1LibraryManager.html#ab564c7413e0c74c6c61b2b6691365b91" target="_top" xlink:title=" ">
<polygon fill="white" stroke="#666666" points="167,-126 0,-126 0,-96 167,-96 167,-126"/>
<text text-anchor="start" x="8" y="-114" font-family="Helvetica,sans-Serif" font-size="10.00">EonPlay::Data::LibraryManager</text>
<text text-anchor="middle" x="83.5" y="-103" font-family="Helvetica,sans-Serif" font-size="10.00">::optimizeLibrary</text>
</a>
</g>
</g>
<!-- Node1&#45;&gt;Node4 -->
<g id="edge3_Node000001_Node000004" class="edge">
<title>Node1&#45;&gt;Node4</title>
<g id="a_edge3_Node000001_Node000004"><a xlink:title=" ">
<path fill="none" stroke="#63b8ff" d="M192.85,-111C184.27,-111 175.61,-111 167.13,-111"/>
<polygon fill="#63b8ff" stroke="#63b8ff" points="192.88,-114.5 202.88,-111 192.88,-107.5 192.88,-114.5"/>
</a>
</g>
</g>
<!-- Node5 -->
<g id="Node000005" class="node">
<title>Node5</title>
<g id="a_Node000005"><a xlink:href="../../d9/d0d/classEonPlay_1_1Data_1_1LibraryManager.html#a9ca6c080e01e7d46a8b460dcd2f5a47b" target="_top" xlink:title=" ">
<polygon fill="white" stroke="#666666" points="167,-78 0,-78 0,-48 167,-48 167,-78"/>
<text text-anchor="start" x="8" y="-66" font-family="Helvetica,sans-Serif" font-size="10.00">EonPlay::Data::LibraryManager</text>
<text text-anchor="middle" x="83.5" y="-55" font-family="Helvetica,sans-Serif" font-size="10.00">::rebuildLibrary</text>
</a>
</g>
</g>
<!-- Node1&#45;&gt;Node5 -->
<g id="edge4_Node000001_Node000005" class="edge">
<title>Node1&#45;&gt;Node5</title>
<g id="a_edge4_Node000001_Node000005"><a xlink:title=" ">
<path fill="none" stroke="#63b8ff" d="M212.46,-93.56C191.12,-88.46 167.98,-82.93 147.32,-78"/>
<polygon fill="#63b8ff" stroke="#63b8ff" points="211.91,-97.03 222.45,-95.94 213.54,-90.22 211.91,-97.03"/>
</a>
</g>
</g>
<!-- Node6 -->
<g id="Node000006" class="node">
<title>Node6</title>
<g id="a_Node000006"><a xlink:href="../../d9/d0d/classEonPlay_1_1Data_1_1LibraryManager.html#aec23b1a5419a2d6e497470f7c9c9606c" target="_top" xlink:title=" ">
<polygon fill="white" stroke="#666666" points="167,-30 0,-30 0,0 167,0 167,-30"/>
<text text-anchor="start" x="8" y="-18" font-family="Helvetica,sans-Serif" font-size="10.00">EonPlay::Data::LibraryManager</text>
<text text-anchor="middle" x="83.5" y="-7" font-family="Helvetica,sans-Serif" font-size="10.00">::shutdown</text>
</a>
</g>
</g>
<!-- Node1&#45;&gt;Node6 -->
<g id="edge5_Node000001_Node000006" class="edge">
<title>Node1&#45;&gt;Node6</title>
<g id="a_edge5_Node000001_Node000006"><a xlink:title=" ">
<path fill="none" stroke="#63b8ff" d="M256.21,-90.2C232.92,-74.41 199.04,-53.1 167,-39 159.49,-35.7 151.4,-32.7 143.32,-30.04"/>
<polygon fill="#63b8ff" stroke="#63b8ff" points="254.36,-93.18 264.59,-95.95 258.32,-87.4 254.36,-93.18"/>
</a>
</g>
</g>
</g>
</svg>
