<?xml version="1.0" encoding="UTF-8" standalone="no"?>
<!DOCTYPE svg PUBLIC "-//W3C//DTD SVG 1.1//EN"
 "http://www.w3.org/Graphics/SVG/1.1/DTD/svg11.dtd">
<!-- Generated by graphviz version 2.43.0 (0)
 -->
<!-- Title: EonPlay::AI::SubtitleTranslator::translationFailed Pages: 1 -->
<svg width="566pt" height="155pt"
 viewBox="0.00 0.00 566.00 155.00" xmlns="http://www.w3.org/2000/svg" xmlns:xlink="http://www.w3.org/1999/xlink">
<g id="graph0" class="graph" transform="scale(1 1) rotate(0) translate(4 151)">
<title>EonPlay::AI::SubtitleTranslator::translationFailed</title>
<!-- Node1 -->
<g id="Node000001" class="node">
<title>Node1</title>
<g id="a_Node000001"><a xlink:title=" ">
<polygon fill="#999999" stroke="#666666" points="558,-102 396,-102 396,-72 558,-72 558,-102"/>
<text text-anchor="start" x="404" y="-90" font-family="Helvetica,sans-Serif" font-size="10.00">EonPlay::AI::SubtitleTranslator</text>
<text text-anchor="middle" x="477" y="-79" font-family="Helvetica,sans-Serif" font-size="10.00">::translationFailed</text>
</a>
</g>
</g>
<!-- Node2 -->
<g id="Node000002" class="node">
<title>Node2</title>
<g id="a_Node000002"><a xlink:href="../../d7/d7f/classEonPlay_1_1AI_1_1SubtitleTranslator.html#ab1fb76b7fd56a079189e23e635ea2ef4" target="_top" xlink:title=" ">
<polygon fill="white" stroke="#666666" points="162,-147 0,-147 0,-117 162,-117 162,-147"/>
<text text-anchor="start" x="8" y="-135" font-family="Helvetica,sans-Serif" font-size="10.00">EonPlay::AI::SubtitleTranslator</text>
<text text-anchor="middle" x="81" y="-124" font-family="Helvetica,sans-Serif" font-size="10.00">::translateMultipleFiles</text>
</a>
</g>
</g>
<!-- Node1&#45;&gt;Node2 -->
<g id="edge1_Node000001_Node000002" class="edge">
<title>Node1&#45;&gt;Node2</title>
<g id="a_edge1_Node000001_Node000002"><a xlink:title=" ">
<path fill="none" stroke="#63b8ff" d="M439.3,-106.55C417.04,-117.28 387.68,-129.5 360,-135 294.31,-148.05 218.17,-146.08 162.19,-141.53"/>
<polygon fill="#63b8ff" stroke="#63b8ff" points="440.96,-109.63 448.38,-102.06 437.86,-103.36 440.96,-109.63"/>
</a>
</g>
</g>
<!-- Node3 -->
<g id="Node000003" class="node">
<title>Node3</title>
<g id="a_Node000003"><a xlink:href="../../d7/d7f/classEonPlay_1_1AI_1_1SubtitleTranslator.html#ae6544a134fd22bd9936e948347b4bdc1" target="_top" xlink:title=" ">
<polygon fill="white" stroke="#666666" points="360,-126 198,-126 198,-96 360,-96 360,-126"/>
<text text-anchor="start" x="206" y="-114" font-family="Helvetica,sans-Serif" font-size="10.00">EonPlay::AI::SubtitleTranslator</text>
<text text-anchor="middle" x="279" y="-103" font-family="Helvetica,sans-Serif" font-size="10.00">::translateSubtitleFile</text>
</a>
</g>
</g>
<!-- Node1&#45;&gt;Node3 -->
<g id="edge2_Node000001_Node000003" class="edge">
<title>Node1&#45;&gt;Node3</title>
<g id="a_edge2_Node000001_Node000003"><a xlink:title=" ">
<path fill="none" stroke="#63b8ff" d="M385.92,-98.03C377.3,-99.09 368.59,-100.15 360.07,-101.2"/>
<polygon fill="#63b8ff" stroke="#63b8ff" points="386.5,-101.49 396,-96.8 385.65,-94.54 386.5,-101.49"/>
</a>
</g>
</g>
<!-- Node4 -->
<g id="Node000004" class="node">
<title>Node4</title>
<g id="a_Node000004"><a xlink:href="../../d7/d7f/classEonPlay_1_1AI_1_1SubtitleTranslator.html#a6f80fd71ef46748d3bc1e3e2ed11fcbb" target="_top" xlink:title=" ">
<polygon fill="white" stroke="#666666" points="360,-78 198,-78 198,-48 360,-48 360,-78"/>
<text text-anchor="start" x="206" y="-66" font-family="Helvetica,sans-Serif" font-size="10.00">EonPlay::AI::SubtitleTranslator</text>
<text text-anchor="middle" x="279" y="-55" font-family="Helvetica,sans-Serif" font-size="10.00">::translateText</text>
</a>
</g>
</g>
<!-- Node1&#45;&gt;Node4 -->
<g id="edge4_Node000001_Node000004" class="edge">
<title>Node1&#45;&gt;Node4</title>
<g id="a_edge4_Node000001_Node000004"><a xlink:title=" ">
<path fill="none" stroke="#63b8ff" d="M385.92,-75.97C377.3,-74.91 368.59,-73.85 360.07,-72.8"/>
<polygon fill="#63b8ff" stroke="#63b8ff" points="385.65,-79.46 396,-77.2 386.5,-72.51 385.65,-79.46"/>
</a>
</g>
</g>
<!-- Node5 -->
<g id="Node000005" class="node">
<title>Node5</title>
<g id="a_Node000005"><a xlink:href="../../d7/d7f/classEonPlay_1_1AI_1_1SubtitleTranslator.html#ad80fff529a7eb015b8722191285009af" target="_top" xlink:title=" ">
<polygon fill="white" stroke="#666666" points="360,-30 198,-30 198,0 360,0 360,-30"/>
<text text-anchor="start" x="206" y="-18" font-family="Helvetica,sans-Serif" font-size="10.00">EonPlay::AI::SubtitleTranslator</text>
<text text-anchor="middle" x="279" y="-7" font-family="Helvetica,sans-Serif" font-size="10.00">::translateTextBatch</text>
</a>
</g>
</g>
<!-- Node1&#45;&gt;Node5 -->
<g id="edge5_Node000001_Node000005" class="edge">
<title>Node1&#45;&gt;Node5</title>
<g id="a_edge5_Node000001_Node000005"><a xlink:title=" ">
<path fill="none" stroke="#63b8ff" d="M432.83,-67.92C411.18,-58.66 384.42,-47.69 360,-39 351.39,-35.94 342.18,-32.93 333.17,-30.13"/>
<polygon fill="#63b8ff" stroke="#63b8ff" points="431.52,-71.17 442.09,-71.91 434.29,-64.74 431.52,-71.17"/>
</a>
</g>
</g>
<!-- Node3&#45;&gt;Node2 -->
<g id="edge3_Node000003_Node000002" class="edge">
<title>Node3&#45;&gt;Node2</title>
<g id="a_edge3_Node000003_Node000002"><a xlink:title=" ">
<path fill="none" stroke="#63b8ff" d="M187.92,-120.65C179.3,-121.58 170.59,-122.51 162.07,-123.42"/>
<polygon fill="#63b8ff" stroke="#63b8ff" points="188.43,-124.12 198,-119.57 187.68,-117.16 188.43,-124.12"/>
</a>
</g>
</g>
</g>
</svg>
