<?xml version="1.0" encoding="UTF-8" standalone="no"?>
<!DOCTYPE svg PUBLIC "-//W3C//DTD SVG 1.1//EN"
 "http://www.w3.org/Graphics/SVG/1.1/DTD/svg11.dtd">
<!-- Generated by graphviz version 2.43.0 (0)
 -->
<!-- Title: EonPlay::AI::SubtitleTranslator::translateSubtitleFile Pages: 1 -->
<svg width="368pt" height="182pt"
 viewBox="0.00 0.00 368.00 182.00" xmlns="http://www.w3.org/2000/svg" xmlns:xlink="http://www.w3.org/1999/xlink">
<g id="graph0" class="graph" transform="scale(1 1) rotate(0) translate(4 178)">
<title>EonPlay::AI::SubtitleTranslator::translateSubtitleFile</title>
<!-- Node1 -->
<g id="Node000001" class="node">
<title>Node1</title>
<g id="a_Node000001"><a xlink:title=" ">
<polygon fill="#999999" stroke="#666666" points="162,-102 0,-102 0,-72 162,-72 162,-102"/>
<text text-anchor="start" x="8" y="-90" font-family="Helvetica,sans-Serif" font-size="10.00">EonPlay::AI::SubtitleTranslator</text>
<text text-anchor="middle" x="81" y="-79" font-family="Helvetica,sans-Serif" font-size="10.00">::translateSubtitleFile</text>
</a>
</g>
</g>
<!-- Node2 -->
<g id="Node000002" class="node">
<title>Node2</title>
<g id="a_Node000002"><a xlink:href="../../d7/d7f/classEonPlay_1_1AI_1_1SubtitleTranslator.html#a8604744c095b4d29bbcd381c1a7aeb72" target="_top" xlink:title=" ">
<polygon fill="white" stroke="#666666" points="360,-174 198,-174 198,-144 360,-144 360,-174"/>
<text text-anchor="start" x="206" y="-162" font-family="Helvetica,sans-Serif" font-size="10.00">EonPlay::AI::SubtitleTranslator</text>
<text text-anchor="middle" x="279" y="-151" font-family="Helvetica,sans-Serif" font-size="10.00">::isServiceAvailable</text>
</a>
</g>
</g>
<!-- Node1&#45;&gt;Node2 -->
<g id="edge1_Node000001_Node000002" class="edge">
<title>Node1&#45;&gt;Node2</title>
<g id="a_edge1_Node000001_Node000002"><a xlink:title=" ">
<path fill="none" stroke="#63b8ff" d="M115.91,-102.09C138.85,-112.04 169.97,-125.03 198,-135 203.51,-136.96 209.28,-138.9 215.07,-140.78"/>
<polygon fill="#63b8ff" stroke="#63b8ff" points="214.24,-144.18 224.83,-143.87 216.35,-137.51 214.24,-144.18"/>
</a>
</g>
</g>
<!-- Node3 -->
<g id="Node000003" class="node">
<title>Node3</title>
<g id="a_Node000003"><a xlink:href="../../d7/d7f/classEonPlay_1_1AI_1_1SubtitleTranslator.html#a41e7020f8ae5c9e0d685a1b4b7346bae" target="_top" xlink:title=" ">
<polygon fill="white" stroke="#666666" points="360,-126 198,-126 198,-96 360,-96 360,-126"/>
<text text-anchor="start" x="206" y="-114" font-family="Helvetica,sans-Serif" font-size="10.00">EonPlay::AI::SubtitleTranslator</text>
<text text-anchor="middle" x="279" y="-103" font-family="Helvetica,sans-Serif" font-size="10.00">::translationFailed</text>
</a>
</g>
</g>
<!-- Node1&#45;&gt;Node3 -->
<g id="edge2_Node000001_Node000003" class="edge">
<title>Node1&#45;&gt;Node3</title>
<g id="a_edge2_Node000001_Node000003"><a xlink:title=" ">
<path fill="none" stroke="#63b8ff" d="M162,-96.8C170.52,-97.84 179.23,-98.91 187.86,-99.96"/>
<polygon fill="#63b8ff" stroke="#63b8ff" points="187.58,-103.45 197.93,-101.2 188.43,-96.51 187.58,-103.45"/>
</a>
</g>
</g>
<!-- Node4 -->
<g id="Node000004" class="node">
<title>Node4</title>
<g id="a_Node000004"><a xlink:href="../../d7/d7f/classEonPlay_1_1AI_1_1SubtitleTranslator.html#a78946b11a801dad44e47d26463a57701" target="_top" xlink:title=" ">
<polygon fill="white" stroke="#666666" points="360,-78 198,-78 198,-48 360,-48 360,-78"/>
<text text-anchor="start" x="206" y="-66" font-family="Helvetica,sans-Serif" font-size="10.00">EonPlay::AI::SubtitleTranslator</text>
<text text-anchor="middle" x="279" y="-55" font-family="Helvetica,sans-Serif" font-size="10.00">::translationProgress</text>
</a>
</g>
</g>
<!-- Node1&#45;&gt;Node4 -->
<g id="edge3_Node000001_Node000004" class="edge">
<title>Node1&#45;&gt;Node4</title>
<g id="a_edge3_Node000001_Node000004"><a xlink:title=" ">
<path fill="none" stroke="#63b8ff" d="M162,-77.2C170.52,-76.16 179.23,-75.09 187.86,-74.04"/>
<polygon fill="#63b8ff" stroke="#63b8ff" points="188.43,-77.49 197.93,-72.8 187.58,-70.55 188.43,-77.49"/>
</a>
</g>
</g>
<!-- Node5 -->
<g id="Node000005" class="node">
<title>Node5</title>
<g id="a_Node000005"><a xlink:href="../../d7/d7f/classEonPlay_1_1AI_1_1SubtitleTranslator.html#a1d7685f7e7f82d3d1c3c3eda69ff7d8f" target="_top" xlink:title=" ">
<polygon fill="white" stroke="#666666" points="360,-30 198,-30 198,0 360,0 360,-30"/>
<text text-anchor="start" x="206" y="-18" font-family="Helvetica,sans-Serif" font-size="10.00">EonPlay::AI::SubtitleTranslator</text>
<text text-anchor="middle" x="279" y="-7" font-family="Helvetica,sans-Serif" font-size="10.00">::translationStarted</text>
</a>
</g>
</g>
<!-- Node1&#45;&gt;Node5 -->
<g id="edge4_Node000001_Node000005" class="edge">
<title>Node1&#45;&gt;Node5</title>
<g id="a_edge4_Node000001_Node000005"><a xlink:title=" ">
<path fill="none" stroke="#63b8ff" d="M115.91,-71.91C138.85,-61.96 169.97,-48.97 198,-39 203.51,-37.04 209.28,-35.1 215.07,-33.22"/>
<polygon fill="#63b8ff" stroke="#63b8ff" points="216.35,-36.49 224.83,-30.13 214.24,-29.82 216.35,-36.49"/>
</a>
</g>
</g>
</g>
</svg>
