<?xml version="1.0" encoding="UTF-8" standalone="no"?>
<!DOCTYPE svg PUBLIC "-//W3C//DTD SVG 1.1//EN"
 "http://www.w3.org/Graphics/SVG/1.1/DTD/svg11.dtd">
<!-- Generated by graphviz version 2.43.0 (0)
 -->
<!-- Title: EonPlay::AI::SubtitleTranslator::translateMultipleFiles Pages: 1 -->
<svg width="566pt" height="182pt"
 viewBox="0.00 0.00 566.00 182.00" xmlns="http://www.w3.org/2000/svg" xmlns:xlink="http://www.w3.org/1999/xlink">
<g id="graph0" class="graph" transform="scale(1 1) rotate(0) translate(4 178)">
<title>EonPlay::AI::SubtitleTranslator::translateMultipleFiles</title>
<!-- Node1 -->
<g id="Node000001" class="node">
<title>Node1</title>
<g id="a_Node000001"><a xlink:title=" ">
<polygon fill="#999999" stroke="#666666" points="162,-148 0,-148 0,-118 162,-118 162,-148"/>
<text text-anchor="start" x="8" y="-136" font-family="Helvetica,sans-Serif" font-size="10.00">EonPlay::AI::SubtitleTranslator</text>
<text text-anchor="middle" x="81" y="-125" font-family="Helvetica,sans-Serif" font-size="10.00">::translateMultipleFiles</text>
</a>
</g>
</g>
<!-- Node2 -->
<g id="Node000002" class="node">
<title>Node2</title>
<g id="a_Node000002"><a xlink:href="../../d7/d7f/classEonPlay_1_1AI_1_1SubtitleTranslator.html#ae6544a134fd22bd9936e948347b4bdc1" target="_top" xlink:title=" ">
<polygon fill="white" stroke="#666666" points="360,-126 198,-126 198,-96 360,-96 360,-126"/>
<text text-anchor="start" x="206" y="-114" font-family="Helvetica,sans-Serif" font-size="10.00">EonPlay::AI::SubtitleTranslator</text>
<text text-anchor="middle" x="279" y="-103" font-family="Helvetica,sans-Serif" font-size="10.00">::translateSubtitleFile</text>
</a>
</g>
</g>
<!-- Node1&#45;&gt;Node2 -->
<g id="edge1_Node000001_Node000002" class="edge">
<title>Node1&#45;&gt;Node2</title>
<g id="a_edge1_Node000001_Node000002"><a xlink:title=" ">
<path fill="none" stroke="#63b8ff" d="M162,-124.02C170.52,-123.06 179.23,-122.09 187.86,-121.12"/>
<polygon fill="#63b8ff" stroke="#63b8ff" points="188.39,-124.58 197.93,-119.99 187.61,-117.62 188.39,-124.58"/>
</a>
</g>
</g>
<!-- Node4 -->
<g id="Node000004" class="node">
<title>Node4</title>
<g id="a_Node000004"><a xlink:href="../../d7/d7f/classEonPlay_1_1AI_1_1SubtitleTranslator.html#a41e7020f8ae5c9e0d685a1b4b7346bae" target="_top" xlink:title=" ">
<polygon fill="white" stroke="#666666" points="558,-174 396,-174 396,-144 558,-144 558,-174"/>
<text text-anchor="start" x="404" y="-162" font-family="Helvetica,sans-Serif" font-size="10.00">EonPlay::AI::SubtitleTranslator</text>
<text text-anchor="middle" x="477" y="-151" font-family="Helvetica,sans-Serif" font-size="10.00">::translationFailed</text>
</a>
</g>
</g>
<!-- Node1&#45;&gt;Node4 -->
<g id="edge6_Node000001_Node000004" class="edge">
<title>Node1&#45;&gt;Node4</title>
<g id="a_edge6_Node000001_Node000004"><a xlink:title=" ">
<path fill="none" stroke="#63b8ff" d="M162.21,-138.29C227.05,-142.57 318.32,-148.59 385.72,-153.04"/>
<polygon fill="#63b8ff" stroke="#63b8ff" points="385.7,-156.55 395.91,-153.71 386.16,-149.56 385.7,-156.55"/>
</a>
</g>
</g>
<!-- Node3 -->
<g id="Node000003" class="node">
<title>Node3</title>
<g id="a_Node000003"><a xlink:href="../../d7/d7f/classEonPlay_1_1AI_1_1SubtitleTranslator.html#a8604744c095b4d29bbcd381c1a7aeb72" target="_top" xlink:title=" ">
<polygon fill="white" stroke="#666666" points="558,-126 396,-126 396,-96 558,-96 558,-126"/>
<text text-anchor="start" x="404" y="-114" font-family="Helvetica,sans-Serif" font-size="10.00">EonPlay::AI::SubtitleTranslator</text>
<text text-anchor="middle" x="477" y="-103" font-family="Helvetica,sans-Serif" font-size="10.00">::isServiceAvailable</text>
</a>
</g>
</g>
<!-- Node2&#45;&gt;Node3 -->
<g id="edge2_Node000002_Node000003" class="edge">
<title>Node2&#45;&gt;Node3</title>
<g id="a_edge2_Node000002_Node000003"><a xlink:title=" ">
<path fill="none" stroke="#63b8ff" d="M360,-111C368.52,-111 377.23,-111 385.86,-111"/>
<polygon fill="#63b8ff" stroke="#63b8ff" points="385.93,-114.5 395.93,-111 385.93,-107.5 385.93,-114.5"/>
</a>
</g>
</g>
<!-- Node2&#45;&gt;Node4 -->
<g id="edge3_Node000002_Node000004" class="edge">
<title>Node2&#45;&gt;Node4</title>
<g id="a_edge3_Node000002_Node000004"><a xlink:title=" ">
<path fill="none" stroke="#63b8ff" d="M341.48,-126.06C361.64,-130.99 384.2,-136.52 405.01,-141.61"/>
<polygon fill="#63b8ff" stroke="#63b8ff" points="404.19,-145.02 414.74,-144 405.86,-138.22 404.19,-145.02"/>
</a>
</g>
</g>
<!-- Node5 -->
<g id="Node000005" class="node">
<title>Node5</title>
<g id="a_Node000005"><a xlink:href="../../d7/d7f/classEonPlay_1_1AI_1_1SubtitleTranslator.html#a78946b11a801dad44e47d26463a57701" target="_top" xlink:title=" ">
<polygon fill="white" stroke="#666666" points="558,-78 396,-78 396,-48 558,-48 558,-78"/>
<text text-anchor="start" x="404" y="-66" font-family="Helvetica,sans-Serif" font-size="10.00">EonPlay::AI::SubtitleTranslator</text>
<text text-anchor="middle" x="477" y="-55" font-family="Helvetica,sans-Serif" font-size="10.00">::translationProgress</text>
</a>
</g>
</g>
<!-- Node2&#45;&gt;Node5 -->
<g id="edge4_Node000002_Node000005" class="edge">
<title>Node2&#45;&gt;Node5</title>
<g id="a_edge4_Node000002_Node000005"><a xlink:title=" ">
<path fill="none" stroke="#63b8ff" d="M341.48,-95.94C361.64,-91.01 384.2,-85.48 405.01,-80.39"/>
<polygon fill="#63b8ff" stroke="#63b8ff" points="405.86,-83.78 414.74,-78 404.19,-76.98 405.86,-83.78"/>
</a>
</g>
</g>
<!-- Node6 -->
<g id="Node000006" class="node">
<title>Node6</title>
<g id="a_Node000006"><a xlink:href="../../d7/d7f/classEonPlay_1_1AI_1_1SubtitleTranslator.html#a1d7685f7e7f82d3d1c3c3eda69ff7d8f" target="_top" xlink:title=" ">
<polygon fill="white" stroke="#666666" points="558,-30 396,-30 396,0 558,0 558,-30"/>
<text text-anchor="start" x="404" y="-18" font-family="Helvetica,sans-Serif" font-size="10.00">EonPlay::AI::SubtitleTranslator</text>
<text text-anchor="middle" x="477" y="-7" font-family="Helvetica,sans-Serif" font-size="10.00">::translationStarted</text>
</a>
</g>
</g>
<!-- Node2&#45;&gt;Node6 -->
<g id="edge5_Node000002_Node000006" class="edge">
<title>Node2&#45;&gt;Node6</title>
<g id="a_edge5_Node000002_Node000006"><a xlink:title=" ">
<path fill="none" stroke="#63b8ff" d="M300.45,-95.98C322.92,-80.03 360.56,-54.97 396,-39 400.32,-37.05 404.83,-35.21 409.43,-33.48"/>
<polygon fill="#63b8ff" stroke="#63b8ff" points="410.7,-36.75 418.94,-30.09 408.34,-30.16 410.7,-36.75"/>
</a>
</g>
</g>
</g>
</svg>
