<?xml version="1.0" encoding="UTF-8" standalone="no"?>
<!DOCTYPE svg PUBLIC "-//W3C//DTD SVG 1.1//EN"
 "http://www.w3.org/Graphics/SVG/1.1/DTD/svg11.dtd">
<!-- Generated by graphviz version 2.43.0 (0)
 -->
<!-- Title: EonPlayApplication::EonPlayApplication Pages: 1 -->
<!--zoomable 166 -->

<svg id="main" version="1.1" xmlns="http://www.w3.org/2000/svg" xmlns:xlink="http://www.w3.org/1999/xlink" xml:space="preserve" onload="init(evt)">
<style type="text/css"><![CDATA[
.node, .edge {opacity: 0.7;}
.node.selected, .edge.selected {opacity: 1;}
.edge:hover path { stroke: red; }
.edge:hover polygon { stroke: red; fill: red; }
]]></style>

<defs>
  <circle id="rim" cx="0" cy="0" r="7"/>
  <circle id="rim2" cx="0" cy="0" r="3.5"/>
  <g id="zoomPlus">
    <use xlink:href="#rim" fill="#404040"><set attributeName="fill" to="#808080" begin="zoomplus.mouseover" end="zoomplus.mouseout"/></use>
    <path d="M-4,0h8M0,-4v8" fill="none" stroke="white" stroke-width="1.5" pointer-events="none"/>
  </g>
  <g id="zoomMin">
    <use xlink:href="#rim" fill="#404040"><set attributeName="fill" to="#808080" begin="zoomminus.mouseover" end="zoomminus.mouseout"/></use>
    <path d="M-4,0h8" fill="none" stroke="white" stroke-width="1.5" pointer-events="none"/>
  </g>
  <g id="arrowUp" transform="translate(30 24)">
    <use xlink:href="#rim"/>
    <path pointer-events="none" fill="none" stroke="white" stroke-width="1.5" d="M0,-3.0v7 M-2.5,-0.5L0,-3.0L2.5,-0.5"/>
  </g>
  <g id="arrowRight" transform="rotate(90) translate(36 -43)">
    <use xlink:href="#rim"/>
    <path pointer-events="none" fill="none" stroke="white" stroke-width="1.5" d="M0,-3.0v7 M-2.5,-0.5L0,-3.0L2.5,-0.5"/>
  </g>
  <g id="arrowDown" transform="rotate(180) translate(-30 -48)">
    <use xlink:href="#rim"/>
    <path pointer-events="none" fill="none" stroke="white" stroke-width="1.5" d="M0,-3.0v7 M-2.5,-0.5L0,-3.0L2.5,-0.5"/>
  </g>
  <g id="arrowLeft" transform="rotate(270) translate(-36 17)">
    <use xlink:href="#rim"/>
    <path pointer-events="none" fill="none" stroke="white" stroke-width="1.5" d="M0,-3.0v7 M-2.5,-0.5L0,-3.0L2.5,-0.5"/>
  </g>
  <g id="resetDef">
    <use xlink:href="#rim2" fill="#404040"><set attributeName="fill" to="#808080" begin="reset.mouseover" end="reset.mouseout"/></use>
  </g>
</defs>
<script type="application/ecmascript">
var viewWidth = 536;
var viewHeight = 166;
var sectionId = 'dynsection-2';
</script>
<script type="application/ecmascript" xlink:href="../../svg.min.js"/>
<svg id="graph" class="graph">
<g id="viewport">
<title>EonPlayApplication::EonPlayApplication</title>
<!-- Node1 -->
<g id="Node000001" class="node">
<title>Node1</title>
<g id="a_Node000001"><a xlink:title=" ">
<polygon fill="#999999" stroke="#666666" points="116,-109.5 0,-109.5 0,-79.5 116,-79.5 116,-109.5"/>
<text text-anchor="start" x="8" y="-97.5" font-family="Helvetica,sans-Serif" font-size="10.00">EonPlayApplication</text>
<text text-anchor="middle" x="58" y="-86.5" font-family="Helvetica,sans-Serif" font-size="10.00">::EonPlayApplication</text>
</a>
</g>
</g>
<!-- Node2 -->
<g id="Node000002" class="node">
<title>Node2</title>
<g id="a_Node000002"><a xlink:href="../../da/d51/classComponentManager.html#a14d464e5826e2f56ebb9656a45bab9b5" target="_top" xlink:title="Emitted when all components are initialized.">
<polygon fill="white" stroke="#666666" points="347,-157.5 152,-157.5 152,-127.5 347,-127.5 347,-157.5"/>
<text text-anchor="start" x="160" y="-145.5" font-family="Helvetica,sans-Serif" font-size="10.00">ComponentManager::allComponents</text>
<text text-anchor="middle" x="249.5" y="-134.5" font-family="Helvetica,sans-Serif" font-size="10.00">Initialized</text>
</a>
</g>
</g>
<!-- Node1&#45;&gt;Node2 -->
<g id="edge1_Node000001_Node000002" class="edge">
<title>Node1&#45;&gt;Node2</title>
<g id="a_edge1_Node000001_Node000002"><a xlink:title=" ">
<path fill="none" stroke="#63b8ff" d="M116.03,-109.3C127.91,-112.36 140.36,-115.55 152,-118.5 160.39,-120.63 169.19,-122.84 177.93,-125.02"/>
<polygon fill="#63b8ff" stroke="#63b8ff" points="177.19,-128.45 187.74,-127.47 178.88,-121.66 177.19,-128.45"/>
</a>
</g>
</g>
<!-- Node3 -->
<g id="Node000003" class="node">
<title>Node3</title>
<g id="a_Node000003"><a xlink:href="../../da/d51/classComponentManager.html#a29c3007a5e33c40d35ff281bb0f1205e" target="_top" xlink:title="Emitted when a component fails to initialize.">
<polygon fill="white" stroke="#666666" points="337.5,-109.5 161.5,-109.5 161.5,-79.5 337.5,-79.5 337.5,-109.5"/>
<text text-anchor="start" x="169.5" y="-97.5" font-family="Helvetica,sans-Serif" font-size="10.00">ComponentManager::component</text>
<text text-anchor="middle" x="249.5" y="-86.5" font-family="Helvetica,sans-Serif" font-size="10.00">InitializationFailed</text>
</a>
</g>
</g>
<!-- Node1&#45;&gt;Node3 -->
<g id="edge2_Node000001_Node000003" class="edge">
<title>Node1&#45;&gt;Node3</title>
<g id="a_edge2_Node000001_Node000003"><a xlink:title=" ">
<path fill="none" stroke="#63b8ff" d="M116.11,-94.5C127.27,-94.5 139.25,-94.5 151.29,-94.5"/>
<polygon fill="#63b8ff" stroke="#63b8ff" points="151.39,-98 161.39,-94.5 151.39,-91 151.39,-98"/>
</a>
</g>
</g>
<!-- Node4 -->
<g id="Node000004" class="node">
<title>Node4</title>
<g id="a_Node000004"><a xlink:href="../../d2/d38/classEonPlayApplication.html#a384a6adbdeb2583a1712a525348bf939" target="_top" xlink:title="Gracefully shutdown EonPlay.">
<polygon fill="white" stroke="#666666" points="304.5,-61.5 194.5,-61.5 194.5,-31.5 304.5,-31.5 304.5,-61.5"/>
<text text-anchor="start" x="202.5" y="-49.5" font-family="Helvetica,sans-Serif" font-size="10.00">EonPlayApplication</text>
<text text-anchor="middle" x="249.5" y="-38.5" font-family="Helvetica,sans-Serif" font-size="10.00">::shutdown</text>
</a>
</g>
</g>
<!-- Node1&#45;&gt;Node4 -->
<g id="edge3_Node000001_Node000004" class="edge">
<title>Node1&#45;&gt;Node4</title>
<g id="a_edge3_Node000001_Node000004"><a xlink:title=" ">
<path fill="none" stroke="#63b8ff" d="M116.03,-79.7C127.91,-76.64 140.36,-73.45 152,-70.5 162.51,-67.84 173.66,-65.04 184.52,-62.33"/>
<polygon fill="#63b8ff" stroke="#63b8ff" points="185.52,-65.69 194.38,-59.87 183.83,-58.89 185.52,-65.69"/>
</a>
</g>
</g>
<!-- Node5 -->
<g id="Node000005" class="node">
<title>Node5</title>
<g id="a_Node000005"><a xlink:href="../../d2/d38/classEonPlayApplication.html#ab7042fdb2e8a993af3716156ba5038c3" target="_top" xlink:title="Emitted when EonPlay shutdown begins.">
<polygon fill="white" stroke="#666666" points="528,-104.5 383,-104.5 383,-74.5 528,-74.5 528,-104.5"/>
<text text-anchor="start" x="391" y="-92.5" font-family="Helvetica,sans-Serif" font-size="10.00">EonPlayApplication</text>
<text text-anchor="middle" x="455.5" y="-81.5" font-family="Helvetica,sans-Serif" font-size="10.00">::applicationShuttingDown</text>
</a>
</g>
</g>
<!-- Node4&#45;&gt;Node5 -->
<g id="edge4_Node000004_Node000005" class="edge">
<title>Node4&#45;&gt;Node5</title>
<g id="a_edge4_Node000004_Node000005"><a xlink:title=" ">
<path fill="none" stroke="#63b8ff" d="M304.63,-57.91C325.7,-62.35 350.3,-67.54 373.4,-72.4"/>
<polygon fill="#63b8ff" stroke="#63b8ff" points="372.68,-75.83 383.19,-74.47 374.13,-68.98 372.68,-75.83"/>
</a>
</g>
</g>
<!-- Node6 -->
<g id="Node000006" class="node">
<title>Node6</title>
<g id="a_Node000006"><a xlink:href="../../d3/d4f/classEventBus.html#ab628daa9a218728977fc71ddf09389dc" target="_top" xlink:title="Clear all subscriptions.">
<polygon fill="white" stroke="#666666" points="501.5,-56 409.5,-56 409.5,-37 501.5,-37 501.5,-56"/>
<text text-anchor="middle" x="455.5" y="-44" font-family="Helvetica,sans-Serif" font-size="10.00">EventBus::clear</text>
</a>
</g>
</g>
<!-- Node4&#45;&gt;Node6 -->
<g id="edge5_Node000004_Node000006" class="edge">
<title>Node4&#45;&gt;Node6</title>
<g id="a_edge5_Node000004_Node000006"><a xlink:title=" ">
<path fill="none" stroke="#63b8ff" d="M304.63,-46.5C333.88,-46.5 369.92,-46.5 399.33,-46.5"/>
<polygon fill="#63b8ff" stroke="#63b8ff" points="399.43,-50 409.43,-46.5 399.43,-43 399.43,-50"/>
</a>
</g>
</g>
<!-- Node7 -->
<g id="Node000007" class="node">
<title>Node7</title>
<g id="a_Node000007"><a xlink:href="../../d3/d4f/classEventBus.html#a54f74b6e60e93f5d6bcaaf184318fa14" target="_top" xlink:title=" ">
<polygon fill="white" stroke="#666666" points="510.5,-19 400.5,-19 400.5,0 510.5,0 510.5,-19"/>
<text text-anchor="middle" x="455.5" y="-7" font-family="Helvetica,sans-Serif" font-size="10.00">EventBus::instance</text>
</a>
</g>
</g>
<!-- Node4&#45;&gt;Node7 -->
<g id="edge6_Node000004_Node000007" class="edge">
<title>Node4&#45;&gt;Node7</title>
<g id="a_edge6_Node000004_Node000007"><a xlink:title=" ">
<path fill="none" stroke="#63b8ff" d="M304.63,-36.68C331.44,-31.82 363.95,-25.92 391.84,-20.87"/>
<polygon fill="#63b8ff" stroke="#63b8ff" points="392.66,-24.27 401.88,-19.04 391.41,-17.38 392.66,-24.27"/>
</a>
</g>
</g>
</g>
</svg>

<g id="navigator" transform="translate(0 0)" fill="#404254">
  <rect fill="#f2f5e9" fill-opacity="0.5" stroke="#606060" stroke-width=".5" x="0" y="0" width="60" height="60"/>
  <use id="zoomplus" xlink:href="#zoomPlus" x="17" y="9" onmousedown="handleZoom(evt,'in')"/>
  <use id="zoomminus" xlink:href="#zoomMin" x="42" y="9" onmousedown="handleZoom(evt,'out')"/>
  <use id="reset" xlink:href="#resetDef" x="30" y="36" onmousedown="handleReset()"/>
   <use id="arrowup" xlink:href="#arrowUp" x="0" y="0" onmousedown="handlePan(0,-1)"/>
  <use id="arrowright" xlink:href="#arrowRight" x="0" y="0" onmousedown="handlePan(1,0)"/>
  <use id="arrowdown" xlink:href="#arrowDown" x="0" y="0" onmousedown="handlePan(0,1)"/>
  <use id="arrowleft" xlink:href="#arrowLeft" x="0" y="0" onmousedown="handlePan(-1,0)"/>
</g>
<svg viewBox="0 0 15 15" width="100%" height="30px" preserveAspectRatio="xMaxYMin meet">
 <g id="arrow_out" transform="scale(0.3 0.3)">
  <a xlink:href="classEonPlayApplication_a4332862d2af1b77d083be91c08c8a583_cgraph_org.svg" target="_base">
   <rect id="button" ry="5" rx="5" y="6" x="6" height="38" width="38"
        fill="#f2f5e9" fill-opacity="0.5" stroke="#606060" stroke-width="1.0"/>
   <path id="arrow"
     d="M 11.500037,31.436501 C 11.940474,20.09759 22.043105,11.32322 32.158766,21.979434 L 37.068811,17.246167 C 37.068811,17.246167 37.088388,32 37.088388,32 L 22.160133,31.978069 C 22.160133,31.978069 26.997745,27.140456 26.997745,27.140456 C 18.528582,18.264221 13.291696,25.230495 11.500037,31.436501 z"
     style="fill:#404040;"/>
  </a>
 </g>
</svg>

<style type='text/css'>
<![CDATA[
[data-mouse-over-selected='false'] { opacity: 0.7; }
[data-mouse-over-selected='true']  { opacity: 1.0; }
]]>
</style>
<script type="application/ecmascript"><![CDATA[
document.addEventListener('DOMContentLoaded', (event) => {
  highlightEdges();
  highlightAdjacentNodes();
});
]]></script>
</svg>
