<?xml version="1.0" encoding="UTF-8" standalone="no"?>
<!DOCTYPE svg PUBLIC "-//W3C//DTD SVG 1.1//EN"
 "http://www.w3.org/Graphics/SVG/1.1/DTD/svg11.dtd">
<!-- Generated by graphviz version 2.43.0 (0)
 -->
<!-- Title: src/ui/AudioProcessorWidget.cpp Pages: 1 -->
<!--zoomable 192 -->

<svg id="main" version="1.1" xmlns="http://www.w3.org/2000/svg" xmlns:xlink="http://www.w3.org/1999/xlink" xml:space="preserve" onload="init(evt)">
<style type="text/css"><![CDATA[
.node, .edge {opacity: 0.7;}
.node.selected, .edge.selected {opacity: 1;}
.edge:hover path { stroke: red; }
.edge:hover polygon { stroke: red; fill: red; }
]]></style>

<defs>
  <circle id="rim" cx="0" cy="0" r="7"/>
  <circle id="rim2" cx="0" cy="0" r="3.5"/>
  <g id="zoomPlus">
    <use xlink:href="#rim" fill="#404040"><set attributeName="fill" to="#808080" begin="zoomplus.mouseover" end="zoomplus.mouseout"/></use>
    <path d="M-4,0h8M0,-4v8" fill="none" stroke="white" stroke-width="1.5" pointer-events="none"/>
  </g>
  <g id="zoomMin">
    <use xlink:href="#rim" fill="#404040"><set attributeName="fill" to="#808080" begin="zoomminus.mouseover" end="zoomminus.mouseout"/></use>
    <path d="M-4,0h8" fill="none" stroke="white" stroke-width="1.5" pointer-events="none"/>
  </g>
  <g id="arrowUp" transform="translate(30 24)">
    <use xlink:href="#rim"/>
    <path pointer-events="none" fill="none" stroke="white" stroke-width="1.5" d="M0,-3.0v7 M-2.5,-0.5L0,-3.0L2.5,-0.5"/>
  </g>
  <g id="arrowRight" transform="rotate(90) translate(36 -43)">
    <use xlink:href="#rim"/>
    <path pointer-events="none" fill="none" stroke="white" stroke-width="1.5" d="M0,-3.0v7 M-2.5,-0.5L0,-3.0L2.5,-0.5"/>
  </g>
  <g id="arrowDown" transform="rotate(180) translate(-30 -48)">
    <use xlink:href="#rim"/>
    <path pointer-events="none" fill="none" stroke="white" stroke-width="1.5" d="M0,-3.0v7 M-2.5,-0.5L0,-3.0L2.5,-0.5"/>
  </g>
  <g id="arrowLeft" transform="rotate(270) translate(-36 17)">
    <use xlink:href="#rim"/>
    <path pointer-events="none" fill="none" stroke="white" stroke-width="1.5" d="M0,-3.0v7 M-2.5,-0.5L0,-3.0L2.5,-0.5"/>
  </g>
  <g id="resetDef">
    <use xlink:href="#rim2" fill="#404040"><set attributeName="fill" to="#808080" begin="reset.mouseover" end="reset.mouseout"/></use>
  </g>
</defs>
<script type="application/ecmascript">
var viewWidth = 1782;
var viewHeight = 192;
var sectionId = 'dynsection-0';
</script>
<script type="application/ecmascript" xlink:href="../../svg.min.js"/>
<svg id="graph" class="graph">
<g id="viewport">
<title>src/ui/AudioProcessorWidget.cpp</title>
<!-- Node1 -->
<g id="Node000001" class="node">
<title>Node1</title>
<g id="a_Node000001"><a xlink:title=" ">
<polygon fill="#999999" stroke="#666666" points="1049.5,-184 873.5,-184 873.5,-165 1049.5,-165 1049.5,-184"/>
<text text-anchor="middle" x="961.5" y="-172" font-family="Helvetica,sans-Serif" font-size="10.00">src/ui/AudioProcessorWidget.cpp</text>
</a>
</g>
</g>
<!-- Node2 -->
<g id="Node000002" class="node">
<title>Node2</title>
<g id="a_Node000002"><a xlink:href="../../dd/db5/AudioProcessorWidget_8h.html" target="_top" xlink:title=" ">
<polygon fill="white" stroke="#666666" points="809,-129 662,-129 662,-110 809,-110 809,-129"/>
<text text-anchor="middle" x="735.5" y="-117" font-family="Helvetica,sans-Serif" font-size="10.00">ui/AudioProcessorWidget.h</text>
</a>
</g>
</g>
<!-- Node1&#45;&gt;Node2 -->
<g id="edge1_Node000001_Node000002" class="edge">
<title>Node1&#45;&gt;Node2</title>
<g id="a_edge1_Node000001_Node000002"><a xlink:title=" ">
<path fill="none" stroke="#63b8ff" d="M925.19,-164.98C886.26,-155.86 824.34,-141.33 781.9,-131.38"/>
<polygon fill="#63b8ff" stroke="#63b8ff" points="782.63,-127.96 772.1,-129.08 781.03,-134.77 782.63,-127.96"/>
</a>
</g>
</g>
<!-- Node26 -->
<g id="Node000026" class="node">
<title>Node26</title>
<g id="a_Node000026"><a xlink:title=" ">
<polygon fill="#e0e0e0" stroke="#999999" points="900,-129 827,-129 827,-110 900,-110 900,-129"/>
<text text-anchor="middle" x="863.5" y="-117" font-family="Helvetica,sans-Serif" font-size="10.00">QFileDialog</text>
</a>
</g>
</g>
<!-- Node1&#45;&gt;Node26 -->
<g id="edge26_Node000001_Node000026" class="edge">
<title>Node1&#45;&gt;Node26</title>
<g id="a_edge26_Node000001_Node000026"><a xlink:title=" ">
<path fill="none" stroke="#63b8ff" d="M945.75,-164.98C930.27,-156.61 906.41,-143.7 888.36,-133.95"/>
<polygon fill="#63b8ff" stroke="#63b8ff" points="889.99,-130.85 879.53,-129.17 886.66,-137.01 889.99,-130.85"/>
</a>
</g>
</g>
<!-- Node27 -->
<g id="Node000027" class="node">
<title>Node27</title>
<g id="a_Node000027"><a xlink:title=" ">
<polygon fill="#e0e0e0" stroke="#999999" points="1004.5,-129 918.5,-129 918.5,-110 1004.5,-110 1004.5,-129"/>
<text text-anchor="middle" x="961.5" y="-117" font-family="Helvetica,sans-Serif" font-size="10.00">QMessageBox</text>
</a>
</g>
</g>
<!-- Node1&#45;&gt;Node27 -->
<g id="edge27_Node000001_Node000027" class="edge">
<title>Node1&#45;&gt;Node27</title>
<g id="a_edge27_Node000001_Node000027"><a xlink:title=" ">
<path fill="none" stroke="#63b8ff" d="M961.5,-164.75C961.5,-157.8 961.5,-147.85 961.5,-139.13"/>
<polygon fill="#63b8ff" stroke="#63b8ff" points="965,-139.09 961.5,-129.09 958,-139.09 965,-139.09"/>
</a>
</g>
</g>
<!-- Node28 -->
<g id="Node000028" class="node">
<title>Node28</title>
<g id="a_Node000028"><a xlink:title=" ">
<polygon fill="#e0e0e0" stroke="#999999" points="1116.5,-129 1022.5,-129 1022.5,-110 1116.5,-110 1116.5,-129"/>
<text text-anchor="middle" x="1069.5" y="-117" font-family="Helvetica,sans-Serif" font-size="10.00">QStandardPaths</text>
</a>
</g>
</g>
<!-- Node1&#45;&gt;Node28 -->
<g id="edge28_Node000001_Node000028" class="edge">
<title>Node1&#45;&gt;Node28</title>
<g id="a_edge28_Node000001_Node000028"><a xlink:title=" ">
<path fill="none" stroke="#63b8ff" d="M978.85,-164.98C996.07,-156.54 1022.7,-143.47 1042.65,-133.68"/>
<polygon fill="#63b8ff" stroke="#63b8ff" points="1044.4,-136.72 1051.83,-129.17 1041.31,-130.43 1044.4,-136.72"/>
</a>
</g>
</g>
<!-- Node29 -->
<g id="Node000029" class="node">
<title>Node29</title>
<g id="a_Node000029"><a xlink:title=" ">
<polygon fill="#e0e0e0" stroke="#999999" points="1242,-129 1135,-129 1135,-110 1242,-110 1242,-129"/>
<text text-anchor="middle" x="1188.5" y="-117" font-family="Helvetica,sans-Serif" font-size="10.00">QLoggingCategory</text>
</a>
</g>
</g>
<!-- Node1&#45;&gt;Node29 -->
<g id="edge29_Node000001_Node000029" class="edge">
<title>Node1&#45;&gt;Node29</title>
<g id="a_edge29_Node000001_Node000029"><a xlink:title=" ">
<path fill="none" stroke="#63b8ff" d="M997.97,-164.98C1037.07,-155.86 1099.27,-141.33 1141.89,-131.38"/>
<polygon fill="#63b8ff" stroke="#63b8ff" points="1142.8,-134.76 1151.74,-129.08 1141.21,-127.95 1142.8,-134.76"/>
</a>
</g>
</g>
<!-- Node3 -->
<g id="Node000003" class="node">
<title>Node3</title>
<g id="a_Node000003"><a xlink:title=" ">
<polygon fill="#e0e0e0" stroke="#999999" points="59,-74 0,-74 0,-55 59,-55 59,-74"/>
<text text-anchor="middle" x="29.5" y="-62" font-family="Helvetica,sans-Serif" font-size="10.00">QWidget</text>
</a>
</g>
</g>
<!-- Node2&#45;&gt;Node3 -->
<g id="edge2_Node000002_Node000003" class="edge">
<title>Node2&#45;&gt;Node3</title>
<g id="a_edge2_Node000002_Node000003"><a xlink:title=" ">
<path fill="none" stroke="#63b8ff" d="M661.97,-117.29C540.39,-114.47 289.78,-105.24 69.43,-74.07"/>
<polygon fill="#63b8ff" stroke="#63b8ff" points="69.69,-70.57 59.29,-72.62 68.69,-77.5 69.69,-70.57"/>
</a>
</g>
</g>
<!-- Node4 -->
<g id="Node000004" class="node">
<title>Node4</title>
<g id="a_Node000004"><a xlink:title=" ">
<polygon fill="#e0e0e0" stroke="#999999" points="160,-74 77,-74 77,-55 160,-55 160,-74"/>
<text text-anchor="middle" x="118.5" y="-62" font-family="Helvetica,sans-Serif" font-size="10.00">QVBoxLayout</text>
</a>
</g>
</g>
<!-- Node2&#45;&gt;Node4 -->
<g id="edge3_Node000002_Node000004" class="edge">
<title>Node2&#45;&gt;Node4</title>
<g id="a_edge3_Node000002_Node000004"><a xlink:title=" ">
<path fill="none" stroke="#63b8ff" d="M661.89,-114.84C555.5,-109.09 352.39,-96.34 170.23,-74.11"/>
<polygon fill="#63b8ff" stroke="#63b8ff" points="170.55,-70.63 160.2,-72.88 169.7,-77.57 170.55,-70.63"/>
</a>
</g>
</g>
<!-- Node5 -->
<g id="Node000005" class="node">
<title>Node5</title>
<g id="a_Node000005"><a xlink:title=" ">
<polygon fill="#e0e0e0" stroke="#999999" points="261,-74 178,-74 178,-55 261,-55 261,-74"/>
<text text-anchor="middle" x="219.5" y="-62" font-family="Helvetica,sans-Serif" font-size="10.00">QHBoxLayout</text>
</a>
</g>
</g>
<!-- Node2&#45;&gt;Node5 -->
<g id="edge4_Node000002_Node000005" class="edge">
<title>Node2&#45;&gt;Node5</title>
<g id="a_edge4_Node000002_Node000005"><a xlink:title=" ">
<path fill="none" stroke="#63b8ff" d="M661.86,-113.14C572.01,-106.23 415.23,-92.96 271.53,-74.19"/>
<polygon fill="#63b8ff" stroke="#63b8ff" points="271.58,-70.66 261.21,-72.82 270.66,-77.6 271.58,-70.66"/>
</a>
</g>
</g>
<!-- Node6 -->
<g id="Node000006" class="node">
<title>Node6</title>
<g id="a_Node000006"><a xlink:title=" ">
<polygon fill="#e0e0e0" stroke="#999999" points="356,-74 279,-74 279,-55 356,-55 356,-74"/>
<text text-anchor="middle" x="317.5" y="-62" font-family="Helvetica,sans-Serif" font-size="10.00">QGridLayout</text>
</a>
</g>
</g>
<!-- Node2&#45;&gt;Node6 -->
<g id="edge5_Node000002_Node000006" class="edge">
<title>Node2&#45;&gt;Node6</title>
<g id="a_edge5_Node000002_Node000006"><a xlink:title=" ">
<path fill="none" stroke="#63b8ff" d="M661.98,-110.88C589.46,-103.08 475.23,-90.05 366.42,-74.06"/>
<polygon fill="#63b8ff" stroke="#63b8ff" points="366.65,-70.55 356.24,-72.55 365.62,-77.48 366.65,-70.55"/>
</a>
</g>
</g>
<!-- Node7 -->
<g id="Node000007" class="node">
<title>Node7</title>
<g id="a_Node000007"><a xlink:title=" ">
<polygon fill="#e0e0e0" stroke="#999999" points="446.5,-74 374.5,-74 374.5,-55 446.5,-55 446.5,-74"/>
<text text-anchor="middle" x="410.5" y="-62" font-family="Helvetica,sans-Serif" font-size="10.00">QGroupBox</text>
</a>
</g>
</g>
<!-- Node2&#45;&gt;Node7 -->
<g id="edge6_Node000002_Node000007" class="edge">
<title>Node2&#45;&gt;Node7</title>
<g id="a_edge6_Node000002_Node000007"><a xlink:title=" ">
<path fill="none" stroke="#63b8ff" d="M678.84,-109.99C624.44,-101.71 539.67,-88.51 456.91,-74.21"/>
<polygon fill="#63b8ff" stroke="#63b8ff" points="457.28,-70.72 446.83,-72.46 456.09,-77.62 457.28,-70.72"/>
</a>
</g>
</g>
<!-- Node8 -->
<g id="Node000008" class="node">
<title>Node8</title>
<g id="a_Node000008"><a xlink:title=" ">
<polygon fill="#e0e0e0" stroke="#999999" points="542,-74 465,-74 465,-55 542,-55 542,-74"/>
<text text-anchor="middle" x="503.5" y="-62" font-family="Helvetica,sans-Serif" font-size="10.00">QComboBox</text>
</a>
</g>
</g>
<!-- Node2&#45;&gt;Node8 -->
<g id="edge7_Node000002_Node000008" class="edge">
<title>Node2&#45;&gt;Node8</title>
<g id="a_edge7_Node000002_Node000008"><a xlink:title=" ">
<path fill="none" stroke="#63b8ff" d="M698.23,-109.98C658.18,-100.84 594.43,-86.27 550.86,-76.32"/>
<polygon fill="#63b8ff" stroke="#63b8ff" points="551.6,-72.9 541.07,-74.08 550.04,-79.72 551.6,-72.9"/>
</a>
</g>
</g>
<!-- Node9 -->
<g id="Node000009" class="node">
<title>Node9</title>
<g id="a_Node000009"><a xlink:title=" ">
<polygon fill="#e0e0e0" stroke="#999999" points="612.5,-74 560.5,-74 560.5,-55 612.5,-55 612.5,-74"/>
<text text-anchor="middle" x="586.5" y="-62" font-family="Helvetica,sans-Serif" font-size="10.00">QSlider</text>
</a>
</g>
</g>
<!-- Node2&#45;&gt;Node9 -->
<g id="edge8_Node000002_Node000009" class="edge">
<title>Node2&#45;&gt;Node9</title>
<g id="a_edge8_Node000002_Node000009"><a xlink:title=" ">
<path fill="none" stroke="#63b8ff" d="M711.56,-109.98C686.94,-101.23 648.38,-87.51 620.58,-77.62"/>
<polygon fill="#63b8ff" stroke="#63b8ff" points="621.47,-74.22 610.88,-74.17 619.12,-80.82 621.47,-74.22"/>
</a>
</g>
</g>
<!-- Node10 -->
<g id="Node000010" class="node">
<title>Node10</title>
<g id="a_Node000010"><a xlink:title=" ">
<polygon fill="#e0e0e0" stroke="#999999" points="680.5,-74 630.5,-74 630.5,-55 680.5,-55 680.5,-74"/>
<text text-anchor="middle" x="655.5" y="-62" font-family="Helvetica,sans-Serif" font-size="10.00">QLabel</text>
</a>
</g>
</g>
<!-- Node2&#45;&gt;Node10 -->
<g id="edge9_Node000002_Node000010" class="edge">
<title>Node2&#45;&gt;Node10</title>
<g id="a_edge9_Node000002_Node000010"><a xlink:title=" ">
<path fill="none" stroke="#63b8ff" d="M722.65,-109.98C710.36,-101.84 691.59,-89.41 677.02,-79.76"/>
<polygon fill="#63b8ff" stroke="#63b8ff" points="678.86,-76.78 668.59,-74.17 674.99,-82.61 678.86,-76.78"/>
</a>
</g>
</g>
<!-- Node11 -->
<g id="Node000011" class="node">
<title>Node11</title>
<g id="a_Node000011"><a xlink:title=" ">
<polygon fill="#e0e0e0" stroke="#999999" points="772,-74 699,-74 699,-55 772,-55 772,-74"/>
<text text-anchor="middle" x="735.5" y="-62" font-family="Helvetica,sans-Serif" font-size="10.00">QCheckBox</text>
</a>
</g>
</g>
<!-- Node2&#45;&gt;Node11 -->
<g id="edge10_Node000002_Node000011" class="edge">
<title>Node2&#45;&gt;Node11</title>
<g id="a_edge10_Node000002_Node000011"><a xlink:title=" ">
<path fill="none" stroke="#63b8ff" d="M735.5,-109.75C735.5,-102.8 735.5,-92.85 735.5,-84.13"/>
<polygon fill="#63b8ff" stroke="#63b8ff" points="739,-84.09 735.5,-74.09 732,-84.09 739,-84.09"/>
</a>
</g>
</g>
<!-- Node12 -->
<g id="Node000012" class="node">
<title>Node12</title>
<g id="a_Node000012"><a xlink:title=" ">
<polygon fill="#e0e0e0" stroke="#999999" points="870.5,-74 790.5,-74 790.5,-55 870.5,-55 870.5,-74"/>
<text text-anchor="middle" x="830.5" y="-62" font-family="Helvetica,sans-Serif" font-size="10.00">QPushButton</text>
</a>
</g>
</g>
<!-- Node2&#45;&gt;Node12 -->
<g id="edge11_Node000002_Node000012" class="edge">
<title>Node2&#45;&gt;Node12</title>
<g id="a_edge11_Node000002_Node000012"><a xlink:title=" ">
<path fill="none" stroke="#63b8ff" d="M750.76,-109.98C765.63,-101.69 788.48,-88.94 805.92,-79.22"/>
<polygon fill="#63b8ff" stroke="#63b8ff" points="807.93,-82.1 814.96,-74.17 804.52,-75.99 807.93,-82.1"/>
</a>
</g>
</g>
<!-- Node13 -->
<g id="Node000013" class="node">
<title>Node13</title>
<g id="a_Node000013"><a xlink:title=" ">
<polygon fill="#e0e0e0" stroke="#999999" points="952.5,-74 888.5,-74 888.5,-55 952.5,-55 952.5,-74"/>
<text text-anchor="middle" x="920.5" y="-62" font-family="Helvetica,sans-Serif" font-size="10.00">QSpinBox</text>
</a>
</g>
</g>
<!-- Node2&#45;&gt;Node13 -->
<g id="edge12_Node000002_Node000013" class="edge">
<title>Node2&#45;&gt;Node13</title>
<g id="a_edge12_Node000002_Node000013"><a xlink:title=" ">
<path fill="none" stroke="#63b8ff" d="M765.22,-109.98C796.55,-101.01 846.07,-86.82 880.74,-76.89"/>
<polygon fill="#63b8ff" stroke="#63b8ff" points="881.89,-80.2 890.54,-74.08 879.97,-73.47 881.89,-80.2"/>
</a>
</g>
</g>
<!-- Node14 -->
<g id="Node000014" class="node">
<title>Node14</title>
<g id="a_Node000014"><a xlink:title=" ">
<polygon fill="#e0e0e0" stroke="#999999" points="1034,-74 971,-74 971,-55 1034,-55 1034,-74"/>
<text text-anchor="middle" x="1002.5" y="-62" font-family="Helvetica,sans-Serif" font-size="10.00">QTextEdit</text>
</a>
</g>
</g>
<!-- Node2&#45;&gt;Node14 -->
<g id="edge13_Node000002_Node000014" class="edge">
<title>Node2&#45;&gt;Node14</title>
<g id="a_edge13_Node000002_Node000014"><a xlink:title=" ">
<path fill="none" stroke="#63b8ff" d="M779.7,-109.93C823.14,-101.48 891.6,-88.08 960.55,-74.18"/>
<polygon fill="#63b8ff" stroke="#63b8ff" points="961.61,-77.53 970.72,-72.12 960.23,-70.67 961.61,-77.53"/>
</a>
</g>
</g>
<!-- Node15 -->
<g id="Node000015" class="node">
<title>Node15</title>
<g id="a_Node000015"><a xlink:title=" ">
<polygon fill="#e0e0e0" stroke="#999999" points="1135,-74 1052,-74 1052,-55 1135,-55 1135,-74"/>
<text text-anchor="middle" x="1093.5" y="-62" font-family="Helvetica,sans-Serif" font-size="10.00">QProgressBar</text>
</a>
</g>
</g>
<!-- Node2&#45;&gt;Node15 -->
<g id="edge14_Node000002_Node000015" class="edge">
<title>Node2&#45;&gt;Node15</title>
<g id="a_edge14_Node000002_Node000015"><a xlink:title=" ">
<path fill="none" stroke="#63b8ff" d="M797.01,-109.98C856.85,-101.59 950.61,-88.22 1041.81,-74.08"/>
<polygon fill="#63b8ff" stroke="#63b8ff" points="1042.42,-77.53 1051.76,-72.53 1041.34,-70.61 1042.42,-77.53"/>
</a>
</g>
</g>
<!-- Node16 -->
<g id="Node000016" class="node">
<title>Node16</title>
<g id="a_Node000016"><a xlink:title=" ">
<polygon fill="#e0e0e0" stroke="#999999" points="1229.5,-74 1153.5,-74 1153.5,-55 1229.5,-55 1229.5,-74"/>
<text text-anchor="middle" x="1191.5" y="-62" font-family="Helvetica,sans-Serif" font-size="10.00">QListWidget</text>
</a>
</g>
</g>
<!-- Node2&#45;&gt;Node16 -->
<g id="edge15_Node000002_Node000016" class="edge">
<title>Node2&#45;&gt;Node16</title>
<g id="a_edge15_Node000002_Node000016"><a xlink:title=" ">
<path fill="none" stroke="#63b8ff" d="M809.13,-110.74C910.67,-100 1086.71,-81.22 1143.34,-73.86"/>
<polygon fill="#63b8ff" stroke="#63b8ff" points="1143.85,-77.32 1153.28,-72.5 1142.9,-70.39 1143.85,-77.32"/>
</a>
</g>
</g>
<!-- Node17 -->
<g id="Node000017" class="node">
<title>Node17</title>
<g id="a_Node000017"><a xlink:title=" ">
<polygon fill="#e0e0e0" stroke="#999999" points="1323,-74 1248,-74 1248,-55 1323,-55 1323,-74"/>
<text text-anchor="middle" x="1285.5" y="-62" font-family="Helvetica,sans-Serif" font-size="10.00">QTabWidget</text>
</a>
</g>
</g>
<!-- Node2&#45;&gt;Node17 -->
<g id="edge16_Node000002_Node000017" class="edge">
<title>Node2&#45;&gt;Node17</title>
<g id="a_edge16_Node000002_Node000017"><a xlink:title=" ">
<path fill="none" stroke="#63b8ff" d="M809.25,-110.79C812.04,-110.52 814.79,-110.26 817.5,-110 1001.17,-92.63 1050.62,-98.52 1237.66,-73.98"/>
<polygon fill="#63b8ff" stroke="#63b8ff" points="1238.38,-77.41 1247.84,-72.63 1237.47,-70.47 1238.38,-77.41"/>
</a>
</g>
</g>
<!-- Node18 -->
<g id="Node000018" class="node">
<title>Node18</title>
<g id="a_Node000018"><a xlink:title=" ">
<polygon fill="#e0e0e0" stroke="#999999" points="1348.5,-19 1290.5,-19 1290.5,0 1348.5,0 1348.5,-19"/>
<text text-anchor="middle" x="1319.5" y="-7" font-family="Helvetica,sans-Serif" font-size="10.00">memory</text>
</a>
</g>
</g>
<!-- Node2&#45;&gt;Node18 -->
<g id="edge17_Node000002_Node000018" class="edge">
<title>Node2&#45;&gt;Node18</title>
<g id="a_edge17_Node000002_Node000018"><a xlink:title=" ">
<path fill="none" stroke="#63b8ff" d="M809.25,-110.74C812.03,-110.48 814.79,-110.24 817.5,-110 874.54,-105.05 1292.46,-115.87 1331.5,-74 1342.94,-61.73 1336.92,-42.14 1329.94,-27.96"/>
<polygon fill="#63b8ff" stroke="#63b8ff" points="1333.01,-26.27 1325.15,-19.16 1326.86,-29.62 1333.01,-26.27"/>
</a>
</g>
</g>
<!-- Node19 -->
<g id="Node000019" class="node">
<title>Node19</title>
<g id="a_Node000019"><a xlink:href="../../db/d4f/AudioProcessor_8h.html" target="_top" xlink:title=" ">
<polygon fill="white" stroke="#666666" points="1572.5,-74 1442.5,-74 1442.5,-55 1572.5,-55 1572.5,-74"/>
<text text-anchor="middle" x="1507.5" y="-62" font-family="Helvetica,sans-Serif" font-size="10.00">audio/AudioProcessor.h</text>
</a>
</g>
</g>
<!-- Node2&#45;&gt;Node19 -->
<g id="edge18_Node000002_Node000019" class="edge">
<title>Node2&#45;&gt;Node19</title>
<g id="a_edge18_Node000002_Node000019"><a xlink:title=" ">
<path fill="none" stroke="#63b8ff" d="M809.24,-110.72C812.03,-110.47 814.79,-110.23 817.5,-110 935.02,-100.12 1278.61,-79.19 1432.02,-70"/>
<polygon fill="#63b8ff" stroke="#63b8ff" points="1432.51,-73.47 1442.29,-69.38 1432.09,-66.48 1432.51,-73.47"/>
</a>
</g>
</g>
<!-- Node19&#45;&gt;Node18 -->
<g id="edge25_Node000019_Node000018" class="edge">
<title>Node19&#45;&gt;Node18</title>
<g id="a_edge25_Node000019_Node000018"><a xlink:title=" ">
<path fill="none" stroke="#63b8ff" d="M1477.29,-54.98C1445.08,-45.9 1393.94,-31.49 1358.65,-21.54"/>
<polygon fill="#63b8ff" stroke="#63b8ff" points="1359.28,-18.08 1348.7,-18.73 1357.38,-24.81 1359.28,-18.08"/>
</a>
</g>
</g>
<!-- Node20 -->
<g id="Node000020" class="node">
<title>Node20</title>
<g id="a_Node000020"><a xlink:title=" ">
<polygon fill="#e0e0e0" stroke="#999999" points="1422.5,-19 1366.5,-19 1366.5,0 1422.5,0 1422.5,-19"/>
<text text-anchor="middle" x="1394.5" y="-7" font-family="Helvetica,sans-Serif" font-size="10.00">QObject</text>
</a>
</g>
</g>
<!-- Node19&#45;&gt;Node20 -->
<g id="edge19_Node000019_Node000020" class="edge">
<title>Node19&#45;&gt;Node20</title>
<g id="a_edge19_Node000019_Node000020"><a xlink:title=" ">
<path fill="none" stroke="#63b8ff" d="M1489.34,-54.98C1471.25,-46.5 1443.22,-33.35 1422.31,-23.54"/>
<polygon fill="#63b8ff" stroke="#63b8ff" points="1423.53,-20.25 1412.99,-19.17 1420.55,-26.59 1423.53,-20.25"/>
</a>
</g>
</g>
<!-- Node21 -->
<g id="Node000021" class="node">
<title>Node21</title>
<g id="a_Node000021"><a xlink:title=" ">
<polygon fill="#e0e0e0" stroke="#999999" points="1494,-19 1441,-19 1441,0 1494,0 1494,-19"/>
<text text-anchor="middle" x="1467.5" y="-7" font-family="Helvetica,sans-Serif" font-size="10.00">QString</text>
</a>
</g>
</g>
<!-- Node19&#45;&gt;Node21 -->
<g id="edge20_Node000019_Node000021" class="edge">
<title>Node19&#45;&gt;Node21</title>
<g id="a_edge20_Node000019_Node000021"><a xlink:title=" ">
<path fill="none" stroke="#63b8ff" d="M1500.89,-54.75C1495.24,-47.26 1486.96,-36.28 1480.05,-27.13"/>
<polygon fill="#63b8ff" stroke="#63b8ff" points="1482.8,-24.96 1473.98,-19.09 1477.21,-29.18 1482.8,-24.96"/>
</a>
</g>
</g>
<!-- Node22 -->
<g id="Node000022" class="node">
<title>Node22</title>
<g id="a_Node000022"><a xlink:title=" ">
<polygon fill="#e0e0e0" stroke="#999999" points="1567,-19 1512,-19 1512,0 1567,0 1567,-19"/>
<text text-anchor="middle" x="1539.5" y="-7" font-family="Helvetica,sans-Serif" font-size="10.00">QVector</text>
</a>
</g>
</g>
<!-- Node19&#45;&gt;Node22 -->
<g id="edge21_Node000019_Node000022" class="edge">
<title>Node19&#45;&gt;Node22</title>
<g id="a_edge21_Node000019_Node000022"><a xlink:title=" ">
<path fill="none" stroke="#63b8ff" d="M1512.78,-54.75C1517.21,-47.42 1523.66,-36.73 1529.12,-27.7"/>
<polygon fill="#63b8ff" stroke="#63b8ff" points="1532.14,-29.46 1534.31,-19.09 1526.15,-25.84 1532.14,-29.46"/>
</a>
</g>
</g>
<!-- Node23 -->
<g id="Node000023" class="node">
<title>Node23</title>
<g id="a_Node000023"><a xlink:title=" ">
<polygon fill="#e0e0e0" stroke="#999999" points="1630,-19 1585,-19 1585,0 1630,0 1630,-19"/>
<text text-anchor="middle" x="1607.5" y="-7" font-family="Helvetica,sans-Serif" font-size="10.00">QMap</text>
</a>
</g>
</g>
<!-- Node19&#45;&gt;Node23 -->
<g id="edge22_Node000019_Node000023" class="edge">
<title>Node19&#45;&gt;Node23</title>
<g id="a_edge22_Node000019_Node000023"><a xlink:title=" ">
<path fill="none" stroke="#63b8ff" d="M1523.57,-54.98C1539.36,-46.61 1563.72,-33.7 1582.13,-23.95"/>
<polygon fill="#63b8ff" stroke="#63b8ff" points="1583.94,-26.95 1591.14,-19.17 1580.67,-20.76 1583.94,-26.95"/>
</a>
</g>
</g>
<!-- Node24 -->
<g id="Node000024" class="node">
<title>Node24</title>
<g id="a_Node000024"><a xlink:title=" ">
<polygon fill="#e0e0e0" stroke="#999999" points="1701,-19 1648,-19 1648,0 1701,0 1701,-19"/>
<text text-anchor="middle" x="1674.5" y="-7" font-family="Helvetica,sans-Serif" font-size="10.00">QTimer</text>
</a>
</g>
</g>
<!-- Node19&#45;&gt;Node24 -->
<g id="edge23_Node000019_Node000024" class="edge">
<title>Node19&#45;&gt;Node24</title>
<g id="a_edge23_Node000019_Node000024"><a xlink:title=" ">
<path fill="none" stroke="#63b8ff" d="M1534.33,-54.98C1562.45,-46.06 1606.81,-31.98 1638.08,-22.06"/>
<polygon fill="#63b8ff" stroke="#63b8ff" points="1639.26,-25.36 1647.74,-18.99 1637.14,-18.68 1639.26,-25.36"/>
</a>
</g>
</g>
<!-- Node25 -->
<g id="Node000025" class="node">
<title>Node25</title>
<g id="a_Node000025"><a xlink:title=" ">
<polygon fill="#e0e0e0" stroke="#999999" points="1774,-19 1719,-19 1719,0 1774,0 1774,-19"/>
<text text-anchor="middle" x="1746.5" y="-7" font-family="Helvetica,sans-Serif" font-size="10.00">QMutex</text>
</a>
</g>
</g>
<!-- Node19&#45;&gt;Node25 -->
<g id="edge24_Node000019_Node000025" class="edge">
<title>Node19&#45;&gt;Node25</title>
<g id="a_edge24_Node000019_Node000025"><a xlink:title=" ">
<path fill="none" stroke="#63b8ff" d="M1547.22,-54.99C1586.09,-46.62 1647.25,-33.33 1709.07,-19.3"/>
<polygon fill="#63b8ff" stroke="#63b8ff" points="1710.02,-22.67 1718.99,-17.04 1708.47,-15.85 1710.02,-22.67"/>
</a>
</g>
</g>
</g>
</svg>

<g id="navigator" transform="translate(0 0)" fill="#404254">
  <rect fill="#f2f5e9" fill-opacity="0.5" stroke="#606060" stroke-width=".5" x="0" y="0" width="60" height="60"/>
  <use id="zoomplus" xlink:href="#zoomPlus" x="17" y="9" onmousedown="handleZoom(evt,'in')"/>
  <use id="zoomminus" xlink:href="#zoomMin" x="42" y="9" onmousedown="handleZoom(evt,'out')"/>
  <use id="reset" xlink:href="#resetDef" x="30" y="36" onmousedown="handleReset()"/>
   <use id="arrowup" xlink:href="#arrowUp" x="0" y="0" onmousedown="handlePan(0,-1)"/>
  <use id="arrowright" xlink:href="#arrowRight" x="0" y="0" onmousedown="handlePan(1,0)"/>
  <use id="arrowdown" xlink:href="#arrowDown" x="0" y="0" onmousedown="handlePan(0,1)"/>
  <use id="arrowleft" xlink:href="#arrowLeft" x="0" y="0" onmousedown="handlePan(-1,0)"/>
</g>
<svg viewBox="0 0 15 15" width="100%" height="30px" preserveAspectRatio="xMaxYMin meet">
 <g id="arrow_out" transform="scale(0.3 0.3)">
  <a xlink:href="AudioProcessorWidget_8cpp__incl_org.svg" target="_base">
   <rect id="button" ry="5" rx="5" y="6" x="6" height="38" width="38"
        fill="#f2f5e9" fill-opacity="0.5" stroke="#606060" stroke-width="1.0"/>
   <path id="arrow"
     d="M 11.500037,31.436501 C 11.940474,20.09759 22.043105,11.32322 32.158766,21.979434 L 37.068811,17.246167 C 37.068811,17.246167 37.088388,32 37.088388,32 L 22.160133,31.978069 C 22.160133,31.978069 26.997745,27.140456 26.997745,27.140456 C 18.528582,18.264221 13.291696,25.230495 11.500037,31.436501 z"
     style="fill:#404040;"/>
  </a>
 </g>
</svg>

<style type='text/css'>
<![CDATA[
[data-mouse-over-selected='false'] { opacity: 0.7; }
[data-mouse-over-selected='true']  { opacity: 1.0; }
]]>
</style>
<script type="application/ecmascript"><![CDATA[
document.addEventListener('DOMContentLoaded', (event) => {
  highlightEdges();
  highlightAdjacentNodes();
});
]]></script>
</svg>
