<?xml version="1.0" encoding="UTF-8" standalone="no"?>
<!DOCTYPE svg PUBLIC "-//W3C//DTD SVG 1.1//EN"
 "http://www.w3.org/Graphics/SVG/1.1/DTD/svg11.dtd">
<!-- Generated by graphviz version 2.43.0 (0)
 -->
<!-- Title: src/network/NetworkDiscoveryManager.cpp Pages: 1 -->
<svg width="2032pt" height="159pt"
 viewBox="0.00 0.00 2031.50 159.00" xmlns="http://www.w3.org/2000/svg" xmlns:xlink="http://www.w3.org/1999/xlink">
<g id="graph0" class="graph" transform="scale(1 1) rotate(0) translate(4 155)">
<title>src/network/NetworkDiscoveryManager.cpp</title>
<!-- Node1 -->
<g id="Node000001" class="node">
<title>Node1</title>
<g id="a_Node000001"><a xlink:title=" ">
<polygon fill="#999999" stroke="#666666" points="1156.5,-151 989.5,-151 989.5,-121 1156.5,-121 1156.5,-151"/>
<text text-anchor="start" x="997.5" y="-139" font-family="Helvetica,sans-Serif" font-size="10.00">src/network/NetworkDiscovery</text>
<text text-anchor="middle" x="1073" y="-128" font-family="Helvetica,sans-Serif" font-size="10.00">Manager.cpp</text>
</a>
</g>
</g>
<!-- Node2 -->
<g id="Node000002" class="node">
<title>Node2</title>
<g id="a_Node000002"><a xlink:href="../../d7/d60/NetworkDiscoveryManager_8h.html" target="_top" xlink:title=" ">
<polygon fill="white" stroke="#666666" points="400.5,-85 251.5,-85 251.5,-55 400.5,-55 400.5,-85"/>
<text text-anchor="start" x="259.5" y="-73" font-family="Helvetica,sans-Serif" font-size="10.00">network/NetworkDiscovery</text>
<text text-anchor="middle" x="326" y="-62" font-family="Helvetica,sans-Serif" font-size="10.00">Manager.h</text>
</a>
</g>
</g>
<!-- Node1&#45;&gt;Node2 -->
<g id="edge1_Node000001_Node000002" class="edge">
<title>Node1&#45;&gt;Node2</title>
<g id="a_edge1_Node000001_Node000002"><a xlink:title=" ">
<path fill="none" stroke="#63b8ff" d="M989.31,-130.86C863.95,-124.15 620.12,-109.17 414,-85 412.92,-84.87 411.84,-84.74 410.75,-84.61"/>
<polygon fill="#63b8ff" stroke="#63b8ff" points="411.2,-81.14 400.83,-83.33 410.31,-88.08 411.2,-81.14"/>
</a>
</g>
</g>
<!-- Node6 -->
<g id="Node000006" class="node">
<title>Node6</title>
<g id="a_Node000006"><a xlink:title=" ">
<polygon fill="#e0e0e0" stroke="#999999" points="86,-19 0,-19 0,0 86,0 86,-19"/>
<text text-anchor="middle" x="43" y="-7" font-family="Helvetica,sans-Serif" font-size="10.00">QHostAddress</text>
</a>
</g>
</g>
<!-- Node1&#45;&gt;Node6 -->
<g id="edge22_Node000001_Node000006" class="edge">
<title>Node1&#45;&gt;Node6</title>
<g id="a_edge22_Node000001_Node000006"><a xlink:title=" ">
<path fill="none" stroke="#63b8ff" d="M989.36,-133.13C807.85,-128.54 382.85,-114.9 242,-85 177.9,-71.39 106.95,-40.8 69.51,-23.35"/>
<polygon fill="#63b8ff" stroke="#63b8ff" points="70.84,-20.11 60.31,-19 67.86,-26.44 70.84,-20.11"/>
</a>
</g>
</g>
<!-- Node7 -->
<g id="Node000007" class="node">
<title>Node7</title>
<g id="a_Node000007"><a xlink:title=" ">
<polygon fill="#e0e0e0" stroke="#999999" points="458,-19 382,-19 382,0 458,0 458,-19"/>
<text text-anchor="middle" x="420" y="-7" font-family="Helvetica,sans-Serif" font-size="10.00">QUdpSocket</text>
</a>
</g>
</g>
<!-- Node1&#45;&gt;Node7 -->
<g id="edge10_Node000001_Node000007" class="edge">
<title>Node1&#45;&gt;Node7</title>
<g id="a_edge10_Node000001_Node000007"><a xlink:title=" ">
<path fill="none" stroke="#63b8ff" d="M989.36,-134.48C851.55,-132.51 583.48,-123.65 498,-85 470.1,-72.39 446.02,-45.5 432.26,-27.71"/>
<polygon fill="#63b8ff" stroke="#63b8ff" points="434.83,-25.29 426.04,-19.36 429.21,-29.47 434.83,-25.29"/>
</a>
</g>
</g>
<!-- Node8 -->
<g id="Node000008" class="node">
<title>Node8</title>
<g id="a_Node000008"><a xlink:title=" ">
<polygon fill="#e0e0e0" stroke="#999999" points="547.5,-19 476.5,-19 476.5,0 547.5,0 547.5,-19"/>
<text text-anchor="middle" x="512" y="-7" font-family="Helvetica,sans-Serif" font-size="10.00">QTcpServer</text>
</a>
</g>
</g>
<!-- Node1&#45;&gt;Node8 -->
<g id="edge11_Node000001_Node000008" class="edge">
<title>Node1&#45;&gt;Node8</title>
<g id="a_edge11_Node000001_Node000008"><a xlink:title=" ">
<path fill="none" stroke="#63b8ff" d="M989.45,-133.58C841.21,-130.2 544.71,-119.2 513,-85 499.29,-70.22 501.91,-45.82 506.05,-28.99"/>
<polygon fill="#63b8ff" stroke="#63b8ff" points="509.46,-29.78 508.83,-19.21 502.73,-27.87 509.46,-29.78"/>
</a>
</g>
</g>
<!-- Node9 -->
<g id="Node000009" class="node">
<title>Node9</title>
<g id="a_Node000009"><a xlink:title=" ">
<polygon fill="#e0e0e0" stroke="#999999" points="618.5,-19 565.5,-19 565.5,0 618.5,0 618.5,-19"/>
<text text-anchor="middle" x="592" y="-7" font-family="Helvetica,sans-Serif" font-size="10.00">QTimer</text>
</a>
</g>
</g>
<!-- Node1&#45;&gt;Node9 -->
<g id="edge16_Node000001_Node000009" class="edge">
<title>Node1&#45;&gt;Node9</title>
<g id="a_edge16_Node000001_Node000009"><a xlink:title=" ">
<path fill="none" stroke="#63b8ff" d="M989.46,-133.48C843.32,-129.94 553.79,-118.72 523,-85 514.01,-75.15 516.62,-66.71 523,-55 530.65,-40.97 544.83,-30.69 558.36,-23.57"/>
<polygon fill="#63b8ff" stroke="#63b8ff" points="560.05,-26.64 567.53,-19.14 557.01,-20.34 560.05,-26.64"/>
</a>
</g>
</g>
<!-- Node11 -->
<g id="Node000011" class="node">
<title>Node11</title>
<g id="a_Node000011"><a xlink:title=" ">
<polygon fill="#e0e0e0" stroke="#999999" points="604,-79.5 532,-79.5 532,-60.5 604,-60.5 604,-79.5"/>
<text text-anchor="middle" x="568" y="-67.5" font-family="Helvetica,sans-Serif" font-size="10.00">QTcpSocket</text>
</a>
</g>
</g>
<!-- Node1&#45;&gt;Node11 -->
<g id="edge12_Node000001_Node000011" class="edge">
<title>Node1&#45;&gt;Node11</title>
<g id="a_edge12_Node000001_Node000011"><a xlink:title=" ">
<path fill="none" stroke="#63b8ff" d="M989.14,-130.76C896.35,-124.95 742.77,-111.98 613,-85 609.53,-84.28 605.95,-83.4 602.39,-82.44"/>
<polygon fill="#63b8ff" stroke="#63b8ff" points="603.11,-79.01 592.53,-79.57 601.16,-85.73 603.11,-79.01"/>
</a>
</g>
</g>
<!-- Node12 -->
<g id="Node000012" class="node">
<title>Node12</title>
<g id="a_Node000012"><a xlink:title=" ">
<polygon fill="#e0e0e0" stroke="#999999" points="764,-79.5 622,-79.5 622,-60.5 764,-60.5 764,-79.5"/>
<text text-anchor="middle" x="693" y="-67.5" font-family="Helvetica,sans-Serif" font-size="10.00">QNetworkAccessManager</text>
</a>
</g>
</g>
<!-- Node1&#45;&gt;Node12 -->
<g id="edge13_Node000001_Node000012" class="edge">
<title>Node1&#45;&gt;Node12</title>
<g id="a_edge13_Node000001_Node000012"><a xlink:title=" ">
<path fill="none" stroke="#63b8ff" d="M989.21,-121.11C929.25,-111.15 846.64,-97.35 774,-85 766.94,-83.8 759.53,-82.53 752.19,-81.27"/>
<polygon fill="#63b8ff" stroke="#63b8ff" points="752.7,-77.81 742.25,-79.56 751.51,-84.7 752.7,-77.81"/>
</a>
</g>
</g>
<!-- Node13 -->
<g id="Node000013" class="node">
<title>Node13</title>
<g id="a_Node000013"><a xlink:title=" ">
<polygon fill="#e0e0e0" stroke="#999999" points="887.5,-79.5 782.5,-79.5 782.5,-60.5 887.5,-60.5 887.5,-79.5"/>
<text text-anchor="middle" x="835" y="-67.5" font-family="Helvetica,sans-Serif" font-size="10.00">QNetworkRequest</text>
</a>
</g>
</g>
<!-- Node1&#45;&gt;Node13 -->
<g id="edge14_Node000001_Node000013" class="edge">
<title>Node1&#45;&gt;Node13</title>
<g id="a_edge14_Node000001_Node000013"><a xlink:title=" ">
<path fill="none" stroke="#63b8ff" d="M1020.77,-120.95C977.38,-109.29 916.47,-92.91 876.39,-82.13"/>
<polygon fill="#63b8ff" stroke="#63b8ff" points="877.24,-78.73 866.67,-79.52 875.42,-85.49 877.24,-78.73"/>
</a>
</g>
</g>
<!-- Node14 -->
<g id="Node000014" class="node">
<title>Node14</title>
<g id="a_Node000014"><a xlink:title=" ">
<polygon fill="#e0e0e0" stroke="#999999" points="998.5,-79.5 905.5,-79.5 905.5,-60.5 998.5,-60.5 998.5,-79.5"/>
<text text-anchor="middle" x="952" y="-67.5" font-family="Helvetica,sans-Serif" font-size="10.00">QNetworkReply</text>
</a>
</g>
</g>
<!-- Node1&#45;&gt;Node14 -->
<g id="edge15_Node000001_Node000014" class="edge">
<title>Node1&#45;&gt;Node14</title>
<g id="a_edge15_Node000001_Node000014"><a xlink:title=" ">
<path fill="none" stroke="#63b8ff" d="M1046.45,-120.95C1025.79,-110.03 997.32,-94.97 977.05,-84.25"/>
<polygon fill="#63b8ff" stroke="#63b8ff" points="978.58,-81.1 968.1,-79.52 975.31,-87.29 978.58,-81.1"/>
</a>
</g>
</g>
<!-- Node15 -->
<g id="Node000015" class="node">
<title>Node15</title>
<g id="a_Node000015"><a xlink:title=" ">
<polygon fill="#e0e0e0" stroke="#999999" points="1129.5,-79.5 1016.5,-79.5 1016.5,-60.5 1129.5,-60.5 1129.5,-79.5"/>
<text text-anchor="middle" x="1073" y="-67.5" font-family="Helvetica,sans-Serif" font-size="10.00">QXmlStreamReader</text>
</a>
</g>
</g>
<!-- Node1&#45;&gt;Node15 -->
<g id="edge17_Node000001_Node000015" class="edge">
<title>Node1&#45;&gt;Node15</title>
<g id="a_edge17_Node000001_Node000015"><a xlink:title=" ">
<path fill="none" stroke="#63b8ff" d="M1073,-120.8C1073,-111.7 1073,-99.79 1073,-89.9"/>
<polygon fill="#63b8ff" stroke="#63b8ff" points="1076.5,-89.84 1073,-79.84 1069.5,-89.84 1076.5,-89.84"/>
</a>
</g>
</g>
<!-- Node16 -->
<g id="Node000016" class="node">
<title>Node16</title>
<g id="a_Node000016"><a xlink:title=" ">
<polygon fill="#e0e0e0" stroke="#999999" points="1242.5,-79.5 1147.5,-79.5 1147.5,-60.5 1242.5,-60.5 1242.5,-79.5"/>
<text text-anchor="middle" x="1195" y="-67.5" font-family="Helvetica,sans-Serif" font-size="10.00">QJsonDocument</text>
</a>
</g>
</g>
<!-- Node1&#45;&gt;Node16 -->
<g id="edge18_Node000001_Node000016" class="edge">
<title>Node1&#45;&gt;Node16</title>
<g id="a_edge18_Node000001_Node000016"><a xlink:title=" ">
<path fill="none" stroke="#63b8ff" d="M1099.77,-120.95C1120.6,-110.03 1149.31,-94.97 1169.74,-84.25"/>
<polygon fill="#63b8ff" stroke="#63b8ff" points="1171.53,-87.26 1178.76,-79.52 1168.28,-81.06 1171.53,-87.26"/>
</a>
</g>
</g>
<!-- Node17 -->
<g id="Node000017" class="node">
<title>Node17</title>
<g id="a_Node000017"><a xlink:title=" ">
<polygon fill="#e0e0e0" stroke="#999999" points="1337,-79.5 1261,-79.5 1261,-60.5 1337,-60.5 1337,-79.5"/>
<text text-anchor="middle" x="1299" y="-67.5" font-family="Helvetica,sans-Serif" font-size="10.00">QJsonObject</text>
</a>
</g>
</g>
<!-- Node1&#45;&gt;Node17 -->
<g id="edge19_Node000001_Node000017" class="edge">
<title>Node1&#45;&gt;Node17</title>
<g id="a_edge19_Node000001_Node000017"><a xlink:title=" ">
<path fill="none" stroke="#63b8ff" d="M1124.38,-120.9C1160.19,-111.01 1209.06,-97.39 1252,-85 1254.93,-84.15 1257.96,-83.27 1261.01,-82.38"/>
<polygon fill="#63b8ff" stroke="#63b8ff" points="1262.09,-85.71 1270.69,-79.52 1260.11,-78.99 1262.09,-85.71"/>
</a>
</g>
</g>
<!-- Node18 -->
<g id="Node000018" class="node">
<title>Node18</title>
<g id="a_Node000018"><a xlink:title=" ">
<polygon fill="#e0e0e0" stroke="#999999" points="1426.5,-79.5 1355.5,-79.5 1355.5,-60.5 1426.5,-60.5 1426.5,-79.5"/>
<text text-anchor="middle" x="1391" y="-67.5" font-family="Helvetica,sans-Serif" font-size="10.00">QJsonArray</text>
</a>
</g>
</g>
<!-- Node1&#45;&gt;Node18 -->
<g id="edge20_Node000001_Node000018" class="edge">
<title>Node1&#45;&gt;Node18</title>
<g id="a_edge20_Node000001_Node000018"><a xlink:title=" ">
<path fill="none" stroke="#63b8ff" d="M1156.59,-122.37C1210.91,-113.51 1283.07,-100.49 1346,-85 1349.18,-84.22 1352.46,-83.34 1355.74,-82.41"/>
<polygon fill="#63b8ff" stroke="#63b8ff" points="1356.86,-85.73 1365.45,-79.53 1354.87,-79.02 1356.86,-85.73"/>
</a>
</g>
</g>
<!-- Node19 -->
<g id="Node000019" class="node">
<title>Node19</title>
<g id="a_Node000019"><a xlink:title=" ">
<polygon fill="#e0e0e0" stroke="#999999" points="1557.5,-79.5 1444.5,-79.5 1444.5,-60.5 1557.5,-60.5 1557.5,-79.5"/>
<text text-anchor="middle" x="1501" y="-67.5" font-family="Helvetica,sans-Serif" font-size="10.00">QRandomGenerator</text>
</a>
</g>
</g>
<!-- Node1&#45;&gt;Node19 -->
<g id="edge21_Node000001_Node000019" class="edge">
<title>Node1&#45;&gt;Node19</title>
<g id="a_edge21_Node000001_Node000019"><a xlink:title=" ">
<path fill="none" stroke="#63b8ff" d="M1156.54,-125.31C1230.29,-116.32 1340.62,-101.82 1436,-85 1441.75,-83.99 1447.77,-82.83 1453.73,-81.62"/>
<polygon fill="#63b8ff" stroke="#63b8ff" points="1454.55,-85.02 1463.63,-79.55 1453.13,-78.17 1454.55,-85.02"/>
</a>
</g>
</g>
<!-- Node20 -->
<g id="Node000020" class="node">
<title>Node20</title>
<g id="a_Node000020"><a xlink:title=" ">
<polygon fill="#e0e0e0" stroke="#999999" points="1648,-79.5 1576,-79.5 1576,-60.5 1648,-60.5 1648,-79.5"/>
<text text-anchor="middle" x="1612" y="-67.5" font-family="Helvetica,sans-Serif" font-size="10.00">QDateTime</text>
</a>
</g>
</g>
<!-- Node1&#45;&gt;Node20 -->
<g id="edge23_Node000001_Node000020" class="edge">
<title>Node1&#45;&gt;Node20</title>
<g id="a_edge23_Node000001_Node000020"><a xlink:title=" ">
<path fill="none" stroke="#63b8ff" d="M1156.8,-131.64C1255.7,-126.51 1424.68,-114.03 1567,-85 1570.47,-84.29 1574.06,-83.42 1577.62,-82.47"/>
<polygon fill="#63b8ff" stroke="#63b8ff" points="1578.85,-85.75 1587.47,-79.61 1576.9,-79.03 1578.85,-85.75"/>
</a>
</g>
</g>
<!-- Node21 -->
<g id="Node000021" class="node">
<title>Node21</title>
<g id="a_Node000021"><a xlink:title=" ">
<polygon fill="#e0e0e0" stroke="#999999" points="1704,-79.5 1666,-79.5 1666,-60.5 1704,-60.5 1704,-79.5"/>
<text text-anchor="middle" x="1685" y="-67.5" font-family="Helvetica,sans-Serif" font-size="10.00">QDir</text>
</a>
</g>
</g>
<!-- Node1&#45;&gt;Node21 -->
<g id="edge24_Node000001_Node000021" class="edge">
<title>Node1&#45;&gt;Node21</title>
<g id="a_edge24_Node000001_Node000021"><a xlink:title=" ">
<path fill="none" stroke="#63b8ff" d="M1156.62,-131.72C1294.94,-125.64 1565.23,-110.84 1657,-85 1658.27,-84.64 1659.54,-84.23 1660.82,-83.77"/>
<polygon fill="#63b8ff" stroke="#63b8ff" points="1662.53,-86.84 1670.31,-79.65 1659.74,-80.42 1662.53,-86.84"/>
</a>
</g>
</g>
<!-- Node22 -->
<g id="Node000022" class="node">
<title>Node22</title>
<g id="a_Node000022"><a xlink:title=" ">
<polygon fill="#e0e0e0" stroke="#999999" points="1782,-79.5 1722,-79.5 1722,-60.5 1782,-60.5 1782,-79.5"/>
<text text-anchor="middle" x="1752" y="-67.5" font-family="Helvetica,sans-Serif" font-size="10.00">QFileInfo</text>
</a>
</g>
</g>
<!-- Node1&#45;&gt;Node22 -->
<g id="edge25_Node000001_Node000022" class="edge">
<title>Node1&#45;&gt;Node22</title>
<g id="a_edge25_Node000001_Node000022"><a xlink:title=" ">
<path fill="none" stroke="#63b8ff" d="M1156.61,-135.52C1279.8,-134.71 1516.72,-127.1 1713,-85 1715.84,-84.39 1718.75,-83.63 1721.64,-82.77"/>
<polygon fill="#63b8ff" stroke="#63b8ff" points="1722.85,-86.06 1731.25,-79.61 1720.66,-79.41 1722.85,-86.06"/>
</a>
</g>
</g>
<!-- Node23 -->
<g id="Node000023" class="node">
<title>Node23</title>
<g id="a_Node000023"><a xlink:title=" ">
<polygon fill="#e0e0e0" stroke="#999999" points="1898,-79.5 1800,-79.5 1800,-60.5 1898,-60.5 1898,-79.5"/>
<text text-anchor="middle" x="1849" y="-67.5" font-family="Helvetica,sans-Serif" font-size="10.00">QMimeDatabase</text>
</a>
</g>
</g>
<!-- Node1&#45;&gt;Node23 -->
<g id="edge26_Node000001_Node000023" class="edge">
<title>Node1&#45;&gt;Node23</title>
<g id="a_edge26_Node000001_Node000023"><a xlink:title=" ">
<path fill="none" stroke="#63b8ff" d="M1156.69,-133.7C1291.16,-130.61 1563.31,-120.15 1791,-85 1796.5,-84.15 1802.25,-83.04 1807.9,-81.82"/>
<polygon fill="#63b8ff" stroke="#63b8ff" points="1808.92,-85.17 1817.89,-79.52 1807.36,-78.35 1808.92,-85.17"/>
</a>
</g>
</g>
<!-- Node24 -->
<g id="Node000024" class="node">
<title>Node24</title>
<g id="a_Node000024"><a xlink:title=" ">
<polygon fill="#e0e0e0" stroke="#999999" points="2023.5,-79.5 1916.5,-79.5 1916.5,-60.5 2023.5,-60.5 2023.5,-79.5"/>
<text text-anchor="middle" x="1970" y="-67.5" font-family="Helvetica,sans-Serif" font-size="10.00">QLoggingCategory</text>
</a>
</g>
</g>
<!-- Node1&#45;&gt;Node24 -->
<g id="edge27_Node000001_Node000024" class="edge">
<title>Node1&#45;&gt;Node24</title>
<g id="a_edge27_Node000001_Node000024"><a xlink:title=" ">
<path fill="none" stroke="#63b8ff" d="M1156.59,-134.37C1307.3,-132.26 1634.25,-123.23 1907,-85 1913.26,-84.12 1919.83,-82.95 1926.25,-81.66"/>
<polygon fill="#63b8ff" stroke="#63b8ff" points="1927.12,-85.05 1936.18,-79.55 1925.67,-78.2 1927.12,-85.05"/>
</a>
</g>
</g>
<!-- Node3 -->
<g id="Node000003" class="node">
<title>Node3</title>
<g id="a_Node000003"><a xlink:title=" ">
<polygon fill="#e0e0e0" stroke="#999999" points="160,-19 104,-19 104,0 160,0 160,-19"/>
<text text-anchor="middle" x="132" y="-7" font-family="Helvetica,sans-Serif" font-size="10.00">QObject</text>
</a>
</g>
</g>
<!-- Node2&#45;&gt;Node3 -->
<g id="edge2_Node000002_Node000003" class="edge">
<title>Node2&#45;&gt;Node3</title>
<g id="a_edge2_Node000002_Node000003"><a xlink:title=" ">
<path fill="none" stroke="#63b8ff" d="M279.53,-54.99C245.95,-44.86 201.16,-31.35 169.77,-21.89"/>
<polygon fill="#63b8ff" stroke="#63b8ff" points="170.67,-18.5 160.08,-18.97 168.65,-25.21 170.67,-18.5"/>
</a>
</g>
</g>
<!-- Node4 -->
<g id="Node000004" class="node">
<title>Node4</title>
<g id="a_Node000004"><a xlink:title=" ">
<polygon fill="#e0e0e0" stroke="#999999" points="231.5,-19 178.5,-19 178.5,0 231.5,0 231.5,-19"/>
<text text-anchor="middle" x="205" y="-7" font-family="Helvetica,sans-Serif" font-size="10.00">QString</text>
</a>
</g>
</g>
<!-- Node2&#45;&gt;Node4 -->
<g id="edge3_Node000002_Node000004" class="edge">
<title>Node2&#45;&gt;Node4</title>
<g id="a_edge3_Node000002_Node000004"><a xlink:title=" ">
<path fill="none" stroke="#63b8ff" d="M297.02,-54.99C277.28,-45.45 251.33,-32.9 232.03,-23.57"/>
<polygon fill="#63b8ff" stroke="#63b8ff" points="233.4,-20.34 222.87,-19.14 230.35,-26.64 233.4,-20.34"/>
</a>
</g>
</g>
<!-- Node5 -->
<g id="Node000005" class="node">
<title>Node5</title>
<g id="a_Node000005"><a xlink:title=" ">
<polygon fill="#e0e0e0" stroke="#999999" points="288,-19 250,-19 250,0 288,0 288,-19"/>
<text text-anchor="middle" x="269" y="-7" font-family="Helvetica,sans-Serif" font-size="10.00">QUrl</text>
</a>
</g>
</g>
<!-- Node2&#45;&gt;Node5 -->
<g id="edge4_Node000002_Node000005" class="edge">
<title>Node2&#45;&gt;Node5</title>
<g id="a_edge4_Node000002_Node000005"><a xlink:title=" ">
<path fill="none" stroke="#63b8ff" d="M312.2,-54.84C303.93,-46.35 293.38,-35.52 284.77,-26.69"/>
<polygon fill="#63b8ff" stroke="#63b8ff" points="287.03,-23.99 277.54,-19.27 282.01,-28.87 287.03,-23.99"/>
</a>
</g>
</g>
<!-- Node2&#45;&gt;Node6 -->
<g id="edge5_Node000002_Node000006" class="edge">
<title>Node2&#45;&gt;Node6</title>
<g id="a_edge5_Node000002_Node000006"><a xlink:title=" ">
<path fill="none" stroke="#63b8ff" d="M258.21,-54.99C207.89,-44.59 140.32,-30.62 94.41,-21.13"/>
<polygon fill="#63b8ff" stroke="#63b8ff" points="94.88,-17.65 84.38,-19.05 93.46,-24.51 94.88,-17.65"/>
</a>
</g>
</g>
<!-- Node2&#45;&gt;Node7 -->
<g id="edge6_Node000002_Node000007" class="edge">
<title>Node2&#45;&gt;Node7</title>
<g id="a_edge6_Node000002_Node000007"><a xlink:title=" ">
<path fill="none" stroke="#63b8ff" d="M348.75,-54.84C363.6,-45.6 382.9,-33.59 397.66,-24.4"/>
<polygon fill="#63b8ff" stroke="#63b8ff" points="399.55,-27.35 406.19,-19.09 395.85,-21.41 399.55,-27.35"/>
</a>
</g>
</g>
<!-- Node2&#45;&gt;Node8 -->
<g id="edge7_Node000002_Node000008" class="edge">
<title>Node2&#45;&gt;Node8</title>
<g id="a_edge7_Node000002_Node000008"><a xlink:title=" ">
<path fill="none" stroke="#63b8ff" d="M370.55,-54.99C402.51,-44.94 445.06,-31.55 475.12,-22.1"/>
<polygon fill="#63b8ff" stroke="#63b8ff" points="476.31,-25.39 484.8,-19.05 474.21,-18.72 476.31,-25.39"/>
</a>
</g>
</g>
<!-- Node2&#45;&gt;Node9 -->
<g id="edge8_Node000002_Node000009" class="edge">
<title>Node2&#45;&gt;Node9</title>
<g id="a_edge8_Node000002_Node000009"><a xlink:title=" ">
<path fill="none" stroke="#63b8ff" d="M393.07,-54.95C436.79,-45.68 495.35,-33.06 555.25,-19.36"/>
<polygon fill="#63b8ff" stroke="#63b8ff" points="556.3,-22.71 565.26,-17.07 554.73,-15.89 556.3,-22.71"/>
</a>
</g>
</g>
<!-- Node10 -->
<g id="Node000010" class="node">
<title>Node10</title>
<g id="a_Node000010"><a xlink:title=" ">
<polygon fill="#e0e0e0" stroke="#999999" points="364,-19 306,-19 306,0 364,0 364,-19"/>
<text text-anchor="middle" x="335" y="-7" font-family="Helvetica,sans-Serif" font-size="10.00">memory</text>
</a>
</g>
</g>
<!-- Node2&#45;&gt;Node10 -->
<g id="edge9_Node000002_Node000010" class="edge">
<title>Node2&#45;&gt;Node10</title>
<g id="a_edge9_Node000002_Node000010"><a xlink:title=" ">
<path fill="none" stroke="#63b8ff" d="M328.18,-54.84C329.37,-47.13 330.85,-37.49 332.13,-29.17"/>
<polygon fill="#63b8ff" stroke="#63b8ff" points="335.59,-29.68 333.65,-19.27 328.67,-28.62 335.59,-29.68"/>
</a>
</g>
</g>
</g>
</svg>
