<?xml version="1.0" encoding="UTF-8" standalone="no"?>
<!DOCTYPE svg PUBLIC "-//W3C//DTD SVG 1.1//EN"
 "http://www.w3.org/Graphics/SVG/1.1/DTD/svg11.dtd">
<!-- Generated by graphviz version 2.43.0 (0)
 -->
<!-- Title: LinuxPlatform::MimeTypeAssociation Pages: 1 -->
<svg width="199pt" height="117pt"
 viewBox="0.00 0.00 199.00 117.00" xmlns="http://www.w3.org/2000/svg" xmlns:xlink="http://www.w3.org/1999/xlink">
<g id="graph0" class="graph" transform="scale(1 1) rotate(0) translate(4 113)">
<title>LinuxPlatform::MimeTypeAssociation</title>
<!-- Node1 -->
<g id="Node000001" class="node">
<title>Node1</title>
<g id="a_Node000001"><a xlink:title=" ">
<polygon fill="#999999" stroke="transparent" points="191,-109 0,-109 0,0 191,0 191,-109"/>
<text text-anchor="start" x="5.5" y="-96.5" font-family="Helvetica,sans-Serif" font-size="10.00">LinuxPlatform::MimeTypeAssociation</text>
<text text-anchor="start" x="33" y="-81.5" font-family="Helvetica,sans-Serif" font-size="10.00">+</text>
<text text-anchor="start" x="74.5" y="-81.5" font-family="Helvetica,sans-Serif" font-size="10.00">mimeType</text>
<text text-anchor="start" x="33" y="-66.5" font-family="Helvetica,sans-Serif" font-size="10.00">+</text>
<text text-anchor="start" x="74.5" y="-66.5" font-family="Helvetica,sans-Serif" font-size="10.00">description</text>
<text text-anchor="start" x="33" y="-51.5" font-family="Helvetica,sans-Serif" font-size="10.00">+</text>
<text text-anchor="start" x="74.5" y="-51.5" font-family="Helvetica,sans-Serif" font-size="10.00">extensions</text>
<text text-anchor="start" x="33" y="-36.5" font-family="Helvetica,sans-Serif" font-size="10.00">+</text>
<text text-anchor="start" x="74.5" y="-36.5" font-family="Helvetica,sans-Serif" font-size="10.00">iconName</text>
<text text-anchor="start" x="33" y="-21.5" font-family="Helvetica,sans-Serif" font-size="10.00">+</text>
<text text-anchor="start" x="74.5" y="-21.5" font-family="Helvetica,sans-Serif" font-size="10.00">isDefault</text>
<text text-anchor="start" x="94" y="-6.5" font-family="Helvetica,sans-Serif" font-size="10.00"> </text>
<polygon fill="#666666" stroke="#666666" points="0.5,-91.5 0.5,-91.5 191.5,-91.5 191.5,-91.5 0.5,-91.5"/>
<polygon fill="#666666" stroke="#666666" points="0.5,-16.5 0.5,-16.5 72.5,-16.5 72.5,-16.5 0.5,-16.5"/>
<polygon fill="#666666" stroke="#666666" points="72.5,-16.5 72.5,-16.5 191.5,-16.5 191.5,-16.5 72.5,-16.5"/>
<polygon fill="none" stroke="#666666" points="0,0 0,-109 191,-109 191,0 0,0"/>
</a>
</g>
</g>
</g>
</svg>
