<?xml version="1.0" encoding="UTF-8" standalone="no"?>
<!DOCTYPE svg PUBLIC "-//W3C//DTD SVG 1.1//EN"
 "http://www.w3.org/Graphics/SVG/1.1/DTD/svg11.dtd">
<!-- Generated by graphviz version 2.43.0 (0)
 -->
<!-- Title: SubtitleControlWidget::updateControls Pages: 1 -->
<svg width="332pt" height="150pt"
 viewBox="0.00 0.00 332.00 150.00" xmlns="http://www.w3.org/2000/svg" xmlns:xlink="http://www.w3.org/1999/xlink">
<g id="graph0" class="graph" transform="scale(1 1) rotate(0) translate(4 146)">
<title>SubtitleControlWidget::updateControls</title>
<!-- Node1 -->
<g id="Node000001" class="node">
<title>Node1</title>
<g id="a_Node000001"><a xlink:title="Update control states from current settings.">
<polygon fill="#999999" stroke="#666666" points="124,-88.5 0,-88.5 0,-58.5 124,-58.5 124,-88.5"/>
<text text-anchor="start" x="8" y="-76.5" font-family="Helvetica,sans-Serif" font-size="10.00">SubtitleControlWidget</text>
<text text-anchor="middle" x="62" y="-65.5" font-family="Helvetica,sans-Serif" font-size="10.00">::updateControls</text>
</a>
</g>
</g>
<!-- Node2 -->
<g id="Node000002" class="node">
<title>Node2</title>
<g id="a_Node000002"><a xlink:href="../../dd/d8b/classSubtitleManager.html#ae3d3464731c9a51ebeef21552c80db23" target="_top" xlink:title="Get active track index.">
<polygon fill="white" stroke="#666666" points="321,-142 163,-142 163,-123 321,-123 321,-142"/>
<text text-anchor="middle" x="242" y="-130" font-family="Helvetica,sans-Serif" font-size="10.00">SubtitleManager::activeTrack</text>
</a>
</g>
</g>
<!-- Node1&#45;&gt;Node2 -->
<g id="edge1_Node000001_Node000002" class="edge">
<title>Node1&#45;&gt;Node2</title>
<g id="a_edge1_Node000001_Node000002"><a xlink:title=" ">
<path fill="none" stroke="#63b8ff" d="M94.78,-88.66C113.46,-97.13 137.71,-107.38 160,-114.5 166.89,-116.7 174.19,-118.73 181.47,-120.57"/>
<polygon fill="#63b8ff" stroke="#63b8ff" points="180.82,-124.01 191.36,-122.96 182.46,-117.21 180.82,-124.01"/>
</a>
</g>
</g>
<!-- Node3 -->
<g id="Node000003" class="node">
<title>Node3</title>
<g id="a_Node000003"><a xlink:href="../../dd/d8b/classSubtitleManager.html#ac30bcbe325b9b590f77c68602d7f0326" target="_top" xlink:title="Check if subtitles are enabled.">
<polygon fill="white" stroke="#666666" points="317,-105 167,-105 167,-86 317,-86 317,-105"/>
<text text-anchor="middle" x="242" y="-93" font-family="Helvetica,sans-Serif" font-size="10.00">SubtitleManager::isEnabled</text>
</a>
</g>
</g>
<!-- Node1&#45;&gt;Node3 -->
<g id="edge2_Node000001_Node000003" class="edge">
<title>Node1&#45;&gt;Node3</title>
<g id="a_edge2_Node000001_Node000003"><a xlink:title=" ">
<path fill="none" stroke="#63b8ff" d="M124.26,-81.07C134.73,-82.37 145.77,-83.73 156.71,-85.08"/>
<polygon fill="#63b8ff" stroke="#63b8ff" points="156.37,-88.57 166.72,-86.32 157.23,-81.62 156.37,-88.57"/>
</a>
</g>
</g>
<!-- Node4 -->
<g id="Node000004" class="node">
<title>Node4</title>
<g id="a_Node000004"><a xlink:href="../../de/d8e/classSubtitleRenderer.html#a6802601fa5518711faa66a5f34737b15" target="_top" xlink:title="Get current rendering settings.">
<polygon fill="white" stroke="#666666" points="310,-67.5 174,-67.5 174,-37.5 310,-37.5 310,-67.5"/>
<text text-anchor="start" x="182" y="-55.5" font-family="Helvetica,sans-Serif" font-size="10.00">SubtitleRenderer::render</text>
<text text-anchor="middle" x="242" y="-44.5" font-family="Helvetica,sans-Serif" font-size="10.00">Settings</text>
</a>
</g>
</g>
<!-- Node1&#45;&gt;Node4 -->
<g id="edge3_Node000001_Node000004" class="edge">
<title>Node1&#45;&gt;Node4</title>
<g id="a_edge3_Node000001_Node000004"><a xlink:title=" ">
<path fill="none" stroke="#63b8ff" d="M124.26,-66.27C137,-64.77 150.58,-63.17 163.81,-61.61"/>
<polygon fill="#63b8ff" stroke="#63b8ff" points="164.32,-65.07 173.84,-60.42 163.5,-58.12 164.32,-65.07"/>
</a>
</g>
</g>
<!-- Node5 -->
<g id="Node000005" class="node">
<title>Node5</title>
<g id="a_Node000005"><a xlink:href="../../dd/d8b/classSubtitleManager.html#a1111d971eef1524971d7835a22246b45" target="_top" xlink:title="Get subtitle timing offset.">
<polygon fill="white" stroke="#666666" points="324,-19 160,-19 160,0 324,0 324,-19"/>
<text text-anchor="middle" x="242" y="-7" font-family="Helvetica,sans-Serif" font-size="10.00">SubtitleManager::timingOffset</text>
</a>
</g>
</g>
<!-- Node1&#45;&gt;Node5 -->
<g id="edge4_Node000001_Node000005" class="edge">
<title>Node1&#45;&gt;Node5</title>
<g id="a_edge4_Node000001_Node000005"><a xlink:title=" ">
<path fill="none" stroke="#63b8ff" d="M91.65,-58.32C110.63,-48.74 136.31,-36.68 160,-28.5 167.39,-25.95 175.28,-23.63 183.12,-21.55"/>
<polygon fill="#63b8ff" stroke="#63b8ff" points="184.16,-24.9 193,-19.05 182.44,-18.11 184.16,-24.9"/>
</a>
</g>
</g>
</g>
</svg>
