<?xml version="1.0" encoding="UTF-8" standalone="no"?>
<!DOCTYPE svg PUBLIC "-//W3C//DTD SVG 1.1//EN"
 "http://www.w3.org/Graphics/SVG/1.1/DTD/svg11.dtd">
<!-- Generated by graphviz version 2.43.0 (0)
 -->
<!-- Title: SubtitleControlWidget::setSubtitleRenderer Pages: 1 -->
<svg width="522pt" height="231pt"
 viewBox="0.00 0.00 522.00 230.50" xmlns="http://www.w3.org/2000/svg" xmlns:xlink="http://www.w3.org/1999/xlink">
<g id="graph0" class="graph" transform="scale(1 1) rotate(0) translate(4 226.5)">
<title>SubtitleControlWidget::setSubtitleRenderer</title>
<!-- Node1 -->
<g id="Node000001" class="node">
<title>Node1</title>
<g id="a_Node000001"><a xlink:title="Set subtitle renderer.">
<polygon fill="#999999" stroke="#666666" points="124,-174.5 0,-174.5 0,-144.5 124,-144.5 124,-174.5"/>
<text text-anchor="start" x="8" y="-162.5" font-family="Helvetica,sans-Serif" font-size="10.00">SubtitleControlWidget</text>
<text text-anchor="middle" x="62" y="-151.5" font-family="Helvetica,sans-Serif" font-size="10.00">::setSubtitleRenderer</text>
</a>
</g>
</g>
<!-- Node2 -->
<g id="Node000002" class="node">
<title>Node2</title>
<g id="a_Node000002"><a xlink:href="../../d9/dff/classSubtitleControlWidget.html#a31886b557126df6bf415b1b0bd38ef69" target="_top" xlink:title="Emitted when subtitle settings change.">
<polygon fill="white" stroke="#666666" points="305.5,-222.5 168.5,-222.5 168.5,-192.5 305.5,-192.5 305.5,-222.5"/>
<text text-anchor="start" x="176.5" y="-210.5" font-family="Helvetica,sans-Serif" font-size="10.00">SubtitleControlWidget</text>
<text text-anchor="middle" x="237" y="-199.5" font-family="Helvetica,sans-Serif" font-size="10.00">::renderSettingsChanged</text>
</a>
</g>
</g>
<!-- Node1&#45;&gt;Node2 -->
<g id="edge1_Node000001_Node000002" class="edge">
<title>Node1&#45;&gt;Node2</title>
<g id="a_edge1_Node000001_Node000002"><a xlink:title=" ">
<path fill="none" stroke="#63b8ff" d="M117.26,-174.56C134.65,-179.38 154.07,-184.77 172.09,-189.77"/>
<polygon fill="#63b8ff" stroke="#63b8ff" points="171.36,-193.2 181.93,-192.5 173.23,-186.45 171.36,-193.2"/>
</a>
</g>
</g>
<!-- Node3 -->
<g id="Node000003" class="node">
<title>Node3</title>
<g id="a_Node000003"><a xlink:href="../../de/d8e/classSubtitleRenderer.html#a7bfd781949a499c478c32c910103c14e" target="_top" xlink:title="Set rendering settings.">
<polygon fill="white" stroke="#666666" points="314,-174.5 160,-174.5 160,-144.5 314,-144.5 314,-174.5"/>
<text text-anchor="start" x="168" y="-162.5" font-family="Helvetica,sans-Serif" font-size="10.00">SubtitleRenderer::setRender</text>
<text text-anchor="middle" x="237" y="-151.5" font-family="Helvetica,sans-Serif" font-size="10.00">Settings</text>
</a>
</g>
</g>
<!-- Node1&#45;&gt;Node3 -->
<g id="edge2_Node000001_Node000003" class="edge">
<title>Node1&#45;&gt;Node3</title>
<g id="a_edge2_Node000001_Node000003"><a xlink:title=" ">
<path fill="none" stroke="#63b8ff" d="M124.48,-159.5C132.72,-159.5 141.29,-159.5 149.85,-159.5"/>
<polygon fill="#63b8ff" stroke="#63b8ff" points="149.88,-163 159.88,-159.5 149.88,-156 149.88,-163"/>
</a>
</g>
</g>
<!-- Node5 -->
<g id="Node000005" class="node">
<title>Node5</title>
<g id="a_Node000005"><a xlink:href="../../d9/dff/classSubtitleControlWidget.html#a8da197db32f62b0c4a9e048768cd0513" target="_top" xlink:title="Update control states from current settings.">
<polygon fill="white" stroke="#666666" points="299,-110.5 175,-110.5 175,-80.5 299,-80.5 299,-110.5"/>
<text text-anchor="start" x="183" y="-98.5" font-family="Helvetica,sans-Serif" font-size="10.00">SubtitleControlWidget</text>
<text text-anchor="middle" x="237" y="-87.5" font-family="Helvetica,sans-Serif" font-size="10.00">::updateControls</text>
</a>
</g>
</g>
<!-- Node1&#45;&gt;Node5 -->
<g id="edge4_Node000001_Node000005" class="edge">
<title>Node1&#45;&gt;Node5</title>
<g id="a_edge4_Node000001_Node000005"><a xlink:title=" ">
<path fill="none" stroke="#63b8ff" d="M103.56,-144.49C128.09,-135.42 159.57,-123.78 185.68,-114.12"/>
<polygon fill="#63b8ff" stroke="#63b8ff" points="187.23,-117.27 195.39,-110.52 184.8,-110.71 187.23,-117.27"/>
</a>
</g>
</g>
<!-- Node4 -->
<g id="Node000004" class="node">
<title>Node4</title>
<g id="a_Node000004"><a xlink:href="../../de/d8e/classSubtitleRenderer.html#a21e2bbafcf365d9654b0e25da6503046" target="_top" xlink:title="Emitted when subtitle rendering settings change.">
<polygon fill="white" stroke="#666666" points="500,-190.5 364,-190.5 364,-160.5 500,-160.5 500,-190.5"/>
<text text-anchor="start" x="372" y="-178.5" font-family="Helvetica,sans-Serif" font-size="10.00">SubtitleRenderer::render</text>
<text text-anchor="middle" x="432" y="-167.5" font-family="Helvetica,sans-Serif" font-size="10.00">SettingsChanged</text>
</a>
</g>
</g>
<!-- Node3&#45;&gt;Node4 -->
<g id="edge3_Node000003_Node000004" class="edge">
<title>Node3&#45;&gt;Node4</title>
<g id="a_edge3_Node000003_Node000004"><a xlink:title=" ">
<path fill="none" stroke="#63b8ff" d="M314,-165.8C326.99,-166.88 340.49,-168 353.51,-169.08"/>
<polygon fill="#63b8ff" stroke="#63b8ff" points="353.58,-172.59 363.83,-169.93 354.16,-165.62 353.58,-172.59"/>
</a>
</g>
</g>
<!-- Node6 -->
<g id="Node000006" class="node">
<title>Node6</title>
<g id="a_Node000006"><a xlink:href="../../dd/d8b/classSubtitleManager.html#ae3d3464731c9a51ebeef21552c80db23" target="_top" xlink:title="Get active track index.">
<polygon fill="white" stroke="#666666" points="511,-142 353,-142 353,-123 511,-123 511,-142"/>
<text text-anchor="middle" x="432" y="-130" font-family="Helvetica,sans-Serif" font-size="10.00">SubtitleManager::activeTrack</text>
</a>
</g>
</g>
<!-- Node5&#45;&gt;Node6 -->
<g id="edge5_Node000005_Node000006" class="edge">
<title>Node5&#45;&gt;Node6</title>
<g id="a_edge5_Node000005_Node000006"><a xlink:title=" ">
<path fill="none" stroke="#63b8ff" d="M299.07,-107.21C322.15,-111.63 348.38,-116.66 371.34,-121.06"/>
<polygon fill="#63b8ff" stroke="#63b8ff" points="370.82,-124.53 381.3,-122.97 372.14,-117.65 370.82,-124.53"/>
</a>
</g>
</g>
<!-- Node7 -->
<g id="Node000007" class="node">
<title>Node7</title>
<g id="a_Node000007"><a xlink:href="../../dd/d8b/classSubtitleManager.html#ac30bcbe325b9b590f77c68602d7f0326" target="_top" xlink:title="Check if subtitles are enabled.">
<polygon fill="white" stroke="#666666" points="507,-105 357,-105 357,-86 507,-86 507,-105"/>
<text text-anchor="middle" x="432" y="-93" font-family="Helvetica,sans-Serif" font-size="10.00">SubtitleManager::isEnabled</text>
</a>
</g>
</g>
<!-- Node5&#45;&gt;Node7 -->
<g id="edge6_Node000005_Node000007" class="edge">
<title>Node5&#45;&gt;Node7</title>
<g id="a_edge6_Node000005_Node000007"><a xlink:title=" ">
<path fill="none" stroke="#63b8ff" d="M299.07,-95.5C314.1,-95.5 330.48,-95.5 346.41,-95.5"/>
<polygon fill="#63b8ff" stroke="#63b8ff" points="346.8,-99 356.8,-95.5 346.8,-92 346.8,-99"/>
</a>
</g>
</g>
<!-- Node8 -->
<g id="Node000008" class="node">
<title>Node8</title>
<g id="a_Node000008"><a xlink:href="../../de/d8e/classSubtitleRenderer.html#a6802601fa5518711faa66a5f34737b15" target="_top" xlink:title="Get current rendering settings.">
<polygon fill="white" stroke="#666666" points="500,-67.5 364,-67.5 364,-37.5 500,-37.5 500,-67.5"/>
<text text-anchor="start" x="372" y="-55.5" font-family="Helvetica,sans-Serif" font-size="10.00">SubtitleRenderer::render</text>
<text text-anchor="middle" x="432" y="-44.5" font-family="Helvetica,sans-Serif" font-size="10.00">Settings</text>
</a>
</g>
</g>
<!-- Node5&#45;&gt;Node8 -->
<g id="edge7_Node000005_Node000008" class="edge">
<title>Node5&#45;&gt;Node8</title>
<g id="a_edge7_Node000005_Node000008"><a xlink:title=" ">
<path fill="none" stroke="#63b8ff" d="M299.07,-81.89C316.57,-77.99 335.88,-73.69 354.21,-69.61"/>
<polygon fill="#63b8ff" stroke="#63b8ff" points="354.97,-73.02 363.97,-67.43 353.45,-66.19 354.97,-73.02"/>
</a>
</g>
</g>
<!-- Node9 -->
<g id="Node000009" class="node">
<title>Node9</title>
<g id="a_Node000009"><a xlink:href="../../dd/d8b/classSubtitleManager.html#a1111d971eef1524971d7835a22246b45" target="_top" xlink:title="Get subtitle timing offset.">
<polygon fill="white" stroke="#666666" points="514,-19 350,-19 350,0 514,0 514,-19"/>
<text text-anchor="middle" x="432" y="-7" font-family="Helvetica,sans-Serif" font-size="10.00">SubtitleManager::timingOffset</text>
</a>
</g>
</g>
<!-- Node5&#45;&gt;Node9 -->
<g id="edge8_Node000005_Node000009" class="edge">
<title>Node5&#45;&gt;Node9</title>
<g id="a_edge8_Node000005_Node000009"><a xlink:title=" ">
<path fill="none" stroke="#63b8ff" d="M258.85,-80.32C280.61,-65.16 316.19,-42.19 350,-28.5 356.3,-25.95 363.01,-23.7 369.78,-21.71"/>
<polygon fill="#63b8ff" stroke="#63b8ff" points="370.98,-25.02 379.7,-19.01 369.13,-18.27 370.98,-25.02"/>
</a>
</g>
</g>
</g>
</svg>
