<?xml version="1.0" encoding="UTF-8" standalone="no"?>
<!DOCTYPE svg PUBLIC "-//W3C//DTD SVG 1.1//EN"
 "http://www.w3.org/Graphics/SVG/1.1/DTD/svg11.dtd">
<!-- Generated by graphviz version 2.43.0 (0)
 -->
<!-- Title: src/network/InternetStreamingService.cpp Pages: 1 -->
<svg width="1584pt" height="159pt"
 viewBox="0.00 0.00 1583.50 159.00" xmlns="http://www.w3.org/2000/svg" xmlns:xlink="http://www.w3.org/1999/xlink">
<g id="graph0" class="graph" transform="scale(1 1) rotate(0) translate(4 155)">
<title>src/network/InternetStreamingService.cpp</title>
<!-- Node1 -->
<g id="Node000001" class="node">
<title>Node1</title>
<g id="a_Node000001"><a xlink:title=" ">
<polygon fill="#999999" stroke="#666666" points="928.5,-151 763.5,-151 763.5,-121 928.5,-121 928.5,-151"/>
<text text-anchor="start" x="771.5" y="-139" font-family="Helvetica,sans-Serif" font-size="10.00">src/network/InternetStreaming</text>
<text text-anchor="middle" x="846" y="-128" font-family="Helvetica,sans-Serif" font-size="10.00">Service.cpp</text>
</a>
</g>
</g>
<!-- Node2 -->
<g id="Node000002" class="node">
<title>Node2</title>
<g id="a_Node000002"><a xlink:href="../../d7/da5/InternetStreamingService_8h.html" target="_top" xlink:title=" ">
<polygon fill="white" stroke="#666666" points="479,-85 331,-85 331,-55 479,-55 479,-85"/>
<text text-anchor="start" x="339" y="-73" font-family="Helvetica,sans-Serif" font-size="10.00">network/InternetStreaming</text>
<text text-anchor="middle" x="405" y="-62" font-family="Helvetica,sans-Serif" font-size="10.00">Service.h</text>
</a>
</g>
</g>
<!-- Node1&#45;&gt;Node2 -->
<g id="edge1_Node000001_Node000002" class="edge">
<title>Node1&#45;&gt;Node2</title>
<g id="a_edge1_Node000001_Node000002"><a xlink:title=" ">
<path fill="none" stroke="#63b8ff" d="M763.31,-123C685.14,-111.66 568.4,-94.71 489.61,-83.28"/>
<polygon fill="#63b8ff" stroke="#63b8ff" points="489.63,-79.75 479.23,-81.77 488.63,-86.67 489.63,-79.75"/>
</a>
</g>
</g>
<!-- Node6 -->
<g id="Node000006" class="node">
<title>Node6</title>
<g id="a_Node000006"><a xlink:title=" ">
<polygon fill="#e0e0e0" stroke="#999999" points="142,-19 0,-19 0,0 142,0 142,-19"/>
<text text-anchor="middle" x="71" y="-7" font-family="Helvetica,sans-Serif" font-size="10.00">QNetworkAccessManager</text>
</a>
</g>
</g>
<!-- Node1&#45;&gt;Node6 -->
<g id="edge11_Node000001_Node000006" class="edge">
<title>Node1&#45;&gt;Node6</title>
<g id="a_edge11_Node000001_Node000006"><a xlink:title=" ">
<path fill="none" stroke="#63b8ff" d="M763.16,-132.04C659.27,-127.2 476.08,-114.92 322,-85 242.02,-69.47 150.98,-39.16 103.59,-22.38"/>
<polygon fill="#63b8ff" stroke="#63b8ff" points="104.75,-19.08 94.15,-19.02 102.4,-25.68 104.75,-19.08"/>
</a>
</g>
</g>
<!-- Node7 -->
<g id="Node000007" class="node">
<title>Node7</title>
<g id="a_Node000007"><a xlink:title=" ">
<polygon fill="#e0e0e0" stroke="#999999" points="531.5,-19 438.5,-19 438.5,0 531.5,0 531.5,-19"/>
<text text-anchor="middle" x="485" y="-7" font-family="Helvetica,sans-Serif" font-size="10.00">QNetworkReply</text>
</a>
</g>
</g>
<!-- Node1&#45;&gt;Node7 -->
<g id="edge13_Node000001_Node000007" class="edge">
<title>Node1&#45;&gt;Node7</title>
<g id="a_edge13_Node000001_Node000007"><a xlink:title=" ">
<path fill="none" stroke="#63b8ff" d="M763.41,-125.02C716.15,-117.54 656.42,-105.06 606,-85 567.35,-69.62 527.12,-42.18 504.16,-25.24"/>
<polygon fill="#63b8ff" stroke="#63b8ff" points="506.07,-22.3 495.97,-19.1 501.87,-27.9 506.07,-22.3"/>
</a>
</g>
</g>
<!-- Node8 -->
<g id="Node000008" class="node">
<title>Node8</title>
<g id="a_Node000008"><a xlink:title=" ">
<polygon fill="#e0e0e0" stroke="#999999" points="602.5,-19 549.5,-19 549.5,0 602.5,0 602.5,-19"/>
<text text-anchor="middle" x="576" y="-7" font-family="Helvetica,sans-Serif" font-size="10.00">QTimer</text>
</a>
</g>
</g>
<!-- Node1&#45;&gt;Node8 -->
<g id="edge20_Node000001_Node000008" class="edge">
<title>Node1&#45;&gt;Node8</title>
<g id="a_edge20_Node000001_Node000008"><a xlink:title=" ">
<path fill="none" stroke="#63b8ff" d="M763.15,-125.72C724.86,-118.71 680.01,-106.43 644,-85 619.75,-70.57 599.08,-44.78 587.1,-27.66"/>
<polygon fill="#63b8ff" stroke="#63b8ff" points="589.86,-25.49 581.37,-19.16 584.06,-29.41 589.86,-25.49"/>
</a>
</g>
</g>
<!-- Node9 -->
<g id="Node000009" class="node">
<title>Node9</title>
<g id="a_Node000009"><a xlink:title=" ">
<polygon fill="#e0e0e0" stroke="#999999" points="697,-19 621,-19 621,0 697,0 697,-19"/>
<text text-anchor="middle" x="659" y="-7" font-family="Helvetica,sans-Serif" font-size="10.00">QJsonObject</text>
</a>
</g>
</g>
<!-- Node1&#45;&gt;Node9 -->
<g id="edge15_Node000001_Node000009" class="edge">
<title>Node1&#45;&gt;Node9</title>
<g id="a_edge15_Node000001_Node000009"><a xlink:title=" ">
<path fill="none" stroke="#63b8ff" d="M763.5,-123.29C718.99,-115.1 670.46,-102.48 657,-85 644.83,-69.19 648.05,-45.39 652.53,-28.97"/>
<polygon fill="#63b8ff" stroke="#63b8ff" points="655.88,-29.99 655.51,-19.4 649.2,-27.9 655.88,-29.99"/>
</a>
</g>
</g>
<!-- Node10 -->
<g id="Node000010" class="node">
<title>Node10</title>
<g id="a_Node000010"><a xlink:title=" ">
<polygon fill="#e0e0e0" stroke="#999999" points="786.5,-19 715.5,-19 715.5,0 786.5,0 786.5,-19"/>
<text text-anchor="middle" x="751" y="-7" font-family="Helvetica,sans-Serif" font-size="10.00">QJsonArray</text>
</a>
</g>
</g>
<!-- Node1&#45;&gt;Node10 -->
<g id="edge16_Node000001_Node000010" class="edge">
<title>Node1&#45;&gt;Node10</title>
<g id="a_edge16_Node000001_Node000010"><a xlink:title=" ">
<path fill="none" stroke="#63b8ff" d="M763.42,-121.84C722.5,-113.46 679.24,-101.13 667,-85 658.94,-74.38 660.12,-66.42 667,-55 676.09,-39.89 692.22,-29.65 707.94,-22.83"/>
<polygon fill="#63b8ff" stroke="#63b8ff" points="709.58,-25.95 717.6,-19.02 707.01,-19.44 709.58,-25.95"/>
</a>
</g>
</g>
<!-- Node12 -->
<g id="Node000012" class="node">
<title>Node12</title>
<g id="a_Node000012"><a xlink:title=" ">
<polygon fill="#e0e0e0" stroke="#999999" points="780.5,-79.5 675.5,-79.5 675.5,-60.5 780.5,-60.5 780.5,-79.5"/>
<text text-anchor="middle" x="728" y="-67.5" font-family="Helvetica,sans-Serif" font-size="10.00">QNetworkRequest</text>
</a>
</g>
</g>
<!-- Node1&#45;&gt;Node12 -->
<g id="edge12_Node000001_Node000012" class="edge">
<title>Node1&#45;&gt;Node12</title>
<g id="a_edge12_Node000001_Node000012"><a xlink:title=" ">
<path fill="none" stroke="#63b8ff" d="M820.1,-120.95C800.05,-110.08 772.45,-95.11 752.7,-84.4"/>
<polygon fill="#63b8ff" stroke="#63b8ff" points="754.16,-81.21 743.7,-79.52 750.83,-87.36 754.16,-81.21"/>
</a>
</g>
</g>
<!-- Node13 -->
<g id="Node000013" class="node">
<title>Node13</title>
<g id="a_Node000013"><a xlink:title=" ">
<polygon fill="#e0e0e0" stroke="#999999" points="893.5,-79.5 798.5,-79.5 798.5,-60.5 893.5,-60.5 893.5,-79.5"/>
<text text-anchor="middle" x="846" y="-67.5" font-family="Helvetica,sans-Serif" font-size="10.00">QJsonDocument</text>
</a>
</g>
</g>
<!-- Node1&#45;&gt;Node13 -->
<g id="edge14_Node000001_Node000013" class="edge">
<title>Node1&#45;&gt;Node13</title>
<g id="a_edge14_Node000001_Node000013"><a xlink:title=" ">
<path fill="none" stroke="#63b8ff" d="M846,-120.8C846,-111.7 846,-99.79 846,-89.9"/>
<polygon fill="#63b8ff" stroke="#63b8ff" points="849.5,-89.84 846,-79.84 842.5,-89.84 849.5,-89.84"/>
</a>
</g>
</g>
<!-- Node14 -->
<g id="Node000014" class="node">
<title>Node14</title>
<g id="a_Node000014"><a xlink:title=" ">
<polygon fill="#e0e0e0" stroke="#999999" points="1024.5,-79.5 911.5,-79.5 911.5,-60.5 1024.5,-60.5 1024.5,-79.5"/>
<text text-anchor="middle" x="968" y="-67.5" font-family="Helvetica,sans-Serif" font-size="10.00">QXmlStreamReader</text>
</a>
</g>
</g>
<!-- Node1&#45;&gt;Node14 -->
<g id="edge17_Node000001_Node000014" class="edge">
<title>Node1&#45;&gt;Node14</title>
<g id="a_edge17_Node000001_Node000014"><a xlink:title=" ">
<path fill="none" stroke="#63b8ff" d="M872.77,-120.95C893.6,-110.03 922.31,-94.97 942.74,-84.25"/>
<polygon fill="#63b8ff" stroke="#63b8ff" points="944.53,-87.26 951.76,-79.52 941.28,-81.06 944.53,-87.26"/>
</a>
</g>
</g>
<!-- Node15 -->
<g id="Node000015" class="node">
<title>Node15</title>
<g id="a_Node000015"><a xlink:title=" ">
<polygon fill="#e0e0e0" stroke="#999999" points="1157.5,-79.5 1042.5,-79.5 1042.5,-60.5 1157.5,-60.5 1157.5,-79.5"/>
<text text-anchor="middle" x="1100" y="-67.5" font-family="Helvetica,sans-Serif" font-size="10.00">QRegularExpression</text>
</a>
</g>
</g>
<!-- Node1&#45;&gt;Node15 -->
<g id="edge18_Node000001_Node000015" class="edge">
<title>Node1&#45;&gt;Node15</title>
<g id="a_edge18_Node000001_Node000015"><a xlink:title=" ">
<path fill="none" stroke="#63b8ff" d="M901.74,-120.95C948.25,-109.24 1013.61,-92.77 1056.37,-81.99"/>
<polygon fill="#63b8ff" stroke="#63b8ff" points="1057.36,-85.35 1066.2,-79.52 1055.64,-78.57 1057.36,-85.35"/>
</a>
</g>
</g>
<!-- Node16 -->
<g id="Node000016" class="node">
<title>Node16</title>
<g id="a_Node000016"><a xlink:title=" ">
<polygon fill="#e0e0e0" stroke="#999999" points="1244,-79.5 1176,-79.5 1176,-60.5 1244,-60.5 1244,-79.5"/>
<text text-anchor="middle" x="1210" y="-67.5" font-family="Helvetica,sans-Serif" font-size="10.00">QUrlQuery</text>
</a>
</g>
</g>
<!-- Node1&#45;&gt;Node16 -->
<g id="edge19_Node000001_Node000016" class="edge">
<title>Node1&#45;&gt;Node16</title>
<g id="a_edge19_Node000001_Node000016"><a xlink:title=" ">
<path fill="none" stroke="#63b8ff" d="M928.51,-125.84C993.77,-117.72 1086.91,-104.14 1167,-85 1170.03,-84.28 1173.16,-83.44 1176.28,-82.54"/>
<polygon fill="#63b8ff" stroke="#63b8ff" points="1177.55,-85.81 1186.09,-79.54 1175.5,-79.12 1177.55,-85.81"/>
</a>
</g>
</g>
<!-- Node17 -->
<g id="Node000017" class="node">
<title>Node17</title>
<g id="a_Node000017"><a xlink:title=" ">
<polygon fill="#e0e0e0" stroke="#999999" points="1334,-79.5 1262,-79.5 1262,-60.5 1334,-60.5 1334,-79.5"/>
<text text-anchor="middle" x="1298" y="-67.5" font-family="Helvetica,sans-Serif" font-size="10.00">QDateTime</text>
</a>
</g>
</g>
<!-- Node1&#45;&gt;Node17 -->
<g id="edge21_Node000001_Node000017" class="edge">
<title>Node1&#45;&gt;Node17</title>
<g id="a_edge21_Node000001_Node000017"><a xlink:title=" ">
<path fill="none" stroke="#63b8ff" d="M928.58,-129.22C1011.32,-122.42 1141.99,-108.88 1253,-85 1256.46,-84.25 1260.04,-83.36 1263.6,-82.39"/>
<polygon fill="#63b8ff" stroke="#63b8ff" points="1264.84,-85.68 1273.45,-79.51 1262.87,-78.96 1264.84,-85.68"/>
</a>
</g>
</g>
<!-- Node18 -->
<g id="Node000018" class="node">
<title>Node18</title>
<g id="a_Node000018"><a xlink:title=" ">
<polygon fill="#e0e0e0" stroke="#999999" points="1393.5,-79.5 1352.5,-79.5 1352.5,-60.5 1393.5,-60.5 1393.5,-79.5"/>
<text text-anchor="middle" x="1373" y="-67.5" font-family="Helvetica,sans-Serif" font-size="10.00">QFile</text>
</a>
</g>
</g>
<!-- Node1&#45;&gt;Node18 -->
<g id="edge22_Node000001_Node000018" class="edge">
<title>Node1&#45;&gt;Node18</title>
<g id="a_edge22_Node000001_Node000018"><a xlink:title=" ">
<path fill="none" stroke="#63b8ff" d="M928.9,-135.09C1028.84,-133.29 1201.06,-124.04 1343,-85 1344.49,-84.59 1346,-84.11 1347.5,-83.58"/>
<polygon fill="#63b8ff" stroke="#63b8ff" points="1349.28,-86.64 1357.19,-79.59 1346.61,-80.17 1349.28,-86.64"/>
</a>
</g>
</g>
<!-- Node19 -->
<g id="Node000019" class="node">
<title>Node19</title>
<g id="a_Node000019"><a xlink:title=" ">
<polygon fill="#e0e0e0" stroke="#999999" points="1450,-79.5 1412,-79.5 1412,-60.5 1450,-60.5 1450,-79.5"/>
<text text-anchor="middle" x="1431" y="-67.5" font-family="Helvetica,sans-Serif" font-size="10.00">QDir</text>
</a>
</g>
</g>
<!-- Node1&#45;&gt;Node19 -->
<g id="edge23_Node000001_Node000019" class="edge">
<title>Node1&#45;&gt;Node19</title>
<g id="a_edge23_Node000001_Node000019"><a xlink:title=" ">
<path fill="none" stroke="#63b8ff" d="M928.68,-131.36C1061.46,-124.88 1316.14,-109.66 1403,-85 1404.26,-84.64 1405.54,-84.22 1406.81,-83.77"/>
<polygon fill="#63b8ff" stroke="#63b8ff" points="1408.53,-86.83 1416.31,-79.63 1405.74,-80.42 1408.53,-86.83"/>
</a>
</g>
</g>
<!-- Node20 -->
<g id="Node000020" class="node">
<title>Node20</title>
<g id="a_Node000020"><a xlink:title=" ">
<polygon fill="#e0e0e0" stroke="#999999" points="1575.5,-79.5 1468.5,-79.5 1468.5,-60.5 1575.5,-60.5 1575.5,-79.5"/>
<text text-anchor="middle" x="1522" y="-67.5" font-family="Helvetica,sans-Serif" font-size="10.00">QLoggingCategory</text>
</a>
</g>
</g>
<!-- Node1&#45;&gt;Node20 -->
<g id="edge24_Node000001_Node000020" class="edge">
<title>Node1&#45;&gt;Node20</title>
<g id="a_edge24_Node000001_Node000020"><a xlink:title=" ">
<path fill="none" stroke="#63b8ff" d="M928.71,-131.86C1046.87,-126.56 1270.54,-113.49 1459,-85 1464.96,-84.1 1471.2,-82.96 1477.34,-81.72"/>
<polygon fill="#63b8ff" stroke="#63b8ff" points="1478.44,-85.06 1487.5,-79.56 1476.99,-78.21 1478.44,-85.06"/>
</a>
</g>
</g>
<!-- Node3 -->
<g id="Node000003" class="node">
<title>Node3</title>
<g id="a_Node000003"><a xlink:title=" ">
<polygon fill="#e0e0e0" stroke="#999999" points="292,-19 236,-19 236,0 292,0 292,-19"/>
<text text-anchor="middle" x="264" y="-7" font-family="Helvetica,sans-Serif" font-size="10.00">QObject</text>
</a>
</g>
</g>
<!-- Node2&#45;&gt;Node3 -->
<g id="edge2_Node000002_Node000003" class="edge">
<title>Node2&#45;&gt;Node3</title>
<g id="a_edge2_Node000002_Node000003"><a xlink:title=" ">
<path fill="none" stroke="#63b8ff" d="M371.23,-54.99C347.81,-45.27 316.88,-32.44 294.27,-23.06"/>
<polygon fill="#63b8ff" stroke="#63b8ff" points="295.4,-19.74 284.82,-19.14 292.72,-26.2 295.4,-19.74"/>
</a>
</g>
</g>
<!-- Node4 -->
<g id="Node000004" class="node">
<title>Node4</title>
<g id="a_Node000004"><a xlink:title=" ">
<polygon fill="#e0e0e0" stroke="#999999" points="363.5,-19 310.5,-19 310.5,0 363.5,0 363.5,-19"/>
<text text-anchor="middle" x="337" y="-7" font-family="Helvetica,sans-Serif" font-size="10.00">QString</text>
</a>
</g>
</g>
<!-- Node2&#45;&gt;Node4 -->
<g id="edge3_Node000002_Node000004" class="edge">
<title>Node2&#45;&gt;Node4</title>
<g id="a_edge3_Node000002_Node000004"><a xlink:title=" ">
<path fill="none" stroke="#63b8ff" d="M388.54,-54.84C378.37,-46.09 365.31,-34.85 354.88,-25.88"/>
<polygon fill="#63b8ff" stroke="#63b8ff" points="357.05,-23.13 347.19,-19.27 352.49,-28.44 357.05,-23.13"/>
</a>
</g>
</g>
<!-- Node5 -->
<g id="Node000005" class="node">
<title>Node5</title>
<g id="a_Node000005"><a xlink:title=" ">
<polygon fill="#e0e0e0" stroke="#999999" points="420,-19 382,-19 382,0 420,0 420,-19"/>
<text text-anchor="middle" x="401" y="-7" font-family="Helvetica,sans-Serif" font-size="10.00">QUrl</text>
</a>
</g>
</g>
<!-- Node2&#45;&gt;Node5 -->
<g id="edge4_Node000002_Node000005" class="edge">
<title>Node2&#45;&gt;Node5</title>
<g id="a_edge4_Node000002_Node000005"><a xlink:title=" ">
<path fill="none" stroke="#63b8ff" d="M404.03,-54.84C403.51,-47.21 402.86,-37.7 402.3,-29.45"/>
<polygon fill="#63b8ff" stroke="#63b8ff" points="405.77,-29 401.6,-19.27 398.79,-29.48 405.77,-29"/>
</a>
</g>
</g>
<!-- Node2&#45;&gt;Node6 -->
<g id="edge5_Node000002_Node000006" class="edge">
<title>Node2&#45;&gt;Node6</title>
<g id="a_edge5_Node000002_Node000006"><a xlink:title=" ">
<path fill="none" stroke="#63b8ff" d="M330.87,-56.02C270.26,-45.4 185.72,-30.59 129.73,-20.79"/>
<polygon fill="#63b8ff" stroke="#63b8ff" points="130.07,-17.29 119.62,-19.02 128.86,-24.19 130.07,-17.29"/>
</a>
</g>
</g>
<!-- Node2&#45;&gt;Node7 -->
<g id="edge6_Node000002_Node000007" class="edge">
<title>Node2&#45;&gt;Node7</title>
<g id="a_edge6_Node000002_Node000007"><a xlink:title=" ">
<path fill="none" stroke="#63b8ff" d="M424.37,-54.84C436.57,-45.91 452.31,-34.41 464.69,-25.35"/>
<polygon fill="#63b8ff" stroke="#63b8ff" points="467.01,-27.99 473.01,-19.27 462.87,-22.34 467.01,-27.99"/>
</a>
</g>
</g>
<!-- Node2&#45;&gt;Node8 -->
<g id="edge7_Node000002_Node000008" class="edge">
<title>Node2&#45;&gt;Node8</title>
<g id="a_edge7_Node000002_Node000008"><a xlink:title=" ">
<path fill="none" stroke="#63b8ff" d="M445.96,-54.99C475,-45.05 513.55,-31.86 541.12,-22.43"/>
<polygon fill="#63b8ff" stroke="#63b8ff" points="542.42,-25.69 550.75,-19.14 540.15,-19.06 542.42,-25.69"/>
</a>
</g>
</g>
<!-- Node2&#45;&gt;Node9 -->
<g id="edge8_Node000002_Node000009" class="edge">
<title>Node2&#45;&gt;Node9</title>
<g id="a_edge8_Node000002_Node000009"><a xlink:title=" ">
<path fill="none" stroke="#63b8ff" d="M465.84,-54.99C510.72,-44.65 570.89,-30.79 612.08,-21.31"/>
<polygon fill="#63b8ff" stroke="#63b8ff" points="612.9,-24.71 621.86,-19.05 611.33,-17.89 612.9,-24.71"/>
</a>
</g>
</g>
<!-- Node2&#45;&gt;Node10 -->
<g id="edge9_Node000002_Node000010" class="edge">
<title>Node2&#45;&gt;Node10</title>
<g id="a_edge9_Node000002_Node000010"><a xlink:title=" ">
<path fill="none" stroke="#63b8ff" d="M479.3,-57.13C537.94,-47.65 622.1,-33.8 705.28,-19.1"/>
<polygon fill="#63b8ff" stroke="#63b8ff" points="705.92,-22.54 715.15,-17.35 704.69,-15.65 705.92,-22.54"/>
</a>
</g>
</g>
<!-- Node11 -->
<g id="Node000011" class="node">
<title>Node11</title>
<g id="a_Node000011"><a xlink:title=" ">
<polygon fill="#e0e0e0" stroke="#999999" points="218,-19 160,-19 160,0 218,0 218,-19"/>
<text text-anchor="middle" x="189" y="-7" font-family="Helvetica,sans-Serif" font-size="10.00">memory</text>
</a>
</g>
</g>
<!-- Node2&#45;&gt;Node11 -->
<g id="edge10_Node000002_Node000011" class="edge">
<title>Node2&#45;&gt;Node11</title>
<g id="a_edge10_Node000002_Node000011"><a xlink:title=" ">
<path fill="none" stroke="#63b8ff" d="M353.26,-54.99C314.75,-44.56 263.01,-30.54 227.96,-21.05"/>
<polygon fill="#63b8ff" stroke="#63b8ff" points="228.66,-17.62 218.1,-18.38 226.83,-24.37 228.66,-17.62"/>
</a>
</g>
</g>
</g>
</svg>
