<?xml version="1.0" encoding="UTF-8" standalone="no"?>
<!DOCTYPE svg PUBLIC "-//W3C//DTD SVG 1.1//EN"
 "http://www.w3.org/Graphics/SVG/1.1/DTD/svg11.dtd">
<!-- Generated by graphviz version 2.43.0 (0)
 -->
<!-- Title: src/audio/AudioEqualizer.cpp Pages: 1 -->
<svg width="1389pt" height="137pt"
 viewBox="0.00 0.00 1388.50 137.00" xmlns="http://www.w3.org/2000/svg" xmlns:xlink="http://www.w3.org/1999/xlink">
<g id="graph0" class="graph" transform="scale(1 1) rotate(0) translate(4 133)">
<title>src/audio/AudioEqualizer.cpp</title>
<!-- Node1 -->
<g id="Node000001" class="node">
<title>Node1</title>
<g id="a_Node000001"><a xlink:title=" ">
<polygon fill="#999999" stroke="#666666" points="904,-129 748,-129 748,-110 904,-110 904,-129"/>
<text text-anchor="middle" x="826" y="-117" font-family="Helvetica,sans-Serif" font-size="10.00">src/audio/AudioEqualizer.cpp</text>
</a>
</g>
</g>
<!-- Node2 -->
<g id="Node000002" class="node">
<title>Node2</title>
<g id="a_Node000002"><a xlink:href="../../d5/db2/AudioEqualizer_8h.html" target="_top" xlink:title=" ">
<polygon fill="white" stroke="#666666" points="248,-74 120,-74 120,-55 248,-55 248,-74"/>
<text text-anchor="middle" x="184" y="-62" font-family="Helvetica,sans-Serif" font-size="10.00">audio/AudioEqualizer.h</text>
</a>
</g>
</g>
<!-- Node1&#45;&gt;Node2 -->
<g id="edge1_Node000001_Node000002" class="edge">
<title>Node1&#45;&gt;Node2</title>
<g id="a_edge1_Node000001_Node000002"><a xlink:title=" ">
<path fill="none" stroke="#63b8ff" d="M747.68,-113.32C639.88,-105.97 439.46,-91.56 258.07,-74.07"/>
<polygon fill="#63b8ff" stroke="#63b8ff" points="258.37,-70.58 248.08,-73.1 257.69,-77.55 258.37,-70.58"/>
</a>
</g>
</g>
<!-- Node9 -->
<g id="Node000009" class="node">
<title>Node9</title>
<g id="a_Node000009"><a xlink:href="../../db/d4f/AudioProcessor_8h.html" target="_top" xlink:title=" ">
<polygon fill="white" stroke="#666666" points="396,-74 266,-74 266,-55 396,-55 396,-74"/>
<text text-anchor="middle" x="331" y="-62" font-family="Helvetica,sans-Serif" font-size="10.00">audio/AudioProcessor.h</text>
</a>
</g>
</g>
<!-- Node1&#45;&gt;Node9 -->
<g id="edge8_Node000001_Node000009" class="edge">
<title>Node1&#45;&gt;Node9</title>
<g id="a_edge8_Node000001_Node000009"><a xlink:title=" ">
<path fill="none" stroke="#63b8ff" d="M748,-110.47C665.7,-101.95 531.91,-87.95 406.53,-74.16"/>
<polygon fill="#63b8ff" stroke="#63b8ff" points="406.69,-70.66 396.37,-73.04 405.92,-77.61 406.69,-70.66"/>
</a>
</g>
</g>
<!-- Node12 -->
<g id="Node000012" class="node">
<title>Node12</title>
<g id="a_Node000012"><a xlink:title=" ">
<polygon fill="#e0e0e0" stroke="#999999" points="508,-74 414,-74 414,-55 508,-55 508,-74"/>
<text text-anchor="middle" x="461" y="-62" font-family="Helvetica,sans-Serif" font-size="10.00">QStandardPaths</text>
</a>
</g>
</g>
<!-- Node1&#45;&gt;Node12 -->
<g id="edge16_Node000001_Node000012" class="edge">
<title>Node1&#45;&gt;Node12</title>
<g id="a_edge16_Node000001_Node000012"><a xlink:title=" ">
<path fill="none" stroke="#63b8ff" d="M765.88,-109.98C705.78,-101.43 610.45,-87.79 518.13,-74.16"/>
<polygon fill="#63b8ff" stroke="#63b8ff" points="518.45,-70.67 508.05,-72.67 517.43,-77.59 518.45,-70.67"/>
</a>
</g>
</g>
<!-- Node13 -->
<g id="Node000013" class="node">
<title>Node13</title>
<g id="a_Node000013"><a xlink:title=" ">
<polygon fill="#e0e0e0" stroke="#999999" points="564,-74 526,-74 526,-55 564,-55 564,-74"/>
<text text-anchor="middle" x="545" y="-62" font-family="Helvetica,sans-Serif" font-size="10.00">QDir</text>
</a>
</g>
</g>
<!-- Node1&#45;&gt;Node13 -->
<g id="edge17_Node000001_Node000013" class="edge">
<title>Node1&#45;&gt;Node13</title>
<g id="a_edge17_Node000001_Node000013"><a xlink:title=" ">
<path fill="none" stroke="#63b8ff" d="M767.07,-109.98C715.76,-102.11 639.54,-89.34 574,-74 573.9,-73.98 573.8,-73.95 573.7,-73.93"/>
<polygon fill="#63b8ff" stroke="#63b8ff" points="574.82,-70.61 564.26,-71.47 573.06,-77.38 574.82,-70.61"/>
</a>
</g>
</g>
<!-- Node14 -->
<g id="Node000014" class="node">
<title>Node14</title>
<g id="a_Node000014"><a xlink:title=" ">
<polygon fill="#e0e0e0" stroke="#999999" points="677.5,-74 582.5,-74 582.5,-55 677.5,-55 677.5,-74"/>
<text text-anchor="middle" x="630" y="-62" font-family="Helvetica,sans-Serif" font-size="10.00">QJsonDocument</text>
</a>
</g>
</g>
<!-- Node1&#45;&gt;Node14 -->
<g id="edge18_Node000001_Node000014" class="edge">
<title>Node1&#45;&gt;Node14</title>
<g id="a_edge18_Node000001_Node000014"><a xlink:title=" ">
<path fill="none" stroke="#63b8ff" d="M794.51,-109.98C761.18,-100.97 708.4,-86.7 671.65,-76.76"/>
<polygon fill="#63b8ff" stroke="#63b8ff" points="672.3,-73.31 661.74,-74.08 670.48,-80.07 672.3,-73.31"/>
</a>
</g>
</g>
<!-- Node15 -->
<g id="Node000015" class="node">
<title>Node15</title>
<g id="a_Node000015"><a xlink:title=" ">
<polygon fill="#e0e0e0" stroke="#999999" points="772,-74 696,-74 696,-55 772,-55 772,-74"/>
<text text-anchor="middle" x="734" y="-62" font-family="Helvetica,sans-Serif" font-size="10.00">QJsonObject</text>
</a>
</g>
</g>
<!-- Node1&#45;&gt;Node15 -->
<g id="edge19_Node000001_Node000015" class="edge">
<title>Node1&#45;&gt;Node15</title>
<g id="a_edge19_Node000001_Node000015"><a xlink:title=" ">
<path fill="none" stroke="#63b8ff" d="M811.22,-109.98C796.82,-101.69 774.69,-88.94 757.81,-79.22"/>
<polygon fill="#63b8ff" stroke="#63b8ff" points="759.46,-76.13 749.05,-74.17 755.97,-82.19 759.46,-76.13"/>
</a>
</g>
</g>
<!-- Node16 -->
<g id="Node000016" class="node">
<title>Node16</title>
<g id="a_Node000016"><a xlink:title=" ">
<polygon fill="#e0e0e0" stroke="#999999" points="861.5,-74 790.5,-74 790.5,-55 861.5,-55 861.5,-74"/>
<text text-anchor="middle" x="826" y="-62" font-family="Helvetica,sans-Serif" font-size="10.00">QJsonArray</text>
</a>
</g>
</g>
<!-- Node1&#45;&gt;Node16 -->
<g id="edge20_Node000001_Node000016" class="edge">
<title>Node1&#45;&gt;Node16</title>
<g id="a_edge20_Node000001_Node000016"><a xlink:title=" ">
<path fill="none" stroke="#63b8ff" d="M826,-109.75C826,-102.8 826,-92.85 826,-84.13"/>
<polygon fill="#63b8ff" stroke="#63b8ff" points="829.5,-84.09 826,-74.09 822.5,-84.09 829.5,-84.09"/>
</a>
</g>
</g>
<!-- Node17 -->
<g id="Node000017" class="node">
<title>Node17</title>
<g id="a_Node000017"><a xlink:title=" ">
<polygon fill="#e0e0e0" stroke="#999999" points="920.5,-74 879.5,-74 879.5,-55 920.5,-55 920.5,-74"/>
<text text-anchor="middle" x="900" y="-62" font-family="Helvetica,sans-Serif" font-size="10.00">QFile</text>
</a>
</g>
</g>
<!-- Node1&#45;&gt;Node17 -->
<g id="edge21_Node000001_Node000017" class="edge">
<title>Node1&#45;&gt;Node17</title>
<g id="a_edge21_Node000001_Node000017"><a xlink:title=" ">
<path fill="none" stroke="#63b8ff" d="M837.89,-109.98C849.15,-101.92 866.29,-89.65 879.71,-80.03"/>
<polygon fill="#63b8ff" stroke="#63b8ff" points="881.8,-82.84 887.89,-74.17 877.73,-77.15 881.8,-82.84"/>
</a>
</g>
</g>
<!-- Node18 -->
<g id="Node000018" class="node">
<title>Node18</title>
<g id="a_Node000018"><a xlink:title=" ">
<polygon fill="#e0e0e0" stroke="#999999" points="1045.5,-74 938.5,-74 938.5,-55 1045.5,-55 1045.5,-74"/>
<text text-anchor="middle" x="992" y="-62" font-family="Helvetica,sans-Serif" font-size="10.00">QLoggingCategory</text>
</a>
</g>
</g>
<!-- Node1&#45;&gt;Node18 -->
<g id="edge22_Node000001_Node000018" class="edge">
<title>Node1&#45;&gt;Node18</title>
<g id="a_edge22_Node000001_Node000018"><a xlink:title=" ">
<path fill="none" stroke="#63b8ff" d="M852.67,-109.98C880.54,-101.09 924.45,-87.07 955.52,-77.15"/>
<polygon fill="#63b8ff" stroke="#63b8ff" points="956.66,-80.46 965.12,-74.08 954.53,-73.79 956.66,-80.46"/>
</a>
</g>
</g>
<!-- Node19 -->
<g id="Node000019" class="node">
<title>Node19</title>
<g id="a_Node000019"><a xlink:title=" ">
<polygon fill="#e0e0e0" stroke="#999999" points="1116.5,-74 1063.5,-74 1063.5,-55 1116.5,-55 1116.5,-74"/>
<text text-anchor="middle" x="1090" y="-62" font-family="Helvetica,sans-Serif" font-size="10.00">QtMath</text>
</a>
</g>
</g>
<!-- Node1&#45;&gt;Node19 -->
<g id="edge23_Node000001_Node000019" class="edge">
<title>Node1&#45;&gt;Node19</title>
<g id="a_edge23_Node000001_Node000019"><a xlink:title=" ">
<path fill="none" stroke="#63b8ff" d="M873.5,-109.93C917.73,-101.81 985.74,-88.94 1053.31,-74.3"/>
<polygon fill="#63b8ff" stroke="#63b8ff" points="1054.25,-77.67 1063.28,-72.12 1052.76,-70.84 1054.25,-77.67"/>
</a>
</g>
</g>
<!-- Node20 -->
<g id="Node000020" class="node">
<title>Node20</title>
<g id="a_Node000020"><a xlink:title=" ">
<polygon fill="#e0e0e0" stroke="#999999" points="1221,-74 1135,-74 1135,-55 1221,-55 1221,-74"/>
<text text-anchor="middle" x="1178" y="-62" font-family="Helvetica,sans-Serif" font-size="10.00">QMutexLocker</text>
</a>
</g>
</g>
<!-- Node1&#45;&gt;Node20 -->
<g id="edge24_Node000001_Node000020" class="edge">
<title>Node1&#45;&gt;Node20</title>
<g id="a_edge24_Node000001_Node000020"><a xlink:title=" ">
<path fill="none" stroke="#63b8ff" d="M885.24,-109.98C943.59,-101.52 1035.56,-88.03 1124.85,-74.16"/>
<polygon fill="#63b8ff" stroke="#63b8ff" points="1125.54,-77.6 1134.88,-72.6 1124.46,-70.68 1125.54,-77.6"/>
</a>
</g>
</g>
<!-- Node21 -->
<g id="Node000021" class="node">
<title>Node21</title>
<g id="a_Node000021"><a xlink:title=" ">
<polygon fill="#e0e0e0" stroke="#999999" points="1303,-74 1239,-74 1239,-55 1303,-55 1303,-74"/>
<text text-anchor="middle" x="1271" y="-62" font-family="Helvetica,sans-Serif" font-size="10.00">algorithm</text>
</a>
</g>
</g>
<!-- Node1&#45;&gt;Node21 -->
<g id="edge25_Node000001_Node000021" class="edge">
<title>Node1&#45;&gt;Node21</title>
<g id="a_edge25_Node000001_Node000021"><a xlink:title=" ">
<path fill="none" stroke="#63b8ff" d="M904.12,-112.11C983.48,-105.11 1110.11,-92.56 1228.83,-74.05"/>
<polygon fill="#63b8ff" stroke="#63b8ff" points="1229.49,-77.49 1238.82,-72.47 1228.4,-70.57 1229.49,-77.49"/>
</a>
</g>
</g>
<!-- Node22 -->
<g id="Node000022" class="node">
<title>Node22</title>
<g id="a_Node000022"><a xlink:title=" ">
<polygon fill="#e0e0e0" stroke="#999999" points="1380.5,-74 1321.5,-74 1321.5,-55 1380.5,-55 1380.5,-74"/>
<text text-anchor="middle" x="1351" y="-62" font-family="Helvetica,sans-Serif" font-size="10.00">complex</text>
</a>
</g>
</g>
<!-- Node1&#45;&gt;Node22 -->
<g id="edge26_Node000001_Node000022" class="edge">
<title>Node1&#45;&gt;Node22</title>
<g id="a_edge26_Node000001_Node000022"><a xlink:title=" ">
<path fill="none" stroke="#63b8ff" d="M904.22,-114.32C998.4,-108.61 1161.48,-96.6 1310.98,-73.95"/>
<polygon fill="#63b8ff" stroke="#63b8ff" points="1311.91,-77.35 1321.26,-72.38 1310.85,-70.43 1311.91,-77.35"/>
</a>
</g>
</g>
<!-- Node3 -->
<g id="Node000003" class="node">
<title>Node3</title>
<g id="a_Node000003"><a xlink:title=" ">
<polygon fill="#e0e0e0" stroke="#999999" points="138,-19 82,-19 82,0 138,0 138,-19"/>
<text text-anchor="middle" x="110" y="-7" font-family="Helvetica,sans-Serif" font-size="10.00">QObject</text>
</a>
</g>
</g>
<!-- Node2&#45;&gt;Node3 -->
<g id="edge2_Node000002_Node000003" class="edge">
<title>Node2&#45;&gt;Node3</title>
<g id="a_edge2_Node000002_Node000003"><a xlink:title=" ">
<path fill="none" stroke="#63b8ff" d="M172.11,-54.98C160.85,-46.92 143.71,-34.65 130.29,-25.03"/>
<polygon fill="#63b8ff" stroke="#63b8ff" points="132.27,-22.15 122.11,-19.17 128.2,-27.84 132.27,-22.15"/>
</a>
</g>
</g>
<!-- Node4 -->
<g id="Node000004" class="node">
<title>Node4</title>
<g id="a_Node000004"><a xlink:title=" ">
<polygon fill="#e0e0e0" stroke="#999999" points="211.5,-19 156.5,-19 156.5,0 211.5,0 211.5,-19"/>
<text text-anchor="middle" x="184" y="-7" font-family="Helvetica,sans-Serif" font-size="10.00">QVector</text>
</a>
</g>
</g>
<!-- Node2&#45;&gt;Node4 -->
<g id="edge3_Node000002_Node000004" class="edge">
<title>Node2&#45;&gt;Node4</title>
<g id="a_edge3_Node000002_Node000004"><a xlink:title=" ">
<path fill="none" stroke="#63b8ff" d="M184,-54.75C184,-47.8 184,-37.85 184,-29.13"/>
<polygon fill="#63b8ff" stroke="#63b8ff" points="187.5,-29.09 184,-19.09 180.5,-29.09 187.5,-29.09"/>
</a>
</g>
</g>
<!-- Node5 -->
<g id="Node000005" class="node">
<title>Node5</title>
<g id="a_Node000005"><a xlink:title=" ">
<polygon fill="#e0e0e0" stroke="#999999" points="282.5,-19 229.5,-19 229.5,0 282.5,0 282.5,-19"/>
<text text-anchor="middle" x="256" y="-7" font-family="Helvetica,sans-Serif" font-size="10.00">QString</text>
</a>
</g>
</g>
<!-- Node2&#45;&gt;Node5 -->
<g id="edge4_Node000002_Node000005" class="edge">
<title>Node2&#45;&gt;Node5</title>
<g id="a_edge4_Node000002_Node000005"><a xlink:title=" ">
<path fill="none" stroke="#63b8ff" d="M195.57,-54.98C206.42,-47 222.88,-34.88 235.88,-25.31"/>
<polygon fill="#63b8ff" stroke="#63b8ff" points="238.24,-27.92 244.22,-19.17 234.09,-22.28 238.24,-27.92"/>
</a>
</g>
</g>
<!-- Node6 -->
<g id="Node000006" class="node">
<title>Node6</title>
<g id="a_Node000006"><a xlink:title=" ">
<polygon fill="#e0e0e0" stroke="#999999" points="64,-19 0,-19 0,0 64,0 64,-19"/>
<text text-anchor="middle" x="32" y="-7" font-family="Helvetica,sans-Serif" font-size="10.00">QSettings</text>
</a>
</g>
</g>
<!-- Node2&#45;&gt;Node6 -->
<g id="edge5_Node000002_Node000006" class="edge">
<title>Node2&#45;&gt;Node6</title>
<g id="a_edge5_Node000002_Node000006"><a xlink:title=" ">
<path fill="none" stroke="#63b8ff" d="M159.58,-54.98C134.28,-46.16 94.55,-32.31 66.14,-22.41"/>
<polygon fill="#63b8ff" stroke="#63b8ff" points="67.21,-19.07 56.61,-19.08 64.9,-25.68 67.21,-19.07"/>
</a>
</g>
</g>
<!-- Node7 -->
<g id="Node000007" class="node">
<title>Node7</title>
<g id="a_Node000007"><a xlink:title=" ">
<polygon fill="#e0e0e0" stroke="#999999" points="355.5,-19 300.5,-19 300.5,0 355.5,0 355.5,-19"/>
<text text-anchor="middle" x="328" y="-7" font-family="Helvetica,sans-Serif" font-size="10.00">QMutex</text>
</a>
</g>
</g>
<!-- Node2&#45;&gt;Node7 -->
<g id="edge6_Node000002_Node000007" class="edge">
<title>Node2&#45;&gt;Node7</title>
<g id="a_edge6_Node000002_Node000007"><a xlink:title=" ">
<path fill="none" stroke="#63b8ff" d="M207.14,-54.98C230.82,-46.27 267.87,-32.63 294.71,-22.75"/>
<polygon fill="#63b8ff" stroke="#63b8ff" points="296.27,-25.91 304.44,-19.17 293.85,-19.34 296.27,-25.91"/>
</a>
</g>
</g>
<!-- Node8 -->
<g id="Node000008" class="node">
<title>Node8</title>
<g id="a_Node000008"><a xlink:title=" ">
<polygon fill="#e0e0e0" stroke="#999999" points="432,-19 374,-19 374,0 432,0 432,-19"/>
<text text-anchor="middle" x="403" y="-7" font-family="Helvetica,sans-Serif" font-size="10.00">memory</text>
</a>
</g>
</g>
<!-- Node2&#45;&gt;Node8 -->
<g id="edge7_Node000002_Node000008" class="edge">
<title>Node2&#45;&gt;Node8</title>
<g id="a_edge7_Node000002_Node000008"><a xlink:title=" ">
<path fill="none" stroke="#63b8ff" d="M219.19,-54.98C258.76,-45.41 322.84,-29.9 363.93,-19.95"/>
<polygon fill="#63b8ff" stroke="#63b8ff" points="364.96,-23.31 373.86,-17.55 363.31,-16.5 364.96,-23.31"/>
</a>
</g>
</g>
<!-- Node9&#45;&gt;Node3 -->
<g id="edge9_Node000009_Node000003" class="edge">
<title>Node9&#45;&gt;Node3</title>
<g id="a_edge9_Node000009_Node000003"><a xlink:title=" ">
<path fill="none" stroke="#63b8ff" d="M295.49,-54.98C255.11,-45.3 189.43,-29.55 148.03,-19.62"/>
<polygon fill="#63b8ff" stroke="#63b8ff" points="148.6,-16.16 138.06,-17.23 146.97,-22.96 148.6,-16.16"/>
</a>
</g>
</g>
<!-- Node9&#45;&gt;Node4 -->
<g id="edge11_Node000009_Node000004" class="edge">
<title>Node9&#45;&gt;Node4</title>
<g id="a_edge11_Node000009_Node000004"><a xlink:title=" ">
<path fill="none" stroke="#63b8ff" d="M307.38,-54.98C283.1,-46.23 245.05,-32.51 217.63,-22.62"/>
<polygon fill="#63b8ff" stroke="#63b8ff" points="218.64,-19.27 208.05,-19.17 216.27,-25.85 218.64,-19.27"/>
</a>
</g>
</g>
<!-- Node9&#45;&gt;Node5 -->
<g id="edge10_Node000009_Node000005" class="edge">
<title>Node9&#45;&gt;Node5</title>
<g id="a_edge10_Node000009_Node000005"><a xlink:title=" ">
<path fill="none" stroke="#63b8ff" d="M318.95,-54.98C307.54,-46.92 290.17,-34.65 276.57,-25.03"/>
<polygon fill="#63b8ff" stroke="#63b8ff" points="278.46,-22.08 268.27,-19.17 274.42,-27.8 278.46,-22.08"/>
</a>
</g>
</g>
<!-- Node9&#45;&gt;Node7 -->
<g id="edge14_Node000009_Node000007" class="edge">
<title>Node9&#45;&gt;Node7</title>
<g id="a_edge14_Node000009_Node000007"><a xlink:title=" ">
<path fill="none" stroke="#63b8ff" d="M330.5,-54.75C330.11,-47.8 329.55,-37.85 329.05,-29.13"/>
<polygon fill="#63b8ff" stroke="#63b8ff" points="332.55,-28.88 328.49,-19.09 325.56,-29.27 332.55,-28.88"/>
</a>
</g>
</g>
<!-- Node9&#45;&gt;Node8 -->
<g id="edge15_Node000009_Node000008" class="edge">
<title>Node9&#45;&gt;Node8</title>
<g id="a_edge15_Node000009_Node000008"><a xlink:title=" ">
<path fill="none" stroke="#63b8ff" d="M342.57,-54.98C353.42,-47 369.88,-34.88 382.88,-25.31"/>
<polygon fill="#63b8ff" stroke="#63b8ff" points="385.24,-27.92 391.22,-19.17 381.09,-22.28 385.24,-27.92"/>
</a>
</g>
</g>
<!-- Node10 -->
<g id="Node000010" class="node">
<title>Node10</title>
<g id="a_Node000010"><a xlink:title=" ">
<polygon fill="#e0e0e0" stroke="#999999" points="495.5,-19 450.5,-19 450.5,0 495.5,0 495.5,-19"/>
<text text-anchor="middle" x="473" y="-7" font-family="Helvetica,sans-Serif" font-size="10.00">QMap</text>
</a>
</g>
</g>
<!-- Node9&#45;&gt;Node10 -->
<g id="edge12_Node000009_Node000010" class="edge">
<title>Node9&#45;&gt;Node10</title>
<g id="a_edge12_Node000009_Node000010"><a xlink:title=" ">
<path fill="none" stroke="#63b8ff" d="M353.81,-54.98C377.31,-46.21 414.14,-32.47 440.64,-22.58"/>
<polygon fill="#63b8ff" stroke="#63b8ff" points="442.1,-25.77 450.24,-18.99 439.65,-19.21 442.1,-25.77"/>
</a>
</g>
</g>
<!-- Node11 -->
<g id="Node000011" class="node">
<title>Node11</title>
<g id="a_Node000011"><a xlink:title=" ">
<polygon fill="#e0e0e0" stroke="#999999" points="566.5,-19 513.5,-19 513.5,0 566.5,0 566.5,-19"/>
<text text-anchor="middle" x="540" y="-7" font-family="Helvetica,sans-Serif" font-size="10.00">QTimer</text>
</a>
</g>
</g>
<!-- Node9&#45;&gt;Node11 -->
<g id="edge13_Node000009_Node000011" class="edge">
<title>Node9&#45;&gt;Node11</title>
<g id="a_edge13_Node000009_Node000011"><a xlink:title=" ">
<path fill="none" stroke="#63b8ff" d="M364.58,-54.98C402.61,-45.34 464.36,-29.68 503.54,-19.75"/>
<polygon fill="#63b8ff" stroke="#63b8ff" points="504.63,-23.08 513.47,-17.23 502.91,-16.29 504.63,-23.08"/>
</a>
</g>
</g>
</g>
</svg>
