<?xml version="1.0" encoding="UTF-8" standalone="no"?>
<!DOCTYPE svg PUBLIC "-//W3C//DTD SVG 1.1//EN"
 "http://www.w3.org/Graphics/SVG/1.1/DTD/svg11.dtd">
<!-- Generated by graphviz version 2.43.0 (0)
 -->
<!-- Title: EonPlay::AI::AISubtitleManager::operationFailed Pages: 1 -->
<svg width="581pt" height="172pt"
 viewBox="0.00 0.00 581.00 172.00" xmlns="http://www.w3.org/2000/svg" xmlns:xlink="http://www.w3.org/1999/xlink">
<g id="graph0" class="graph" transform="scale(1 1) rotate(0) translate(4 168)">
<title>EonPlay::AI::AISubtitleManager::operationFailed</title>
<!-- Node1 -->
<g id="Node000001" class="node">
<title>Node1</title>
<g id="a_Node000001"><a xlink:title=" ">
<polygon fill="#999999" stroke="#666666" points="573,-99 406,-99 406,-69 573,-69 573,-99"/>
<text text-anchor="start" x="414" y="-87" font-family="Helvetica,sans-Serif" font-size="10.00">EonPlay::AI::AISubtitleManager</text>
<text text-anchor="middle" x="489.5" y="-76" font-family="Helvetica,sans-Serif" font-size="10.00">::operationFailed</text>
</a>
</g>
</g>
<!-- Node2 -->
<g id="Node000002" class="node">
<title>Node2</title>
<g id="a_Node000002"><a xlink:href="../../d8/d35/classEonPlay_1_1AI_1_1AISubtitleManager.html#ab3e5af1e0a5ada794e609186d58291ba" target="_top" xlink:title=" ">
<polygon fill="white" stroke="#666666" points="370,-164 203,-164 203,-134 370,-134 370,-164"/>
<text text-anchor="start" x="211" y="-152" font-family="Helvetica,sans-Serif" font-size="10.00">EonPlay::AI::AISubtitleManager</text>
<text text-anchor="middle" x="286.5" y="-141" font-family="Helvetica,sans-Serif" font-size="10.00">::generateSubtitlesForMedia</text>
</a>
</g>
</g>
<!-- Node1&#45;&gt;Node2 -->
<g id="edge1_Node000001_Node000002" class="edge">
<title>Node1&#45;&gt;Node2</title>
<g id="a_edge1_Node000001_Node000002"><a xlink:title=" ">
<path fill="none" stroke="#63b8ff" d="M432.12,-102.23C401.24,-112.22 363.43,-124.45 334.21,-133.89"/>
<polygon fill="#63b8ff" stroke="#63b8ff" points="433.44,-105.48 441.88,-99.08 431.29,-98.82 433.44,-105.48"/>
</a>
</g>
</g>
<!-- Node3 -->
<g id="Node000003" class="node">
<title>Node3</title>
<g id="a_Node000003"><a xlink:href="../../d8/d35/classEonPlay_1_1AI_1_1AISubtitleManager.html#a3d8b3d88d7739a018529bf1ab71e2569" target="_top" xlink:title=" ">
<polygon fill="white" stroke="#666666" points="167,-121 0,-121 0,-91 167,-91 167,-121"/>
<text text-anchor="start" x="8" y="-109" font-family="Helvetica,sans-Serif" font-size="10.00">EonPlay::AI::AISubtitleManager</text>
<text text-anchor="middle" x="83.5" y="-98" font-family="Helvetica,sans-Serif" font-size="10.00">::processMediaFile</text>
</a>
</g>
</g>
<!-- Node1&#45;&gt;Node3 -->
<g id="edge3_Node000001_Node000003" class="edge">
<title>Node1&#45;&gt;Node3</title>
<g id="a_edge3_Node000001_Node000003"><a xlink:title=" ">
<path fill="none" stroke="#63b8ff" d="M395.78,-89.05C326.81,-92.8 233.54,-97.88 167.12,-101.5"/>
<polygon fill="#63b8ff" stroke="#63b8ff" points="395.97,-92.54 405.77,-88.51 395.59,-85.55 395.97,-92.54"/>
</a>
</g>
</g>
<!-- Node4 -->
<g id="Node000004" class="node">
<title>Node4</title>
<g id="a_Node000004"><a xlink:href="../../d8/d35/classEonPlay_1_1AI_1_1AISubtitleManager.html#a3fa9ff8a6353bc702a751edd3e41f1d4" target="_top" xlink:title=" ">
<polygon fill="white" stroke="#666666" points="370,-78 203,-78 203,-48 370,-48 370,-78"/>
<text text-anchor="start" x="211" y="-66" font-family="Helvetica,sans-Serif" font-size="10.00">EonPlay::AI::AISubtitleManager</text>
<text text-anchor="middle" x="286.5" y="-55" font-family="Helvetica,sans-Serif" font-size="10.00">::processSubtitleFile</text>
</a>
</g>
</g>
<!-- Node1&#45;&gt;Node4 -->
<g id="edge4_Node000001_Node000004" class="edge">
<title>Node1&#45;&gt;Node4</title>
<g id="a_edge4_Node000001_Node000004"><a xlink:title=" ">
<path fill="none" stroke="#63b8ff" d="M395.85,-74.32C387.27,-73.42 378.61,-72.52 370.13,-71.63"/>
<polygon fill="#63b8ff" stroke="#63b8ff" points="395.57,-77.81 405.88,-75.37 396.29,-70.85 395.57,-77.81"/>
</a>
</g>
</g>
<!-- Node5 -->
<g id="Node000005" class="node">
<title>Node5</title>
<g id="a_Node000005"><a xlink:href="../../d8/d35/classEonPlay_1_1AI_1_1AISubtitleManager.html#a15bf96cf9588e9b1451266829ea532ef" target="_top" xlink:title=" ">
<polygon fill="white" stroke="#666666" points="370,-30 203,-30 203,0 370,0 370,-30"/>
<text text-anchor="start" x="211" y="-18" font-family="Helvetica,sans-Serif" font-size="10.00">EonPlay::AI::AISubtitleManager</text>
<text text-anchor="middle" x="286.5" y="-7" font-family="Helvetica,sans-Serif" font-size="10.00">::translateSubtitleFile</text>
</a>
</g>
</g>
<!-- Node1&#45;&gt;Node5 -->
<g id="edge6_Node000001_Node000005" class="edge">
<title>Node1&#45;&gt;Node5</title>
<g id="a_edge6_Node000001_Node000005"><a xlink:title=" ">
<path fill="none" stroke="#63b8ff" d="M441.55,-65.18C419.91,-56.76 393.8,-46.97 370,-39 360.81,-35.92 350.96,-32.86 341.39,-30"/>
<polygon fill="#63b8ff" stroke="#63b8ff" points="440.56,-68.55 451.15,-68.94 443.11,-62.04 440.56,-68.55"/>
</a>
</g>
</g>
<!-- Node2&#45;&gt;Node3 -->
<g id="edge2_Node000002_Node000003" class="edge">
<title>Node2&#45;&gt;Node3</title>
<g id="a_edge2_Node000002_Node000003"><a xlink:title=" ">
<path fill="none" stroke="#63b8ff" d="M204.97,-131.77C188.35,-128.22 170.98,-124.5 154.76,-121.03"/>
<polygon fill="#63b8ff" stroke="#63b8ff" points="204.69,-135.29 215.2,-133.96 206.15,-128.45 204.69,-135.29"/>
</a>
</g>
</g>
<!-- Node4&#45;&gt;Node3 -->
<g id="edge5_Node000004_Node000003" class="edge">
<title>Node4&#45;&gt;Node3</title>
<g id="a_edge5_Node000004_Node000003"><a xlink:title=" ">
<path fill="none" stroke="#63b8ff" d="M204.97,-80.23C188.35,-83.78 170.98,-87.5 154.76,-90.97"/>
<polygon fill="#63b8ff" stroke="#63b8ff" points="206.15,-83.55 215.2,-78.04 204.69,-76.71 206.15,-83.55"/>
</a>
</g>
</g>
</g>
</svg>
