<?xml version="1.0" encoding="UTF-8" standalone="no"?>
<!DOCTYPE svg PUBLIC "-//W3C//DTD SVG 1.1//EN"
 "http://www.w3.org/Graphics/SVG/1.1/DTD/svg11.dtd">
<!-- Generated by graphviz version 2.43.0 (0)
 -->
<!-- Title: EonPlay::AI::AISubtitleManager::processMediaFile Pages: 1 -->
<!--zoomable 382 -->

<svg id="main" version="1.1" xmlns="http://www.w3.org/2000/svg" xmlns:xlink="http://www.w3.org/1999/xlink" xml:space="preserve" onload="init(evt)">
<style type="text/css"><![CDATA[
.node, .edge {opacity: 0.7;}
.node.selected, .edge.selected {opacity: 1;}
.edge:hover path { stroke: red; }
.edge:hover polygon { stroke: red; fill: red; }
]]></style>

<defs>
  <circle id="rim" cx="0" cy="0" r="7"/>
  <circle id="rim2" cx="0" cy="0" r="3.5"/>
  <g id="zoomPlus">
    <use xlink:href="#rim" fill="#404040"><set attributeName="fill" to="#808080" begin="zoomplus.mouseover" end="zoomplus.mouseout"/></use>
    <path d="M-4,0h8M0,-4v8" fill="none" stroke="white" stroke-width="1.5" pointer-events="none"/>
  </g>
  <g id="zoomMin">
    <use xlink:href="#rim" fill="#404040"><set attributeName="fill" to="#808080" begin="zoomminus.mouseover" end="zoomminus.mouseout"/></use>
    <path d="M-4,0h8" fill="none" stroke="white" stroke-width="1.5" pointer-events="none"/>
  </g>
  <g id="arrowUp" transform="translate(30 24)">
    <use xlink:href="#rim"/>
    <path pointer-events="none" fill="none" stroke="white" stroke-width="1.5" d="M0,-3.0v7 M-2.5,-0.5L0,-3.0L2.5,-0.5"/>
  </g>
  <g id="arrowRight" transform="rotate(90) translate(36 -43)">
    <use xlink:href="#rim"/>
    <path pointer-events="none" fill="none" stroke="white" stroke-width="1.5" d="M0,-3.0v7 M-2.5,-0.5L0,-3.0L2.5,-0.5"/>
  </g>
  <g id="arrowDown" transform="rotate(180) translate(-30 -48)">
    <use xlink:href="#rim"/>
    <path pointer-events="none" fill="none" stroke="white" stroke-width="1.5" d="M0,-3.0v7 M-2.5,-0.5L0,-3.0L2.5,-0.5"/>
  </g>
  <g id="arrowLeft" transform="rotate(270) translate(-36 17)">
    <use xlink:href="#rim"/>
    <path pointer-events="none" fill="none" stroke="white" stroke-width="1.5" d="M0,-3.0v7 M-2.5,-0.5L0,-3.0L2.5,-0.5"/>
  </g>
  <g id="resetDef">
    <use xlink:href="#rim2" fill="#404040"><set attributeName="fill" to="#808080" begin="reset.mouseover" end="reset.mouseout"/></use>
  </g>
</defs>
<script type="application/ecmascript">
var viewWidth = 581;
var viewHeight = 382;
var sectionId = 'dynsection-12';
</script>
<script type="application/ecmascript" xlink:href="../../svg.min.js"/>
<svg id="graph" class="graph">
<g id="viewport">
<title>EonPlay::AI::AISubtitleManager::processMediaFile</title>
<!-- Node1 -->
<g id="Node000001" class="node">
<title>Node1</title>
<g id="a_Node000001"><a xlink:title=" ">
<polygon fill="#999999" stroke="#666666" points="167,-207 0,-207 0,-177 167,-177 167,-207"/>
<text text-anchor="start" x="8" y="-195" font-family="Helvetica,sans-Serif" font-size="10.00">EonPlay::AI::AISubtitleManager</text>
<text text-anchor="middle" x="83.5" y="-184" font-family="Helvetica,sans-Serif" font-size="10.00">::processMediaFile</text>
</a>
</g>
</g>
<!-- Node2 -->
<g id="Node000002" class="node">
<title>Node2</title>
<g id="a_Node000002"><a xlink:href="../../d8/d35/classEonPlay_1_1AI_1_1AISubtitleManager.html#ac6a9c296f2ac835e9b6bf9db85d1bf84" target="_top" xlink:title=" ">
<polygon fill="white" stroke="#666666" points="370,-374 203,-374 203,-344 370,-344 370,-374"/>
<text text-anchor="start" x="211" y="-362" font-family="Helvetica,sans-Serif" font-size="10.00">EonPlay::AI::AISubtitleManager</text>
<text text-anchor="middle" x="286.5" y="-351" font-family="Helvetica,sans-Serif" font-size="10.00">::findBestSubtitleFile</text>
</a>
</g>
</g>
<!-- Node1&#45;&gt;Node2 -->
<g id="edge1_Node000001_Node000002" class="edge">
<title>Node1&#45;&gt;Node2</title>
<g id="a_edge1_Node000001_Node000002"><a xlink:title=" ">
<path fill="none" stroke="#63b8ff" d="M93.63,-207.15C111.32,-235.27 152.95,-295.78 203,-330 208.47,-333.74 214.48,-337.05 220.68,-339.97"/>
<polygon fill="#63b8ff" stroke="#63b8ff" points="219.29,-343.18 229.86,-343.96 222.09,-336.76 219.29,-343.18"/>
</a>
</g>
</g>
<!-- Node3 -->
<g id="Node000003" class="node">
<title>Node3</title>
<g id="a_Node000003"><a xlink:href="../../d8/d35/classEonPlay_1_1AI_1_1AISubtitleManager.html#ab9102c53bdd09ca49c22ec33b54d71b0" target="_top" xlink:title=" ">
<polygon fill="white" stroke="#666666" points="573,-352 406,-352 406,-322 573,-322 573,-352"/>
<text text-anchor="start" x="414" y="-340" font-family="Helvetica,sans-Serif" font-size="10.00">EonPlay::AI::AISubtitleManager</text>
<text text-anchor="middle" x="489.5" y="-329" font-family="Helvetica,sans-Serif" font-size="10.00">::findSubtitleFiles</text>
</a>
</g>
</g>
<!-- Node1&#45;&gt;Node3 -->
<g id="edge3_Node000001_Node000003" class="edge">
<title>Node1&#45;&gt;Node3</title>
<g id="a_edge3_Node000001_Node000003"><a xlink:title=" ">
<path fill="none" stroke="#63b8ff" d="M96.45,-207.22C115.95,-230.84 157.07,-275.82 203,-297 236.41,-312.41 325.61,-323.31 395.5,-329.8"/>
<polygon fill="#63b8ff" stroke="#63b8ff" points="395.38,-333.31 405.66,-330.73 396.02,-326.34 395.38,-333.31"/>
</a>
</g>
</g>
<!-- Node4 -->
<g id="Node000004" class="node">
<title>Node4</title>
<g id="a_Node000004"><a xlink:href="../../d8/d35/classEonPlay_1_1AI_1_1AISubtitleManager.html#ab3e5af1e0a5ada794e609186d58291ba" target="_top" xlink:title=" ">
<polygon fill="white" stroke="#666666" points="370,-288 203,-288 203,-258 370,-258 370,-288"/>
<text text-anchor="start" x="211" y="-276" font-family="Helvetica,sans-Serif" font-size="10.00">EonPlay::AI::AISubtitleManager</text>
<text text-anchor="middle" x="286.5" y="-265" font-family="Helvetica,sans-Serif" font-size="10.00">::generateSubtitlesForMedia</text>
</a>
</g>
</g>
<!-- Node1&#45;&gt;Node4 -->
<g id="edge4_Node000001_Node000004" class="edge">
<title>Node1&#45;&gt;Node4</title>
<g id="a_edge4_Node000001_Node000004"><a xlink:title=" ">
<path fill="none" stroke="#63b8ff" d="M116.92,-207.01C140.58,-217.78 173.53,-232.37 203,-244 212.01,-247.56 221.66,-251.14 231.07,-254.52"/>
<polygon fill="#63b8ff" stroke="#63b8ff" points="230.15,-257.91 240.74,-257.96 232.49,-251.31 230.15,-257.91"/>
</a>
</g>
</g>
<!-- Node5 -->
<g id="Node000005" class="node">
<title>Node5</title>
<g id="a_Node000005"><a xlink:href="../../d8/d35/classEonPlay_1_1AI_1_1AISubtitleManager.html#a81477328093310da1fb85edbc881a534" target="_top" xlink:title=" ">
<polygon fill="white" stroke="#666666" points="573,-245 406,-245 406,-215 573,-215 573,-245"/>
<text text-anchor="start" x="414" y="-233" font-family="Helvetica,sans-Serif" font-size="10.00">EonPlay::AI::AISubtitleManager</text>
<text text-anchor="middle" x="489.5" y="-222" font-family="Helvetica,sans-Serif" font-size="10.00">::operationFailed</text>
</a>
</g>
</g>
<!-- Node1&#45;&gt;Node5 -->
<g id="edge7_Node000001_Node000005" class="edge">
<title>Node1&#45;&gt;Node5</title>
<g id="a_edge7_Node000001_Node000005"><a xlink:title=" ">
<path fill="none" stroke="#63b8ff" d="M167.23,-199.78C233.68,-206.03 326.96,-214.81 395.89,-221.29"/>
<polygon fill="#63b8ff" stroke="#63b8ff" points="395.6,-224.78 405.88,-222.23 396.25,-217.81 395.6,-224.78"/>
</a>
</g>
</g>
<!-- Node6 -->
<g id="Node000006" class="node">
<title>Node6</title>
<g id="a_Node000006"><a xlink:href="../../d8/d35/classEonPlay_1_1AI_1_1AISubtitleManager.html#a5f29889eb17cdd1a353d9d93c09353b1" target="_top" xlink:title=" ">
<polygon fill="white" stroke="#666666" points="573,-190 406,-190 406,-160 573,-160 573,-190"/>
<text text-anchor="start" x="414" y="-178" font-family="Helvetica,sans-Serif" font-size="10.00">EonPlay::AI::AISubtitleManager</text>
<text text-anchor="middle" x="489.5" y="-167" font-family="Helvetica,sans-Serif" font-size="10.00">::operationCompleted</text>
</a>
</g>
</g>
<!-- Node1&#45;&gt;Node6 -->
<g id="edge6_Node000001_Node000006" class="edge">
<title>Node1&#45;&gt;Node6</title>
<g id="a_edge6_Node000001_Node000006"><a xlink:title=" ">
<path fill="none" stroke="#63b8ff" d="M167.23,-188.52C233.54,-185.73 326.57,-181.81 395.47,-178.91"/>
<polygon fill="#63b8ff" stroke="#63b8ff" points="396.04,-182.39 405.88,-178.48 395.74,-175.4 396.04,-182.39"/>
</a>
</g>
</g>
<!-- Node7 -->
<g id="Node000007" class="node">
<title>Node7</title>
<g id="a_Node000007"><a xlink:href="../../d8/d35/classEonPlay_1_1AI_1_1AISubtitleManager.html#a79d666e56a38f47a6f5f94e05d3ddd4b" target="_top" xlink:title=" ">
<polygon fill="white" stroke="#666666" points="573,-128 406,-128 406,-98 573,-98 573,-128"/>
<text text-anchor="start" x="414" y="-116" font-family="Helvetica,sans-Serif" font-size="10.00">EonPlay::AI::AISubtitleManager</text>
<text text-anchor="middle" x="489.5" y="-105" font-family="Helvetica,sans-Serif" font-size="10.00">::operationStarted</text>
</a>
</g>
</g>
<!-- Node1&#45;&gt;Node7 -->
<g id="edge8_Node000001_Node000007" class="edge">
<title>Node1&#45;&gt;Node7</title>
<g id="a_edge8_Node000001_Node000007"><a xlink:title=" ">
<path fill="none" stroke="#63b8ff" d="M104.15,-176.98C126.65,-160.75 165.28,-135.78 203,-125 265.66,-107.1 339.19,-104.41 395.93,-106.03"/>
<polygon fill="#63b8ff" stroke="#63b8ff" points="395.85,-109.53 405.97,-106.37 396.09,-102.54 395.85,-109.53"/>
</a>
</g>
</g>
<!-- Node8 -->
<g id="Node000008" class="node">
<title>Node8</title>
<g id="a_Node000008"><a xlink:href="../../d8/d35/classEonPlay_1_1AI_1_1AISubtitleManager.html#a3fa9ff8a6353bc702a751edd3e41f1d4" target="_top" xlink:title=" ">
<polygon fill="white" stroke="#666666" points="370,-164 203,-164 203,-134 370,-134 370,-164"/>
<text text-anchor="start" x="211" y="-152" font-family="Helvetica,sans-Serif" font-size="10.00">EonPlay::AI::AISubtitleManager</text>
<text text-anchor="middle" x="286.5" y="-141" font-family="Helvetica,sans-Serif" font-size="10.00">::processSubtitleFile</text>
</a>
</g>
</g>
<!-- Node1&#45;&gt;Node8 -->
<g id="edge9_Node000001_Node000008" class="edge">
<title>Node1&#45;&gt;Node8</title>
<g id="a_edge9_Node000001_Node000008"><a xlink:title=" ">
<path fill="none" stroke="#63b8ff" d="M154.8,-176.96C171.02,-173.49 188.39,-169.77 205.01,-166.22"/>
<polygon fill="#63b8ff" stroke="#63b8ff" points="206.19,-169.55 215.24,-164.03 204.73,-162.7 206.19,-169.55"/>
</a>
</g>
</g>
<!-- Node9 -->
<g id="Node000009" class="node">
<title>Node9</title>
<g id="a_Node000009"><a xlink:href="../../d8/d35/classEonPlay_1_1AI_1_1AISubtitleManager.html#a11e2f9337cdbb3a284177f87a235d4f5" target="_top" xlink:title=" ">
<polygon fill="white" stroke="#666666" points="370,-78 203,-78 203,-48 370,-48 370,-78"/>
<text text-anchor="start" x="211" y="-66" font-family="Helvetica,sans-Serif" font-size="10.00">EonPlay::AI::AISubtitleManager</text>
<text text-anchor="middle" x="286.5" y="-55" font-family="Helvetica,sans-Serif" font-size="10.00">::subtitleAutoLoaded</text>
</a>
</g>
</g>
<!-- Node1&#45;&gt;Node9 -->
<g id="edge13_Node000001_Node000009" class="edge">
<title>Node1&#45;&gt;Node9</title>
<g id="a_edge13_Node000001_Node000009"><a xlink:title=" ">
<path fill="none" stroke="#63b8ff" d="M98.86,-176.79C119.9,-155.28 161.17,-115.92 203,-92 209.43,-88.32 216.41,-84.99 223.5,-82.01"/>
<polygon fill="#63b8ff" stroke="#63b8ff" points="225.18,-85.11 233.18,-78.16 222.59,-78.6 225.18,-85.11"/>
</a>
</g>
</g>
<!-- Node10 -->
<g id="Node000010" class="node">
<title>Node10</title>
<g id="a_Node000010"><a xlink:href="../../d8/d35/classEonPlay_1_1AI_1_1AISubtitleManager.html#a4cf353ee7feca83a31a8826eb9adea38" target="_top" xlink:title=" ">
<polygon fill="white" stroke="#666666" points="370,-30 203,-30 203,0 370,0 370,-30"/>
<text text-anchor="start" x="211" y="-18" font-family="Helvetica,sans-Serif" font-size="10.00">EonPlay::AI::AISubtitleManager</text>
<text text-anchor="middle" x="286.5" y="-7" font-family="Helvetica,sans-Serif" font-size="10.00">::subtitlesDetected</text>
</a>
</g>
</g>
<!-- Node1&#45;&gt;Node10 -->
<g id="edge14_Node000001_Node000010" class="edge">
<title>Node1&#45;&gt;Node10</title>
<g id="a_edge14_Node000001_Node000010"><a xlink:title=" ">
<path fill="none" stroke="#63b8ff" d="M92,-176.83C108.02,-146.05 148.56,-76.04 203,-39 205.29,-37.44 207.68,-35.98 210.15,-34.62"/>
<polygon fill="#63b8ff" stroke="#63b8ff" points="211.95,-37.63 219.37,-30.07 208.85,-31.35 211.95,-37.63"/>
</a>
</g>
</g>
<!-- Node2&#45;&gt;Node3 -->
<g id="edge2_Node000002_Node000003" class="edge">
<title>Node2&#45;&gt;Node3</title>
<g id="a_edge2_Node000002_Node000003"><a xlink:title=" ">
<path fill="none" stroke="#63b8ff" d="M370.12,-349.96C378.61,-349.03 387.27,-348.08 395.85,-347.14"/>
<polygon fill="#63b8ff" stroke="#63b8ff" points="396.31,-350.61 405.87,-346.04 395.55,-343.65 396.31,-350.61"/>
</a>
</g>
</g>
<!-- Node4&#45;&gt;Node5 -->
<g id="edge5_Node000004_Node000005" class="edge">
<title>Node4&#45;&gt;Node5</title>
<g id="a_edge5_Node000004_Node000005"><a xlink:title=" ">
<path fill="none" stroke="#63b8ff" d="M357.8,-257.96C374.02,-254.49 391.39,-250.77 408.01,-247.22"/>
<polygon fill="#63b8ff" stroke="#63b8ff" points="409.19,-250.55 418.24,-245.03 407.73,-243.7 409.19,-250.55"/>
</a>
</g>
</g>
<!-- Node8&#45;&gt;Node5 -->
<g id="edge11_Node000008_Node000005" class="edge">
<title>Node8&#45;&gt;Node5</title>
<g id="a_edge11_Node000008_Node000005"><a xlink:title=" ">
<path fill="none" stroke="#63b8ff" d="M322.09,-164.02C345.64,-174.15 377.58,-187.67 406,-199 416.23,-203.08 427.23,-207.31 437.75,-211.29"/>
<polygon fill="#63b8ff" stroke="#63b8ff" points="436.66,-214.62 447.25,-214.87 439.12,-208.07 436.66,-214.62"/>
</a>
</g>
</g>
<!-- Node8&#45;&gt;Node6 -->
<g id="edge10_Node000008_Node000006" class="edge">
<title>Node8&#45;&gt;Node6</title>
<g id="a_edge10_Node000008_Node000006"><a xlink:title=" ">
<path fill="none" stroke="#63b8ff" d="M370.12,-159.69C378.61,-160.79 387.27,-161.91 395.85,-163.02"/>
<polygon fill="#63b8ff" stroke="#63b8ff" points="395.51,-166.5 405.87,-164.31 396.4,-159.56 395.51,-166.5"/>
</a>
</g>
</g>
<!-- Node8&#45;&gt;Node7 -->
<g id="edge12_Node000008_Node000007" class="edge">
<title>Node8&#45;&gt;Node7</title>
<g id="a_edge12_Node000008_Node000007"><a xlink:title=" ">
<path fill="none" stroke="#63b8ff" d="M370.12,-134.2C378.61,-132.68 387.27,-131.13 395.85,-129.59"/>
<polygon fill="#63b8ff" stroke="#63b8ff" points="396.65,-133.01 405.87,-127.8 395.41,-126.12 396.65,-133.01"/>
</a>
</g>
</g>
</g>
</svg>

<g id="navigator" transform="translate(0 0)" fill="#404254">
  <rect fill="#f2f5e9" fill-opacity="0.5" stroke="#606060" stroke-width=".5" x="0" y="0" width="60" height="60"/>
  <use id="zoomplus" xlink:href="#zoomPlus" x="17" y="9" onmousedown="handleZoom(evt,'in')"/>
  <use id="zoomminus" xlink:href="#zoomMin" x="42" y="9" onmousedown="handleZoom(evt,'out')"/>
  <use id="reset" xlink:href="#resetDef" x="30" y="36" onmousedown="handleReset()"/>
   <use id="arrowup" xlink:href="#arrowUp" x="0" y="0" onmousedown="handlePan(0,-1)"/>
  <use id="arrowright" xlink:href="#arrowRight" x="0" y="0" onmousedown="handlePan(1,0)"/>
  <use id="arrowdown" xlink:href="#arrowDown" x="0" y="0" onmousedown="handlePan(0,1)"/>
  <use id="arrowleft" xlink:href="#arrowLeft" x="0" y="0" onmousedown="handlePan(-1,0)"/>
</g>
<svg viewBox="0 0 15 15" width="100%" height="30px" preserveAspectRatio="xMaxYMin meet">
 <g id="arrow_out" transform="scale(0.3 0.3)">
  <a xlink:href="classEonPlay_1_1AI_1_1AISubtitleManager_a3d8b3d88d7739a018529bf1ab71e2569_cgraph_org.svg" target="_base">
   <rect id="button" ry="5" rx="5" y="6" x="6" height="38" width="38"
        fill="#f2f5e9" fill-opacity="0.5" stroke="#606060" stroke-width="1.0"/>
   <path id="arrow"
     d="M 11.500037,31.436501 C 11.940474,20.09759 22.043105,11.32322 32.158766,21.979434 L 37.068811,17.246167 C 37.068811,17.246167 37.088388,32 37.088388,32 L 22.160133,31.978069 C 22.160133,31.978069 26.997745,27.140456 26.997745,27.140456 C 18.528582,18.264221 13.291696,25.230495 11.500037,31.436501 z"
     style="fill:#404040;"/>
  </a>
 </g>
</svg>

<style type='text/css'>
<![CDATA[
[data-mouse-over-selected='false'] { opacity: 0.7; }
[data-mouse-over-selected='true']  { opacity: 1.0; }
]]>
</style>
<script type="application/ecmascript"><![CDATA[
document.addEventListener('DOMContentLoaded', (event) => {
  highlightEdges();
  highlightAdjacentNodes();
});
]]></script>
</svg>
