<?xml version="1.0" encoding="UTF-8" standalone="no"?>
<!DOCTYPE svg PUBLIC "-//W3C//DTD SVG 1.1//EN"
 "http://www.w3.org/Graphics/SVG/1.1/DTD/svg11.dtd">
<!-- Generated by graphviz version 2.43.0 (0)
 -->
<!-- Title: EonPlay::AI::AISubtitleManager::batchOperationStarted Pages: 1 -->
<svg width="397pt" height="134pt"
 viewBox="0.00 0.00 397.00 134.00" xmlns="http://www.w3.org/2000/svg" xmlns:xlink="http://www.w3.org/1999/xlink">
<g id="graph0" class="graph" transform="scale(1 1) rotate(0) translate(4 130)">
<title>EonPlay::AI::AISubtitleManager::batchOperationStarted</title>
<!-- Node1 -->
<g id="Node000001" class="node">
<title>Node1</title>
<g id="a_Node000001"><a xlink:title=" ">
<polygon fill="#999999" stroke="#666666" points="389,-78 222,-78 222,-48 389,-48 389,-78"/>
<text text-anchor="start" x="230" y="-66" font-family="Helvetica,sans-Serif" font-size="10.00">EonPlay::AI::AISubtitleManager</text>
<text text-anchor="middle" x="305.5" y="-55" font-family="Helvetica,sans-Serif" font-size="10.00">::batchOperationStarted</text>
</a>
</g>
</g>
<!-- Node2 -->
<g id="Node000002" class="node">
<title>Node2</title>
<g id="a_Node000002"><a xlink:href="../../d8/d35/classEonPlay_1_1AI_1_1AISubtitleManager.html#a41b549fcf4c10c51020d2147e4f24fc3" target="_top" xlink:title=" ">
<polygon fill="white" stroke="#666666" points="186,-126 0,-126 0,-96 186,-96 186,-126"/>
<text text-anchor="start" x="8" y="-114" font-family="Helvetica,sans-Serif" font-size="10.00">EonPlay::AI::AISubtitleManager</text>
<text text-anchor="middle" x="93" y="-103" font-family="Helvetica,sans-Serif" font-size="10.00">::generateSubtitlesForMultipleFiles</text>
</a>
</g>
</g>
<!-- Node1&#45;&gt;Node2 -->
<g id="edge1_Node000001_Node000002" class="edge">
<title>Node1&#45;&gt;Node2</title>
<g id="a_edge1_Node000001_Node000002"><a xlink:title=" ">
<path fill="none" stroke="#63b8ff" d="M228.62,-80.3C206.09,-85.44 181.62,-91.02 159.79,-96"/>
<polygon fill="#63b8ff" stroke="#63b8ff" points="229.5,-83.69 238.47,-78.06 227.95,-76.87 229.5,-83.69"/>
</a>
</g>
</g>
<!-- Node3 -->
<g id="Node000003" class="node">
<title>Node3</title>
<g id="a_Node000003"><a xlink:href="../../d8/d35/classEonPlay_1_1AI_1_1AISubtitleManager.html#ab6b5008bc8e105aa5b82e72f4acf96b9" target="_top" xlink:title=" ">
<polygon fill="white" stroke="#666666" points="176.5,-78 9.5,-78 9.5,-48 176.5,-48 176.5,-78"/>
<text text-anchor="start" x="17.5" y="-66" font-family="Helvetica,sans-Serif" font-size="10.00">EonPlay::AI::AISubtitleManager</text>
<text text-anchor="middle" x="93" y="-55" font-family="Helvetica,sans-Serif" font-size="10.00">::processMultipleMediaFiles</text>
</a>
</g>
</g>
<!-- Node1&#45;&gt;Node3 -->
<g id="edge2_Node000001_Node000003" class="edge">
<title>Node1&#45;&gt;Node3</title>
<g id="a_edge2_Node000001_Node000003"><a xlink:title=" ">
<path fill="none" stroke="#63b8ff" d="M211.73,-63C200.06,-63 188.19,-63 176.7,-63"/>
<polygon fill="#63b8ff" stroke="#63b8ff" points="211.91,-66.5 221.91,-63 211.91,-59.5 211.91,-66.5"/>
</a>
</g>
</g>
<!-- Node4 -->
<g id="Node000004" class="node">
<title>Node4</title>
<g id="a_Node000004"><a xlink:href="../../d8/d35/classEonPlay_1_1AI_1_1AISubtitleManager.html#af92f1f4b1552b243a33a95ffecf4bc05" target="_top" xlink:title=" ">
<polygon fill="white" stroke="#666666" points="176.5,-30 9.5,-30 9.5,0 176.5,0 176.5,-30"/>
<text text-anchor="start" x="17.5" y="-18" font-family="Helvetica,sans-Serif" font-size="10.00">EonPlay::AI::AISubtitleManager</text>
<text text-anchor="middle" x="93" y="-7" font-family="Helvetica,sans-Serif" font-size="10.00">::translateMultipleSubtitleFiles</text>
</a>
</g>
</g>
<!-- Node1&#45;&gt;Node4 -->
<g id="edge3_Node000001_Node000004" class="edge">
<title>Node1&#45;&gt;Node4</title>
<g id="a_edge3_Node000001_Node000004"><a xlink:title=" ">
<path fill="none" stroke="#63b8ff" d="M228.62,-45.7C206.09,-40.56 181.62,-34.98 159.79,-30"/>
<polygon fill="#63b8ff" stroke="#63b8ff" points="227.95,-49.13 238.47,-47.94 229.5,-42.31 227.95,-49.13"/>
</a>
</g>
</g>
</g>
</svg>
