<?xml version="1.0" encoding="UTF-8" standalone="no"?>
<!DOCTYPE svg PUBLIC "-//W3C//DTD SVG 1.1//EN"
 "http://www.w3.org/Graphics/SVG/1.1/DTD/svg11.dtd">
<!-- Generated by graphviz version 2.43.0 (0)
 -->
<!-- Title: MediaInfo::clear Pages: 1 -->
<svg width="492pt" height="86pt"
 viewBox="0.00 0.00 492.00 86.00" xmlns="http://www.w3.org/2000/svg" xmlns:xlink="http://www.w3.org/1999/xlink">
<g id="graph0" class="graph" transform="scale(1 1) rotate(0) translate(4 82)">
<title>MediaInfo::clear</title>
<!-- Node1 -->
<g id="Node000001" class="node">
<title>Node1</title>
<g id="a_Node000001"><a xlink:title="Clear all media information.">
<polygon fill="#999999" stroke="#666666" points="484,-47.5 389,-47.5 389,-28.5 484,-28.5 484,-47.5"/>
<text text-anchor="middle" x="436.5" y="-35.5" font-family="Helvetica,sans-Serif" font-size="10.00">MediaInfo::clear</text>
</a>
</g>
</g>
<!-- Node1&#45;&gt;Node1 -->
<g id="edge1_Node000001_Node000001" class="edge">
<title>Node1&#45;&gt;Node1</title>
<g id="a_edge1_Node000001_Node000001"><a xlink:title=" ">
<path fill="none" stroke="#63b8ff" d="M468.69,-55.95C467.77,-61.32 457.04,-65.5 436.5,-65.5 405.93,-65.5 397.09,-56.23 409.99,-47.58"/>
<polygon fill="#63b8ff" stroke="#63b8ff" points="471.52,-53.89 463.01,-47.58 465.73,-57.82 471.52,-53.89"/>
</a>
</g>
</g>
<!-- Node2 -->
<g id="Node000002" class="node">
<title>Node2</title>
<g id="a_Node000002"><a xlink:href="../../dd/d6b/classMediaInfoWidget.html#a3c148eb8048514abf09aebf320d7863f" target="_top" xlink:title="Clear all displayed information.">
<polygon fill="white" stroke="#666666" points="353,-69.5 174,-69.5 174,-50.5 353,-50.5 353,-69.5"/>
<text text-anchor="middle" x="263.5" y="-57.5" font-family="Helvetica,sans-Serif" font-size="10.00">MediaInfoWidget::clearMediaInfo</text>
</a>
</g>
</g>
<!-- Node1&#45;&gt;Node2 -->
<g id="edge2_Node000001_Node000002" class="edge">
<title>Node1&#45;&gt;Node2</title>
<g id="a_edge2_Node000001_Node000002"><a xlink:title=" ">
<path fill="none" stroke="#63b8ff" d="M378.69,-45.31C365.81,-46.97 351.96,-48.75 338.49,-50.48"/>
<polygon fill="#63b8ff" stroke="#63b8ff" points="379.3,-48.76 388.77,-44.01 378.41,-41.82 379.3,-48.76"/>
</a>
</g>
</g>
<!-- Node4 -->
<g id="Node000004" class="node">
<title>Node4</title>
<g id="a_Node000004"><a xlink:href="../../d8/d04/classFileUrlSupport.html#a8d178e71b93b714c7fdf02ca05a5b3ef" target="_top" xlink:title="Shutdown the component and cleanup resources.">
<polygon fill="white" stroke="#666666" points="333,-29.5 194,-29.5 194,-10.5 333,-10.5 333,-29.5"/>
<text text-anchor="middle" x="263.5" y="-17.5" font-family="Helvetica,sans-Serif" font-size="10.00">FileUrlSupport::shutdown</text>
</a>
</g>
</g>
<!-- Node1&#45;&gt;Node4 -->
<g id="edge4_Node000001_Node000004" class="edge">
<title>Node1&#45;&gt;Node4</title>
<g id="a_edge4_Node000001_Node000004"><a xlink:title=" ">
<path fill="none" stroke="#63b8ff" d="M378.48,-32C364,-30.47 348.29,-28.82 333.3,-27.24"/>
<polygon fill="#63b8ff" stroke="#63b8ff" points="378.46,-35.52 388.77,-33.08 379.19,-28.55 378.46,-35.52"/>
</a>
</g>
</g>
<!-- Node3 -->
<g id="Node000003" class="node">
<title>Node3</title>
<g id="a_Node000003"><a xlink:href="../../dd/d6b/classMediaInfoWidget.html#a750ae87503febe4e07f870243be01729" target="_top" xlink:title="Set the file URL support component.">
<polygon fill="white" stroke="#666666" points="138,-78 0,-78 0,-48 138,-48 138,-78"/>
<text text-anchor="start" x="8" y="-66" font-family="Helvetica,sans-Serif" font-size="10.00">MediaInfoWidget::setFile</text>
<text text-anchor="middle" x="69" y="-55" font-family="Helvetica,sans-Serif" font-size="10.00">UrlSupport</text>
</a>
</g>
</g>
<!-- Node2&#45;&gt;Node3 -->
<g id="edge3_Node000002_Node000003" class="edge">
<title>Node2&#45;&gt;Node3</title>
<g id="a_edge3_Node000002_Node000003"><a xlink:title=" ">
<path fill="none" stroke="#63b8ff" d="M163.68,-61.54C155,-61.68 146.36,-61.81 138.02,-61.94"/>
<polygon fill="#63b8ff" stroke="#63b8ff" points="163.91,-65.04 173.86,-61.38 163.8,-58.04 163.91,-65.04"/>
</a>
</g>
</g>
<!-- Node5 -->
<g id="Node000005" class="node">
<title>Node5</title>
<g id="a_Node000005"><a xlink:href="../../d8/d04/classFileUrlSupport.html#aa95e256aa0eb84f199617346f9b062e6" target="_top" xlink:title=" ">
<polygon fill="white" stroke="#666666" points="134.5,-30 3.5,-30 3.5,0 134.5,0 134.5,-30"/>
<text text-anchor="start" x="11.5" y="-18" font-family="Helvetica,sans-Serif" font-size="10.00">FileUrlSupport::~FileUrl</text>
<text text-anchor="middle" x="69" y="-7" font-family="Helvetica,sans-Serif" font-size="10.00">Support</text>
</a>
</g>
</g>
<!-- Node4&#45;&gt;Node5 -->
<g id="edge5_Node000004_Node000005" class="edge">
<title>Node4&#45;&gt;Node5</title>
<g id="a_edge5_Node000004_Node000005"><a xlink:title=" ">
<path fill="none" stroke="#63b8ff" d="M183.78,-17.96C167.5,-17.53 150.51,-17.09 134.79,-16.68"/>
<polygon fill="#63b8ff" stroke="#63b8ff" points="183.73,-21.46 193.82,-18.22 183.91,-14.46 183.73,-21.46"/>
</a>
</g>
</g>
</g>
</svg>
