<?xml version="1.0" encoding="UTF-8" standalone="no"?>
<!DOCTYPE svg PUBLIC "-//W3C//DTD SVG 1.1//EN"
 "http://www.w3.org/Graphics/SVG/1.1/DTD/svg11.dtd">
<!-- Generated by graphviz version 2.43.0 (0)
 -->
<!-- Title: MediaInfo::toString Pages: 1 -->
<svg width="517pt" height="76pt"
 viewBox="0.00 0.00 517.00 75.50" xmlns="http://www.w3.org/2000/svg" xmlns:xlink="http://www.w3.org/1999/xlink">
<g id="graph0" class="graph" transform="scale(1 1) rotate(0) translate(4 71.5)">
<title>MediaInfo::toString</title>
<!-- Node1 -->
<g id="Node000001" class="node">
<title>Node1</title>
<g id="a_Node000001"><a xlink:title="Get formatted string representation.">
<polygon fill="#999999" stroke="#666666" points="509,-45.5 399,-45.5 399,-26.5 509,-26.5 509,-45.5"/>
<text text-anchor="middle" x="454" y="-33.5" font-family="Helvetica,sans-Serif" font-size="10.00">MediaInfo::toString</text>
</a>
</g>
</g>
<!-- Node2 -->
<g id="Node000002" class="node">
<title>Node2</title>
<g id="a_Node000002"><a xlink:href="../../d8/d04/classFileUrlSupport.html#ae40a5216c2e2f98b8a943086cc6852f6" target="_top" xlink:title="Load media from URL or stream.">
<polygon fill="white" stroke="#666666" points="363,-45.5 206,-45.5 206,-26.5 363,-26.5 363,-45.5"/>
<text text-anchor="middle" x="284.5" y="-33.5" font-family="Helvetica,sans-Serif" font-size="10.00">FileUrlSupport::loadMediaUrl</text>
</a>
</g>
</g>
<!-- Node1&#45;&gt;Node2 -->
<g id="edge1_Node000001_Node000002" class="edge">
<title>Node1&#45;&gt;Node2</title>
<g id="a_edge1_Node000001_Node000002"><a xlink:title=" ">
<path fill="none" stroke="#63b8ff" d="M388.58,-36C380.21,-36 371.58,-36 363.03,-36"/>
<polygon fill="#63b8ff" stroke="#63b8ff" points="388.62,-39.5 398.62,-36 388.62,-32.5 388.62,-39.5"/>
</a>
</g>
</g>
<!-- Node3 -->
<g id="Node000003" class="node">
<title>Node3</title>
<g id="a_Node000003"><a xlink:href="../../d8/d04/classFileUrlSupport.html#a305f70beca6d625e0043d1798d25cfbb" target="_top" xlink:title="Handle URL open request.">
<polygon fill="white" stroke="#666666" points="150,-67.5 20,-67.5 20,-48.5 150,-48.5 150,-67.5"/>
<text text-anchor="middle" x="85" y="-55.5" font-family="Helvetica,sans-Serif" font-size="10.00">FileUrlSupport::openUrl</text>
</a>
</g>
</g>
<!-- Node2&#45;&gt;Node3 -->
<g id="edge2_Node000002_Node000003" class="edge">
<title>Node2&#45;&gt;Node3</title>
<g id="a_edge2_Node000002_Node000003"><a xlink:title=" ">
<path fill="none" stroke="#63b8ff" d="M195.69,-45.78C180.32,-47.49 164.59,-49.25 150.02,-50.87"/>
<polygon fill="#63b8ff" stroke="#63b8ff" points="196.18,-49.25 205.73,-44.66 195.4,-42.29 196.18,-49.25"/>
</a>
</g>
</g>
<!-- Node4 -->
<g id="Node000004" class="node">
<title>Node4</title>
<g id="a_Node000004"><a xlink:href="../../d8/d04/classFileUrlSupport.html#a778c1c9fa26afa5d85905bcd813a9dd8" target="_top" xlink:title="Process dropped files and URLs.">
<polygon fill="white" stroke="#666666" points="170,-30 0,-30 0,0 170,0 170,-30"/>
<text text-anchor="start" x="8" y="-18" font-family="Helvetica,sans-Serif" font-size="10.00">FileUrlSupport::processDropped</text>
<text text-anchor="middle" x="85" y="-7" font-family="Helvetica,sans-Serif" font-size="10.00">Media</text>
</a>
</g>
</g>
<!-- Node2&#45;&gt;Node4 -->
<g id="edge3_Node000002_Node000004" class="edge">
<title>Node2&#45;&gt;Node4</title>
<g id="a_edge3_Node000002_Node000004"><a xlink:title=" ">
<path fill="none" stroke="#63b8ff" d="M195.53,-26.65C187.12,-25.75 178.59,-24.85 170.22,-23.95"/>
<polygon fill="#63b8ff" stroke="#63b8ff" points="195.41,-30.15 205.73,-27.73 196.15,-23.19 195.41,-30.15"/>
</a>
</g>
</g>
</g>
</svg>
