<?xml version="1.0" encoding="UTF-8" standalone="no"?>
<!DOCTYPE svg PUBLIC "-//W3C//DTD SVG 1.1//EN"
 "http://www.w3.org/Graphics/SVG/1.1/DTD/svg11.dtd">
<!-- Generated by graphviz version 2.43.0 (0)
 -->
<!-- Title: src/ui/PlaylistWidget.cpp Pages: 1 -->
<svg width="2864pt" height="302pt"
 viewBox="0.00 0.00 2864.00 302.00" xmlns="http://www.w3.org/2000/svg" xmlns:xlink="http://www.w3.org/1999/xlink">
<g id="graph0" class="graph" transform="scale(1 1) rotate(0) translate(4 298)">
<title>src/ui/PlaylistWidget.cpp</title>
<!-- Node1 -->
<g id="Node000001" class="node">
<title>Node1</title>
<g id="a_Node000001"><a xlink:title=" ">
<polygon fill="#999999" stroke="#666666" points="1962.5,-294 1825.5,-294 1825.5,-275 1962.5,-275 1962.5,-294"/>
<text text-anchor="middle" x="1894" y="-282" font-family="Helvetica,sans-Serif" font-size="10.00">src/ui/PlaylistWidget.cpp</text>
</a>
</g>
</g>
<!-- Node2 -->
<g id="Node000002" class="node">
<title>Node2</title>
<g id="a_Node000002"><a xlink:href="../../d4/d80/PlaylistWidget_8h.html" target="_top" xlink:title=" ">
<polygon fill="white" stroke="#666666" points="652,-239 544,-239 544,-220 652,-220 652,-239"/>
<text text-anchor="middle" x="598" y="-227" font-family="Helvetica,sans-Serif" font-size="10.00">ui/PlaylistWidget.h</text>
</a>
</g>
</g>
<!-- Node1&#45;&gt;Node2 -->
<g id="edge1_Node000001_Node000002" class="edge">
<title>Node1&#45;&gt;Node2</title>
<g id="a_edge1_Node000001_Node000002"><a xlink:title=" ">
<path fill="none" stroke="#63b8ff" d="M1825.24,-280.69C1599.22,-271.45 881.25,-242.08 662.13,-233.12"/>
<polygon fill="#63b8ff" stroke="#63b8ff" points="662.21,-229.62 652.07,-232.71 661.92,-236.62 662.21,-229.62"/>
</a>
</g>
</g>
<!-- Node16 -->
<g id="Node000016" class="node">
<title>Node16</title>
<g id="a_Node000016"><a xlink:href="../../d4/d51/PlaylistManager_8h.html" target="_top" xlink:title=" ">
<polygon fill="white" stroke="#666666" points="1240,-184 1112,-184 1112,-165 1240,-165 1240,-184"/>
<text text-anchor="middle" x="1176" y="-172" font-family="Helvetica,sans-Serif" font-size="10.00">data/PlaylistManager.h</text>
</a>
</g>
</g>
<!-- Node1&#45;&gt;Node16 -->
<g id="edge39_Node000001_Node000016" class="edge">
<title>Node1&#45;&gt;Node16</title>
<g id="a_edge39_Node000001_Node000016"><a xlink:title=" ">
<path fill="none" stroke="#63b8ff" d="M1825.28,-283.01C1685.3,-281.29 1371.84,-273.57 1271,-239 1240.68,-228.61 1210.79,-206.04 1192.87,-190.81"/>
<polygon fill="#63b8ff" stroke="#63b8ff" points="1194.91,-187.94 1185.08,-184 1190.31,-193.22 1194.91,-187.94"/>
</a>
</g>
</g>
<!-- Node17 -->
<g id="Node000017" class="node">
<title>Node17</title>
<g id="a_Node000017"><a xlink:href="../../d7/d78/Playlist_8h.html" target="_top" xlink:title=" ">
<polygon fill="white" stroke="#666666" points="969,-129 883,-129 883,-110 969,-110 969,-129"/>
<text text-anchor="middle" x="926" y="-117" font-family="Helvetica,sans-Serif" font-size="10.00">data/Playlist.h</text>
</a>
</g>
</g>
<!-- Node1&#45;&gt;Node17 -->
<g id="edge40_Node000001_Node000017" class="edge">
<title>Node1&#45;&gt;Node17</title>
<g id="a_edge40_Node000001_Node000017"><a xlink:title=" ">
<path fill="none" stroke="#63b8ff" d="M1825.25,-281.82C1679.19,-277.79 1342.24,-265.8 1231,-239 1170.8,-224.5 1159.29,-209.79 1103,-184 1085.47,-175.97 1081.89,-172.2 1064,-165 1031.76,-152.03 994.16,-140.1 966.36,-131.87"/>
<polygon fill="#63b8ff" stroke="#63b8ff" points="967.17,-128.46 956.59,-129.01 965.2,-135.18 967.17,-128.46"/>
</a>
</g>
</g>
<!-- Node18 -->
<g id="Node000018" class="node">
<title>Node18</title>
<g id="a_Node000018"><a xlink:href="../../d2/dc4/MediaFile_8h.html" target="_top" xlink:title=" ">
<polygon fill="white" stroke="#666666" points="1247,-74 1149,-74 1149,-55 1247,-55 1247,-74"/>
<text text-anchor="middle" x="1198" y="-62" font-family="Helvetica,sans-Serif" font-size="10.00">data/MediaFile.h</text>
</a>
</g>
</g>
<!-- Node1&#45;&gt;Node18 -->
<g id="edge41_Node000001_Node000018" class="edge">
<title>Node1&#45;&gt;Node18</title>
<g id="a_edge41_Node000001_Node000018"><a xlink:title=" ">
<path fill="none" stroke="#63b8ff" d="M1825.46,-282.65C1678.63,-280.21 1343.77,-271.15 1304,-239 1257.52,-201.43 1301.64,-157.98 1266,-110 1256.09,-96.66 1240.9,-86.17 1227.39,-78.74"/>
<polygon fill="#63b8ff" stroke="#63b8ff" points="1228.88,-75.57 1218.39,-74.08 1225.66,-81.78 1228.88,-75.57"/>
</a>
</g>
</g>
<!-- Node28 -->
<g id="Node000028" class="node">
<title>Node28</title>
<g id="a_Node000028"><a xlink:title=" ">
<polygon fill="#e0e0e0" stroke="#999999" points="1430.5,-239 1313.5,-239 1313.5,-220 1430.5,-220 1430.5,-239"/>
<text text-anchor="middle" x="1372" y="-227" font-family="Helvetica,sans-Serif" font-size="10.00">QContextMenuEvent</text>
</a>
</g>
</g>
<!-- Node1&#45;&gt;Node28 -->
<g id="edge42_Node000001_Node000028" class="edge">
<title>Node1&#45;&gt;Node28</title>
<g id="a_edge42_Node000001_Node000028"><a xlink:title=" ">
<path fill="none" stroke="#63b8ff" d="M1825.33,-277.4C1738.28,-269.53 1583.32,-255.07 1441.04,-239.2"/>
<polygon fill="#63b8ff" stroke="#63b8ff" points="1441.14,-235.69 1430.81,-238.06 1440.36,-242.65 1441.14,-235.69"/>
</a>
</g>
</g>
<!-- Node29 -->
<g id="Node000029" class="node">
<title>Node29</title>
<g id="a_Node000029"><a xlink:title=" ">
<polygon fill="#e0e0e0" stroke="#999999" points="1549.5,-239 1448.5,-239 1448.5,-220 1549.5,-220 1549.5,-239"/>
<text text-anchor="middle" x="1499" y="-227" font-family="Helvetica,sans-Serif" font-size="10.00">QDragEnterEvent</text>
</a>
</g>
</g>
<!-- Node1&#45;&gt;Node29 -->
<g id="edge43_Node000001_Node000029" class="edge">
<title>Node1&#45;&gt;Node29</title>
<g id="a_edge43_Node000001_Node000029"><a xlink:title=" ">
<path fill="none" stroke="#63b8ff" d="M1828.5,-274.97C1763.13,-266.42 1659.52,-252.76 1559.69,-239.08"/>
<polygon fill="#63b8ff" stroke="#63b8ff" points="1560.12,-235.61 1549.73,-237.72 1559.17,-242.55 1560.12,-235.61"/>
</a>
</g>
</g>
<!-- Node30 -->
<g id="Node000030" class="node">
<title>Node30</title>
<g id="a_Node000030"><a xlink:title=" ">
<polygon fill="#e0e0e0" stroke="#999999" points="1670,-239 1568,-239 1568,-220 1670,-220 1670,-239"/>
<text text-anchor="middle" x="1619" y="-227" font-family="Helvetica,sans-Serif" font-size="10.00">QDragMoveEvent</text>
</a>
</g>
</g>
<!-- Node1&#45;&gt;Node30 -->
<g id="edge44_Node000001_Node000030" class="edge">
<title>Node1&#45;&gt;Node30</title>
<g id="a_edge44_Node000001_Node000030"><a xlink:title=" ">
<path fill="none" stroke="#63b8ff" d="M1849.82,-274.98C1801.85,-265.74 1725.19,-250.97 1673.52,-241.01"/>
<polygon fill="#63b8ff" stroke="#63b8ff" points="1674.01,-237.54 1663.53,-239.08 1672.69,-244.41 1674.01,-237.54"/>
</a>
</g>
</g>
<!-- Node31 -->
<g id="Node000031" class="node">
<title>Node31</title>
<g id="a_Node000031"><a xlink:title=" ">
<polygon fill="#e0e0e0" stroke="#999999" points="1763.5,-239 1688.5,-239 1688.5,-220 1763.5,-220 1763.5,-239"/>
<text text-anchor="middle" x="1726" y="-227" font-family="Helvetica,sans-Serif" font-size="10.00">QDropEvent</text>
</a>
</g>
</g>
<!-- Node1&#45;&gt;Node31 -->
<g id="edge45_Node000001_Node000031" class="edge">
<title>Node1&#45;&gt;Node31</title>
<g id="a_edge45_Node000001_Node000031"><a xlink:title=" ">
<path fill="none" stroke="#63b8ff" d="M1867.01,-274.98C1838.8,-266.09 1794.36,-252.07 1762.92,-242.15"/>
<polygon fill="#63b8ff" stroke="#63b8ff" points="1763.79,-238.75 1753.2,-239.08 1761.69,-245.43 1763.79,-238.75"/>
</a>
</g>
</g>
<!-- Node32 -->
<g id="Node000032" class="node">
<title>Node32</title>
<g id="a_Node000032"><a xlink:title=" ">
<polygon fill="#e0e0e0" stroke="#999999" points="1856.5,-239 1781.5,-239 1781.5,-220 1856.5,-220 1856.5,-239"/>
<text text-anchor="middle" x="1819" y="-227" font-family="Helvetica,sans-Serif" font-size="10.00">QMimeData</text>
</a>
</g>
</g>
<!-- Node1&#45;&gt;Node32 -->
<g id="edge46_Node000001_Node000032" class="edge">
<title>Node1&#45;&gt;Node32</title>
<g id="a_edge46_Node000001_Node000032"><a xlink:title=" ">
<path fill="none" stroke="#63b8ff" d="M1881.95,-274.98C1870.54,-266.92 1853.17,-254.65 1839.57,-245.03"/>
<polygon fill="#63b8ff" stroke="#63b8ff" points="1841.46,-242.08 1831.27,-239.17 1837.42,-247.8 1841.46,-242.08"/>
</a>
</g>
</g>
<!-- Node33 -->
<g id="Node000033" class="node">
<title>Node33</title>
<g id="a_Node000033"><a xlink:title=" ">
<polygon fill="#e0e0e0" stroke="#999999" points="1913,-239 1875,-239 1875,-220 1913,-220 1913,-239"/>
<text text-anchor="middle" x="1894" y="-227" font-family="Helvetica,sans-Serif" font-size="10.00">QUrl</text>
</a>
</g>
</g>
<!-- Node1&#45;&gt;Node33 -->
<g id="edge47_Node000001_Node000033" class="edge">
<title>Node1&#45;&gt;Node33</title>
<g id="a_edge47_Node000001_Node000033"><a xlink:title=" ">
<path fill="none" stroke="#63b8ff" d="M1894,-274.75C1894,-267.8 1894,-257.85 1894,-249.13"/>
<polygon fill="#63b8ff" stroke="#63b8ff" points="1897.5,-249.09 1894,-239.09 1890.5,-249.09 1897.5,-249.09"/>
</a>
</g>
</g>
<!-- Node34 -->
<g id="Node000034" class="node">
<title>Node34</title>
<g id="a_Node000034"><a xlink:title=" ">
<polygon fill="#e0e0e0" stroke="#999999" points="2004.5,-239 1931.5,-239 1931.5,-220 2004.5,-220 2004.5,-239"/>
<text text-anchor="middle" x="1968" y="-227" font-family="Helvetica,sans-Serif" font-size="10.00">QFileDialog</text>
</a>
</g>
</g>
<!-- Node1&#45;&gt;Node34 -->
<g id="edge48_Node000001_Node000034" class="edge">
<title>Node1&#45;&gt;Node34</title>
<g id="a_edge48_Node000001_Node000034"><a xlink:title=" ">
<path fill="none" stroke="#63b8ff" d="M1905.89,-274.98C1917.15,-266.92 1934.29,-254.65 1947.71,-245.03"/>
<polygon fill="#63b8ff" stroke="#63b8ff" points="1949.8,-247.84 1955.89,-239.17 1945.73,-242.15 1949.8,-247.84"/>
</a>
</g>
</g>
<!-- Node35 -->
<g id="Node000035" class="node">
<title>Node35</title>
<g id="a_Node000035"><a xlink:title=" ">
<polygon fill="#e0e0e0" stroke="#999999" points="2103,-239 2023,-239 2023,-220 2103,-220 2103,-239"/>
<text text-anchor="middle" x="2063" y="-227" font-family="Helvetica,sans-Serif" font-size="10.00">QInputDialog</text>
</a>
</g>
</g>
<!-- Node1&#45;&gt;Node35 -->
<g id="edge49_Node000001_Node000035" class="edge">
<title>Node1&#45;&gt;Node35</title>
<g id="a_edge49_Node000001_Node000035"><a xlink:title=" ">
<path fill="none" stroke="#63b8ff" d="M1921.15,-274.98C1949.53,-266.09 1994.23,-252.07 2025.86,-242.15"/>
<polygon fill="#63b8ff" stroke="#63b8ff" points="2027.14,-245.41 2035.63,-239.08 2025.05,-238.73 2027.14,-245.41"/>
</a>
</g>
</g>
<!-- Node36 -->
<g id="Node000036" class="node">
<title>Node36</title>
<g id="a_Node000036"><a xlink:title=" ">
<polygon fill="#e0e0e0" stroke="#999999" points="2207,-239 2121,-239 2121,-220 2207,-220 2207,-239"/>
<text text-anchor="middle" x="2164" y="-227" font-family="Helvetica,sans-Serif" font-size="10.00">QMessageBox</text>
</a>
</g>
</g>
<!-- Node1&#45;&gt;Node36 -->
<g id="edge50_Node000001_Node000036" class="edge">
<title>Node1&#45;&gt;Node36</title>
<g id="a_edge50_Node000001_Node000036"><a xlink:title=" ">
<path fill="none" stroke="#63b8ff" d="M1937.38,-274.98C1984.52,-265.73 2059.87,-250.94 2110.61,-240.98"/>
<polygon fill="#63b8ff" stroke="#63b8ff" points="2111.59,-244.35 2120.73,-238.99 2110.24,-237.49 2111.59,-244.35"/>
</a>
</g>
</g>
<!-- Node37 -->
<g id="Node000037" class="node">
<title>Node37</title>
<g id="a_Node000037"><a xlink:title=" ">
<polygon fill="#e0e0e0" stroke="#999999" points="2308.5,-239 2225.5,-239 2225.5,-220 2308.5,-220 2308.5,-239"/>
<text text-anchor="middle" x="2267" y="-227" font-family="Helvetica,sans-Serif" font-size="10.00">QHeaderView</text>
</a>
</g>
</g>
<!-- Node1&#45;&gt;Node37 -->
<g id="edge51_Node000001_Node000037" class="edge">
<title>Node1&#45;&gt;Node37</title>
<g id="a_edge51_Node000001_Node000037"><a xlink:title=" ">
<path fill="none" stroke="#63b8ff" d="M1959.45,-275C2022.34,-266.7 2120.32,-253.46 2215.21,-239.08"/>
<polygon fill="#63b8ff" stroke="#63b8ff" points="2215.91,-242.52 2225.27,-237.55 2214.85,-235.6 2215.91,-242.52"/>
</a>
</g>
</g>
<!-- Node38 -->
<g id="Node000038" class="node">
<title>Node38</title>
<g id="a_Node000038"><a xlink:title=" ">
<polygon fill="#e0e0e0" stroke="#999999" points="2427.5,-239 2326.5,-239 2326.5,-220 2427.5,-220 2427.5,-239"/>
<text text-anchor="middle" x="2377" y="-227" font-family="Helvetica,sans-Serif" font-size="10.00">QTreeWidgetItem</text>
</a>
</g>
</g>
<!-- Node1&#45;&gt;Node38 -->
<g id="edge52_Node000001_Node000038" class="edge">
<title>Node1&#45;&gt;Node38</title>
<g id="a_edge52_Node000001_Node000038"><a xlink:title=" ">
<path fill="none" stroke="#63b8ff" d="M1962.76,-277.1C2044.57,-269.31 2185.57,-255.3 2316.29,-239.17"/>
<polygon fill="#63b8ff" stroke="#63b8ff" points="2316.99,-242.61 2326.49,-237.91 2316.13,-235.67 2316.99,-242.61"/>
</a>
</g>
</g>
<!-- Node39 -->
<g id="Node000039" class="node">
<title>Node39</title>
<g id="a_Node000039"><a xlink:title=" ">
<polygon fill="#e0e0e0" stroke="#999999" points="2544,-239 2446,-239 2446,-220 2544,-220 2544,-239"/>
<text text-anchor="middle" x="2495" y="-227" font-family="Helvetica,sans-Serif" font-size="10.00">QListWidgetItem</text>
</a>
</g>
</g>
<!-- Node1&#45;&gt;Node39 -->
<g id="edge53_Node000001_Node000039" class="edge">
<title>Node1&#45;&gt;Node39</title>
<g id="a_edge53_Node000001_Node000039"><a xlink:title=" ">
<path fill="none" stroke="#63b8ff" d="M1962.71,-279.28C2063.98,-272.74 2259.48,-258.94 2435.99,-239.04"/>
<polygon fill="#63b8ff" stroke="#63b8ff" points="2436.44,-242.51 2445.98,-237.91 2435.65,-235.56 2436.44,-242.51"/>
</a>
</g>
</g>
<!-- Node40 -->
<g id="Node000040" class="node">
<title>Node40</title>
<g id="a_Node000040"><a xlink:title=" ">
<polygon fill="#e0e0e0" stroke="#999999" points="2669.5,-239 2562.5,-239 2562.5,-220 2669.5,-220 2669.5,-239"/>
<text text-anchor="middle" x="2616" y="-227" font-family="Helvetica,sans-Serif" font-size="10.00">QLoggingCategory</text>
</a>
</g>
</g>
<!-- Node1&#45;&gt;Node40 -->
<g id="edge54_Node000001_Node000040" class="edge">
<title>Node1&#45;&gt;Node40</title>
<g id="a_edge54_Node000001_Node000040"><a xlink:title=" ">
<path fill="none" stroke="#63b8ff" d="M1962.91,-280.36C2081.16,-274.64 2330.53,-261.13 2552.21,-239"/>
<polygon fill="#63b8ff" stroke="#63b8ff" points="2552.81,-242.46 2562.41,-237.98 2552.11,-235.5 2552.81,-242.46"/>
</a>
</g>
</g>
<!-- Node41 -->
<g id="Node000041" class="node">
<title>Node41</title>
<g id="a_Node000041"><a xlink:title=" ">
<polygon fill="#e0e0e0" stroke="#999999" points="2774,-239 2688,-239 2688,-220 2774,-220 2774,-239"/>
<text text-anchor="middle" x="2731" y="-227" font-family="Helvetica,sans-Serif" font-size="10.00">QMutexLocker</text>
</a>
</g>
</g>
<!-- Node1&#45;&gt;Node41 -->
<g id="edge55_Node000001_Node000041" class="edge">
<title>Node1&#45;&gt;Node41</title>
<g id="a_edge55_Node000001_Node000041"><a xlink:title=" ">
<path fill="none" stroke="#63b8ff" d="M1962.72,-282.04C2097.8,-278.63 2407.57,-268.21 2677.91,-238.99"/>
<polygon fill="#63b8ff" stroke="#63b8ff" points="2678.36,-242.47 2687.92,-237.9 2677.6,-235.51 2678.36,-242.47"/>
</a>
</g>
</g>
<!-- Node42 -->
<g id="Node000042" class="node">
<title>Node42</title>
<g id="a_Node000042"><a xlink:title=" ">
<polygon fill="#e0e0e0" stroke="#999999" points="2856,-239 2792,-239 2792,-220 2856,-220 2856,-239"/>
<text text-anchor="middle" x="2824" y="-227" font-family="Helvetica,sans-Serif" font-size="10.00">algorithm</text>
</a>
</g>
</g>
<!-- Node1&#45;&gt;Node42 -->
<g id="edge56_Node000001_Node000042" class="edge">
<title>Node1&#45;&gt;Node42</title>
<g id="a_edge56_Node000001_Node000042"><a xlink:title=" ">
<path fill="none" stroke="#63b8ff" d="M1962.63,-283.66C2110.68,-283.24 2471.07,-278.01 2781.75,-238.94"/>
<polygon fill="#63b8ff" stroke="#63b8ff" points="2782.37,-242.39 2791.85,-237.65 2781.49,-235.44 2782.37,-242.39"/>
</a>
</g>
</g>
<!-- Node3 -->
<g id="Node000003" class="node">
<title>Node3</title>
<g id="a_Node000003"><a xlink:title=" ">
<polygon fill="#e0e0e0" stroke="#999999" points="541.5,-184 482.5,-184 482.5,-165 541.5,-165 541.5,-184"/>
<text text-anchor="middle" x="512" y="-172" font-family="Helvetica,sans-Serif" font-size="10.00">QWidget</text>
</a>
</g>
</g>
<!-- Node2&#45;&gt;Node3 -->
<g id="edge2_Node000002_Node000003" class="edge">
<title>Node2&#45;&gt;Node3</title>
<g id="a_edge2_Node000002_Node000003"><a xlink:title=" ">
<path fill="none" stroke="#63b8ff" d="M584.18,-219.98C570.85,-211.77 550.42,-199.18 534.69,-189.49"/>
<polygon fill="#63b8ff" stroke="#63b8ff" points="536.42,-186.44 526.07,-184.17 532.75,-192.4 536.42,-186.44"/>
</a>
</g>
</g>
<!-- Node4 -->
<g id="Node000004" class="node">
<title>Node4</title>
<g id="a_Node000004"><a xlink:title=" ">
<polygon fill="#e0e0e0" stroke="#999999" points="636,-184 560,-184 560,-165 636,-165 636,-184"/>
<text text-anchor="middle" x="598" y="-172" font-family="Helvetica,sans-Serif" font-size="10.00">QListWidget</text>
</a>
</g>
</g>
<!-- Node2&#45;&gt;Node4 -->
<g id="edge3_Node000002_Node000004" class="edge">
<title>Node2&#45;&gt;Node4</title>
<g id="a_edge3_Node000002_Node000004"><a xlink:title=" ">
<path fill="none" stroke="#63b8ff" d="M598,-219.75C598,-212.8 598,-202.85 598,-194.13"/>
<polygon fill="#63b8ff" stroke="#63b8ff" points="601.5,-194.09 598,-184.09 594.5,-194.09 601.5,-194.09"/>
</a>
</g>
</g>
<!-- Node5 -->
<g id="Node000005" class="node">
<title>Node5</title>
<g id="a_Node000005"><a xlink:title=" ">
<polygon fill="#e0e0e0" stroke="#999999" points="733.5,-184 654.5,-184 654.5,-165 733.5,-165 733.5,-184"/>
<text text-anchor="middle" x="694" y="-172" font-family="Helvetica,sans-Serif" font-size="10.00">QTreeWidget</text>
</a>
</g>
</g>
<!-- Node2&#45;&gt;Node5 -->
<g id="edge4_Node000002_Node000005" class="edge">
<title>Node2&#45;&gt;Node5</title>
<g id="a_edge4_Node000002_Node000005"><a xlink:title=" ">
<path fill="none" stroke="#63b8ff" d="M613.42,-219.98C628.45,-211.69 651.54,-198.94 669.16,-189.22"/>
<polygon fill="#63b8ff" stroke="#63b8ff" points="671.23,-192.07 678.3,-184.17 667.85,-185.94 671.23,-192.07"/>
</a>
</g>
</g>
<!-- Node6 -->
<g id="Node000006" class="node">
<title>Node6</title>
<g id="a_Node000006"><a xlink:title=" ">
<polygon fill="#e0e0e0" stroke="#999999" points="834.5,-184 751.5,-184 751.5,-165 834.5,-165 834.5,-184"/>
<text text-anchor="middle" x="793" y="-172" font-family="Helvetica,sans-Serif" font-size="10.00">QVBoxLayout</text>
</a>
</g>
</g>
<!-- Node2&#45;&gt;Node6 -->
<g id="edge5_Node000002_Node000006" class="edge">
<title>Node2&#45;&gt;Node6</title>
<g id="a_edge5_Node000002_Node000006"><a xlink:title=" ">
<path fill="none" stroke="#63b8ff" d="M629.33,-219.98C662.49,-210.97 715,-196.7 751.56,-186.76"/>
<polygon fill="#63b8ff" stroke="#63b8ff" points="752.69,-190.08 761.42,-184.08 750.86,-183.33 752.69,-190.08"/>
</a>
</g>
</g>
<!-- Node7 -->
<g id="Node000007" class="node">
<title>Node7</title>
<g id="a_Node000007"><a xlink:title=" ">
<polygon fill="#e0e0e0" stroke="#999999" points="974.5,-184 891.5,-184 891.5,-165 974.5,-165 974.5,-184"/>
<text text-anchor="middle" x="933" y="-172" font-family="Helvetica,sans-Serif" font-size="10.00">QHBoxLayout</text>
</a>
</g>
</g>
<!-- Node2&#45;&gt;Node7 -->
<g id="edge6_Node000002_Node000007" class="edge">
<title>Node2&#45;&gt;Node7</title>
<g id="a_edge6_Node000002_Node000007"><a xlink:title=" ">
<path fill="none" stroke="#63b8ff" d="M651.82,-219.98C715.07,-209.98 819.26,-193.49 881.49,-183.65"/>
<polygon fill="#63b8ff" stroke="#63b8ff" points="882.15,-187.09 891.48,-182.07 881.05,-180.17 882.15,-187.09"/>
</a>
</g>
</g>
<!-- Node8 -->
<g id="Node000008" class="node">
<title>Node8</title>
<g id="a_Node000008"><a xlink:title=" ">
<polygon fill="#e0e0e0" stroke="#999999" points="1055.5,-184 992.5,-184 992.5,-165 1055.5,-165 1055.5,-184"/>
<text text-anchor="middle" x="1024" y="-172" font-family="Helvetica,sans-Serif" font-size="10.00">QLineEdit</text>
</a>
</g>
</g>
<!-- Node2&#45;&gt;Node8 -->
<g id="edge7_Node000002_Node000008" class="edge">
<title>Node2&#45;&gt;Node8</title>
<g id="a_edge7_Node000002_Node000008"><a xlink:title=" ">
<path fill="none" stroke="#63b8ff" d="M652.09,-223.79C724.81,-217.11 858.31,-203.65 982.22,-183.98"/>
<polygon fill="#63b8ff" stroke="#63b8ff" points="982.95,-187.41 992.27,-182.37 981.84,-180.5 982.95,-187.41"/>
</a>
</g>
</g>
<!-- Node9 -->
<g id="Node000009" class="node">
<title>Node9</title>
<g id="a_Node000009"><a xlink:title=" ">
<polygon fill="#e0e0e0" stroke="#999999" points="80,-184 0,-184 0,-165 80,-165 80,-184"/>
<text text-anchor="middle" x="40" y="-172" font-family="Helvetica,sans-Serif" font-size="10.00">QPushButton</text>
</a>
</g>
</g>
<!-- Node2&#45;&gt;Node9 -->
<g id="edge8_Node000002_Node000009" class="edge">
<title>Node2&#45;&gt;Node9</title>
<g id="a_edge8_Node000002_Node000009"><a xlink:title=" ">
<path fill="none" stroke="#63b8ff" d="M543.97,-225.28C452.61,-219.51 261.6,-206.03 90.04,-184.03"/>
<polygon fill="#63b8ff" stroke="#63b8ff" points="90.44,-180.55 80.07,-182.73 89.54,-187.49 90.44,-180.55"/>
</a>
</g>
</g>
<!-- Node10 -->
<g id="Node000010" class="node">
<title>Node10</title>
<g id="a_Node000010"><a xlink:title=" ">
<polygon fill="#e0e0e0" stroke="#999999" points="175.5,-184 98.5,-184 98.5,-165 175.5,-165 175.5,-184"/>
<text text-anchor="middle" x="137" y="-172" font-family="Helvetica,sans-Serif" font-size="10.00">QComboBox</text>
</a>
</g>
</g>
<!-- Node2&#45;&gt;Node10 -->
<g id="edge9_Node000002_Node000010" class="edge">
<title>Node2&#45;&gt;Node10</title>
<g id="a_edge9_Node000002_Node000010"><a xlink:title=" ">
<path fill="none" stroke="#63b8ff" d="M543.73,-223.84C466.57,-216.95 320.51,-202.94 185.83,-184.02"/>
<polygon fill="#63b8ff" stroke="#63b8ff" points="186.13,-180.53 175.74,-182.59 185.15,-187.46 186.13,-180.53"/>
</a>
</g>
</g>
<!-- Node11 -->
<g id="Node000011" class="node">
<title>Node11</title>
<g id="a_Node000011"><a xlink:title=" ">
<polygon fill="#e0e0e0" stroke="#999999" points="244,-184 194,-184 194,-165 244,-165 244,-184"/>
<text text-anchor="middle" x="219" y="-172" font-family="Helvetica,sans-Serif" font-size="10.00">QLabel</text>
</a>
</g>
</g>
<!-- Node2&#45;&gt;Node11 -->
<g id="edge10_Node000002_Node000011" class="edge">
<title>Node2&#45;&gt;Node11</title>
<g id="a_edge10_Node000002_Node000011"><a xlink:title=" ">
<path fill="none" stroke="#63b8ff" d="M543.91,-223.5C477.79,-216.94 362.33,-204.08 254.28,-184.04"/>
<polygon fill="#63b8ff" stroke="#63b8ff" points="254.65,-180.55 244.18,-182.14 253.36,-187.43 254.65,-180.55"/>
</a>
</g>
</g>
<!-- Node12 -->
<g id="Node000012" class="node">
<title>Node12</title>
<g id="a_Node000012"><a xlink:title=" ">
<polygon fill="#e0e0e0" stroke="#999999" points="313.5,-184 262.5,-184 262.5,-165 313.5,-165 313.5,-184"/>
<text text-anchor="middle" x="288" y="-172" font-family="Helvetica,sans-Serif" font-size="10.00">QMenu</text>
</a>
</g>
</g>
<!-- Node2&#45;&gt;Node12 -->
<g id="edge11_Node000002_Node000012" class="edge">
<title>Node2&#45;&gt;Node12</title>
<g id="a_edge11_Node000002_Node000012"><a xlink:title=" ">
<path fill="none" stroke="#63b8ff" d="M543.83,-220.32C489.22,-211.9 402.58,-198.06 328,-184 326.56,-183.73 325.09,-183.45 323.61,-183.16"/>
<polygon fill="#63b8ff" stroke="#63b8ff" points="324.28,-179.72 313.79,-181.16 322.89,-186.58 324.28,-179.72"/>
</a>
</g>
</g>
<!-- Node13 -->
<g id="Node000013" class="node">
<title>Node13</title>
<g id="a_Node000013"><a xlink:title=" ">
<polygon fill="#e0e0e0" stroke="#999999" points="549.5,-129 496.5,-129 496.5,-110 549.5,-110 549.5,-129"/>
<text text-anchor="middle" x="523" y="-117" font-family="Helvetica,sans-Serif" font-size="10.00">QTimer</text>
</a>
</g>
</g>
<!-- Node2&#45;&gt;Node13 -->
<g id="edge12_Node000002_Node000013" class="edge">
<title>Node2&#45;&gt;Node13</title>
<g id="a_edge12_Node000002_Node000013"><a xlink:title=" ">
<path fill="none" stroke="#63b8ff" d="M543.98,-226.12C481.35,-222.09 383.79,-211.47 361,-184 324.95,-140.56 427.85,-126.7 486.05,-122.39"/>
<polygon fill="#63b8ff" stroke="#63b8ff" points="486.62,-125.86 496.36,-121.69 486.14,-118.87 486.62,-125.86"/>
</a>
</g>
</g>
<!-- Node14 -->
<g id="Node000014" class="node">
<title>Node14</title>
<g id="a_Node000014"><a xlink:title=" ">
<polygon fill="#e0e0e0" stroke="#999999" points="425.5,-184 370.5,-184 370.5,-165 425.5,-165 425.5,-184"/>
<text text-anchor="middle" x="398" y="-172" font-family="Helvetica,sans-Serif" font-size="10.00">QMutex</text>
</a>
</g>
</g>
<!-- Node2&#45;&gt;Node14 -->
<g id="edge13_Node000002_Node000014" class="edge">
<title>Node2&#45;&gt;Node14</title>
<g id="a_edge13_Node000002_Node000014"><a xlink:title=" ">
<path fill="none" stroke="#63b8ff" d="M565.87,-219.98C530.34,-210.57 473.17,-195.42 435.59,-185.46"/>
<polygon fill="#63b8ff" stroke="#63b8ff" points="436.11,-181.98 425.55,-182.8 434.32,-188.74 436.11,-181.98"/>
</a>
</g>
</g>
<!-- Node15 -->
<g id="Node000015" class="node">
<title>Node15</title>
<g id="a_Node000015"><a xlink:title=" ">
<polygon fill="#e0e0e0" stroke="#999999" points="645,-129 587,-129 587,-110 645,-110 645,-129"/>
<text text-anchor="middle" x="616" y="-117" font-family="Helvetica,sans-Serif" font-size="10.00">memory</text>
</a>
</g>
</g>
<!-- Node2&#45;&gt;Node15 -->
<g id="edge14_Node000002_Node000015" class="edge">
<title>Node2&#45;&gt;Node15</title>
<g id="a_edge14_Node000002_Node000015"><a xlink:title=" ">
<path fill="none" stroke="#63b8ff" d="M543.7,-220.67C500.53,-212.04 450.78,-195.19 473,-165 485.4,-148.16 538.69,-134.91 576.58,-127.39"/>
<polygon fill="#63b8ff" stroke="#63b8ff" points="577.65,-130.75 586.81,-125.42 576.33,-123.87 577.65,-130.75"/>
</a>
</g>
</g>
<!-- Node2&#45;&gt;Node16 -->
<g id="edge15_Node000002_Node000016" class="edge">
<title>Node2&#45;&gt;Node16</title>
<g id="a_edge15_Node000002_Node000016"><a xlink:title=" ">
<path fill="none" stroke="#63b8ff" d="M652.12,-223.54C756.01,-214.01 983.56,-193.15 1101.62,-182.32"/>
<polygon fill="#63b8ff" stroke="#63b8ff" points="1102.02,-185.8 1111.66,-181.4 1101.38,-178.83 1102.02,-185.8"/>
</a>
</g>
</g>
<!-- Node2&#45;&gt;Node17 -->
<g id="edge37_Node000002_Node000017" class="edge">
<title>Node2&#45;&gt;Node17</title>
<g id="a_edge37_Node000002_Node000017"><a xlink:title=" ">
<path fill="none" stroke="#63b8ff" d="M652.22,-225.96C703.34,-221.9 781.12,-211.36 843,-184 869.28,-172.38 894.81,-150.83 910.46,-136.09"/>
<polygon fill="#63b8ff" stroke="#63b8ff" points="912.95,-138.55 917.7,-129.09 908.08,-133.52 912.95,-138.55"/>
</a>
</g>
</g>
<!-- Node2&#45;&gt;Node18 -->
<g id="edge38_Node000002_Node000018" class="edge">
<title>Node2&#45;&gt;Node18</title>
<g id="a_edge38_Node000002_Node000018"><a xlink:title=" ">
<path fill="none" stroke="#63b8ff" d="M652.14,-228.26C799.99,-227.12 1202.7,-220.65 1249,-184 1275.46,-163.05 1282.05,-139.68 1266,-110 1258.42,-95.98 1244.3,-85.67 1230.87,-78.53"/>
<polygon fill="#63b8ff" stroke="#63b8ff" points="1232.3,-75.33 1221.78,-74.08 1229.23,-81.62 1232.3,-75.33"/>
</a>
</g>
</g>
<!-- Node16&#45;&gt;Node13 -->
<g id="edge33_Node000016_Node000013" class="edge">
<title>Node16&#45;&gt;Node13</title>
<g id="a_edge33_Node000016_Node000013"><a xlink:title=" ">
<path fill="none" stroke="#63b8ff" d="M1111.74,-168.6C1096.12,-167.42 1079.46,-166.16 1064,-165 848.01,-148.8 793.19,-153.56 578,-129 572.03,-128.32 565.72,-127.47 559.59,-126.57"/>
<polygon fill="#63b8ff" stroke="#63b8ff" points="559.93,-123.08 549.52,-125.03 558.88,-130 559.93,-123.08"/>
</a>
</g>
</g>
<!-- Node16&#45;&gt;Node15 -->
<g id="edge36_Node000016_Node000015" class="edge">
<title>Node16&#45;&gt;Node15</title>
<g id="a_edge36_Node000016_Node000015"><a xlink:title=" ">
<path fill="none" stroke="#63b8ff" d="M1111.76,-167.42C994.77,-156.35 750.25,-133.21 655.08,-124.2"/>
<polygon fill="#63b8ff" stroke="#63b8ff" points="655.31,-120.7 645.02,-123.25 654.65,-127.67 655.31,-120.7"/>
</a>
</g>
</g>
<!-- Node16&#45;&gt;Node17 -->
<g id="edge16_Node000016_Node000017" class="edge">
<title>Node16&#45;&gt;Node17</title>
<g id="a_edge16_Node000016_Node000017"><a xlink:title=" ">
<path fill="none" stroke="#63b8ff" d="M1135.83,-164.98C1092.5,-155.8 1023.41,-141.15 976.44,-131.19"/>
<polygon fill="#63b8ff" stroke="#63b8ff" points="976.99,-127.73 966.48,-129.08 975.54,-134.58 976.99,-127.73"/>
</a>
</g>
</g>
<!-- Node16&#45;&gt;Node18 -->
<g id="edge28_Node000016_Node000018" class="edge">
<title>Node16&#45;&gt;Node18</title>
<g id="a_edge28_Node000016_Node000018"><a xlink:title=" ">
<path fill="none" stroke="#63b8ff" d="M1175.21,-164.73C1174.34,-152.36 1173.58,-129.13 1178,-110 1180.14,-100.72 1184.27,-91 1188.21,-83.02"/>
<polygon fill="#63b8ff" stroke="#63b8ff" points="1191.4,-84.49 1192.96,-74.01 1185.2,-81.23 1191.4,-84.49"/>
</a>
</g>
</g>
<!-- Node19 -->
<g id="Node000019" class="node">
<title>Node19</title>
<g id="a_Node000019"><a xlink:title=" ">
<polygon fill="#e0e0e0" stroke="#999999" points="1147.5,-19 1094.5,-19 1094.5,0 1147.5,0 1147.5,-19"/>
<text text-anchor="middle" x="1121" y="-7" font-family="Helvetica,sans-Serif" font-size="10.00">QString</text>
</a>
</g>
</g>
<!-- Node16&#45;&gt;Node19 -->
<g id="edge30_Node000016_Node000019" class="edge">
<title>Node16&#45;&gt;Node19</title>
<g id="a_edge30_Node000016_Node000019"><a xlink:title=" ">
<path fill="none" stroke="#63b8ff" d="M1172.65,-164.77C1166.09,-147.53 1151.17,-107.84 1140,-74 1135.03,-58.96 1129.91,-41.73 1126.24,-29.02"/>
<polygon fill="#63b8ff" stroke="#63b8ff" points="1129.54,-27.83 1123.43,-19.18 1122.81,-29.75 1129.54,-27.83"/>
</a>
</g>
</g>
<!-- Node20 -->
<g id="Node000020" class="node">
<title>Node20</title>
<g id="a_Node000020"><a xlink:title=" ">
<polygon fill="#e0e0e0" stroke="#999999" points="909,-19 837,-19 837,0 909,0 909,-19"/>
<text text-anchor="middle" x="873" y="-7" font-family="Helvetica,sans-Serif" font-size="10.00">QDateTime</text>
</a>
</g>
</g>
<!-- Node16&#45;&gt;Node20 -->
<g id="edge34_Node000016_Node000020" class="edge">
<title>Node16&#45;&gt;Node20</title>
<g id="a_edge34_Node000016_Node000020"><a xlink:title=" ">
<path fill="none" stroke="#63b8ff" d="M1111.87,-168.45C1027.87,-161.19 889.4,-146.69 874,-129 849.88,-101.31 858.91,-54.62 866.59,-28.89"/>
<polygon fill="#63b8ff" stroke="#63b8ff" points="869.95,-29.86 869.7,-19.26 863.29,-27.71 869.95,-29.86"/>
</a>
</g>
</g>
<!-- Node23 -->
<g id="Node000023" class="node">
<title>Node23</title>
<g id="a_Node000023"><a xlink:title=" ">
<polygon fill="#e0e0e0" stroke="#999999" points="1340.5,-19 1291.5,-19 1291.5,0 1340.5,0 1340.5,-19"/>
<text text-anchor="middle" x="1316" y="-7" font-family="Helvetica,sans-Serif" font-size="10.00">QHash</text>
</a>
</g>
</g>
<!-- Node16&#45;&gt;Node23 -->
<g id="edge32_Node000016_Node000023" class="edge">
<title>Node16&#45;&gt;Node23</title>
<g id="a_edge32_Node000016_Node000023"><a xlink:title=" ">
<path fill="none" stroke="#63b8ff" d="M1205.65,-164.86C1225,-157.91 1249.63,-146.38 1266,-129 1293.2,-100.11 1306.73,-54.23 1312.46,-28.87"/>
<polygon fill="#63b8ff" stroke="#63b8ff" points="1315.89,-29.58 1314.51,-19.08 1309.04,-28.15 1315.89,-29.58"/>
</a>
</g>
</g>
<!-- Node24 -->
<g id="Node000024" class="node">
<title>Node24</title>
<g id="a_Node000024"><a xlink:title=" ">
<polygon fill="#e0e0e0" stroke="#999999" points="1093,-74 1037,-74 1037,-55 1093,-55 1093,-74"/>
<text text-anchor="middle" x="1065" y="-62" font-family="Helvetica,sans-Serif" font-size="10.00">QObject</text>
</a>
</g>
</g>
<!-- Node16&#45;&gt;Node24 -->
<g id="edge29_Node000016_Node000024" class="edge">
<title>Node16&#45;&gt;Node24</title>
<g id="a_edge29_Node000016_Node000024"><a xlink:title=" ">
<path fill="none" stroke="#63b8ff" d="M1158.72,-164.98C1143.84,-157.06 1122.41,-144.23 1107,-129 1093.23,-115.39 1081.47,-96.57 1073.93,-82.96"/>
<polygon fill="#63b8ff" stroke="#63b8ff" points="1077,-81.29 1069.21,-74.11 1070.83,-84.58 1077,-81.29"/>
</a>
</g>
</g>
<!-- Node26 -->
<g id="Node000026" class="node">
<title>Node26</title>
<g id="a_Node000026"><a xlink:title=" ">
<polygon fill="#e0e0e0" stroke="#999999" points="1257,-129 1187,-129 1187,-110 1257,-110 1257,-129"/>
<text text-anchor="middle" x="1222" y="-117" font-family="Helvetica,sans-Serif" font-size="10.00">QStringList</text>
</a>
</g>
</g>
<!-- Node16&#45;&gt;Node26 -->
<g id="edge31_Node000016_Node000026" class="edge">
<title>Node16&#45;&gt;Node26</title>
<g id="a_edge31_Node000016_Node000026"><a xlink:title=" ">
<path fill="none" stroke="#63b8ff" d="M1183.6,-164.75C1190.16,-157.18 1199.82,-146.05 1207.81,-136.84"/>
<polygon fill="#63b8ff" stroke="#63b8ff" points="1210.63,-138.94 1214.55,-129.09 1205.35,-134.35 1210.63,-138.94"/>
</a>
</g>
</g>
<!-- Node27 -->
<g id="Node000027" class="node">
<title>Node27</title>
<g id="a_Node000027"><a xlink:title=" ">
<polygon fill="#e0e0e0" stroke="#999999" points="1055,-129 987,-129 987,-110 1055,-110 1055,-129"/>
<text text-anchor="middle" x="1021" y="-117" font-family="Helvetica,sans-Serif" font-size="10.00">QSqlQuery</text>
</a>
</g>
</g>
<!-- Node16&#45;&gt;Node27 -->
<g id="edge35_Node000016_Node000027" class="edge">
<title>Node16&#45;&gt;Node27</title>
<g id="a_edge35_Node000016_Node000027"><a xlink:title=" ">
<path fill="none" stroke="#63b8ff" d="M1151.1,-164.98C1125.3,-156.16 1084.78,-142.31 1055.82,-132.41"/>
<polygon fill="#63b8ff" stroke="#63b8ff" points="1056.69,-129.01 1046.1,-129.08 1054.43,-135.63 1056.69,-129.01"/>
</a>
</g>
</g>
<!-- Node17&#45;&gt;Node18 -->
<g id="edge17_Node000017_Node000018" class="edge">
<title>Node17&#45;&gt;Node18</title>
<g id="a_edge17_Node000017_Node000018"><a xlink:title=" ">
<path fill="none" stroke="#63b8ff" d="M969.1,-110.1C1016.57,-100.85 1092.96,-85.97 1144.29,-75.97"/>
<polygon fill="#63b8ff" stroke="#63b8ff" points="1145.06,-79.38 1154.2,-74.03 1143.72,-72.51 1145.06,-79.38"/>
</a>
</g>
</g>
<!-- Node17&#45;&gt;Node19 -->
<g id="edge24_Node000017_Node000019" class="edge">
<title>Node17&#45;&gt;Node19</title>
<g id="a_edge24_Node000017_Node000019"><a xlink:title=" ">
<path fill="none" stroke="#63b8ff" d="M929.45,-109.68C935.29,-95.92 948.42,-69.42 968,-55 1002.47,-29.62 1051.18,-18.66 1084.31,-13.96"/>
<polygon fill="#63b8ff" stroke="#63b8ff" points="1085.01,-17.4 1094.48,-12.65 1084.12,-10.46 1085.01,-17.4"/>
</a>
</g>
</g>
<!-- Node17&#45;&gt;Node20 -->
<g id="edge25_Node000017_Node000020" class="edge">
<title>Node17&#45;&gt;Node20</title>
<g id="a_edge25_Node000017_Node000020"><a xlink:title=" ">
<path fill="none" stroke="#63b8ff" d="M919.64,-109.97C913.33,-101.25 903.67,-87.16 897,-74 889.59,-59.38 883.14,-41.91 878.81,-29"/>
<polygon fill="#63b8ff" stroke="#63b8ff" points="882.1,-27.81 875.68,-19.38 875.45,-29.97 882.1,-27.81"/>
</a>
</g>
</g>
<!-- Node22 -->
<g id="Node000022" class="node">
<title>Node22</title>
<g id="a_Node000022"><a xlink:title=" ">
<polygon fill="#e0e0e0" stroke="#999999" points="1031.5,-19 972.5,-19 972.5,0 1031.5,0 1031.5,-19"/>
<text text-anchor="middle" x="1002" y="-7" font-family="Helvetica,sans-Serif" font-size="10.00">QVariant</text>
</a>
</g>
</g>
<!-- Node17&#45;&gt;Node22 -->
<g id="edge27_Node000017_Node000022" class="edge">
<title>Node17&#45;&gt;Node22</title>
<g id="a_edge27_Node000017_Node000022"><a xlink:title=" ">
<path fill="none" stroke="#63b8ff" d="M925.11,-109.95C924.2,-97 924.19,-72.14 935,-55 943.59,-41.37 958.05,-30.99 971.34,-23.7"/>
<polygon fill="#63b8ff" stroke="#63b8ff" points="972.95,-26.8 980.27,-19.14 969.77,-20.57 972.95,-26.8"/>
</a>
</g>
</g>
<!-- Node17&#45;&gt;Node24 -->
<g id="edge23_Node000017_Node000024" class="edge">
<title>Node17&#45;&gt;Node24</title>
<g id="a_edge23_Node000017_Node000024"><a xlink:title=" ">
<path fill="none" stroke="#63b8ff" d="M948.33,-109.98C971.2,-101.27 1006.96,-87.63 1032.86,-77.75"/>
<polygon fill="#63b8ff" stroke="#63b8ff" points="1034.16,-81 1042.26,-74.17 1031.67,-74.46 1034.16,-81"/>
</a>
</g>
</g>
<!-- Node25 -->
<g id="Node000025" class="node">
<title>Node25</title>
<g id="a_Node000025"><a xlink:title=" ">
<polygon fill="#e0e0e0" stroke="#999999" points="1018.5,-74 977.5,-74 977.5,-55 1018.5,-55 1018.5,-74"/>
<text text-anchor="middle" x="998" y="-62" font-family="Helvetica,sans-Serif" font-size="10.00">QList</text>
</a>
</g>
</g>
<!-- Node17&#45;&gt;Node25 -->
<g id="edge26_Node000017_Node000025" class="edge">
<title>Node17&#45;&gt;Node25</title>
<g id="a_edge26_Node000017_Node000025"><a xlink:title=" ">
<path fill="none" stroke="#63b8ff" d="M937.57,-109.98C948.42,-102 964.88,-89.88 977.88,-80.31"/>
<polygon fill="#63b8ff" stroke="#63b8ff" points="980.24,-82.92 986.22,-74.17 976.09,-77.28 980.24,-82.92"/>
</a>
</g>
</g>
<!-- Node18&#45;&gt;Node19 -->
<g id="edge18_Node000018_Node000019" class="edge">
<title>Node18&#45;&gt;Node19</title>
<g id="a_edge18_Node000018_Node000019"><a xlink:title=" ">
<path fill="none" stroke="#63b8ff" d="M1185.63,-54.98C1173.91,-46.92 1156.08,-34.65 1142.11,-25.03"/>
<polygon fill="#63b8ff" stroke="#63b8ff" points="1143.82,-21.96 1133.6,-19.17 1139.85,-27.72 1143.82,-21.96"/>
</a>
</g>
</g>
<!-- Node18&#45;&gt;Node20 -->
<g id="edge19_Node000018_Node000020" class="edge">
<title>Node18&#45;&gt;Node20</title>
<g id="a_edge19_Node000018_Node000020"><a xlink:title=" ">
<path fill="none" stroke="#63b8ff" d="M1148.99,-55.51C1086.8,-45.37 980.31,-28 919.39,-18.07"/>
<polygon fill="#63b8ff" stroke="#63b8ff" points="919.73,-14.57 909.3,-16.42 918.6,-21.48 919.73,-14.57"/>
</a>
</g>
</g>
<!-- Node21 -->
<g id="Node000021" class="node">
<title>Node21</title>
<g id="a_Node000021"><a xlink:title=" ">
<polygon fill="#e0e0e0" stroke="#999999" points="1228,-19 1168,-19 1168,0 1228,0 1228,-19"/>
<text text-anchor="middle" x="1198" y="-7" font-family="Helvetica,sans-Serif" font-size="10.00">QFileInfo</text>
</a>
</g>
</g>
<!-- Node18&#45;&gt;Node21 -->
<g id="edge20_Node000018_Node000021" class="edge">
<title>Node18&#45;&gt;Node21</title>
<g id="a_edge20_Node000018_Node000021"><a xlink:title=" ">
<path fill="none" stroke="#63b8ff" d="M1198,-54.75C1198,-47.8 1198,-37.85 1198,-29.13"/>
<polygon fill="#63b8ff" stroke="#63b8ff" points="1201.5,-29.09 1198,-19.09 1194.5,-29.09 1201.5,-29.09"/>
</a>
</g>
</g>
<!-- Node18&#45;&gt;Node22 -->
<g id="edge21_Node000018_Node000022" class="edge">
<title>Node18&#45;&gt;Node22</title>
<g id="a_edge21_Node000018_Node000022"><a xlink:title=" ">
<path fill="none" stroke="#63b8ff" d="M1166.51,-54.98C1132.58,-45.81 1078.52,-31.19 1041.7,-21.24"/>
<polygon fill="#63b8ff" stroke="#63b8ff" points="1042.37,-17.79 1031.81,-18.56 1040.55,-24.55 1042.37,-17.79"/>
</a>
</g>
</g>
<!-- Node18&#45;&gt;Node23 -->
<g id="edge22_Node000018_Node000023" class="edge">
<title>Node18&#45;&gt;Node23</title>
<g id="a_edge22_Node000018_Node000023"><a xlink:title=" ">
<path fill="none" stroke="#63b8ff" d="M1216.96,-54.98C1236.03,-46.42 1265.66,-33.11 1287.55,-23.28"/>
<polygon fill="#63b8ff" stroke="#63b8ff" points="1289.01,-26.46 1296.7,-19.17 1286.14,-20.07 1289.01,-26.46"/>
</a>
</g>
</g>
</g>
</svg>
