<?xml version="1.0" encoding="UTF-8" standalone="no"?>
<!DOCTYPE svg PUBLIC "-//W3C//DTD SVG 1.1//EN"
 "http://www.w3.org/Graphics/SVG/1.1/DTD/svg11.dtd">
<!-- Generated by graphviz version 2.43.0 (0)
 -->
<!-- Title: LinuxPlatform::hardwareAccelerationChanged Pages: 1 -->
<svg width="399pt" height="64pt"
 viewBox="0.00 0.00 399.00 64.00" xmlns="http://www.w3.org/2000/svg" xmlns:xlink="http://www.w3.org/1999/xlink">
<g id="graph0" class="graph" transform="scale(1 1) rotate(0) translate(4 60)">
<title>LinuxPlatform::hardwareAccelerationChanged</title>
<!-- Node1 -->
<g id="Node000001" class="node">
<title>Node1</title>
<g id="a_Node000001"><a xlink:title=" ">
<polygon fill="#999999" stroke="#666666" points="391,-42.5 194,-42.5 194,-12.5 391,-12.5 391,-42.5"/>
<text text-anchor="start" x="202" y="-30.5" font-family="Helvetica,sans-Serif" font-size="10.00">LinuxPlatform::hardwareAcceleration</text>
<text text-anchor="middle" x="292.5" y="-19.5" font-family="Helvetica,sans-Serif" font-size="10.00">Changed</text>
</a>
</g>
</g>
<!-- Node2 -->
<g id="Node000002" class="node">
<title>Node2</title>
<g id="a_Node000002"><a xlink:href="../../d8/d4d/classLinuxPlatform.html#a1b02adc6dd9ea2b41c6d7af41b5d61e0" target="_top" xlink:title=" ">
<polygon fill="white" stroke="#666666" points="155,-56 3,-56 3,-37 155,-37 155,-56"/>
<text text-anchor="middle" x="79" y="-44" font-family="Helvetica,sans-Serif" font-size="10.00">LinuxPlatform::enableVAAPI</text>
</a>
</g>
</g>
<!-- Node1&#45;&gt;Node2 -->
<g id="edge1_Node000001_Node000002" class="edge">
<title>Node1&#45;&gt;Node2</title>
<g id="a_edge1_Node000001_Node000002"><a xlink:title=" ">
<path fill="none" stroke="#63b8ff" d="M183.73,-37.18C174.07,-38.05 164.43,-38.92 155.13,-39.75"/>
<polygon fill="#63b8ff" stroke="#63b8ff" points="184.15,-40.66 193.8,-36.28 183.53,-33.69 184.15,-40.66"/>
</a>
</g>
</g>
<!-- Node3 -->
<g id="Node000003" class="node">
<title>Node3</title>
<g id="a_Node000003"><a xlink:href="../../d8/d4d/classLinuxPlatform.html#a6fb69309b3688fa52cee3ff99d8c1628" target="_top" xlink:title=" ">
<polygon fill="white" stroke="#666666" points="158,-19 0,-19 0,0 158,0 158,-19"/>
<text text-anchor="middle" x="79" y="-7" font-family="Helvetica,sans-Serif" font-size="10.00">LinuxPlatform::enableVDPAU</text>
</a>
</g>
</g>
<!-- Node1&#45;&gt;Node3 -->
<g id="edge2_Node000001_Node000003" class="edge">
<title>Node1&#45;&gt;Node3</title>
<g id="a_edge2_Node000001_Node000003"><a xlink:title=" ">
<path fill="none" stroke="#63b8ff" d="M183.73,-18.33C175.16,-17.6 166.6,-16.87 158.28,-16.16"/>
<polygon fill="#63b8ff" stroke="#63b8ff" points="183.54,-21.82 193.8,-19.18 184.13,-14.85 183.54,-21.82"/>
</a>
</g>
</g>
</g>
</svg>
