<?xml version="1.0" encoding="UTF-8" standalone="no"?>
<!DOCTYPE svg PUBLIC "-//W3C//DTD SVG 1.1//EN"
 "http://www.w3.org/Graphics/SVG/1.1/DTD/svg11.dtd">
<!-- Generated by graphviz version 2.43.0 (0)
 -->
<!-- Title: include/audio/AudioVisualizer.h Pages: 1 -->
<svg width="366pt" height="148pt"
 viewBox="0.00 0.00 366.00 148.00" xmlns="http://www.w3.org/2000/svg" xmlns:xlink="http://www.w3.org/1999/xlink">
<g id="graph0" class="graph" transform="scale(1 1) rotate(0) translate(4 144)">
<title>include/audio/AudioVisualizer.h</title>
<!-- Node1 -->
<g id="Node000001" class="node">
<title>Node1</title>
<g id="a_Node000001"><a xlink:title=" ">
<polygon fill="#999999" stroke="#666666" points="256,-140 87,-140 87,-121 256,-121 256,-140"/>
<text text-anchor="middle" x="171.5" y="-128" font-family="Helvetica,sans-Serif" font-size="10.00">include/audio/AudioVisualizer.h</text>
</a>
</g>
</g>
<!-- Node2 -->
<g id="Node000002" class="node">
<title>Node2</title>
<g id="a_Node000002"><a xlink:href="../../d5/d73/AudioVisualizerWidget_8h.html" target="_top" xlink:title=" ">
<polygon fill="white" stroke="#666666" points="143,-85 0,-85 0,-55 143,-55 143,-85"/>
<text text-anchor="start" x="8" y="-73" font-family="Helvetica,sans-Serif" font-size="10.00">include/ui/AudioVisualizer</text>
<text text-anchor="middle" x="71.5" y="-62" font-family="Helvetica,sans-Serif" font-size="10.00">Widget.h</text>
</a>
</g>
</g>
<!-- Node1&#45;&gt;Node2 -->
<g id="edge1_Node000001_Node000002" class="edge">
<title>Node1&#45;&gt;Node2</title>
<g id="a_edge1_Node000001_Node000002"><a xlink:title=" ">
<path fill="none" stroke="#63b8ff" d="M148.1,-115.81C132.33,-106.58 111.56,-94.43 95.63,-85.11"/>
<polygon fill="#63b8ff" stroke="#63b8ff" points="146.35,-118.84 156.74,-120.87 149.88,-112.8 146.35,-118.84"/>
</a>
</g>
</g>
<!-- Node3 -->
<g id="Node000003" class="node">
<title>Node3</title>
<g id="a_Node000003"><a xlink:href="../../dc/d5e/AudioVisualizerWidget_8cpp.html" target="_top" xlink:title=" ">
<polygon fill="white" stroke="#666666" points="209.5,-19 33.5,-19 33.5,0 209.5,0 209.5,-19"/>
<text text-anchor="middle" x="121.5" y="-7" font-family="Helvetica,sans-Serif" font-size="10.00">src/ui/AudioVisualizerWidget.cpp</text>
</a>
</g>
</g>
<!-- Node1&#45;&gt;Node3 -->
<g id="edge4_Node000001_Node000003" class="edge">
<title>Node1&#45;&gt;Node3</title>
<g id="a_edge4_Node000001_Node000003"><a xlink:title=" ">
<path fill="none" stroke="#63b8ff" d="M168.69,-111.02C165.9,-95.56 160.81,-73.17 152.5,-55 146.31,-41.47 135.95,-27.69 128.93,-19.12"/>
<polygon fill="#63b8ff" stroke="#63b8ff" points="165.24,-111.61 170.33,-120.9 172.15,-110.46 165.24,-111.61"/>
</a>
</g>
</g>
<!-- Node4 -->
<g id="Node000004" class="node">
<title>Node4</title>
<g id="a_Node000004"><a xlink:href="../../d3/d12/AudioVisualizer_8cpp.html" target="_top" xlink:title=" ">
<polygon fill="white" stroke="#666666" points="358,-79.5 199,-79.5 199,-60.5 358,-60.5 358,-79.5"/>
<text text-anchor="middle" x="278.5" y="-67.5" font-family="Helvetica,sans-Serif" font-size="10.00">src/audio/AudioVisualizer.cpp</text>
</a>
</g>
</g>
<!-- Node1&#45;&gt;Node4 -->
<g id="edge3_Node000001_Node000004" class="edge">
<title>Node1&#45;&gt;Node4</title>
<g id="a_edge3_Node000001_Node000004"><a xlink:title=" ">
<path fill="none" stroke="#63b8ff" d="M196.33,-115.92C216.78,-104.74 245.16,-89.23 262.65,-79.67"/>
<polygon fill="#63b8ff" stroke="#63b8ff" points="194.38,-113 187.29,-120.87 197.74,-119.14 194.38,-113"/>
</a>
</g>
</g>
<!-- Node2&#45;&gt;Node3 -->
<g id="edge2_Node000002_Node000003" class="edge">
<title>Node2&#45;&gt;Node3</title>
<g id="a_edge2_Node000002_Node000003"><a xlink:title=" ">
<path fill="none" stroke="#63b8ff" d="M90.23,-47.09C98.49,-37.42 107.73,-26.61 114.01,-19.27"/>
<polygon fill="#63b8ff" stroke="#63b8ff" points="87.44,-44.96 83.6,-54.84 92.76,-49.51 87.44,-44.96"/>
</a>
</g>
</g>
</g>
</svg>
