<?xml version="1.0" encoding="UTF-8" standalone="no"?>
<!DOCTYPE svg PUBLIC "-//W3C//DTD SVG 1.1//EN"
 "http://www.w3.org/Graphics/SVG/1.1/DTD/svg11.dtd">
<!-- Generated by graphviz version 2.43.0 (0)
 -->
<!-- Title: VideoProcessor::resetFilters Pages: 1 -->
<svg width="746pt" height="27pt"
 viewBox="0.00 0.00 746.00 27.00" xmlns="http://www.w3.org/2000/svg" xmlns:xlink="http://www.w3.org/1999/xlink">
<g id="graph0" class="graph" transform="scale(1 1) rotate(0) translate(4 23)">
<title>VideoProcessor::resetFilters</title>
<!-- Node1 -->
<g id="Node000001" class="node">
<title>Node1</title>
<g id="a_Node000001"><a xlink:title="Reset all filters to default.">
<polygon fill="#999999" stroke="#666666" points="738,-19 586,-19 586,0 738,0 738,-19"/>
<text text-anchor="middle" x="662" y="-7" font-family="Helvetica,sans-Serif" font-size="10.00">VideoProcessor::resetFilters</text>
</a>
</g>
</g>
<!-- Node2 -->
<g id="Node000002" class="node">
<title>Node2</title>
<g id="a_Node000002"><a xlink:href="../../d1/d7c/classVideoProcessor.html#aad3bfea35c10bde0feadc82202942b4d" target="_top" xlink:title="Enable or disable the processor.">
<polygon fill="white" stroke="#666666" points="550,-19 398,-19 398,0 550,0 550,-19"/>
<text text-anchor="middle" x="474" y="-7" font-family="Helvetica,sans-Serif" font-size="10.00">VideoProcessor::setEnabled</text>
</a>
</g>
</g>
<!-- Node1&#45;&gt;Node2 -->
<g id="edge1_Node000001_Node000002" class="edge">
<title>Node1&#45;&gt;Node2</title>
<g id="a_edge1_Node000001_Node000002"><a xlink:title=" ">
<path fill="none" stroke="#63b8ff" d="M575.85,-9.5C567.26,-9.5 558.57,-9.5 550.1,-9.5"/>
<polygon fill="#63b8ff" stroke="#63b8ff" points="575.88,-13 585.88,-9.5 575.88,-6 575.88,-13"/>
</a>
</g>
</g>
<!-- Node3 -->
<g id="Node000003" class="node">
<title>Node3</title>
<g id="a_Node000003"><a xlink:href="../../d1/d7c/classVideoProcessor.html#a876c1126a4be9cd4b31bef41878993b4" target="_top" xlink:title="Shutdown the processor.">
<polygon fill="white" stroke="#666666" points="362,-19 217,-19 217,0 362,0 362,-19"/>
<text text-anchor="middle" x="289.5" y="-7" font-family="Helvetica,sans-Serif" font-size="10.00">VideoProcessor::shutdown</text>
</a>
</g>
</g>
<!-- Node2&#45;&gt;Node3 -->
<g id="edge2_Node000002_Node000003" class="edge">
<title>Node2&#45;&gt;Node3</title>
<g id="a_edge2_Node000002_Node000003"><a xlink:title=" ">
<path fill="none" stroke="#63b8ff" d="M387.96,-9.5C379.37,-9.5 370.71,-9.5 362.29,-9.5"/>
<polygon fill="#63b8ff" stroke="#63b8ff" points="387.98,-13 397.98,-9.5 387.98,-6 387.98,-13"/>
</a>
</g>
</g>
<!-- Node4 -->
<g id="Node000004" class="node">
<title>Node4</title>
<g id="a_Node000004"><a xlink:href="../../d1/d7c/classVideoProcessor.html#a7ec1fa8e3a1c7426e0d08bc7692f8b75" target="_top" xlink:title=" ">
<polygon fill="white" stroke="#666666" points="181,-19 0,-19 0,0 181,0 181,-19"/>
<text text-anchor="middle" x="90.5" y="-7" font-family="Helvetica,sans-Serif" font-size="10.00">VideoProcessor::~VideoProcessor</text>
</a>
</g>
</g>
<!-- Node3&#45;&gt;Node4 -->
<g id="edge3_Node000003_Node000004" class="edge">
<title>Node3&#45;&gt;Node4</title>
<g id="a_edge3_Node000003_Node000004"><a xlink:title=" ">
<path fill="none" stroke="#63b8ff" d="M206.69,-9.5C198.3,-9.5 189.74,-9.5 181.27,-9.5"/>
<polygon fill="#63b8ff" stroke="#63b8ff" points="206.82,-13 216.82,-9.5 206.82,-6 206.82,-13"/>
</a>
</g>
</g>
</g>
</svg>
