<?xml version="1.0" encoding="UTF-8" standalone="no"?>
<!DOCTYPE svg PUBLIC "-//W3C//DTD SVG 1.1//EN"
 "http://www.w3.org/Graphics/SVG/1.1/DTD/svg11.dtd">
<!-- Generated by graphviz version 2.43.0 (0)
 -->
<!-- Title: VideoProcessor::parametersChanged Pages: 1 -->
<!--zoomable 107 -->

<svg id="main" version="1.1" xmlns="http://www.w3.org/2000/svg" xmlns:xlink="http://www.w3.org/1999/xlink" xml:space="preserve" onload="init(evt)">
<style type="text/css"><![CDATA[
.node, .edge {opacity: 0.7;}
.node.selected, .edge.selected {opacity: 1;}
.edge:hover path { stroke: red; }
.edge:hover polygon { stroke: red; fill: red; }
]]></style>

<defs>
  <circle id="rim" cx="0" cy="0" r="7"/>
  <circle id="rim2" cx="0" cy="0" r="3.5"/>
  <g id="zoomPlus">
    <use xlink:href="#rim" fill="#404040"><set attributeName="fill" to="#808080" begin="zoomplus.mouseover" end="zoomplus.mouseout"/></use>
    <path d="M-4,0h8M0,-4v8" fill="none" stroke="white" stroke-width="1.5" pointer-events="none"/>
  </g>
  <g id="zoomMin">
    <use xlink:href="#rim" fill="#404040"><set attributeName="fill" to="#808080" begin="zoomminus.mouseover" end="zoomminus.mouseout"/></use>
    <path d="M-4,0h8" fill="none" stroke="white" stroke-width="1.5" pointer-events="none"/>
  </g>
  <g id="arrowUp" transform="translate(30 24)">
    <use xlink:href="#rim"/>
    <path pointer-events="none" fill="none" stroke="white" stroke-width="1.5" d="M0,-3.0v7 M-2.5,-0.5L0,-3.0L2.5,-0.5"/>
  </g>
  <g id="arrowRight" transform="rotate(90) translate(36 -43)">
    <use xlink:href="#rim"/>
    <path pointer-events="none" fill="none" stroke="white" stroke-width="1.5" d="M0,-3.0v7 M-2.5,-0.5L0,-3.0L2.5,-0.5"/>
  </g>
  <g id="arrowDown" transform="rotate(180) translate(-30 -48)">
    <use xlink:href="#rim"/>
    <path pointer-events="none" fill="none" stroke="white" stroke-width="1.5" d="M0,-3.0v7 M-2.5,-0.5L0,-3.0L2.5,-0.5"/>
  </g>
  <g id="arrowLeft" transform="rotate(270) translate(-36 17)">
    <use xlink:href="#rim"/>
    <path pointer-events="none" fill="none" stroke="white" stroke-width="1.5" d="M0,-3.0v7 M-2.5,-0.5L0,-3.0L2.5,-0.5"/>
  </g>
  <g id="resetDef">
    <use xlink:href="#rim2" fill="#404040"><set attributeName="fill" to="#808080" begin="reset.mouseover" end="reset.mouseout"/></use>
  </g>
</defs>
<script type="application/ecmascript">
var viewWidth = 952;
var viewHeight = 107;
var sectionId = 'dynsection-8';
</script>
<script type="application/ecmascript" xlink:href="../../svg.min.js"/>
<svg id="graph" class="graph">
<g id="viewport">
<title>VideoProcessor::parametersChanged</title>
<!-- Node1 -->
<g id="Node000001" class="node">
<title>Node1</title>
<g id="a_Node000001"><a xlink:title="Emitted when parameters change.">
<polygon fill="#999999" stroke="#666666" points="944,-67 790,-67 790,-37 944,-37 944,-67"/>
<text text-anchor="start" x="798" y="-55" font-family="Helvetica,sans-Serif" font-size="10.00">VideoProcessor::parameters</text>
<text text-anchor="middle" x="867" y="-44" font-family="Helvetica,sans-Serif" font-size="10.00">Changed</text>
</a>
</g>
</g>
<!-- Node2 -->
<g id="Node000002" class="node">
<title>Node2</title>
<g id="a_Node000002"><a xlink:href="../../d1/d7c/classVideoProcessor.html#ab965b584be52a08caa15bf84359e0ed8" target="_top" xlink:title="Reset all filters to default.">
<polygon fill="white" stroke="#666666" points="746,-98.5 594,-98.5 594,-79.5 746,-79.5 746,-98.5"/>
<text text-anchor="middle" x="670" y="-86.5" font-family="Helvetica,sans-Serif" font-size="10.00">VideoProcessor::resetFilters</text>
</a>
</g>
</g>
<!-- Node1&#45;&gt;Node2 -->
<g id="edge1_Node000001_Node000002" class="edge">
<title>Node1&#45;&gt;Node2</title>
<g id="a_edge1_Node000001_Node000002"><a xlink:title=" ">
<path fill="none" stroke="#63b8ff" d="M779.72,-68.37C759.77,-72.16 739.17,-76.07 721.35,-79.45"/>
<polygon fill="#63b8ff" stroke="#63b8ff" points="780.6,-71.77 789.77,-66.46 779.29,-64.89 780.6,-71.77"/>
</a>
</g>
</g>
<!-- Node6 -->
<g id="Node000006" class="node">
<title>Node6</title>
<g id="a_Node000006"><a xlink:href="../../d1/d7c/classVideoProcessor.html#ad276323f7f70cd92d40fccb186362aad" target="_top" xlink:title="Set specific parameter value.">
<polygon fill="white" stroke="#666666" points="751.5,-61.5 588.5,-61.5 588.5,-42.5 751.5,-42.5 751.5,-61.5"/>
<text text-anchor="middle" x="670" y="-49.5" font-family="Helvetica,sans-Serif" font-size="10.00">VideoProcessor::setParameter</text>
</a>
</g>
</g>
<!-- Node1&#45;&gt;Node6 -->
<g id="edge5_Node000001_Node000006" class="edge">
<title>Node1&#45;&gt;Node6</title>
<g id="a_edge5_Node000001_Node000006"><a xlink:title=" ">
<path fill="none" stroke="#63b8ff" d="M779.72,-52C770.4,-52 760.94,-52 751.68,-52"/>
<polygon fill="#63b8ff" stroke="#63b8ff" points="779.77,-55.5 789.77,-52 779.77,-48.5 779.77,-55.5"/>
</a>
</g>
</g>
<!-- Node7 -->
<g id="Node000007" class="node">
<title>Node7</title>
<g id="a_Node000007"><a xlink:href="../../d1/d7c/classVideoProcessor.html#aeec7542daa515fb0b311f8a2137a48f8" target="_top" xlink:title="Set processing parameters.">
<polygon fill="white" stroke="#666666" points="754,-24.5 586,-24.5 586,-5.5 754,-5.5 754,-24.5"/>
<text text-anchor="middle" x="670" y="-12.5" font-family="Helvetica,sans-Serif" font-size="10.00">VideoProcessor::setParameters</text>
</a>
</g>
</g>
<!-- Node1&#45;&gt;Node7 -->
<g id="edge6_Node000001_Node000007" class="edge">
<title>Node1&#45;&gt;Node7</title>
<g id="a_edge6_Node000001_Node000007"><a xlink:title=" ">
<path fill="none" stroke="#63b8ff" d="M779.72,-35.63C759.77,-31.84 739.17,-27.93 721.35,-24.55"/>
<polygon fill="#63b8ff" stroke="#63b8ff" points="779.29,-39.11 789.77,-37.54 780.6,-32.23 779.29,-39.11"/>
</a>
</g>
</g>
<!-- Node3 -->
<g id="Node000003" class="node">
<title>Node3</title>
<g id="a_Node000003"><a xlink:href="../../d1/d7c/classVideoProcessor.html#aad3bfea35c10bde0feadc82202942b4d" target="_top" xlink:title="Enable or disable the processor.">
<polygon fill="white" stroke="#666666" points="550,-98.5 398,-98.5 398,-79.5 550,-79.5 550,-98.5"/>
<text text-anchor="middle" x="474" y="-86.5" font-family="Helvetica,sans-Serif" font-size="10.00">VideoProcessor::setEnabled</text>
</a>
</g>
</g>
<!-- Node2&#45;&gt;Node3 -->
<g id="edge2_Node000002_Node000003" class="edge">
<title>Node2&#45;&gt;Node3</title>
<g id="a_edge2_Node000002_Node000003"><a xlink:title=" ">
<path fill="none" stroke="#63b8ff" d="M583.78,-89C572.57,-89 561.15,-89 550.13,-89"/>
<polygon fill="#63b8ff" stroke="#63b8ff" points="583.99,-92.5 593.99,-89 583.99,-85.5 583.99,-92.5"/>
</a>
</g>
</g>
<!-- Node4 -->
<g id="Node000004" class="node">
<title>Node4</title>
<g id="a_Node000004"><a xlink:href="../../d1/d7c/classVideoProcessor.html#a876c1126a4be9cd4b31bef41878993b4" target="_top" xlink:title="Shutdown the processor.">
<polygon fill="white" stroke="#666666" points="362,-98.5 217,-98.5 217,-79.5 362,-79.5 362,-98.5"/>
<text text-anchor="middle" x="289.5" y="-86.5" font-family="Helvetica,sans-Serif" font-size="10.00">VideoProcessor::shutdown</text>
</a>
</g>
</g>
<!-- Node3&#45;&gt;Node4 -->
<g id="edge3_Node000003_Node000004" class="edge">
<title>Node3&#45;&gt;Node4</title>
<g id="a_edge3_Node000003_Node000004"><a xlink:title=" ">
<path fill="none" stroke="#63b8ff" d="M387.96,-89C379.37,-89 370.71,-89 362.29,-89"/>
<polygon fill="#63b8ff" stroke="#63b8ff" points="387.98,-92.5 397.98,-89 387.98,-85.5 387.98,-92.5"/>
</a>
</g>
</g>
<!-- Node5 -->
<g id="Node000005" class="node">
<title>Node5</title>
<g id="a_Node000005"><a xlink:href="../../d1/d7c/classVideoProcessor.html#a7ec1fa8e3a1c7426e0d08bc7692f8b75" target="_top" xlink:title=" ">
<polygon fill="white" stroke="#666666" points="181,-98.5 0,-98.5 0,-79.5 181,-79.5 181,-98.5"/>
<text text-anchor="middle" x="90.5" y="-86.5" font-family="Helvetica,sans-Serif" font-size="10.00">VideoProcessor::~VideoProcessor</text>
</a>
</g>
</g>
<!-- Node4&#45;&gt;Node5 -->
<g id="edge4_Node000004_Node000005" class="edge">
<title>Node4&#45;&gt;Node5</title>
<g id="a_edge4_Node000004_Node000005"><a xlink:title=" ">
<path fill="none" stroke="#63b8ff" d="M206.69,-89C198.3,-89 189.74,-89 181.27,-89"/>
<polygon fill="#63b8ff" stroke="#63b8ff" points="206.82,-92.5 216.82,-89 206.82,-85.5 206.82,-92.5"/>
</a>
</g>
</g>
<!-- Node8 -->
<g id="Node000008" class="node">
<title>Node8</title>
<g id="a_Node000008"><a xlink:href="../../d1/d7c/classVideoProcessor.html#a9e1d1883418f9e77f50869728830a3d1" target="_top" xlink:title="Load filter preset.">
<polygon fill="white" stroke="#666666" points="545.5,-30 402.5,-30 402.5,0 545.5,0 545.5,-30"/>
<text text-anchor="start" x="410.5" y="-18" font-family="Helvetica,sans-Serif" font-size="10.00">VideoProcessor::loadFilter</text>
<text text-anchor="middle" x="474" y="-7" font-family="Helvetica,sans-Serif" font-size="10.00">Preset</text>
</a>
</g>
</g>
<!-- Node7&#45;&gt;Node8 -->
<g id="edge7_Node000007_Node000008" class="edge">
<title>Node7&#45;&gt;Node8</title>
<g id="a_edge7_Node000007_Node000008"><a xlink:title=" ">
<path fill="none" stroke="#63b8ff" d="M575.8,-15C565.69,-15 555.52,-15 545.74,-15"/>
<polygon fill="#63b8ff" stroke="#63b8ff" points="575.88,-18.5 585.88,-15 575.88,-11.5 575.88,-18.5"/>
</a>
</g>
</g>
</g>
</svg>

<g id="navigator" transform="translate(0 0)" fill="#404254">
  <rect fill="#f2f5e9" fill-opacity="0.5" stroke="#606060" stroke-width=".5" x="0" y="0" width="60" height="60"/>
  <use id="zoomplus" xlink:href="#zoomPlus" x="17" y="9" onmousedown="handleZoom(evt,'in')"/>
  <use id="zoomminus" xlink:href="#zoomMin" x="42" y="9" onmousedown="handleZoom(evt,'out')"/>
  <use id="reset" xlink:href="#resetDef" x="30" y="36" onmousedown="handleReset()"/>
   <use id="arrowup" xlink:href="#arrowUp" x="0" y="0" onmousedown="handlePan(0,-1)"/>
  <use id="arrowright" xlink:href="#arrowRight" x="0" y="0" onmousedown="handlePan(1,0)"/>
  <use id="arrowdown" xlink:href="#arrowDown" x="0" y="0" onmousedown="handlePan(0,1)"/>
  <use id="arrowleft" xlink:href="#arrowLeft" x="0" y="0" onmousedown="handlePan(-1,0)"/>
</g>
<svg viewBox="0 0 15 15" width="100%" height="30px" preserveAspectRatio="xMaxYMin meet">
 <g id="arrow_out" transform="scale(0.3 0.3)">
  <a xlink:href="classVideoProcessor_adada1922ec830252670342bd8da5e561_icgraph_org.svg" target="_base">
   <rect id="button" ry="5" rx="5" y="6" x="6" height="38" width="38"
        fill="#f2f5e9" fill-opacity="0.5" stroke="#606060" stroke-width="1.0"/>
   <path id="arrow"
     d="M 11.500037,31.436501 C 11.940474,20.09759 22.043105,11.32322 32.158766,21.979434 L 37.068811,17.246167 C 37.068811,17.246167 37.088388,32 37.088388,32 L 22.160133,31.978069 C 22.160133,31.978069 26.997745,27.140456 26.997745,27.140456 C 18.528582,18.264221 13.291696,25.230495 11.500037,31.436501 z"
     style="fill:#404040;"/>
  </a>
 </g>
</svg>

<style type='text/css'>
<![CDATA[
[data-mouse-over-selected='false'] { opacity: 0.7; }
[data-mouse-over-selected='true']  { opacity: 1.0; }
]]>
</style>
<script type="application/ecmascript"><![CDATA[
document.addEventListener('DOMContentLoaded', (event) => {
  highlightEdges();
  highlightAdjacentNodes();
});
]]></script>
</svg>
