<?xml version="1.0" encoding="UTF-8" standalone="no"?>
<!DOCTYPE svg PUBLIC "-//W3C//DTD SVG 1.1//EN"
 "http://www.w3.org/Graphics/SVG/1.1/DTD/svg11.dtd">
<!-- Generated by graphviz version 2.43.0 (0)
 -->
<!-- Title: VideoProcessor::loadFilterPreset Pages: 1 -->
<svg width="545pt" height="38pt"
 viewBox="0.00 0.00 545.00 38.00" xmlns="http://www.w3.org/2000/svg" xmlns:xlink="http://www.w3.org/1999/xlink">
<g id="graph0" class="graph" transform="scale(1 1) rotate(0) translate(4 34)">
<title>VideoProcessor::loadFilterPreset</title>
<!-- Node1 -->
<g id="Node000001" class="node">
<title>Node1</title>
<g id="a_Node000001"><a xlink:title="Load filter preset.">
<polygon fill="#999999" stroke="#666666" points="143,-30 0,-30 0,0 143,0 143,-30"/>
<text text-anchor="start" x="8" y="-18" font-family="Helvetica,sans-Serif" font-size="10.00">VideoProcessor::loadFilter</text>
<text text-anchor="middle" x="71.5" y="-7" font-family="Helvetica,sans-Serif" font-size="10.00">Preset</text>
</a>
</g>
</g>
<!-- Node2 -->
<g id="Node000002" class="node">
<title>Node2</title>
<g id="a_Node000002"><a xlink:href="../../d1/d7c/classVideoProcessor.html#aeec7542daa515fb0b311f8a2137a48f8" target="_top" xlink:title="Set processing parameters.">
<polygon fill="white" stroke="#666666" points="347,-24.5 179,-24.5 179,-5.5 347,-5.5 347,-24.5"/>
<text text-anchor="middle" x="263" y="-12.5" font-family="Helvetica,sans-Serif" font-size="10.00">VideoProcessor::setParameters</text>
</a>
</g>
</g>
<!-- Node1&#45;&gt;Node2 -->
<g id="edge1_Node000001_Node000002" class="edge">
<title>Node1&#45;&gt;Node2</title>
<g id="a_edge1_Node000001_Node000002"><a xlink:title=" ">
<path fill="none" stroke="#63b8ff" d="M143.06,-15C151.46,-15 160.13,-15 168.77,-15"/>
<polygon fill="#63b8ff" stroke="#63b8ff" points="168.9,-18.5 178.9,-15 168.9,-11.5 168.9,-18.5"/>
</a>
</g>
</g>
<!-- Node3 -->
<g id="Node000003" class="node">
<title>Node3</title>
<g id="a_Node000003"><a xlink:href="../../d1/d7c/classVideoProcessor.html#adada1922ec830252670342bd8da5e561" target="_top" xlink:title="Emitted when parameters change.">
<polygon fill="white" stroke="#666666" points="537,-30 383,-30 383,0 537,0 537,-30"/>
<text text-anchor="start" x="391" y="-18" font-family="Helvetica,sans-Serif" font-size="10.00">VideoProcessor::parameters</text>
<text text-anchor="middle" x="460" y="-7" font-family="Helvetica,sans-Serif" font-size="10.00">Changed</text>
</a>
</g>
</g>
<!-- Node2&#45;&gt;Node3 -->
<g id="edge2_Node000002_Node000003" class="edge">
<title>Node2&#45;&gt;Node3</title>
<g id="a_edge2_Node000002_Node000003"><a xlink:title=" ">
<path fill="none" stroke="#63b8ff" d="M347.26,-15C355.65,-15 364.19,-15 372.61,-15"/>
<polygon fill="#63b8ff" stroke="#63b8ff" points="372.81,-18.5 382.81,-15 372.81,-11.5 372.81,-18.5"/>
</a>
</g>
</g>
</g>
</svg>
