<?xml version="1.0" encoding="UTF-8" standalone="no"?>
<!DOCTYPE svg PUBLIC "-//W3C//DTD SVG 1.1//EN"
 "http://www.w3.org/Graphics/SVG/1.1/DTD/svg11.dtd">
<!-- Generated by graphviz version 2.43.0 (0)
 -->
<!-- Title: VideoProcessor::~VideoProcessor Pages: 1 -->
<svg width="963pt" height="70pt"
 viewBox="0.00 0.00 963.00 69.50" xmlns="http://www.w3.org/2000/svg" xmlns:xlink="http://www.w3.org/1999/xlink">
<g id="graph0" class="graph" transform="scale(1 1) rotate(0) translate(4 65.5)">
<title>VideoProcessor::~VideoProcessor</title>
<!-- Node1 -->
<g id="Node000001" class="node">
<title>Node1</title>
<g id="a_Node000001"><a xlink:title=" ">
<polygon fill="#999999" stroke="#666666" points="181,-42.5 0,-42.5 0,-23.5 181,-23.5 181,-42.5"/>
<text text-anchor="middle" x="90.5" y="-30.5" font-family="Helvetica,sans-Serif" font-size="10.00">VideoProcessor::~VideoProcessor</text>
</a>
</g>
</g>
<!-- Node2 -->
<g id="Node000002" class="node">
<title>Node2</title>
<g id="a_Node000002"><a xlink:href="../../d1/d7c/classVideoProcessor.html#a876c1126a4be9cd4b31bef41878993b4" target="_top" xlink:title="Shutdown the processor.">
<polygon fill="white" stroke="#666666" points="362,-42.5 217,-42.5 217,-23.5 362,-23.5 362,-42.5"/>
<text text-anchor="middle" x="289.5" y="-30.5" font-family="Helvetica,sans-Serif" font-size="10.00">VideoProcessor::shutdown</text>
</a>
</g>
</g>
<!-- Node1&#45;&gt;Node2 -->
<g id="edge1_Node000001_Node000002" class="edge">
<title>Node1&#45;&gt;Node2</title>
<g id="a_edge1_Node000001_Node000002"><a xlink:title=" ">
<path fill="none" stroke="#63b8ff" d="M181.07,-33C189.59,-33 198.21,-33 206.66,-33"/>
<polygon fill="#63b8ff" stroke="#63b8ff" points="206.86,-36.5 216.86,-33 206.86,-29.5 206.86,-36.5"/>
</a>
</g>
</g>
<!-- Node3 -->
<g id="Node000003" class="node">
<title>Node3</title>
<g id="a_Node000003"><a xlink:href="../../d1/d7c/classVideoProcessor.html#aad3bfea35c10bde0feadc82202942b4d" target="_top" xlink:title="Enable or disable the processor.">
<polygon fill="white" stroke="#666666" points="550,-42.5 398,-42.5 398,-23.5 550,-23.5 550,-42.5"/>
<text text-anchor="middle" x="474" y="-30.5" font-family="Helvetica,sans-Serif" font-size="10.00">VideoProcessor::setEnabled</text>
</a>
</g>
</g>
<!-- Node2&#45;&gt;Node3 -->
<g id="edge2_Node000002_Node000003" class="edge">
<title>Node2&#45;&gt;Node3</title>
<g id="a_edge2_Node000002_Node000003"><a xlink:title=" ">
<path fill="none" stroke="#63b8ff" d="M362.11,-33C370.57,-33 379.28,-33 387.91,-33"/>
<polygon fill="#63b8ff" stroke="#63b8ff" points="387.99,-36.5 397.99,-33 387.99,-29.5 387.99,-36.5"/>
</a>
</g>
</g>
<!-- Node4 -->
<g id="Node000004" class="node">
<title>Node4</title>
<g id="a_Node000004"><a xlink:href="../../d1/d7c/classVideoProcessor.html#a7cf62d6cf5f39f7c2229bc6c4bbc9000" target="_top" xlink:title="Emitted when processor is enabled/disabled.">
<polygon fill="white" stroke="#666666" points="765,-61.5 586,-61.5 586,-42.5 765,-42.5 765,-61.5"/>
<text text-anchor="middle" x="675.5" y="-49.5" font-family="Helvetica,sans-Serif" font-size="10.00">VideoProcessor::enabledChanged</text>
</a>
</g>
</g>
<!-- Node3&#45;&gt;Node4 -->
<g id="edge3_Node000003_Node000004" class="edge">
<title>Node3&#45;&gt;Node4</title>
<g id="a_edge3_Node000003_Node000004"><a xlink:title=" ">
<path fill="none" stroke="#63b8ff" d="M550.14,-40.16C558.47,-40.95 567.05,-41.77 575.63,-42.58"/>
<polygon fill="#63b8ff" stroke="#63b8ff" points="575.38,-46.08 585.67,-43.54 576.05,-39.11 575.38,-46.08"/>
</a>
</g>
</g>
<!-- Node5 -->
<g id="Node000005" class="node">
<title>Node5</title>
<g id="a_Node000005"><a xlink:href="../../d1/d7c/classVideoProcessor.html#ab965b584be52a08caa15bf84359e0ed8" target="_top" xlink:title="Reset all filters to default.">
<polygon fill="white" stroke="#666666" points="751.5,-24.5 599.5,-24.5 599.5,-5.5 751.5,-5.5 751.5,-24.5"/>
<text text-anchor="middle" x="675.5" y="-12.5" font-family="Helvetica,sans-Serif" font-size="10.00">VideoProcessor::resetFilters</text>
</a>
</g>
</g>
<!-- Node3&#45;&gt;Node5 -->
<g id="edge4_Node000003_Node000005" class="edge">
<title>Node3&#45;&gt;Node5</title>
<g id="a_edge4_Node000003_Node000005"><a xlink:title=" ">
<path fill="none" stroke="#63b8ff" d="M550.14,-26.22C562.86,-25.07 576.16,-23.87 589.12,-22.7"/>
<polygon fill="#63b8ff" stroke="#63b8ff" points="589.78,-26.16 599.43,-21.77 589.16,-19.19 589.78,-26.16"/>
</a>
</g>
</g>
<!-- Node6 -->
<g id="Node000006" class="node">
<title>Node6</title>
<g id="a_Node000006"><a xlink:href="../../d1/d7c/classVideoProcessor.html#adada1922ec830252670342bd8da5e561" target="_top" xlink:title="Emitted when parameters change.">
<polygon fill="white" stroke="#666666" points="955,-30 801,-30 801,0 955,0 955,-30"/>
<text text-anchor="start" x="809" y="-18" font-family="Helvetica,sans-Serif" font-size="10.00">VideoProcessor::parameters</text>
<text text-anchor="middle" x="878" y="-7" font-family="Helvetica,sans-Serif" font-size="10.00">Changed</text>
</a>
</g>
</g>
<!-- Node5&#45;&gt;Node6 -->
<g id="edge5_Node000005_Node000006" class="edge">
<title>Node5&#45;&gt;Node6</title>
<g id="a_edge5_Node000005_Node000006"><a xlink:title=" ">
<path fill="none" stroke="#63b8ff" d="M751.73,-15C764.36,-15 777.55,-15 790.43,-15"/>
<polygon fill="#63b8ff" stroke="#63b8ff" points="790.68,-18.5 800.68,-15 790.68,-11.5 790.68,-18.5"/>
</a>
</g>
</g>
</g>
</svg>
