<?xml version="1.0" encoding="UTF-8" standalone="no"?>
<!DOCTYPE svg PUBLIC "-//W3C//DTD SVG 1.1//EN"
 "http://www.w3.org/Graphics/SVG/1.1/DTD/svg11.dtd">
<!-- Generated by graphviz version 2.43.0 (0)
 -->
<!-- Title: VideoProcessor::setFilterEnabled Pages: 1 -->
<svg width="348pt" height="76pt"
 viewBox="0.00 0.00 348.00 75.50" xmlns="http://www.w3.org/2000/svg" xmlns:xlink="http://www.w3.org/1999/xlink">
<g id="graph0" class="graph" transform="scale(1 1) rotate(0) translate(4 71.5)">
<title>VideoProcessor::setFilterEnabled</title>
<!-- Node1 -->
<g id="Node000001" class="node">
<title>Node1</title>
<g id="a_Node000001"><a xlink:title="Enable or disable a filter.">
<polygon fill="#999999" stroke="#666666" points="137,-45.5 0,-45.5 0,-15.5 137,-15.5 137,-45.5"/>
<text text-anchor="start" x="8" y="-33.5" font-family="Helvetica,sans-Serif" font-size="10.00">VideoProcessor::setFilter</text>
<text text-anchor="middle" x="68.5" y="-22.5" font-family="Helvetica,sans-Serif" font-size="10.00">Enabled</text>
</a>
</g>
</g>
<!-- Node2 -->
<g id="Node000002" class="node">
<title>Node2</title>
<g id="a_Node000002"><a xlink:href="../../d1/d7c/classVideoProcessor.html#a546f1f3113fe52671cdec80ef1de40b8" target="_top" xlink:title="Emitted when a filter is enabled/disabled.">
<polygon fill="white" stroke="#666666" points="336,-67.5 177,-67.5 177,-37.5 336,-37.5 336,-67.5"/>
<text text-anchor="start" x="185" y="-55.5" font-family="Helvetica,sans-Serif" font-size="10.00">VideoProcessor::filterEnabled</text>
<text text-anchor="middle" x="256.5" y="-44.5" font-family="Helvetica,sans-Serif" font-size="10.00">Changed</text>
</a>
</g>
</g>
<!-- Node1&#45;&gt;Node2 -->
<g id="edge1_Node000001_Node000002" class="edge">
<title>Node1&#45;&gt;Node2</title>
<g id="a_edge1_Node000001_Node000002"><a xlink:title=" ">
<path fill="none" stroke="#63b8ff" d="M137.18,-38.5C146.84,-39.65 156.89,-40.84 166.88,-42.02"/>
<polygon fill="#63b8ff" stroke="#63b8ff" points="166.48,-45.5 176.83,-43.19 167.31,-38.54 166.48,-45.5"/>
</a>
</g>
</g>
<!-- Node3 -->
<g id="Node000003" class="node">
<title>Node3</title>
<g id="a_Node000003"><a xlink:href="../../d1/d7c/classVideoProcessor.html#aab64357e49e2f9776e7e2ec951f2ab32" target="_top" xlink:title="Get filter name.">
<polygon fill="white" stroke="#666666" points="340,-19 173,-19 173,0 340,0 340,-19"/>
<text text-anchor="middle" x="256.5" y="-7" font-family="Helvetica,sans-Serif" font-size="10.00">VideoProcessor::getFilterName</text>
</a>
</g>
</g>
<!-- Node1&#45;&gt;Node3 -->
<g id="edge2_Node000001_Node000003" class="edge">
<title>Node1&#45;&gt;Node3</title>
<g id="a_edge2_Node000001_Node000003"><a xlink:title=" ">
<path fill="none" stroke="#63b8ff" d="M137.18,-22.86C145.54,-21.92 154.2,-20.94 162.85,-19.96"/>
<polygon fill="#63b8ff" stroke="#63b8ff" points="163.44,-23.42 172.99,-18.82 162.66,-16.46 163.44,-23.42"/>
</a>
</g>
</g>
</g>
</svg>
