<?xml version="1.0" encoding="UTF-8" standalone="no"?>
<!DOCTYPE svg PUBLIC "-//W3C//DTD SVG 1.1//EN"
 "http://www.w3.org/Graphics/SVG/1.1/DTD/svg11.dtd">
<!-- Generated by graphviz version 2.43.0 (0)
 -->
<!-- Title: BackupManager::createBackup Pages: 1 -->
<!--zoomable 171 -->

<svg id="main" version="1.1" xmlns="http://www.w3.org/2000/svg" xmlns:xlink="http://www.w3.org/1999/xlink" xml:space="preserve" onload="init(evt)">
<style type="text/css"><![CDATA[
.node, .edge {opacity: 0.7;}
.node.selected, .edge.selected {opacity: 1;}
.edge:hover path { stroke: red; }
.edge:hover polygon { stroke: red; fill: red; }
]]></style>

<defs>
  <circle id="rim" cx="0" cy="0" r="7"/>
  <circle id="rim2" cx="0" cy="0" r="3.5"/>
  <g id="zoomPlus">
    <use xlink:href="#rim" fill="#404040"><set attributeName="fill" to="#808080" begin="zoomplus.mouseover" end="zoomplus.mouseout"/></use>
    <path d="M-4,0h8M0,-4v8" fill="none" stroke="white" stroke-width="1.5" pointer-events="none"/>
  </g>
  <g id="zoomMin">
    <use xlink:href="#rim" fill="#404040"><set attributeName="fill" to="#808080" begin="zoomminus.mouseover" end="zoomminus.mouseout"/></use>
    <path d="M-4,0h8" fill="none" stroke="white" stroke-width="1.5" pointer-events="none"/>
  </g>
  <g id="arrowUp" transform="translate(30 24)">
    <use xlink:href="#rim"/>
    <path pointer-events="none" fill="none" stroke="white" stroke-width="1.5" d="M0,-3.0v7 M-2.5,-0.5L0,-3.0L2.5,-0.5"/>
  </g>
  <g id="arrowRight" transform="rotate(90) translate(36 -43)">
    <use xlink:href="#rim"/>
    <path pointer-events="none" fill="none" stroke="white" stroke-width="1.5" d="M0,-3.0v7 M-2.5,-0.5L0,-3.0L2.5,-0.5"/>
  </g>
  <g id="arrowDown" transform="rotate(180) translate(-30 -48)">
    <use xlink:href="#rim"/>
    <path pointer-events="none" fill="none" stroke="white" stroke-width="1.5" d="M0,-3.0v7 M-2.5,-0.5L0,-3.0L2.5,-0.5"/>
  </g>
  <g id="arrowLeft" transform="rotate(270) translate(-36 17)">
    <use xlink:href="#rim"/>
    <path pointer-events="none" fill="none" stroke="white" stroke-width="1.5" d="M0,-3.0v7 M-2.5,-0.5L0,-3.0L2.5,-0.5"/>
  </g>
  <g id="resetDef">
    <use xlink:href="#rim2" fill="#404040"><set attributeName="fill" to="#808080" begin="reset.mouseover" end="reset.mouseout"/></use>
  </g>
</defs>
<script type="application/ecmascript">
var viewWidth = 811;
var viewHeight = 171;
var sectionId = 'dynsection-8';
</script>
<script type="application/ecmascript" xlink:href="../../svg.min.js"/>
<svg id="graph" class="graph">
<g id="viewport">
<title>BackupManager::createBackup</title>
<!-- Node1 -->
<g id="Node000001" class="node">
<title>Node1</title>
<g id="a_Node000001"><a xlink:title=" ">
<polygon fill="#999999" stroke="#666666" points="167,-106.5 0,-106.5 0,-87.5 167,-87.5 167,-106.5"/>
<text text-anchor="middle" x="83.5" y="-94.5" font-family="Helvetica,sans-Serif" font-size="10.00">BackupManager::createBackup</text>
</a>
</g>
</g>
<!-- Node2 -->
<g id="Node000002" class="node">
<title>Node2</title>
<g id="a_Node000002"><a xlink:href="../../d5/d62/classBackupManager.html#a7b73089093b011d6d5a532de318e0b8b" target="_top" xlink:title=" ">
<polygon fill="white" stroke="#666666" points="391,-162.5 203,-162.5 203,-143.5 391,-143.5 391,-162.5"/>
<text text-anchor="middle" x="297" y="-150.5" font-family="Helvetica,sans-Serif" font-size="10.00">BackupManager::backupCompleted</text>
</a>
</g>
</g>
<!-- Node1&#45;&gt;Node2 -->
<g id="edge1_Node000001_Node000002" class="edge">
<title>Node1&#45;&gt;Node2</title>
<g id="a_edge1_Node000001_Node000002"><a xlink:title=" ">
<path fill="none" stroke="#63b8ff" d="M111.06,-106.52C134.91,-114.83 170.98,-126.8 203,-135 211.89,-137.28 221.33,-139.42 230.65,-141.37"/>
<polygon fill="#63b8ff" stroke="#63b8ff" points="230.18,-144.85 240.68,-143.42 231.58,-137.99 230.18,-144.85"/>
</a>
</g>
</g>
<!-- Node3 -->
<g id="Node000003" class="node">
<title>Node3</title>
<g id="a_Node000003"><a xlink:href="../../d5/d62/classBackupManager.html#a9b98f0fb4a8262897981cdade63e1ab2" target="_top" xlink:title=" ">
<polygon fill="white" stroke="#666666" points="379,-125.5 215,-125.5 215,-106.5 379,-106.5 379,-125.5"/>
<text text-anchor="middle" x="297" y="-113.5" font-family="Helvetica,sans-Serif" font-size="10.00">BackupManager::backupFailed</text>
</a>
</g>
</g>
<!-- Node1&#45;&gt;Node3 -->
<g id="edge2_Node000001_Node000003" class="edge">
<title>Node1&#45;&gt;Node3</title>
<g id="a_edge2_Node000001_Node000003"><a xlink:title=" ">
<path fill="none" stroke="#63b8ff" d="M167.18,-104.43C179.4,-105.53 192.05,-106.66 204.44,-107.77"/>
<polygon fill="#63b8ff" stroke="#63b8ff" points="204.49,-111.29 214.77,-108.7 205.12,-104.32 204.49,-111.29"/>
</a>
</g>
</g>
<!-- Node4 -->
<g id="Node000004" class="node">
<title>Node4</title>
<g id="a_Node000004"><a xlink:href="../../d5/d62/classBackupManager.html#a82070abd85b805e8c9fa1100e4a18e3d" target="_top" xlink:title=" ">
<polygon fill="white" stroke="#666666" points="382,-88.5 212,-88.5 212,-69.5 382,-69.5 382,-88.5"/>
<text text-anchor="middle" x="297" y="-76.5" font-family="Helvetica,sans-Serif" font-size="10.00">BackupManager::backupStarted</text>
</a>
</g>
</g>
<!-- Node1&#45;&gt;Node4 -->
<g id="edge3_Node000001_Node000004" class="edge">
<title>Node1&#45;&gt;Node4</title>
<g id="a_edge3_Node000001_Node000004"><a xlink:title=" ">
<path fill="none" stroke="#63b8ff" d="M167.18,-89.96C178.56,-88.99 190.32,-87.99 201.88,-87.01"/>
<polygon fill="#63b8ff" stroke="#63b8ff" points="202.32,-90.49 211.99,-86.15 201.72,-83.51 202.32,-90.49"/>
</a>
</g>
</g>
<!-- Node5 -->
<g id="Node000005" class="node">
<title>Node5</title>
<g id="a_Node000005"><a xlink:href="../../d5/d62/classBackupManager.html#af61ef85d1ec367222b8015aa153c3a3b" target="_top" xlink:title=" ">
<polygon fill="white" stroke="#666666" points="374.5,-51 219.5,-51 219.5,-21 374.5,-21 374.5,-51"/>
<text text-anchor="start" x="227.5" y="-39" font-family="Helvetica,sans-Serif" font-size="10.00">BackupManager::cleanupOld</text>
<text text-anchor="middle" x="297" y="-28" font-family="Helvetica,sans-Serif" font-size="10.00">Backups</text>
</a>
</g>
</g>
<!-- Node1&#45;&gt;Node5 -->
<g id="edge4_Node000001_Node000005" class="edge">
<title>Node1&#45;&gt;Node5</title>
<g id="a_edge4_Node000001_Node000005"><a xlink:title=" ">
<path fill="none" stroke="#63b8ff" d="M115.11,-87.4C138.99,-79.99 173.03,-69.58 203,-61 211.41,-58.59 220.26,-56.13 229.03,-53.72"/>
<polygon fill="#63b8ff" stroke="#63b8ff" points="230.14,-57.05 238.87,-51.05 228.3,-50.3 230.14,-57.05"/>
</a>
</g>
</g>
<!-- Node6 -->
<g id="Node000006" class="node">
<title>Node6</title>
<g id="a_Node000006"><a xlink:href="../../d5/d62/classBackupManager.html#aa342a42db15c9490076d60569b922247" target="_top" xlink:title=" ">
<polygon fill="white" stroke="#666666" points="594,-67.5 427,-67.5 427,-48.5 594,-48.5 594,-67.5"/>
<text text-anchor="middle" x="510.5" y="-55.5" font-family="Helvetica,sans-Serif" font-size="10.00">BackupManager::deleteBackup</text>
</a>
</g>
</g>
<!-- Node5&#45;&gt;Node6 -->
<g id="edge5_Node000005_Node000006" class="edge">
<title>Node5&#45;&gt;Node6</title>
<g id="a_edge5_Node000005_Node000006"><a xlink:title=" ">
<path fill="none" stroke="#63b8ff" d="M374.66,-43.97C388.26,-45.39 402.56,-46.88 416.55,-48.33"/>
<polygon fill="#63b8ff" stroke="#63b8ff" points="416.37,-51.83 426.68,-49.38 417.09,-44.87 416.37,-51.83"/>
</a>
</g>
</g>
<!-- Node8 -->
<g id="Node000008" class="node">
<title>Node8</title>
<g id="a_Node000008"><a xlink:href="../../d5/d62/classBackupManager.html#a65ffe2628e4c0947eb7e814d7ac8a06f" target="_top" xlink:title=" ">
<polygon fill="white" stroke="#666666" points="591,-30 430,-30 430,0 591,0 591,-30"/>
<text text-anchor="start" x="438" y="-18" font-family="Helvetica,sans-Serif" font-size="10.00">BackupManager::getAvailable</text>
<text text-anchor="middle" x="510.5" y="-7" font-family="Helvetica,sans-Serif" font-size="10.00">Backups</text>
</a>
</g>
</g>
<!-- Node5&#45;&gt;Node8 -->
<g id="edge7_Node000005_Node000008" class="edge">
<title>Node5&#45;&gt;Node8</title>
<g id="a_edge7_Node000005_Node000008"><a xlink:title=" ">
<path fill="none" stroke="#63b8ff" d="M374.66,-28.39C389.26,-26.94 404.66,-25.41 419.63,-23.92"/>
<polygon fill="#63b8ff" stroke="#63b8ff" points="420.3,-27.37 429.9,-22.9 419.61,-20.41 420.3,-27.37"/>
</a>
</g>
</g>
<!-- Node7 -->
<g id="Node000007" class="node">
<title>Node7</title>
<g id="a_Node000007"><a xlink:href="../../d5/d62/classBackupManager.html#a987aa2e77d95fa51fbe29c1933119680" target="_top" xlink:title=" ">
<polygon fill="white" stroke="#666666" points="803,-67.5 630,-67.5 630,-48.5 803,-48.5 803,-67.5"/>
<text text-anchor="middle" x="716.5" y="-55.5" font-family="Helvetica,sans-Serif" font-size="10.00">BackupManager::backupDeleted</text>
</a>
</g>
</g>
<!-- Node6&#45;&gt;Node7 -->
<g id="edge6_Node000006_Node000007" class="edge">
<title>Node6&#45;&gt;Node7</title>
<g id="a_edge6_Node000006_Node000007"><a xlink:title=" ">
<path fill="none" stroke="#63b8ff" d="M594.18,-58C602.5,-58 611,-58 619.45,-58"/>
<polygon fill="#63b8ff" stroke="#63b8ff" points="619.71,-61.5 629.71,-58 619.71,-54.5 619.71,-61.5"/>
</a>
</g>
</g>
</g>
</svg>

<g id="navigator" transform="translate(0 0)" fill="#404254">
  <rect fill="#f2f5e9" fill-opacity="0.5" stroke="#606060" stroke-width=".5" x="0" y="0" width="60" height="60"/>
  <use id="zoomplus" xlink:href="#zoomPlus" x="17" y="9" onmousedown="handleZoom(evt,'in')"/>
  <use id="zoomminus" xlink:href="#zoomMin" x="42" y="9" onmousedown="handleZoom(evt,'out')"/>
  <use id="reset" xlink:href="#resetDef" x="30" y="36" onmousedown="handleReset()"/>
   <use id="arrowup" xlink:href="#arrowUp" x="0" y="0" onmousedown="handlePan(0,-1)"/>
  <use id="arrowright" xlink:href="#arrowRight" x="0" y="0" onmousedown="handlePan(1,0)"/>
  <use id="arrowdown" xlink:href="#arrowDown" x="0" y="0" onmousedown="handlePan(0,1)"/>
  <use id="arrowleft" xlink:href="#arrowLeft" x="0" y="0" onmousedown="handlePan(-1,0)"/>
</g>
<svg viewBox="0 0 15 15" width="100%" height="30px" preserveAspectRatio="xMaxYMin meet">
 <g id="arrow_out" transform="scale(0.3 0.3)">
  <a xlink:href="classBackupManager_a397b21de2f56dc3bc47f1068ece59380_cgraph_org.svg" target="_base">
   <rect id="button" ry="5" rx="5" y="6" x="6" height="38" width="38"
        fill="#f2f5e9" fill-opacity="0.5" stroke="#606060" stroke-width="1.0"/>
   <path id="arrow"
     d="M 11.500037,31.436501 C 11.940474,20.09759 22.043105,11.32322 32.158766,21.979434 L 37.068811,17.246167 C 37.068811,17.246167 37.088388,32 37.088388,32 L 22.160133,31.978069 C 22.160133,31.978069 26.997745,27.140456 26.997745,27.140456 C 18.528582,18.264221 13.291696,25.230495 11.500037,31.436501 z"
     style="fill:#404040;"/>
  </a>
 </g>
</svg>

<style type='text/css'>
<![CDATA[
[data-mouse-over-selected='false'] { opacity: 0.7; }
[data-mouse-over-selected='true']  { opacity: 1.0; }
]]>
</style>
<script type="application/ecmascript"><![CDATA[
document.addEventListener('DOMContentLoaded', (event) => {
  highlightEdges();
  highlightAdjacentNodes();
});
]]></script>
</svg>
