<?xml version="1.0" encoding="UTF-8" standalone="no"?>
<!DOCTYPE svg PUBLIC "-//W3C//DTD SVG 1.1//EN"
 "http://www.w3.org/Graphics/SVG/1.1/DTD/svg11.dtd">
<!-- Generated by graphviz version 2.43.0 (0)
 -->
<!-- Title: BackupManager::getAvailableBackups Pages: 1 -->
<svg width="608pt" height="128pt"
 viewBox="0.00 0.00 608.00 128.00" xmlns="http://www.w3.org/2000/svg" xmlns:xlink="http://www.w3.org/1999/xlink">
<g id="graph0" class="graph" transform="scale(1 1) rotate(0) translate(4 124)">
<title>BackupManager::getAvailableBackups</title>
<!-- Node1 -->
<g id="Node000001" class="node">
<title>Node1</title>
<g id="a_Node000001"><a xlink:title=" ">
<polygon fill="#999999" stroke="#666666" points="600,-61.5 439,-61.5 439,-31.5 600,-31.5 600,-61.5"/>
<text text-anchor="start" x="447" y="-49.5" font-family="Helvetica,sans-Serif" font-size="10.00">BackupManager::getAvailable</text>
<text text-anchor="middle" x="519.5" y="-38.5" font-family="Helvetica,sans-Serif" font-size="10.00">Backups</text>
</a>
</g>
</g>
<!-- Node2 -->
<g id="Node000002" class="node">
<title>Node2</title>
<g id="a_Node000002"><a xlink:href="../../d5/d62/classBackupManager.html#af61ef85d1ec367222b8015aa153c3a3b" target="_top" xlink:title=" ">
<polygon fill="white" stroke="#666666" points="383,-104.5 228,-104.5 228,-74.5 383,-74.5 383,-104.5"/>
<text text-anchor="start" x="236" y="-92.5" font-family="Helvetica,sans-Serif" font-size="10.00">BackupManager::cleanupOld</text>
<text text-anchor="middle" x="305.5" y="-81.5" font-family="Helvetica,sans-Serif" font-size="10.00">Backups</text>
</a>
</g>
</g>
<!-- Node1&#45;&gt;Node2 -->
<g id="edge1_Node000001_Node000002" class="edge">
<title>Node1&#45;&gt;Node2</title>
<g id="a_edge1_Node000001_Node000002"><a xlink:title=" ">
<path fill="none" stroke="#63b8ff" d="M434.06,-63.63C416.38,-67.21 397.87,-70.97 380.61,-74.47"/>
<polygon fill="#63b8ff" stroke="#63b8ff" points="435.25,-66.96 444.35,-61.54 433.86,-60.1 435.25,-66.96"/>
</a>
</g>
</g>
<!-- Node5 -->
<g id="Node000005" class="node">
<title>Node5</title>
<g id="a_Node000005"><a xlink:href="../../d5/d62/classBackupManager.html#addb86cb9b57afe4ea911f4256fa7496d" target="_top" xlink:title=" ">
<polygon fill="white" stroke="#666666" points="403,-56 208,-56 208,-37 403,-37 403,-56"/>
<text text-anchor="middle" x="305.5" y="-44" font-family="Helvetica,sans-Serif" font-size="10.00">BackupManager::getTotalBackupSize</text>
</a>
</g>
</g>
<!-- Node1&#45;&gt;Node5 -->
<g id="edge4_Node000001_Node000005" class="edge">
<title>Node1&#45;&gt;Node5</title>
<g id="a_edge4_Node000001_Node000005"><a xlink:title=" ">
<path fill="none" stroke="#63b8ff" d="M428.77,-46.5C420.35,-46.5 411.79,-46.5 403.31,-46.5"/>
<polygon fill="#63b8ff" stroke="#63b8ff" points="428.96,-50 438.96,-46.5 428.96,-43 428.96,-50"/>
</a>
</g>
</g>
<!-- Node6 -->
<g id="Node000006" class="node">
<title>Node6</title>
<g id="a_Node000006"><a xlink:href="../../d5/d62/classBackupManager.html#aed2049f065440fdc106e3f37d0e6baf8" target="_top" xlink:title=" ">
<polygon fill="white" stroke="#666666" points="390.5,-19 220.5,-19 220.5,0 390.5,0 390.5,-19"/>
<text text-anchor="middle" x="305.5" y="-7" font-family="Helvetica,sans-Serif" font-size="10.00">BackupManager::restoreBackup</text>
</a>
</g>
</g>
<!-- Node1&#45;&gt;Node6 -->
<g id="edge5_Node000001_Node000006" class="edge">
<title>Node1&#45;&gt;Node6</title>
<g id="a_edge5_Node000001_Node000006"><a xlink:title=" ">
<path fill="none" stroke="#63b8ff" d="M428.82,-30.85C405.79,-26.83 381.71,-22.63 361.06,-19.02"/>
<polygon fill="#63b8ff" stroke="#63b8ff" points="428.5,-34.35 438.96,-32.62 429.71,-27.45 428.5,-34.35"/>
</a>
</g>
</g>
<!-- Node3 -->
<g id="Node000003" class="node">
<title>Node3</title>
<g id="a_Node000003"><a xlink:href="../../d5/d62/classBackupManager.html#a397b21de2f56dc3bc47f1068ece59380" target="_top" xlink:title=" ">
<polygon fill="white" stroke="#666666" points="169.5,-120 2.5,-120 2.5,-101 169.5,-101 169.5,-120"/>
<text text-anchor="middle" x="86" y="-108" font-family="Helvetica,sans-Serif" font-size="10.00">BackupManager::createBackup</text>
</a>
</g>
</g>
<!-- Node2&#45;&gt;Node3 -->
<g id="edge2_Node000002_Node000003" class="edge">
<title>Node2&#45;&gt;Node3</title>
<g id="a_edge2_Node000002_Node000003"><a xlink:title=" ">
<path fill="none" stroke="#63b8ff" d="M217.54,-97.9C201.74,-99.42 185.31,-101.01 169.64,-102.52"/>
<polygon fill="#63b8ff" stroke="#63b8ff" points="218.2,-101.35 227.82,-96.9 217.53,-94.38 218.2,-101.35"/>
</a>
</g>
</g>
<!-- Node4 -->
<g id="Node000004" class="node">
<title>Node4</title>
<g id="a_Node000004"><a xlink:href="../../d5/d62/classBackupManager.html#af44caf77020d5c06be416841971b6219" target="_top" xlink:title=" ">
<polygon fill="white" stroke="#666666" points="172,-82.5 0,-82.5 0,-52.5 172,-52.5 172,-82.5"/>
<text text-anchor="start" x="8" y="-70.5" font-family="Helvetica,sans-Serif" font-size="10.00">BackupManager::setMaxBackup</text>
<text text-anchor="middle" x="86" y="-59.5" font-family="Helvetica,sans-Serif" font-size="10.00">Count</text>
</a>
</g>
</g>
<!-- Node2&#45;&gt;Node4 -->
<g id="edge3_Node000002_Node000004" class="edge">
<title>Node2&#45;&gt;Node4</title>
<g id="a_edge3_Node000002_Node000004"><a xlink:title=" ">
<path fill="none" stroke="#63b8ff" d="M217.58,-80.71C202.65,-79.2 187.14,-77.63 172.25,-76.12"/>
<polygon fill="#63b8ff" stroke="#63b8ff" points="217.52,-84.22 227.82,-81.74 218.22,-77.25 217.52,-84.22"/>
</a>
</g>
</g>
</g>
</svg>
