<?xml version="1.0" encoding="UTF-8" standalone="no"?>
<!DOCTYPE svg PUBLIC "-//W3C//DTD SVG 1.1//EN"
 "http://www.w3.org/Graphics/SVG/1.1/DTD/svg11.dtd">
<!-- Generated by graphviz version 2.43.0 (0)
 -->
<!-- Title: BackupManager::setMaxBackupCount Pages: 1 -->
<svg width="783pt" height="76pt"
 viewBox="0.00 0.00 783.00 75.50" xmlns="http://www.w3.org/2000/svg" xmlns:xlink="http://www.w3.org/1999/xlink">
<g id="graph0" class="graph" transform="scale(1 1) rotate(0) translate(4 71.5)">
<title>BackupManager::setMaxBackupCount</title>
<!-- Node1 -->
<g id="Node000001" class="node">
<title>Node1</title>
<g id="a_Node000001"><a xlink:title=" ">
<polygon fill="#999999" stroke="#666666" points="172,-51 0,-51 0,-21 172,-21 172,-51"/>
<text text-anchor="start" x="8" y="-39" font-family="Helvetica,sans-Serif" font-size="10.00">BackupManager::setMaxBackup</text>
<text text-anchor="middle" x="86" y="-28" font-family="Helvetica,sans-Serif" font-size="10.00">Count</text>
</a>
</g>
</g>
<!-- Node2 -->
<g id="Node000002" class="node">
<title>Node2</title>
<g id="a_Node000002"><a xlink:href="../../d5/d62/classBackupManager.html#af61ef85d1ec367222b8015aa153c3a3b" target="_top" xlink:title=" ">
<polygon fill="white" stroke="#666666" points="363,-51 208,-51 208,-21 363,-21 363,-51"/>
<text text-anchor="start" x="216" y="-39" font-family="Helvetica,sans-Serif" font-size="10.00">BackupManager::cleanupOld</text>
<text text-anchor="middle" x="285.5" y="-28" font-family="Helvetica,sans-Serif" font-size="10.00">Backups</text>
</a>
</g>
</g>
<!-- Node1&#45;&gt;Node2 -->
<g id="edge1_Node000001_Node000002" class="edge">
<title>Node1&#45;&gt;Node2</title>
<g id="a_edge1_Node000001_Node000002"><a xlink:title=" ">
<path fill="none" stroke="#63b8ff" d="M172.19,-36C180.65,-36 189.25,-36 197.73,-36"/>
<polygon fill="#63b8ff" stroke="#63b8ff" points="197.99,-39.5 207.99,-36 197.99,-32.5 197.99,-39.5"/>
</a>
</g>
</g>
<!-- Node3 -->
<g id="Node000003" class="node">
<title>Node3</title>
<g id="a_Node000003"><a xlink:href="../../d5/d62/classBackupManager.html#aa342a42db15c9490076d60569b922247" target="_top" xlink:title=" ">
<polygon fill="white" stroke="#666666" points="566,-67.5 399,-67.5 399,-48.5 566,-48.5 566,-67.5"/>
<text text-anchor="middle" x="482.5" y="-55.5" font-family="Helvetica,sans-Serif" font-size="10.00">BackupManager::deleteBackup</text>
</a>
</g>
</g>
<!-- Node2&#45;&gt;Node3 -->
<g id="edge2_Node000002_Node000003" class="edge">
<title>Node2&#45;&gt;Node3</title>
<g id="a_edge2_Node000002_Node000003"><a xlink:title=" ">
<path fill="none" stroke="#63b8ff" d="M363.01,-44.63C371.45,-45.58 380.1,-46.56 388.71,-47.53"/>
<polygon fill="#63b8ff" stroke="#63b8ff" points="388.44,-51.02 398.77,-48.67 389.23,-44.07 388.44,-51.02"/>
</a>
</g>
</g>
<!-- Node5 -->
<g id="Node000005" class="node">
<title>Node5</title>
<g id="a_Node000005"><a xlink:href="../../d5/d62/classBackupManager.html#a65ffe2628e4c0947eb7e814d7ac8a06f" target="_top" xlink:title=" ">
<polygon fill="white" stroke="#666666" points="563,-30 402,-30 402,0 563,0 563,-30"/>
<text text-anchor="start" x="410" y="-18" font-family="Helvetica,sans-Serif" font-size="10.00">BackupManager::getAvailable</text>
<text text-anchor="middle" x="482.5" y="-7" font-family="Helvetica,sans-Serif" font-size="10.00">Backups</text>
</a>
</g>
</g>
<!-- Node2&#45;&gt;Node5 -->
<g id="edge4_Node000002_Node000005" class="edge">
<title>Node2&#45;&gt;Node5</title>
<g id="a_edge4_Node000002_Node000005"><a xlink:title=" ">
<path fill="none" stroke="#63b8ff" d="M363.01,-27.76C372.43,-26.75 382.13,-25.7 391.73,-24.67"/>
<polygon fill="#63b8ff" stroke="#63b8ff" points="392.11,-28.15 401.68,-23.6 391.36,-21.19 392.11,-28.15"/>
</a>
</g>
</g>
<!-- Node4 -->
<g id="Node000004" class="node">
<title>Node4</title>
<g id="a_Node000004"><a xlink:href="../../d5/d62/classBackupManager.html#a987aa2e77d95fa51fbe29c1933119680" target="_top" xlink:title=" ">
<polygon fill="white" stroke="#666666" points="775,-67.5 602,-67.5 602,-48.5 775,-48.5 775,-67.5"/>
<text text-anchor="middle" x="688.5" y="-55.5" font-family="Helvetica,sans-Serif" font-size="10.00">BackupManager::backupDeleted</text>
</a>
</g>
</g>
<!-- Node3&#45;&gt;Node4 -->
<g id="edge3_Node000003_Node000004" class="edge">
<title>Node3&#45;&gt;Node4</title>
<g id="a_edge3_Node000003_Node000004"><a xlink:title=" ">
<path fill="none" stroke="#63b8ff" d="M566.18,-58C574.5,-58 583,-58 591.45,-58"/>
<polygon fill="#63b8ff" stroke="#63b8ff" points="591.71,-61.5 601.71,-58 591.71,-54.5 591.71,-61.5"/>
</a>
</g>
</g>
</g>
</svg>
