<?xml version="1.0" encoding="UTF-8" standalone="no"?>
<!DOCTYPE svg PUBLIC "-//W3C//DTD SVG 1.1//EN"
 "http://www.w3.org/Graphics/SVG/1.1/DTD/svg11.dtd">
<!-- Generated by graphviz version 2.43.0 (0)
 -->
<!-- Title: BackupManager::cleanupOldBackups Pages: 1 -->
<svg width="371pt" height="76pt"
 viewBox="0.00 0.00 371.00 75.50" xmlns="http://www.w3.org/2000/svg" xmlns:xlink="http://www.w3.org/1999/xlink">
<g id="graph0" class="graph" transform="scale(1 1) rotate(0) translate(4 71.5)">
<title>BackupManager::cleanupOldBackups</title>
<!-- Node1 -->
<g id="Node000001" class="node">
<title>Node1</title>
<g id="a_Node000001"><a xlink:title=" ">
<polygon fill="#999999" stroke="#666666" points="363,-51 208,-51 208,-21 363,-21 363,-51"/>
<text text-anchor="start" x="216" y="-39" font-family="Helvetica,sans-Serif" font-size="10.00">BackupManager::cleanupOld</text>
<text text-anchor="middle" x="285.5" y="-28" font-family="Helvetica,sans-Serif" font-size="10.00">Backups</text>
</a>
</g>
</g>
<!-- Node2 -->
<g id="Node000002" class="node">
<title>Node2</title>
<g id="a_Node000002"><a xlink:href="../../d5/d62/classBackupManager.html#a397b21de2f56dc3bc47f1068ece59380" target="_top" xlink:title=" ">
<polygon fill="white" stroke="#666666" points="169.5,-67.5 2.5,-67.5 2.5,-48.5 169.5,-48.5 169.5,-67.5"/>
<text text-anchor="middle" x="86" y="-55.5" font-family="Helvetica,sans-Serif" font-size="10.00">BackupManager::createBackup</text>
</a>
</g>
</g>
<!-- Node1&#45;&gt;Node2 -->
<g id="edge1_Node000001_Node000002" class="edge">
<title>Node1&#45;&gt;Node2</title>
<g id="a_edge1_Node000001_Node000002"><a xlink:title=" ">
<path fill="none" stroke="#63b8ff" d="M197.83,-45.65C188.53,-46.69 179.07,-47.74 169.82,-48.78"/>
<polygon fill="#63b8ff" stroke="#63b8ff" points="198.31,-49.12 207.86,-44.54 197.53,-42.17 198.31,-49.12"/>
</a>
</g>
</g>
<!-- Node3 -->
<g id="Node000003" class="node">
<title>Node3</title>
<g id="a_Node000003"><a xlink:href="../../d5/d62/classBackupManager.html#af44caf77020d5c06be416841971b6219" target="_top" xlink:title=" ">
<polygon fill="white" stroke="#666666" points="172,-30 0,-30 0,0 172,0 172,-30"/>
<text text-anchor="start" x="8" y="-18" font-family="Helvetica,sans-Serif" font-size="10.00">BackupManager::setMaxBackup</text>
<text text-anchor="middle" x="86" y="-7" font-family="Helvetica,sans-Serif" font-size="10.00">Count</text>
</a>
</g>
</g>
<!-- Node1&#45;&gt;Node3 -->
<g id="edge2_Node000001_Node000003" class="edge">
<title>Node1&#45;&gt;Node3</title>
<g id="a_edge2_Node000001_Node000003"><a xlink:title=" ">
<path fill="none" stroke="#63b8ff" d="M197.89,-26.79C189.34,-25.88 180.66,-24.96 172.12,-24.05"/>
<polygon fill="#63b8ff" stroke="#63b8ff" points="197.54,-30.27 207.86,-27.85 198.28,-23.31 197.54,-30.27"/>
</a>
</g>
</g>
</g>
</svg>
