<?xml version="1.0" encoding="UTF-8" standalone="no"?>
<!DOCTYPE svg PUBLIC "-//W3C//DTD SVG 1.1//EN"
 "http://www.w3.org/Graphics/SVG/1.1/DTD/svg11.dtd">
<!-- Generated by graphviz version 2.43.0 (0)
 -->
<!-- Title: BackupManager::restoreBackup Pages: 1 -->
<svg width="402pt" height="150pt"
 viewBox="0.00 0.00 402.00 149.50" xmlns="http://www.w3.org/2000/svg" xmlns:xlink="http://www.w3.org/1999/xlink">

<svg id="main" version="1.1" xmlns="http://www.w3.org/2000/svg" xmlns:xlink="http://www.w3.org/1999/xlink" xml:space="preserve" onload="init(evt)">
<style type="text/css"><![CDATA[
.node, .edge {opacity: 0.7;}
.node.selected, .edge.selected {opacity: 1;}
.edge:hover path { stroke: red; }
.edge:hover polygon { stroke: red; fill: red; }
]]></style>
<script type="application/ecmascript" xlink:href="../../svg.min.js"/>
<svg id="graph" class="graph">
<g id="graph0" class="graph" transform="scale(1 1) rotate(0) translate(4 145.5)">
<title>BackupManager::restoreBackup</title>
<!-- Node1 -->
<g id="Node000001" class="node">
<title>Node1</title>
<g id="a_Node000001"><a xlink:title=" ">
<polygon fill="#999999" stroke="#666666" points="170,-74 0,-74 0,-55 170,-55 170,-74"/>
<text text-anchor="middle" x="85" y="-62" font-family="Helvetica,sans-Serif" font-size="10.00">BackupManager::restoreBackup</text>
</a>
</g>
</g>
<!-- Node2 -->
<g id="Node000002" class="node">
<title>Node2</title>
<g id="a_Node000002"><a xlink:href="../../d5/d62/classBackupManager.html#a65ffe2628e4c0947eb7e814d7ac8a06f" target="_top" xlink:title=" ">
<polygon fill="white" stroke="#666666" points="380.5,-141.5 219.5,-141.5 219.5,-111.5 380.5,-111.5 380.5,-141.5"/>
<text text-anchor="start" x="227.5" y="-129.5" font-family="Helvetica,sans-Serif" font-size="10.00">BackupManager::getAvailable</text>
<text text-anchor="middle" x="300" y="-118.5" font-family="Helvetica,sans-Serif" font-size="10.00">Backups</text>
</a>
</g>
</g>
<!-- Node1&#45;&gt;Node2 -->
<g id="edge1_Node000001_Node000002" class="edge">
<title>Node1&#45;&gt;Node2</title>
<g id="a_edge1_Node000001_Node000002"><a xlink:title=" ">
<path fill="none" stroke="#63b8ff" d="M114.96,-74.16C139.19,-82.12 174.7,-93.51 206,-102.5 213.44,-104.64 221.23,-106.79 229.02,-108.87"/>
<polygon fill="#63b8ff" stroke="#63b8ff" points="228.27,-112.3 238.84,-111.48 230.07,-105.53 228.27,-112.3"/>
</a>
</g>
</g>
<!-- Node3 -->
<g id="Node000003" class="node">
<title>Node3</title>
<g id="a_Node000003"><a xlink:href="../../d5/d62/classBackupManager.html#a7531d6541aaaaa5603aa5628eb78620f" target="_top" xlink:title=" ">
<polygon fill="white" stroke="#666666" points="394,-93 206,-93 206,-74 394,-74 394,-93"/>
<text text-anchor="middle" x="300" y="-81" font-family="Helvetica,sans-Serif" font-size="10.00">BackupManager::restoreCompleted</text>
</a>
</g>
</g>
<!-- Node1&#45;&gt;Node3 -->
<g id="edge2_Node000001_Node000003" class="edge">
<title>Node1&#45;&gt;Node3</title>
<g id="a_edge2_Node000001_Node000003"><a xlink:title=" ">
<path fill="none" stroke="#63b8ff" d="M170.18,-72.01C178.62,-72.76 187.26,-73.53 195.87,-74.3"/>
<polygon fill="#63b8ff" stroke="#63b8ff" points="195.68,-77.8 205.95,-75.2 196.3,-70.82 195.68,-77.8"/>
</a>
</g>
</g>
<!-- Node4 -->
<g id="Node000004" class="node">
<title>Node4</title>
<g id="a_Node000004"><a xlink:href="../../d5/d62/classBackupManager.html#a09e2e5dd2c8ede38c7815ee4296b2558" target="_top" xlink:title=" ">
<polygon fill="white" stroke="#666666" points="382,-56 218,-56 218,-37 382,-37 382,-56"/>
<text text-anchor="middle" x="300" y="-44" font-family="Helvetica,sans-Serif" font-size="10.00">BackupManager::restoreFailed</text>
</a>
</g>
</g>
<!-- Node1&#45;&gt;Node4 -->
<g id="edge3_Node000001_Node000004" class="edge">
<title>Node1&#45;&gt;Node4</title>
<g id="a_edge3_Node000001_Node000004"><a xlink:title=" ">
<path fill="none" stroke="#63b8ff" d="M170.18,-57.39C182.45,-56.35 195.13,-55.28 207.53,-54.23"/>
<polygon fill="#63b8ff" stroke="#63b8ff" points="208.19,-57.69 217.86,-53.36 207.6,-50.71 208.19,-57.69"/>
</a>
</g>
</g>
<!-- Node5 -->
<g id="Node000005" class="node">
<title>Node5</title>
<g id="a_Node000005"><a xlink:href="../../d5/d62/classBackupManager.html#a4fa85b981585e422416df2d0df21bbe7" target="_top" xlink:title=" ">
<polygon fill="white" stroke="#666666" points="385,-19 215,-19 215,0 385,0 385,-19"/>
<text text-anchor="middle" x="300" y="-7" font-family="Helvetica,sans-Serif" font-size="10.00">BackupManager::restoreStarted</text>
</a>
</g>
</g>
<!-- Node1&#45;&gt;Node5 -->
<g id="edge4_Node000001_Node000005" class="edge">
<title>Node1&#45;&gt;Node5</title>
<g id="a_edge4_Node000001_Node000005"><a xlink:title=" ">
<path fill="none" stroke="#63b8ff" d="M115.38,-54.88C139.55,-47.16 174.78,-36.35 206,-28.5 216.4,-25.88 227.52,-23.37 238.33,-21.07"/>
<polygon fill="#63b8ff" stroke="#63b8ff" points="239.06,-24.5 248.13,-19.03 237.63,-17.64 239.06,-24.5"/>
</a>
</g>
</g>
</g>
</svg>
</svg>

<style type='text/css'>
<![CDATA[
[data-mouse-over-selected='false'] { opacity: 0.7; }
[data-mouse-over-selected='true']  { opacity: 1.0; }
]]>
</style>
<script type="application/ecmascript"><![CDATA[
document.addEventListener('DOMContentLoaded', (event) => {
  highlightEdges();
  highlightAdjacentNodes();
});
]]></script>
</svg>
