<?xml version="1.0" encoding="UTF-8" standalone="no"?>
<!DOCTYPE svg PUBLIC "-//W3C//DTD SVG 1.1//EN"
 "http://www.w3.org/Graphics/SVG/1.1/DTD/svg11.dtd">
<!-- Generated by graphviz version 2.43.0 (0)
 -->
<!-- Title: EonPlay::AI::IAISubtitleGenerator::generationCompleted Pages: 1 -->
<svg width="625pt" height="38pt"
 viewBox="0.00 0.00 625.00 38.00" xmlns="http://www.w3.org/2000/svg" xmlns:xlink="http://www.w3.org/1999/xlink">
<g id="graph0" class="graph" transform="scale(1 1) rotate(0) translate(4 34)">
<title>EonPlay::AI::IAISubtitleGenerator::generationCompleted</title>
<!-- Node1 -->
<g id="Node000001" class="node">
<title>Node1</title>
<g id="a_Node000001"><a xlink:title="Emitted when generation is completed.">
<polygon fill="#999999" stroke="#666666" points="617,-30 440,-30 440,0 617,0 617,-30"/>
<text text-anchor="start" x="448" y="-18" font-family="Helvetica,sans-Serif" font-size="10.00">EonPlay::AI::IAISubtitle</text>
<text text-anchor="middle" x="528.5" y="-7" font-family="Helvetica,sans-Serif" font-size="10.00">Generator::generationCompleted</text>
</a>
</g>
</g>
<!-- Node2 -->
<g id="Node000002" class="node">
<title>Node2</title>
<g id="a_Node000002"><a xlink:href="../../d6/d5c/classEonPlay_1_1AI_1_1WhisperSubtitleGenerator.html#a22e9fe78cec3c05b12b97cb2c5a6f3f7" target="_top" xlink:title="Generate subtitles from media file.">
<polygon fill="white" stroke="#666666" points="404,-30 246,-30 246,0 404,0 404,-30"/>
<text text-anchor="start" x="254" y="-18" font-family="Helvetica,sans-Serif" font-size="10.00">EonPlay::AI::WhisperSubtitle</text>
<text text-anchor="middle" x="325" y="-7" font-family="Helvetica,sans-Serif" font-size="10.00">Generator::generateSubtitles</text>
</a>
</g>
</g>
<!-- Node1&#45;&gt;Node2 -->
<g id="edge1_Node000001_Node000002" class="edge">
<title>Node1&#45;&gt;Node2</title>
<g id="a_edge1_Node000001_Node000002"><a xlink:title=" ">
<path fill="none" stroke="#63b8ff" d="M429.92,-15C421.3,-15 412.66,-15 404.24,-15"/>
<polygon fill="#63b8ff" stroke="#63b8ff" points="430,-18.5 440,-15 430,-11.5 430,-18.5"/>
</a>
</g>
</g>
<!-- Node3 -->
<g id="Node000003" class="node">
<title>Node3</title>
<g id="a_Node000003"><a xlink:href="../../d6/d5c/classEonPlay_1_1AI_1_1WhisperSubtitleGenerator.html#a2cc33b06c248fcd12cc62a7793589c14" target="_top" xlink:title="Generate subtitles from audio data.">
<polygon fill="white" stroke="#666666" points="210,-30 0,-30 0,0 210,0 210,-30"/>
<text text-anchor="start" x="8" y="-18" font-family="Helvetica,sans-Serif" font-size="10.00">EonPlay::AI::WhisperSubtitle</text>
<text text-anchor="middle" x="105" y="-7" font-family="Helvetica,sans-Serif" font-size="10.00">Generator::generateSubtitlesFromAudio</text>
</a>
</g>
</g>
<!-- Node2&#45;&gt;Node3 -->
<g id="edge2_Node000002_Node000003" class="edge">
<title>Node2&#45;&gt;Node3</title>
<g id="a_edge2_Node000002_Node000003"><a xlink:title=" ">
<path fill="none" stroke="#63b8ff" d="M235.73,-15C227.31,-15 218.71,-15 210.15,-15"/>
<polygon fill="#63b8ff" stroke="#63b8ff" points="235.91,-18.5 245.91,-15 235.91,-11.5 235.91,-18.5"/>
</a>
</g>
</g>
</g>
</svg>
