<?xml version="1.0" encoding="UTF-8" standalone="no"?>
<!DOCTYPE svg PUBLIC "-//W3C//DTD SVG 1.1//EN"
 "http://www.w3.org/Graphics/SVG/1.1/DTD/svg11.dtd">
<!-- Generated by graphviz version 2.43.0 (0)
 -->
<!-- Title: SubtitleManager::validateSubtitleFile Pages: 1 -->
<svg width="532pt" height="161pt"
 viewBox="0.00 0.00 532.00 161.00" xmlns="http://www.w3.org/2000/svg" xmlns:xlink="http://www.w3.org/1999/xlink">
<g id="graph0" class="graph" transform="scale(1 1) rotate(0) translate(4 157)">
<title>SubtitleManager::validateSubtitleFile</title>
<!-- Node1 -->
<g id="Node000001" class="node">
<title>Node1</title>
<g id="a_Node000001"><a xlink:title="Validate subtitle file for security.">
<polygon fill="#999999" stroke="#666666" points="143,-67.5 0,-67.5 0,-37.5 143,-37.5 143,-67.5"/>
<text text-anchor="start" x="8" y="-55.5" font-family="Helvetica,sans-Serif" font-size="10.00">SubtitleManager::validate</text>
<text text-anchor="middle" x="71.5" y="-44.5" font-family="Helvetica,sans-Serif" font-size="10.00">SubtitleFile</text>
</a>
</g>
</g>
<!-- Node2 -->
<g id="Node000002" class="node">
<title>Node2</title>
<g id="a_Node000002"><a xlink:href="../../d3/dcc/classSubtitleParserFactory.html#a615177f918d10dcf0e6a0587e3ef5714" target="_top" xlink:title="Get parser for file path.">
<polygon fill="white" stroke="#666666" points="322.5,-115.5 203.5,-115.5 203.5,-85.5 322.5,-85.5 322.5,-115.5"/>
<text text-anchor="start" x="211.5" y="-103.5" font-family="Helvetica,sans-Serif" font-size="10.00">SubtitleParserFactory</text>
<text text-anchor="middle" x="263" y="-92.5" font-family="Helvetica,sans-Serif" font-size="10.00">::getParserForFile</text>
</a>
</g>
</g>
<!-- Node1&#45;&gt;Node2 -->
<g id="edge1_Node000001_Node000002" class="edge">
<title>Node1&#45;&gt;Node2</title>
<g id="a_edge1_Node000001_Node000002"><a xlink:title=" ">
<path fill="none" stroke="#63b8ff" d="M131.94,-67.56C151.53,-72.52 173.47,-78.07 193.66,-83.19"/>
<polygon fill="#63b8ff" stroke="#63b8ff" points="192.87,-86.6 203.42,-85.66 194.59,-79.81 192.87,-86.6"/>
</a>
</g>
</g>
<!-- Node5 -->
<g id="Node000005" class="node">
<title>Node5</title>
<g id="a_Node000005"><a xlink:href="../../dd/d8b/classSubtitleManager.html#ad2c991a2f4eee0398e11520ee7361582" target="_top" xlink:title="Get supported subtitle file extensions.">
<polygon fill="white" stroke="#666666" points="347,-67.5 179,-67.5 179,-37.5 347,-37.5 347,-67.5"/>
<text text-anchor="start" x="187" y="-55.5" font-family="Helvetica,sans-Serif" font-size="10.00">SubtitleManager::getSupported</text>
<text text-anchor="middle" x="263" y="-44.5" font-family="Helvetica,sans-Serif" font-size="10.00">Extensions</text>
</a>
</g>
</g>
<!-- Node1&#45;&gt;Node5 -->
<g id="edge4_Node000001_Node000005" class="edge">
<title>Node1&#45;&gt;Node5</title>
<g id="a_edge4_Node000001_Node000005"><a xlink:title=" ">
<path fill="none" stroke="#63b8ff" d="M143.06,-52.5C151.46,-52.5 160.13,-52.5 168.77,-52.5"/>
<polygon fill="#63b8ff" stroke="#63b8ff" points="168.9,-56 178.9,-52.5 168.9,-49 168.9,-56"/>
</a>
</g>
</g>
<!-- Node7 -->
<g id="Node000007" class="node">
<title>Node7</title>
<g id="a_Node000007"><a xlink:href="../../d3/dc3/classISubtitleParser.html#a4049222a64d29d661b2941d1545398ec" target="_top" xlink:title="Validate subtitle file for security issues.">
<polygon fill="white" stroke="#666666" points="338,-19 188,-19 188,0 338,0 338,-19"/>
<text text-anchor="middle" x="263" y="-7" font-family="Helvetica,sans-Serif" font-size="10.00">ISubtitleParser::validateFile</text>
</a>
</g>
</g>
<!-- Node1&#45;&gt;Node7 -->
<g id="edge6_Node000001_Node000007" class="edge">
<title>Node1&#45;&gt;Node7</title>
<g id="a_edge6_Node000001_Node000007"><a xlink:title=" ">
<path fill="none" stroke="#63b8ff" d="M138.78,-37.46C162.19,-32.15 188.17,-26.25 210.21,-21.25"/>
<polygon fill="#63b8ff" stroke="#63b8ff" points="211.06,-24.65 220.04,-19.02 209.51,-17.82 211.06,-24.65"/>
</a>
</g>
</g>
<!-- Node3 -->
<g id="Node000003" class="node">
<title>Node3</title>
<g id="a_Node000003"><a xlink:href="../../d3/dc3/classISubtitleParser.html#a884701b75985477e7abb541bfdf238ea" target="_top" xlink:title="Check if parser can handle the given file.">
<polygon fill="white" stroke="#666666" points="522,-153 385,-153 385,-134 522,-134 522,-153"/>
<text text-anchor="middle" x="453.5" y="-141" font-family="Helvetica,sans-Serif" font-size="10.00">ISubtitleParser::canParse</text>
</a>
</g>
</g>
<!-- Node2&#45;&gt;Node3 -->
<g id="edge2_Node000002_Node000003" class="edge">
<title>Node2&#45;&gt;Node3</title>
<g id="a_edge2_Node000002_Node000003"><a xlink:title=" ">
<path fill="none" stroke="#63b8ff" d="M322.61,-113.87C347.57,-119.56 376.45,-126.15 400.63,-131.67"/>
<polygon fill="#63b8ff" stroke="#63b8ff" points="400.15,-135.15 410.68,-133.96 401.71,-128.32 400.15,-135.15"/>
</a>
</g>
</g>
<!-- Node4 -->
<g id="Node000004" class="node">
<title>Node4</title>
<g id="a_Node000004"><a xlink:href="../../d3/dcc/classSubtitleParserFactory.html#a7f0b9aeb0fe3f5226c65f3bacf024f0b" target="_top" xlink:title="Get parser for file extension.">
<polygon fill="white" stroke="#666666" points="519,-115.5 388,-115.5 388,-85.5 519,-85.5 519,-115.5"/>
<text text-anchor="start" x="396" y="-103.5" font-family="Helvetica,sans-Serif" font-size="10.00">SubtitleParserFactory</text>
<text text-anchor="middle" x="453.5" y="-92.5" font-family="Helvetica,sans-Serif" font-size="10.00">::getParserForExtension</text>
</a>
</g>
</g>
<!-- Node2&#45;&gt;Node4 -->
<g id="edge3_Node000002_Node000004" class="edge">
<title>Node2&#45;&gt;Node4</title>
<g id="a_edge3_Node000002_Node000004"><a xlink:title=" ">
<path fill="none" stroke="#63b8ff" d="M322.61,-100.5C340.03,-100.5 359.35,-100.5 377.65,-100.5"/>
<polygon fill="#63b8ff" stroke="#63b8ff" points="377.69,-104 387.69,-100.5 377.69,-97 377.69,-104"/>
</a>
</g>
</g>
<!-- Node6 -->
<g id="Node000006" class="node">
<title>Node6</title>
<g id="a_Node000006"><a xlink:href="../../d3/dcc/classSubtitleParserFactory.html#a10add6ac804d0668e332b07149df6351" target="_top" xlink:title="Get all supported extensions.">
<polygon fill="white" stroke="#666666" points="524,-67.5 383,-67.5 383,-37.5 524,-37.5 524,-67.5"/>
<text text-anchor="start" x="391" y="-55.5" font-family="Helvetica,sans-Serif" font-size="10.00">SubtitleParserFactory</text>
<text text-anchor="middle" x="453.5" y="-44.5" font-family="Helvetica,sans-Serif" font-size="10.00">::getSupportedExtensions</text>
</a>
</g>
</g>
<!-- Node5&#45;&gt;Node6 -->
<g id="edge5_Node000005_Node000006" class="edge">
<title>Node5&#45;&gt;Node6</title>
<g id="a_edge5_Node000005_Node000006"><a xlink:title=" ">
<path fill="none" stroke="#63b8ff" d="M347.23,-52.5C355.71,-52.5 364.32,-52.5 372.76,-52.5"/>
<polygon fill="#63b8ff" stroke="#63b8ff" points="372.97,-56 382.97,-52.5 372.97,-49 372.97,-56"/>
</a>
</g>
</g>
</g>
</svg>
