<?xml version="1.0" encoding="UTF-8" standalone="no"?>
<!DOCTYPE svg PUBLIC "-//W3C//DTD SVG 1.1//EN"
 "http://www.w3.org/Graphics/SVG/1.1/DTD/svg11.dtd">
<!-- Generated by graphviz version 2.43.0 (0)
 -->
<!-- Title: SubtitleManager::validateSubtitleFile Pages: 1 -->
<!--zoomable 161 -->

<svg id="main" version="1.1" xmlns="http://www.w3.org/2000/svg" xmlns:xlink="http://www.w3.org/1999/xlink" xml:space="preserve" onload="init(evt)">
<style type="text/css"><![CDATA[
.node, .edge {opacity: 0.7;}
.node.selected, .edge.selected {opacity: 1;}
.edge:hover path { stroke: red; }
.edge:hover polygon { stroke: red; fill: red; }
]]></style>

<defs>
  <circle id="rim" cx="0" cy="0" r="7"/>
  <circle id="rim2" cx="0" cy="0" r="3.5"/>
  <g id="zoomPlus">
    <use xlink:href="#rim" fill="#404040"><set attributeName="fill" to="#808080" begin="zoomplus.mouseover" end="zoomplus.mouseout"/></use>
    <path d="M-4,0h8M0,-4v8" fill="none" stroke="white" stroke-width="1.5" pointer-events="none"/>
  </g>
  <g id="zoomMin">
    <use xlink:href="#rim" fill="#404040"><set attributeName="fill" to="#808080" begin="zoomminus.mouseover" end="zoomminus.mouseout"/></use>
    <path d="M-4,0h8" fill="none" stroke="white" stroke-width="1.5" pointer-events="none"/>
  </g>
  <g id="arrowUp" transform="translate(30 24)">
    <use xlink:href="#rim"/>
    <path pointer-events="none" fill="none" stroke="white" stroke-width="1.5" d="M0,-3.0v7 M-2.5,-0.5L0,-3.0L2.5,-0.5"/>
  </g>
  <g id="arrowRight" transform="rotate(90) translate(36 -43)">
    <use xlink:href="#rim"/>
    <path pointer-events="none" fill="none" stroke="white" stroke-width="1.5" d="M0,-3.0v7 M-2.5,-0.5L0,-3.0L2.5,-0.5"/>
  </g>
  <g id="arrowDown" transform="rotate(180) translate(-30 -48)">
    <use xlink:href="#rim"/>
    <path pointer-events="none" fill="none" stroke="white" stroke-width="1.5" d="M0,-3.0v7 M-2.5,-0.5L0,-3.0L2.5,-0.5"/>
  </g>
  <g id="arrowLeft" transform="rotate(270) translate(-36 17)">
    <use xlink:href="#rim"/>
    <path pointer-events="none" fill="none" stroke="white" stroke-width="1.5" d="M0,-3.0v7 M-2.5,-0.5L0,-3.0L2.5,-0.5"/>
  </g>
  <g id="resetDef">
    <use xlink:href="#rim2" fill="#404040"><set attributeName="fill" to="#808080" begin="reset.mouseover" end="reset.mouseout"/></use>
  </g>
</defs>
<script type="application/ecmascript">
var viewWidth = 532;
var viewHeight = 161;
var sectionId = 'dynsection-30';
</script>
<script type="application/ecmascript" xlink:href="../../svg.min.js"/>
<svg id="graph" class="graph">
<g id="viewport">
<title>SubtitleManager::validateSubtitleFile</title>
<!-- Node1 -->
<g id="Node000001" class="node">
<title>Node1</title>
<g id="a_Node000001"><a xlink:title="Validate subtitle file for security.">
<polygon fill="#999999" stroke="#666666" points="143,-67.5 0,-67.5 0,-37.5 143,-37.5 143,-67.5"/>
<text text-anchor="start" x="8" y="-55.5" font-family="Helvetica,sans-Serif" font-size="10.00">SubtitleManager::validate</text>
<text text-anchor="middle" x="71.5" y="-44.5" font-family="Helvetica,sans-Serif" font-size="10.00">SubtitleFile</text>
</a>
</g>
</g>
<!-- Node2 -->
<g id="Node000002" class="node">
<title>Node2</title>
<g id="a_Node000002"><a xlink:href="../../d3/dcc/classSubtitleParserFactory.html#a615177f918d10dcf0e6a0587e3ef5714" target="_top" xlink:title="Get parser for file path.">
<polygon fill="white" stroke="#666666" points="322.5,-115.5 203.5,-115.5 203.5,-85.5 322.5,-85.5 322.5,-115.5"/>
<text text-anchor="start" x="211.5" y="-103.5" font-family="Helvetica,sans-Serif" font-size="10.00">SubtitleParserFactory</text>
<text text-anchor="middle" x="263" y="-92.5" font-family="Helvetica,sans-Serif" font-size="10.00">::getParserForFile</text>
</a>
</g>
</g>
<!-- Node1&#45;&gt;Node2 -->
<g id="edge1_Node000001_Node000002" class="edge">
<title>Node1&#45;&gt;Node2</title>
<g id="a_edge1_Node000001_Node000002"><a xlink:title=" ">
<path fill="none" stroke="#63b8ff" d="M131.94,-67.56C151.53,-72.52 173.47,-78.07 193.66,-83.19"/>
<polygon fill="#63b8ff" stroke="#63b8ff" points="192.87,-86.6 203.42,-85.66 194.59,-79.81 192.87,-86.6"/>
</a>
</g>
</g>
<!-- Node5 -->
<g id="Node000005" class="node">
<title>Node5</title>
<g id="a_Node000005"><a xlink:href="../../dd/d8b/classSubtitleManager.html#ad2c991a2f4eee0398e11520ee7361582" target="_top" xlink:title="Get supported subtitle file extensions.">
<polygon fill="white" stroke="#666666" points="347,-67.5 179,-67.5 179,-37.5 347,-37.5 347,-67.5"/>
<text text-anchor="start" x="187" y="-55.5" font-family="Helvetica,sans-Serif" font-size="10.00">SubtitleManager::getSupported</text>
<text text-anchor="middle" x="263" y="-44.5" font-family="Helvetica,sans-Serif" font-size="10.00">Extensions</text>
</a>
</g>
</g>
<!-- Node1&#45;&gt;Node5 -->
<g id="edge4_Node000001_Node000005" class="edge">
<title>Node1&#45;&gt;Node5</title>
<g id="a_edge4_Node000001_Node000005"><a xlink:title=" ">
<path fill="none" stroke="#63b8ff" d="M143.06,-52.5C151.46,-52.5 160.13,-52.5 168.77,-52.5"/>
<polygon fill="#63b8ff" stroke="#63b8ff" points="168.9,-56 178.9,-52.5 168.9,-49 168.9,-56"/>
</a>
</g>
</g>
<!-- Node7 -->
<g id="Node000007" class="node">
<title>Node7</title>
<g id="a_Node000007"><a xlink:href="../../d3/dc3/classISubtitleParser.html#a4049222a64d29d661b2941d1545398ec" target="_top" xlink:title="Validate subtitle file for security issues.">
<polygon fill="white" stroke="#666666" points="338,-19 188,-19 188,0 338,0 338,-19"/>
<text text-anchor="middle" x="263" y="-7" font-family="Helvetica,sans-Serif" font-size="10.00">ISubtitleParser::validateFile</text>
</a>
</g>
</g>
<!-- Node1&#45;&gt;Node7 -->
<g id="edge6_Node000001_Node000007" class="edge">
<title>Node1&#45;&gt;Node7</title>
<g id="a_edge6_Node000001_Node000007"><a xlink:title=" ">
<path fill="none" stroke="#63b8ff" d="M138.78,-37.46C162.19,-32.15 188.17,-26.25 210.21,-21.25"/>
<polygon fill="#63b8ff" stroke="#63b8ff" points="211.06,-24.65 220.04,-19.02 209.51,-17.82 211.06,-24.65"/>
</a>
</g>
</g>
<!-- Node3 -->
<g id="Node000003" class="node">
<title>Node3</title>
<g id="a_Node000003"><a xlink:href="../../d3/dc3/classISubtitleParser.html#a884701b75985477e7abb541bfdf238ea" target="_top" xlink:title="Check if parser can handle the given file.">
<polygon fill="white" stroke="#666666" points="522,-153 385,-153 385,-134 522,-134 522,-153"/>
<text text-anchor="middle" x="453.5" y="-141" font-family="Helvetica,sans-Serif" font-size="10.00">ISubtitleParser::canParse</text>
</a>
</g>
</g>
<!-- Node2&#45;&gt;Node3 -->
<g id="edge2_Node000002_Node000003" class="edge">
<title>Node2&#45;&gt;Node3</title>
<g id="a_edge2_Node000002_Node000003"><a xlink:title=" ">
<path fill="none" stroke="#63b8ff" d="M322.61,-113.87C347.57,-119.56 376.45,-126.15 400.63,-131.67"/>
<polygon fill="#63b8ff" stroke="#63b8ff" points="400.15,-135.15 410.68,-133.96 401.71,-128.32 400.15,-135.15"/>
</a>
</g>
</g>
<!-- Node4 -->
<g id="Node000004" class="node">
<title>Node4</title>
<g id="a_Node000004"><a xlink:href="../../d3/dcc/classSubtitleParserFactory.html#a7f0b9aeb0fe3f5226c65f3bacf024f0b" target="_top" xlink:title="Get parser for file extension.">
<polygon fill="white" stroke="#666666" points="519,-115.5 388,-115.5 388,-85.5 519,-85.5 519,-115.5"/>
<text text-anchor="start" x="396" y="-103.5" font-family="Helvetica,sans-Serif" font-size="10.00">SubtitleParserFactory</text>
<text text-anchor="middle" x="453.5" y="-92.5" font-family="Helvetica,sans-Serif" font-size="10.00">::getParserForExtension</text>
</a>
</g>
</g>
<!-- Node2&#45;&gt;Node4 -->
<g id="edge3_Node000002_Node000004" class="edge">
<title>Node2&#45;&gt;Node4</title>
<g id="a_edge3_Node000002_Node000004"><a xlink:title=" ">
<path fill="none" stroke="#63b8ff" d="M322.61,-100.5C340.03,-100.5 359.35,-100.5 377.65,-100.5"/>
<polygon fill="#63b8ff" stroke="#63b8ff" points="377.69,-104 387.69,-100.5 377.69,-97 377.69,-104"/>
</a>
</g>
</g>
<!-- Node6 -->
<g id="Node000006" class="node">
<title>Node6</title>
<g id="a_Node000006"><a xlink:href="../../d3/dcc/classSubtitleParserFactory.html#a10add6ac804d0668e332b07149df6351" target="_top" xlink:title="Get all supported extensions.">
<polygon fill="white" stroke="#666666" points="524,-67.5 383,-67.5 383,-37.5 524,-37.5 524,-67.5"/>
<text text-anchor="start" x="391" y="-55.5" font-family="Helvetica,sans-Serif" font-size="10.00">SubtitleParserFactory</text>
<text text-anchor="middle" x="453.5" y="-44.5" font-family="Helvetica,sans-Serif" font-size="10.00">::getSupportedExtensions</text>
</a>
</g>
</g>
<!-- Node5&#45;&gt;Node6 -->
<g id="edge5_Node000005_Node000006" class="edge">
<title>Node5&#45;&gt;Node6</title>
<g id="a_edge5_Node000005_Node000006"><a xlink:title=" ">
<path fill="none" stroke="#63b8ff" d="M347.23,-52.5C355.71,-52.5 364.32,-52.5 372.76,-52.5"/>
<polygon fill="#63b8ff" stroke="#63b8ff" points="372.97,-56 382.97,-52.5 372.97,-49 372.97,-56"/>
</a>
</g>
</g>
</g>
</svg>

<g id="navigator" transform="translate(0 0)" fill="#404254">
  <rect fill="#f2f5e9" fill-opacity="0.5" stroke="#606060" stroke-width=".5" x="0" y="0" width="60" height="60"/>
  <use id="zoomplus" xlink:href="#zoomPlus" x="17" y="9" onmousedown="handleZoom(evt,'in')"/>
  <use id="zoomminus" xlink:href="#zoomMin" x="42" y="9" onmousedown="handleZoom(evt,'out')"/>
  <use id="reset" xlink:href="#resetDef" x="30" y="36" onmousedown="handleReset()"/>
   <use id="arrowup" xlink:href="#arrowUp" x="0" y="0" onmousedown="handlePan(0,-1)"/>
  <use id="arrowright" xlink:href="#arrowRight" x="0" y="0" onmousedown="handlePan(1,0)"/>
  <use id="arrowdown" xlink:href="#arrowDown" x="0" y="0" onmousedown="handlePan(0,1)"/>
  <use id="arrowleft" xlink:href="#arrowLeft" x="0" y="0" onmousedown="handlePan(-1,0)"/>
</g>
<svg viewBox="0 0 15 15" width="100%" height="30px" preserveAspectRatio="xMaxYMin meet">
 <g id="arrow_out" transform="scale(0.3 0.3)">
  <a xlink:href="classSubtitleManager_a73837b0bacbedf46cc1977a8d0dcefae_cgraph_org.svg" target="_base">
   <rect id="button" ry="5" rx="5" y="6" x="6" height="38" width="38"
        fill="#f2f5e9" fill-opacity="0.5" stroke="#606060" stroke-width="1.0"/>
   <path id="arrow"
     d="M 11.500037,31.436501 C 11.940474,20.09759 22.043105,11.32322 32.158766,21.979434 L 37.068811,17.246167 C 37.068811,17.246167 37.088388,32 37.088388,32 L 22.160133,31.978069 C 22.160133,31.978069 26.997745,27.140456 26.997745,27.140456 C 18.528582,18.264221 13.291696,25.230495 11.500037,31.436501 z"
     style="fill:#404040;"/>
  </a>
 </g>
</svg>

<style type='text/css'>
<![CDATA[
[data-mouse-over-selected='false'] { opacity: 0.7; }
[data-mouse-over-selected='true']  { opacity: 1.0; }
]]>
</style>
<script type="application/ecmascript"><![CDATA[
document.addEventListener('DOMContentLoaded', (event) => {
  highlightEdges();
  highlightAdjacentNodes();
});
]]></script>
</svg>
