<?xml version="1.0" encoding="UTF-8" standalone="no"?>
<!DOCTYPE svg PUBLIC "-//W3C//DTD SVG 1.1//EN"
 "http://www.w3.org/Graphics/SVG/1.1/DTD/svg11.dtd">
<!-- Generated by graphviz version 2.43.0 (0)
 -->
<!-- Title: SubtitleManager::setEnabled Pages: 1 -->
<!--zoomable 129 -->

<svg id="main" version="1.1" xmlns="http://www.w3.org/2000/svg" xmlns:xlink="http://www.w3.org/1999/xlink" xml:space="preserve" onload="init(evt)">
<style type="text/css"><![CDATA[
.node, .edge {opacity: 0.7;}
.node.selected, .edge.selected {opacity: 1;}
.edge:hover path { stroke: red; }
.edge:hover polygon { stroke: red; fill: red; }
]]></style>

<defs>
  <circle id="rim" cx="0" cy="0" r="7"/>
  <circle id="rim2" cx="0" cy="0" r="3.5"/>
  <g id="zoomPlus">
    <use xlink:href="#rim" fill="#404040"><set attributeName="fill" to="#808080" begin="zoomplus.mouseover" end="zoomplus.mouseout"/></use>
    <path d="M-4,0h8M0,-4v8" fill="none" stroke="white" stroke-width="1.5" pointer-events="none"/>
  </g>
  <g id="zoomMin">
    <use xlink:href="#rim" fill="#404040"><set attributeName="fill" to="#808080" begin="zoomminus.mouseover" end="zoomminus.mouseout"/></use>
    <path d="M-4,0h8" fill="none" stroke="white" stroke-width="1.5" pointer-events="none"/>
  </g>
  <g id="arrowUp" transform="translate(30 24)">
    <use xlink:href="#rim"/>
    <path pointer-events="none" fill="none" stroke="white" stroke-width="1.5" d="M0,-3.0v7 M-2.5,-0.5L0,-3.0L2.5,-0.5"/>
  </g>
  <g id="arrowRight" transform="rotate(90) translate(36 -43)">
    <use xlink:href="#rim"/>
    <path pointer-events="none" fill="none" stroke="white" stroke-width="1.5" d="M0,-3.0v7 M-2.5,-0.5L0,-3.0L2.5,-0.5"/>
  </g>
  <g id="arrowDown" transform="rotate(180) translate(-30 -48)">
    <use xlink:href="#rim"/>
    <path pointer-events="none" fill="none" stroke="white" stroke-width="1.5" d="M0,-3.0v7 M-2.5,-0.5L0,-3.0L2.5,-0.5"/>
  </g>
  <g id="arrowLeft" transform="rotate(270) translate(-36 17)">
    <use xlink:href="#rim"/>
    <path pointer-events="none" fill="none" stroke="white" stroke-width="1.5" d="M0,-3.0v7 M-2.5,-0.5L0,-3.0L2.5,-0.5"/>
  </g>
  <g id="resetDef">
    <use xlink:href="#rim2" fill="#404040"><set attributeName="fill" to="#808080" begin="reset.mouseover" end="reset.mouseout"/></use>
  </g>
</defs>
<script type="application/ecmascript">
var viewWidth = 735;
var viewHeight = 129;
var sectionId = 'dynsection-20';
</script>
<script type="application/ecmascript" xlink:href="../../svg.min.js"/>
<svg id="graph" class="graph">
<g id="viewport">
<title>SubtitleManager::setEnabled</title>
<!-- Node1 -->
<g id="Node000001" class="node">
<title>Node1</title>
<g id="a_Node000001"><a xlink:title="Enable or disable subtitles.">
<polygon fill="#999999" stroke="#666666" points="157,-72.5 0,-72.5 0,-53.5 157,-53.5 157,-72.5"/>
<text text-anchor="middle" x="78.5" y="-60.5" font-family="Helvetica,sans-Serif" font-size="10.00">SubtitleManager::setEnabled</text>
</a>
</g>
</g>
<!-- Node2 -->
<g id="Node000002" class="node">
<title>Node2</title>
<g id="a_Node000002"><a xlink:href="../../dd/d8b/classSubtitleManager.html#a4da4d64818831616c79df498283f26b4" target="_top" xlink:title="Emitted when active subtitles change.">
<polygon fill="white" stroke="#666666" points="559,-121 383,-121 383,-91 559,-91 559,-121"/>
<text text-anchor="start" x="391" y="-109" font-family="Helvetica,sans-Serif" font-size="10.00">SubtitleManager::activeSubtitles</text>
<text text-anchor="middle" x="471" y="-98" font-family="Helvetica,sans-Serif" font-size="10.00">Changed</text>
</a>
</g>
</g>
<!-- Node1&#45;&gt;Node2 -->
<g id="edge1_Node000001_Node000002" class="edge">
<title>Node1&#45;&gt;Node2</title>
<g id="a_edge1_Node000001_Node000002"><a xlink:title=" ">
<path fill="none" stroke="#63b8ff" d="M117.88,-72.51C139.76,-77.58 167.77,-83.48 193,-87 252.43,-95.28 319.55,-100 372.84,-102.66"/>
<polygon fill="#63b8ff" stroke="#63b8ff" points="372.81,-106.17 382.97,-103.15 373.15,-99.17 372.81,-106.17"/>
</a>
</g>
</g>
<!-- Node3 -->
<g id="Node000003" class="node">
<title>Node3</title>
<g id="a_Node000003"><a xlink:href="../../dd/d8b/classSubtitleManager.html#a0f7ec6b8d0765725ba1b72dbf6f4d784" target="_top" xlink:title="Handle media position change.">
<polygon fill="white" stroke="#666666" points="347,-78 193,-78 193,-48 347,-48 347,-78"/>
<text text-anchor="start" x="201" y="-66" font-family="Helvetica,sans-Serif" font-size="10.00">SubtitleManager::onPosition</text>
<text text-anchor="middle" x="270" y="-55" font-family="Helvetica,sans-Serif" font-size="10.00">Changed</text>
</a>
</g>
</g>
<!-- Node1&#45;&gt;Node3 -->
<g id="edge2_Node000001_Node000003" class="edge">
<title>Node1&#45;&gt;Node3</title>
<g id="a_edge2_Node000001_Node000003"><a xlink:title=" ">
<path fill="none" stroke="#63b8ff" d="M157.12,-63C165.48,-63 174.02,-63 182.47,-63"/>
<polygon fill="#63b8ff" stroke="#63b8ff" points="182.72,-66.5 192.72,-63 182.72,-59.5 182.72,-66.5"/>
</a>
</g>
</g>
<!-- Node6 -->
<g id="Node000006" class="node">
<title>Node6</title>
<g id="a_Node000006"><a xlink:href="../../dd/d8b/classSubtitleManager.html#ac8cf37e80cd3e1345e97a3280fa1522c" target="_top" xlink:title="Emitted when subtitles are enabled/disabled.">
<polygon fill="white" stroke="#666666" points="342.5,-30 197.5,-30 197.5,0 342.5,0 342.5,-30"/>
<text text-anchor="start" x="205.5" y="-18" font-family="Helvetica,sans-Serif" font-size="10.00">SubtitleManager::subtitles</text>
<text text-anchor="middle" x="270" y="-7" font-family="Helvetica,sans-Serif" font-size="10.00">EnabledChanged</text>
</a>
</g>
</g>
<!-- Node1&#45;&gt;Node6 -->
<g id="edge6_Node000001_Node000006" class="edge">
<title>Node1&#45;&gt;Node6</title>
<g id="a_edge6_Node000001_Node000006"><a xlink:title=" ">
<path fill="none" stroke="#63b8ff" d="M117.39,-53.4C140.97,-47.43 171.99,-39.57 199.84,-32.52"/>
<polygon fill="#63b8ff" stroke="#63b8ff" points="200.7,-35.91 209.53,-30.06 198.98,-29.13 200.7,-35.91"/>
</a>
</g>
</g>
<!-- Node3&#45;&gt;Node2 -->
<g id="edge3_Node000003_Node000002" class="edge">
<title>Node3&#45;&gt;Node2</title>
<g id="a_edge3_Node000003_Node000002"><a xlink:title=" ">
<path fill="none" stroke="#63b8ff" d="M340.6,-78.04C356.66,-81.51 373.86,-85.23 390.31,-88.78"/>
<polygon fill="#63b8ff" stroke="#63b8ff" points="389.93,-92.28 400.44,-90.97 391.4,-85.44 389.93,-92.28"/>
</a>
</g>
</g>
<!-- Node4 -->
<g id="Node000004" class="node">
<title>Node4</title>
<g id="a_Node000004"><a xlink:href="../../dd/d8b/classSubtitleManager.html#ab895587ae818bbf845af0852e617d74d" target="_top" xlink:title="Get active subtitle entries at current time.">
<polygon fill="white" stroke="#666666" points="545.5,-73 396.5,-73 396.5,-43 545.5,-43 545.5,-73"/>
<text text-anchor="start" x="404.5" y="-61" font-family="Helvetica,sans-Serif" font-size="10.00">SubtitleManager::getActive</text>
<text text-anchor="middle" x="471" y="-50" font-family="Helvetica,sans-Serif" font-size="10.00">Subtitles</text>
</a>
</g>
</g>
<!-- Node3&#45;&gt;Node4 -->
<g id="edge4_Node000003_Node000004" class="edge">
<title>Node3&#45;&gt;Node4</title>
<g id="a_edge4_Node000003_Node000004"><a xlink:title=" ">
<path fill="none" stroke="#63b8ff" d="M347.09,-61.09C359.81,-60.77 373.08,-60.44 385.99,-60.11"/>
<polygon fill="#63b8ff" stroke="#63b8ff" points="386.35,-63.6 396.25,-59.85 386.17,-56.61 386.35,-63.6"/>
</a>
</g>
</g>
<!-- Node5 -->
<g id="Node000005" class="node">
<title>Node5</title>
<g id="a_Node000005"><a xlink:href="../../d1/de3/classSubtitleTrack.html#abddc35798ef24393b10e0859eef65c90" target="_top" xlink:title="Get active subtitle entries at given time.">
<polygon fill="white" stroke="#666666" points="727,-73 595,-73 595,-43 727,-43 727,-73"/>
<text text-anchor="start" x="603" y="-61" font-family="Helvetica,sans-Serif" font-size="10.00">SubtitleTrack::getActive</text>
<text text-anchor="middle" x="661" y="-50" font-family="Helvetica,sans-Serif" font-size="10.00">Entries</text>
</a>
</g>
</g>
<!-- Node4&#45;&gt;Node5 -->
<g id="edge5_Node000004_Node000005" class="edge">
<title>Node4&#45;&gt;Node5</title>
<g id="a_edge5_Node000004_Node000005"><a xlink:title=" ">
<path fill="none" stroke="#63b8ff" d="M545.76,-58C558.59,-58 571.94,-58 584.8,-58"/>
<polygon fill="#63b8ff" stroke="#63b8ff" points="584.99,-61.5 594.99,-58 584.99,-54.5 584.99,-61.5"/>
</a>
</g>
</g>
</g>
</svg>

<g id="navigator" transform="translate(0 0)" fill="#404254">
  <rect fill="#f2f5e9" fill-opacity="0.5" stroke="#606060" stroke-width=".5" x="0" y="0" width="60" height="60"/>
  <use id="zoomplus" xlink:href="#zoomPlus" x="17" y="9" onmousedown="handleZoom(evt,'in')"/>
  <use id="zoomminus" xlink:href="#zoomMin" x="42" y="9" onmousedown="handleZoom(evt,'out')"/>
  <use id="reset" xlink:href="#resetDef" x="30" y="36" onmousedown="handleReset()"/>
   <use id="arrowup" xlink:href="#arrowUp" x="0" y="0" onmousedown="handlePan(0,-1)"/>
  <use id="arrowright" xlink:href="#arrowRight" x="0" y="0" onmousedown="handlePan(1,0)"/>
  <use id="arrowdown" xlink:href="#arrowDown" x="0" y="0" onmousedown="handlePan(0,1)"/>
  <use id="arrowleft" xlink:href="#arrowLeft" x="0" y="0" onmousedown="handlePan(-1,0)"/>
</g>
<svg viewBox="0 0 15 15" width="100%" height="30px" preserveAspectRatio="xMaxYMin meet">
 <g id="arrow_out" transform="scale(0.3 0.3)">
  <a xlink:href="classSubtitleManager_ab3f20c8c68c5b49e4facf27917afebf1_cgraph_org.svg" target="_base">
   <rect id="button" ry="5" rx="5" y="6" x="6" height="38" width="38"
        fill="#f2f5e9" fill-opacity="0.5" stroke="#606060" stroke-width="1.0"/>
   <path id="arrow"
     d="M 11.500037,31.436501 C 11.940474,20.09759 22.043105,11.32322 32.158766,21.979434 L 37.068811,17.246167 C 37.068811,17.246167 37.088388,32 37.088388,32 L 22.160133,31.978069 C 22.160133,31.978069 26.997745,27.140456 26.997745,27.140456 C 18.528582,18.264221 13.291696,25.230495 11.500037,31.436501 z"
     style="fill:#404040;"/>
  </a>
 </g>
</svg>

<style type='text/css'>
<![CDATA[
[data-mouse-over-selected='false'] { opacity: 0.7; }
[data-mouse-over-selected='true']  { opacity: 1.0; }
]]>
</style>
<script type="application/ecmascript"><![CDATA[
document.addEventListener('DOMContentLoaded', (event) => {
  highlightEdges();
  highlightAdjacentNodes();
});
]]></script>
</svg>
