<?xml version="1.0" encoding="UTF-8" standalone="no"?>
<!DOCTYPE svg PUBLIC "-//W3C//DTD SVG 1.1//EN"
 "http://www.w3.org/Graphics/SVG/1.1/DTD/svg11.dtd">
<!-- Generated by graphviz version 2.43.0 (0)
 -->
<!-- Title: SubtitleManager::scaleTiming Pages: 1 -->
<svg width="740pt" height="86pt"
 viewBox="0.00 0.00 740.00 86.00" xmlns="http://www.w3.org/2000/svg" xmlns:xlink="http://www.w3.org/1999/xlink">
<g id="graph0" class="graph" transform="scale(1 1) rotate(0) translate(4 82)">
<title>SubtitleManager::scaleTiming</title>
<!-- Node1 -->
<g id="Node000001" class="node">
<title>Node1</title>
<g id="a_Node000001"><a xlink:title="Scale subtitle timing for active track.">
<polygon fill="#999999" stroke="#666666" points="162,-48.5 0,-48.5 0,-29.5 162,-29.5 162,-48.5"/>
<text text-anchor="middle" x="81" y="-36.5" font-family="Helvetica,sans-Serif" font-size="10.00">SubtitleManager::scaleTiming</text>
</a>
</g>
</g>
<!-- Node2 -->
<g id="Node000002" class="node">
<title>Node2</title>
<g id="a_Node000002"><a xlink:href="../../dd/d8b/classSubtitleManager.html#a0f7ec6b8d0765725ba1b72dbf6f4d784" target="_top" xlink:title="Handle media position change.">
<polygon fill="white" stroke="#666666" points="352,-54 198,-54 198,-24 352,-24 352,-54"/>
<text text-anchor="start" x="206" y="-42" font-family="Helvetica,sans-Serif" font-size="10.00">SubtitleManager::onPosition</text>
<text text-anchor="middle" x="275" y="-31" font-family="Helvetica,sans-Serif" font-size="10.00">Changed</text>
</a>
</g>
</g>
<!-- Node1&#45;&gt;Node2 -->
<g id="edge1_Node000001_Node000002" class="edge">
<title>Node1&#45;&gt;Node2</title>
<g id="a_edge1_Node000001_Node000002"><a xlink:title=" ">
<path fill="none" stroke="#63b8ff" d="M162.03,-39C170.45,-39 179.03,-39 187.51,-39"/>
<polygon fill="#63b8ff" stroke="#63b8ff" points="187.79,-42.5 197.79,-39 187.79,-35.5 187.79,-42.5"/>
</a>
</g>
</g>
<!-- Node3 -->
<g id="Node000003" class="node">
<title>Node3</title>
<g id="a_Node000003"><a xlink:href="../../dd/d8b/classSubtitleManager.html#a4da4d64818831616c79df498283f26b4" target="_top" xlink:title="Emitted when active subtitles change.">
<polygon fill="white" stroke="#666666" points="564,-78 388,-78 388,-48 564,-48 564,-78"/>
<text text-anchor="start" x="396" y="-66" font-family="Helvetica,sans-Serif" font-size="10.00">SubtitleManager::activeSubtitles</text>
<text text-anchor="middle" x="476" y="-55" font-family="Helvetica,sans-Serif" font-size="10.00">Changed</text>
</a>
</g>
</g>
<!-- Node2&#45;&gt;Node3 -->
<g id="edge2_Node000002_Node000003" class="edge">
<title>Node2&#45;&gt;Node3</title>
<g id="a_edge2_Node000002_Node000003"><a xlink:title=" ">
<path fill="none" stroke="#63b8ff" d="M352.09,-48.18C360.52,-49.19 369.2,-50.24 377.85,-51.28"/>
<polygon fill="#63b8ff" stroke="#63b8ff" points="377.64,-54.78 387.98,-52.51 378.48,-47.83 377.64,-54.78"/>
</a>
</g>
</g>
<!-- Node4 -->
<g id="Node000004" class="node">
<title>Node4</title>
<g id="a_Node000004"><a xlink:href="../../dd/d8b/classSubtitleManager.html#ab895587ae818bbf845af0852e617d74d" target="_top" xlink:title="Get active subtitle entries at current time.">
<polygon fill="white" stroke="#666666" points="550.5,-30 401.5,-30 401.5,0 550.5,0 550.5,-30"/>
<text text-anchor="start" x="409.5" y="-18" font-family="Helvetica,sans-Serif" font-size="10.00">SubtitleManager::getActive</text>
<text text-anchor="middle" x="476" y="-7" font-family="Helvetica,sans-Serif" font-size="10.00">Subtitles</text>
</a>
</g>
</g>
<!-- Node2&#45;&gt;Node4 -->
<g id="edge3_Node000002_Node000004" class="edge">
<title>Node2&#45;&gt;Node4</title>
<g id="a_edge3_Node000002_Node000004"><a xlink:title=" ">
<path fill="none" stroke="#63b8ff" d="M352.09,-29.82C364.81,-28.29 378.08,-26.69 390.99,-25.13"/>
<polygon fill="#63b8ff" stroke="#63b8ff" points="391.75,-28.57 401.25,-23.89 390.91,-21.62 391.75,-28.57"/>
</a>
</g>
</g>
<!-- Node5 -->
<g id="Node000005" class="node">
<title>Node5</title>
<g id="a_Node000005"><a xlink:href="../../d1/de3/classSubtitleTrack.html#abddc35798ef24393b10e0859eef65c90" target="_top" xlink:title="Get active subtitle entries at given time.">
<polygon fill="white" stroke="#666666" points="732,-30 600,-30 600,0 732,0 732,-30"/>
<text text-anchor="start" x="608" y="-18" font-family="Helvetica,sans-Serif" font-size="10.00">SubtitleTrack::getActive</text>
<text text-anchor="middle" x="666" y="-7" font-family="Helvetica,sans-Serif" font-size="10.00">Entries</text>
</a>
</g>
</g>
<!-- Node4&#45;&gt;Node5 -->
<g id="edge4_Node000004_Node000005" class="edge">
<title>Node4&#45;&gt;Node5</title>
<g id="a_edge4_Node000004_Node000005"><a xlink:title=" ">
<path fill="none" stroke="#63b8ff" d="M550.76,-15C563.59,-15 576.94,-15 589.8,-15"/>
<polygon fill="#63b8ff" stroke="#63b8ff" points="589.99,-18.5 599.99,-15 589.99,-11.5 589.99,-18.5"/>
</a>
</g>
</g>
</g>
</svg>
