<?xml version="1.0" encoding="UTF-8" standalone="no"?>
<!DOCTYPE svg PUBLIC "-//W3C//DTD SVG 1.1//EN"
 "http://www.w3.org/Graphics/SVG/1.1/DTD/svg11.dtd">
<!-- Generated by graphviz version 2.43.0 (0)
 -->
<!-- Title: SubtitleManager::getActiveSubtitles Pages: 1 -->
<svg width="941pt" height="205pt"
 viewBox="0.00 0.00 941.00 204.50" xmlns="http://www.w3.org/2000/svg" xmlns:xlink="http://www.w3.org/1999/xlink">
<g id="graph0" class="graph" transform="scale(1 1) rotate(0) translate(4 200.5)">
<title>SubtitleManager::getActiveSubtitles</title>
<!-- Node1 -->
<g id="Node000001" class="node">
<title>Node1</title>
<g id="a_Node000001"><a xlink:title="Get active subtitle entries at current time.">
<polygon fill="#999999" stroke="#666666" points="933,-110.5 784,-110.5 784,-80.5 933,-80.5 933,-110.5"/>
<text text-anchor="start" x="792" y="-98.5" font-family="Helvetica,sans-Serif" font-size="10.00">SubtitleManager::getActive</text>
<text text-anchor="middle" x="858.5" y="-87.5" font-family="Helvetica,sans-Serif" font-size="10.00">Subtitles</text>
</a>
</g>
</g>
<!-- Node2 -->
<g id="Node000002" class="node">
<title>Node2</title>
<g id="a_Node000002"><a xlink:href="../../dd/d8b/classSubtitleManager.html#a0f7ec6b8d0765725ba1b72dbf6f4d784" target="_top" xlink:title="Handle media position change.">
<polygon fill="white" stroke="#666666" points="748,-110.5 594,-110.5 594,-80.5 748,-80.5 748,-110.5"/>
<text text-anchor="start" x="602" y="-98.5" font-family="Helvetica,sans-Serif" font-size="10.00">SubtitleManager::onPosition</text>
<text text-anchor="middle" x="671" y="-87.5" font-family="Helvetica,sans-Serif" font-size="10.00">Changed</text>
</a>
</g>
</g>
<!-- Node1&#45;&gt;Node2 -->
<g id="edge1_Node000001_Node000002" class="edge">
<title>Node1&#45;&gt;Node2</title>
<g id="a_edge1_Node000001_Node000002"><a xlink:title=" ">
<path fill="none" stroke="#63b8ff" d="M773.66,-95.5C765.19,-95.5 756.61,-95.5 748.23,-95.5"/>
<polygon fill="#63b8ff" stroke="#63b8ff" points="773.92,-99 783.92,-95.5 773.92,-92 773.92,-99"/>
</a>
</g>
</g>
<!-- Node3 -->
<g id="Node000003" class="node">
<title>Node3</title>
<g id="a_Node000003"><a xlink:href="../../dd/d8b/classSubtitleManager.html#a78c88240c2d5763f6902b3ae56dbda65" target="_top" xlink:title="Scale subtitle timing for active track.">
<polygon fill="white" stroke="#666666" points="558,-191 396,-191 396,-172 558,-172 558,-191"/>
<text text-anchor="middle" x="477" y="-179" font-family="Helvetica,sans-Serif" font-size="10.00">SubtitleManager::scaleTiming</text>
</a>
</g>
</g>
<!-- Node2&#45;&gt;Node3 -->
<g id="edge2_Node000002_Node000003" class="edge">
<title>Node2&#45;&gt;Node3</title>
<g id="a_edge2_Node000002_Node000003"><a xlink:title=" ">
<path fill="none" stroke="#63b8ff" d="M640.65,-116.47C618.79,-131.23 587.7,-150.42 558,-162.5 548.74,-166.26 538.57,-169.39 528.67,-171.94"/>
<polygon fill="#63b8ff" stroke="#63b8ff" points="642.87,-119.2 649.14,-110.66 638.91,-113.42 642.87,-119.2"/>
</a>
</g>
</g>
<!-- Node4 -->
<g id="Node000004" class="node">
<title>Node4</title>
<g id="a_Node000004"><a xlink:href="../../dd/d8b/classSubtitleManager.html#af2da2cbc2883cf667f623f09ebf9ba86" target="_top" xlink:title="Set active subtitle track.">
<polygon fill="white" stroke="#666666" points="551.5,-153.5 402.5,-153.5 402.5,-123.5 551.5,-123.5 551.5,-153.5"/>
<text text-anchor="start" x="410.5" y="-141.5" font-family="Helvetica,sans-Serif" font-size="10.00">SubtitleManager::setActive</text>
<text text-anchor="middle" x="477" y="-130.5" font-family="Helvetica,sans-Serif" font-size="10.00">Track</text>
</a>
</g>
</g>
<!-- Node2&#45;&gt;Node4 -->
<g id="edge3_Node000002_Node000004" class="edge">
<title>Node2&#45;&gt;Node4</title>
<g id="a_edge3_Node000002_Node000004"><a xlink:title=" ">
<path fill="none" stroke="#63b8ff" d="M593.07,-112.73C577.2,-116.28 560.61,-120 545.11,-123.47"/>
<polygon fill="#63b8ff" stroke="#63b8ff" points="593.85,-116.14 602.85,-110.54 592.32,-109.31 593.85,-116.14"/>
</a>
</g>
</g>
<!-- Node9 -->
<g id="Node000009" class="node">
<title>Node9</title>
<g id="a_Node000009"><a xlink:href="../../dd/d8b/classSubtitleManager.html#ab3f20c8c68c5b49e4facf27917afebf1" target="_top" xlink:title="Enable or disable subtitles.">
<polygon fill="white" stroke="#666666" points="555.5,-105 398.5,-105 398.5,-86 555.5,-86 555.5,-105"/>
<text text-anchor="middle" x="477" y="-93" font-family="Helvetica,sans-Serif" font-size="10.00">SubtitleManager::setEnabled</text>
</a>
</g>
</g>
<!-- Node2&#45;&gt;Node9 -->
<g id="edge8_Node000002_Node000009" class="edge">
<title>Node2&#45;&gt;Node9</title>
<g id="a_edge8_Node000002_Node000009"><a xlink:title=" ">
<path fill="none" stroke="#63b8ff" d="M583.75,-95.5C574.38,-95.5 564.89,-95.5 555.64,-95.5"/>
<polygon fill="#63b8ff" stroke="#63b8ff" points="583.84,-99 593.84,-95.5 583.84,-92 583.84,-99"/>
</a>
</g>
</g>
<!-- Node10 -->
<g id="Node000010" class="node">
<title>Node10</title>
<g id="a_Node000010"><a xlink:href="../../dd/d8b/classSubtitleManager.html#ad63084e066a1d502b65df16d198dcdf3" target="_top" xlink:title="Set subtitle timing offset.">
<polygon fill="white" stroke="#666666" points="553,-67.5 401,-67.5 401,-37.5 553,-37.5 553,-67.5"/>
<text text-anchor="start" x="409" y="-55.5" font-family="Helvetica,sans-Serif" font-size="10.00">SubtitleManager::setTiming</text>
<text text-anchor="middle" x="477" y="-44.5" font-family="Helvetica,sans-Serif" font-size="10.00">Offset</text>
</a>
</g>
</g>
<!-- Node2&#45;&gt;Node10 -->
<g id="edge10_Node000002_Node000010" class="edge">
<title>Node2&#45;&gt;Node10</title>
<g id="a_edge10_Node000002_Node000010"><a xlink:title=" ">
<path fill="none" stroke="#63b8ff" d="M593.07,-78.27C577.2,-74.72 560.61,-71 545.11,-67.53"/>
<polygon fill="#63b8ff" stroke="#63b8ff" points="592.32,-81.69 602.85,-80.46 593.85,-74.86 592.32,-81.69"/>
</a>
</g>
</g>
<!-- Node11 -->
<g id="Node000011" class="node">
<title>Node11</title>
<g id="a_Node000011"><a xlink:href="../../dd/d8b/classSubtitleManager.html#ac45fa6f5a951b8cee7eb85925fea20ec" target="_top" xlink:title="Shift subtitle timing for active track.">
<polygon fill="white" stroke="#666666" points="556,-19 398,-19 398,0 556,0 556,-19"/>
<text text-anchor="middle" x="477" y="-7" font-family="Helvetica,sans-Serif" font-size="10.00">SubtitleManager::shiftTiming</text>
</a>
</g>
</g>
<!-- Node2&#45;&gt;Node11 -->
<g id="edge12_Node000002_Node000011" class="edge">
<title>Node2&#45;&gt;Node11</title>
<g id="a_edge12_Node000002_Node000011"><a xlink:title=" ">
<path fill="none" stroke="#63b8ff" d="M640.65,-74.53C618.79,-59.77 587.7,-40.58 558,-28.5 548.74,-24.74 538.57,-21.61 528.67,-19.06"/>
<polygon fill="#63b8ff" stroke="#63b8ff" points="638.91,-77.58 649.14,-80.34 642.87,-71.8 638.91,-77.58"/>
</a>
</g>
</g>
<!-- Node5 -->
<g id="Node000005" class="node">
<title>Node5</title>
<g id="a_Node000005"><a xlink:href="../../dd/d8b/classSubtitleManager.html#a608442cfbbc105168de564e34f98d13c" target="_top" xlink:title="Load subtitle from content.">
<polygon fill="white" stroke="#666666" points="351,-196.5 190,-196.5 190,-166.5 351,-166.5 351,-196.5"/>
<text text-anchor="start" x="198" y="-184.5" font-family="Helvetica,sans-Serif" font-size="10.00">SubtitleManager::loadSubtitle</text>
<text text-anchor="middle" x="270.5" y="-173.5" font-family="Helvetica,sans-Serif" font-size="10.00">Content</text>
</a>
</g>
</g>
<!-- Node4&#45;&gt;Node5 -->
<g id="edge4_Node000004_Node000005" class="edge">
<title>Node4&#45;&gt;Node5</title>
<g id="a_edge4_Node000004_Node000005"><a xlink:title=" ">
<path fill="none" stroke="#63b8ff" d="M394.55,-155.63C377.49,-159.21 359.64,-162.97 342.98,-166.47"/>
<polygon fill="#63b8ff" stroke="#63b8ff" points="395.41,-159.02 404.48,-153.54 393.97,-152.17 395.41,-159.02"/>
</a>
</g>
</g>
<!-- Node6 -->
<g id="Node000006" class="node">
<title>Node6</title>
<g id="a_Node000006"><a xlink:href="../../dd/d8b/classSubtitleManager.html#a8b6d9ea90c799260111c17b60b4d4e2c" target="_top" xlink:title="Load subtitle file.">
<polygon fill="white" stroke="#666666" points="360,-148 181,-148 181,-129 360,-129 360,-148"/>
<text text-anchor="middle" x="270.5" y="-136" font-family="Helvetica,sans-Serif" font-size="10.00">SubtitleManager::loadSubtitleFile</text>
</a>
</g>
</g>
<!-- Node4&#45;&gt;Node6 -->
<g id="edge5_Node000004_Node000006" class="edge">
<title>Node4&#45;&gt;Node6</title>
<g id="a_edge5_Node000004_Node000006"><a xlink:title=" ">
<path fill="none" stroke="#63b8ff" d="M392.36,-138.5C381.72,-138.5 370.8,-138.5 360.09,-138.5"/>
<polygon fill="#63b8ff" stroke="#63b8ff" points="392.46,-142 402.46,-138.5 392.46,-135 392.46,-142"/>
</a>
</g>
</g>
<!-- Node8 -->
<g id="Node000008" class="node">
<title>Node8</title>
<g id="a_Node000008"><a xlink:href="../../d9/dff/classSubtitleControlWidget.html#a6dbdfc2ebce1598ac0d4bc6411c85717" target="_top" xlink:title="Set subtitle manager.">
<polygon fill="white" stroke="#666666" points="332.5,-110.5 208.5,-110.5 208.5,-80.5 332.5,-80.5 332.5,-110.5"/>
<text text-anchor="start" x="216.5" y="-98.5" font-family="Helvetica,sans-Serif" font-size="10.00">SubtitleControlWidget</text>
<text text-anchor="middle" x="270.5" y="-87.5" font-family="Helvetica,sans-Serif" font-size="10.00">::setSubtitleManager</text>
</a>
</g>
</g>
<!-- Node4&#45;&gt;Node8 -->
<g id="edge7_Node000004_Node000008" class="edge">
<title>Node4&#45;&gt;Node8</title>
<g id="a_edge7_Node000004_Node000008"><a xlink:title=" ">
<path fill="none" stroke="#63b8ff" d="M394.49,-121.36C373.92,-117.04 352.18,-112.46 332.79,-108.39"/>
<polygon fill="#63b8ff" stroke="#63b8ff" points="393.97,-124.83 404.48,-123.46 395.41,-117.98 393.97,-124.83"/>
</a>
</g>
</g>
<!-- Node7 -->
<g id="Node000007" class="node">
<title>Node7</title>
<g id="a_Node000007"><a xlink:href="../../dd/d8b/classSubtitleManager.html#a09a785b7bd91cada546078cbe9337eda" target="_top" xlink:title="Handle media loaded.">
<polygon fill="white" stroke="#666666" points="145,-153.5 0,-153.5 0,-123.5 145,-123.5 145,-153.5"/>
<text text-anchor="start" x="8" y="-141.5" font-family="Helvetica,sans-Serif" font-size="10.00">SubtitleManager::onMedia</text>
<text text-anchor="middle" x="72.5" y="-130.5" font-family="Helvetica,sans-Serif" font-size="10.00">Loaded</text>
</a>
</g>
</g>
<!-- Node6&#45;&gt;Node7 -->
<g id="edge6_Node000006_Node000007" class="edge">
<title>Node6&#45;&gt;Node7</title>
<g id="a_edge6_Node000006_Node000007"><a xlink:title=" ">
<path fill="none" stroke="#63b8ff" d="M170.83,-138.5C162.19,-138.5 153.56,-138.5 145.2,-138.5"/>
<polygon fill="#63b8ff" stroke="#63b8ff" points="170.96,-142 180.96,-138.5 170.96,-135 170.96,-142"/>
</a>
</g>
</g>
<!-- Node9&#45;&gt;Node8 -->
<g id="edge9_Node000009_Node000008" class="edge">
<title>Node9&#45;&gt;Node8</title>
<g id="a_edge9_Node000009_Node000008"><a xlink:title=" ">
<path fill="none" stroke="#63b8ff" d="M388.33,-95.5C369.52,-95.5 350.04,-95.5 332.5,-95.5"/>
<polygon fill="#63b8ff" stroke="#63b8ff" points="388.4,-99 398.4,-95.5 388.4,-92 388.4,-99"/>
</a>
</g>
</g>
<!-- Node10&#45;&gt;Node8 -->
<g id="edge11_Node000010_Node000008" class="edge">
<title>Node10&#45;&gt;Node8</title>
<g id="a_edge11_Node000010_Node000008"><a xlink:title=" ">
<path fill="none" stroke="#63b8ff" d="M394.49,-69.64C373.92,-73.96 352.18,-78.54 332.79,-82.61"/>
<polygon fill="#63b8ff" stroke="#63b8ff" points="395.41,-73.02 404.48,-67.54 393.97,-66.17 395.41,-73.02"/>
</a>
</g>
</g>
</g>
</svg>
