<?xml version="1.0" encoding="UTF-8" standalone="no"?>
<!DOCTYPE svg PUBLIC "-//W3C//DTD SVG 1.1//EN"
 "http://www.w3.org/Graphics/SVG/1.1/DTD/svg11.dtd">
<!-- Generated by graphviz version 2.43.0 (0)
 -->
<!-- Title: SubtitleManager::validateSubtitleFile Pages: 1 -->
<svg width="547pt" height="38pt"
 viewBox="0.00 0.00 547.00 38.00" xmlns="http://www.w3.org/2000/svg" xmlns:xlink="http://www.w3.org/1999/xlink">
<g id="graph0" class="graph" transform="scale(1 1) rotate(0) translate(4 34)">
<title>SubtitleManager::validateSubtitleFile</title>
<!-- Node1 -->
<g id="Node000001" class="node">
<title>Node1</title>
<g id="a_Node000001"><a xlink:title="Validate subtitle file for security.">
<polygon fill="#999999" stroke="#666666" points="539,-30 396,-30 396,0 539,0 539,-30"/>
<text text-anchor="start" x="404" y="-18" font-family="Helvetica,sans-Serif" font-size="10.00">SubtitleManager::validate</text>
<text text-anchor="middle" x="467.5" y="-7" font-family="Helvetica,sans-Serif" font-size="10.00">SubtitleFile</text>
</a>
</g>
</g>
<!-- Node2 -->
<g id="Node000002" class="node">
<title>Node2</title>
<g id="a_Node000002"><a xlink:href="../../dd/d8b/classSubtitleManager.html#a8b6d9ea90c799260111c17b60b4d4e2c" target="_top" xlink:title="Load subtitle file.">
<polygon fill="white" stroke="#666666" points="360,-24.5 181,-24.5 181,-5.5 360,-5.5 360,-24.5"/>
<text text-anchor="middle" x="270.5" y="-12.5" font-family="Helvetica,sans-Serif" font-size="10.00">SubtitleManager::loadSubtitleFile</text>
</a>
</g>
</g>
<!-- Node1&#45;&gt;Node2 -->
<g id="edge1_Node000001_Node000002" class="edge">
<title>Node1&#45;&gt;Node2</title>
<g id="a_edge1_Node000001_Node000002"><a xlink:title=" ">
<path fill="none" stroke="#63b8ff" d="M385.69,-15C377.29,-15 368.73,-15 360.25,-15"/>
<polygon fill="#63b8ff" stroke="#63b8ff" points="385.82,-18.5 395.82,-15 385.82,-11.5 385.82,-18.5"/>
</a>
</g>
</g>
<!-- Node3 -->
<g id="Node000003" class="node">
<title>Node3</title>
<g id="a_Node000003"><a xlink:href="../../dd/d8b/classSubtitleManager.html#a09a785b7bd91cada546078cbe9337eda" target="_top" xlink:title="Handle media loaded.">
<polygon fill="white" stroke="#666666" points="145,-30 0,-30 0,0 145,0 145,-30"/>
<text text-anchor="start" x="8" y="-18" font-family="Helvetica,sans-Serif" font-size="10.00">SubtitleManager::onMedia</text>
<text text-anchor="middle" x="72.5" y="-7" font-family="Helvetica,sans-Serif" font-size="10.00">Loaded</text>
</a>
</g>
</g>
<!-- Node2&#45;&gt;Node3 -->
<g id="edge2_Node000002_Node000003" class="edge">
<title>Node2&#45;&gt;Node3</title>
<g id="a_edge2_Node000002_Node000003"><a xlink:title=" ">
<path fill="none" stroke="#63b8ff" d="M170.83,-15C162.19,-15 153.56,-15 145.2,-15"/>
<polygon fill="#63b8ff" stroke="#63b8ff" points="170.96,-18.5 180.96,-15 170.96,-11.5 170.96,-18.5"/>
</a>
</g>
</g>
</g>
</svg>
