<?xml version="1.0" encoding="UTF-8" standalone="no"?>
<!DOCTYPE svg PUBLIC "-//W3C//DTD SVG 1.1//EN"
 "http://www.w3.org/Graphics/SVG/1.1/DTD/svg11.dtd">
<!-- Generated by graphviz version 2.43.0 (0)
 -->
<!-- Title: SubtitleManager::activeTrackChanged Pages: 1 -->
<svg width="768pt" height="124pt"
 viewBox="0.00 0.00 768.00 124.00" xmlns="http://www.w3.org/2000/svg" xmlns:xlink="http://www.w3.org/1999/xlink">
<g id="graph0" class="graph" transform="scale(1 1) rotate(0) translate(4 120)">
<title>SubtitleManager::activeTrackChanged</title>
<!-- Node1 -->
<g id="Node000001" class="node">
<title>Node1</title>
<g id="a_Node000001"><a xlink:title="Emitted when active track changes.">
<polygon fill="#999999" stroke="#666666" points="760,-73 602,-73 602,-43 760,-43 760,-73"/>
<text text-anchor="start" x="610" y="-61" font-family="Helvetica,sans-Serif" font-size="10.00">SubtitleManager::activeTrack</text>
<text text-anchor="middle" x="681" y="-50" font-family="Helvetica,sans-Serif" font-size="10.00">Changed</text>
</a>
</g>
</g>
<!-- Node2 -->
<g id="Node000002" class="node">
<title>Node2</title>
<g id="a_Node000002"><a xlink:href="../../dd/d8b/classSubtitleManager.html#a179b440ce4fad771a799a57fdac66e73" target="_top" xlink:title="Clear all loaded subtitle tracks.">
<polygon fill="white" stroke="#666666" points="566,-110.5 396,-110.5 396,-91.5 566,-91.5 566,-110.5"/>
<text text-anchor="middle" x="481" y="-98.5" font-family="Helvetica,sans-Serif" font-size="10.00">SubtitleManager::clearSubtitles</text>
</a>
</g>
</g>
<!-- Node1&#45;&gt;Node2 -->
<g id="edge1_Node000001_Node000002" class="edge">
<title>Node1&#45;&gt;Node2</title>
<g id="a_edge1_Node000001_Node000002"><a xlink:title=" ">
<path fill="none" stroke="#63b8ff" d="M600.7,-75.22C575.18,-80.76 547.85,-86.7 525.85,-91.48"/>
<polygon fill="#63b8ff" stroke="#63b8ff" points="601.72,-78.58 610.75,-73.04 600.23,-71.74 601.72,-78.58"/>
</a>
</g>
</g>
<!-- Node3 -->
<g id="Node000003" class="node">
<title>Node3</title>
<g id="a_Node000003"><a xlink:href="../../dd/d8b/classSubtitleManager.html#af2da2cbc2883cf667f623f09ebf9ba86" target="_top" xlink:title="Set active subtitle track.">
<polygon fill="white" stroke="#666666" points="555.5,-73 406.5,-73 406.5,-43 555.5,-43 555.5,-73"/>
<text text-anchor="start" x="414.5" y="-61" font-family="Helvetica,sans-Serif" font-size="10.00">SubtitleManager::setActive</text>
<text text-anchor="middle" x="481" y="-50" font-family="Helvetica,sans-Serif" font-size="10.00">Track</text>
</a>
</g>
</g>
<!-- Node1&#45;&gt;Node3 -->
<g id="edge2_Node000001_Node000003" class="edge">
<title>Node1&#45;&gt;Node3</title>
<g id="a_edge2_Node000001_Node000003"><a xlink:title=" ">
<path fill="none" stroke="#63b8ff" d="M591.73,-58C579.73,-58 567.52,-58 555.82,-58"/>
<polygon fill="#63b8ff" stroke="#63b8ff" points="591.75,-61.5 601.75,-58 591.75,-54.5 591.75,-61.5"/>
</a>
</g>
</g>
<!-- Node7 -->
<g id="Node000007" class="node">
<title>Node7</title>
<g id="a_Node000007"><a xlink:href="../../d9/dff/classSubtitleControlWidget.html#a6dbdfc2ebce1598ac0d4bc6411c85717" target="_top" xlink:title="Set subtitle manager.">
<polygon fill="white" stroke="#666666" points="332.5,-30 208.5,-30 208.5,0 332.5,0 332.5,-30"/>
<text text-anchor="start" x="216.5" y="-18" font-family="Helvetica,sans-Serif" font-size="10.00">SubtitleControlWidget</text>
<text text-anchor="middle" x="270.5" y="-7" font-family="Helvetica,sans-Serif" font-size="10.00">::setSubtitleManager</text>
</a>
</g>
</g>
<!-- Node1&#45;&gt;Node7 -->
<g id="edge7_Node000001_Node000007" class="edge">
<title>Node1&#45;&gt;Node7</title>
<g id="a_edge7_Node000001_Node000007"><a xlink:title=" ">
<path fill="none" stroke="#63b8ff" d="M606.52,-40.92C593.1,-38.26 579.17,-35.8 566,-34 485.8,-23.03 392.41,-18.36 332.67,-16.4"/>
<polygon fill="#63b8ff" stroke="#63b8ff" points="606.17,-44.42 616.67,-42.99 607.57,-37.56 606.17,-44.42"/>
</a>
</g>
</g>
<!-- Node4 -->
<g id="Node000004" class="node">
<title>Node4</title>
<g id="a_Node000004"><a xlink:href="../../dd/d8b/classSubtitleManager.html#a608442cfbbc105168de564e34f98d13c" target="_top" xlink:title="Load subtitle from content.">
<polygon fill="white" stroke="#666666" points="351,-116 190,-116 190,-86 351,-86 351,-116"/>
<text text-anchor="start" x="198" y="-104" font-family="Helvetica,sans-Serif" font-size="10.00">SubtitleManager::loadSubtitle</text>
<text text-anchor="middle" x="270.5" y="-93" font-family="Helvetica,sans-Serif" font-size="10.00">Content</text>
</a>
</g>
</g>
<!-- Node3&#45;&gt;Node4 -->
<g id="edge3_Node000003_Node000004" class="edge">
<title>Node3&#45;&gt;Node4</title>
<g id="a_edge3_Node000003_Node000004"><a xlink:title=" ">
<path fill="none" stroke="#63b8ff" d="M396.95,-75.13C379.57,-78.71 361.36,-82.47 344.38,-85.97"/>
<polygon fill="#63b8ff" stroke="#63b8ff" points="397.99,-78.49 407.08,-73.04 396.58,-71.63 397.99,-78.49"/>
</a>
</g>
</g>
<!-- Node5 -->
<g id="Node000005" class="node">
<title>Node5</title>
<g id="a_Node000005"><a xlink:href="../../dd/d8b/classSubtitleManager.html#a8b6d9ea90c799260111c17b60b4d4e2c" target="_top" xlink:title="Load subtitle file.">
<polygon fill="white" stroke="#666666" points="360,-67.5 181,-67.5 181,-48.5 360,-48.5 360,-67.5"/>
<text text-anchor="middle" x="270.5" y="-55.5" font-family="Helvetica,sans-Serif" font-size="10.00">SubtitleManager::loadSubtitleFile</text>
</a>
</g>
</g>
<!-- Node3&#45;&gt;Node5 -->
<g id="edge4_Node000003_Node000005" class="edge">
<title>Node3&#45;&gt;Node5</title>
<g id="a_edge4_Node000003_Node000005"><a xlink:title=" ">
<path fill="none" stroke="#63b8ff" d="M396.16,-58C384.28,-58 372.04,-58 360.07,-58"/>
<polygon fill="#63b8ff" stroke="#63b8ff" points="396.49,-61.5 406.49,-58 396.49,-54.5 396.49,-61.5"/>
</a>
</g>
</g>
<!-- Node3&#45;&gt;Node7 -->
<g id="edge6_Node000003_Node000007" class="edge">
<title>Node3&#45;&gt;Node7</title>
<g id="a_edge6_Node000003_Node000007"><a xlink:title=" ">
<path fill="none" stroke="#63b8ff" d="M397.27,-40.94C375.71,-36.49 352.86,-31.78 332.63,-27.61"/>
<polygon fill="#63b8ff" stroke="#63b8ff" points="396.58,-44.37 407.08,-42.96 397.99,-37.51 396.58,-44.37"/>
</a>
</g>
</g>
<!-- Node6 -->
<g id="Node000006" class="node">
<title>Node6</title>
<g id="a_Node000006"><a xlink:href="../../dd/d8b/classSubtitleManager.html#a09a785b7bd91cada546078cbe9337eda" target="_top" xlink:title="Handle media loaded.">
<polygon fill="white" stroke="#666666" points="145,-73 0,-73 0,-43 145,-43 145,-73"/>
<text text-anchor="start" x="8" y="-61" font-family="Helvetica,sans-Serif" font-size="10.00">SubtitleManager::onMedia</text>
<text text-anchor="middle" x="72.5" y="-50" font-family="Helvetica,sans-Serif" font-size="10.00">Loaded</text>
</a>
</g>
</g>
<!-- Node5&#45;&gt;Node6 -->
<g id="edge5_Node000005_Node000006" class="edge">
<title>Node5&#45;&gt;Node6</title>
<g id="a_edge5_Node000005_Node000006"><a xlink:title=" ">
<path fill="none" stroke="#63b8ff" d="M170.83,-58C162.19,-58 153.56,-58 145.2,-58"/>
<polygon fill="#63b8ff" stroke="#63b8ff" points="170.96,-61.5 180.96,-58 170.96,-54.5 170.96,-61.5"/>
</a>
</g>
</g>
</g>
</svg>
