<?xml version="1.0" encoding="UTF-8" standalone="no"?>
<!DOCTYPE svg PUBLIC "-//W3C//DTD SVG 1.1//EN"
 "http://www.w3.org/Graphics/SVG/1.1/DTD/svg11.dtd">
<!-- Generated by graphviz version 2.43.0 (0)
 -->
<!-- Title: SubtitleManager::loadSubtitleContent Pages: 1 -->
<!--zoomable 344 -->

<svg id="main" version="1.1" xmlns="http://www.w3.org/2000/svg" xmlns:xlink="http://www.w3.org/1999/xlink" xml:space="preserve" onload="init(evt)">
<style type="text/css"><![CDATA[
.node, .edge {opacity: 0.7;}
.node.selected, .edge.selected {opacity: 1;}
.edge:hover path { stroke: red; }
.edge:hover polygon { stroke: red; fill: red; }
]]></style>

<defs>
  <circle id="rim" cx="0" cy="0" r="7"/>
  <circle id="rim2" cx="0" cy="0" r="3.5"/>
  <g id="zoomPlus">
    <use xlink:href="#rim" fill="#404040"><set attributeName="fill" to="#808080" begin="zoomplus.mouseover" end="zoomplus.mouseout"/></use>
    <path d="M-4,0h8M0,-4v8" fill="none" stroke="white" stroke-width="1.5" pointer-events="none"/>
  </g>
  <g id="zoomMin">
    <use xlink:href="#rim" fill="#404040"><set attributeName="fill" to="#808080" begin="zoomminus.mouseover" end="zoomminus.mouseout"/></use>
    <path d="M-4,0h8" fill="none" stroke="white" stroke-width="1.5" pointer-events="none"/>
  </g>
  <g id="arrowUp" transform="translate(30 24)">
    <use xlink:href="#rim"/>
    <path pointer-events="none" fill="none" stroke="white" stroke-width="1.5" d="M0,-3.0v7 M-2.5,-0.5L0,-3.0L2.5,-0.5"/>
  </g>
  <g id="arrowRight" transform="rotate(90) translate(36 -43)">
    <use xlink:href="#rim"/>
    <path pointer-events="none" fill="none" stroke="white" stroke-width="1.5" d="M0,-3.0v7 M-2.5,-0.5L0,-3.0L2.5,-0.5"/>
  </g>
  <g id="arrowDown" transform="rotate(180) translate(-30 -48)">
    <use xlink:href="#rim"/>
    <path pointer-events="none" fill="none" stroke="white" stroke-width="1.5" d="M0,-3.0v7 M-2.5,-0.5L0,-3.0L2.5,-0.5"/>
  </g>
  <g id="arrowLeft" transform="rotate(270) translate(-36 17)">
    <use xlink:href="#rim"/>
    <path pointer-events="none" fill="none" stroke="white" stroke-width="1.5" d="M0,-3.0v7 M-2.5,-0.5L0,-3.0L2.5,-0.5"/>
  </g>
  <g id="resetDef">
    <use xlink:href="#rim2" fill="#404040"><set attributeName="fill" to="#808080" begin="reset.mouseover" end="reset.mouseout"/></use>
  </g>
</defs>
<script type="application/ecmascript">
var viewWidth = 937;
var viewHeight = 344;
var sectionId = 'dynsection-11';
</script>
<script type="application/ecmascript" xlink:href="../../svg.min.js"/>
<svg id="graph" class="graph">
<g id="viewport">
<title>SubtitleManager::loadSubtitleContent</title>
<!-- Node1 -->
<g id="Node000001" class="node">
<title>Node1</title>
<g id="a_Node000001"><a xlink:title="Load subtitle from content.">
<polygon fill="#999999" stroke="#666666" points="161,-179.5 0,-179.5 0,-149.5 161,-149.5 161,-179.5"/>
<text text-anchor="start" x="8" y="-167.5" font-family="Helvetica,sans-Serif" font-size="10.00">SubtitleManager::loadSubtitle</text>
<text text-anchor="middle" x="80.5" y="-156.5" font-family="Helvetica,sans-Serif" font-size="10.00">Content</text>
</a>
</g>
</g>
<!-- Node2 -->
<g id="Node000002" class="node">
<title>Node2</title>
<g id="a_Node000002"><a xlink:href="../../d3/dcc/classSubtitleParserFactory.html#a2f567ff5ee4df36347cd0943d634c99a" target="_top" xlink:title="Get parser for content.">
<polygon fill="white" stroke="#666666" points="337,-335.5 215,-335.5 215,-305.5 337,-305.5 337,-335.5"/>
<text text-anchor="start" x="223" y="-323.5" font-family="Helvetica,sans-Serif" font-size="10.00">SubtitleParserFactory</text>
<text text-anchor="middle" x="276" y="-312.5" font-family="Helvetica,sans-Serif" font-size="10.00">::getParserForContent</text>
</a>
</g>
</g>
<!-- Node1&#45;&gt;Node2 -->
<g id="edge1_Node000001_Node000002" class="edge">
<title>Node1&#45;&gt;Node2</title>
<g id="a_edge1_Node000001_Node000002"><a xlink:title=" ">
<path fill="none" stroke="#63b8ff" d="M90.62,-179.59C107.92,-206.95 148.2,-264.86 197,-296.5 199.73,-298.27 202.61,-299.92 205.57,-301.45"/>
<polygon fill="#63b8ff" stroke="#63b8ff" points="204.15,-304.65 214.69,-305.7 207.11,-298.31 204.15,-304.65"/>
</a>
</g>
</g>
<!-- Node3 -->
<g id="Node000003" class="node">
<title>Node3</title>
<g id="a_Node000003"><a xlink:href="../../d3/dcc/classSubtitleParserFactory.html#a7f0b9aeb0fe3f5226c65f3bacf024f0b" target="_top" xlink:title="Get parser for file extension.">
<polygon fill="white" stroke="#666666" points="341.5,-287.5 210.5,-287.5 210.5,-257.5 341.5,-257.5 341.5,-287.5"/>
<text text-anchor="start" x="218.5" y="-275.5" font-family="Helvetica,sans-Serif" font-size="10.00">SubtitleParserFactory</text>
<text text-anchor="middle" x="276" y="-264.5" font-family="Helvetica,sans-Serif" font-size="10.00">::getParserForExtension</text>
</a>
</g>
</g>
<!-- Node1&#45;&gt;Node3 -->
<g id="edge2_Node000001_Node000003" class="edge">
<title>Node1&#45;&gt;Node3</title>
<g id="a_edge2_Node000001_Node000003"><a xlink:title=" ">
<path fill="none" stroke="#63b8ff" d="M98.33,-179.54C119.83,-198.07 158.86,-229.43 197,-248.5 200.78,-250.39 204.73,-252.16 208.77,-253.82"/>
<polygon fill="#63b8ff" stroke="#63b8ff" points="207.73,-257.17 218.32,-257.5 210.24,-250.64 207.73,-257.17"/>
</a>
</g>
</g>
<!-- Node4 -->
<g id="Node000004" class="node">
<title>Node4</title>
<g id="a_Node000004"><a xlink:href="../../d3/dc3/classISubtitleParser.html#a6691e58de259c11293fff33282ae699c" target="_top" xlink:title="Parse subtitle content and return subtitle track.">
<polygon fill="white" stroke="#666666" points="355,-239 197,-239 197,-220 355,-220 355,-239"/>
<text text-anchor="middle" x="276" y="-227" font-family="Helvetica,sans-Serif" font-size="10.00">ISubtitleParser::parseContent</text>
</a>
</g>
</g>
<!-- Node1&#45;&gt;Node4 -->
<g id="edge3_Node000001_Node000004" class="edge">
<title>Node1&#45;&gt;Node4</title>
<g id="a_edge3_Node000001_Node000004"><a xlink:title=" ">
<path fill="none" stroke="#63b8ff" d="M115.66,-179.57C138.41,-189.24 169.14,-201.61 197,-210.5 204.74,-212.97 213,-215.3 221.14,-217.43"/>
<polygon fill="#63b8ff" stroke="#63b8ff" points="220.42,-220.85 230.97,-219.92 222.14,-214.07 220.42,-220.85"/>
</a>
</g>
</g>
<!-- Node5 -->
<g id="Node000005" class="node">
<title>Node5</title>
<g id="a_Node000005"><a xlink:href="../../dd/d8b/classSubtitleManager.html#af2da2cbc2883cf667f623f09ebf9ba86" target="_top" xlink:title="Set active subtitle track.">
<polygon fill="white" stroke="#666666" points="350.5,-201.5 201.5,-201.5 201.5,-171.5 350.5,-171.5 350.5,-201.5"/>
<text text-anchor="start" x="209.5" y="-189.5" font-family="Helvetica,sans-Serif" font-size="10.00">SubtitleManager::setActive</text>
<text text-anchor="middle" x="276" y="-178.5" font-family="Helvetica,sans-Serif" font-size="10.00">Track</text>
</a>
</g>
</g>
<!-- Node1&#45;&gt;Node5 -->
<g id="edge4_Node000001_Node000005" class="edge">
<title>Node1&#45;&gt;Node5</title>
<g id="a_edge4_Node000001_Node000005"><a xlink:title=" ">
<path fill="none" stroke="#63b8ff" d="M161.04,-173.54C171.05,-174.68 181.31,-175.85 191.38,-176.99"/>
<polygon fill="#63b8ff" stroke="#63b8ff" points="191.03,-180.48 201.36,-178.13 191.82,-173.52 191.03,-180.48"/>
</a>
</g>
</g>
<!-- Node11 -->
<g id="Node000011" class="node">
<title>Node11</title>
<g id="a_Node000011"><a xlink:href="../../d1/de3/classSubtitleTrack.html#ae75b560fd9d03ac98f727af466a939c1" target="_top" xlink:title=" ">
<polygon fill="white" stroke="#666666" points="337,-153 215,-153 215,-134 337,-134 337,-153"/>
<text text-anchor="middle" x="276" y="-141" font-family="Helvetica,sans-Serif" font-size="10.00">SubtitleTrack::setTitle</text>
</a>
</g>
</g>
<!-- Node1&#45;&gt;Node11 -->
<g id="edge10_Node000001_Node000011" class="edge">
<title>Node1&#45;&gt;Node11</title>
<g id="a_edge10_Node000001_Node000011"><a xlink:title=" ">
<path fill="none" stroke="#63b8ff" d="M161.04,-155.87C175.55,-154.29 190.6,-152.66 204.81,-151.12"/>
<polygon fill="#63b8ff" stroke="#63b8ff" points="205.43,-154.57 215,-150.01 204.68,-147.61 205.43,-154.57"/>
</a>
</g>
</g>
<!-- Node13 -->
<g id="Node000013" class="node">
<title>Node13</title>
<g id="a_Node000013"><a xlink:href="../../dd/d8b/classSubtitleManager.html#aa7d8609a88bee11c0eb5499d723bc717" target="_top" xlink:title="Emitted when subtitle track is loaded.">
<polygon fill="white" stroke="#666666" points="346,-115.5 206,-115.5 206,-85.5 346,-85.5 346,-115.5"/>
<text text-anchor="start" x="214" y="-103.5" font-family="Helvetica,sans-Serif" font-size="10.00">SubtitleManager::subtitle</text>
<text text-anchor="middle" x="276" y="-92.5" font-family="Helvetica,sans-Serif" font-size="10.00">TrackLoaded</text>
</a>
</g>
</g>
<!-- Node1&#45;&gt;Node13 -->
<g id="edge12_Node000001_Node000013" class="edge">
<title>Node1&#45;&gt;Node13</title>
<g id="a_edge12_Node000001_Node000013"><a xlink:title=" ">
<path fill="none" stroke="#63b8ff" d="M123.89,-149.42C145.68,-141.77 172.69,-132.45 197,-124.5 202.92,-122.56 209.11,-120.59 215.3,-118.64"/>
<polygon fill="#63b8ff" stroke="#63b8ff" points="216.49,-121.93 224.99,-115.61 214.4,-115.25 216.49,-121.93"/>
</a>
</g>
</g>
<!-- Node14 -->
<g id="Node000014" class="node">
<title>Node14</title>
<g id="a_Node000014"><a xlink:href="../../d2/dac/structSubtitleLoadResult.html#a052cb7c230f04d6d77ce16328fba413e" target="_top" xlink:title=" ">
<polygon fill="white" stroke="#666666" points="330,-67.5 222,-67.5 222,-37.5 330,-37.5 330,-67.5"/>
<text text-anchor="start" x="230" y="-55.5" font-family="Helvetica,sans-Serif" font-size="10.00">SubtitleLoadResult</text>
<text text-anchor="middle" x="276" y="-44.5" font-family="Helvetica,sans-Serif" font-size="10.00">::summary</text>
</a>
</g>
</g>
<!-- Node1&#45;&gt;Node14 -->
<g id="edge13_Node000001_Node000014" class="edge">
<title>Node1&#45;&gt;Node14</title>
<g id="a_edge13_Node000001_Node000014"><a xlink:title=" ">
<path fill="none" stroke="#63b8ff" d="M97.45,-149.37C118.65,-130 157.99,-96.55 197,-76.5 201.88,-73.99 207.07,-71.69 212.37,-69.59"/>
<polygon fill="#63b8ff" stroke="#63b8ff" points="213.81,-72.79 221.97,-66.04 211.38,-66.23 213.81,-72.79"/>
</a>
</g>
</g>
<!-- Node15 -->
<g id="Node000015" class="node">
<title>Node15</title>
<g id="a_Node000015"><a xlink:href="../../d1/de3/classSubtitleTrack.html#a076bd609ae4ef5d621de6bcbcab084e9" target="_top" xlink:title="Get total duration of subtitle track.">
<polygon fill="white" stroke="#666666" points="351,-19 201,-19 201,0 351,0 351,-19"/>
<text text-anchor="middle" x="276" y="-7" font-family="Helvetica,sans-Serif" font-size="10.00">SubtitleTrack::totalDuration</text>
</a>
</g>
</g>
<!-- Node1&#45;&gt;Node15 -->
<g id="edge14_Node000001_Node000015" class="edge">
<title>Node1&#45;&gt;Node15</title>
<g id="a_edge14_Node000001_Node000015"><a xlink:title=" ">
<path fill="none" stroke="#63b8ff" d="M90.06,-149.11C106.72,-120.62 146.38,-59.73 197,-28.5 200.44,-26.38 204.1,-24.49 207.88,-22.82"/>
<polygon fill="#63b8ff" stroke="#63b8ff" points="209.45,-25.96 217.5,-19.08 206.92,-19.44 209.45,-25.96"/>
</a>
</g>
</g>
<!-- Node6 -->
<g id="Node000006" class="node">
<title>Node6</title>
<g id="a_Node000006"><a xlink:href="../../dd/d8b/classSubtitleManager.html#afa69f195a45d8c296995aed92c02759d" target="_top" xlink:title="Emitted when active track changes.">
<polygon fill="white" stroke="#666666" points="549,-249.5 391,-249.5 391,-219.5 549,-219.5 549,-249.5"/>
<text text-anchor="start" x="399" y="-237.5" font-family="Helvetica,sans-Serif" font-size="10.00">SubtitleManager::activeTrack</text>
<text text-anchor="middle" x="470" y="-226.5" font-family="Helvetica,sans-Serif" font-size="10.00">Changed</text>
</a>
</g>
</g>
<!-- Node5&#45;&gt;Node6 -->
<g id="edge5_Node000005_Node000006" class="edge">
<title>Node5&#45;&gt;Node6</title>
<g id="a_edge5_Node000005_Node000006"><a xlink:title=" ">
<path fill="none" stroke="#63b8ff" d="M337.22,-201.56C356.88,-206.47 378.87,-211.97 399.18,-217.04"/>
<polygon fill="#63b8ff" stroke="#63b8ff" points="398.44,-220.47 408.99,-219.5 400.14,-213.68 398.44,-220.47"/>
</a>
</g>
</g>
<!-- Node7 -->
<g id="Node000007" class="node">
<title>Node7</title>
<g id="a_Node000007"><a xlink:href="../../dd/d8b/classSubtitleManager.html#a0f7ec6b8d0765725ba1b72dbf6f4d784" target="_top" xlink:title="Handle media position change.">
<polygon fill="white" stroke="#666666" points="547,-201.5 393,-201.5 393,-171.5 547,-171.5 547,-201.5"/>
<text text-anchor="start" x="401" y="-189.5" font-family="Helvetica,sans-Serif" font-size="10.00">SubtitleManager::onPosition</text>
<text text-anchor="middle" x="470" y="-178.5" font-family="Helvetica,sans-Serif" font-size="10.00">Changed</text>
</a>
</g>
</g>
<!-- Node5&#45;&gt;Node7 -->
<g id="edge6_Node000005_Node000007" class="edge">
<title>Node5&#45;&gt;Node7</title>
<g id="a_edge6_Node000005_Node000007"><a xlink:title=" ">
<path fill="none" stroke="#63b8ff" d="M350.68,-186.5C361.18,-186.5 372.06,-186.5 382.77,-186.5"/>
<polygon fill="#63b8ff" stroke="#63b8ff" points="382.97,-190 392.97,-186.5 382.97,-183 382.97,-190"/>
</a>
</g>
</g>
<!-- Node8 -->
<g id="Node000008" class="node">
<title>Node8</title>
<g id="a_Node000008"><a xlink:href="../../dd/d8b/classSubtitleManager.html#a4da4d64818831616c79df498283f26b4" target="_top" xlink:title="Emitted when active subtitles change.">
<polygon fill="white" stroke="#666666" points="761,-225.5 585,-225.5 585,-195.5 761,-195.5 761,-225.5"/>
<text text-anchor="start" x="593" y="-213.5" font-family="Helvetica,sans-Serif" font-size="10.00">SubtitleManager::activeSubtitles</text>
<text text-anchor="middle" x="673" y="-202.5" font-family="Helvetica,sans-Serif" font-size="10.00">Changed</text>
</a>
</g>
</g>
<!-- Node7&#45;&gt;Node8 -->
<g id="edge7_Node000007_Node000008" class="edge">
<title>Node7&#45;&gt;Node8</title>
<g id="a_edge7_Node000007_Node000008"><a xlink:title=" ">
<path fill="none" stroke="#63b8ff" d="M547.28,-195.61C556.25,-196.68 565.49,-197.78 574.7,-198.88"/>
<polygon fill="#63b8ff" stroke="#63b8ff" points="574.32,-202.36 584.67,-200.07 575.15,-195.41 574.32,-202.36"/>
</a>
</g>
</g>
<!-- Node9 -->
<g id="Node000009" class="node">
<title>Node9</title>
<g id="a_Node000009"><a xlink:href="../../dd/d8b/classSubtitleManager.html#ab895587ae818bbf845af0852e617d74d" target="_top" xlink:title="Get active subtitle entries at current time.">
<polygon fill="white" stroke="#666666" points="747.5,-177.5 598.5,-177.5 598.5,-147.5 747.5,-147.5 747.5,-177.5"/>
<text text-anchor="start" x="606.5" y="-165.5" font-family="Helvetica,sans-Serif" font-size="10.00">SubtitleManager::getActive</text>
<text text-anchor="middle" x="673" y="-154.5" font-family="Helvetica,sans-Serif" font-size="10.00">Subtitles</text>
</a>
</g>
</g>
<!-- Node7&#45;&gt;Node9 -->
<g id="edge8_Node000007_Node000009" class="edge">
<title>Node7&#45;&gt;Node9</title>
<g id="a_edge8_Node000007_Node000009"><a xlink:title=" ">
<path fill="none" stroke="#63b8ff" d="M547.28,-177.39C560.64,-175.8 574.61,-174.13 588.17,-172.51"/>
<polygon fill="#63b8ff" stroke="#63b8ff" points="588.92,-175.95 598.43,-171.28 588.09,-168.99 588.92,-175.95"/>
</a>
</g>
</g>
<!-- Node10 -->
<g id="Node000010" class="node">
<title>Node10</title>
<g id="a_Node000010"><a xlink:href="../../d1/de3/classSubtitleTrack.html#abddc35798ef24393b10e0859eef65c90" target="_top" xlink:title="Get active subtitle entries at given time.">
<polygon fill="white" stroke="#666666" points="929,-177.5 797,-177.5 797,-147.5 929,-147.5 929,-177.5"/>
<text text-anchor="start" x="805" y="-165.5" font-family="Helvetica,sans-Serif" font-size="10.00">SubtitleTrack::getActive</text>
<text text-anchor="middle" x="863" y="-154.5" font-family="Helvetica,sans-Serif" font-size="10.00">Entries</text>
</a>
</g>
</g>
<!-- Node9&#45;&gt;Node10 -->
<g id="edge9_Node000009_Node000010" class="edge">
<title>Node9&#45;&gt;Node10</title>
<g id="a_edge9_Node000009_Node000010"><a xlink:title=" ">
<path fill="none" stroke="#63b8ff" d="M747.76,-162.5C760.59,-162.5 773.94,-162.5 786.8,-162.5"/>
<polygon fill="#63b8ff" stroke="#63b8ff" points="786.99,-166 796.99,-162.5 786.99,-159 786.99,-166"/>
</a>
</g>
</g>
<!-- Node12 -->
<g id="Node000012" class="node">
<title>Node12</title>
<g id="a_Node000012"><a xlink:href="../../d1/de3/classSubtitleTrack.html#a8418b7a532e9e21d4d1de910800691cc" target="_top" xlink:title=" ">
<polygon fill="white" stroke="#666666" points="522.5,-153 417.5,-153 417.5,-134 522.5,-134 522.5,-153"/>
<text text-anchor="middle" x="470" y="-141" font-family="Helvetica,sans-Serif" font-size="10.00">SubtitleTrack::title</text>
</a>
</g>
</g>
<!-- Node11&#45;&gt;Node12 -->
<g id="edge11_Node000011_Node000012" class="edge">
<title>Node11&#45;&gt;Node12</title>
<g id="a_edge11_Node000011_Node000012"><a xlink:title=" ">
<path fill="none" stroke="#63b8ff" d="M337.22,-143.5C359.54,-143.5 384.87,-143.5 407.31,-143.5"/>
<polygon fill="#63b8ff" stroke="#63b8ff" points="407.4,-147 417.4,-143.5 407.4,-140 407.4,-147"/>
</a>
</g>
</g>
</g>
</svg>

<g id="navigator" transform="translate(0 0)" fill="#404254">
  <rect fill="#f2f5e9" fill-opacity="0.5" stroke="#606060" stroke-width=".5" x="0" y="0" width="60" height="60"/>
  <use id="zoomplus" xlink:href="#zoomPlus" x="17" y="9" onmousedown="handleZoom(evt,'in')"/>
  <use id="zoomminus" xlink:href="#zoomMin" x="42" y="9" onmousedown="handleZoom(evt,'out')"/>
  <use id="reset" xlink:href="#resetDef" x="30" y="36" onmousedown="handleReset()"/>
   <use id="arrowup" xlink:href="#arrowUp" x="0" y="0" onmousedown="handlePan(0,-1)"/>
  <use id="arrowright" xlink:href="#arrowRight" x="0" y="0" onmousedown="handlePan(1,0)"/>
  <use id="arrowdown" xlink:href="#arrowDown" x="0" y="0" onmousedown="handlePan(0,1)"/>
  <use id="arrowleft" xlink:href="#arrowLeft" x="0" y="0" onmousedown="handlePan(-1,0)"/>
</g>
<svg viewBox="0 0 15 15" width="100%" height="30px" preserveAspectRatio="xMaxYMin meet">
 <g id="arrow_out" transform="scale(0.3 0.3)">
  <a xlink:href="classSubtitleManager_a608442cfbbc105168de564e34f98d13c_cgraph_org.svg" target="_base">
   <rect id="button" ry="5" rx="5" y="6" x="6" height="38" width="38"
        fill="#f2f5e9" fill-opacity="0.5" stroke="#606060" stroke-width="1.0"/>
   <path id="arrow"
     d="M 11.500037,31.436501 C 11.940474,20.09759 22.043105,11.32322 32.158766,21.979434 L 37.068811,17.246167 C 37.068811,17.246167 37.088388,32 37.088388,32 L 22.160133,31.978069 C 22.160133,31.978069 26.997745,27.140456 26.997745,27.140456 C 18.528582,18.264221 13.291696,25.230495 11.500037,31.436501 z"
     style="fill:#404040;"/>
  </a>
 </g>
</svg>

<style type='text/css'>
<![CDATA[
[data-mouse-over-selected='false'] { opacity: 0.7; }
[data-mouse-over-selected='true']  { opacity: 1.0; }
]]>
</style>
<script type="application/ecmascript"><![CDATA[
document.addEventListener('DOMContentLoaded', (event) => {
  highlightEdges();
  highlightAdjacentNodes();
});
]]></script>
</svg>
