<?xml version="1.0" encoding="UTF-8" standalone="no"?>
<!DOCTYPE svg PUBLIC "-//W3C//DTD SVG 1.1//EN"
 "http://www.w3.org/Graphics/SVG/1.1/DTD/svg11.dtd">
<!-- Generated by graphviz version 2.43.0 (0)
 -->
<!-- Title: include/data/PlaylistManager.h Pages: 1 -->
<svg width="637pt" height="137pt"
 viewBox="0.00 0.00 636.50 137.00" xmlns="http://www.w3.org/2000/svg" xmlns:xlink="http://www.w3.org/1999/xlink">
<g id="graph0" class="graph" transform="scale(1 1) rotate(0) translate(4 133)">
<title>include/data/PlaylistManager.h</title>
<!-- Node1 -->
<g id="Node000001" class="node">
<title>Node1</title>
<g id="a_Node000001"><a xlink:title=" ">
<polygon fill="#999999" stroke="#666666" points="374.5,-129 207.5,-129 207.5,-110 374.5,-110 374.5,-129"/>
<text text-anchor="middle" x="291" y="-117" font-family="Helvetica,sans-Serif" font-size="10.00">include/data/PlaylistManager.h</text>
</a>
</g>
</g>
<!-- Node2 -->
<g id="Node000002" class="node">
<title>Node2</title>
<g id="a_Node000002"><a xlink:href="../../dc/dbc/LibraryWidget_8h.html" target="_top" xlink:title=" ">
<polygon fill="white" stroke="#666666" points="213,-74 69,-74 69,-55 213,-55 213,-74"/>
<text text-anchor="middle" x="141" y="-62" font-family="Helvetica,sans-Serif" font-size="10.00">include/ui/LibraryWidget.h</text>
</a>
</g>
</g>
<!-- Node1&#45;&gt;Node2 -->
<g id="edge1_Node000001_Node000002" class="edge">
<title>Node1&#45;&gt;Node2</title>
<g id="a_edge1_Node000001_Node000002"><a xlink:title=" ">
<path fill="none" stroke="#63b8ff" d="M257.18,-106.55C229.32,-96.71 190.49,-82.98 165.54,-74.17"/>
<polygon fill="#63b8ff" stroke="#63b8ff" points="256.31,-109.95 266.9,-109.98 258.64,-103.35 256.31,-109.95"/>
</a>
</g>
</g>
<!-- Node3 -->
<g id="Node000003" class="node">
<title>Node3</title>
<g id="a_Node000003"><a xlink:href="../../d9/de2/LibraryWidget_8cpp.html" target="_top" xlink:title=" ">
<polygon fill="white" stroke="#666666" points="134,-19 0,-19 0,0 134,0 134,-19"/>
<text text-anchor="middle" x="67" y="-7" font-family="Helvetica,sans-Serif" font-size="10.00">src/ui/LibraryWidget.cpp</text>
</a>
</g>
</g>
<!-- Node1&#45;&gt;Node3 -->
<g id="edge8_Node000001_Node000003" class="edge">
<title>Node1&#45;&gt;Node3</title>
<g id="a_edge8_Node000001_Node000003"><a xlink:title=" ">
<path fill="none" stroke="#63b8ff" d="M197.48,-112.4C141.4,-106.57 77.63,-95.35 60,-74 47.01,-58.26 56.31,-32.34 62.57,-19.01"/>
<polygon fill="#63b8ff" stroke="#63b8ff" points="197.19,-115.89 207.49,-113.39 197.89,-108.92 197.19,-115.89"/>
</a>
</g>
</g>
<!-- Node4 -->
<g id="Node000004" class="node">
<title>Node4</title>
<g id="a_Node000004"><a xlink:href="../../d3/db7/MainWindow_8cpp.html" target="_top" xlink:title=" ">
<polygon fill="white" stroke="#666666" points="305,-19 177,-19 177,0 305,0 305,-19"/>
<text text-anchor="middle" x="241" y="-7" font-family="Helvetica,sans-Serif" font-size="10.00">src/ui/MainWindow.cpp</text>
</a>
</g>
</g>
<!-- Node1&#45;&gt;Node4 -->
<g id="edge9_Node000001_Node000004" class="edge">
<title>Node1&#45;&gt;Node4</title>
<g id="a_edge9_Node000001_Node000004"><a xlink:title=" ">
<path fill="none" stroke="#63b8ff" d="M277.4,-101.7C271.42,-93.69 264.7,-83.73 260,-74 251,-55.35 245.26,-31.53 242.65,-19.03"/>
<polygon fill="#63b8ff" stroke="#63b8ff" points="274.8,-104.06 283.69,-109.82 280.33,-99.77 274.8,-104.06"/>
</a>
</g>
</g>
<!-- Node5 -->
<g id="Node000005" class="node">
<title>Node5</title>
<g id="a_Node000005"><a xlink:href="../../d4/d80/PlaylistWidget_8h.html" target="_top" xlink:title=" ">
<polygon fill="white" stroke="#666666" points="415,-74 269,-74 269,-55 415,-55 415,-74"/>
<text text-anchor="middle" x="342" y="-62" font-family="Helvetica,sans-Serif" font-size="10.00">include/ui/PlaylistWidget.h</text>
</a>
</g>
</g>
<!-- Node1&#45;&gt;Node5 -->
<g id="edge4_Node000001_Node000005" class="edge">
<title>Node1&#45;&gt;Node5</title>
<g id="a_edge4_Node000001_Node000005"><a xlink:title=" ">
<path fill="none" stroke="#63b8ff" d="M306.38,-102.52C315.37,-93.18 326.36,-81.75 333.74,-74.09"/>
<polygon fill="#63b8ff" stroke="#63b8ff" points="303.83,-100.12 299.42,-109.75 308.88,-104.97 303.83,-100.12"/>
</a>
</g>
</g>
<!-- Node6 -->
<g id="Node000006" class="node">
<title>Node6</title>
<g id="a_Node000006"><a xlink:href="../../df/d3c/PlaylistWidget_8cpp.html" target="_top" xlink:title=" ">
<polygon fill="white" stroke="#666666" points="485.5,-19 348.5,-19 348.5,0 485.5,0 485.5,-19"/>
<text text-anchor="middle" x="417" y="-7" font-family="Helvetica,sans-Serif" font-size="10.00">src/ui/PlaylistWidget.cpp</text>
</a>
</g>
</g>
<!-- Node1&#45;&gt;Node6 -->
<g id="edge10_Node000001_Node000006" class="edge">
<title>Node1&#45;&gt;Node6</title>
<g id="a_edge10_Node000001_Node000006"><a xlink:title=" ">
<path fill="none" stroke="#63b8ff" d="M376.98,-106.75C395.34,-100.09 412.61,-89.82 424,-74 435.79,-57.62 427.28,-32.43 421.37,-19.24"/>
<polygon fill="#63b8ff" stroke="#63b8ff" points="375.73,-103.48 367.31,-109.91 377.9,-110.13 375.73,-103.48"/>
</a>
</g>
</g>
<!-- Node7 -->
<g id="Node000007" class="node">
<title>Node7</title>
<g id="a_Node000007"><a xlink:href="../../da/d2f/PlaylistManager_8cpp.html" target="_top" xlink:title=" ">
<polygon fill="white" stroke="#666666" points="628.5,-74 471.5,-74 471.5,-55 628.5,-55 628.5,-74"/>
<text text-anchor="middle" x="550" y="-62" font-family="Helvetica,sans-Serif" font-size="10.00">src/data/PlaylistManager.cpp</text>
</a>
</g>
</g>
<!-- Node1&#45;&gt;Node7 -->
<g id="edge7_Node000001_Node000007" class="edge">
<title>Node1&#45;&gt;Node7</title>
<g id="a_edge7_Node000001_Node000007"><a xlink:title=" ">
<path fill="none" stroke="#63b8ff" d="M342.6,-107.94C391.15,-98.01 462.94,-83.31 508.06,-74.08"/>
<polygon fill="#63b8ff" stroke="#63b8ff" points="341.71,-104.55 332.61,-109.98 343.11,-111.41 341.71,-104.55"/>
</a>
</g>
</g>
<!-- Node2&#45;&gt;Node3 -->
<g id="edge2_Node000002_Node000003" class="edge">
<title>Node2&#45;&gt;Node3</title>
<g id="a_edge2_Node000002_Node000003"><a xlink:title=" ">
<path fill="none" stroke="#63b8ff" d="M120.97,-49.15C107.59,-39.57 90.44,-27.29 79.11,-19.17"/>
<polygon fill="#63b8ff" stroke="#63b8ff" points="118.94,-52.01 129.11,-54.98 123.02,-46.32 118.94,-52.01"/>
</a>
</g>
</g>
<!-- Node2&#45;&gt;Node4 -->
<g id="edge3_Node000002_Node000004" class="edge">
<title>Node2&#45;&gt;Node4</title>
<g id="a_edge3_Node000002_Node000004"><a xlink:title=" ">
<path fill="none" stroke="#63b8ff" d="M166.03,-50.23C184.37,-40.51 208.74,-27.6 224.64,-19.17"/>
<polygon fill="#63b8ff" stroke="#63b8ff" points="164.26,-47.21 157.07,-54.98 167.54,-53.39 164.26,-47.21"/>
</a>
</g>
</g>
<!-- Node5&#45;&gt;Node4 -->
<g id="edge5_Node000005_Node000004" class="edge">
<title>Node5&#45;&gt;Node4</title>
<g id="a_edge5_Node000005_Node000004"><a xlink:title=" ">
<path fill="none" stroke="#63b8ff" d="M316.72,-50.23C298.2,-40.51 273.58,-27.6 257.52,-19.17"/>
<polygon fill="#63b8ff" stroke="#63b8ff" points="315.29,-53.44 325.77,-54.98 318.54,-47.24 315.29,-53.44"/>
</a>
</g>
</g>
<!-- Node5&#45;&gt;Node6 -->
<g id="edge6_Node000005_Node000006" class="edge">
<title>Node5&#45;&gt;Node6</title>
<g id="a_edge6_Node000005_Node000006"><a xlink:title=" ">
<path fill="none" stroke="#63b8ff" d="M362.31,-49.15C375.86,-39.57 393.24,-27.29 404.73,-19.17"/>
<polygon fill="#63b8ff" stroke="#63b8ff" points="360.2,-46.36 354.05,-54.98 364.24,-52.07 360.2,-46.36"/>
</a>
</g>
</g>
</g>
</svg>
