<?xml version="1.0" encoding="UTF-8" standalone="no"?>
<!DOCTYPE svg PUBLIC "-//W3C//DTD SVG 1.1//EN"
 "http://www.w3.org/Graphics/SVG/1.1/DTD/svg11.dtd">
<!-- Generated by graphviz version 2.43.0 (0)
 -->
<!-- Title: include/ui/MediaInfoWidget.h Pages: 1 -->
<svg width="1310pt" height="192pt"
 viewBox="0.00 0.00 1310.00 192.00" xmlns="http://www.w3.org/2000/svg" xmlns:xlink="http://www.w3.org/1999/xlink">
<g id="graph0" class="graph" transform="scale(1 1) rotate(0) translate(4 188)">
<title>include/ui/MediaInfoWidget.h</title>
<!-- Node1 -->
<g id="Node000001" class="node">
<title>Node1</title>
<g id="a_Node000001"><a xlink:title=" ">
<polygon fill="#999999" stroke="#666666" points="512,-184 353,-184 353,-165 512,-165 512,-184"/>
<text text-anchor="middle" x="432.5" y="-172" font-family="Helvetica,sans-Serif" font-size="10.00">include/ui/MediaInfoWidget.h</text>
</a>
</g>
</g>
<!-- Node2 -->
<g id="Node000002" class="node">
<title>Node2</title>
<g id="a_Node000002"><a xlink:title=" ">
<polygon fill="#e0e0e0" stroke="#999999" points="59,-129 0,-129 0,-110 59,-110 59,-129"/>
<text text-anchor="middle" x="29.5" y="-117" font-family="Helvetica,sans-Serif" font-size="10.00">QWidget</text>
</a>
</g>
</g>
<!-- Node1&#45;&gt;Node2 -->
<g id="edge1_Node000001_Node000002" class="edge">
<title>Node1&#45;&gt;Node2</title>
<g id="a_edge1_Node000001_Node000002"><a xlink:title=" ">
<path fill="none" stroke="#63b8ff" d="M352.66,-165.9C281.02,-158.58 172.81,-146.31 69.26,-128.98"/>
<polygon fill="#63b8ff" stroke="#63b8ff" points="69.7,-125.5 59.26,-127.28 68.53,-132.4 69.7,-125.5"/>
</a>
</g>
</g>
<!-- Node3 -->
<g id="Node000003" class="node">
<title>Node3</title>
<g id="a_Node000003"><a xlink:title=" ">
<polygon fill="#e0e0e0" stroke="#999999" points="127.5,-129 77.5,-129 77.5,-110 127.5,-110 127.5,-129"/>
<text text-anchor="middle" x="102.5" y="-117" font-family="Helvetica,sans-Serif" font-size="10.00">QLabel</text>
</a>
</g>
</g>
<!-- Node1&#45;&gt;Node3 -->
<g id="edge2_Node000001_Node000003" class="edge">
<title>Node1&#45;&gt;Node3</title>
<g id="a_edge2_Node000001_Node000003"><a xlink:title=" ">
<path fill="none" stroke="#63b8ff" d="M363.1,-164.98C305.19,-157.43 220.34,-145.35 137.52,-129.04"/>
<polygon fill="#63b8ff" stroke="#63b8ff" points="138.18,-125.6 127.69,-127.08 136.81,-132.47 138.18,-125.6"/>
</a>
</g>
</g>
<!-- Node4 -->
<g id="Node000004" class="node">
<title>Node4</title>
<g id="a_Node000004"><a xlink:title=" ">
<polygon fill="#e0e0e0" stroke="#999999" points="229,-129 146,-129 146,-110 229,-110 229,-129"/>
<text text-anchor="middle" x="187.5" y="-117" font-family="Helvetica,sans-Serif" font-size="10.00">QVBoxLayout</text>
</a>
</g>
</g>
<!-- Node1&#45;&gt;Node4 -->
<g id="edge3_Node000001_Node000004" class="edge">
<title>Node1&#45;&gt;Node4</title>
<g id="a_edge3_Node000001_Node000004"><a xlink:title=" ">
<path fill="none" stroke="#63b8ff" d="M393.14,-164.98C350.76,-155.82 283.24,-141.21 237.22,-131.26"/>
<polygon fill="#63b8ff" stroke="#63b8ff" points="237.69,-127.78 227.17,-129.08 236.21,-134.62 237.69,-127.78"/>
</a>
</g>
</g>
<!-- Node5 -->
<g id="Node000005" class="node">
<title>Node5</title>
<g id="a_Node000005"><a xlink:title=" ">
<polygon fill="#e0e0e0" stroke="#999999" points="330,-129 247,-129 247,-110 330,-110 330,-129"/>
<text text-anchor="middle" x="288.5" y="-117" font-family="Helvetica,sans-Serif" font-size="10.00">QHBoxLayout</text>
</a>
</g>
</g>
<!-- Node1&#45;&gt;Node5 -->
<g id="edge4_Node000001_Node000005" class="edge">
<title>Node1&#45;&gt;Node5</title>
<g id="a_edge4_Node000001_Node000005"><a xlink:title=" ">
<path fill="none" stroke="#63b8ff" d="M409.36,-164.98C385.68,-156.27 348.63,-142.63 321.79,-132.75"/>
<polygon fill="#63b8ff" stroke="#63b8ff" points="322.65,-129.34 312.06,-129.17 320.23,-135.91 322.65,-129.34"/>
</a>
</g>
</g>
<!-- Node6 -->
<g id="Node000006" class="node">
<title>Node6</title>
<g id="a_Node000006"><a xlink:title=" ">
<polygon fill="#e0e0e0" stroke="#999999" points="425,-129 348,-129 348,-110 425,-110 425,-129"/>
<text text-anchor="middle" x="386.5" y="-117" font-family="Helvetica,sans-Serif" font-size="10.00">QGridLayout</text>
</a>
</g>
</g>
<!-- Node1&#45;&gt;Node6 -->
<g id="edge5_Node000001_Node000006" class="edge">
<title>Node1&#45;&gt;Node6</title>
<g id="a_edge5_Node000001_Node000006"><a xlink:title=" ">
<path fill="none" stroke="#63b8ff" d="M424.9,-164.75C418.34,-157.18 408.68,-146.05 400.69,-136.84"/>
<polygon fill="#63b8ff" stroke="#63b8ff" points="403.15,-134.35 393.95,-129.09 397.87,-138.94 403.15,-134.35"/>
</a>
</g>
</g>
<!-- Node7 -->
<g id="Node000007" class="node">
<title>Node7</title>
<g id="a_Node000007"><a xlink:title=" ">
<polygon fill="#e0e0e0" stroke="#999999" points="515.5,-129 443.5,-129 443.5,-110 515.5,-110 515.5,-129"/>
<text text-anchor="middle" x="479.5" y="-117" font-family="Helvetica,sans-Serif" font-size="10.00">QGroupBox</text>
</a>
</g>
</g>
<!-- Node1&#45;&gt;Node7 -->
<g id="edge6_Node000001_Node000007" class="edge">
<title>Node1&#45;&gt;Node7</title>
<g id="a_edge6_Node000001_Node000007"><a xlink:title=" ">
<path fill="none" stroke="#63b8ff" d="M440.26,-164.75C446.97,-157.18 456.84,-146.05 465.01,-136.84"/>
<polygon fill="#63b8ff" stroke="#63b8ff" points="467.87,-138.89 471.88,-129.09 462.63,-134.25 467.87,-138.89"/>
</a>
</g>
</g>
<!-- Node8 -->
<g id="Node000008" class="node">
<title>Node8</title>
<g id="a_Node000008"><a xlink:title=" ">
<polygon fill="#e0e0e0" stroke="#999999" points="607.5,-129 533.5,-129 533.5,-110 607.5,-110 607.5,-129"/>
<text text-anchor="middle" x="570.5" y="-117" font-family="Helvetica,sans-Serif" font-size="10.00">QScrollArea</text>
</a>
</g>
</g>
<!-- Node1&#45;&gt;Node8 -->
<g id="edge7_Node000001_Node000008" class="edge">
<title>Node1&#45;&gt;Node8</title>
<g id="a_edge7_Node000001_Node000008"><a xlink:title=" ">
<path fill="none" stroke="#63b8ff" d="M454.67,-164.98C477.27,-156.3 512.56,-142.75 538.25,-132.88"/>
<polygon fill="#63b8ff" stroke="#63b8ff" points="539.84,-136.02 547.92,-129.17 537.33,-129.49 539.84,-136.02"/>
</a>
</g>
</g>
<!-- Node9 -->
<g id="Node000009" class="node">
<title>Node9</title>
<g id="a_Node000009"><a xlink:title=" ">
<polygon fill="#e0e0e0" stroke="#999999" points="626,-74 573,-74 573,-55 626,-55 626,-74"/>
<text text-anchor="middle" x="599.5" y="-62" font-family="Helvetica,sans-Serif" font-size="10.00">QTimer</text>
</a>
</g>
</g>
<!-- Node1&#45;&gt;Node9 -->
<g id="edge8_Node000001_Node000009" class="edge">
<title>Node1&#45;&gt;Node9</title>
<g id="a_edge8_Node000001_Node000009"><a xlink:title=" ">
<path fill="none" stroke="#63b8ff" d="M506.28,-164.99C551.24,-158.11 602.63,-146.63 616.5,-129 626.94,-115.74 619.64,-96.61 611.62,-82.82"/>
<polygon fill="#63b8ff" stroke="#63b8ff" points="614.49,-80.81 606.16,-74.26 608.59,-84.57 614.49,-80.81"/>
</a>
</g>
</g>
<!-- Node10 -->
<g id="Node000010" class="node">
<title>Node10</title>
<g id="a_Node000010"><a xlink:title=" ">
<polygon fill="#e0e0e0" stroke="#999999" points="702.5,-74 644.5,-74 644.5,-55 702.5,-55 702.5,-74"/>
<text text-anchor="middle" x="673.5" y="-62" font-family="Helvetica,sans-Serif" font-size="10.00">memory</text>
</a>
</g>
</g>
<!-- Node1&#45;&gt;Node10 -->
<g id="edge9_Node000001_Node000010" class="edge">
<title>Node1&#45;&gt;Node10</title>
<g id="a_edge9_Node000001_Node000010"><a xlink:title=" ">
<path fill="none" stroke="#63b8ff" d="M512.22,-170.13C551.68,-165.1 598.28,-153.79 633.5,-129 649.45,-117.78 660.42,-97.97 666.78,-83.45"/>
<polygon fill="#63b8ff" stroke="#63b8ff" points="670.1,-84.6 670.61,-74.02 663.61,-81.97 670.1,-84.6"/>
</a>
</g>
</g>
<!-- Node11 -->
<g id="Node000011" class="node">
<title>Node11</title>
<g id="a_Node000011"><a xlink:href="../../d7/d62/FileUrlSupport_8h.html" target="_top" xlink:title=" ">
<polygon fill="white" stroke="#666666" points="940.5,-129 812.5,-129 812.5,-110 940.5,-110 940.5,-129"/>
<text text-anchor="middle" x="876.5" y="-117" font-family="Helvetica,sans-Serif" font-size="10.00">media/FileUrlSupport.h</text>
</a>
</g>
</g>
<!-- Node1&#45;&gt;Node11 -->
<g id="edge10_Node000001_Node000011" class="edge">
<title>Node1&#45;&gt;Node11</title>
<g id="a_edge10_Node000001_Node000011"><a xlink:title=" ">
<path fill="none" stroke="#63b8ff" d="M503.84,-164.98C585.61,-155.22 719.02,-139.3 802.07,-129.38"/>
<polygon fill="#63b8ff" stroke="#63b8ff" points="802.68,-132.84 812.19,-128.18 801.85,-125.89 802.68,-132.84"/>
</a>
</g>
</g>
<!-- Node11&#45;&gt;Node9 -->
<g id="edge19_Node000011_Node000009" class="edge">
<title>Node11&#45;&gt;Node9</title>
<g id="a_edge19_Node000011_Node000009"><a xlink:title=" ">
<path fill="none" stroke="#63b8ff" d="M826.05,-109.93C779.38,-101.83 707.86,-89 636.3,-74.08"/>
<polygon fill="#63b8ff" stroke="#63b8ff" points="636.71,-70.59 626.2,-71.96 635.27,-77.44 636.71,-70.59"/>
</a>
</g>
</g>
<!-- Node11&#45;&gt;Node10 -->
<g id="edge21_Node000011_Node000010" class="edge">
<title>Node11&#45;&gt;Node10</title>
<g id="a_edge21_Node000011_Node000010"><a xlink:title=" ">
<path fill="none" stroke="#63b8ff" d="M843.88,-109.98C808.08,-100.64 750.63,-85.64 712.48,-75.68"/>
<polygon fill="#63b8ff" stroke="#63b8ff" points="713.3,-72.27 702.74,-73.13 711.53,-79.05 713.3,-72.27"/>
</a>
</g>
</g>
<!-- Node12 -->
<g id="Node000012" class="node">
<title>Node12</title>
<g id="a_Node000012"><a xlink:href="../../df/d56/IComponent_8h.html" target="_top" xlink:title=" ">
<polygon fill="white" stroke="#666666" points="990,-74 905,-74 905,-55 990,-55 990,-74"/>
<text text-anchor="middle" x="947.5" y="-62" font-family="Helvetica,sans-Serif" font-size="10.00">IComponent.h</text>
</a>
</g>
</g>
<!-- Node11&#45;&gt;Node12 -->
<g id="edge11_Node000011_Node000012" class="edge">
<title>Node11&#45;&gt;Node12</title>
<g id="a_edge11_Node000011_Node000012"><a xlink:title=" ">
<path fill="none" stroke="#63b8ff" d="M887.91,-109.98C898.61,-102 914.84,-89.88 927.66,-80.31"/>
<polygon fill="#63b8ff" stroke="#63b8ff" points="929.97,-82.96 935.89,-74.17 925.78,-77.35 929.97,-82.96"/>
</a>
</g>
</g>
<!-- Node13 -->
<g id="Node000013" class="node">
<title>Node13</title>
<g id="a_Node000013"><a xlink:title=" ">
<polygon fill="#e0e0e0" stroke="#999999" points="938,-19 885,-19 885,0 938,0 938,-19"/>
<text text-anchor="middle" x="911.5" y="-7" font-family="Helvetica,sans-Serif" font-size="10.00">QString</text>
</a>
</g>
</g>
<!-- Node11&#45;&gt;Node13 -->
<g id="edge14_Node000011_Node000013" class="edge">
<title>Node11&#45;&gt;Node13</title>
<g id="a_edge14_Node000011_Node000013"><a xlink:title=" ">
<path fill="none" stroke="#63b8ff" d="M879.16,-109.85C882.95,-97.62 890.12,-74.56 896.5,-55 899.35,-46.27 902.59,-36.61 905.33,-28.52"/>
<polygon fill="#63b8ff" stroke="#63b8ff" points="908.66,-29.61 908.57,-19.01 902.04,-27.35 908.66,-29.61"/>
</a>
</g>
</g>
<!-- Node14 -->
<g id="Node000014" class="node">
<title>Node14</title>
<g id="a_Node000014"><a xlink:title=" ">
<polygon fill="#e0e0e0" stroke="#999999" points="1064.5,-74 1008.5,-74 1008.5,-55 1064.5,-55 1064.5,-74"/>
<text text-anchor="middle" x="1036.5" y="-62" font-family="Helvetica,sans-Serif" font-size="10.00">QObject</text>
</a>
</g>
</g>
<!-- Node11&#45;&gt;Node14 -->
<g id="edge13_Node000011_Node000014" class="edge">
<title>Node11&#45;&gt;Node14</title>
<g id="a_edge13_Node000011_Node000014"><a xlink:title=" ">
<path fill="none" stroke="#63b8ff" d="M902.21,-109.98C928.95,-101.13 971.03,-87.19 1000.95,-77.28"/>
<polygon fill="#63b8ff" stroke="#63b8ff" points="1002.2,-80.55 1010.59,-74.08 1000,-73.9 1002.2,-80.55"/>
</a>
</g>
</g>
<!-- Node15 -->
<g id="Node000015" class="node">
<title>Node15</title>
<g id="a_Node000015"><a xlink:title=" ">
<polygon fill="#e0e0e0" stroke="#999999" points="1152.5,-74 1082.5,-74 1082.5,-55 1152.5,-55 1152.5,-74"/>
<text text-anchor="middle" x="1117.5" y="-62" font-family="Helvetica,sans-Serif" font-size="10.00">QStringList</text>
</a>
</g>
</g>
<!-- Node11&#45;&gt;Node15 -->
<g id="edge15_Node000011_Node000015" class="edge">
<title>Node11&#45;&gt;Node15</title>
<g id="a_edge15_Node000011_Node000015"><a xlink:title=" ">
<path fill="none" stroke="#63b8ff" d="M915.22,-109.98C958.15,-100.54 1027.28,-85.34 1072.56,-75.38"/>
<polygon fill="#63b8ff" stroke="#63b8ff" points="1073.39,-78.78 1082.4,-73.22 1071.88,-71.95 1073.39,-78.78"/>
</a>
</g>
</g>
<!-- Node16 -->
<g id="Node000016" class="node">
<title>Node16</title>
<g id="a_Node000016"><a xlink:title=" ">
<polygon fill="#e0e0e0" stroke="#999999" points="1208.5,-74 1170.5,-74 1170.5,-55 1208.5,-55 1208.5,-74"/>
<text text-anchor="middle" x="1189.5" y="-62" font-family="Helvetica,sans-Serif" font-size="10.00">QUrl</text>
</a>
</g>
</g>
<!-- Node11&#45;&gt;Node16 -->
<g id="edge16_Node000011_Node000016" class="edge">
<title>Node11&#45;&gt;Node16</title>
<g id="a_edge16_Node000011_Node000016"><a xlink:title=" ">
<path fill="none" stroke="#63b8ff" d="M940.66,-111.09C996.47,-104.05 1079.64,-92.14 1160.47,-73.96"/>
<polygon fill="#63b8ff" stroke="#63b8ff" points="1161.35,-77.35 1170.32,-71.71 1159.79,-70.52 1161.35,-77.35"/>
</a>
</g>
</g>
<!-- Node17 -->
<g id="Node000017" class="node">
<title>Node17</title>
<g id="a_Node000017"><a xlink:title=" ">
<polygon fill="#e0e0e0" stroke="#999999" points="1302,-74 1227,-74 1227,-55 1302,-55 1302,-74"/>
<text text-anchor="middle" x="1264.5" y="-62" font-family="Helvetica,sans-Serif" font-size="10.00">QMimeData</text>
</a>
</g>
</g>
<!-- Node11&#45;&gt;Node17 -->
<g id="edge17_Node000011_Node000017" class="edge">
<title>Node11&#45;&gt;Node17</title>
<g id="a_edge17_Node000011_Node000017"><a xlink:title=" ">
<path fill="none" stroke="#63b8ff" d="M940.74,-111.07C1007.24,-103.17 1114.39,-89.83 1216.91,-74.02"/>
<polygon fill="#63b8ff" stroke="#63b8ff" points="1217.47,-77.48 1226.82,-72.48 1216.4,-70.56 1217.47,-77.48"/>
</a>
</g>
</g>
<!-- Node18 -->
<g id="Node000018" class="node">
<title>Node18</title>
<g id="a_Node000018"><a xlink:title=" ">
<polygon fill="#e0e0e0" stroke="#999999" points="780.5,-74 720.5,-74 720.5,-55 780.5,-55 780.5,-74"/>
<text text-anchor="middle" x="750.5" y="-62" font-family="Helvetica,sans-Serif" font-size="10.00">QFileInfo</text>
</a>
</g>
</g>
<!-- Node11&#45;&gt;Node18 -->
<g id="edge18_Node000011_Node000018" class="edge">
<title>Node11&#45;&gt;Node18</title>
<g id="a_edge18_Node000011_Node000018"><a xlink:title=" ">
<path fill="none" stroke="#63b8ff" d="M856.26,-109.98C835.8,-101.38 803.97,-87.99 780.57,-78.15"/>
<polygon fill="#63b8ff" stroke="#63b8ff" points="781.69,-74.82 771.11,-74.17 778.97,-81.27 781.69,-74.82"/>
</a>
</g>
</g>
<!-- Node19 -->
<g id="Node000019" class="node">
<title>Node19</title>
<g id="a_Node000019"><a xlink:title=" ">
<polygon fill="#e0e0e0" stroke="#999999" points="848,-74 799,-74 799,-55 848,-55 848,-74"/>
<text text-anchor="middle" x="823.5" y="-62" font-family="Helvetica,sans-Serif" font-size="10.00">QHash</text>
</a>
</g>
</g>
<!-- Node11&#45;&gt;Node19 -->
<g id="edge20_Node000011_Node000019" class="edge">
<title>Node11&#45;&gt;Node19</title>
<g id="a_edge20_Node000011_Node000019"><a xlink:title=" ">
<path fill="none" stroke="#63b8ff" d="M867.75,-109.75C860.03,-102.03 848.6,-90.6 839.28,-81.28"/>
<polygon fill="#63b8ff" stroke="#63b8ff" points="841.64,-78.69 832.09,-74.09 836.69,-83.64 841.64,-78.69"/>
</a>
</g>
</g>
<!-- Node12&#45;&gt;Node13 -->
<g id="edge12_Node000012_Node000013" class="edge">
<title>Node12&#45;&gt;Node13</title>
<g id="a_edge12_Node000012_Node000013"><a xlink:title=" ">
<path fill="none" stroke="#63b8ff" d="M941.56,-54.75C936.52,-47.34 929.16,-36.5 922.99,-27.41"/>
<polygon fill="#63b8ff" stroke="#63b8ff" points="925.85,-25.39 917.33,-19.09 920.06,-29.33 925.85,-25.39"/>
</a>
</g>
</g>
</g>
</svg>
